<svg width="256" height="256" fill="none" xmlns="http://www.w3.org/2000/svg"><circle cx="128" cy="128" r="126" fill="#fff" stroke="#313131" stroke-width="4"/><circle cx="127.5" cy="127.5" r="105.5" stroke="#E41D22" stroke-width="10"/><path d="M163.891 117.783c-.028-.056-.055-.083-.055-.138a2.427 2.427 0 00-.275-.441c-.083-.137-.165-.247-.22-.385l-.248-.413a31.869 31.869 0 00-16.563-13.103l-.165-.055c-.22-.083-.44-.138-.66-.221-.193-.055-.358-.11-.551-.165-.247-.082-.467-.137-.715-.22l-.578-.165-.578-.165c-.247-.055-.467-.138-.715-.193-.027 0-.082-.028-.11-.028-.385-.11-.77-.192-1.156-.275V78.252h1.294c.963 0 1.815-.385 2.421-1.019.605-.633 1.018-1.486 1.018-2.422V60.469a3.453 3.453 0 00-1.266-2.67c-.247-.22-.55-.386-.853-.524a3.567 3.567 0 00-1.348-.275h-28.173c-.606 0-1.156.138-1.651.413-.193.11-.385.22-.55.358a3.453 3.453 0 00-1.266 2.67v14.342c0 1.9 1.541 3.441 3.439 3.441h1.293v23.565c-.385.082-.77.192-1.155.302-.028 0-.083.028-.11.028-.248.055-.468.138-.716.193l-.577.165-.578.165c-.248.083-.468.138-.716.22-.192.055-.357.11-.55.165-.22.083-.44.138-.66.221l-.165.055a31.97 31.97 0 00-9.41 5.147 31.843 31.843 0 00-7.153 7.956c-.083.138-.193.303-.275.441-.083.137-.165.247-.22.385-.083.138-.165.303-.248.44a.213.213 0 00-.055.138A32.068 32.068 0 0089 133.281c0 1.239.055 2.505.22 3.744l2.751 23.812 1.459 12.635 2.366 20.509c.275 2.285 2.2 4.019 4.484 4.019h56.43a4.54 4.54 0 003.026-1.156 4.454 4.454 0 001.459-2.863l2.366-20.509 1.458-12.635 2.751-23.812c.138-1.129.193-2.258.193-3.386a32.179 32.179 0 00-4.072-15.856zm-44.076-23.702v-7.763h17.333v7.763h-17.333zm17.333 4.129v2.78c-2.861-.44-5.75-.66-8.639-.66h-.055c-2.889 0-5.778.22-8.639.66v-2.78h17.333zm-17.333-16.022v-3.936h17.333v3.936h-17.333zm-8.007 25.024c.193-.055.386-.138.551-.193.165-.055.33-.11.522-.165l.496-.165.495-.166c.165-.055.358-.11.523-.137.165-.055.33-.083.495-.138.192-.055.358-.11.55-.137.165-.028.303-.083.468-.111.192-.055.385-.082.55-.137.165-.028.303-.083.468-.11.192-.055.385-.083.578-.138.165-.028.302-.055.467-.11.193-.028.386-.083.578-.11.165-.028.303-.055.468-.083.192-.027.385-.055.578-.11.165-.027.302-.055.467-.083l.578-.082c.165-.028.303-.055.468-.083l.578-.082c.165-.028.302-.055.467-.055a4.05 4.05 0 01.578-.055c.165-.028.33-.028.468-.055.192-.028.385-.028.578-.055.165-.028.33-.028.467-.056.193-.027.386-.027.578-.027.165 0 .33-.028.495-.028.193 0 .358-.027.551-.027.165 0 .33-.028.495-.028.192 0 .358 0 .55-.027.165 0 .33 0 .523-.028h2.091c.165 0 .33 0 .523.028.192 0 .357 0 .55.027.165 0 .33.028.495.028.193 0 .358.027.55.027.165 0 .331.028.496.028.192 0 .357.027.55.027.165 0 .33.028.495.056.193.027.385.027.55.055.165.027.331.027.468.055.193.027.385.055.578.055.165.027.303.027.468.055l.577.082c.165.028.303.055.468.083l.578.082c.165.028.303.056.468.083.192.028.385.055.577.11.165.028.303.055.468.083.193.027.385.082.578.11.165.027.303.055.468.11.192.028.385.083.577.11.165.028.303.083.468.11.193.055.385.083.55.138.165.027.303.082.468.11.193.055.358.083.55.138.165.055.331.082.496.137.165.055.357.11.522.165l.496.166c.165.055.33.11.522.165.165.055.33.11.523.165.193.055.385.11.578.193a27.4 27.4 0 017.236 3.743 27.691 27.691 0 015.805 5.671H98.767a27.604 27.604 0 0113.041-9.414zm51.835 29.317l-2.751 23.812-3.824 33.144c0 .11-.055.193-.138.248l-.028.028a.311.311 0 01-.22.082H100.28c-.027 0-.082-.027-.11-.027h-.055c-.027 0-.055-.028-.055-.055-.027 0-.027-.028-.055-.028-.082-.055-.11-.138-.137-.248l-3.825-33.144-2.75-23.812c-.634-5.423.384-10.901 2.86-15.746h64.629c2.476 4.818 3.466 10.323 2.861 15.746z" fill="#313131"/><path d="M109.952 148.834c0-10.212 8.3-18.54 18.53-18.54 10.229 0 18.529 8.328 18.529 18.54s-8.326 18.541-18.529 18.541c-10.205 0-18.53-8.303-18.53-18.541z" fill="#E41D22" stroke="#000" stroke-width="3"/></svg>