<svg width="16" height="16" fill="none" xmlns="http://www.w3.org/2000/svg"><g clip-path="url(#clip0_329_616)"><path d="M13.665 2.321A7.926 7.926 0 008.027 0C3.645 0 .072 3.554.072 7.929c0 1.392.359 2.75 1.06 3.964L0 16l4.22-1.09a7.88 7.88 0 003.807.965c4.382 0 7.973-3.554 7.973-7.929a7.848 7.848 0 00-2.335-5.625zm-1.274 8.804c-.18.518-1.078.982-1.509 1.054a3.238 3.238 0 01-1.4-.09c-.324-.107-.737-.232-1.275-.464-2.245-.964-3.718-3.214-3.825-3.357-.108-.16-.916-1.214-.916-2.304 0-1.089.592-1.643.79-1.857a.791.791 0 01.592-.286h.431c.144 0 .324-.053.503.375.18.447.629 1.536.683 1.643.054.107.09.25.018.393-.072.16-.108.25-.216.375-.126.125-.233.286-.341.393-.108.107-.216.232-.09.446.126.215.575.947 1.24 1.536.843.768 1.58 1 1.795 1.107.215.107.36.09.485-.053.125-.161.556-.661.7-.875.144-.215.305-.179.503-.107.198.071 1.31.607 1.526.714.234.107.377.16.431.303.054.09.054.536-.125 1.054z" fill="#fff"/></g><defs><clipPath id="clip0_329_616"><path fill="#fff" d="M0 0h16v16H0z"/></clipPath></defs></svg>