<svg width="400" height="475" viewBox="0 0 400 475" fill="none" xmlns="http://www.w3.org/2000/svg">
<g clip-path="url(#clip0_119_361)">
<path d="M257.35 2.97003H135.73C128.92 2.97003 123.4 8.49036 123.4 15.3V431.27C123.4 438.08 128.92 443.6 135.73 443.6H257.35C264.16 443.6 269.68 438.08 269.68 431.27V15.3C269.68 8.49036 264.16 2.97003 257.35 2.97003Z" fill="#D8D8D8"/>
<path d="M234 3.00001L235.17 443.64L249.3 443.57L264.17 442.08L270.12 431.92L269.25 420.75V404.84L268.74 23.61C268.74 23.61 269.97 14.34 269.74 13.89C269.51 13.44 265.5 6.08001 265.5 6.08001C265.5 6.08001 258.4 3.08001 258.11 2.97001C257.82 2.86001 249.32 3.60001 249.32 3.60001H235L234 3.00001Z" fill="#BCBCBC"/>
<path d="M258.34 2.97003H134.74C128.477 2.97003 123.4 8.04712 123.4 14.31V432.26C123.4 438.523 128.477 443.6 134.74 443.6H258.34C264.603 443.6 269.68 438.523 269.68 432.26V14.31C269.68 8.04712 264.603 2.97003 258.34 2.97003Z" stroke="#919191" stroke-width="3" stroke-miterlimit="10"/>
<path d="M157.33 129.73C157.668 127.913 158.306 126.166 159.22 124.56C163 118.06 166.76 111.55 170.5 105.03C171.833 102.73 173.167 100.43 174.5 98.13C174.602 97.9429 174.715 97.7625 174.84 97.59C174.91 97.479 175.002 97.383 175.109 97.3073C175.216 97.2317 175.338 97.1779 175.466 97.1492C175.594 97.1204 175.727 97.1171 175.856 97.1396C175.985 97.162 176.109 97.2097 176.22 97.28C176.339 97.3393 176.445 97.4218 176.532 97.5227C176.619 97.6236 176.685 97.7408 176.726 97.8675C176.767 97.9942 176.782 98.1278 176.771 98.2604C176.76 98.3931 176.722 98.5221 176.66 98.64C176.551 98.8793 176.424 99.11 176.28 99.33C171.18 108.183 166.073 117.037 160.96 125.89C159.596 128.11 159.163 130.778 159.754 133.315C160.346 135.852 161.915 138.053 164.12 139.44C165.781 140.48 167.711 141.008 169.67 140.96H214C215.804 141.028 217.61 140.992 219.41 140.85C221.028 140.682 222.578 140.113 223.92 139.195C225.263 138.277 226.356 137.039 227.1 135.593C227.845 134.147 228.217 132.539 228.184 130.913C228.151 129.287 227.713 127.694 226.91 126.28C224.61 122.1 222.17 118.01 219.79 113.88C214.017 103.96 208.263 94.0167 202.53 84.05C201.826 82.759 200.843 81.6409 199.653 80.7768C198.463 79.9128 197.095 79.3244 195.65 79.0544C194.204 78.7844 192.716 78.8396 191.295 79.2159C189.873 79.5922 188.553 80.2802 187.43 81.23C186.474 82.0975 185.661 83.1099 185.02 84.23C183.02 87.6 181.02 91.03 179.1 94.44C178.984 94.6742 178.843 94.8955 178.68 95.1C178.527 95.2856 178.313 95.4099 178.076 95.4503C177.839 95.4907 177.596 95.4445 177.39 95.32C177.161 95.2111 176.982 95.0193 176.89 94.7836C176.797 94.5478 176.797 94.2857 176.89 94.05C176.959 93.8714 177.046 93.7004 177.15 93.54C179.15 90.01 181.15 86.46 183.27 82.95C184.326 81.0843 185.858 79.5322 187.709 78.4522C189.561 77.3723 191.666 76.8033 193.81 76.8033C195.954 76.8033 198.059 77.3723 199.911 78.4522C201.762 79.5322 203.294 81.0843 204.35 82.95C207.29 87.95 210.17 93.01 213.07 98.05C218.21 106.957 223.353 115.87 228.5 124.79C229.927 127.118 230.518 129.863 230.174 132.572C229.831 135.281 228.573 137.792 226.61 139.69C225.478 140.808 224.132 141.687 222.653 142.273C221.173 142.858 219.591 143.14 218 143.1H189.69C183.14 143.1 176.59 143.01 170.04 143.1C166.993 143.253 164 142.248 161.662 140.288C159.324 138.328 157.812 135.557 157.43 132.53C157.41 132.439 157.376 132.351 157.33 132.27V129.73Z" fill="#919191" stroke="#919191" stroke-miterlimit="10"/>
<path d="M193.79 135.27H169.72C168.664 135.349 167.618 135.029 166.786 134.373C165.955 133.718 165.4 132.775 165.23 131.73C165.079 130.682 165.317 129.614 165.9 128.73C168.467 124.29 171.03 119.85 173.59 115.41L189.94 87C190.363 86.1123 191.08 85.3983 191.97 84.9791C192.859 84.5598 193.866 84.4612 194.82 84.7C195.434 84.8518 196.008 85.1365 196.5 85.5338C196.993 85.9312 197.392 86.4317 197.67 87C201.59 93.8333 205.523 100.657 209.47 107.47L213.94 115.23C214.042 115.39 214.132 115.557 214.21 115.73C214.344 115.968 214.38 116.249 214.309 116.513C214.239 116.778 214.069 117.004 213.835 117.145C213.6 117.285 213.321 117.329 213.054 117.266C212.788 117.204 212.557 117.04 212.41 116.81C212.275 116.617 212.151 116.417 212.04 116.21L195.79 88C194.95 86.54 193.35 86.23 192.3 87.31C192.071 87.5823 191.87 87.8771 191.7 88.19L177 113.75L167.84 129.65C167.593 130.054 167.426 130.502 167.35 130.97C167.311 131.497 167.483 132.019 167.828 132.42C168.173 132.821 168.663 133.069 169.19 133.11C169.453 133.13 169.717 133.13 169.98 133.11H218.1C218.484 133.136 218.867 133.053 219.207 132.872C219.546 132.691 219.828 132.419 220.021 132.086C220.213 131.753 220.309 131.372 220.296 130.988C220.284 130.603 220.164 130.23 219.95 129.91C218.95 128.07 217.84 126.25 216.79 124.43L214.7 120.79C214.28 120.05 214.36 119.44 214.92 119.1C215.48 118.76 216.12 118.98 216.55 119.74C218.29 122.727 220.02 125.727 221.74 128.74C222.174 129.394 222.415 130.156 222.438 130.941C222.46 131.725 222.262 132.5 221.867 133.178C221.471 133.856 220.893 134.409 220.199 134.775C219.505 135.141 218.723 135.306 217.94 135.25L193.79 135.27Z" fill="#919191" stroke="#919191" stroke-miterlimit="10"/>
<path d="M191.45 117.89C189.39 117.89 187.45 117.89 185.5 117.89C185.073 117.96 184.635 117.894 184.248 117.702C183.86 117.509 183.544 117.199 183.342 116.816C183.141 116.434 183.065 115.997 183.126 115.569C183.186 115.14 183.38 114.742 183.68 114.43C187.23 109.26 190.75 104.09 194.3 98.93C194.566 98.5147 194.948 98.1876 195.4 97.99C195.661 97.903 195.941 97.8871 196.211 97.9441C196.48 98.0011 196.729 98.1288 196.933 98.3142C197.137 98.4996 197.287 98.7359 197.37 98.9988C197.452 99.2617 197.462 99.5417 197.4 99.81C196.96 102.34 196.47 104.81 196.01 107.37C195.87 108.09 195.74 108.81 195.6 109.62C195.9 109.62 196.14 109.62 196.39 109.62C198.14 109.62 199.9 109.62 201.66 109.62C202.078 109.548 202.508 109.61 202.888 109.798C203.268 109.987 203.579 110.291 203.775 110.667C203.971 111.043 204.042 111.472 203.978 111.891C203.914 112.311 203.719 112.699 203.42 113C199.853 118.2 196.29 123.407 192.73 128.62C192.063 129.567 191.323 129.837 190.51 129.43C189.76 129.06 189.51 128.43 189.69 127.37C190.18 124.74 190.69 122.1 191.17 119.47C191.26 119 191.34 118.48 191.45 117.89ZM201.66 111.8H194.51C193.51 111.8 193.09 111.28 193.27 110.29C193.33 109.99 193.4 109.69 193.45 109.39C193.9 106.99 194.34 104.6 194.79 102.2H194.68L185.38 115.81H192.32C193.61 115.81 193.96 116.25 193.71 117.54L192.24 125.42H192.35L201.66 111.8Z" fill="#919191" stroke="#919191" stroke-miterlimit="10"/>
<path d="M152.37 206.42C156.578 206.42 159.99 203.008 159.99 198.8C159.99 194.592 156.578 191.18 152.37 191.18C148.162 191.18 144.75 194.592 144.75 198.8C144.75 203.008 148.162 206.42 152.37 206.42Z" stroke="#919191" stroke-width="3" stroke-miterlimit="10"/>
<path d="M196.53 206.42C200.738 206.42 204.15 203.008 204.15 198.8C204.15 194.592 200.738 191.18 196.53 191.18C192.322 191.18 188.91 194.592 188.91 198.8C188.91 203.008 192.322 206.42 196.53 206.42Z" stroke="#919191" stroke-width="3" stroke-miterlimit="10"/>
<path d="M241.56 206.42C245.768 206.42 249.18 203.008 249.18 198.8C249.18 194.592 245.768 191.18 241.56 191.18C237.352 191.18 233.94 194.592 233.94 198.8C233.94 203.008 237.352 206.42 241.56 206.42Z" stroke="#919191" stroke-width="3" stroke-miterlimit="10"/>
<path d="M147.38 253.64H247.04" stroke="#919191" stroke-width="3" stroke-linecap="round" stroke-linejoin="round"/>
<path d="M147.38 264.3H247.04" stroke="#919191" stroke-width="3" stroke-linecap="round" stroke-linejoin="round"/>
<path d="M147.38 274.97H247.04" stroke="#919191" stroke-width="3" stroke-linecap="round" stroke-linejoin="round"/>
<path d="M147.38 286.5H247.04" stroke="#919191" stroke-width="3" stroke-linecap="round" stroke-linejoin="round"/>
<path d="M128.76 36.45V83.74" stroke="white" stroke-width="3" stroke-linecap="round" stroke-linejoin="round"/>
<path d="M167.22 120.59L187.02 86.28" stroke="white" stroke-width="3" stroke-linecap="round" stroke-linejoin="round"/>
<path d="M123.71 116.94H45.09C38.2803 116.94 32.76 122.46 32.76 129.27V415.71C32.76 422.52 38.2803 428.04 45.09 428.04H123.71C130.52 428.04 136.04 422.52 136.04 415.71V129.27C136.04 122.46 130.52 116.94 123.71 116.94Z" fill="#D8D8D8"/>
<path d="M110.82 116.94L111.64 428.05L121.64 427.99L132.14 426.94L136.34 419.77L135.72 411.89V400.67L135.36 131.51C135.36 131.51 136.23 124.96 136.06 124.65C135.89 124.34 133.06 119.13 133.06 119.13C133.06 119.13 128.06 117.04 127.85 116.94C127.64 116.84 121.64 117.38 121.64 117.38H111.53L110.82 116.94Z" fill="#BCBCBC"/>
<path d="M124.7 116.94H44.1C37.8371 116.94 32.76 122.017 32.76 128.28V416.7C32.76 422.963 37.8371 428.04 44.1 428.04H124.7C130.963 428.04 136.04 422.963 136.04 416.7V128.28C136.04 122.017 130.963 116.94 124.7 116.94Z" stroke="#919191" stroke-width="3" stroke-miterlimit="10"/>
<path d="M56.72 206.43C56.9558 205.149 57.409 203.918 58.06 202.79C60.73 198.2 63.37 193.6 66.06 189L68.87 184.13C68.95 184 69.02 183.86 69.11 183.74C69.1597 183.658 69.2257 183.587 69.3039 183.532C69.382 183.477 69.4707 183.438 69.5645 183.418C69.6582 183.399 69.755 183.398 69.8488 183.418C69.9427 183.437 70.0316 183.475 70.11 183.53C70.1971 183.574 70.2744 183.635 70.3371 183.71C70.3998 183.785 70.4466 183.872 70.4747 183.966C70.5027 184.059 70.5115 184.157 70.5004 184.255C70.4892 184.352 70.4585 184.445 70.41 184.53C70.3372 184.697 70.2502 184.858 70.15 185.01C66.5433 191.263 62.9367 197.513 59.33 203.76C58.3672 205.329 58.0614 207.215 58.4788 209.008C58.8962 210.801 60.0032 212.357 61.56 213.34C62.7371 214.065 64.0978 214.437 65.48 214.41H96.7C97.9703 214.457 99.2423 214.433 100.51 214.34C101.653 214.223 102.749 213.822 103.698 213.174C104.648 212.526 105.42 211.652 105.947 210.63C106.473 209.609 106.736 208.472 106.712 207.323C106.688 206.174 106.378 205.049 105.81 204.05C104.19 201.1 102.46 198.21 100.81 195.29C96.7633 188.27 92.7133 181.253 88.66 174.24C88.1631 173.328 87.4696 172.539 86.6299 171.928C85.7901 171.318 84.825 170.902 83.8046 170.71C82.7842 170.519 81.734 170.557 80.73 170.821C79.7261 171.086 78.7935 171.571 78 172.24C77.3274 172.84 76.7537 173.542 76.3 174.32C74.87 176.7 73.51 179.13 72.12 181.54C72.033 181.701 71.9326 181.855 71.82 182C71.7135 182.133 71.5617 182.222 71.3937 182.249C71.2258 182.277 71.0535 182.242 70.91 182.15C70.7473 182.074 70.6201 181.938 70.555 181.77C70.4898 181.603 70.4916 181.416 70.56 181.25C70.6094 181.126 70.6732 181.009 70.75 180.9C72.18 178.4 73.61 175.9 75.07 173.42C75.8155 172.104 76.897 171.008 78.2041 170.246C79.5112 169.484 80.997 169.083 82.51 169.083C84.023 169.083 85.5088 169.484 86.8159 170.246C88.123 171.008 89.2045 172.104 89.95 173.42C92 177 94 180.51 96.08 184.07L107 203C108.007 204.644 108.424 206.583 108.18 208.496C107.937 210.409 107.047 212.181 105.66 213.52C104.869 214.297 103.931 214.91 102.901 215.322C101.871 215.734 100.769 215.937 99.66 215.92H79.66C75.03 215.92 70.41 215.85 65.78 215.92C63.6292 216.028 61.5172 215.319 59.8668 213.936C58.2165 212.552 57.1496 210.597 56.88 208.46C56.88 208.39 56.88 208.34 56.81 208.27L56.72 206.43Z" fill="#919191" stroke="#919191" stroke-miterlimit="10"/>
<path d="M82.46 210.35H65.46C64.7153 210.402 63.9778 210.175 63.3916 209.713C62.8054 209.251 62.4126 208.586 62.29 207.85C62.166 207.096 62.3341 206.324 62.76 205.69L68.19 196.29C72.0367 189.623 75.8867 182.957 79.74 176.29C80.038 175.664 80.5435 175.161 81.1706 174.865C81.7977 174.57 82.5077 174.501 83.18 174.67C83.6098 174.778 84.0112 174.978 84.3564 175.256C84.7016 175.534 84.9826 175.883 85.18 176.28C87.9467 181.1 90.7233 185.917 93.51 190.73L96.67 196.21C96.741 196.322 96.8045 196.439 96.86 196.56C96.9135 196.643 96.9485 196.736 96.9628 196.834C96.9771 196.932 96.9703 197.031 96.9428 197.126C96.9153 197.221 96.8678 197.309 96.8035 197.383C96.7392 197.458 96.6596 197.518 96.57 197.56C96.4923 197.614 96.4045 197.653 96.3117 197.673C96.2189 197.693 96.1231 197.694 96.0299 197.676C95.9367 197.658 95.8479 197.622 95.7689 197.57C95.69 197.517 95.6223 197.449 95.57 197.37C95.4761 197.231 95.3893 197.088 95.31 196.94L83.87 177C83.7757 176.77 83.6258 176.567 83.4337 176.409C83.2416 176.252 83.0133 176.144 82.7694 176.097C82.5255 176.049 82.2736 176.063 82.0363 176.137C81.799 176.211 81.5838 176.342 81.41 176.52C81.2419 176.706 81.1005 176.915 80.99 177.14C77.5233 183.14 74.06 189.14 70.6 195.14L64.13 206.37C63.9568 206.656 63.8381 206.971 63.78 207.3C63.7577 207.671 63.881 208.037 64.1237 208.319C64.3664 208.601 64.7095 208.777 65.08 208.81C65.263 208.825 65.447 208.825 65.63 208.81H99.63C99.9012 208.829 100.172 208.771 100.412 208.643C100.652 208.515 100.851 208.322 100.987 208.086C101.122 207.851 101.189 207.582 101.179 207.31C101.169 207.038 101.083 206.775 100.93 206.55C100.2 205.25 99.45 203.97 98.7 202.67L97.22 200.11C96.93 199.58 96.99 199.11 97.38 198.92C97.77 198.73 98.23 198.83 98.53 199.36C99.7567 201.48 100.977 203.6 102.19 205.72C102.481 206.184 102.639 206.719 102.648 207.266C102.656 207.814 102.515 208.353 102.239 208.826C101.963 209.299 101.562 209.687 101.081 209.949C100.6 210.21 100.057 210.335 99.51 210.31C93.83 210.36 88.15 210.35 82.46 210.35Z" fill="#919191" stroke="#919191" stroke-miterlimit="10"/>
<path d="M80.81 198.07C79.35 198.07 77.98 198.07 76.61 198.07C76.3089 198.107 76.0036 198.053 75.7329 197.916C75.4623 197.779 75.2385 197.565 75.09 197.3C74.9557 197.029 74.9067 196.723 74.9496 196.423C74.9924 196.123 75.1251 195.843 75.33 195.62C77.83 191.98 80.33 188.32 82.82 184.68C83.0095 184.388 83.2808 184.159 83.6 184.02C83.7834 183.96 83.9794 183.95 84.1679 183.991C84.3564 184.032 84.5307 184.122 84.6731 184.252C84.8154 184.382 84.9207 184.548 84.9781 184.732C85.0356 184.916 85.0431 185.112 85 185.3C84.7 187.09 84.35 188.86 84 190.64C83.91 191.15 83.82 191.64 83.71 192.23H84.27C85.51 192.23 86.75 192.23 87.99 192.23C88.2744 192.202 88.5607 192.257 88.8144 192.389C89.0682 192.52 89.2785 192.722 89.42 192.97C89.5575 193.231 89.613 193.527 89.5791 193.819C89.5452 194.112 89.4235 194.388 89.23 194.61L81.69 205.61C81.23 206.28 80.69 206.46 80.12 206.17C79.55 205.88 79.4 205.47 79.54 204.72C79.88 202.86 80.24 201 80.54 199.14C80.67 198.86 80.73 198.49 80.81 198.07ZM88.02 193.77H83C82.29 193.77 82 193.4 82.13 192.71L82.25 192.07C82.57 190.37 82.88 188.68 83.25 186.99H83.17L76.6 196.6H81.5C82.42 196.6 82.66 196.92 82.5 197.82C82.15 199.68 81.81 201.53 81.5 203.39H81.58L88.02 193.77Z" fill="#919191" stroke="#919191" stroke-miterlimit="10"/>
<path d="M53.22 260.58C56.1913 260.58 58.6 258.171 58.6 255.2C58.6 252.229 56.1913 249.82 53.22 249.82C50.2487 249.82 47.84 252.229 47.84 255.2C47.84 258.171 50.2487 260.58 53.22 260.58Z" stroke="#919191" stroke-width="3" stroke-miterlimit="10"/>
<path d="M84.4 260.58C87.3713 260.58 89.78 258.171 89.78 255.2C89.78 252.229 87.3713 249.82 84.4 249.82C81.4287 249.82 79.02 252.229 79.02 255.2C79.02 258.171 81.4287 260.58 84.4 260.58Z" stroke="#919191" stroke-width="3" stroke-miterlimit="10"/>
<path d="M116.19 260.58C119.161 260.58 121.57 258.171 121.57 255.2C121.57 252.229 119.161 249.82 116.19 249.82C113.219 249.82 110.81 252.229 110.81 255.2C110.81 258.171 113.219 260.58 116.19 260.58Z" stroke="#919191" stroke-width="3" stroke-miterlimit="10"/>
<path d="M49.7 293.92H120.06" stroke="#919191" stroke-width="3" stroke-linecap="round" stroke-linejoin="round"/>
<path d="M49.7 301.45H120.06" stroke="#919191" stroke-width="3" stroke-linecap="round" stroke-linejoin="round"/>
<path d="M49.7 308.98H120.06" stroke="#919191" stroke-width="3" stroke-linecap="round" stroke-linejoin="round"/>
<path d="M49.7 317.12H120.06" stroke="#919191" stroke-width="3" stroke-linecap="round" stroke-linejoin="round"/>
<path d="M36.55 140.58V173.97" stroke="white" stroke-width="3" stroke-linecap="round" stroke-linejoin="round"/>
<path d="M357.07 86.04H278.45C271.64 86.04 266.12 91.5604 266.12 98.37V384.81C266.12 391.62 271.64 397.14 278.45 397.14H357.07C363.88 397.14 369.4 391.62 369.4 384.81V98.37C369.4 91.5604 363.88 86.04 357.07 86.04Z" fill="#D8D8D8"/>
<path d="M344.18 86L345 397.1L355 397.05L365.5 396.05L369.7 388.88L369.08 381V369.77L368.72 100.61C368.72 100.61 369.59 94.06 369.42 93.74C369.25 93.42 366.42 88.23 366.42 88.23C366.42 88.23 361.42 86.14 361.21 86.04C361 85.94 355 86.48 355 86.48H344.89L344.18 86Z" fill="#BCBCBC"/>
<path d="M358.06 86.04H277.46C271.197 86.04 266.12 91.1171 266.12 97.38V385.8C266.12 392.063 271.197 397.14 277.46 397.14H358.06C364.323 397.14 369.4 392.063 369.4 385.8V97.38C369.4 91.1171 364.323 86.04 358.06 86.04Z" stroke="#919191" stroke-width="3" stroke-miterlimit="10"/>
<path d="M290.08 175.53C290.32 174.25 290.773 173.02 291.42 171.89C294.09 167.3 296.73 162.69 299.42 158.1C300.36 156.47 301.3 154.85 302.23 153.22C302.31 153.09 302.38 152.96 302.47 152.84C302.573 152.68 302.733 152.565 302.918 152.52C303.103 152.475 303.299 152.503 303.464 152.598C303.629 152.693 303.751 152.849 303.804 153.032C303.857 153.215 303.838 153.411 303.75 153.58C303.677 153.75 303.59 153.914 303.49 154.07C299.877 160.323 296.27 166.573 292.67 172.82C291.71 174.388 291.406 176.271 291.824 178.062C292.241 179.853 293.346 181.407 294.9 182.39C296.074 183.122 297.436 183.498 298.82 183.47H330.1C331.37 183.517 332.642 183.493 333.91 183.4C335.053 183.283 336.149 182.882 337.098 182.234C338.048 181.586 338.82 180.712 339.347 179.69C339.873 178.669 340.136 177.532 340.112 176.383C340.088 175.234 339.778 174.109 339.21 173.11C337.59 170.16 335.87 167.27 334.21 164.35C330.157 157.33 326.107 150.313 322.06 143.3C321.563 142.39 320.87 141.602 320.031 140.992C319.192 140.383 318.228 139.968 317.209 139.776C316.19 139.585 315.141 139.622 314.138 139.886C313.135 140.149 312.203 140.632 311.41 141.3C310.734 141.902 310.156 142.608 309.7 143.39C308.27 145.77 306.91 148.2 305.52 150.6C305.435 150.766 305.335 150.923 305.22 151.07C305.114 151.203 304.962 151.292 304.794 151.319C304.626 151.347 304.453 151.312 304.31 151.22C304.147 151.144 304.02 151.008 303.955 150.84C303.89 150.672 303.892 150.486 303.96 150.32C304.009 150.196 304.073 150.079 304.15 149.97C305.59 147.47 307.01 144.97 308.47 142.49C309.215 141.173 310.297 140.078 311.604 139.316C312.911 138.554 314.397 138.153 315.91 138.153C317.423 138.153 318.909 138.554 320.216 139.316C321.523 140.078 322.605 141.173 323.35 142.49C325.43 146.03 327.46 149.59 329.51 153.15L340.4 172.03C341.405 173.683 341.815 175.63 341.56 177.547C341.305 179.465 340.402 181.237 339 182.57C338.203 183.354 337.257 183.971 336.218 184.383C335.179 184.795 334.068 184.995 332.95 184.97H312.95C308.32 184.97 303.7 184.91 299.07 184.97C296.92 185.075 294.809 184.366 293.159 182.983C291.509 181.6 290.442 179.646 290.17 177.51C290.162 177.442 290.138 177.377 290.1 177.32L290.08 175.53Z" fill="#919191" stroke="#919191" stroke-miterlimit="10"/>
<path d="M315.82 179.45H298.82C298.075 179.502 297.338 179.275 296.752 178.813C296.165 178.351 295.773 177.686 295.65 176.95C295.536 176.197 295.703 175.428 296.12 174.79L301.55 165.39L313.1 145.39C313.396 144.762 313.901 144.257 314.528 143.96C315.156 143.662 315.867 143.592 316.54 143.76C316.97 143.872 317.37 144.074 317.715 144.353C318.06 144.633 318.342 144.983 318.54 145.38C321.307 150.2 324.083 155.017 326.87 159.83C327.93 161.65 328.983 163.477 330.03 165.31C330.101 165.422 330.164 165.539 330.22 165.66C330.272 165.743 330.306 165.837 330.319 165.934C330.332 166.031 330.325 166.13 330.298 166.225C330.271 166.319 330.224 166.406 330.16 166.481C330.097 166.556 330.018 166.617 329.93 166.66C329.852 166.715 329.764 166.754 329.67 166.774C329.577 166.794 329.48 166.795 329.387 166.776C329.293 166.757 329.204 166.72 329.126 166.665C329.047 166.611 328.981 166.541 328.93 166.46C328.834 166.326 328.747 166.186 328.67 166.04C324.89 159.347 321.08 152.7 317.24 146.1C317.144 145.87 316.993 145.667 316.8 145.51C316.607 145.352 316.378 145.245 316.134 145.197C315.889 145.15 315.637 145.164 315.399 145.237C315.161 145.311 314.945 145.443 314.77 145.62C314.602 145.806 314.461 146.015 314.35 146.24C310.877 152.24 307.413 158.24 303.96 164.24C301.8 167.98 299.643 171.723 297.49 175.47C297.317 175.756 297.198 176.071 297.14 176.4C297.118 176.771 297.241 177.137 297.484 177.419C297.726 177.701 298.069 177.877 298.44 177.91C298.626 177.925 298.814 177.925 299 177.91H333C333.271 177.929 333.542 177.871 333.782 177.743C334.022 177.615 334.221 177.422 334.357 177.186C334.492 176.951 334.559 176.682 334.549 176.41C334.539 176.138 334.452 175.875 334.3 175.65C333.57 174.35 332.82 173.06 332.07 171.77L330.59 169.2C330.3 168.68 330.36 168.25 330.75 168.02C331.14 167.79 331.6 167.93 331.9 168.46C333.13 170.58 334.36 172.69 335.57 174.82C335.861 175.285 336.02 175.82 336.028 176.369C336.036 176.917 335.894 177.457 335.617 177.931C335.339 178.404 334.937 178.792 334.455 179.053C333.973 179.314 333.428 179.437 332.88 179.41L315.82 179.45Z" fill="#919191" stroke="#919191" stroke-miterlimit="10"/>
<path d="M314.17 167.17C312.71 167.17 311.34 167.17 309.97 167.17C309.669 167.207 309.364 167.153 309.093 167.016C308.822 166.879 308.598 166.665 308.45 166.4C308.316 166.129 308.267 165.823 308.31 165.523C308.352 165.223 308.485 164.943 308.69 164.72C311.19 161.073 313.687 157.427 316.18 153.78C316.367 153.486 316.639 153.255 316.96 153.12C317.144 153.057 317.341 153.044 317.531 153.084C317.721 153.123 317.897 153.213 318.04 153.344C318.184 153.475 318.289 153.642 318.345 153.828C318.401 154.014 318.407 154.212 318.36 154.4C318.06 156.18 317.71 157.96 317.36 159.74C317.27 160.24 317.18 160.74 317.07 161.33H317.63H321.35C321.64 161.293 321.935 161.346 322.194 161.481C322.453 161.617 322.665 161.828 322.8 162.088C322.935 162.347 322.987 162.642 322.95 162.932C322.912 163.222 322.787 163.494 322.59 163.71L315.05 174.71C314.59 175.39 314.05 175.57 313.48 175.28C312.91 174.99 312.76 174.58 312.9 173.83C313.24 171.97 313.6 170.11 313.95 168.25C314 168 314.1 167.59 314.17 167.17ZM321.38 162.87H316.33C315.62 162.87 315.33 162.5 315.46 161.8L315.58 161.16C315.9 159.47 316.21 157.78 316.53 156.09H316.45L309.89 165.7H314.78C315.7 165.7 315.94 166.01 315.78 166.92C315.43 168.78 315.09 170.63 314.78 172.49H314.86L321.38 162.87Z" fill="#919191" stroke="#919191" stroke-miterlimit="10"/>
<path d="M286.58 229.68C289.551 229.68 291.96 227.271 291.96 224.3C291.96 221.329 289.551 218.92 286.58 218.92C283.609 218.92 281.2 221.329 281.2 224.3C281.2 227.271 283.609 229.68 286.58 229.68Z" stroke="#919191" stroke-width="3" stroke-miterlimit="10"/>
<path d="M317.76 229.68C320.731 229.68 323.14 227.271 323.14 224.3C323.14 221.329 320.731 218.92 317.76 218.92C314.789 218.92 312.38 221.329 312.38 224.3C312.38 227.271 314.789 229.68 317.76 229.68Z" stroke="#919191" stroke-width="3" stroke-miterlimit="10"/>
<path d="M349.55 229.68C352.521 229.68 354.93 227.271 354.93 224.3C354.93 221.329 352.521 218.92 349.55 218.92C346.579 218.92 344.17 221.329 344.17 224.3C344.17 227.271 346.579 229.68 349.55 229.68Z" stroke="#919191" stroke-width="3" stroke-miterlimit="10"/>
<path d="M283.06 263.02H353.42" stroke="#919191" stroke-width="3" stroke-linecap="round" stroke-linejoin="round"/>
<path d="M283.06 270.55H353.42" stroke="#919191" stroke-width="3" stroke-linecap="round" stroke-linejoin="round"/>
<path d="M283.06 278.08H353.42" stroke="#919191" stroke-width="3" stroke-linecap="round" stroke-linejoin="round"/>
<path d="M283.06 286.22H353.42" stroke="#919191" stroke-width="3" stroke-linecap="round" stroke-linejoin="round"/>
<path d="M269.91 109.68V143.07" stroke="white" stroke-width="3" stroke-linecap="round" stroke-linejoin="round"/>
<path d="M326.36 279.39L369.21 262.87L368.5 455.78L326.84 443.48L326.36 279.39Z" fill="#BCBCBC"/>
<path d="M32.33 262.23L75.71 280L75.3 445.61L32.86 457.24L32.33 262.23Z" fill="#BCBCBC"/>
<path d="M74.65 279.71L189.3 279.63L192.21 281C192.6 281.2 196.35 284.88 196.35 284.88L197.07 288.38L197.55 292.38V436C197.55 436 196.08 441.07 195.87 441.35C195.66 441.63 191.02 445.35 191.02 445.35L74.65 444.51V279.71Z" fill="#D8D8D8"/>
<path d="M326.25 278.88L211.61 278.79C211.61 278.79 209.09 279.97 208.7 280.17C208.31 280.37 204.55 284.04 204.55 284.04L203.84 287.55L203.35 291.55V435.2C203.35 435.2 204.82 440.27 205.03 440.55C205.24 440.83 209.89 444.55 209.89 444.55L326.25 443.72V278.88Z" fill="#D8D8D8"/>
<path d="M317.07 444.35H212.54C210.052 444.35 207.666 443.362 205.907 441.603C204.148 439.844 203.16 437.458 203.16 434.97V288.4C203.16 285.912 204.148 283.526 205.907 281.767C207.666 280.008 210.052 279.02 212.54 279.02H317.07" stroke="#919191" stroke-width="3" stroke-miterlimit="10"/>
<path d="M326.36 440.32H217.17C211.76 440.32 207.37 436.32 207.37 431.44V292.7C207.37 287.79 211.76 283.82 217.17 283.82H326.36" stroke="#919191" stroke-width="3" stroke-miterlimit="10"/>
<path d="M326.36 278.65V434.97" stroke="#919191" stroke-width="3" stroke-miterlimit="10"/>
<path d="M311.23 279.02H326.45L369.21 262.44V456.57L326.45 444.35H308.46" stroke="#919191" stroke-width="3" stroke-linecap="round" stroke-linejoin="round"/>
<path d="M326.45 444.35V429.44" stroke="#919191" stroke-width="3" stroke-miterlimit="10"/>
<path d="M218.71 283.82V440.32" stroke="#919191" stroke-width="3" stroke-miterlimit="10"/>
<path d="M218.71 302.96H313.66" stroke="#919191" stroke-width="3" stroke-miterlimit="10"/>
<path d="M218.71 323.08H313.66" stroke="#919191" stroke-width="3" stroke-miterlimit="10"/>
<path d="M230.49 303.01V323.08" stroke="#919191" stroke-width="3" stroke-miterlimit="10"/>
<path d="M243.14 303.01V323.08" stroke="#919191" stroke-width="3" stroke-miterlimit="10"/>
<path d="M254.92 303.01V323.08" stroke="#919191" stroke-width="3" stroke-miterlimit="10"/>
<path d="M266.86 303.01V321.8" stroke="#919191" stroke-width="3" stroke-miterlimit="10"/>
<path d="M278.43 303.01V323.08" stroke="#919191" stroke-width="3" stroke-miterlimit="10"/>
<path d="M290.12 303.01V321.8" stroke="#919191" stroke-width="3" stroke-miterlimit="10"/>
<path d="M301.44 303.01V321.8" stroke="#919191" stroke-width="3" stroke-miterlimit="10"/>
<path d="M313.66 283.82V440.32" stroke="#919191" stroke-width="3" stroke-miterlimit="10"/>
<path d="M218.71 315.01H313.59" stroke="#919191" stroke-width="3" stroke-miterlimit="10"/>
<path d="M224.38 315.01V308.79" stroke="#919191" stroke-width="3" stroke-linecap="round" stroke-linejoin="round"/>
<path d="M236.81 314.77V308.56" stroke="#919191" stroke-width="3" stroke-linecap="round" stroke-linejoin="round"/>
<path d="M249.03 314.77V308.56" stroke="#919191" stroke-width="3" stroke-linecap="round" stroke-linejoin="round"/>
<path d="M260.89 315.01V308.79" stroke="#919191" stroke-width="3" stroke-linecap="round" stroke-linejoin="round"/>
<path d="M272.58 315.23V309.01" stroke="#919191" stroke-width="3" stroke-linecap="round" stroke-linejoin="round"/>
<path d="M284.27 314.77V308.56" stroke="#919191" stroke-width="3" stroke-linecap="round" stroke-linejoin="round"/>
<path d="M295.78 314.77V308.56" stroke="#919191" stroke-width="3" stroke-linecap="round" stroke-linejoin="round"/>
<path d="M307.88 315.01V308.79" stroke="#919191" stroke-width="3" stroke-linecap="round" stroke-linejoin="round"/>
<path d="M218.67 343.2H313.62" stroke="#919191" stroke-width="3" stroke-miterlimit="10"/>
<path d="M218.67 363.32H313.62" stroke="#919191" stroke-width="3" stroke-miterlimit="10"/>
<path d="M230.45 343.26V363.32" stroke="#919191" stroke-width="3" stroke-miterlimit="10"/>
<path d="M243.1 343.26V363.32" stroke="#919191" stroke-width="3" stroke-miterlimit="10"/>
<path d="M254.88 343.26V363.32" stroke="#919191" stroke-width="3" stroke-miterlimit="10"/>
<path d="M266.83 343.26V362.05" stroke="#919191" stroke-width="3" stroke-miterlimit="10"/>
<path d="M278.39 343.26V363.32" stroke="#919191" stroke-width="3" stroke-miterlimit="10"/>
<path d="M290.08 343.26V362.05" stroke="#919191" stroke-width="3" stroke-miterlimit="10"/>
<path d="M301.4 343.26V362.05" stroke="#919191" stroke-width="3" stroke-miterlimit="10"/>
<path d="M218.67 355.25H313.55" stroke="#919191" stroke-width="3" stroke-miterlimit="10"/>
<path d="M224.34 355.25V349.04" stroke="#919191" stroke-width="3" stroke-linecap="round" stroke-linejoin="round"/>
<path d="M236.77 355.02V348.8" stroke="#919191" stroke-width="3" stroke-linecap="round" stroke-linejoin="round"/>
<path d="M248.99 355.02V348.8" stroke="#919191" stroke-width="3" stroke-linecap="round" stroke-linejoin="round"/>
<path d="M260.85 355.25V349.04" stroke="#919191" stroke-width="3" stroke-linecap="round" stroke-linejoin="round"/>
<path d="M272.54 355.47V349.26" stroke="#919191" stroke-width="3" stroke-linecap="round" stroke-linejoin="round"/>
<path d="M284.23 355.02V348.8" stroke="#919191" stroke-width="3" stroke-linecap="round" stroke-linejoin="round"/>
<path d="M295.74 355.02V348.8" stroke="#919191" stroke-width="3" stroke-linecap="round" stroke-linejoin="round"/>
<path d="M307.84 355.25V349.04" stroke="#919191" stroke-width="3" stroke-linecap="round" stroke-linejoin="round"/>
<path d="M218.63 391.57H313.59" stroke="#919191" stroke-width="3" stroke-miterlimit="10"/>
<path d="M218.63 411.69H313.59" stroke="#919191" stroke-width="3" stroke-miterlimit="10"/>
<path d="M230.41 391.62V411.69" stroke="#919191" stroke-width="3" stroke-miterlimit="10"/>
<path d="M243.06 391.62V411.69" stroke="#919191" stroke-width="3" stroke-miterlimit="10"/>
<path d="M254.84 391.62V411.69" stroke="#919191" stroke-width="3" stroke-miterlimit="10"/>
<path d="M266.79 391.62V410.41" stroke="#919191" stroke-width="3" stroke-miterlimit="10"/>
<path d="M278.35 391.62V411.69" stroke="#919191" stroke-width="3" stroke-miterlimit="10"/>
<path d="M290.04 391.62V410.41" stroke="#919191" stroke-width="3" stroke-miterlimit="10"/>
<path d="M301.36 391.62V410.41" stroke="#919191" stroke-width="3" stroke-miterlimit="10"/>
<path d="M218.63 403.62H313.51" stroke="#919191" stroke-width="3" stroke-miterlimit="10"/>
<path d="M224.3 403.62V397.4" stroke="#919191" stroke-width="3" stroke-linecap="round" stroke-linejoin="round"/>
<path d="M236.74 403.38V397.17" stroke="#919191" stroke-width="3" stroke-linecap="round" stroke-linejoin="round"/>
<path d="M248.95 403.38V397.17" stroke="#919191" stroke-width="3" stroke-linecap="round" stroke-linejoin="round"/>
<path d="M260.81 403.62V397.4" stroke="#919191" stroke-width="3" stroke-linecap="round" stroke-linejoin="round"/>
<path d="M272.5 403.84V397.62" stroke="#919191" stroke-width="3" stroke-linecap="round" stroke-linejoin="round"/>
<path d="M284.2 403.38V397.17" stroke="#919191" stroke-width="3" stroke-linecap="round" stroke-linejoin="round"/>
<path d="M295.7 403.38V397.17" stroke="#919191" stroke-width="3" stroke-linecap="round" stroke-linejoin="round"/>
<path d="M307.8 403.62V397.4" stroke="#919191" stroke-width="3" stroke-linecap="round" stroke-linejoin="round"/>
<path d="M84.62 444.81H189.14C191.628 444.81 194.014 443.822 195.773 442.063C197.532 440.304 198.52 437.918 198.52 435.43V288.86C198.52 286.372 197.532 283.986 195.773 282.227C194.014 280.468 191.628 279.48 189.14 279.48H84.62" stroke="#919191" stroke-width="3" stroke-miterlimit="10"/>
<path d="M75.32 440.77H184.51C189.93 440.77 194.32 436.77 194.32 431.89V293.15C194.32 288.25 189.93 284.27 184.51 284.27H75.32" stroke="#919191" stroke-width="3" stroke-miterlimit="10"/>
<path d="M75.32 279.1V435.43" stroke="#919191" stroke-width="3" stroke-miterlimit="10"/>
<path d="M90.46 279.48H75.24L32.47 262.44V457.02L75.24 444.81H93.22" stroke="#919191" stroke-width="3" stroke-linecap="round" stroke-linejoin="round"/>
<path d="M75.24 444.81V429.89" stroke="#919191" stroke-width="3" stroke-miterlimit="10"/>
<path d="M182.97 284.27V440.77" stroke="#919191" stroke-width="3" stroke-miterlimit="10"/>
<path d="M182.97 303.41H88.02" stroke="#919191" stroke-width="3" stroke-miterlimit="10"/>
<path d="M182.97 323.54H88.02" stroke="#919191" stroke-width="3" stroke-miterlimit="10"/>
<path d="M171.2 303.47V323.54" stroke="#919191" stroke-width="3" stroke-miterlimit="10"/>
<path d="M158.55 303.47V323.54" stroke="#919191" stroke-width="3" stroke-miterlimit="10"/>
<path d="M146.77 303.47V323.54" stroke="#919191" stroke-width="3" stroke-miterlimit="10"/>
<path d="M134.82 303.47V322.26" stroke="#919191" stroke-width="3" stroke-miterlimit="10"/>
<path d="M123.26 303.47V323.54" stroke="#919191" stroke-width="3" stroke-miterlimit="10"/>
<path d="M111.57 303.47V322.26" stroke="#919191" stroke-width="3" stroke-miterlimit="10"/>
<path d="M100.24 303.47V322.26" stroke="#919191" stroke-width="3" stroke-miterlimit="10"/>
<path d="M88.02 284.27V440.77" stroke="#919191" stroke-width="3" stroke-miterlimit="10"/>
<path d="M182.97 315.47H88.1" stroke="#919191" stroke-width="3" stroke-miterlimit="10"/>
<path d="M177.3 315.47V309.25" stroke="#919191" stroke-width="3" stroke-linecap="round" stroke-linejoin="round"/>
<path d="M164.87 315.23V309.01" stroke="#919191" stroke-width="3" stroke-linecap="round" stroke-linejoin="round"/>
<path d="M152.66 315.23V309.01" stroke="#919191" stroke-width="3" stroke-linecap="round" stroke-linejoin="round"/>
<path d="M140.79 315.47V309.25" stroke="#919191" stroke-width="3" stroke-linecap="round" stroke-linejoin="round"/>
<path d="M129.11 315.68V309.47" stroke="#919191" stroke-width="3" stroke-linecap="round" stroke-linejoin="round"/>
<path d="M117.41 315.23V309.01" stroke="#919191" stroke-width="3" stroke-linecap="round" stroke-linejoin="round"/>
<path d="M105.91 315.23V309.01" stroke="#919191" stroke-width="3" stroke-linecap="round" stroke-linejoin="round"/>
<path d="M93.81 315.47V309.25" stroke="#919191" stroke-width="3" stroke-linecap="round" stroke-linejoin="round"/>
<path d="M183.09 344.37H111.17" stroke="#919191" stroke-width="3" stroke-miterlimit="10"/>
<path d="M183.01 363.8H111.57" stroke="#919191" stroke-width="3" stroke-miterlimit="10"/>
<path d="M171.23 343.71V363.78" stroke="#919191" stroke-width="3" stroke-miterlimit="10"/>
<path d="M158.58 343.71V363.78" stroke="#919191" stroke-width="3" stroke-miterlimit="10"/>
<path d="M146.8 343.71V363.78" stroke="#919191" stroke-width="3" stroke-miterlimit="10"/>
<path d="M134.86 343.71V362.5" stroke="#919191" stroke-width="3" stroke-miterlimit="10"/>
<path d="M123.29 343.71V363.78" stroke="#919191" stroke-width="3" stroke-miterlimit="10"/>
<path d="M111.57 322.26L111.64 392.08" stroke="#919191" stroke-width="3" stroke-miterlimit="10"/>
<path d="M183.01 355.71H110.85" stroke="#919191" stroke-width="3" stroke-miterlimit="10"/>
<path d="M177.34 355.71V349.49" stroke="#919191" stroke-width="3" stroke-linecap="round" stroke-linejoin="round"/>
<path d="M164.91 355.47V349.26" stroke="#919191" stroke-width="3" stroke-linecap="round" stroke-linejoin="round"/>
<path d="M152.69 355.47V349.26" stroke="#919191" stroke-width="3" stroke-linecap="round" stroke-linejoin="round"/>
<path d="M140.83 355.71V349.49" stroke="#919191" stroke-width="3" stroke-linecap="round" stroke-linejoin="round"/>
<path d="M129.14 355.93V349.71" stroke="#919191" stroke-width="3" stroke-linecap="round" stroke-linejoin="round"/>
<path d="M117.45 355.47V349.26" stroke="#919191" stroke-width="3" stroke-linecap="round" stroke-linejoin="round"/>
<path d="M183.05 392.02H88.1" stroke="#919191" stroke-width="3" stroke-miterlimit="10"/>
<path d="M183.05 412.15H88.1" stroke="#919191" stroke-width="3" stroke-miterlimit="10"/>
<path d="M171.27 392.08V412.15" stroke="#919191" stroke-width="3" stroke-miterlimit="10"/>
<path d="M158.62 392.08V412.15" stroke="#919191" stroke-width="3" stroke-miterlimit="10"/>
<path d="M146.84 392.08V412.15" stroke="#919191" stroke-width="3" stroke-miterlimit="10"/>
<path d="M134.9 392.08V410.87" stroke="#919191" stroke-width="3" stroke-miterlimit="10"/>
<path d="M123.33 392.08V412.15" stroke="#919191" stroke-width="3" stroke-miterlimit="10"/>
<path d="M111.64 392.08V410.87" stroke="#919191" stroke-width="3" stroke-miterlimit="10"/>
<path d="M100.32 392.08V410.87" stroke="#919191" stroke-width="3" stroke-miterlimit="10"/>
<path d="M183.05 404.08H88.17" stroke="#919191" stroke-width="3" stroke-miterlimit="10"/>
<path d="M177.38 404.08V397.86" stroke="#919191" stroke-width="3" stroke-linecap="round" stroke-linejoin="round"/>
<path d="M164.95 403.84V397.62" stroke="#919191" stroke-width="3" stroke-linecap="round" stroke-linejoin="round"/>
<path d="M152.73 403.84V397.62" stroke="#919191" stroke-width="3" stroke-linecap="round" stroke-linejoin="round"/>
<path d="M140.87 404.08V397.86" stroke="#919191" stroke-width="3" stroke-linecap="round" stroke-linejoin="round"/>
<path d="M129.18 404.29V398.08" stroke="#919191" stroke-width="3" stroke-linecap="round" stroke-linejoin="round"/>
<path d="M117.49 403.84V397.62" stroke="#919191" stroke-width="3" stroke-linecap="round" stroke-linejoin="round"/>
<path d="M105.98 403.84V397.62" stroke="#919191" stroke-width="3" stroke-linecap="round" stroke-linejoin="round"/>
<path d="M93.88 404.08V397.86" stroke="#919191" stroke-width="3" stroke-linecap="round" stroke-linejoin="round"/>
<path d="M100.24 360.87C102.283 360.87 103.94 359.213 103.94 357.17C103.94 355.127 102.283 353.47 100.24 353.47C98.1966 353.47 96.54 355.127 96.54 357.17C96.54 359.213 98.1966 360.87 100.24 360.87Z" stroke="#919191" stroke-width="3" stroke-miterlimit="10"/>
<path d="M92.06 287.96H120.96" stroke="white" stroke-width="3" stroke-linecap="round" stroke-linejoin="round"/>
<path d="M222.28 287.32H262.85" stroke="white" stroke-width="3" stroke-linecap="round" stroke-linejoin="round"/>
<path d="M36.83 268.99V299.33" stroke="#919191" stroke-width="3" stroke-linecap="round" stroke-linejoin="round"/>
<path d="M329.92 281.64V309.01" stroke="white" stroke-width="3" stroke-linecap="round" stroke-linejoin="round"/>
<path d="M296.29 218.91H256.39C251.149 218.91 246.9 223.159 246.9 228.4V268.3C246.9 273.541 251.149 277.79 256.39 277.79H296.29C301.531 277.79 305.78 273.541 305.78 268.3V228.4C305.78 223.159 301.531 218.91 296.29 218.91Z" fill="#D8D8D8"/>
<path d="M307.1 222.9C307.071 221.794 306.697 220.725 306.029 219.843C305.362 218.961 304.436 218.309 303.38 217.98L302.78 217.74H250.07C246.54 219.21 245.75 220.41 245.75 224.32V273C245.75 273.34 245.75 273.67 245.75 274C245.802 275.119 246.208 276.192 246.908 277.065C247.609 277.939 248.569 278.567 249.65 278.86C250.029 278.954 250.413 279.024 250.8 279.07H291.72C292.079 279.081 292.438 279.05 292.79 278.98C293.064 278.904 293.304 278.735 293.467 278.502C293.63 278.269 293.706 277.986 293.682 277.702C293.658 277.418 293.536 277.152 293.337 276.949C293.137 276.746 292.873 276.619 292.59 276.59C292.29 276.59 291.98 276.59 291.68 276.59H251.48C249.71 276.59 248.58 275.77 248.29 274.27C248.248 273.969 248.231 273.664 248.24 273.36V223.42C248.24 221.31 249.32 220.25 251.43 220.25H301.38C303.54 220.25 304.59 221.31 304.59 223.49V273.35C304.59 275.5 303.5 276.58 301.36 276.59C300.22 276.59 299.08 276.59 297.94 276.59C297.774 276.569 297.605 276.583 297.445 276.63C297.284 276.678 297.135 276.758 297.008 276.867C296.88 276.975 296.776 277.108 296.702 277.258C296.629 277.409 296.587 277.573 296.58 277.74C296.567 277.915 296.591 278.09 296.651 278.254C296.711 278.419 296.805 278.569 296.927 278.694C297.048 278.82 297.195 278.919 297.358 278.983C297.521 279.048 297.695 279.078 297.87 279.07C298.28 279.07 298.7 279.07 299.2 279.07H302C302.417 279.013 302.831 278.933 303.24 278.83C304.401 278.499 305.414 277.781 306.111 276.795C306.807 275.809 307.146 274.615 307.07 273.41C307.07 256.743 307.07 240.077 307.07 223.41L307.1 222.9Z" fill="#919191"/>
<path d="M253.64 230.93V263.15H299.21V230.93H262.51C262.23 230.93 261.95 230.93 261.68 230.93C261.519 230.929 261.36 230.896 261.212 230.832C261.063 230.769 260.929 230.677 260.817 230.562C260.704 230.447 260.616 230.31 260.556 230.161C260.497 230.011 260.467 229.851 260.47 229.69C260.472 229.38 260.589 229.081 260.801 228.853C261.012 228.625 261.3 228.485 261.61 228.46C261.833 228.44 262.057 228.44 262.28 228.46H298.72C299.126 228.41 299.538 228.453 299.925 228.586C300.312 228.719 300.663 228.938 300.953 229.228C301.242 229.517 301.461 229.868 301.594 230.255C301.727 230.642 301.77 231.054 301.72 231.46V262.73C301.774 263.137 301.734 263.551 301.603 263.939C301.471 264.328 301.252 264.681 300.962 264.972C300.671 265.262 300.318 265.481 299.929 265.613C299.541 265.744 299.127 265.784 298.72 265.73H254.08C253.673 265.784 253.259 265.744 252.871 265.613C252.482 265.481 252.129 265.262 251.839 264.972C251.548 264.681 251.329 264.328 251.197 263.939C251.066 263.551 251.026 263.137 251.08 262.73C251.08 252.31 251.08 241.887 251.08 231.46C251.08 229.46 252.08 228.46 254.08 228.46C254.77 228.46 255.47 228.46 256.16 228.46C256.334 228.443 256.51 228.463 256.677 228.518C256.843 228.574 256.996 228.663 257.126 228.78C257.256 228.898 257.36 229.042 257.431 229.202C257.502 229.362 257.539 229.535 257.54 229.71C257.544 229.885 257.51 230.058 257.442 230.219C257.373 230.38 257.271 230.524 257.143 230.643C257.014 230.761 256.862 230.85 256.696 230.905C256.53 230.96 256.354 230.979 256.18 230.96L253.64 230.93Z" fill="#919191"/>
<path d="M296.41 239.24C296.435 238.869 296.38 238.497 296.25 238.148C296.12 237.8 295.917 237.483 295.655 237.219C295.393 236.955 295.078 236.75 294.73 236.618C294.383 236.485 294.011 236.428 293.64 236.45H259.21C258.84 236.429 258.469 236.488 258.123 236.621C257.776 236.754 257.463 236.96 257.202 237.223C256.941 237.487 256.739 237.803 256.609 238.151C256.48 238.499 256.425 238.87 256.45 239.24C256.45 240.33 256.45 241.41 256.45 242.49C256.45 244.68 257.45 245.63 259.6 245.64H293.53C293.92 245.683 294.315 245.637 294.685 245.507C295.055 245.377 295.391 245.166 295.668 244.888C295.946 244.611 296.157 244.275 296.287 243.905C296.417 243.534 296.463 243.14 296.42 242.75C296.42 241.57 296.43 240.4 296.41 239.24ZM261.74 243.07H259V239H261.75L261.74 243.07ZM267.09 243.07H264.35V239H267.09V243.07ZM272.44 243.07H269.7V239H272.44V243.07ZM277.78 243.07H275.05V239H277.78V243.07ZM283.15 243.07H280.41V239H283.15V243.07ZM288.5 243.07H285.77V239H288.5V243.07ZM293.85 243.07H291.11V239H293.85V243.07Z" fill="#919191"/>
<path d="M289.36 253.16C290.005 253.093 290.655 253.093 291.3 253.16C291.818 253.243 292.285 253.518 292.61 253.93C292.674 254.17 292.683 254.422 292.636 254.666C292.59 254.91 292.488 255.14 292.34 255.34C291.44 256.6 290.43 257.79 289.45 259C289.357 259.156 289.232 259.291 289.084 259.396C288.936 259.501 288.767 259.573 288.589 259.609C288.411 259.645 288.228 259.643 288.05 259.604C287.873 259.564 287.706 259.488 287.56 259.38C286.95 258.91 286.94 258.16 287.56 257.38L288.97 255.61C288.274 255.667 287.575 255.667 286.88 255.61C286.646 255.58 286.42 255.504 286.215 255.385C286.011 255.267 285.832 255.109 285.69 254.92C285.616 254.697 285.593 254.459 285.622 254.226C285.652 253.992 285.733 253.768 285.86 253.57C286.86 252.24 287.86 250.98 288.91 249.72C289.004 249.573 289.129 249.447 289.275 249.351C289.422 249.255 289.587 249.192 289.76 249.164C289.933 249.137 290.109 249.146 290.278 249.192C290.447 249.238 290.605 249.319 290.74 249.43C290.873 249.543 290.982 249.681 291.059 249.838C291.137 249.994 291.182 250.164 291.191 250.338C291.201 250.513 291.174 250.687 291.114 250.85C291.054 251.014 290.96 251.164 290.84 251.29C290.38 251.88 289.93 252.43 289.36 253.16Z" fill="#919191"/>
<path d="M259.69 252.32C258.41 252.32 257.81 251.93 257.79 251.1C257.77 250.27 258.42 249.82 259.73 249.82C259.953 249.805 260.177 249.805 260.4 249.82C260.567 249.818 260.732 249.851 260.885 249.917C261.039 249.983 261.176 250.08 261.29 250.203C261.403 250.325 261.489 250.47 261.542 250.628C261.596 250.786 261.615 250.954 261.6 251.12C261.602 251.281 261.57 251.441 261.507 251.589C261.444 251.737 261.35 251.87 261.233 251.98C261.115 252.091 260.976 252.175 260.824 252.228C260.672 252.282 260.511 252.303 260.35 252.29C260.13 252.33 259.91 252.32 259.69 252.32Z" fill="#919191"/>
<path d="M266.35 252.31C266.13 252.31 265.91 252.31 265.69 252.31C265.53 252.309 265.372 252.276 265.225 252.213C265.078 252.15 264.945 252.059 264.834 251.945C264.722 251.831 264.634 251.695 264.575 251.547C264.516 251.398 264.487 251.24 264.49 251.08C264.483 250.926 264.507 250.773 264.56 250.628C264.612 250.484 264.693 250.351 264.797 250.238C264.901 250.124 265.026 250.033 265.166 249.968C265.305 249.903 265.456 249.866 265.61 249.86C266.105 249.81 266.605 249.81 267.1 249.86C267.26 249.861 267.418 249.895 267.566 249.958C267.713 250.021 267.846 250.114 267.956 250.229C268.067 250.345 268.154 250.481 268.211 250.631C268.269 250.78 268.295 250.94 268.29 251.1C268.296 251.267 268.267 251.433 268.205 251.587C268.142 251.742 268.048 251.882 267.929 251.998C267.809 252.114 267.666 252.203 267.51 252.26C267.353 252.318 267.186 252.341 267.02 252.33C266.8 252.33 266.57 252.33 266.35 252.33V252.31Z" fill="#919191"/>
<path d="M273.07 252.32C272.87 252.32 272.68 252.32 272.49 252.32C272.327 252.324 272.165 252.296 272.013 252.237C271.861 252.178 271.722 252.09 271.604 251.978C271.486 251.866 271.392 251.731 271.326 251.582C271.26 251.433 271.224 251.273 271.22 251.11C271.216 250.947 271.244 250.785 271.303 250.633C271.362 250.481 271.45 250.342 271.562 250.224C271.674 250.106 271.809 250.012 271.958 249.946C272.107 249.88 272.267 249.844 272.43 249.84C272.846 249.805 273.264 249.805 273.68 249.84C273.846 249.83 274.013 249.855 274.17 249.912C274.327 249.969 274.47 250.057 274.592 250.171C274.713 250.285 274.81 250.423 274.877 250.576C274.944 250.728 274.979 250.893 274.98 251.06C274.98 251.81 274.5 252.28 273.65 252.33C273.45 252.33 273.26 252.32 273.07 252.32Z" fill="#919191"/>
<path d="M300.49 223.09C300.663 223.074 300.837 223.095 301.002 223.151C301.166 223.206 301.317 223.295 301.445 223.412C301.573 223.53 301.676 223.672 301.746 223.831C301.816 223.99 301.852 224.161 301.852 224.335C301.852 224.509 301.816 224.68 301.746 224.839C301.676 224.998 301.573 225.14 301.445 225.257C301.317 225.375 301.166 225.464 301.002 225.519C300.837 225.575 300.663 225.595 300.49 225.58C300.179 225.552 299.89 225.409 299.679 225.178C299.469 224.948 299.352 224.647 299.352 224.335C299.352 224.023 299.469 223.722 299.679 223.491C299.89 223.261 300.179 223.118 300.49 223.09Z" fill="#919191"/>
<path d="M252.33 223.09C252.652 223.084 252.963 223.203 253.2 223.42C253.436 223.638 253.579 223.939 253.6 224.26C253.612 224.426 253.591 224.594 253.536 224.751C253.482 224.909 253.396 225.054 253.283 225.178C253.171 225.301 253.035 225.401 252.883 225.47C252.731 225.539 252.567 225.576 252.4 225.58C252.228 225.6 252.054 225.583 251.889 225.532C251.723 225.481 251.57 225.395 251.44 225.282C251.309 225.169 251.203 225.029 251.129 224.873C251.055 224.716 251.014 224.546 251.009 224.373C251.005 224.2 251.036 224.028 251.101 223.868C251.166 223.707 251.264 223.562 251.388 223.442C251.512 223.321 251.66 223.227 251.822 223.167C251.984 223.106 252.157 223.08 252.33 223.09Z" fill="#919191"/>
<path d="M253.6 272.46C253.603 272.626 253.572 272.791 253.51 272.945C253.447 273.099 253.355 273.239 253.237 273.357C253.119 273.474 252.979 273.567 252.825 273.63C252.671 273.692 252.506 273.723 252.34 273.72C252.019 273.705 251.714 273.571 251.487 273.343C251.259 273.116 251.125 272.811 251.11 272.49C251.11 272.168 251.235 271.858 251.459 271.627C251.683 271.396 251.988 271.26 252.31 271.25C252.476 271.237 252.642 271.26 252.799 271.315C252.956 271.37 253.1 271.458 253.221 271.571C253.342 271.685 253.439 271.823 253.504 271.976C253.569 272.129 253.602 272.294 253.6 272.46Z" fill="#919191"/>
<path d="M300.45 271.25C300.616 271.243 300.782 271.27 300.938 271.329C301.093 271.387 301.235 271.477 301.356 271.592C301.476 271.706 301.572 271.844 301.638 271.997C301.704 272.149 301.739 272.314 301.74 272.48C301.73 272.801 301.601 273.106 301.377 273.336C301.153 273.566 300.85 273.703 300.53 273.72C300.364 273.724 300.199 273.695 300.044 273.633C299.889 273.572 299.749 273.481 299.63 273.364C299.512 273.248 299.418 273.108 299.354 272.955C299.291 272.801 299.259 272.636 299.26 272.47C299.256 272.311 299.284 272.153 299.342 272.005C299.4 271.858 299.487 271.723 299.598 271.609C299.709 271.495 299.841 271.405 299.988 271.343C300.134 271.282 300.291 271.25 300.45 271.25Z" fill="#919191"/>
<path d="M255.02 221.82H276.43" stroke="white" stroke-width="3" stroke-linecap="round" stroke-linejoin="round"/>
<path d="M170.57 192.31L184.35 184.64L186 186.2L186.23 195.37C186.23 195.37 186.23 287.47 186.35 287.15C186.47 286.83 184.35 288.25 184.35 288.25L171.35 280.42L170.93 269.42L173.28 264.88L170.93 260.73L170.99 210.73L173.63 207.73L172.23 203.91L170.23 201.91V192.81L170.57 192.31Z" fill="#BCBCBC"/>
<path d="M171.9 191.6V281.08L170.49 280.28L108.8 280.42L106.65 278.63L107.6 192.94L170.57 192.31L171.9 191.6Z" fill="#D8D8D8"/>
<path d="M183.26 289.35C179.1 287 174.95 284.64 170.77 282.35C170.205 282.041 169.574 281.873 168.93 281.86C163.83 281.86 158.73 281.86 153.63 281.86C153.32 281.86 153.01 281.86 152.7 281.86C151.7 281.79 151 281.18 151.02 280.28C151.024 280.063 151.073 279.85 151.165 279.653C151.257 279.457 151.39 279.282 151.554 279.141C151.719 278.999 151.911 278.894 152.119 278.831C152.326 278.769 152.545 278.752 152.76 278.78C156 278.78 159.23 278.78 162.47 278.78H168.82C168.82 278.37 168.9 278.08 168.9 277.78C168.9 276.12 168.83 274.47 168.9 272.78C169.021 272.249 168.934 271.692 168.657 271.223C168.379 270.755 167.933 270.41 167.41 270.26C166.446 269.857 165.64 269.151 165.113 268.249C164.587 267.347 164.368 266.298 164.49 265.26C164.514 264.196 164.867 263.166 165.501 262.312C166.135 261.458 167.019 260.821 168.03 260.49C168.305 260.436 168.55 260.279 168.712 260.05C168.874 259.82 168.941 259.538 168.9 259.26C168.9 244.06 168.9 228.867 168.9 213.68C168.94 213.401 168.87 213.117 168.704 212.889C168.537 212.661 168.288 212.507 168.01 212.46C166.965 212.082 166.063 211.39 165.427 210.478C164.791 209.567 164.454 208.481 164.46 207.37C164.462 206.277 164.8 205.212 165.428 204.317C166.055 203.423 166.943 202.743 167.97 202.37C168.264 202.314 168.525 202.146 168.698 201.902C168.872 201.658 168.944 201.356 168.9 201.06C168.9 198.83 168.9 196.59 168.9 194.25C168.46 194.25 168.09 194.19 167.73 194.19H109.64C108.27 194.19 108.25 194.19 108.25 195.57V277.33C108.25 278.76 108.25 278.76 109.69 278.76H145.25C145.663 278.735 146.077 278.735 146.49 278.76C146.681 278.764 146.87 278.806 147.045 278.884C147.219 278.962 147.377 279.074 147.507 279.214C147.638 279.354 147.739 279.519 147.805 279.698C147.87 279.878 147.899 280.069 147.89 280.26C147.901 280.451 147.874 280.643 147.81 280.824C147.746 281.004 147.647 281.171 147.519 281.313C147.391 281.455 147.235 281.57 147.062 281.652C146.889 281.734 146.701 281.781 146.51 281.79C146.2 281.81 145.89 281.81 145.58 281.79H109.51C106.51 281.79 105.15 280.42 105.15 277.43V195.4C105.15 192.4 106.51 191.04 109.5 191.04C129.28 191.04 149.057 191.04 168.83 191.04C169.608 191.032 170.371 190.829 171.05 190.45C174.72 188.45 178.35 186.3 182 184.23C184.83 182.62 187.35 184.07 187.35 187.31C187.35 220.083 187.35 252.847 187.35 285.6C187.393 286.409 187.177 287.211 186.735 287.891C186.293 288.57 185.647 289.091 184.89 289.38L183.26 289.35ZM184.16 286.35V186.64C184.027 186.674 183.897 186.717 183.77 186.77C180.03 188.9 176.29 191.02 172.57 193.19C172.409 193.318 172.278 193.478 172.185 193.661C172.091 193.844 172.039 194.045 172.03 194.25C171.98 196.63 171.97 199.01 172.03 201.39C172.072 201.832 172.284 202.24 172.62 202.53C173.109 202.885 173.507 203.351 173.78 203.89C174.053 204.429 174.194 205.026 174.19 205.63C174.19 206.8 174.19 207.97 174.19 209.15C174.19 209.736 174.051 210.315 173.783 210.836C173.515 211.358 173.127 211.808 172.65 212.15C172.478 212.29 172.335 212.463 172.23 212.659C172.125 212.854 172.061 213.069 172.04 213.29C172.04 228.73 172.04 244.167 172.04 259.6C172.096 260.041 172.322 260.443 172.67 260.72C173.134 261.054 173.514 261.492 173.778 261.999C174.042 262.506 174.183 263.068 174.19 263.64C174.19 264.84 174.19 266.05 174.19 267.25C174.193 267.856 174.049 268.454 173.77 268.992C173.491 269.53 173.087 269.993 172.59 270.34C172.431 270.471 172.3 270.632 172.203 270.814C172.107 270.996 172.048 271.195 172.03 271.4C171.98 273.81 171.97 276.22 172.03 278.63C172.055 278.864 172.13 279.09 172.249 279.294C172.368 279.497 172.528 279.673 172.72 279.81C174.06 280.66 175.46 281.4 176.84 282.18L184.16 286.35ZM171.09 265.65C171.13 265.071 171.13 264.489 171.09 263.91C171.051 263.761 170.979 263.623 170.878 263.507C170.778 263.391 170.652 263.3 170.51 263.24C169.88 263.116 169.227 263.247 168.693 263.603C168.159 263.958 167.788 264.511 167.66 265.14C167.609 265.445 167.618 265.757 167.688 266.058C167.758 266.359 167.887 266.643 168.067 266.894C168.247 267.146 168.476 267.358 168.739 267.521C169.002 267.683 169.295 267.791 169.6 267.84C170.84 268.08 171.11 267.84 171.12 266.57L171.09 265.65ZM171.09 207.45C171.135 206.904 171.135 206.356 171.09 205.81C171.049 205.649 170.972 205.5 170.864 205.373C170.757 205.247 170.622 205.146 170.47 205.08C170.152 205.02 169.826 205.024 169.51 205.093C169.194 205.162 168.895 205.293 168.631 205.48C168.367 205.666 168.143 205.904 167.973 206.179C167.803 206.454 167.689 206.76 167.64 207.08C167.607 207.387 167.635 207.698 167.723 207.994C167.811 208.29 167.957 208.565 168.152 208.804C168.348 209.044 168.589 209.241 168.861 209.387C169.134 209.532 169.433 209.621 169.74 209.65C170.89 209.82 171.11 209.65 171.12 208.44C171.09 208.1 171.09 207.75 171.08 207.41L171.09 207.45Z" fill="#919191"/>
<path d="M119.2 203.83V212.62H158V203.83H145.3C144.92 203.83 144.44 203.93 144.19 203.75C143.72 203.39 143.09 202.87 143.06 202.38C143.03 201.89 143.58 201.3 144.01 200.89C144.22 200.68 144.73 200.74 145.1 200.74H158.95C160.68 200.74 161.16 201.23 161.16 202.96V269.96C161.16 271.68 160.68 272.16 158.94 272.16H118.28C116.53 272.16 116.07 271.7 116.07 269.97V203C116.07 201.24 116.52 200.77 118.25 200.77H137.68C138.017 200.763 138.353 200.8 138.68 200.88C139.017 200.966 139.314 201.167 139.52 201.448C139.725 201.729 139.827 202.072 139.807 202.42C139.787 202.768 139.646 203.097 139.41 203.353C139.173 203.608 138.855 203.773 138.51 203.82C138.132 203.867 137.751 203.884 137.37 203.87H119.2V203.83ZM119.2 246.83H158V238H119.22L119.2 246.83ZM158 250H147.2V261.27H150.81C150.81 259.41 150.81 257.63 150.81 255.85C150.799 255.642 150.831 255.435 150.903 255.24C150.975 255.045 151.086 254.867 151.229 254.716C151.372 254.565 151.544 254.445 151.735 254.364C151.926 254.282 152.132 254.24 152.34 254.24C152.741 254.247 153.124 254.408 153.41 254.689C153.697 254.969 153.865 255.349 153.88 255.75C153.88 256.54 153.88 257.34 153.88 258.13V261.28H158V250ZM123.1 261.31V260.1C123.1 258.65 123.1 257.2 123.1 255.76C123.092 255.568 123.123 255.376 123.191 255.196C123.26 255.016 123.364 254.852 123.498 254.713C123.631 254.575 123.792 254.465 123.969 254.391C124.147 254.316 124.338 254.278 124.53 254.28C124.916 254.241 125.301 254.355 125.603 254.599C125.904 254.842 126.097 255.195 126.14 255.58C126.175 255.889 126.175 256.201 126.14 256.51C126.14 258.08 126.14 259.66 126.14 261.28H130V250H119.24V261.31H123.1ZM126.2 227.15H130V215.85H119.23V227.12H123.07C123.07 225.37 123.07 223.72 123.07 222.12C123.07 220.89 123.63 220.18 124.56 220.12C125.49 220.06 126.15 220.85 126.16 222.12C126.18 223.77 126.17 225.41 126.17 227.17L126.2 227.15ZM154.14 227.15H158V215.86H147.2V227.16H151C151 225.4 151 223.72 151 222.04C151 220.85 151.61 220.12 152.56 220.13C153.51 220.14 154.09 220.86 154.1 222.05C154.12 223.73 154.11 225.42 154.11 227.17L154.14 227.15ZM133.26 261.26H137C137 259.52 137 257.87 137 256.26C137 254.99 137.63 254.26 138.59 254.26C139.55 254.26 140.08 254.99 140.09 256.26C140.09 257.71 140.09 259.15 140.09 260.6C140.09 260.87 140.4 261.36 140.59 261.37C141.68 261.44 142.77 261.37 143.88 261.37V250H133.18L133.26 261.26ZM137.05 227.16V225.82C137.05 224.44 137.05 223.07 137.05 221.69C137.046 221.482 137.084 221.276 137.161 221.083C137.238 220.89 137.354 220.715 137.5 220.567C137.647 220.42 137.821 220.303 138.014 220.225C138.206 220.146 138.412 220.107 138.62 220.11C138.826 220.12 139.028 220.171 139.215 220.26C139.402 220.348 139.569 220.473 139.707 220.626C139.846 220.779 139.953 220.958 140.022 221.153C140.091 221.347 140.121 221.554 140.11 221.76C140.11 222.17 140.11 222.58 140.11 223V227.16H143.93V215.87H133.23V227.18L137.05 227.16ZM158 264.55H147.2V269H158V264.55ZM130 264.55H119.22V269H130V264.55ZM119.22 230.38V234.79H130V230.38H119.22ZM158 234.82V230.41H147.18V234.82H158ZM144 264.54H133.23V268.93H144V264.54ZM133.27 234.78H143.98V230.37H133.23L133.27 234.78Z" fill="#919191"/>
<path d="M111.67 202.02V233.66" stroke="white" stroke-width="3" stroke-linecap="round" stroke-linejoin="round"/>
<path d="M111.67 238.67V245.88" stroke="white" stroke-width="3" stroke-linecap="round" stroke-linejoin="round"/>
<path d="M111.67 196.78H123.5" stroke="white" stroke-width="3" stroke-linecap="round" stroke-linejoin="round"/>
<path d="M386.67 163.52C386.67 163.52 397.47 164.34 397.47 174.81" stroke="#919191" stroke-width="3" stroke-linecap="round" stroke-linejoin="round"/>
<path d="M397.74 298.65C397.74 298.65 398.56 308.3 388.42 308.14" stroke="#919191" stroke-width="3" stroke-linecap="round" stroke-linejoin="round"/>
<path d="M381.3 308.06H369.66" stroke="#919191" stroke-width="3" stroke-linecap="round" stroke-linejoin="round"/>
<path d="M397.49 205.84V197.44" stroke="#919191" stroke-width="3" stroke-linecap="round" stroke-linejoin="round"/>
<path d="M397.49 192.09V181.95" stroke="#919191" stroke-width="3" stroke-linecap="round" stroke-linejoin="round"/>
<path d="M380.4 163.52H369.65" stroke="#919191" stroke-width="3" stroke-linecap="round" stroke-linejoin="round"/>
<path d="M397.47 212.99L397.49 224.34" stroke="#919191" stroke-width="3" stroke-linecap="round" stroke-linejoin="round"/>
<path d="M397.49 230.98L397.47 241.03" stroke="#919191" stroke-width="3" stroke-linecap="round" stroke-linejoin="round"/>
<path d="M397.49 259.67V248.35" stroke="#919191" stroke-width="3" stroke-linecap="round" stroke-linejoin="round"/>
<path d="M397.47 265.71V274.82" stroke="#919191" stroke-width="3" stroke-linecap="round" stroke-linejoin="round"/>
<path d="M397.47 281.64V290.85" stroke="#919191" stroke-width="3" stroke-linecap="round" stroke-linejoin="round"/>
<path d="M159.94 462.48C159.94 462.48 159.12 473.27 148.65 473.27" stroke="#919191" stroke-width="3" stroke-linecap="round" stroke-linejoin="round"/>
<path d="M24.81 473.54C24.81 473.54 15.15 474.36 15.32 464.22" stroke="#919191" stroke-width="3" stroke-linecap="round" stroke-linejoin="round"/>
<path d="M15.39 457.1V445.46" stroke="#919191" stroke-width="3" stroke-linecap="round" stroke-linejoin="round"/>
<path d="M117.62 473.29H126.02" stroke="#919191" stroke-width="3" stroke-linecap="round" stroke-linejoin="round"/>
<path d="M131.36 473.29H141.5" stroke="#919191" stroke-width="3" stroke-linecap="round" stroke-linejoin="round"/>
<path d="M159.94 456.2V445.45" stroke="#919191" stroke-width="3" stroke-linecap="round" stroke-linejoin="round"/>
<path d="M110.47 473.27L99.12 473.29" stroke="#919191" stroke-width="3" stroke-linecap="round" stroke-linejoin="round"/>
<path d="M92.48 473.29L82.43 473.27" stroke="#919191" stroke-width="3" stroke-linecap="round" stroke-linejoin="round"/>
<path d="M63.78 473.29H75.1" stroke="#919191" stroke-width="3" stroke-linecap="round" stroke-linejoin="round"/>
<path d="M57.75 473.27H48.63" stroke="#919191" stroke-width="3" stroke-linecap="round" stroke-linejoin="round"/>
<path d="M41.82 473.27H32.6" stroke="#919191" stroke-width="3" stroke-linecap="round" stroke-linejoin="round"/>
<path d="M15.32 439V428.97" stroke="#919191" stroke-width="3" stroke-linecap="round" stroke-linejoin="round"/>
<path d="M15.32 421.77V410.87" stroke="#919191" stroke-width="3" stroke-linecap="round" stroke-linejoin="round"/>
<path d="M15.32 402.11V390.36" stroke="#919191" stroke-width="3" stroke-linecap="round" stroke-linejoin="round"/>
<path d="M15.39 383C15.39 383 15.72 369 32.3 369.25" stroke="#919191" stroke-width="3" stroke-linecap="round" stroke-linejoin="round"/>
<path d="M375.48 363.8V393.85" stroke="#919191" stroke-width="3" stroke-linecap="round" stroke-linejoin="round"/>
<path d="M26.63 272.49V313.5" stroke="#919191" stroke-width="3" stroke-linecap="round" stroke-linejoin="round"/>
<path d="M26.63 323.54V331.03" stroke="#919191" stroke-width="3" stroke-linecap="round" stroke-linejoin="round"/>
<path d="M211.25 466.23C214.205 466.23 216.6 463.835 216.6 460.88C216.6 457.925 214.205 455.53 211.25 455.53C208.295 455.53 205.9 457.925 205.9 460.88C205.9 463.835 208.295 466.23 211.25 466.23Z" stroke="#919191" stroke-width="3" stroke-linecap="round" stroke-linejoin="round"/>
<path d="M315.64 452.78L325.33 462.48" stroke="#919191" stroke-width="3" stroke-linecap="round" stroke-linejoin="round"/>
<path d="M325.33 452.78L315.64 462.48" stroke="#919191" stroke-width="3" stroke-linecap="round" stroke-linejoin="round"/>
<path d="M12.04 346.02L21.73 355.71" stroke="#919191" stroke-width="3" stroke-linecap="round" stroke-linejoin="round"/>
<path d="M21.73 346.02L12.04 355.71" stroke="#919191" stroke-width="3" stroke-linecap="round" stroke-linejoin="round"/>
<path d="M3.17 87.4C3.17 87.4 2.35 77.75 12.5 77.92" stroke="#919191" stroke-width="3" stroke-linecap="round" stroke-linejoin="round"/>
<path d="M14 134.68C14 134.68 3.2 133.86 3.2 123.39" stroke="#919191" stroke-width="3" stroke-linecap="round" stroke-linejoin="round"/>
<path d="M19.61 77.91H27.22" stroke="#919191" stroke-width="3" stroke-linecap="round" stroke-linejoin="round"/>
<path d="M33.35 77.99H41.53" stroke="#919191" stroke-width="3" stroke-linecap="round" stroke-linejoin="round"/>
<path d="M48 77.99L57.48 77.91" stroke="#919191" stroke-width="3" stroke-linecap="round" stroke-linejoin="round"/>
<path d="M63.78 77.91H72.04" stroke="#919191" stroke-width="3" stroke-linecap="round" stroke-linejoin="round"/>
<path d="M79.98 77.91H89.38" stroke="#919191" stroke-width="3" stroke-linecap="round" stroke-linejoin="round"/>
<path d="M98.05 77.91H106.89" stroke="#919191" stroke-width="3" stroke-linecap="round" stroke-linejoin="round"/>
<path d="M113.43 77.91H123.52" stroke="#919191" stroke-width="3" stroke-linecap="round" stroke-linejoin="round"/>
<path d="M3.16 92.37V100.76" stroke="#919191" stroke-width="3" stroke-linecap="round" stroke-linejoin="round"/>
<path d="M3.16 106.11V116.25" stroke="#919191" stroke-width="3" stroke-linecap="round" stroke-linejoin="round"/>
<path d="M20.24 134.68H31" stroke="#919191" stroke-width="3" stroke-linecap="round" stroke-linejoin="round"/>
<path d="M339.17 72.14C339.17 72.14 339.99 62.49 329.85 62.66" stroke="#919191" stroke-width="3" stroke-linecap="round" stroke-linejoin="round"/>
<path d="M322.73 62.65H315.13" stroke="#919191" stroke-width="3" stroke-linecap="round" stroke-linejoin="round"/>
<path d="M308.99 62.73H300.81" stroke="#919191" stroke-width="3" stroke-linecap="round" stroke-linejoin="round"/>
<path d="M294.35 62.73L284.86 62.65" stroke="#919191" stroke-width="3" stroke-linecap="round" stroke-linejoin="round"/>
<path d="M278.57 62.65H270.3" stroke="#919191" stroke-width="3" stroke-linecap="round" stroke-linejoin="round"/>
<path d="M339.19 77.11V85.5" stroke="#919191" stroke-width="3" stroke-linecap="round" stroke-linejoin="round"/>
<path d="M48 110.71H82.63" stroke="#919191" stroke-width="3" stroke-linecap="round" stroke-linejoin="round"/>
<path d="M90.86 110.71H96.58" stroke="#919191" stroke-width="3" stroke-linecap="round" stroke-linejoin="round"/>
<path d="M372.88 67.57C375.835 67.57 378.23 65.1747 378.23 62.22C378.23 59.2653 375.835 56.87 372.88 56.87C369.925 56.87 367.53 59.2653 367.53 62.22C367.53 65.1747 369.925 67.57 372.88 67.57Z" stroke="#919191" stroke-width="3" stroke-linecap="round" stroke-linejoin="round"/>
<path d="M13.94 184.72C16.8947 184.72 19.29 182.325 19.29 179.37C19.29 176.415 16.8947 174.02 13.94 174.02C10.9853 174.02 8.59 176.415 8.59 179.37C8.59 182.325 10.9853 184.72 13.94 184.72Z" stroke="#919191" stroke-width="3" stroke-linecap="round" stroke-linejoin="round"/>
<path d="M98.93 59.62L108.62 69.31" stroke="#919191" stroke-width="3" stroke-linecap="round" stroke-linejoin="round"/>
<path d="M108.62 59.62L98.93 69.31" stroke="#919191" stroke-width="3" stroke-linecap="round" stroke-linejoin="round"/>
<path d="M282.98 43.28L292.67 52.97" stroke="#919191" stroke-width="3" stroke-linecap="round" stroke-linejoin="round"/>
<path d="M292.67 43.28L282.98 52.97" stroke="#919191" stroke-width="3" stroke-linecap="round" stroke-linejoin="round"/>
</g>
<defs>
<clipPath id="clip0_119_361">
<rect width="400" height="475" fill="white"/>
</clipPath>
</defs>
</svg>
