<svg width="400" height="475" fill="none" xmlns="http://www.w3.org/2000/svg"><g clip-path="url(#clip0_119_361)"><path d="M257.35 2.97H135.73c-6.81 0-12.33 5.52-12.33 12.33v415.97c0 6.81 5.52 12.33 12.33 12.33h121.62c6.81 0 12.33-5.52 12.33-12.33V15.3c0-6.81-5.52-12.33-12.33-12.33z" fill="#D8D8D8"/><path d="M234 3l1.17 440.64 14.13-.07 14.87-1.49 5.95-10.16-.87-11.17v-15.91l-.51-381.23s1.23-9.27 1-9.72c-.23-.45-4.24-7.81-4.24-7.81s-7.1-3-7.39-3.11c-.29-.11-8.79.63-8.79.63H235l-1-.6z" fill="#BCBCBC"/><path d="M258.34 2.97h-123.6c-6.263 0-11.34 5.077-11.34 11.34v417.95c0 6.263 5.077 11.34 11.34 11.34h123.6c6.263 0 11.34-5.077 11.34-11.34V14.31c0-6.263-5.077-11.34-11.34-11.34z" stroke="#919191" stroke-width="3" stroke-miterlimit="10"/><path d="M157.33 129.73a16.58 16.58 0 011.89-5.17c3.78-6.5 7.54-13.01 11.28-19.53l4-6.9c.102-.187.215-.367.34-.54a1.002 1.002 0 011.38-.31 1.002 1.002 0 01.44 1.36 5.14 5.14 0 01-.38.69c-5.1 8.853-10.207 17.707-15.32 26.56a9.892 9.892 0 003.16 13.55 9.996 9.996 0 005.55 1.52H214c1.804.068 3.61.032 5.41-.11a9.787 9.787 0 007.5-14.57c-2.3-4.18-4.74-8.27-7.12-12.4a6824.866 6824.866 0 01-17.26-29.83 9.907 9.907 0 00-15.1-2.82 12.3 12.3 0 00-2.41 3c-2 3.37-4 6.8-5.92 10.21a3.68 3.68 0 01-.42.66 1 1 0 01-1.29.22 1 1 0 01-.5-1.27c.069-.179.156-.35.26-.51 2-3.53 4-7.08 6.12-10.59a12.111 12.111 0 0121.08 0c2.94 5 5.82 10.06 8.72 15.1l15.43 26.74a11.999 11.999 0 01-1.89 14.9 11.838 11.838 0 01-8.61 3.41h-28.31c-6.55 0-13.1-.09-19.65 0a12.098 12.098 0 01-12.61-10.57.934.934 0 00-.1-.26v-2.54z" fill="#919191" stroke="#919191" stroke-miterlimit="10"/><path d="M193.79 135.27h-24.07a4.228 4.228 0 01-4.49-3.54 4.329 4.329 0 01.67-3c2.567-4.44 5.13-8.88 7.69-13.32L189.94 87a4.259 4.259 0 014.88-2.3 4.329 4.329 0 012.85 2.3c3.92 6.833 7.853 13.657 11.8 20.47l4.47 7.76c.102.16.192.327.27.5a1.05 1.05 0 01-1.8 1.08 5.968 5.968 0 01-.37-.6L195.79 88c-.84-1.46-2.44-1.77-3.49-.69-.229.272-.43.567-.6.88L177 113.75l-9.16 15.9a3.654 3.654 0 00-.49 1.32 1.998 1.998 0 001.84 2.14c.263.02.527.02.79 0h48.12a2.06 2.06 0 001.85-3.2c-1-1.84-2.11-3.66-3.16-5.48l-2.09-3.64c-.42-.74-.34-1.35.22-1.69.56-.34 1.2-.12 1.63.64 1.74 2.987 3.47 5.987 5.19 9a4.2 4.2 0 01-3.8 6.51l-24.15.02z" fill="#919191" stroke="#919191" stroke-miterlimit="10"/><path d="M191.45 117.89h-5.95a2.066 2.066 0 01-2.158-1.074 2.057 2.057 0 01.338-2.386c3.55-5.17 7.07-10.34 10.62-15.5a2.49 2.49 0 011.1-.94 1.551 1.551 0 012 1.82c-.44 2.53-.93 5-1.39 7.56-.14.72-.27 1.44-.41 2.25h6.06a2.002 2.002 0 012.115 1.047 1.997 1.997 0 01-.355 2.333c-3.567 5.2-7.13 10.407-10.69 15.62-.667.947-1.407 1.217-2.22.81-.75-.37-1-1-.82-2.06.49-2.63 1-5.27 1.48-7.9.09-.47.17-.99.28-1.58zm10.21-6.09h-7.15c-1 0-1.42-.52-1.24-1.51.06-.3.13-.6.18-.9.45-2.4.89-4.79 1.34-7.19h-.11l-9.3 13.61h6.94c1.29 0 1.64.44 1.39 1.73l-1.47 7.88h.11l9.31-13.62z" fill="#919191" stroke="#919191" stroke-miterlimit="10"/><path d="M152.37 206.42a7.62 7.62 0 10-.001-15.241 7.62 7.62 0 00.001 15.241zm44.16 0a7.62 7.62 0 10-.001-15.241 7.62 7.62 0 00.001 15.241zm45.03 0a7.62 7.62 0 10-.001-15.241 7.62 7.62 0 00.001 15.241z" stroke="#919191" stroke-width="3" stroke-miterlimit="10"/><path d="M147.38 253.64h99.66m-99.66 10.66h99.66m-99.66 10.67h99.66m-99.66 11.53h99.66" stroke="#919191" stroke-width="3" stroke-linecap="round" stroke-linejoin="round"/><path d="M128.76 36.45v47.29m38.46 36.85l19.8-34.31" stroke="#fff" stroke-width="3" stroke-linecap="round" stroke-linejoin="round"/><path d="M123.71 116.94H45.09c-6.81 0-12.33 5.52-12.33 12.33v286.44c0 6.81 5.52 12.33 12.33 12.33h78.62c6.81 0 12.33-5.52 12.33-12.33V129.27c0-6.81-5.52-12.33-12.33-12.33z" fill="#D8D8D8"/><path d="M110.82 116.94l.82 311.11 10-.06 10.5-1.05 4.2-7.17-.62-7.88v-11.22l-.36-269.16s.87-6.55.7-6.86c-.17-.31-3-5.52-3-5.52s-5-2.09-5.21-2.19c-.21-.1-6.21.44-6.21.44h-10.11l-.71-.44z" fill="#BCBCBC"/><path d="M124.7 116.94H44.1c-6.263 0-11.34 5.077-11.34 11.34V416.7c0 6.263 5.077 11.34 11.34 11.34h80.6c6.263 0 11.34-5.077 11.34-11.34V128.28c0-6.263-5.077-11.34-11.34-11.34z" stroke="#919191" stroke-width="3" stroke-miterlimit="10"/><path d="M56.72 206.43a11.417 11.417 0 011.34-3.64c2.67-4.59 5.31-9.19 8-13.79l2.81-4.87c.08-.13.15-.27.24-.39a.694.694 0 01.739-.322.694.694 0 01.261.112.717.717 0 01.3 1c-.073.167-.16.328-.26.48-3.607 6.253-7.213 12.503-10.82 18.75a7 7 0 002.23 9.58 7.207 7.207 0 003.92 1.07H96.7c1.27.047 2.542.023 3.81-.07a6.913 6.913 0 006.202-7.017 6.914 6.914 0 00-.902-3.273c-1.62-2.95-3.35-5.84-5-8.76-4.047-7.02-8.097-14.037-12.15-21.05a7.003 7.003 0 00-7.93-3.419A7.013 7.013 0 0078 172.24a8.579 8.579 0 00-1.7 2.08c-1.43 2.38-2.79 4.81-4.18 7.22a3.336 3.336 0 01-.3.46.687.687 0 01-.91.15.697.697 0 01-.35-.9c.05-.124.113-.241.19-.35 1.43-2.5 2.86-5 4.32-7.48a8.555 8.555 0 017.44-4.337 8.549 8.549 0 017.44 4.337C92 177 94 180.51 96.08 184.07L107 203a8.471 8.471 0 01-1.34 10.52 8.379 8.379 0 01-6 2.4h-20c-4.63 0-9.25-.07-13.88 0a8.54 8.54 0 01-8.9-7.46c0-.07 0-.12-.07-.19l-.09-1.84z" fill="#919191" stroke="#919191" stroke-miterlimit="10"/><path d="M82.46 210.35h-17a3.004 3.004 0 01-3.17-2.5 3 3 0 01.47-2.16l5.43-9.4c3.847-6.667 7.697-13.333 11.55-20a3.004 3.004 0 013.44-1.62 3.068 3.068 0 012 1.61c2.767 4.82 5.543 9.637 8.33 14.45l3.16 5.48c.071.112.135.229.19.35a.688.688 0 01-.29 1 .72.72 0 01-.54.116.72.72 0 01-.46-.306 4.91 4.91 0 01-.26-.43L83.87 177a1.504 1.504 0 00-1.1-.903 1.494 1.494 0 00-1.36.423 2.7 2.7 0 00-.42.62c-3.467 6-6.93 12-10.39 18l-6.47 11.23a2.702 2.702 0 00-.35.93 1.431 1.431 0 001.3 1.51c.183.015.367.015.55 0h34a1.446 1.446 0 001.357-.724 1.452 1.452 0 00-.057-1.536c-.73-1.3-1.48-2.58-2.23-3.88l-1.48-2.56c-.29-.53-.23-1 .16-1.19.39-.19.85-.09 1.15.44 1.227 2.12 2.447 4.24 3.66 6.36a3.003 3.003 0 01.049 3.106 3.004 3.004 0 01-2.729 1.484c-5.68.05-11.36.04-17.05.04z" fill="#919191" stroke="#919191" stroke-miterlimit="10"/><path d="M80.81 198.07h-4.2a1.53 1.53 0 01-1.52-.77 1.498 1.498 0 01.24-1.68c2.5-3.64 5-7.3 7.49-10.94.19-.292.46-.521.78-.66a1.085 1.085 0 011.073.232A1.09 1.09 0 0185 185.3c-.3 1.79-.65 3.56-1 5.34-.09.51-.18 1-.29 1.59h4.28a1.478 1.478 0 011.43.74 1.46 1.46 0 01-.19 1.64l-7.54 11c-.46.67-1 .85-1.57.56-.57-.29-.72-.7-.58-1.45.34-1.86.7-3.72 1-5.58.13-.28.19-.65.27-1.07zm7.21-4.3H83c-.71 0-1-.37-.87-1.06l.12-.64c.32-1.7.63-3.39 1-5.08h-.08l-6.57 9.61h4.9c.92 0 1.16.32 1 1.22-.35 1.86-.69 3.71-1 5.57h.08l6.44-9.62z" fill="#919191" stroke="#919191" stroke-miterlimit="10"/><path d="M53.22 260.58a5.38 5.38 0 100-10.76 5.38 5.38 0 000 10.76zm31.18 0a5.38 5.38 0 100-10.76 5.38 5.38 0 000 10.76zm31.79 0a5.38 5.38 0 100-10.76 5.38 5.38 0 000 10.76z" stroke="#919191" stroke-width="3" stroke-miterlimit="10"/><path d="M49.7 293.92h70.36m-70.36 7.53h70.36m-70.36 7.53h70.36m-70.36 8.14h70.36" stroke="#919191" stroke-width="3" stroke-linecap="round" stroke-linejoin="round"/><path d="M36.55 140.58v33.39" stroke="#fff" stroke-width="3" stroke-linecap="round" stroke-linejoin="round"/><path d="M357.07 86.04h-78.62c-6.81 0-12.33 5.52-12.33 12.33v286.44c0 6.81 5.52 12.33 12.33 12.33h78.62c6.81 0 12.33-5.52 12.33-12.33V98.37c0-6.81-5.52-12.33-12.33-12.33z" fill="#D8D8D8"/><path d="M344.18 86l.82 311.1 10-.05 10.5-1 4.2-7.17-.62-7.88v-11.23l-.36-269.16s.87-6.55.7-6.87c-.17-.32-3-5.51-3-5.51s-5-2.09-5.21-2.19c-.21-.1-6.21.44-6.21.44h-10.11l-.71-.48z" fill="#BCBCBC"/><path d="M358.06 86.04h-80.6c-6.263 0-11.34 5.077-11.34 11.34V385.8c0 6.263 5.077 11.34 11.34 11.34h80.6c6.263 0 11.34-5.077 11.34-11.34V97.38c0-6.263-5.077-11.34-11.34-11.34z" stroke="#919191" stroke-width="3" stroke-miterlimit="10"/><path d="M290.08 175.53c.24-1.28.693-2.51 1.34-3.64 2.67-4.59 5.31-9.2 8-13.79.94-1.63 1.88-3.25 2.81-4.88.08-.13.15-.26.24-.38a.742.742 0 011.334.192.74.74 0 01-.054.548c-.073.17-.16.334-.26.49-3.613 6.253-7.22 12.503-10.82 18.75a6.999 6.999 0 002.23 9.57 7.137 7.137 0 003.92 1.08h31.28c1.27.047 2.542.023 3.81-.07a6.913 6.913 0 006.202-7.017 6.914 6.914 0 00-.902-3.273c-1.62-2.95-3.34-5.84-5-8.76l-12.15-21.05a7.005 7.005 0 00-4.851-3.524 7 7 0 00-5.799 1.524 8.605 8.605 0 00-1.71 2.09c-1.43 2.38-2.79 4.81-4.18 7.21a2.925 2.925 0 01-.3.47.687.687 0 01-.91.15.696.696 0 01-.35-.9 1.67 1.67 0 01.19-.35c1.44-2.5 2.86-5 4.32-7.48a8.545 8.545 0 017.44-4.337 8.55 8.55 0 017.44 4.337c2.08 3.54 4.11 7.1 6.16 10.66l10.89 18.88a8.47 8.47 0 01-1.4 10.54 8.365 8.365 0 01-6.05 2.4h-20c-4.63 0-9.25-.06-13.88 0a8.552 8.552 0 01-8.9-7.46.434.434 0 00-.07-.19l-.02-1.79z" fill="#919191" stroke="#919191" stroke-miterlimit="10"/><path d="M315.82 179.45h-17a3.002 3.002 0 01-3.17-2.5 3.1 3.1 0 01.47-2.16l5.43-9.4 11.55-20a2.996 2.996 0 014.615-1.037c.345.28.627.63.825 1.027 2.767 4.82 5.543 9.637 8.33 14.45 1.06 1.82 2.113 3.647 3.16 5.48.071.112.134.229.19.35a.69.69 0 01.078.565.705.705 0 01-.368.435.705.705 0 01-.804.005.697.697 0 01-.196-.205 3.624 3.624 0 01-.26-.42c-3.78-6.693-7.59-13.34-11.43-19.94a1.51 1.51 0 00-2.47-.48 2.72 2.72 0 00-.42.62c-3.473 6-6.937 12-10.39 18-2.16 3.74-4.317 7.483-6.47 11.23a2.704 2.704 0 00-.35.93 1.432 1.432 0 001.3 1.51c.186.015.374.015.56 0h34a1.447 1.447 0 001.357-.724 1.452 1.452 0 00-.057-1.536c-.73-1.3-1.48-2.59-2.23-3.88l-1.48-2.57c-.29-.52-.23-.95.16-1.18.39-.23.85-.09 1.15.44 1.23 2.12 2.46 4.23 3.67 6.36a3.002 3.002 0 01-2.69 4.59l-17.06.04z" fill="#919191" stroke="#919191" stroke-miterlimit="10"/><path d="M314.17 167.17h-4.2a1.53 1.53 0 01-1.52-.77 1.5 1.5 0 01.24-1.68c2.5-3.647 4.997-7.293 7.49-10.94.187-.294.459-.525.78-.66a1.077 1.077 0 011.08.224 1.079 1.079 0 01.32 1.056c-.3 1.78-.65 3.56-1 5.34-.09.5-.18 1-.29 1.59h4.28a1.435 1.435 0 011.45.758 1.434 1.434 0 01-.21 1.622l-7.54 11c-.46.68-1 .86-1.57.57-.57-.29-.72-.7-.58-1.45.34-1.86.7-3.72 1.05-5.58.05-.25.15-.66.22-1.08zm7.21-4.3h-5.05c-.71 0-1-.37-.87-1.07l.12-.64c.32-1.69.63-3.38.95-5.07h-.08l-6.56 9.61h4.89c.92 0 1.16.31 1 1.22-.35 1.86-.69 3.71-1 5.57h.08l6.52-9.62z" fill="#919191" stroke="#919191" stroke-miterlimit="10"/><path d="M286.58 229.68a5.38 5.38 0 100-10.76 5.38 5.38 0 000 10.76zm31.18 0a5.38 5.38 0 100-10.76 5.38 5.38 0 000 10.76zm31.79 0a5.38 5.38 0 100-10.76 5.38 5.38 0 000 10.76z" stroke="#919191" stroke-width="3" stroke-miterlimit="10"/><path d="M283.06 263.02h70.36m-70.36 7.53h70.36m-70.36 7.53h70.36m-70.36 8.14h70.36" stroke="#919191" stroke-width="3" stroke-linecap="round" stroke-linejoin="round"/><path d="M269.91 109.68v33.39" stroke="#fff" stroke-width="3" stroke-linecap="round" stroke-linejoin="round"/><path d="M326.36 279.39l42.85-16.52-.71 192.91-41.66-12.3-.48-164.09zM32.33 262.23L75.71 280l-.41 165.61-42.44 11.63-.53-195.01z" fill="#BCBCBC"/><path d="M74.65 279.71l114.65-.08 2.91 1.37c.39.2 4.14 3.88 4.14 3.88l.72 3.5.48 4V436s-1.47 5.07-1.68 5.35c-.21.28-4.85 4-4.85 4l-116.37-.84v-164.8zm251.6-.83l-114.64-.09s-2.52 1.18-2.91 1.38c-.39.2-4.15 3.87-4.15 3.87l-.71 3.51-.49 4V435.2s1.47 5.07 1.68 5.35c.21.28 4.86 4 4.86 4l116.36-.83V278.88z" fill="#D8D8D8"/><path d="M317.07 444.35H212.54a9.38 9.38 0 01-9.38-9.38V288.4a9.38 9.38 0 019.38-9.38h104.53" stroke="#919191" stroke-width="3" stroke-miterlimit="10"/><path d="M326.36 440.32H217.17c-5.41 0-9.8-4-9.8-8.88V292.7c0-4.91 4.39-8.88 9.8-8.88h109.19m0-5.17v156.32" stroke="#919191" stroke-width="3" stroke-miterlimit="10"/><path d="M311.23 279.02h15.22l42.76-16.58v194.13l-42.76-12.22h-17.99" stroke="#919191" stroke-width="3" stroke-linecap="round" stroke-linejoin="round"/><path d="M326.45 444.35v-14.91M218.71 283.82v156.5m0-137.36h94.95m-94.95 20.12h94.95m-83.17-20.07v20.07m12.65-20.07v20.07m11.78-20.07v20.07m11.94-20.07v18.79m11.57-18.79v20.07m11.69-20.07v18.79m11.32-18.79v18.79m12.22-37.98v156.5m-94.95-125.31h94.88" stroke="#919191" stroke-width="3" stroke-miterlimit="10"/><path d="M224.38 315.01v-6.22m12.43 5.98v-6.21m12.22 6.21v-6.21m11.86 6.45v-6.22m11.69 6.44v-6.22m11.69 5.76v-6.21m11.51 6.21v-6.21m12.1 6.45v-6.22" stroke="#919191" stroke-width="3" stroke-linecap="round" stroke-linejoin="round"/><path d="M218.67 343.2h94.95m-94.95 20.12h94.95m-83.17-20.06v20.06m12.65-20.06v20.06m11.78-20.06v20.06m11.95-20.06v18.79m11.56-18.79v20.06m11.69-20.06v18.79m11.32-18.79v18.79m-82.73-6.8h94.88" stroke="#919191" stroke-width="3" stroke-miterlimit="10"/><path d="M224.34 355.25v-6.21m12.43 5.98v-6.22m12.22 6.22v-6.22m11.86 6.45v-6.21m11.69 6.43v-6.21m11.69 5.76v-6.22m11.51 6.22v-6.22m12.1 6.45v-6.21" stroke="#919191" stroke-width="3" stroke-linecap="round" stroke-linejoin="round"/><path d="M218.63 391.57h94.96m-94.96 20.12h94.96m-83.18-20.07v20.07m12.65-20.07v20.07m11.78-20.07v20.07m11.95-20.07v18.79m11.56-18.79v20.07m11.69-20.07v18.79m11.32-18.79v18.79m-82.73-6.79h94.88" stroke="#919191" stroke-width="3" stroke-miterlimit="10"/><path d="M224.3 403.62v-6.22m12.44 5.98v-6.21m12.21 6.21v-6.21m11.86 6.45v-6.22m11.69 6.44v-6.22m11.7 5.76v-6.21m11.5 6.21v-6.21m12.1 6.45v-6.22" stroke="#919191" stroke-width="3" stroke-linecap="round" stroke-linejoin="round"/><path d="M84.62 444.81h104.52a9.38 9.38 0 009.38-9.38V288.86a9.38 9.38 0 00-9.38-9.38H84.62" stroke="#919191" stroke-width="3" stroke-miterlimit="10"/><path d="M75.32 440.77h109.19c5.42 0 9.81-4 9.81-8.88V293.15c0-4.9-4.39-8.88-9.81-8.88H75.32m0-5.17v156.33" stroke="#919191" stroke-width="3" stroke-miterlimit="10"/><path d="M90.46 279.48H75.24l-42.77-17.04v194.58l42.77-12.21h17.98" stroke="#919191" stroke-width="3" stroke-linecap="round" stroke-linejoin="round"/><path d="M75.24 444.81v-14.92m107.73-145.62v156.5m0-137.36H88.02m94.95 20.13H88.02m83.18-20.07v20.07m-12.65-20.07v20.07m-11.78-20.07v20.07m-11.95-20.07v18.79m-11.56-18.79v20.07m-11.69-20.07v18.79m-11.33-18.79v18.79m-12.22-37.99v156.5m94.95-125.3H88.1" stroke="#919191" stroke-width="3" stroke-miterlimit="10"/><path d="M177.3 315.47v-6.22m-12.43 5.98v-6.22m-12.21 6.22v-6.22m-11.87 6.46v-6.22m-11.68 6.43v-6.21m-11.7 5.76v-6.22m-11.5 6.22v-6.22m-12.1 6.46v-6.22" stroke="#919191" stroke-width="3" stroke-linecap="round" stroke-linejoin="round"/><path d="M183.09 344.37h-71.92m71.84 19.43h-71.44m59.66-20.09v20.07m-12.65-20.07v20.07m-11.78-20.07v20.07m-11.94-20.07v18.79m-11.57-18.79v20.07m-11.72-41.52l.07 69.82m71.37-36.37h-72.16" stroke="#919191" stroke-width="3" stroke-miterlimit="10"/><path d="M177.34 355.71v-6.22m-12.43 5.98v-6.21m-12.22 6.21v-6.21m-11.86 6.45v-6.22m-11.69 6.44v-6.22m-11.69 5.76v-6.21" stroke="#919191" stroke-width="3" stroke-linecap="round" stroke-linejoin="round"/><path d="M183.05 392.02H88.1m94.95 20.13H88.1m83.17-20.07v20.07m-12.65-20.07v20.07m-11.78-20.07v20.07m-11.94-20.07v18.79m-11.57-18.79v20.07m-11.69-20.07v18.79m-11.32-18.79v18.79m82.73-6.79H88.17" stroke="#919191" stroke-width="3" stroke-miterlimit="10"/><path d="M177.38 404.08v-6.22m-12.43 5.98v-6.22m-12.22 6.22v-6.22m-11.86 6.46v-6.22m-11.69 6.43v-6.21m-11.69 5.76v-6.22m-11.51 6.22v-6.22m-12.1 6.46v-6.22" stroke="#919191" stroke-width="3" stroke-linecap="round" stroke-linejoin="round"/><path d="M100.24 360.87a3.7 3.7 0 10-.001-7.401 3.7 3.7 0 00.001 7.401z" stroke="#919191" stroke-width="3" stroke-miterlimit="10"/><path d="M92.06 287.96h28.9m101.32-.64h40.57" stroke="#fff" stroke-width="3" stroke-linecap="round" stroke-linejoin="round"/><path d="M36.83 268.99v30.34" stroke="#919191" stroke-width="3" stroke-linecap="round" stroke-linejoin="round"/><path d="M329.92 281.64v27.37" stroke="#fff" stroke-width="3" stroke-linecap="round" stroke-linejoin="round"/><path d="M296.29 218.91h-39.9a9.49 9.49 0 00-9.49 9.49v39.9a9.49 9.49 0 009.49 9.49h39.9a9.49 9.49 0 009.49-9.49v-39.9a9.49 9.49 0 00-9.49-9.49z" fill="#D8D8D8"/><path d="M307.1 222.9a5.297 5.297 0 00-3.72-4.92l-.6-.24h-52.71c-3.53 1.47-4.32 2.67-4.32 6.58V274a5.293 5.293 0 003.9 4.86c.379.094.763.164 1.15.21h40.92c.359.011.718-.02 1.07-.09a1.216 1.216 0 00.547-2.031c-.2-.203-.464-.33-.747-.359h-41.11c-1.77 0-2.9-.82-3.19-2.32a5.429 5.429 0 01-.05-.91v-49.94c0-2.11 1.08-3.17 3.19-3.17h49.95c2.16 0 3.21 1.06 3.21 3.24v49.86c0 2.15-1.09 3.23-3.23 3.24h-3.42a1.193 1.193 0 00-.932.277 1.214 1.214 0 00-.428.873 1.23 1.23 0 00.347.954 1.23 1.23 0 00.943.376H302a11.4 11.4 0 001.24-.24 5.293 5.293 0 003.83-5.42v-50l.03-.51z" fill="#919191"/><path d="M253.64 230.93v32.22h45.57v-32.22h-37.53a1.197 1.197 0 01-.468-.098 1.208 1.208 0 01-.656-.671 1.225 1.225 0 01-.086-.471 1.24 1.24 0 011.14-1.23c.223-.02.447-.02.67 0h36.44a2.694 2.694 0 012.874 1.795c.133.387.176.799.126 1.205v31.27a2.68 2.68 0 01-.758 2.242 2.68 2.68 0 01-2.242.758h-44.64a2.68 2.68 0 01-2.241-.758 2.675 2.675 0 01-.759-2.242v-31.27c0-2 1-3 3-3h2.08a1.26 1.26 0 011.38 1.25 1.235 1.235 0 01-.397.933 1.238 1.238 0 01-.447.262c-.166.055-.342.074-.516.055l-2.54-.03z" fill="#919191"/><path d="M296.41 239.24a2.623 2.623 0 00-1.68-2.622 2.614 2.614 0 00-1.09-.168h-34.43a2.619 2.619 0 00-2.76 2.79v3.25c0 2.19 1 3.14 3.15 3.15h33.93a2.62 2.62 0 002.89-2.89c0-1.18.01-2.35-.01-3.51zm-34.67 3.83H259V239h2.75l-.01 4.07zm5.35 0h-2.74V239h2.74v4.07zm5.35 0h-2.74V239h2.74v4.07zm5.34 0h-2.73V239h2.73v4.07zm5.37 0h-2.74V239h2.74v4.07zm5.35 0h-2.73V239h2.73v4.07zm5.35 0h-2.74V239h2.74v4.07zm-4.49 10.09a9.387 9.387 0 011.94 0 2.09 2.09 0 011.31.77 1.649 1.649 0 01-.27 1.41c-.9 1.26-1.91 2.45-2.89 3.66a1.306 1.306 0 01-.861.609 1.305 1.305 0 01-1.029-.229c-.61-.47-.62-1.22 0-2l1.41-1.77c-.696.057-1.395.057-2.09 0a1.773 1.773 0 01-1.19-.69 1.586 1.586 0 01.17-1.35c1-1.33 2-2.59 3.05-3.85a1.247 1.247 0 01.85-.556 1.24 1.24 0 01.98.266c.133.113.242.251.319.408a1.272 1.272 0 01-.219 1.452c-.46.59-.91 1.14-1.48 1.87zm-29.67-.84c-1.28 0-1.88-.39-1.9-1.22-.02-.83.63-1.28 1.94-1.28.223-.015.447-.015.67 0a1.188 1.188 0 011.142.808c.054.158.073.326.058.492a1.162 1.162 0 01-1.25 1.17c-.22.04-.44.03-.66.03zm6.66-.01h-.66a1.2 1.2 0 01-.856-.365 1.205 1.205 0 01-.344-.865 1.16 1.16 0 01.307-.842 1.158 1.158 0 01.813-.378 7.42 7.42 0 011.49 0 1.209 1.209 0 01.856.369 1.196 1.196 0 01.334.871 1.19 1.19 0 01-1.27 1.23h-.67v-.02zm6.72.01h-.58a1.234 1.234 0 01-.886-.342 1.235 1.235 0 01-.384-.868 1.234 1.234 0 01.342-.886 1.235 1.235 0 01.868-.384 7.454 7.454 0 011.25 0 1.222 1.222 0 01.912.331 1.24 1.24 0 01.388.889c0 .75-.48 1.22-1.33 1.27-.2 0-.39-.01-.58-.01zm27.42-29.23a1.243 1.243 0 011.256.741 1.248 1.248 0 01-1.256 1.749 1.25 1.25 0 010-2.49zm-48.16 0c.322-.006.633.113.87.33a1.255 1.255 0 01.083 1.758 1.23 1.23 0 01-.883.402 1.244 1.244 0 01-.96-.298 1.246 1.246 0 01-.052-1.84 1.238 1.238 0 01.942-.352zm1.27 49.37a1.24 1.24 0 01-1.26 1.26 1.289 1.289 0 01-1.23-1.23 1.24 1.24 0 011.2-1.24 1.195 1.195 0 01.911.321 1.205 1.205 0 01.379.889zm46.85-1.21a1.233 1.233 0 01.906.342 1.231 1.231 0 01.384.888 1.283 1.283 0 01-1.21 1.24 1.233 1.233 0 01-1.27-1.25 1.192 1.192 0 011.19-1.22z" fill="#919191"/><path d="M255.02 221.82h21.41" stroke="#fff" stroke-width="3" stroke-linecap="round" stroke-linejoin="round"/><path d="M170.57 192.31l13.78-7.67 1.65 1.56.23 9.17s0 92.1.12 91.78c.12-.32-2 1.1-2 1.1l-13-7.83-.42-11 2.35-4.54-2.35-4.15.06-50 2.64-3-1.4-3.82-2-2v-9.1l.34-.5z" fill="#BCBCBC"/><path d="M171.9 191.6v89.48l-1.41-.8-61.69.14-2.15-1.79.95-85.69 62.97-.63 1.33-.71z" fill="#D8D8D8"/><path d="M183.26 289.35c-4.16-2.35-8.31-4.71-12.49-7a4.002 4.002 0 00-1.84-.49H152.7c-1-.07-1.7-.68-1.68-1.58a1.547 1.547 0 01.534-1.139 1.542 1.542 0 011.206-.361h16.06c0-.41.08-.7.08-1 0-1.66-.07-3.31 0-5a2.13 2.13 0 00-1.49-2.52 4.808 4.808 0 01-2.92-5 5.14 5.14 0 013.54-4.77 1.093 1.093 0 00.87-1.23v-45.58a1.083 1.083 0 00-.89-1.22 5.38 5.38 0 01-3.55-5.09 5.33 5.33 0 013.51-5 1.159 1.159 0 00.93-1.31v-6.81c-.44 0-.81-.06-1.17-.06h-58.09c-1.37 0-1.39 0-1.39 1.38v81.76c0 1.43 0 1.43 1.44 1.43h35.56a10.26 10.26 0 011.24 0 1.438 1.438 0 011.017.454 1.435 1.435 0 01.383 1.046 1.444 1.444 0 01-.828 1.392 1.45 1.45 0 01-.552.138c-.31.02-.62.02-.93 0h-36.07c-3 0-4.36-1.37-4.36-4.36V195.4c0-3 1.36-4.36 4.35-4.36h59.33a4.653 4.653 0 002.22-.59c3.67-2 7.3-4.15 10.95-6.22 2.83-1.61 5.35-.16 5.35 3.08v98.29a3.831 3.831 0 01-2.46 3.78l-1.63-.03zm.9-3v-99.71a2.831 2.831 0 00-.39.13c-3.74 2.13-7.48 4.25-11.2 6.42a1.427 1.427 0 00-.54 1.06c-.05 2.38-.06 4.76 0 7.14.042.442.254.85.59 1.14a3.807 3.807 0 011.57 3.1v3.52a3.688 3.688 0 01-1.54 3 1.679 1.679 0 00-.61 1.14v46.31c.056.441.282.843.63 1.12a3.66 3.66 0 011.52 2.92v3.61a3.744 3.744 0 01-1.6 3.09 1.546 1.546 0 00-.56 1.06c-.05 2.41-.06 4.82 0 7.23a1.67 1.67 0 00.69 1.18c1.34.85 2.74 1.59 4.12 2.37l7.32 4.17zm-13.07-20.7c.04-.579.04-1.161 0-1.74a.997.997 0 00-.58-.67 2.43 2.43 0 00-2.85 1.9 2.345 2.345 0 001.079 2.381c.263.162.556.27.861.319 1.24.24 1.51 0 1.52-1.27l-.03-.92zm0-58.2a9.978 9.978 0 000-1.64 1.088 1.088 0 00-.62-.73 2.406 2.406 0 00-2.497 1.099c-.17.275-.284.581-.333.901a2.334 2.334 0 001.221 2.307c.273.145.572.234.879.263 1.15.17 1.37 0 1.38-1.21-.03-.34-.03-.69-.04-1.03l.01.04z" fill="#919191"/><path d="M119.2 203.83v8.79H158v-8.79h-12.7c-.38 0-.86.1-1.11-.08-.47-.36-1.1-.88-1.13-1.37-.03-.49.52-1.08.95-1.49.21-.21.72-.15 1.09-.15h13.85c1.73 0 2.21.49 2.21 2.22v67c0 1.72-.48 2.2-2.22 2.2h-40.66c-1.75 0-2.21-.46-2.21-2.19V203c0-1.76.45-2.23 2.18-2.23h19.43c.337-.007.673.03 1 .11a1.503 1.503 0 011.127 1.54 1.504 1.504 0 01-1.297 1.4 7.118 7.118 0 01-1.14.05H119.2v-.04zm0 43H158V238h-38.78l-.02 8.83zM158 250h-10.8v11.27h3.61v-5.42a1.526 1.526 0 01.925-1.486c.191-.082.397-.124.605-.124.401.007.784.168 1.07.449.287.28.455.66.47 1.061v5.53H158V250zm-34.9 11.31v-5.55a1.428 1.428 0 01.398-1.047 1.412 1.412 0 011.032-.433 1.47 1.47 0 011.61 1.3c.035.309.035.621 0 .93v4.77H130V250h-10.76v11.31h3.86zm3.1-34.16h3.8v-11.3h-10.77v11.27h3.84v-5c0-1.23.56-1.94 1.49-2 .93-.06 1.59.73 1.6 2 .02 1.65.01 3.29.01 5.05l.03-.02zm27.94 0H158v-11.29h-10.8v11.3h3.8v-5.12c0-1.19.61-1.92 1.56-1.91.95.01 1.53.73 1.54 1.92.02 1.68.01 3.37.01 5.12l.03-.02zm-20.88 34.11H137v-5c0-1.27.63-2 1.59-2 .96 0 1.49.73 1.5 2v4.34c0 .27.31.76.5.77 1.09.07 2.18 0 3.29 0V250h-10.7l.08 11.26zm3.79-34.1v-5.47a1.556 1.556 0 01.45-1.123 1.548 1.548 0 011.12-.457 1.56 1.56 0 011.087.516 1.555 1.555 0 01.403 1.134v5.4h3.82v-11.29h-10.7v11.31l3.82-.02zM158 264.55h-10.8V269H158v-4.45zm-28 0h-10.78V269H130v-4.45zm-10.78-34.17v4.41H130v-4.41h-10.78zm38.78 4.44v-4.41h-10.82v4.41H158zm-14 29.72h-10.77v4.39H144v-4.39zm-10.73-29.76h10.71v-4.41h-10.75l.04 4.41z" fill="#919191"/><path d="M111.67 202.02v31.64m0 5.01v7.21m0-49.1h11.83" stroke="#fff" stroke-width="3" stroke-linecap="round" stroke-linejoin="round"/><path d="M386.67 163.52s10.8.82 10.8 11.29m.27 123.84s.82 9.65-9.32 9.49m-7.12-.08h-11.64m27.83-102.22v-8.4m0-5.35v-10.14m-17.09-18.43h-10.75m27.82 49.47l.02 11.35m0 6.64l-.02 10.05m.02 18.64v-11.32m-.02 17.36v9.11m0 6.82v9.21M159.94 462.48s-.82 10.79-11.29 10.79m-123.84.27s-9.66.82-9.49-9.32m.07-7.12v-11.64m102.23 27.83h8.4m5.34 0h10.14m18.44-17.09v-10.75m-49.47 27.82l-11.35.02m-6.64 0l-10.05-.02m-18.65.02H75.1m-17.35-.02h-9.12m-6.81 0H32.6M15.32 439v-10.03m0-7.2v-10.9m0-8.76v-11.75m.07-7.36s.33-14 16.91-13.75m343.18-5.45v30.05M26.63 272.49v41.01m0 10.04v7.49m184.62 135.2a5.35 5.35 0 100-10.7 5.35 5.35 0 000 10.7zm104.39-13.45l9.69 9.7m0-9.7l-9.69 9.7M12.04 346.02l9.69 9.69m0-9.69l-9.69 9.69M3.17 87.4s-.82-9.65 9.33-9.48m1.5 56.76s-10.8-.82-10.8-11.29m16.41-45.48h7.61m6.13.08h8.18m6.47 0l9.48-.08m6.3 0h8.26m7.94 0h9.4m8.67 0h8.84m6.54 0h10.09M3.16 92.37v8.39m0 5.35v10.14m17.08 18.43H31m308.17-62.54s.82-9.65-9.32-9.48m-7.12-.01h-7.6m-6.14.08h-8.18m-6.46 0l-9.49-.08m-6.29 0h-8.27m68.89 14.46v8.39M48 110.71h34.63m8.23 0h5.72m276.3-43.14a5.35 5.35 0 100-10.7 5.35 5.35 0 000 10.7zM13.94 184.72a5.35 5.35 0 100-10.7 5.35 5.35 0 000 10.7zm84.99-125.1l9.69 9.69m0-9.69l-9.69 9.69m184.05-26.03l9.69 9.69m0-9.69l-9.69 9.69" stroke="#919191" stroke-width="3" stroke-linecap="round" stroke-linejoin="round"/></g><defs><clipPath id="clip0_119_361"><path fill="#fff" d="M0 0h400v475H0z"/></clipPath></defs></svg>