<svg width="40" height="40" viewBox="0 0 40 40" fill="none" xmlns="http://www.w3.org/2000/svg">
<circle cx="20" cy="20" r="20" fill="url(#paint0_linear_2_307)"/>
<path fill-rule="evenodd" clip-rule="evenodd" d="M18.3333 18.1667C20.1717 18.1667 21.6667 16.6717 21.6667 14.8333C21.6667 12.995 20.1717 11.5 18.3333 11.5C16.495 11.5 15 12.995 15 14.8333C15 16.6717 16.495 18.1667 18.3333 18.1667ZM27.5 14H26.6667V13.1667C26.6667 12.7083 26.2917 12.3333 25.8333 12.3333C25.375 12.3333 25 12.7083 25 13.1667V14H24.1667C23.7083 14 23.3333 14.375 23.3333 14.8333C23.3333 15.2917 23.7083 15.6667 24.1667 15.6667H25V16.5C25 16.9583 25.375 17.3333 25.8333 17.3333C26.2917 17.3333 26.6667 16.9583 26.6667 16.5V15.6667H27.5C27.9583 15.6667 28.3333 15.2917 28.3333 14.8333C28.3333 14.375 27.9583 14 27.5 14ZM24.1667 25.6667C24.1667 26.1267 23.7942 26.5 23.3333 26.5H13.3333C12.8725 26.5 12.5 26.1267 12.5 25.6667C12.5 22.45 15.1175 19.8333 18.3333 19.8333C21.5492 19.8333 24.1667 22.45 24.1667 25.6667Z" fill="white"/>
<defs>
<linearGradient id="paint0_linear_2_307" x1="1.49012e-07" y1="20" x2="40" y2="20" gradientUnits="userSpaceOnUse">
<stop stop-color="#FA1C82"/>
<stop offset="1" stop-color="#9D50FF"/>
</linearGradient>
</defs>
</svg>
