<svg width="120" height="267" fill="none" xmlns="http://www.w3.org/2000/svg"><path fill-rule="evenodd" clip-rule="evenodd" d="M18.444 232.721H0V221.87l5.753-2.304v7.222h6.937v-28.804H0v-24.85h18.444v13.156H12.69v-7.222H5.753v12.983h12.69v40.67zm88.83-40.643h6.645v5.933h-6.645v28.777h6.825v-7.222l5.753 2.304v10.851h-18.331v-59.819l5.753 2.304v16.872zM88.796 221.26v-82.714l5.753 2.304v80.41h-5.753zm-6.937 5.528h12.69v5.933H76.106V84.812l5.753 2.305v139.671zm-18.325 5.933v-40.476l-6.997-18.795v59.271h-5.753V55.466l5.753-2.304v103.735l6.997 18.796V0l5.753 2.304v230.417h-5.753zm-25.499-5.933V104.955l5.753-2.304v130.07H25.345V141.41l5.753-2.304v87.682h6.937z" fill="#fff"/><path d="M10.653 266.745H7.9l-2.966-9.552h-2.33v9.552H0v-22.224h4.873c1.715 0 2.99.473 3.828 1.42.837.947 1.256 2.585 1.256 4.916 0 1.561-.202 2.809-.605 3.746a3.927 3.927 0 01-1.998 2.06l3.3 10.082zm-3.828-12.923c.353-.666.53-1.654.53-2.965s-.177-2.294-.53-2.95c-.353-.655-.994-.983-1.922-.983h-2.3v7.897h2.3c.928 0 1.569-.333 1.922-.999zm15.268 12.923H13.77v-22.224h8.323v2.403h-5.72v7.46h4.933v2.404h-4.933v7.553h5.72v2.404zm13.922 0H33.26l-1.03-5.244h-4.993l-1.03 5.244h-2.723l5.024-22.224h2.512l4.994 22.224zm-4.268-7.647L29.75 248.86l-2.028 10.238h4.025zm14.679 7.647h-8.323v-22.224h2.603v19.82h5.72v2.404zm16.585 0h-8.323v-22.224h8.323v2.403h-5.72v7.46h4.933v2.404h-4.933v7.553h5.72v2.404zm12.65-5.962c0 2.31-.443 3.922-1.331 4.838-.908.895-2.18 1.342-3.814 1.342-1.654 0-2.915-.447-3.783-1.342a4.212 4.212 0 01-1.029-1.81c-.202-.708-.302-1.665-.302-2.872h2.602c0 1.415.242 2.383.727 2.903.403.458.999.686 1.785.686.807 0 1.423-.239 1.847-.717.464-.52.696-1.509.696-2.965 0-1.291-.137-2.201-.409-2.732-.272-.531-.843-.983-1.71-1.357l-2.451-1.03c-1.11-.479-1.877-1.109-2.3-1.889-.424-.781-.636-2.003-.636-3.668 0-2.018.545-3.537 1.634-4.557.888-.853 2.028-1.28 3.42-1.28 1.513 0 2.704.427 3.572 1.28.948.957 1.422 2.477 1.422 4.557h-2.603c0-1.227-.222-2.122-.666-2.684-.383-.499-.968-.749-1.755-.749-.706 0-1.261.229-1.665.687-.504.582-.757 1.467-.757 2.653 0 1.103.132 1.883.394 2.341.262.458.817.874 1.665 1.248l2.42 1.03c1.192.5 1.993 1.186 2.407 2.061.414.873.62 2.216.62 4.026zm11.622-13.859h-3.601v19.821h-2.603v-19.821h-3.632v-2.403h9.836v2.403zm12.258 19.821h-2.754l-1.03-5.244h-4.993l-1.03 5.244h-2.723l5.024-22.224h2.512l4.994 22.224zm-4.268-7.647l-1.997-10.238-2.028 10.238h4.025zm13.831-12.174h-3.601v19.821H102.9v-19.821h-3.632v-2.403h9.836v2.403zM120 266.745h-8.323v-22.224H120v2.403h-5.72v7.46h4.933v2.404h-4.933v7.553H120v2.404z" fill="#fff"/><mask id="a" style="mask-type:luminance" maskUnits="userSpaceOnUse" x="88" y="117" width="7" height="17"><path d="M88.987 117.191l5.753 2.305v14.364l-5.753-2.304v-14.365z" fill="#fff"/></mask><g mask="url(#a)" fill-rule="evenodd" clip-rule="evenodd"><path d="M86.077 132.052l.15-.764 8.667 1.808-.15.763-8.667-1.807z" fill="#E7B656"/><path d="M86.226 131.309l.014-.07 8.666 1.808-.013.07-8.667-1.808z" fill="#E7B656"/><path d="M86.234 131.263l.014-.07 8.666 1.808-.013.07-8.667-1.808z" fill="#E7B656"/><path d="M86.244 131.218l.014-.07 8.667 1.808-.014.07-8.667-1.808z" fill="#E7B656"/><path d="M86.249 131.17l.013-.07 8.667 1.808-.014.07-8.666-1.808z" fill="#E7B656"/><path d="M86.252 131.125l.014-.07 8.666 1.808-.013.069-8.667-1.807z" fill="#E8B656"/><path d="M86.265 131.077l.013-.07 8.667 1.808-.013.07-8.667-1.808z" fill="#E8B656"/><path d="M86.274 131.033l.014-.07 8.667 1.808-.014.07-8.667-1.808z" fill="#E8B656"/><path d="M86.29 130.985l.014-.07 8.666 1.808-.013.07-8.667-1.808z" fill="#E8B656"/><path d="M86.295 130.936l.014-.07 8.667 1.808-.014.07-8.667-1.808z" fill="#E8B656"/><path d="M86.307 130.891l.014-.069 8.667 1.807-.014.07-8.667-1.808z" fill="#E8B656"/><path d="M86.313 130.844l.013-.07 8.667 1.808-.014.07-8.666-1.808z" fill="#E8B656"/><path d="M86.318 130.8l.014-.07 8.667 1.808-.014.07-8.667-1.808z" fill="#E8B757"/><path d="M86.342 130.751l.014-.069 8.667 1.808-.014.069-8.667-1.808z" fill="#E8B757"/><path d="M86.345 130.706l.013-.07 8.667 1.808-.013.07-8.667-1.808z" fill="#E8B757"/><path d="M86.351 130.658l.014-.07 8.666 1.808-.013.069-8.667-1.807z" fill="#E8B757"/><path d="M86.361 130.613l.014-.07 8.667 1.808-.014.069-8.667-1.807z" fill="#E8B858"/><path d="M86.366 130.566l.013-.07 8.667 1.808-.014.07-8.666-1.808z" fill="#E8B858"/><path d="M86.374 130.521l.014-.07 8.667 1.808-.014.069-8.666-1.807z" fill="#E8B858"/><path d="M86.382 130.471l.013-.07 8.667 1.808-.013.07-8.667-1.808z" fill="#E8B858"/><path d="M86.4 130.429l.014-.07 8.666 1.808-.013.069-8.667-1.807z" fill="#E8B859"/><path d="M86.409 130.38l.013-.07 8.667 1.808-.013.07-8.667-1.808z" fill="#E8B959"/><path d="M86.413 130.332l.013-.069 8.667 1.807-.014.07-8.666-1.808z" fill="#E8B959"/><path d="M86.424 130.288l.014-.07 8.667 1.808-.014.069-8.667-1.807z" fill="#E8BA5A"/><path d="M86.43 130.24l.013-.07 8.667 1.808-.014.07-8.666-1.808z" fill="#E8BA5A"/><path d="M86.44 130.191l.013-.069 8.667 1.807-.014.07-8.666-1.808z" fill="#E8BA5A"/><path d="M86.459 130.148l.013-.069 8.667 1.807-.014.07-8.666-1.808z" fill="#E8BA5B"/><path d="M86.463 130.101l.013-.07 8.667 1.808-.013.07-8.667-1.808z" fill="#E9BB5C"/><path d="M86.468 130.056l.014-.07 8.667 1.808-.014.069-8.667-1.807z" fill="#E9BB5C"/><path d="M86.478 130.008l.014-.07 8.667 1.808-.014.07-8.666-1.808z" fill="#E9BB5C"/><path d="M86.484 129.96l.014-.07 8.666 1.808-.013.07-8.667-1.808z" fill="#E9BC5D"/><path d="M86.492 129.913l.013-.07 8.667 1.808-.013.07-8.667-1.808z" fill="#EABD5D"/><path d="M86.502 129.867l.014-.07 8.667 1.808-.014.07-8.667-1.808z" fill="#E9BD5E"/><path d="M86.517 129.823l.014-.07 8.666 1.808-.013.07-8.667-1.808z" fill="#EABE5F"/><path d="M86.524 129.775l.014-.069 8.667 1.807-.014.07-8.667-1.808z" fill="#E9BE5F"/><path d="M86.532 129.731l.013-.069 8.667 1.807-.014.07-8.666-1.808z" fill="#EABE60"/><path d="M86.544 129.68l.014-.07 8.667 1.808-.014.07-8.667-1.808z" fill="#E9BF60"/><path d="M86.547 129.637l.014-.07 8.666 1.808-.013.07-8.667-1.808z" fill="#EABF61"/><path d="M86.552 129.589l.014-.07 8.667 1.808-.014.07-8.667-1.808z" fill="#EAC061"/><path d="M86.577 129.541l.013-.07 8.667 1.808-.014.07-8.666-1.808z" fill="#EAC062"/><path d="M86.58 129.497l.014-.07 8.666 1.808-.013.07-8.667-1.808z" fill="#EBC163"/><path d="M86.585 129.452l.014-.07 8.667 1.808-.014.069-8.667-1.807z" fill="#EAC164"/><path d="M86.596 129.402l.013-.069 8.667 1.807-.014.07-8.666-1.808z" fill="#EBC265"/><path d="M86.601 129.355l.014-.07 8.666 1.808-.013.07-8.667-1.808z" fill="#EBC265"/><path d="M86.609 129.311l.014-.07 8.666 1.808-.013.07-8.667-1.808z" fill="#EAC266"/><path d="M86.62 129.264l.013-.07 8.667 1.808-.013.069-8.667-1.807z" fill="#EBC367"/><path d="M86.634 129.217l.014-.07 8.667 1.808-.014.069-8.667-1.807z" fill="#EBC468"/><path d="M86.643 129.171l.014-.07 8.666 1.808-.013.07-8.667-1.808z" fill="#ECC469"/><path d="M86.652 129.123l.014-.07 8.667 1.808-.014.069-8.667-1.807z" fill="#ECC56A"/><path d="M86.661 129.079l.014-.069 8.667 1.808-.014.069-8.667-1.808z" fill="#ECC56A"/><path d="M86.664 129.03l.014-.07 8.666 1.808-.013.07-8.667-1.808z" fill="#ECC66B"/><path d="M86.674 128.984l.013-.07 8.667 1.808-.013.07-8.667-1.808z" fill="#ECC66C"/><path d="M86.693 128.939l.014-.07 8.667 1.808-.014.07-8.667-1.808z" fill="#ECC66C"/><path d="M86.698 128.891l.014-.07 8.667 1.808-.014.07-8.667-1.808z" fill="#EDC76D"/><path d="M86.71 128.844l.014-.07 8.667 1.808-.014.07-8.667-1.808z" fill="#ECC76E"/><path d="M86.716 128.798l.014-.069 8.667 1.807-.014.07-8.667-1.808z" fill="#ECC76F"/><path d="M86.72 128.753l.014-.069 8.667 1.807-.013.07-8.667-1.808z" fill="#EDC870"/><path d="M86.726 128.706l.014-.069 8.666 1.807-.013.07-8.667-1.808z" fill="#EDC871"/><path d="M86.743 128.661l.014-.07 8.667 1.808-.014.07-8.667-1.808z" fill="#EDC972"/><path d="M86.751 128.61l.014-.069 8.667 1.807-.014.07-8.667-1.808z" fill="#EEC973"/><path d="M86.764 128.567l.014-.07 8.667 1.808-.014.07-8.667-1.808z" fill="#EECA74"/><path d="M86.77 128.519l.013-.07 8.667 1.808-.014.07-8.667-1.808z" fill="#EECA75"/><path d="M86.778 128.472l.014-.07 8.667 1.808-.014.07-8.667-1.808z" fill="#EECB76"/><path d="M86.781 128.427l.014-.07 8.667 1.808-.014.07-8.667-1.808z" fill="#EFCB77"/><path d="M86.796 128.382l.014-.07 8.667 1.808-.014.07-8.667-1.808z" fill="#EFCC79"/><path d="M86.811 128.333l.014-.069 8.666 1.807-.013.07-8.667-1.808z" fill="#EFCC7A"/><path d="M86.82 128.286l.014-.07 8.666 1.808-.013.07-8.667-1.808z" fill="#EFCD7B"/><path d="M86.827 128.242l.014-.07 8.667 1.808-.014.07-8.667-1.808z" fill="#EFCE7C"/><path d="M86.834 128.193l.013-.069 8.667 1.807-.014.07-8.666-1.808z" fill="#F0CF7E"/><path d="M86.841 128.145l.014-.07 8.667 1.808-.014.07-8.667-1.808z" fill="#F0CF7F"/><path d="M86.847 128.1l.013-.069 8.667 1.807-.013.07-8.667-1.808z" fill="#F0CF81"/><path d="M86.86 128.053l.014-.07 8.667 1.808-.014.07-8.667-1.808z" fill="#F1D082"/><path d="M86.869 128.011l.013-.07 8.667 1.808-.014.069-8.666-1.807z" fill="#F1D184"/><path d="M86.881 127.961l.014-.07 8.667 1.807-.014.07-8.667-1.807z" fill="#F1D185"/><path d="M86.887 127.915l.013-.07 8.667 1.808-.014.07-8.666-1.808z" fill="#F1D286"/><path d="M86.897 127.867l.014-.07 8.667 1.808-.014.07-8.666-1.808z" fill="#F1D387"/><path d="M86.902 127.822l.013-.07 8.667 1.808-.013.07-8.667-1.808z" fill="#F2D389"/><path d="M86.915 127.775l.013-.07 8.667 1.808-.014.07-8.666-1.808z" fill="#F2D48A"/><path d="M86.927 127.729l.014-.069 8.667 1.807-.014.07-8.667-1.808z" fill="#F2D48C"/><path d="M86.937 127.685l.014-.07 8.666 1.808-.013.069-8.667-1.807z" fill="#F3D58E"/><path d="M86.944 127.637l.014-.07 8.667 1.808-.014.07-8.667-1.808z" fill="#F4D68F"/><path d="M86.95 127.589l.014-.07 8.667 1.808-.014.07-8.666-1.808z" fill="#F4D791"/><path d="M86.955 127.541l.014-.069 8.666 1.807-.013.07-8.667-1.808z" fill="#F5D892"/><path d="M86.968 127.497l.013-.069 8.667 1.807-.013.07-8.667-1.808z" fill="#F5D894"/><path d="M86.978 127.449l.013-.07 8.667 1.808-.014.069-8.666-1.807z" fill="#F5D895"/><path d="M86.993 127.403l.014-.07 8.667 1.808-.014.07-8.667-1.808z" fill="#F5DA96"/><path d="M86.999 127.358l.013-.07 8.667 1.808-.014.07L87 127.358z" fill="#F6DA98"/><path d="M87.005 127.31l.014-.07 8.666 1.808-.013.07-8.667-1.808z" fill="#F5DA9A"/><path d="M87.015 127.265l.013-.07 8.667 1.808-.013.069-8.667-1.807z" fill="#F6DB9B"/><path d="M87.021 127.217l.014-.07 8.666 1.808-.013.069-8.667-1.807z" fill="#F6DC9D"/><path d="M87.032 127.173l.014-.07 8.666 1.808-.014.069-8.666-1.807z" fill="#F6DC9E"/><path d="M87.046 127.122l.014-.07 8.667 1.808-.014.07-8.667-1.808z" fill="#F7DD9F"/><path d="M87.054 127.076l.014-.07 8.667 1.808-.014.07-8.667-1.808z" fill="#F7DEA1"/><path d="M87.064 127.032l.014-.07 8.667 1.808-.014.07-8.666-1.808z" fill="#F7DEA3"/><path d="M87.07 126.984l.014-.069 8.666 1.807-.013.07-8.667-1.808z" fill="#F8DFA4"/><path d="M87.078 126.941l.013-.07 8.667 1.808-.013.07-8.667-1.808z" fill="#F8E0A6"/><path d="M87.085 126.891l.014-.069 8.666 1.808-.013.069-8.667-1.808z" fill="#F8E0A7"/><path d="M87.103 126.846l.014-.07 8.666 1.808-.013.07-8.667-1.808z" fill="#F9E1A8"/><path d="M87.112 126.798l.014-.07 8.666 1.808-.014.07-8.666-1.808z" fill="#F9E2AA"/><path d="M87.118 126.753l.013-.07 8.667 1.808-.014.07-8.666-1.808z" fill="#F9E3AB"/><path d="M87.13 126.706l.013-.07 8.667 1.808-.013.07-8.667-1.808z" fill="#FAE4AD"/><path d="M87.133 126.66l.014-.07 8.666 1.808-.013.07-8.667-1.808z" fill="#FAE4AE"/><path d="M87.143 126.611l.013-.069 8.667 1.807-.013.07-8.667-1.808z" fill="#FAE5B0"/><path d="M87.162 126.568l.013-.069 8.667 1.807-.013.07-8.667-1.808z" fill="#FBE5B1"/><path d="M87.165 126.52l.014-.07 8.666 1.808-.013.069-8.667-1.807z" fill="#FBE6B3"/><path d="M87.171 126.473l.014-.07 8.667 1.808-.014.069-8.667-1.807z" fill="#FBE6B4"/><path d="M87.182 126.429l.013-.07 8.667 1.808-.014.069-8.666-1.807z" fill="#FCE7B5"/><path d="M87.187 126.38l.014-.07 8.667 1.808-.014.07-8.667-1.808z" fill="#FCE8B6"/><path d="M87.195 126.332l.013-.07 8.667 1.808-.013.07-8.667-1.808z" fill="#FCE8B7"/><path d="M87.202 126.289l.014-.07 8.667 1.808-.014.069-8.667-1.807z" fill="#FCE8B8"/><path d="M87.22 126.241l.014-.07 8.667 1.808-.014.07-8.667-1.808z" fill="#FDE9BA"/><path d="M87.228 126.193l.013-.07 8.667 1.808-.014.07-8.666-1.808z" fill="#FDEABB"/><path d="M87.235 126.148l.014-.07 8.666 1.808-.013.07-8.667-1.808z" fill="#FDEABC"/><path d="M87.245 126.1l.013-.07 8.667 1.808-.014.07-8.666-1.808z" fill="#FDEABC"/><path d="M87.25 126.053l.014-.07 8.666 1.808-.013.07-8.667-1.808z" fill="#FEEBBD"/><path d="M87.255 126.007l.014-.07 8.667 1.808-.014.069-8.667-1.807z" fill="#FEEBBE"/><path d="M87.28 125.962l.013-.069 8.667 1.807-.013.07-8.667-1.808z" fill="#FEECBF"/><path d="M87.282 125.915l.014-.069 8.667 1.808-.014.069-8.667-1.808z" fill="#FEECC0"/><path d="M87.289 125.871l.013-.069 8.667 1.808-.013.069-8.667-1.808z" fill="#FEECC1"/><path d="M87.299 125.82l.013-.07 8.667 1.808-.013.07-8.667-1.808z" fill="#FEEDC2"/><path d="M87.304 125.777l.014-.07 8.667 1.808-.014.069-8.667-1.807z" fill="#FEEDC3"/><path d="M87.312 125.729l.014-.07 8.666 1.808-.013.07-8.667-1.808z" fill="#FEEDC3"/><path d="M87.323 125.681l.014-.07 8.666 1.808-.013.07-8.667-1.808z" fill="#FFEEC4"/><path d="M87.337 125.637l.014-.07 8.667 1.808-.014.07-8.667-1.808z" fill="#FEEEC4"/><path d="M87.346 125.591l.014-.07 8.667 1.808-.014.07-8.667-1.808z" fill="#FEEEC5"/><path d="M87.355 125.542l.013-.069 8.667 1.807-.014.07-8.666-1.808z" fill="#FFEEC5"/><path d="M87.364 125.495l.014-.07 8.667 1.808-.014.069-8.667-1.807z" fill="#FFEEC6"/><path d="M87.367 125.451l.014-.07 8.667 1.808-.014.069-8.667-1.807z" fill="#FFEFC6"/><path d="M87.377 125.403l.014-.07 8.666 1.808-.013.07-8.667-1.808z" fill="#FFEFC6"/><path d="M87.396 125.357l.014-.07 8.666 1.808-.013.07-8.667-1.808z" fill="#FFEFC7"/><path d="M87.4 125.311l.014-.07 8.667 1.808-.014.07-8.667-1.808z" fill="#FFEFC7"/><path d="M87.413 125.263l.014-.07 8.666 1.808-.013.069-8.667-1.807z" fill="#FFEFC7"/><path d="M87.416 125.219l.014-.07 8.666 1.808-.013.07-8.667-1.808z" fill="#FFEFC7"/><path d="M87.421 125.17l.014-.07 8.667 1.808-.014.07-8.667-1.808z" fill="#FFEFC7"/><path d="M87.43 125.124l.013-.07 8.667 1.808-.014.07-8.667-1.808z" fill="#FFEFC7"/><path d="M87.44 125.076l.014-.07 8.667 1.808-.014.07-8.667-1.808z" fill="#FFEFC7"/><path d="M87.455 125.031l.013-.07 8.667 1.808-.014.07-8.666-1.808z" fill="#FFEFC6"/><path d="M87.462 124.984l.014-.07 8.666 1.808-.013.07-8.667-1.808z" fill="#FFEFC6"/><path d="M87.473 124.938l.013-.07 8.667 1.808-.014.07-8.666-1.808z" fill="#FFEFC6"/><path d="M87.481 124.893l.014-.07 8.667 1.808-.014.07-8.667-1.808z" fill="#FFEEC4"/><path d="M87.484 124.846l.014-.07 8.667 1.808-.014.07-8.667-1.808z" fill="#FFEEC4"/><path d="M87.49 124.803l.013-.07 8.667 1.808-.013.07-8.667-1.808z" fill="#FFEEC3"/><path d="M87.514 124.75l.014-.069 8.667 1.808-.014.069-8.667-1.808z" fill="#FFEEC2"/><path d="M87.523 124.706l.014-.069 8.667 1.807-.014.07-8.667-1.808z" fill="#FFEDC1"/><path d="M87.53 124.659l.014-.07 8.667 1.808-.014.07-8.667-1.808z" fill="#FFEDC0"/><path d="M87.537 124.612l.013-.07 8.667 1.808-.013.069-8.667-1.807z" fill="#FFEDBF"/><path d="M87.544 124.567l.014-.07 8.667 1.808-.014.07-8.667-1.808z" fill="#FFECBE"/><path d="M87.55 124.519l.014-.07 8.666 1.808-.014.07-8.666-1.808z" fill="#FFECBC"/><path d="M87.564 124.473l.013-.07 8.667 1.808-.014.07-8.666-1.808z" fill="#FFECBC"/><path d="M87.572 124.426l.013-.07 8.667 1.808-.013.07-8.667-1.808z" fill="#FFEBBA"/><path d="M87.582 124.382l.013-.07 8.667 1.808-.014.07-8.666-1.808z" fill="#FFEBB8"/><path d="M87.59 124.334l.013-.069 8.667 1.807-.013.07-8.667-1.808z" fill="#FFEAB6"/><path d="M87.6 124.288l.013-.07 8.667 1.808-.014.07-8.666-1.808z" fill="#FFEAB5"/><path d="M87.605 124.241l.014-.07 8.666 1.808-.013.07-8.667-1.808z" fill="#FFE9B3"/><path d="M87.618 124.193l.013-.069 8.667 1.807-.014.07-8.666-1.808z" fill="#FFE9B1"/><path d="M87.632 124.15l.014-.07 8.667 1.808-.014.07-8.667-1.808z" fill="#FFE8AF"/><path d="M87.64 124.1l.014-.07 8.667 1.808-.014.07-8.667-1.808z" fill="#FFE8AE"/><path d="M87.647 124.055l.014-.07 8.667 1.808-.014.07-8.666-1.808z" fill="#FFE7AC"/><path d="M87.654 124.007l.014-.069 8.666 1.807-.013.07-8.667-1.808z" fill="#FFE7AA"/><path d="M87.658 123.962l.014-.07 8.667 1.808-.014.07-8.667-1.808z" fill="#FFE6A8"/><path d="M87.669 123.914l.014-.069 8.666 1.808-.013.069-8.667-1.808z" fill="#FFE5A6"/><path d="M87.68 123.869l.014-.07 8.667 1.808-.014.07-8.666-1.808z" fill="#FFE5A4"/><path d="M87.696 123.824l.014-.07 8.667 1.808-.014.07-8.667-1.808z" fill="#FFE4A2"/><path d="M87.702 123.777l.013-.069 8.667 1.807-.014.07-8.666-1.808z" fill="#FFE4A0"/><path d="M87.708 123.73l.014-.069 8.666 1.807-.013.07-8.667-1.808z" fill="#FFE49E"/><path d="M87.718 123.681l.013-.07 8.667 1.808-.013.07-8.667-1.808z" fill="#FFE39C"/><path d="M87.722 123.638l.014-.07 8.667 1.808-.014.069-8.667-1.807z" fill="#FFE39A"/><path d="M87.735 123.589l.014-.07 8.666 1.808-.013.07-8.667-1.808z" fill="#FFE297"/><path d="M87.75 123.543l.013-.07 8.667 1.808-.014.07-8.666-1.808z" fill="#FFE296"/><path d="M87.757 123.498l.014-.07 8.667 1.808-.014.07-8.667-1.808z" fill="#FFE194"/><path d="M87.766 123.45l.013-.07 8.667 1.808-.014.069-8.666-1.807z" fill="#FFE092"/><path d="M87.772 123.404l.014-.07 8.666 1.808-.013.07-8.667-1.808z" fill="#FFE090"/><path d="M87.779 123.357l.013-.07 8.667 1.808-.014.07-8.666-1.808z" fill="#FFDF8E"/><path d="M87.787 123.313l.014-.07 8.666 1.808-.013.07-8.667-1.808z" fill="#FFDE8C"/><path d="M87.798 123.265l.013-.07 8.667 1.808-.013.069-8.667-1.807z" fill="#FFDE8A"/><path d="M87.815 123.216l.014-.07 8.667 1.808-.014.07-8.667-1.808z" fill="#FD8"/><path d="M87.819 123.172l.013-.07 8.667 1.808-.013.069-8.667-1.807z" fill="#FFDD87"/><path d="M87.83 123.124l.014-.07 8.667 1.808-.014.07-8.666-1.808z" fill="#FFDD85"/><path d="M87.835 123.081l.014-.07 8.666 1.808-.013.069-8.667-1.807z" fill="#FFDC83"/><path d="M87.846 123.031l.013-.07 8.667 1.808-.014.07-8.666-1.808z" fill="#FFDC81"/><path d="M87.865 122.986l.014-.07 8.666 1.808-.014.07-8.666-1.808z" fill="#FFDB7F"/><path d="M87.868 122.937l.014-.069 8.667 1.807-.014.07-8.667-1.808z" fill="#FFDB7E"/><path d="M87.874 122.893l.014-.07 8.667 1.808-.014.07-8.666-1.808z" fill="#FFDA7C"/><path d="M87.885 122.846l.013-.07 8.667 1.808-.013.069-8.667-1.807z" fill="#FFDA7B"/><path d="M87.89 122.8l.013-.07 8.667 1.808-.014.07-8.667-1.808z" fill="#FFD97A"/><path d="M87.898 122.751l.014-.069 8.666 1.808-.013.069-8.667-1.808z" fill="#FFD978"/><path d="M87.905 122.704l.014-.07 8.667 1.807-.014.07-8.667-1.807z" fill="#FFD877"/><path d="M87.923 122.66l.014-.07 8.667 1.808-.014.069-8.667-1.807z" fill="#FFD876"/><path d="M87.93 122.612l.014-.07 8.667 1.808-.014.07-8.666-1.808z" fill="#FED775"/><path d="M87.938 122.567l.013-.069 8.667 1.807-.013.07-8.667-1.808z" fill="#FED775"/><path d="M87.948 122.52l.014-.07 8.666 1.808-.013.07-8.667-1.808z" fill="#FED674"/><path d="M87.953 122.471l.014-.07 8.667 1.808-.014.07-8.667-1.808z" fill="#FED673"/><path d="M87.959 122.428l.013-.07 8.667 1.808-.014.07-8.666-1.808z" fill="#FED671"/><path d="M87.983 122.381l.014-.07 8.666 1.808-.013.07-8.667-1.808z" fill="#FDD571"/><path d="M87.985 122.335l.014-.069 8.667 1.807-.014.07-8.667-1.808z" fill="#FDD570"/><path d="M87.992 122.288l.013-.07 8.667 1.808-.014.07-8.666-1.808z" fill="#FDD46F"/><path d="M88.002 122.24l.014-.07 8.666 1.808-.013.07-8.667-1.808z" fill="#FDD46F"/><path d="M88.007 122.193l.014-.069 8.667 1.807-.014.07-8.667-1.808z" fill="#FDD36E"/><path d="M88.015 122.147l.014-.07 8.667 1.808-.014.07-8.667-1.808z" fill="#FDD36D"/><path d="M88.026 122.102l.014-.07 8.666 1.808-.013.07-8.667-1.808z" fill="#FCD26D"/><path d="M88.04 122.055l.014-.07 8.667 1.808-.014.07-8.666-1.808z" fill="#FCD26C"/><path d="M88.05 122.012l.013-.07 8.667 1.808-.014.069-8.667-1.807z" fill="#FCD16B"/><path d="M88.055 121.96l.014-.07 8.667 1.808-.014.07-8.667-1.808z" fill="#FBD06A"/><path d="M88.067 121.917l.014-.07 8.667 1.808-.014.07-8.667-1.808z" fill="#FBCF69"/><path d="M88.07 121.869l.014-.07 8.667 1.808-.014.069-8.667-1.807z" fill="#FACF68"/><path d="M88.08 121.821l.014-.07 8.666 1.808-.013.07-8.667-1.808z" fill="#FACE68"/><path d="M88.1 121.777l.013-.07 8.667 1.808-.014.069-8.667-1.807z" fill="#FACE67"/><path d="M88.103 121.731l.014-.069 8.667 1.807-.014.07-8.666-1.808z" fill="#F9CD67"/><path d="M88.109 121.682l.014-.07 8.666 1.808-.013.07-8.667-1.808z" fill="#F9CD66"/><path d="M88.12 121.635l.013-.07 8.667 1.808-.014.07-8.667-1.808z" fill="#F8CC66"/><path d="M88.124 121.591l.014-.07 8.667 1.808-.014.07-8.666-1.808z" fill="#F8CC65"/><path d="M88.132 121.543l.014-.069 8.667 1.807-.014.07-8.667-1.808z" fill="#F7CA64"/><path d="M88.143 121.496l.014-.069 8.666 1.807-.013.07-8.667-1.808z" fill="#F6CA63"/><path d="M88.158 121.451l.013-.07 8.667 1.808-.014.069-8.666-1.807z" fill="#F6C963"/><path d="M88.165 121.402l.014-.069 8.667 1.807-.014.07-8.667-1.808z" fill="#F6C862"/><path d="M88.175 121.359l.014-.069 8.666 1.807-.013.07-8.667-1.808z" fill="#F6C862"/><path d="M88.185 121.309l.013-.069 8.667 1.808-.013.069-8.667-1.808z" fill="#F5C762"/><path d="M88.188 121.264l.013-.07 8.667 1.808-.014.069-8.666-1.807z" fill="#F5C661"/><path d="M88.193 121.219l.014-.07 8.666 1.808-.013.07-8.667-1.808z" fill="#F4C660"/><path d="M88.217 121.171l.014-.07 8.667 1.808-.014.07-8.667-1.808z" fill="#F3C55F"/><path d="M88.222 121.124l.013-.07 8.667 1.808-.014.069-8.666-1.807z" fill="#F3C55F"/><path d="M88.233 121.078l.014-.07 8.667 1.808-.014.07-8.667-1.808z" fill="#F2C35F"/><path d="M88.24 121.029l.013-.07 8.667 1.808-.014.07-8.666-1.808z" fill="#F2C35E"/><path d="M88.242 120.986l.013-.069 8.667 1.807-.013.07-8.667-1.808z" fill="#F1C25E"/><path d="M88.25 120.941l.013-.07 8.667 1.808-.014.07-8.666-1.808z" fill="#F1C25D"/><path d="M88.267 120.89l.013-.07 8.667 1.808-.014.07-8.666-1.808z" fill="#F0C15C"/><path d="M88.275 120.847l.014-.07 8.666 1.808-.013.069-8.667-1.807z" fill="#F0C05C"/><path d="M88.285 120.799l.013-.07 8.667 1.808-.014.07-8.666-1.808z" fill="#F0C05C"/><path d="M88.293 120.752l.014-.07 8.666 1.808-.013.07-8.667-1.808z" fill="#EFBF5B"/><path d="M88.302 120.707l.013-.07 8.667 1.808-.013.07-8.667-1.808z" fill="#EFBE5B"/><path d="M88.305 120.662l.013-.07 8.667 1.808-.014.07-8.666-1.808z" fill="#EEBE5B"/><path d="M88.32 120.613l.014-.07L97 122.351l-.013.07-8.667-1.808z" fill="#EEBD5B"/><path d="M88.334 120.566l.013-.07 8.667 1.808-.014.07-8.666-1.808z" fill="#EDBD59"/><path d="M88.343 120.522l.014-.07 8.667 1.808-.014.07-8.667-1.808z" fill="#EDBD59"/><path d="M88.35 120.474l.014-.07 8.667 1.808-.014.069-8.666-1.807z" fill="#ECBB59"/><path d="M88.357 120.425l.014-.07 8.666 1.808-.013.07-8.667-1.808z" fill="#ECBB59"/><path d="M88.361 120.38l.014-.069 8.667 1.807-.014.07-8.667-1.808z" fill="#ECBB59"/><path d="M88.37 120.333l.014-.07 8.667 1.808-.014.07-8.667-1.808z" fill="#EBBA58"/><path d="M88.384 120.29l.013-.069 8.667 1.807-.013.07-8.667-1.808z" fill="#EBBA58"/><path d="M88.392 120.24l.014-.07 8.667 1.808-.014.07-8.667-1.808z" fill="#EBBA58"/><path d="M88.402 120.195l.014-.07 8.666 1.808-.013.07-8.667-1.808z" fill="#EAB958"/><path d="M88.411 120.15l.014-.07 8.667 1.808-.014.07-8.667-1.808z" fill="#EAB958"/><path d="M88.42 120.101l.015-.069 8.666 1.807-.013.07-8.667-1.808z" fill="#EAB958"/><path d="M88.425 120.055l.014-.07 8.667 1.808-.014.069-8.667-1.807z" fill="#E9B857"/><path d="M88.438 120.009l.014-.07 8.666 1.808-.013.07-8.667-1.808z" fill="#E9B757"/><path d="M88.452 119.961l.013-.07 8.667 1.808-.014.069-8.666-1.807z" fill="#E9B756"/><path d="M88.46 119.917l.014-.069 8.667 1.808-.014.069-8.667-1.808z" fill="#E8B756"/><path d="M88.468 119.87l.013-.07 8.667 1.808-.013.07-8.667-1.808z" fill="#E8B756"/><path d="M88.474 119.821l.014-.07 8.667 1.808-.014.07-8.667-1.808z" fill="#E8B756"/><path d="M88.482 119.778l.014-.07 8.666 1.808-.013.07-8.667-1.808z" fill="#E8B656"/><path d="M88.49 119.728l.014-.069 8.667 1.807-.014.07-8.667-1.808z" fill="#E7B656"/><path d="M88.501 119.682l.014-.07 8.666 1.808-.013.069-8.667-1.807z" fill="#E7B656"/><path d="M88.518 119.638l.014-.07 8.666 1.808-.013.07-8.667-1.808z" fill="#E7B656"/><path d="M88.522 119.59l.013-.07 8.667 1.808-.013.07-8.667-1.808z" fill="#E7B656"/><path d="M88.534 119.545l.013-.07 8.667 1.808-.014.07-8.666-1.808z" fill="#E7B656"/><path d="M88.54 119.499l.452-2.308 8.666 1.808-.452 2.308-8.667-1.808z" fill="#E7B656"/></g></svg>