<?xml version="1.0" encoding="utf-8"?>
<!-- Generator: Adobe Illustrator 23.0.0, SVG Export Plug-In . SVG Version: 6.00 Build 0)  -->
<svg version="1.1" id="Layer_1" xmlns="http://www.w3.org/2000/svg" xmlns:xlink="http://www.w3.org/1999/xlink" x="0px" y="0px"
	 viewBox="0 0 64 64" style="enable-background:new 0 0 64 64;" xml:space="preserve">
<style type="text/css">
	.st0{fill:url(#SVGID_1_);}
	.st1{fill:url(#SVGID_2_);}
	.st2{fill:url(#SVGID_3_);}
	.st3{fill-rule:evenodd;clip-rule:evenodd;fill:#FFFFFF;}
</style>
<title>Skype_64x</title>
<linearGradient id="SVGID_1_" gradientUnits="userSpaceOnUse" x1="6.7663" y1="52.5021" x2="24.9558" y2="14.2284">
	<stop  offset="0" style="stop-color:#007CD6"/>
	<stop  offset="1" style="stop-color:#00B4EF"/>
</linearGradient>
<circle class="st0" cx="21.5" cy="21.5" r="14.5"/>
<linearGradient id="SVGID_2_" gradientUnits="userSpaceOnUse" x1="41.6395" y1="59.8828" x2="42.5868" y2="40.7459">
	<stop  offset="0" style="stop-color:#007CD6"/>
	<stop  offset="1" style="stop-color:#00B4EF"/>
</linearGradient>
<circle class="st1" cx="42.5" cy="42.5" r="14.5"/>
<linearGradient id="SVGID_3_" gradientUnits="userSpaceOnUse" x1="31.9309" y1="55.0798" x2="32.0572" y2="12.8903">
	<stop  offset="0" style="stop-color:#007CD6"/>
	<stop  offset="1" style="stop-color:#00B4EF"/>
</linearGradient>
<circle class="st2" cx="32" cy="32" r="24"/>
<path class="st3" d="M25.8,31.5c-0.9-0.6-1.7-1.4-2.3-2.4c-0.5-1-0.8-2.2-0.8-3.3c0-1.5,0.5-2.9,1.4-4c1-1.1,2.3-2,3.7-2.5
	c1.5-0.5,3.2-0.8,4.8-0.8c1.1,0,2.1,0.1,3.2,0.2c0.8,0.1,1.5,0.3,2.2,0.6c0.7,0.2,1.3,0.6,1.7,1.1c0.4,0.4,0.5,0.9,0.5,1.5
	c0,0.6-0.2,1.1-0.6,1.6c-0.4,0.4-0.9,0.6-1.4,0.6c-0.4,0-0.7-0.1-1.1-0.2c-0.8-0.4-1.7-0.7-2.5-0.9c-0.8-0.2-1.6-0.3-2.4-0.3
	c-1.1,0-2.1,0.2-3,0.8c-0.8,0.5-1.3,1.3-1.2,2.3c0,0.6,0.2,1.2,0.6,1.6c0.5,0.5,1.1,0.9,1.7,1.2c0.7,0.4,1.8,0.8,3.2,1.4
	c0.2,0,0.3,0.1,0.5,0.2c1.4,0.5,2.7,1.2,3.9,2c1,0.6,1.8,1.5,2.4,2.5c0.6,1,0.9,2.2,0.9,3.5c0.1,1.5-0.4,2.9-1.2,4.2
	c-0.9,1.2-2,2-3.4,2.5c-1.6,0.6-3.4,0.9-5.1,0.8c-2.4,0.1-4.8-0.4-6.9-1.3c-0.6-0.2-1.1-0.6-1.4-1.1c-0.3-0.4-0.5-1-0.5-1.5
	c0-0.6,0.2-1.1,0.6-1.5c0.4-0.4,1-0.6,1.6-0.6c0.6,0,1.3,0.2,1.8,0.5c0.7,0.4,1.3,0.6,1.7,0.8c0.5,0.2,0.9,0.3,1.4,0.5
	c0.6,0.1,1.2,0.2,1.8,0.2c1.1,0.1,2.2-0.2,3.1-0.8c0.7-0.5,1.1-1.4,1-2.3c0-0.6-0.2-1.2-0.7-1.7c-0.6-0.6-1.2-1.1-1.9-1.4
	c-0.9-0.4-2-1-3.6-1.6C28.3,33,27,32.4,25.8,31.5"/>
</svg>
