<?xml version="1.0" encoding="UTF-8"?> <svg xmlns="http://www.w3.org/2000/svg" width="182.512" height="50" viewBox="0 0 182.512 50"><g transform="translate(-68.526 -961.992)"><path d="M114.193,1056.645a1.34,1.34,0,0,0,.417-.994,1.423,1.423,0,0,0-1.4-1.4h-3.406v2.8h3.406A1.338,1.338,0,0,0,114.193,1056.645Z" transform="translate(-30.436 -68.02)" fill="#fff"></path><path d="M107.944,983.742H72.5a3.97,3.97,0,0,0-3.97,3.97v36.2a3.97,3.97,0,0,0,3.97,3.97h35.448a3.97,3.97,0,0,0,3.97-3.97v-36.2A3.97,3.97,0,0,0,107.944,983.742Zm-15.7,15.8a1.527,1.527,0,0,1,1.135-.477h1.216a18.508,18.508,0,0,0-2.237.934c-.181.094-.363.188-.537.282A1.454,1.454,0,0,1,92.243,999.542Zm-16.071,1.129a1.536,1.536,0,0,1,.464-1.129,1.552,1.552,0,0,1,1.142-.477h5a4.624,4.624,0,0,1,4.582,4.179,29.32,29.32,0,0,1-6.409,3.937,15.6,15.6,0,0,1-4.777,1.075Zm-2,8.358c.672,0,1.337-.027,2-.074a17.964,17.964,0,0,0,3.2-.531c.181-.047.349-.094.564-.154h.007a12.319,12.319,0,0,0,1.263-.45,28.017,28.017,0,0,0,6.154-3.715c.443-.329.88-.659,1.33-.988a32.874,32.874,0,0,1,3.084-2.015c.289-.168.591-.329.893-.484a15.272,15.272,0,0,1,4.569-1.5c.134-.02.262-.04.4-.054a13.369,13.369,0,0,1,1.787-.114,15.632,15.632,0,0,1,1.868.114c.229.027.464.06.692.1a19.481,19.481,0,0,1,2.8.726c.558.188,1.1.4,1.633.638-.49-.06-.974-.121-1.458-.168a27.829,27.829,0,0,0-2.976-.188h-.161a17.531,17.531,0,0,0-4.26.524,18.332,18.332,0,0,0-5.784,2.781c-.632.423-1.25.867-1.875,1.317-.679.47-1.364.968-2.062,1.451-.571.4-1.156.786-1.76,1.149-.524.3-1.055.6-1.606.873a15.82,15.82,0,0,1-2.748,1.068,14.427,14.427,0,0,1-3.984.565c-.249,0-.49-.007-.732-.02-.282-.013-.557-.04-.833-.074a16.509,16.509,0,0,1-3.722-.826C73.028,1009.009,73.6,1009.029,74.17,1009.029Zm13.853,3.89a4.429,4.429,0,0,1-3.252,1.35H77.778a1.566,1.566,0,0,1-1.142-.463c-.02-.02-.04-.047-.06-.067a20.992,20.992,0,0,0,2.822.2c.417,0,.826-.013,1.229-.047a19.218,19.218,0,0,0,5.408-1.1,21.96,21.96,0,0,0,3-1.364A4.686,4.686,0,0,1,88.023,1012.919Zm6.947-.255a1.583,1.583,0,0,1-1.592,1.606,1.594,1.594,0,0,1-1.606-1.606v-2.936c.826-.578,1.612-1.169,2.385-1.754.269-.208.544-.41.813-.618Zm10.01,0a1.594,1.594,0,0,1-1.606,1.606,1.594,1.594,0,0,1-1.6-1.606v-8.976a9.868,9.868,0,0,1,1.747-.242c.3-.02.6-.034.914-.034.181,0,.356.007.544.014Zm0-9.93c-.181,0-.363-.007-.544-.007-.316,0-.632.007-.947.034a11.078,11.078,0,0,0-1.713.221,12.762,12.762,0,0,0-2.929,1.028,23.8,23.8,0,0,0-3.877,2.486c-.087.06-.168.128-.255.195-.967.719-1.935,1.471-2.942,2.2-.4.289-.806.571-1.223.846s-.826.517-1.25.759a21.627,21.627,0,0,1-3.494,1.659,18.678,18.678,0,0,1-5.227,1.055c-.4.027-.793.04-1.182.04a21.166,21.166,0,0,1-3.2-.255c-.289-.047-.578-.094-.867-.148a26.138,26.138,0,0,1-4.965-1.451,51.833,51.833,0,0,0,5.8.47c.182.007.356.007.537.007a25.06,25.06,0,0,0,3.7-.255,20,20,0,0,0,2.533-.544,20.959,20.959,0,0,0,3.211-1.2v-.007c.208-.094.41-.195.611-.3.054-.027.108-.054.155-.081q.373-.191.746-.4c.135-.074.276-.154.41-.242.356-.2.712-.423,1.055-.652.094-.06.188-.128.282-.188.793-.5,1.572-1.055,2.358-1.619.322-.228.645-.47.974-.7s.658-.47.994-.7l.544-.363c.195-.134.39-.262.591-.39.034-.02.06-.04.094-.06a19.441,19.441,0,0,1,3.232-1.646,8.144,8.144,0,0,1,.773-.269,12.612,12.612,0,0,1,1.841-.437q.675-.081,1.351-.121c.1.007.2.007.309.007h.309a6.458,6.458,0,0,1,.719.034,13.248,13.248,0,0,1,1.478.222,14.772,14.772,0,0,1,3.527,1.2A24.668,24.668,0,0,0,104.981,1002.734Z" transform="translate(0 -16.036)" fill="#fff"></path><path d="M286.244,991.419a5.351,5.351,0,0,0,.518-2.314,5.473,5.473,0,0,0-5.46-5.459h-5.93a1.914,1.914,0,0,0-1.9,1.9v14.234a1.894,1.894,0,0,0,1.9,1.9h8.3a5.473,5.473,0,0,0,5.46-5.46,5.471,5.471,0,0,0-2.893-4.809Zm-8.979-3.977H281.3a1.688,1.688,0,0,1,1.663,1.663,1.612,1.612,0,0,1-.494,1.181,1.591,1.591,0,0,1-1.169.482h-4.037Zm7.581,9.967a1.591,1.591,0,0,1-1.169.482h-6.412v-3.327h6.412a1.688,1.688,0,0,1,1.663,1.663A1.611,1.611,0,0,1,284.846,997.409Z" transform="translate(-151.105 -15.966)" fill="#fff"></path><path d="M347,983.646a9.053,9.053,0,1,0,6.376,2.651A8.692,8.692,0,0,0,347,983.646Zm3.7,12.715a5.22,5.22,0,1,1-7.388-7.376,5.22,5.22,0,1,1,7.388,7.376Z" transform="translate(-198.671 -15.966)" fill="#fff"></path><path d="M425.182,997.959h-.012l-6.592-13.173a1.895,1.895,0,0,0-3.4,0l-6.592,13.173h-.012a1.893,1.893,0,0,0-1.9,1.9v2.362a1.9,1.9,0,1,0,3.8,0v-.47h12.811v.47a1.9,1.9,0,0,0,3.808,0v-2.362a1.914,1.914,0,0,0-1.9-1.9Zm-12.341,0,4.037-8.087,4.049,8.087Z" transform="translate(-249.314 -16.033)" fill="#fff"></path><path d="M492.639,1001.688a1.893,1.893,0,0,0,1.892-1.9v-5.219h8.075v5.219a1.893,1.893,0,0,0,1.892,1.9,1.864,1.864,0,0,0,1.35-.555,1.838,1.838,0,0,0,.554-1.35V985.55a1.824,1.824,0,0,0-.554-1.338,1.844,1.844,0,0,0-1.35-.566,1.8,1.8,0,0,0-1.338.566,1.823,1.823,0,0,0-.554,1.338v5.219h-8.075V985.55a1.824,1.824,0,0,0-.555-1.338,1.877,1.877,0,0,0-2.688,0,1.823,1.823,0,0,0-.554,1.338v14.234a1.893,1.893,0,0,0,1.9,1.9Z" transform="translate(-311.296 -15.966)" fill="#fff"></path><path d="M572.42,988.394H567.2V985.55a1.824,1.824,0,0,0-.554-1.338,1.877,1.877,0,0,0-2.688,0,1.823,1.823,0,0,0-.555,1.338v14.234a1.893,1.893,0,0,0,1.9,1.9h7.111a6.647,6.647,0,0,0,0-13.294Zm2.013,8.665a2.742,2.742,0,0,1-2.013.832H567.2v-5.7h5.218a2.846,2.846,0,0,1,2.013,4.869Z" transform="translate(-364.875 -15.966)" fill="#fff"></path><path d="M632.154,1001.688a1.893,1.893,0,0,0,1.892-1.9V985.55a1.824,1.824,0,0,0-.554-1.338,1.8,1.8,0,0,0-1.338-.566,1.843,1.843,0,0,0-1.35.566,1.823,1.823,0,0,0-.554,1.338v14.234a1.837,1.837,0,0,0,.554,1.35A1.863,1.863,0,0,0,632.154,1001.688Z" transform="translate(-414.16 -15.966)" fill="#fff"></path><path d="M673.167,965.788h4.749a1.9,1.9,0,0,0,0-3.8h-4.749a1.823,1.823,0,0,0-1.338.554,1.877,1.877,0,0,0,0,2.687A1.821,1.821,0,0,0,673.167,965.788Z" transform="translate(-444.399 0)" fill="#fff"></path><path d="M670.155,1001.133a1.823,1.823,0,0,0,1.338.555,1.864,1.864,0,0,0,1.35-.555,1.837,1.837,0,0,0,.555-1.35V985.55a1.9,1.9,0,0,0-3.363-1.217l-8.509,10.208V985.55a1.823,1.823,0,0,0-.555-1.338,1.877,1.877,0,0,0-2.688,0,1.824,1.824,0,0,0-.554,1.338v14.234a1.853,1.853,0,0,0,.35,1.1,1.813,1.813,0,0,0,.9.7,1.973,1.973,0,0,0,.651.109,1.827,1.827,0,0,0,1.458-.687l8.509-10.208v8.991A1.837,1.837,0,0,0,670.155,1001.133Z" transform="translate(-434.421 -15.966)" fill="#fff"></path><path d="M287.233,1083.646H275.373a1.914,1.914,0,0,0-1.9,1.9v14.234a1.9,1.9,0,1,0,3.8,0v-12.341h8.075v12.341a1.893,1.893,0,0,0,1.892,1.9,1.863,1.863,0,0,0,1.35-.554,1.837,1.837,0,0,0,.555-1.35V1085.55a1.823,1.823,0,0,0-.555-1.338A1.843,1.843,0,0,0,287.233,1083.646Z" transform="translate(-151.105 -89.696)" fill="#fff"></path><path d="M355.154,1083.646h-7.111a1.914,1.914,0,0,0-1.9,1.9v14.234a1.9,1.9,0,1,0,3.8,0v-2.844h5.219a6.647,6.647,0,0,0,0-13.293Zm2.013,8.665a2.742,2.742,0,0,1-2.013.832h-5.219v-5.7h5.219a2.846,2.846,0,0,1,2.013,4.869Z" transform="translate(-204.685 -89.696)" fill="#fff"></path><path d="M420.126,1083.646a9.053,9.053,0,1,0,6.376,2.651A8.692,8.692,0,0,0,420.126,1083.646Zm3.7,12.715a5.22,5.22,0,1,1-7.388-7.376,5.22,5.22,0,1,1,7.388,7.376Z" transform="translate(-252.589 -89.696)" fill="#fff"></path><path d="M496.758,1086.02h-.47v-.47a1.914,1.914,0,0,0-1.9-1.9,1.8,1.8,0,0,0-1.338.566,1.823,1.823,0,0,0-.555,1.338v.47h-.482a6.647,6.647,0,0,0,0,13.293h.482v.47a1.9,1.9,0,1,0,3.8,0v-.47h.47a6.647,6.647,0,0,0,0-13.293Zm-4.267,9.5h-.482a2.85,2.85,0,0,1,0-5.7h.482Zm6.279-.832a2.741,2.741,0,0,1-2.013.832h-.47v-5.7h.47a2.846,2.846,0,0,1,2.013,4.869Z" transform="translate(-307.339 -89.696)" fill="#fff"></path><path d="M576.985,1083.766a1.906,1.906,0,0,0-2.109.566l-8.509,10.208v-8.991a1.824,1.824,0,0,0-.554-1.338,1.877,1.877,0,0,0-2.688,0,1.823,1.823,0,0,0-.554,1.338v14.234a1.854,1.854,0,0,0,.349,1.1,1.812,1.812,0,0,0,.9.7,1.967,1.967,0,0,0,.651.109,1.827,1.827,0,0,0,1.458-.687l8.509-10.208v8.991a1.893,1.893,0,0,0,1.892,1.9,1.864,1.864,0,0,0,1.35-.554,1.838,1.838,0,0,0,.554-1.35V1085.55a1.9,1.9,0,0,0-1.253-1.784Z" transform="translate(-364.26 -89.696)" fill="#fff"></path><path d="M639.321,1084.694a1.906,1.906,0,0,0-3.4,0L628.8,1098.94a1.812,1.812,0,0,0-.1,1.446,1.787,1.787,0,0,0,.952,1.1,1.813,1.813,0,0,0,.844.205,1.874,1.874,0,0,0,.988-.277,1.787,1.787,0,0,0,.711-.771l5.423-10.847,5.423,10.835a1.9,1.9,0,0,0,3.495-.253,1.783,1.783,0,0,0-.109-1.446Z" transform="translate(-412.942 -89.696)" fill="#fff"></path><path d="M717.359,1090.347a6.407,6.407,0,0,0-4.7-1.953H707.44v-2.844a1.823,1.823,0,0,0-.555-1.338,1.877,1.877,0,0,0-2.688,0,1.824,1.824,0,0,0-.554,1.338v14.234a1.893,1.893,0,0,0,1.9,1.9h7.111a6.638,6.638,0,0,0,4.7-11.341Zm-2.687,6.713a2.741,2.741,0,0,1-2.013.832H707.44v-5.7h5.219a2.846,2.846,0,0,1,2.013,4.869Z" transform="translate(-468.274 -89.696)" fill="#fff"></path></g></svg> 