<?xml version="1.0" encoding="UTF-8"?> <svg xmlns="http://www.w3.org/2000/svg" width="60" height="60" viewBox="0 0 60 60"><defs><style> .cls-1, .cls-2, .cls-3, .cls-4, .cls-5, .cls-6 { fill: none; } .cls-2, .cls-3, .cls-4, .cls-5, .cls-6 { stroke: #10a7f9; } .cls-2, .cls-5 { stroke-linecap: round; } .cls-2, .cls-3, .cls-5, .cls-6 { stroke-width: 2px; } .cls-2, .cls-3, .cls-4, .cls-5 { fill-rule: evenodd; } .cls-4 { stroke-width: 1.5px; } .cls-5 { stroke-linejoin: round; } </style></defs><g id="passive_Instal_icon_blue" transform="translate(-188.409 -14.626)"><rect id="Прямоугольник_318" data-name="Прямоугольник 318" class="cls-1" width="60" height="60" transform="translate(188.409 14.626)"></rect><path id="Контур_127" data-name="Контур 127" class="cls-2" d="M222.319,52.946l-22.5-22.5h-2.812l-2.812-6.562,2.812-2.813,5.625,2.813v3.75l22.5,22.5Z" transform="translate(-0.362 -0.403)"></path><path id="Контур_128" data-name="Контур 128" class="cls-3" d="M245.882,72.883s-3.75,3.75-5.625.938c-2.812-1.875-9.375-9.375-9.375-9.375s.938-2.812,0-3.749h-3.75l-.937-.938V57.883l1.875-2.812" transform="translate(-2.362 -2.528)"></path><path id="Контур_129" data-name="Контур 129" class="cls-3" d="M246.007,72.758s2.813-2.812.938-5.625c-2.812-1.875-9.375-9.375-9.375-9.375s-2.812.938-3.75,0,0-3.75,0-3.75l-.937-.937h-1.875l-2.812,1.875" transform="translate(-2.487 -2.403)"></path><path id="Контур_130" data-name="Контур 130" class="cls-3" d="M216.681,54.153,200.346,70.686a5.313,5.313,0,0,1-7.5,0c-2.576-2.576-1.107-6.692,0-7.5l15.938-16.875" transform="translate(-0.188 -1.98)"></path><path id="Контур_131" data-name="Контур 131" class="cls-4" d="M197.053,66.071a1.888,1.888,0,1,1,0,3.751A1.888,1.888,0,1,1,197.053,66.071Z" transform="translate(-0.408 -3.215)"></path><path id="Контур_132" data-name="Контур 132" class="cls-3" d="M217.909,37.06l3.08-3.8,2.813-8.438,16.875,5.624,3.75-9.375s4.688,4.688,1.875,10.313c-1.875,5.625-6.562,6.563-12.187,8.438a31.417,31.417,0,0,0-8.061,5.275" transform="translate(-1.844 -0.403)"></path><path id="Контур_133" data-name="Контур 133" class="cls-3" d="M232.819,27.383l3.75-10.312s-2.529-.265-5.654,2.9c-3.587,4.479-3.721,5.542-3.721,5.542" transform="translate(-2.424 -0.152)"></path><path id="Контур_134" data-name="Контур 134" class="cls-5" d="M225.194,34.759l2.812-4.687,7.5,3.75-2.812,4.687Z" transform="translate(-2.299 -0.965)"></path><line id="Линия_92" data-name="Линия 92" class="cls-6" y1="3.75" x2="1.875" transform="translate(228.52 31.919)"></line><line id="Линия_93" data-name="Линия 93" class="cls-6" y1="4.688" x2="2.812" transform="translate(225.708 30.044)"></line><line id="Линия_94" data-name="Линия 94" class="cls-6" x2="8.438" y2="8.438" transform="translate(231.535 60.564)"></line></g></svg> 