<?xml version="1.0" encoding="UTF-8"?> <svg xmlns="http://www.w3.org/2000/svg" width="60" height="60" viewBox="0 0 60 60"><defs><style> .cls-1, .cls-2, .cls-3, .cls-4 { fill: none; } .cls-2, .cls-3, .cls-4 { stroke: #10a7f9; stroke-miterlimit: 22.926; stroke-width: 2px; } .cls-3 { fill-rule: evenodd; } .cls-4 { stroke-linecap: round; } </style></defs><g id="passive_Analysis_icon_blue" transform="translate(-18.409 -14.626)"><rect id="Прямоугольник_314" data-name="Прямоугольник 314" class="cls-1" width="60" height="60" transform="translate(18.41 14.626)"></rect><line id="Линия_82" data-name="Линия 82" class="cls-2" x2="55.313" transform="translate(20.753 72.282)"></line><path id="Контур_119" data-name="Контур 119" class="cls-3" d="M34.909,72.439l0-38.417m0-7.542V20.961c0-5.092,5.621-5.135,5.621,0V26.52m0,7.462V72.439" transform="translate(-1.031 -0.156)"></path><path id="Контур_120" data-name="Контур 120" class="cls-3" d="M24.909,29.126h7.866a4.7,4.7,0,0,0,0,3.75H24.909v-3.75Zm16.461,0H52.18v3.75H41.37a4.7,4.7,0,0,0,0-3.75Zm27.6,0h5.467a1.881,1.881,0,1,1,0,3.75H68.972Z" transform="translate(-0.406 -0.906)"></path><path id="Контур_121" data-name="Контур 121" class="cls-3" d="M22.785,26.126A1.879,1.879,0,0,0,20.909,28v5.625a1.875,1.875,0,0,0,3.75,0V28A1.878,1.878,0,0,0,22.785,26.126Z" transform="translate(-0.156 -0.719)"></path><path id="Контур_122" data-name="Контур 122" class="cls-3" d="M56.909,21.126H67.222v5.625H56.909V21.126ZM67.222,34.251V58.627a4.7,4.7,0,0,1-4.688,4.687H61.6a4.7,4.7,0,0,1-4.687-4.687V34.251Z" transform="translate(-2.406 -0.406)"></path><rect id="Прямоугольник_315" data-name="Прямоугольник 315" class="cls-2" width="15.938" height="4.688" rx="2" transform="translate(51.691 16.032)"></rect><rect id="Прямоугольник_316" data-name="Прямоугольник 316" class="cls-2" width="17.813" height="7.5" transform="translate(50.753 26.345)"></rect><line id="Линия_83" data-name="Линия 83" class="cls-2" x1="3.75" transform="translate(61.066 47.907)"></line><line id="Линия_84" data-name="Линия 84" class="cls-2" x1="3.75" transform="translate(61.066 52.594)"></line><circle id="Эллипс_18" data-name="Эллипс 18" class="cls-2" cx="4.688" cy="4.688" r="4.688" transform="translate(31.979 25.407)"></circle><line id="Линия_85" data-name="Линия 85" class="cls-2" y2="5.625" transform="translate(54.504 28.22)"></line><line id="Линия_86" data-name="Линия 86" class="cls-2" y2="3.75" transform="translate(57.316 22.595)"></line><line id="Линия_87" data-name="Линия 87" class="cls-4" y2="22.5" transform="translate(57.316 33.845)"></line></g></svg> 