<?xml version="1.0" encoding="UTF-8"?> <svg xmlns="http://www.w3.org/2000/svg" width="60" height="60" viewBox="0 0 60 60"><defs><style> .cls-1, .cls-2, .cls-3 { fill: none; } .cls-2, .cls-3 { stroke: #10a7f9; stroke-miterlimit: 22.926; stroke-width: 2px; } .cls-3 { fill-rule: evenodd; } </style></defs><g id="passive_Selecting_icon_blue" transform="translate(-108.652 -14.376)"><rect id="Прямоугольник_317" data-name="Прямоугольник 317" class="cls-1" width="60" height="60" transform="translate(108.653 14.376)"></rect><g id="Сгруппировать_119" data-name="Сгруппировать 119" transform="translate(109.667 15.376)"><circle id="Эллипс_19" data-name="Эллипс 19" class="cls-2" cx="9" cy="9" r="9" transform="translate(0 13.636)"></circle><line id="Линия_88" data-name="Линия 88" class="cls-2" x2="7" y2="7" transform="translate(5.5 19.009)"></line><line id="Линия_89" data-name="Линия 89" class="cls-2" x1="7" y2="7" transform="translate(5.5 19.009)"></line><circle id="Эллипс_20" data-name="Эллипс 20" class="cls-2" cx="9" cy="9" r="9" transform="translate(39.97 13.647)"></circle><line id="Линия_90" data-name="Линия 90" class="cls-2" x2="7" y2="7" transform="translate(45.47 19.02)"></line><line id="Линия_91" data-name="Линия 91" class="cls-2" x1="7" y2="7" transform="translate(45.47 19.02)"></line><circle id="Эллипс_21" data-name="Эллипс 21" class="cls-2" cx="9" cy="9" r="9" transform="translate(19.999)"></circle><path id="Контур_123" data-name="Контур 123" class="cls-3" d="M144.668,21.376l-5.078,5.078-2.922-3.078" transform="translate(-111.669 -15.376)"></path><path id="Контур_124" data-name="Контур 124" class="cls-3" d="M143.668,57.376v-3.75a2.648,2.648,0,0,1,2.558-2.5,2.619,2.619,0,0,1,2.441,2.5v2.75" transform="translate(-112.055 -17.941)"></path><path id="Контур_125" data-name="Контур 125" class="cls-3" d="M148.667,57.355v-2.6a2.648,2.648,0,0,1,2.558-2.5,2.62,2.62,0,0,1,2.441,2.5v2.751" transform="translate(-112.406 -17.976)"></path><path id="Контур_126" data-name="Контур 126" class="cls-3" d="M153.666,58.323c0-6.987,5-5.2,5-1.813l0,9.505c0,5.209-3,5.235-3,11.361m-17,0c0-11.371-8.822-9.307-8.95-18.368l-.051-3.632c-.054-3.852,4.729-3.951,4.99-.314a9.739,9.739,0,0,0,4.01,7.314v-20c0-1.906,1.187-3.251,2.5-3.251s2.5,1.352,2.5,3.251v14" transform="translate(-112.094 -19.376)"></path></g></g></svg> 