<?xml version="1.0" encoding="UTF-8"?> <svg xmlns="http://www.w3.org/2000/svg" width="60" height="60" viewBox="0 0 60 60"><defs><style> .cls-1, .cls-2, .cls-3, .cls-4 { fill: none; } .cls-2, .cls-3, .cls-4 { stroke: #10a7f9; } .cls-2, .cls-3 { stroke-linejoin: round; fill-rule: evenodd; } .cls-2, .cls-4 { stroke-width: 2px; } .cls-3 { stroke-width: 2.007px; } </style></defs><g id="passive_Commissioning_icon_blue" transform="translate(-259.409 -14.626)"><rect id="Прямоугольник_319" data-name="Прямоугольник 319" class="cls-1" width="60" height="60" transform="translate(259.409 14.626)"></rect><path id="Контур_135" data-name="Контур 135" class="cls-2" d="M266.909,75.688l13.049-6.562c4.641,6.559,15.122,6.559,19.764,0l13.125,6.563" transform="translate(-0.469 -3.406)"></path><path id="Контур_136" data-name="Контур 136" class="cls-2" d="M305.035,50.126c-2.813,20.625-25.312,22.5-28.126,0" transform="translate(-1.094 -2.219)"></path><path id="Контур_137" data-name="Контур 137" class="cls-2" d="M284.1,21.126s-2.812,0-6.562,5.625a20.019,20.019,0,0,0-2.812,12.187h-2.813v5.625h36.563V38.938h-2.813a20.024,20.024,0,0,0-2.812-12.187c-3.75-5.625-6.562-5.625-6.562-5.625" transform="translate(-0.781 -0.406)"></path><path id="Контур_138" data-name="Контур 138" class="cls-3" d="M284.909,28.438V20.7q0-2.578,2.813-2.578h6.563q2.813,0,2.813,2.578v7.734" transform="translate(-1.594 -0.219)"></path><line id="Линия_95" data-name="Линия 95" class="cls-4" x1="12.188" transform="translate(283.315 40.407)"></line><path id="Контур_139" data-name="Контур 139" class="cls-2" d="M288.91,25.563v-7.5a3.269,3.269,0,0,1,1.874-.937h.938a3.269,3.269,0,0,1,1.875.938v7.5" transform="translate(-1.844 -0.156)"></path><path id="Контур_140" data-name="Контур 140" class="cls-2" d="M284.1,21.126s-2.812,0-6.562,5.625a20.019,20.019,0,0,0-2.812,12.187h-.938a1.879,1.879,0,0,0-1.875,1.875v1.875a1.879,1.879,0,0,0,1.875,1.875H306.6a1.879,1.879,0,0,0,1.875-1.875V40.813a1.879,1.879,0,0,0-1.875-1.875h-.938a20.024,20.024,0,0,0-2.812-12.187c-3.75-5.625-6.562-5.625-6.562-5.625" transform="translate(-0.781 -0.406)"></path><path id="Контур_141" data-name="Контур 141" class="cls-2" d="M284.524,24.72c-3.759,2.294-6.363,8.778-5.662,12.981" transform="translate(-1.209 -0.631)"></path></g></svg> 