<svg width="174" height="67" viewBox="0 0 174 67" fill="none" xmlns="http://www.w3.org/2000/svg">
<path d="M148.502 50.3681C148.502 45.2135 148.502 40.0589 148.502 34.9043C148.502 34.2877 148.502 34.2877 149.127 34.2877C156.242 34.2877 163.349 34.2877 170.465 34.2798C170.907 34.2798 171.16 34.3984 171.382 34.8095C173.516 38.7782 174.331 42.992 173.88 47.4666C173.493 51.3642 172.283 54.9534 169.982 58.1474C167.674 61.3492 164.646 63.6182 160.962 65.0175C158.329 66.0215 155.586 66.4642 152.779 66.5038C151.53 66.5196 150.273 66.4959 149.016 66.5196C148.597 66.5275 148.487 66.3852 148.487 65.9741C148.502 60.7642 148.502 55.5701 148.502 50.3681Z" fill="#3B3B3B"/>
<path d="M93.399 50.4155C93.399 45.2451 93.399 40.0747 93.399 34.9123C93.399 34.2877 93.3991 34.2877 94.0236 34.2877C101.131 34.2877 108.246 34.2956 115.353 34.2798C115.804 34.2798 116.057 34.4221 116.27 34.8174C118.381 38.7387 119.188 42.905 118.777 47.3401C118.413 51.2219 117.235 54.8032 114.974 57.9972C112.42 61.6101 108.981 64.0293 104.783 65.3891C102.38 66.1638 99.9055 66.4959 97.3836 66.5038C96.2847 66.5117 95.1937 66.5038 94.0948 66.5038C93.3991 66.5038 93.399 66.5038 93.399 65.8239C93.399 60.6851 93.399 55.5464 93.399 50.4155Z" fill="#3B3B3B"/>
<path d="M66.4166 66.5038C66.0687 66.5038 65.8078 66.5038 65.539 66.5038C60.4951 66.5038 55.4512 66.4959 50.4073 66.5196C49.846 66.5196 49.6168 66.3298 49.4428 65.8239C48.3202 62.5351 47.1581 59.2621 46.0196 55.9812C45.7508 55.2143 45.4583 54.4475 45.2291 53.6727C45.0947 53.2062 44.8733 53.0402 44.3673 53.0481C41.205 53.0718 38.0427 53.0639 34.8725 53.0639C34.2558 53.0639 34.2479 53.0639 34.2479 52.4473C34.2479 46.5891 34.2479 40.7309 34.24 34.8727C34.24 34.43 34.3586 34.2798 34.8171 34.2798C41.3631 34.2956 47.9091 34.2956 54.4551 34.2798C54.8899 34.2798 55.1034 34.3905 55.2615 34.8411C57.1431 40.217 59.0563 45.5851 60.9537 50.9531C62.7325 55.9654 64.5034 60.9855 66.2743 66.0057C66.3296 66.1243 66.3533 66.2587 66.4166 66.5038Z" fill="#3B3B3B"/>
<path d="M0 66.4643C0.332043 65.5077 0.640379 64.6301 0.948704 63.7447C2.74332 58.6691 4.53793 53.5936 6.33254 48.5181C7.96904 43.9011 9.59764 39.2842 11.2262 34.6593C11.3211 34.3984 11.4555 34.2719 11.7322 34.2877C11.9536 34.2956 12.167 34.2877 12.3884 34.2877C18.7446 34.2877 25.1088 34.2877 31.4651 34.2877C32.1766 34.2877 32.1766 34.2877 32.1766 35.015C32.1766 40.7467 32.1766 46.4784 32.1766 52.218C32.1766 53.23 32.2003 53.0718 31.3148 53.0718C28.2 53.0798 25.0772 53.0798 21.9623 53.0639C21.5433 53.0639 21.3694 53.2062 21.235 53.5936C19.7961 57.7521 18.3335 61.8947 16.8947 66.0532C16.7761 66.3931 16.6101 66.5117 16.2543 66.5117C10.989 66.5038 5.72381 66.5038 0.466463 66.5038C0.347876 66.4959 0.221362 66.4801 0 66.4643Z" fill="#3B3B3B"/>
<path d="M91.3355 50.4549C91.3355 55.6095 91.3277 60.7641 91.3435 65.9187C91.3435 66.4088 91.1933 66.5116 90.7268 66.5116C84.6473 66.4958 78.5677 66.5037 72.4882 66.5037C71.8873 66.5037 71.8873 66.5037 71.8873 65.8791C71.8873 55.5542 71.8873 45.2292 71.8873 34.9042C71.8873 34.2876 71.8873 34.2876 72.5119 34.2876C78.544 34.2876 84.5761 34.2876 90.6082 34.2876C91.3356 34.2876 91.3355 34.2876 91.3355 35.0386C91.3355 40.1774 91.3355 45.3162 91.3355 50.4549Z" fill="#3B3B3B"/>
<path d="M146.455 50.4551C146.455 55.6097 146.447 60.7643 146.463 65.9188C146.463 66.409 146.32 66.5197 145.854 66.5118C139.758 66.496 133.663 66.496 127.576 66.5118C127.109 66.5118 126.999 66.3616 126.999 65.9188C127.006 55.5623 127.006 45.2057 126.999 34.857C126.999 34.3906 127.149 34.2799 127.591 34.2799C133.687 34.2878 139.782 34.2957 145.87 34.272C146.368 34.272 146.455 34.4459 146.455 34.8965C146.447 40.0827 146.455 45.2689 146.455 50.4551Z" fill="#3B3B3B"/>
<path d="M146.455 16.1121C146.455 21.2667 146.455 26.4213 146.455 31.568C146.455 32.2083 146.455 32.2162 145.822 32.2162C139.759 32.2162 133.703 32.2162 127.639 32.2162C127.014 32.2162 127.014 32.2083 127.014 31.5917C127.014 21.2983 127.014 11.0129 127.014 0.719577C127.014 0.00805636 127.014 0.00805664 127.726 0.00805664C133.742 0.00805664 139.751 0.00805664 145.767 0.00805664C146.455 0.00805664 146.455 0.00805655 146.455 0.69586C146.455 5.83462 146.455 10.9734 146.455 16.1121Z" fill="#3B3B3B"/>
<path d="M91.3435 16.136C91.3435 21.3063 91.3356 26.4767 91.3514 31.6392C91.3514 32.0977 91.2091 32.2242 90.7663 32.2242C84.6552 32.2163 78.5519 32.2084 72.4407 32.2242C71.998 32.2242 71.8873 32.0819 71.8873 31.6629C71.8952 21.2984 71.8952 10.926 71.8873 0.561555C71.8873 0.134643 71.998 0.000244141 72.4407 0.000244141C78.5519 0.0160557 84.6552 0.0160557 90.7663 0.000244141C91.2249 0.000244141 91.3435 0.134643 91.3435 0.585273C91.3277 5.77147 91.3356 10.9498 91.3435 16.136C91.3356 16.136 91.3356 16.136 91.3435 16.136Z" fill="#3B3B3B"/>
<path d="M162.037 25.6227C163.413 26.5793 164.828 27.4727 166.14 28.4925C167.46 29.5124 168.599 30.7378 169.642 32.1846C169.39 32.2004 169.247 32.2241 169.097 32.2241C162.456 32.2241 155.815 32.2241 149.166 32.2241C148.494 32.2241 148.495 32.2241 148.495 31.5442C148.495 21.235 148.495 10.9259 148.495 0.616739C148.495 0.0158993 148.502 8.7684e-05 149.095 0.00799347C151.143 0.0554282 153.206 -0.0236299 155.246 0.197732C159.357 0.640456 162.899 2.28486 165.421 5.71597C166.828 7.62917 167.595 9.80327 167.84 12.1513C168.409 17.5826 166.575 22.0177 162.266 25.3935C162.195 25.4488 162.124 25.5121 162.061 25.5832C162.037 25.6069 162.029 25.6465 162.037 25.6227Z" fill="#3B3B3B"/>
<path d="M106.791 25.71C109.883 27.2754 112.428 29.3783 114.547 32.1849C114.27 32.2007 114.112 32.2165 113.946 32.2165C107.321 32.2165 100.696 32.2165 94.071 32.2165C93.3991 32.2165 93.399 32.2086 93.399 31.5445C93.399 21.267 93.399 10.9974 93.399 0.719838C93.399 0.00831745 93.399 -0.00749384 94.1264 0.00831773C96.1107 0.0557525 98.1109 -0.0153996 100.087 0.190151C104.183 0.632875 107.732 2.22984 110.246 5.62933C112.286 8.38055 113.005 11.535 112.8 14.8949C112.539 19.2826 110.57 22.777 107.084 25.4333C107.013 25.4966 106.95 25.5677 106.791 25.71Z" fill="#3B3B3B"/>
<path d="M54.2891 32.1847C54.0203 32.2005 53.8227 32.2164 53.625 32.2164C47.3715 32.2164 41.126 32.2164 34.8725 32.2164C34.2558 32.2164 34.2558 32.2164 34.2558 31.5839C34.2558 21.2589 34.2558 10.9419 34.2479 0.61692C34.2479 0.158384 34.3586 -0.00763765 34.8488 0.000268139C37.3707 0.0239855 39.8927 0.0160797 42.4146 0.000268139C42.8099 0.000268139 43.0075 0.126761 43.134 0.498333C45.1895 6.3328 47.2529 12.1515 49.3164 17.9859C50.937 22.5713 52.5577 27.1646 54.1705 31.7578C54.2101 31.8606 54.2338 31.9792 54.2891 32.1847Z" fill="#3B3B3B"/>
<path d="M12.1512 32.1847C12.1987 31.995 12.2303 31.8606 12.2698 31.7341C14.5862 25.1802 16.9105 18.6342 19.2269 12.0803C20.5867 8.23017 21.9465 4.38005 23.2905 0.522026C23.4249 0.134642 23.6304 0.000244141 24.0415 0.000244141C26.516 0.0160557 28.9906 0.00815011 31.4651 0.00815011C32.1845 0.00815011 32.1845 0.00814997 32.1845 0.727577C32.1845 8.34085 32.1845 15.9541 32.1845 23.5674C32.1845 26.2316 32.1845 28.8959 32.1766 31.5602C32.1766 32.2163 32.1766 32.2163 31.4967 32.2163C25.2907 32.2163 19.0925 32.2242 12.8865 32.2242C12.6651 32.2242 12.4359 32.2005 12.1512 32.1847Z" fill="#3B3B3B"/>
</svg>
