<svg width="177" height="71" viewBox="0 0 177 71" fill="none" xmlns="http://www.w3.org/2000/svg">
<path d="M88.1904 56.3887C84.1396 56.3887 80.4717 56.4827 76.8173 56.3013C76.1724 56.2678 75.2856 55.166 75.0304 54.3868C73.3442 49.1335 71.8059 43.84 70.207 38.5598C70.0324 37.9754 69.8107 37.3977 69.2598 36.867C69.2598 43.2488 69.2598 49.6306 69.2598 56.214C65.3367 56.214 61.6084 56.214 57.6516 56.214C57.6516 42.3486 57.6516 28.4161 57.6516 14.3223C61.4203 14.3223 65.1486 14.3223 69.1658 14.3223C69.1658 20.0995 69.1658 25.8163 69.1658 31.5398C69.3405 31.5667 69.5218 31.5936 69.6965 31.6204C71.3155 26.6762 73.062 21.7722 74.4996 16.7743C75.1109 14.6716 76.1321 14.0536 78.2078 14.1611C81.3249 14.3223 84.4553 14.2014 87.9553 14.2014C87.6395 15.209 87.4581 15.9614 87.1626 16.6735C85.2279 21.349 83.3805 26.0649 81.2644 30.6464C80.2567 32.8296 80.1761 34.7106 81.0629 36.9409C83.1991 42.3218 85.1069 47.7967 87.1021 53.2313C87.4514 54.1651 87.7537 55.0989 88.1904 56.3887Z" fill="#3B3B3B"/>
<path d="M0.523926 55.9046C0.523926 42.1803 0.523926 28.4023 0.523926 14.1137C6.96622 14.5436 13.469 13.1799 19.8307 15.2019C23.3239 16.3104 25.5407 18.9571 26.6021 22.3496C29.2691 30.9147 29.296 39.5738 26.582 48.1255C25.1578 52.6196 21.8393 55.515 17.0966 55.8307C11.7157 56.18 6.28773 55.9046 0.523926 55.9046ZM11.9777 23.0146C11.9777 31.1767 11.9777 39.1506 11.9777 47.1111C14.8394 47.494 16.2569 46.7551 16.3711 43.9941C16.6196 38.1295 16.5726 32.2448 16.3711 26.3802C16.2972 24.1701 14.9402 22.6317 11.9777 23.0146Z" fill="#3B3B3B"/>
<path d="M0 9.75414C0 6.45574 0 3.34543 0 0C29.2557 0 58.4979 0 87.9014 0C87.9014 3.21779 87.9014 6.38856 87.9014 9.75414C58.6591 9.75414 29.4908 9.75414 0 9.75414Z" fill="#3B3B3B"/>
<path d="M0 70.0658C0 66.7741 0 63.6638 0 60.3184C29.2557 60.3184 58.4912 60.3184 87.9014 60.3184C87.9014 63.5294 87.9014 66.7002 87.9014 70.0658C58.6659 70.0658 29.4908 70.0658 0 70.0658Z" fill="#3B3B3B"/>
<path d="M31.5061 14.3757C39.1643 14.3757 46.7755 14.3757 54.6688 14.3757C54.3262 17.1031 54.1448 19.6559 53.6007 22.1347C53.4731 22.7057 52.1632 23.3439 51.3637 23.3842C48.6229 23.5387 45.8686 23.4447 42.9262 23.4447C42.9262 25.8295 42.9262 27.8851 42.9262 30.3236C45.4521 30.3236 47.9175 30.4042 50.3695 30.2967C52.1967 30.2161 53.07 30.7132 53.023 32.742C52.8416 40.286 53.9769 38.7611 47.0039 38.9492C46.265 38.9693 45.526 38.9962 44.7938 38.9559C43.2823 38.8618 42.6173 39.4597 42.7113 41.0518C42.8188 42.9731 42.7382 44.9011 42.7382 47.2052C46.6277 47.2052 50.3493 47.2052 54.2255 47.2052C54.2255 50.3962 54.2255 53.2042 54.2255 56.4085C52.0623 56.4085 49.9799 56.4085 47.8906 56.4085C43.0069 56.4085 38.1231 56.3884 33.2393 56.4152C32.01 56.422 31.0695 56.3078 31.0762 54.7022C31.1299 41.5288 31.1501 28.3486 31.1904 15.1751C31.1837 15.0005 31.3113 14.8325 31.5061 14.3757Z" fill="#3B3B3B"/>
<path d="M134.993 56.093C129.834 57.0267 126.186 56.5767 123.956 54.6084C121.275 56.8319 118.178 57.6918 114.779 56.496C113.604 56.0795 112.287 55.4749 111.541 54.5479C108.498 50.7658 108.397 46.3926 109.835 42.0059C111.125 38.0828 114.269 36.3093 118.192 35.7719C119.992 35.53 121.813 35.389 123.6 35.2076C123.888 33.0915 122.82 32.4399 121.195 32.6078C118.373 32.9034 115.572 33.3468 112.321 33.7901C112.321 31.3852 112.24 29.0407 112.388 26.7164C112.421 26.2125 113.241 25.393 113.758 25.346C118.662 24.8891 123.593 24.2039 128.497 24.3249C131.862 24.4055 134.724 26.8104 134.872 30.223C135.235 38.8284 134.993 47.4674 134.993 56.093ZM123.62 41.4685C120.792 41.7036 119.858 43.242 120.268 46.6546C120.489 48.4952 120.912 50.2418 123.62 49.3014C123.62 46.7352 123.62 44.1824 123.62 41.4685Z" fill="#3B3B3B"/>
<path d="M155.952 20.0726C149.953 20.61 149.953 20.61 150.242 24.1973C152.002 24.2981 153.802 24.4056 155.583 24.513C155.777 30.4717 154.978 31.6271 150.04 32.2586C150.04 40.172 150.04 48.1325 150.04 56.2408C146.063 56.2408 142.429 56.2408 138.52 56.2408C138.452 55.2533 138.345 54.3666 138.345 53.4731C138.331 43.2421 138.305 33.0177 138.352 22.7866C138.392 13.9796 146.796 8.7331 154.904 12.448C155.368 12.6562 155.878 13.3415 155.905 13.8251C156.012 15.9143 155.952 18.017 155.952 20.0726Z" fill="#3B3B3B"/>
<path d="M158.659 12.5554C162.562 12.5554 166.196 12.5554 170.187 12.5554C170.187 15.444 170.334 18.205 170.146 20.9324C169.965 23.512 170.711 24.7817 173.478 24.392C174.184 24.2913 174.929 24.4794 176.078 24.5667C175.688 26.5484 175.225 28.3757 174.99 30.2298C174.6 33.2998 171.9 31.2576 170.328 32.5742C170.328 37.149 170.254 41.9992 170.422 46.836C170.442 47.4271 171.651 48.2467 172.444 48.4751C173.458 48.7572 174.607 48.5423 175.897 48.5423C175.897 51.0547 175.897 53.4865 175.897 56.0594C172.175 57.141 168.474 57.2686 164.765 56.2542C161.205 55.2734 158.76 52.4587 158.713 48.5557C158.572 36.672 158.659 24.7884 158.659 12.5554Z" fill="#3B3B3B"/>
<path d="M101.592 56.2476C97.7026 56.2476 94.0684 56.2476 90.2527 56.2476C90.2527 45.6873 90.2527 35.2345 90.2527 24.4257C93.8467 25.0706 97.8975 22.5179 100.914 26.7567C102.674 24.3249 105.038 23.1896 108.001 24.1033C108.659 24.3048 109.512 25.2117 109.553 25.8431C109.727 28.4832 109.627 31.1434 109.627 33.6962C109.217 33.8708 109.049 34.0052 108.908 33.9917C101.989 33.105 101.76 33.2998 101.76 40.172C101.76 44.4983 101.767 48.8245 101.753 53.1574C101.747 54.1382 101.653 55.119 101.592 56.2476Z" fill="#3B3B3B"/>
</svg>
