<svg width="186" height="30" viewBox="0 0 186 30" fill="none" xmlns="http://www.w3.org/2000/svg">
<path d="M60.6355 29.4377C60.6355 19.7212 60.6355 10.0662 60.6355 0.367283C60.8555 0.358482 61.0403 0.340877 61.234 0.340877C65.7226 0.323275 70.2112 0.296871 74.6998 0.279269C76.4249 0.270467 78.1499 0.252864 79.8749 0.244063C82.4977 0.226461 85.1029 0.34968 87.6992 0.692927C89.5299 0.93056 91.3342 1.29141 93.1032 1.81068C96.1308 2.6908 98.6215 4.40704 100.76 6.66895C101.764 7.7251 102.573 8.91326 103.163 10.2422C104.686 13.7099 104.466 17.1072 102.679 20.4077C101.262 23.0304 99.132 24.9667 96.5445 26.4101C94.2561 27.6951 91.8006 28.4432 89.2042 28.76C87.2591 28.9976 85.2965 29.1297 83.3338 29.2001C77.4458 29.4201 71.5578 29.3321 65.6786 29.3849C64.1736 29.4025 62.6774 29.4113 61.1724 29.4289C61.0139 29.4377 60.8379 29.4377 60.6355 29.4377ZM71.5226 25.8292C71.6634 25.838 71.7866 25.8644 71.901 25.8644C75.4039 25.8116 78.9156 25.8468 82.4185 25.574C83.7563 25.4684 85.0765 25.2571 86.3614 24.8699C87.4616 24.5354 88.5002 24.069 89.4155 23.3561C90.7445 22.3263 91.5718 20.9621 92.0559 19.3691C92.5223 17.8465 92.6367 16.2799 92.6367 14.6957C92.6279 13.3843 92.5399 12.0817 92.2406 10.8055C91.7214 8.60522 90.4628 7.0122 88.3857 6.09687C87.8576 5.85924 87.312 5.65681 86.7663 5.48079C84.1259 4.63587 81.4063 4.28382 78.6428 4.24862C76.416 4.22222 74.1806 4.30143 71.9539 4.33663C71.8218 4.33663 71.6986 4.36303 71.5402 4.37184C71.5226 11.5272 71.5226 18.665 71.5226 25.8292Z" fill="#3B3B3B"/>
<path d="M128.845 13.2344C134.839 18.6383 140.762 23.9806 146.738 29.3758C146.562 29.4022 146.465 29.4374 146.377 29.4374C142.434 29.4374 138.5 29.4374 134.557 29.4462C134.275 29.4462 134.09 29.323 133.888 29.147C129.531 25.3184 125.175 21.4987 120.809 17.6702C120.651 17.5294 120.484 17.3973 120.264 17.2829C120.211 21.3227 120.211 25.3448 120.211 29.3582C119.85 29.455 110.442 29.4726 109.94 29.3934C109.852 29.0765 109.817 1.08868 109.905 0.42859C110.222 0.322976 119.56 0.305371 120.105 0.419787C120.105 4.91721 120.105 9.42343 120.105 14.0353C120.352 13.868 120.51 13.7712 120.66 13.6568C124.128 11.0957 127.595 8.52571 131.054 5.96455C133.457 4.18671 135.86 2.40886 138.253 0.631018C138.518 0.437391 138.782 0.340576 139.107 0.340576C141.325 0.349377 143.534 0.349379 145.752 0.349379C145.893 0.349379 146.043 0.36698 146.201 0.419787C143.332 2.59369 140.436 4.71478 137.549 6.83588C134.68 8.94817 131.793 11.0693 128.845 13.2344Z" fill="#3B3B3B"/>
<path d="M52.5912 20.3108C52.6 20.4076 52.6176 20.5132 52.6176 20.61C52.6176 21.3493 52.6088 22.0974 52.6264 22.8367C52.6264 23.1008 52.556 23.3296 52.4063 23.5408C51.9663 24.1745 51.4294 24.7026 50.8397 25.1779C49.6956 26.1108 48.4194 26.8501 47.0816 27.4662C45.0837 28.3903 43.0155 29.0504 40.824 29.3232C40.2607 29.3936 39.6974 29.4288 39.1341 29.4288C27.1821 29.4376 15.2212 29.4376 3.26918 29.4288C2.91713 29.4288 2.54747 29.3936 2.21303 29.3056C0.936849 28.9624 0.056719 27.827 0.00391165 26.4892C-0.00488956 26.3572 0.00391165 26.2252 0.00391165 26.0844C0.00391165 18.5945 0.00392025 11.0959 0.0127215 3.60608C0.0127215 3.25403 0.0479392 2.89318 0.135951 2.54993C0.479199 1.25615 1.59695 0.411235 2.99635 0.340826C3.11076 0.332024 3.23396 0.340826 3.35717 0.340826C15.2212 0.340826 27.0853 0.340826 38.9493 0.340826C39.1429 0.340826 39.3365 0.340826 39.5302 0.358429C41.0352 0.525652 42.1002 1.50259 42.2762 3.0076C42.3642 3.7381 42.2937 4.4862 42.2937 5.25191C41.1056 5.25191 39.9438 5.25191 38.7293 5.25191C38.7293 4.37178 38.7293 3.51806 38.7293 2.68195C38.3508 2.57633 10.6182 2.54113 9.84367 2.62914C9.83486 2.63795 9.81728 2.64675 9.80848 2.65555C9.79968 2.66435 9.78205 2.68195 9.78205 2.69075C9.77325 2.84037 9.75568 2.98999 9.75568 3.13081C9.75568 11.0871 9.76448 19.0434 9.76448 26.9909C9.76448 27.0349 9.79084 27.0701 9.82605 27.1581C15.4236 27.1845 21.0388 27.2021 26.6892 27.2285C26.6188 27.0085 26.4604 26.9821 26.3371 26.9205C25.2194 26.322 24.1721 25.6091 23.292 24.6938C22.7551 24.1305 22.2974 23.5144 21.9805 22.7927C21.9101 22.6343 21.8573 22.4583 21.8485 22.2823C21.8397 21.4373 21.8397 20.5836 21.8485 19.7387C21.8485 19.7035 21.8661 19.6595 21.8837 19.6067C21.9277 19.6507 21.9629 19.6771 21.9805 19.7123C22.623 21.0149 23.6264 21.9918 24.7969 22.8191C26.4428 23.9809 28.2822 24.7378 30.2185 25.2659C33.2549 26.102 36.3529 26.3484 39.495 26.1196C41.8625 25.9524 44.1772 25.5035 46.4039 24.6762C47.9705 24.0953 49.4492 23.3296 50.743 22.2559C51.4382 21.6838 52.0279 21.0237 52.5208 20.2756C52.5384 20.2932 52.5648 20.302 52.5912 20.3108Z" fill="#3B3B3B"/>
<path d="M186 2.41781C185.956 2.58503 185.93 2.69945 185.894 2.81386C185.41 4.20446 184.935 5.59505 184.451 6.98564C184.31 7.38169 184.31 7.35529 183.888 7.3993C183.298 7.45211 182.823 7.27608 182.33 6.93283C179.989 5.29581 177.357 4.35408 174.532 3.94922C171.654 3.54437 168.811 3.72919 166.021 4.59171C163.425 5.40142 161.11 6.704 159.253 8.72828C157.898 10.2069 156.982 11.9231 156.692 13.9298C156.384 16.0421 156.806 18.0136 157.88 19.8442C159.077 21.8861 160.811 23.3823 162.862 24.5177C164.947 25.6618 167.183 26.3571 169.542 26.5683C174.594 27.026 179.461 26.2427 184.134 24.2536C184.557 24.0776 184.97 24.1392 185.445 24.148C185.401 24.3152 185.375 24.4385 185.331 24.5617C185.005 25.521 184.662 26.4715 184.345 27.4309C184.257 27.6949 184.108 27.8357 183.835 27.9237C181.731 28.5926 179.593 29.0767 177.41 29.3847C174.902 29.7456 172.384 29.8688 169.85 29.8072C166.188 29.7104 162.545 29.4199 158.971 28.5838C156.56 28.0205 154.228 27.2284 152.062 26.0051C150.038 24.8609 148.304 23.3999 147.019 21.446C145.937 19.8002 145.365 17.9784 145.127 16.0333C144.713 12.768 145.875 10.0925 148.093 7.77775C149.519 6.29034 151.191 5.13739 152.987 4.16925C155.821 2.63784 158.848 1.6433 161.981 0.97441C164.402 0.463939 166.84 0.1735 169.313 0.0502829C171.399 -0.0465305 173.476 -0.00252491 175.553 0.173499C178.941 0.46394 182.259 1.11523 185.481 2.22418C185.63 2.26819 185.789 2.3386 186 2.41781Z" fill="#3B3B3B"/>
<path d="M52.5913 15.2589C52.6089 15.4525 52.6177 15.5669 52.6177 15.6813C52.6177 16.3502 52.6089 17.0191 52.6265 17.688C52.6353 18.0313 52.5385 18.3217 52.3448 18.6033C51.6055 19.6947 50.6375 20.5396 49.5373 21.2437C47.6714 22.4407 45.6296 23.1712 43.4821 23.664C40.8681 24.2625 38.2189 24.4297 35.5522 24.2713C32.7446 24.1041 30.0162 23.5408 27.4286 22.4143C26.0204 21.7982 24.7002 21.0237 23.5825 19.9499C22.9224 19.3162 22.3591 18.6121 21.9806 17.7672C21.9102 17.6176 21.8487 17.4592 21.8487 17.3008C21.8399 16.4294 21.8398 15.5493 21.8398 14.6692C21.8838 14.6956 21.919 14.6956 21.9278 14.7132C22.7111 16.3062 23.9785 17.424 25.4659 18.3305C27.3494 19.4835 29.4089 20.1964 31.5564 20.6628C34.2055 21.2349 36.8811 21.4021 39.5831 21.1909C42.5843 20.9533 45.4887 20.3108 48.1995 18.9642C49.2292 18.4537 50.2062 17.8552 51.0423 17.0543C51.5263 16.5967 51.9312 16.0598 52.3713 15.5581C52.4241 15.4789 52.4769 15.3997 52.5913 15.2589Z" fill="#3B3B3B"/>
<path d="M24.5683 14.5459C24.3834 14.1675 24.1986 13.8594 24.0842 13.5338C24.0402 13.4018 24.093 13.2082 24.1634 13.0761C24.5067 12.3544 24.9731 11.7296 25.5276 11.1663C26.883 9.77568 28.5377 8.85155 30.3331 8.18266C32.8326 7.25853 35.4202 6.91528 38.0782 6.98569C40.6569 7.06491 43.1477 7.55777 45.5152 8.62272C46.9234 9.25641 48.2083 10.0749 49.2821 11.1927C49.8542 11.7824 50.3207 12.4513 50.6815 13.1906C50.8311 13.4986 50.8663 13.7714 50.6375 14.0531C50.5055 14.2291 50.391 14.4139 50.2678 14.6076C50.2062 14.5547 50.1622 14.5371 50.1358 14.5019C48.9389 12.8297 47.3018 11.7296 45.4624 10.8934C43.5349 10.0221 41.5018 9.54685 39.3983 9.36202C36.8284 9.13319 34.2936 9.31802 31.8029 9.99571C30.1307 10.4534 28.5464 11.1223 27.1118 12.108C26.2229 12.7153 25.4308 13.4282 24.7795 14.2907C24.7355 14.3523 24.6915 14.4051 24.5683 14.5459Z" fill="#3B3B3B"/>
<path d="M26.3637 16.3942C25.9764 16.0509 25.5892 15.6989 25.1667 15.3204C25.3164 15.1532 25.4132 15.03 25.5276 14.9156C26.6717 13.7362 28.0535 12.8913 29.5497 12.2488C32.0845 11.1663 34.7512 10.7174 37.4972 10.7262C40.1904 10.735 42.7868 11.2015 45.2687 12.2664C46.7561 12.9089 48.1115 13.745 49.2469 14.9156C49.3701 15.0388 49.4845 15.1796 49.6429 15.3556C49.2117 15.7165 48.8156 16.0509 48.4107 16.3854C48.2963 16.315 48.2347 16.2886 48.1731 16.2446C46.3336 14.854 44.2566 14.0091 42.0299 13.525C38.2013 12.6977 34.4168 12.8473 30.6939 14.0971C29.2329 14.5899 27.8687 15.2676 26.6365 16.2094C26.5661 16.271 26.4957 16.315 26.3637 16.3942Z" fill="#3B3B3B"/>
<path d="M27.6223 17.1599C33.0967 13.613 42.3027 13.9034 47.0906 17.1511C46.3337 17.5735 45.5504 17.8728 44.7407 18.1104C44.6175 18.1456 44.4503 18.1016 44.3094 18.0576C43.0157 17.6 41.6867 17.2831 40.3313 17.0983C38.5886 16.8695 36.8372 16.8254 35.0857 17.0191C33.4839 17.1951 31.9173 17.5295 30.4035 18.0752C30.2715 18.1192 30.1042 18.1632 29.9722 18.1192C29.1801 17.8992 28.4056 17.5912 27.6223 17.1599Z" fill="#3B3B3B"/>
</svg>
