<svg width="184" height="57" viewBox="0 0 184 57" fill="none" xmlns="http://www.w3.org/2000/svg">
<g clip-path="url(#clip0_17_224)">
<path d="M0.0287694 28.4951C0.0287694 19.5394 0.0528223 10.5788 -9.41453e-05 1.62302C-0.00971531 0.310997 0.44248 0 1.65475 0C19.1556 0.0340153 36.6566 0.0194373 54.1575 0.0242967C56.1635 0.0242967 56.1731 0.0388746 56.1731 1.98747C56.1731 19.6123 56.1731 37.2419 56.1731 54.8668C56.1731 57 56.1635 57 54.0709 57C36.6662 57 19.2615 57 1.85679 57C-0.0241471 57 0.0143376 56.9903 0.0143376 55.0806C0.0287694 46.2171 0.0191482 37.3586 0.0191482 28.4951C0.0239588 28.4951 0.0239588 28.4951 0.0287694 28.4951ZM7.70646 48.3747C7.83635 48.5302 7.96142 48.6808 8.09131 48.8363C8.49058 48.6322 8.9524 48.501 9.27952 48.2143C10.4341 47.2133 11.5405 46.1637 12.6662 45.1238C17.9626 40.2256 23.1917 35.2448 28.5748 30.4486C34.1502 25.4824 40.0817 20.968 46.6626 17.4013C47.8604 16.7501 48.5387 16.0115 48.3944 14.4905C48.2308 12.7752 48.327 11.0258 48.3607 9.29591C48.3751 8.43581 48.0384 8.07135 47.1821 8.08593C45.0847 8.11509 42.9825 8.0422 40.8947 8.14911C40.4184 8.1734 39.8267 8.66419 39.5381 9.10639C37.1184 12.7849 34.9344 16.6335 32.3415 20.176C25.5345 29.467 17.6163 37.791 9.68361 46.0859C8.98607 46.81 8.3607 47.6118 7.70646 48.3747ZM34.6313 8.12967C31.8075 8.12967 29.3397 8.08593 26.8814 8.18312C26.5639 8.1977 26.0829 8.90716 26.0107 9.34936C25.7269 11.0501 25.6115 12.7801 25.3805 14.4905C24.4569 21.2499 22.1959 27.533 18.843 33.4419C18.6024 33.8598 18.5688 34.3992 18.4341 34.8803C18.6169 34.9581 18.7997 35.0358 18.9825 35.1136C25.4864 27.0373 30.8069 18.2468 34.6313 8.12967ZM48.3511 26.2015C48.3511 25.1422 48.3366 24.0829 48.3559 23.0235C48.3751 21.9496 47.8893 21.8038 46.9993 22.1683C38.0372 25.8614 29.8015 30.8082 22.2296 36.8872C21.9265 37.1302 21.8255 37.6258 21.6283 38.0049C22.0516 37.932 22.5134 37.9368 22.8983 37.7668C26.2416 36.2701 29.508 34.5644 32.9283 33.267C37.4455 31.5517 42.2272 30.8908 47.0282 30.5166C47.9999 30.4389 48.3992 30.0598 48.3559 29.0928C48.3174 28.1307 48.3511 27.1637 48.3511 26.2015ZM21.941 15.0785C21.8255 13.1153 21.6956 11.157 21.6042 9.19386C21.5609 8.3046 21.0799 8.07135 20.2909 8.08593C18.8622 8.11509 17.4335 8.09079 16.0047 8.09565C13.9698 8.10537 13.9121 8.21228 14.855 10.0977C17.775 15.924 18.8863 22.1537 18.9247 28.6312C18.9296 29.2192 19.1316 29.8023 19.2422 30.3903C19.5597 29.846 20.0216 29.3407 20.1803 28.7527C21.3926 24.2821 22.0324 19.7289 21.941 15.0785ZM48.3559 42.5775C48.3559 40.8427 48.3559 39.4675 48.3559 38.0875C48.3559 34.9726 48.3559 34.9678 45.2867 34.7054C39.2014 34.1854 33.2074 34.6908 27.3192 36.3624C26.8766 36.4887 26.4774 36.7803 26.0588 36.999C26.0636 37.2225 26.0685 37.446 26.0733 37.6647C33.8712 37.1885 41.1881 38.8455 48.3559 42.5775Z" fill="#3B3B3B"/>
<path d="M108.796 14.6801C112.799 14.6801 116.647 14.6801 120.803 14.6801C120.803 18.31 120.803 21.8816 120.803 25.3755C125.499 26.3522 128.76 24.734 131.223 21.0507C132.522 19.1118 133.994 17.2798 135.495 15.4867C135.88 15.0251 136.654 14.6703 137.26 14.6558C140.83 14.578 144.399 14.6169 148.32 14.6169C147.007 16.3663 145.871 17.9067 144.702 19.4228C142.518 22.2606 140.301 25.0693 138.16 27.9363C137.968 28.1939 138.069 28.9179 138.3 29.2192C141.436 33.3642 144.621 37.4752 147.786 41.5959C147.901 41.7466 147.993 41.9069 148.219 42.2519C147.695 42.2957 147.305 42.3588 146.915 42.3588C143.865 42.3637 140.811 42.2762 137.766 42.3977C136.5 42.4512 135.745 41.975 135.033 41.042C132.955 38.3062 130.795 35.6335 128.741 32.8831C126.797 30.2785 124.2 29.6371 121.03 30.0696C121.03 34.0834 121.03 38.1021 121.03 42.3588C120.192 42.3588 119.5 42.3588 118.807 42.3588C117.282 42.3588 115.757 42.3588 114.232 42.3588C111.25 42.3588 110.36 41.7417 109.648 38.7629C109.195 36.8629 108.777 34.8998 108.738 32.9609C108.623 27.1394 108.695 21.3131 108.7 15.4916C108.7 15.2583 108.753 15.0251 108.796 14.6801Z" fill="#3B3B3B"/>
<path d="M83.7716 18.9515C83.7716 21.2645 83.7716 23.3249 83.7716 25.5456C90.136 25.5456 96.4523 25.5456 102.898 25.5456C102.898 27.0568 102.898 28.4174 102.898 29.9238C96.563 29.9238 90.2515 29.9238 83.8245 29.9238C83.8245 32.6402 83.8245 35.2108 83.8245 37.9466C90.7566 37.9466 97.6886 37.9466 104.746 37.9466C104.746 39.4627 104.746 40.8233 104.746 42.3637C104.159 42.3637 103.606 42.3637 103.048 42.3637C93.9412 42.3637 84.8396 42.3443 75.7331 42.388C74.6123 42.3929 73.9965 41.9993 73.4914 41.0371C72.2599 38.6852 71.7211 36.1778 71.7067 33.5538C71.673 27.776 71.697 21.9983 71.697 16.2205C71.697 15.7492 71.697 15.2778 71.697 14.7141C82.7662 14.7141 93.7055 14.7141 104.755 14.7141C104.755 16.0796 104.755 17.4353 104.755 18.9515C97.7656 18.9515 90.8335 18.9515 83.7716 18.9515Z" fill="#3B3B3B"/>
<path d="M163.04 18.9514C163.04 21.2693 163.04 23.3297 163.04 25.565C169.405 25.565 175.716 25.565 182.143 25.565C182.143 27.0617 182.143 28.3785 182.143 29.9238C175.822 29.9238 169.477 29.9238 162.983 29.9238C162.983 34.1611 162.983 38.1798 162.983 42.354C159.942 42.354 157.046 42.3831 154.155 42.3151C153.799 42.3054 153.376 41.8438 153.111 41.489C151.529 39.3558 151.052 36.8046 150.999 34.2778C150.86 27.9266 150.956 21.5706 150.966 15.2146C150.966 15.0785 151.024 14.9425 151.072 14.7092C162.006 14.7092 172.945 14.7092 183.995 14.7092C183.995 16.065 183.995 17.4256 183.995 18.9466C177.025 18.9514 170.088 18.9514 163.04 18.9514Z" fill="#3B3B3B"/>
</g>
<defs>
<clipPath id="clip0_17_224">
<rect width="184" height="57" fill="white"/>
</clipPath>
</defs>
</svg>
