<svg width="140" height="90" viewBox="0 0 140 90" fill="none" xmlns="http://www.w3.org/2000/svg">
<path d="M0.0355156 54.4803C0.0355156 44.4703 0.0355156 34.4703 0.0355156 24.4603C0.0355156 21.9403 0.825511 19.7803 2.65551 17.9603C7.81551 12.8403 12.9155 7.65025 18.0555 2.51025C19.7255 0.840254 21.8255 0.0502536 24.1655 0.0402536C30.8055 0.0102536 37.4355 0.0402536 44.0755 0.0402536C44.7455 0.0402536 45.4055 0.0302536 46.0755 0.0202536C46.8155 0.0102536 47.4855 0.320254 47.6155 1.03025C47.7155 1.58025 47.4055 2.20025 47.2655 2.78025C47.2455 2.86025 47.1455 2.92025 47.0755 2.99025C42.0555 7.98025 37.0355 12.9803 32.0155 17.9703C30.4555 19.5203 28.6155 20.3103 26.3755 20.2103C25.1455 20.1603 23.8955 20.1803 22.6855 20.4003C21.1155 20.6803 20.0955 21.9903 20.0755 23.5803C20.0355 26.6003 20.0255 29.6203 20.0755 32.6303C20.1155 35.0403 21.6555 36.4103 24.2555 36.4203C28.2255 36.4403 32.1955 36.4003 36.1655 36.4603C36.6955 36.4703 37.3955 36.8603 37.6955 37.3003C37.9355 37.6503 37.7755 38.3603 37.6255 38.8703C37.5255 39.2003 37.1455 39.4403 36.8755 39.7103C32.2655 44.3003 27.6955 48.9203 23.0255 53.4403C20.9455 55.4503 19.8755 57.7303 20.0555 60.6303C20.1455 61.9603 20.0655 63.3003 20.0655 64.6303C20.0655 67.5303 21.7555 69.2103 24.6855 69.2103C32.0855 69.2103 39.4855 69.2103 46.8855 69.2103C47.1355 69.2103 47.4355 69.1303 47.6455 69.2303C48.1855 69.4803 48.8855 69.6903 49.1755 70.1403C49.5755 70.7503 49.3255 71.4802 48.7655 72.0303C43.8555 76.9003 38.9755 81.7903 34.0355 86.6303C32.2955 88.3403 30.1655 89.2203 27.6955 89.2203C19.8255 89.2103 11.9455 89.2402 4.07551 89.2103C1.65551 89.2002 0.0555113 87.4703 0.0155113 84.8703C-0.0244887 82.3403 0.0255058 79.8103 0.0255058 77.2703C0.0255058 69.6703 0.0255058 62.0703 0.0255058 54.4703C0.0255058 54.4803 0.0255156 54.4803 0.0355156 54.4803Z" fill="#3B3B3B"/>
<path d="M69.1455 55.4903C69.1455 45.3603 69.0755 35.2403 69.1755 25.1103C69.2155 21.3003 67.4155 20.2503 64.3055 20.2203C61.0955 20.1903 57.8755 20.2403 54.6655 20.2503C51.3255 20.2603 47.9755 20.2603 44.6355 20.2703C43.8355 20.2703 43.0755 20.1403 42.7455 19.2903C42.4355 18.4803 42.8155 17.8503 43.3955 17.2603C48.2355 12.4103 53.0755 7.56032 57.8955 2.68032C59.6355 0.920322 61.6655 0.000321702 64.1755 0.0103217C72.2055 0.0403217 80.2455 0.0303217 88.2755 0.0303217C96.8455 0.0303217 105.426 0.0203217 113.996 0.0103217C116.216 0.0103217 118.446 0.0203217 120.666 0.000321702C121.536 -0.0096783 122.226 0.210322 122.565 1.10032C122.875 1.93032 122.415 2.53032 121.905 3.05032C120.825 4.16032 119.695 5.22032 118.595 6.31032C114.815 10.0703 111.016 13.8203 107.276 17.6203C105.616 19.3003 103.646 20.1103 101.316 20.1203C98.8155 20.1403 96.3155 20.2103 93.8255 20.1203C90.9155 20.0103 89.0155 21.9603 89.0455 24.8603C89.1255 33.5703 89.0755 42.2803 89.0855 50.9903C89.0855 56.2503 89.0755 61.5103 89.1155 66.7703C89.1355 69.7003 88.0755 72.1103 85.9955 74.1603C81.3455 78.7603 76.7455 83.4103 72.1355 88.0503C71.5555 88.6403 70.9755 89.0403 70.1255 88.7003C69.2755 88.3503 69.1455 87.6303 69.1455 86.8203C69.1455 76.3803 69.1455 65.9403 69.1455 55.4903Z" fill="#3B3B3B"/>
<path d="M139.805 36.4302C139.805 46.5302 139.785 56.6402 139.815 66.7402C139.825 69.8002 138.815 72.3402 136.615 74.4802C131.945 79.0102 127.335 83.6002 122.716 88.1802C122.166 88.7302 121.565 89.0002 120.835 88.7702C120.075 88.5302 119.815 87.8802 119.795 87.1202C119.785 86.7402 119.745 86.3602 119.745 85.9802C119.745 65.9102 119.765 45.8402 119.725 25.7702C119.715 22.6002 120.686 20.0102 122.966 17.7702C127.635 13.1902 132.195 8.51023 136.785 3.86023C137.355 3.28023 137.965 2.84023 138.795 3.19023C139.665 3.55023 139.795 4.32023 139.795 5.16023C139.795 15.5802 139.795 26.0002 139.805 36.4302C139.795 36.4302 139.805 36.4302 139.805 36.4302Z" fill="#3B3B3B"/>
</svg>
