<svg width="185" height="34" viewBox="0 0 185 34" fill="none" xmlns="http://www.w3.org/2000/svg">
<path d="M3.29749 24.8023C3.3606 24.4394 17.1107 0.583694 17.5841 0.0078125C22.3331 8.26737 27.0743 16.5033 31.847 24.8023C22.2779 24.8023 12.7877 24.8023 3.29749 24.8023Z" fill="#3B3B3B"/>
<path d="M126.694 24.8575C126.497 24.8575 126.339 24.8575 126.181 24.8575C124.043 24.8575 121.905 24.8496 119.768 24.8654C119.42 24.8654 119.239 24.7628 119.081 24.4473C116.651 19.6745 114.206 14.9097 111.768 10.137C111.674 9.94766 111.571 9.76622 111.421 9.59266C111.327 10.8549 111.413 12.1092 111.413 13.3635C111.413 14.6336 111.429 15.9037 111.445 17.1659C111.461 18.436 111.492 19.7061 111.5 20.9683C111.508 22.2384 111.5 23.5006 111.5 24.7628C111.192 24.8654 106.641 24.889 106.112 24.7944C106.112 17.3552 106.112 9.90822 106.112 2.44542C108.636 2.44542 111.129 2.44542 113.685 2.44542C116.194 7.47847 118.726 12.5431 121.266 17.655C121.401 17.2921 121.377 12.2117 121.33 10.066C121.282 7.54158 121.322 5.02505 121.322 2.49275C121.606 2.41386 126.15 2.39021 126.686 2.47698C126.694 9.91611 126.694 17.3552 126.694 24.8575Z" fill="#3B3B3B"/>
<path d="M131.183 24.8574C131.183 17.3552 131.183 9.91603 131.183 2.46112C131.277 2.45324 131.34 2.43746 131.411 2.43746C134.362 2.43746 137.312 2.4138 140.263 2.45324C142.258 2.4848 144.239 2.71356 146.148 3.36833C147.899 3.96788 149.422 4.89087 150.565 6.38185C151.457 7.54939 151.993 8.87471 152.269 10.3105C152.719 12.6377 152.727 14.9648 152.135 17.2605C151.307 20.487 149.248 22.6249 146.156 23.7924C144.759 24.321 143.316 24.6286 141.832 24.7312C140.807 24.8022 139.781 24.8337 138.756 24.8416C136.421 24.8574 134.078 24.8495 131.743 24.8495C131.577 24.8574 131.404 24.8574 131.183 24.8574ZM137.123 20.4476C137.312 20.4555 137.454 20.4712 137.588 20.4712C138.227 20.4712 138.874 20.5028 139.513 20.4633C140.247 20.416 140.996 20.3766 141.714 20.2188C143.923 19.7376 145.446 18.4438 146.085 16.2428C146.574 14.5625 146.574 12.8664 146.1 11.1782C145.556 9.25337 144.325 7.96749 142.44 7.31272C141.643 7.03662 140.815 6.88673 139.971 6.87095C139.127 6.85518 138.29 6.86307 137.446 6.86307C137.336 6.86307 137.233 6.88674 137.123 6.90252C137.123 11.4228 137.123 15.9036 137.123 20.4476Z" fill="#3B3B3B"/>
<path d="M56.1919 24.8416C54.2118 24.8416 52.279 24.8416 50.2832 24.8416C50.2832 24.3131 50.2753 23.7924 50.2753 23.2717C50.2753 22.7432 50.2753 22.2147 50.2753 21.6861C50.2753 21.1418 50.2753 20.6053 50.2753 20.061C50.2753 19.5325 50.2753 19.0039 50.2753 18.4754C50.2753 17.9468 50.2753 17.4183 50.2753 16.8897C50.2753 16.3612 50.2753 15.8405 50.2753 15.3199C49.944 15.2173 43.7197 15.1936 43.1675 15.2962C43.1675 18.4596 43.1675 21.6309 43.1675 24.8258C41.1716 24.8258 39.2231 24.8258 37.2825 24.8258C37.1878 24.4708 37.1878 2.83189 37.2746 2.46112C39.2152 2.46112 41.1638 2.46112 43.1596 2.46112C43.1596 5.31686 43.1596 8.14105 43.1596 10.9574C43.5777 11.0678 49.8808 11.0678 50.2674 10.9574C50.2674 8.14894 50.2674 5.32475 50.2674 2.51634C50.5908 2.42167 55.6002 2.39013 56.1998 2.4769C56.1919 9.91603 56.1919 17.3473 56.1919 24.8416Z" fill="#3B3B3B"/>
<path d="M96.1564 2.45337C98.1601 2.45337 100.101 2.45337 102.065 2.45337C102.081 2.5717 102.105 2.67425 102.105 2.7847C102.105 7.46275 102.112 12.1408 102.105 16.8188C102.105 17.8917 101.915 18.9488 101.552 19.9586C100.685 22.3805 98.9332 23.8793 96.5271 24.6524C94.7679 25.2204 92.9535 25.3387 91.1154 25.2204C89.8296 25.1336 88.5752 24.9049 87.3683 24.4237C84.7018 23.3429 83.1399 21.3628 82.6271 18.5544C82.5009 17.8602 82.4457 17.1423 82.4457 16.4323C82.4299 11.9515 82.4378 7.47852 82.4378 2.99769C82.4378 2.83202 82.4378 2.66636 82.4378 2.46914C84.4257 2.46914 86.3743 2.46914 88.3701 2.46914C88.378 2.65058 88.3938 2.83202 88.3938 3.01347C88.3938 7.09197 88.3938 11.1705 88.3938 15.249C88.3938 16.1483 88.4253 17.0476 88.6699 17.9154C88.7882 18.3256 88.9302 18.7358 89.1274 19.1066C89.6797 20.1637 90.5948 20.7159 91.7702 20.8106C92.2356 20.85 92.709 20.8185 93.1744 20.7475C94.2315 20.5818 94.9888 19.9744 95.4779 19.0277C95.9197 18.1757 96.0696 17.2527 96.1406 16.3061C96.1721 15.8959 96.1642 15.4778 96.1642 15.0675C96.1642 11.0443 96.1642 7.02098 96.1642 3.00558C96.1563 2.83203 96.1564 2.66637 96.1564 2.45337Z" fill="#3B3B3B"/>
<path d="M170.358 24.8261C169.861 23.3983 169.372 21.9941 168.883 20.5978C168.852 20.5031 168.812 20.4084 168.789 20.3137C168.741 20.1402 168.631 20.0534 168.449 20.0613C168.347 20.0692 168.252 20.0613 168.15 20.0613C165.696 20.0613 163.243 20.0613 160.797 20.0613C160.742 20.0613 160.687 20.0613 160.624 20.0613C160.261 20.0692 160.261 20.0692 160.135 20.4084C159.787 21.3393 159.448 22.2781 159.101 23.2168C158.904 23.7533 158.707 24.2818 158.502 24.834C156.498 24.834 154.51 24.834 152.459 24.834C155.299 17.3555 158.123 9.91633 160.947 2.46143C163.377 2.46143 165.799 2.46143 168.276 2.46143C171.139 9.88478 174.003 17.3318 176.898 24.834C174.674 24.8261 172.536 24.8261 170.358 24.8261ZM164.607 7.05269C164.355 7.45502 161.712 15.5016 161.704 15.8487C163.542 15.8487 165.373 15.8487 167.274 15.8487C166.39 12.9062 165.515 10.0031 164.607 7.05269Z" fill="#3B3B3B"/>
<path d="M58.2429 2.45337C60.5701 2.45337 62.8026 2.45337 65.0746 2.45337C66.5261 5.41955 67.9855 8.39362 69.4923 11.4702C70.9675 8.4094 72.4033 5.44322 73.839 2.46125C76.1031 2.46125 78.3514 2.46125 80.6707 2.46125C80.5761 2.62692 80.5051 2.77681 80.4183 2.9188C77.8544 7.28131 75.2906 11.6359 72.7188 15.9905C72.5453 16.2824 72.4664 16.5743 72.4664 16.9135C72.4743 19.3827 72.4743 21.844 72.4743 24.3132C72.4743 24.4789 72.4743 24.6445 72.4743 24.8339C70.4705 24.8339 68.522 24.8339 66.5261 24.8339C66.5261 24.6445 66.5261 24.471 66.5261 24.3053C66.5261 21.8282 66.5182 19.3433 66.534 16.8662C66.534 16.5664 66.463 16.3219 66.3052 16.0615C63.7019 11.6911 61.1144 7.31286 58.519 2.93459C58.4322 2.80048 58.3534 2.65059 58.2429 2.45337Z" fill="#3B3B3B"/>
<path d="M179.139 2.46143C181.079 2.46143 183.028 2.46143 185 2.46143C185 9.91633 185 17.3555 185 24.7867C184.669 24.8735 179.651 24.8972 179.146 24.8183C179.052 24.5027 179.036 2.88742 179.139 2.46143Z" fill="#3B3B3B"/>
<path d="M167.952 28.2813C168.268 29.2595 168.583 30.2298 168.899 31.1922C168.93 31.1922 168.962 31.1922 168.994 31.2001C169.325 30.2219 169.656 29.2516 169.995 28.2655C170.619 28.2655 171.21 28.2655 171.818 28.2655C171.818 29.788 171.818 31.2711 171.818 32.7857C171.439 32.7857 171.092 32.7857 170.69 32.7857C170.69 31.6734 170.69 30.5927 170.69 29.504C170.658 29.4961 170.619 29.4882 170.587 29.4882C170.216 30.5848 169.846 31.6813 169.467 32.7857C169.08 32.7857 168.718 32.7857 168.331 32.7857C167.976 31.6734 167.621 30.5848 167.266 29.4961C167.234 29.4961 167.211 29.504 167.179 29.504C167.179 30.5848 167.179 31.6656 167.179 32.7779C166.785 32.7779 166.438 32.7779 166.091 32.7779C165.988 32.486 165.956 28.936 166.051 28.3207C166.351 28.2182 167.321 28.1945 167.952 28.2813Z" fill="#3B3B3B"/>
<path d="M105.134 28.2812C105.536 28.2812 105.86 28.2812 106.199 28.2812C106.199 29.7801 106.199 31.2553 106.199 32.7779C105.733 32.8568 105.268 32.8331 104.81 32.7936C104.716 32.7857 104.613 32.6122 104.55 32.4939C104.148 31.7208 103.761 30.9477 103.367 30.1746C103.312 30.0641 103.248 29.9616 103.138 29.859C103.051 30.8293 103.122 31.7997 103.091 32.7936C102.728 32.7936 102.404 32.7936 102.089 32.7936C101.994 32.486 101.97 28.8492 102.057 28.297C102.538 28.297 103.035 28.297 103.572 28.297C104.053 29.2516 104.542 30.2377 105.031 31.2159C105.063 31.208 105.094 31.2001 105.134 31.1922C105.134 30.2219 105.134 29.2673 105.134 28.2812Z" fill="#3B3B3B"/>
<path d="M142.045 31.1606C142.045 30.2139 142.045 29.2673 142.045 28.2969C142.416 28.218 142.748 28.2417 143.11 28.2812C143.11 29.78 143.11 31.2553 143.11 32.7778C142.637 32.8488 142.156 32.8014 141.635 32.8093C141.13 31.8232 140.618 30.8292 140.113 29.8353C140.089 29.8431 140.057 29.851 140.034 29.8589C140.034 30.8214 140.034 31.7759 140.034 32.7541C139.671 32.8646 139.34 32.8015 138.977 32.8015C138.977 31.2789 138.977 29.7958 138.977 28.2575C139.45 28.2575 139.9 28.2575 140.349 28.2575C140.531 28.2575 140.562 28.4232 140.625 28.5415C140.973 29.2278 141.312 29.922 141.651 30.6084C141.746 30.7977 141.84 30.987 141.935 31.1764C141.974 31.1764 142.006 31.1685 142.045 31.1606Z" fill="#3B3B3B"/>
<path d="M176.701 32.7778C176.701 31.2789 176.701 29.8037 176.701 28.2733C177.174 28.2181 177.648 28.2338 178.129 28.2733C178.216 28.2812 178.31 28.439 178.358 28.5494C178.705 29.2357 179.044 29.922 179.383 30.6163C179.478 30.8056 179.572 30.9949 179.714 31.1764C179.825 30.7109 179.778 30.2376 179.785 29.7722C179.793 29.291 179.785 28.8097 179.785 28.3049C180.14 28.2102 180.472 28.2496 180.835 28.2812C180.835 29.7801 180.835 31.271 180.835 32.8093C180.377 32.8093 179.943 32.8093 179.509 32.8093C179.304 32.8093 179.273 32.6279 179.202 32.4938C178.807 31.7207 178.413 30.9476 178.018 30.1745C177.963 30.064 177.9 29.9536 177.797 29.851C177.711 30.8214 177.797 31.7838 177.742 32.7857C177.395 32.7778 177.064 32.7778 176.701 32.7778Z" fill="#3B3B3B"/>
<path d="M153.437 32.691C153.752 33.0145 154.06 33.3222 154.36 33.6298C154.352 33.6614 154.336 33.685 154.328 33.7166C153.95 33.7166 153.579 33.7245 153.2 33.7087C153.129 33.7087 153.042 33.6456 152.979 33.5983C152.885 33.5194 152.782 33.4247 152.711 33.33C152.482 33.0224 152.183 32.9041 151.796 32.8725C150.897 32.8015 150.274 32.2572 150.029 31.3815C149.879 30.8214 149.879 30.2534 150.021 29.6933C150.226 28.9044 150.723 28.3838 151.528 28.2418C151.978 28.1629 152.467 28.1629 152.924 28.2418C153.76 28.3917 154.265 28.9439 154.455 29.7722C154.573 30.2771 154.565 30.7899 154.455 31.2947C154.336 31.8312 154.068 32.2729 153.595 32.5648C153.547 32.5964 153.492 32.6437 153.437 32.691ZM153.366 30.5295C153.287 30.214 153.232 29.8984 153.121 29.6144C152.971 29.2358 152.656 29.0385 152.254 29.0385C151.835 29.0385 151.512 29.2436 151.346 29.6302C151.094 30.2376 151.094 30.853 151.362 31.4525C151.528 31.8154 151.82 32.0284 152.23 32.0284C152.64 32.0363 152.956 31.8312 153.106 31.4683C153.232 31.1685 153.279 30.8451 153.366 30.5295Z" fill="#3B3B3B"/>
<path d="M99.0437 28.155C99.2015 28.1708 99.4224 28.1629 99.6275 28.2103C100.472 28.3996 101.008 28.9124 101.197 29.7565C101.316 30.2771 101.316 30.7978 101.189 31.3184C100.992 32.1073 100.511 32.6201 99.7221 32.8173C99.233 32.9356 98.736 32.9356 98.2469 32.8173C97.3397 32.5964 96.8348 31.9732 96.7244 31.0818C96.6692 30.6242 96.6929 30.1351 96.7875 29.6855C96.9769 28.794 97.6632 28.2497 98.5704 28.1708C98.7045 28.1708 98.8465 28.1629 99.0437 28.155ZM97.8525 30.5532C97.9393 30.8767 97.9945 31.2001 98.1207 31.492C98.2706 31.847 98.5862 32.0284 98.9727 32.0284C99.3672 32.0284 99.6669 31.8391 99.8247 31.4841C100.117 30.853 100.117 30.214 99.8326 29.5829C99.6748 29.2279 99.3671 29.0465 98.9806 29.0386C98.5783 29.0307 98.2469 29.2121 98.097 29.5987C97.9866 29.8906 97.9393 30.2219 97.8525 30.5532Z" fill="#3B3B3B"/>
<path d="M136.089 28.155C136.287 28.1708 136.492 28.1629 136.681 28.2024C137.486 28.368 138.038 28.8335 138.259 29.6381C138.417 30.2298 138.417 30.8214 138.259 31.4052C138.054 32.1389 137.588 32.6122 136.847 32.8015C136.342 32.9356 135.829 32.9356 135.324 32.8094C134.567 32.628 134.086 32.1468 133.873 31.3973C133.707 30.8215 133.707 30.2456 133.857 29.6697C134.094 28.7704 134.764 28.226 135.703 28.1629C135.829 28.155 135.955 28.1629 136.089 28.1629C136.089 28.1708 136.089 28.1629 136.089 28.155ZM134.946 30.5296C135.017 30.8293 135.064 31.1291 135.166 31.3973C135.316 31.7918 135.616 32.0126 136.042 32.0205C136.468 32.0284 136.784 31.8075 136.949 31.4289C137.21 30.8293 137.21 30.214 136.949 29.6145C136.791 29.2437 136.484 29.0386 136.081 29.0307C135.663 29.0228 135.332 29.22 135.174 29.6145C135.072 29.9063 135.024 30.2219 134.946 30.5296Z" fill="#3B3B3B"/>
<path d="M117.496 32.8095C117.409 32.5492 117.338 32.3204 117.259 32.0916C117.196 31.9023 117.133 31.7129 117.054 31.5315C116.849 31.0582 116.659 30.9556 116.068 31.0345C116.068 31.6025 116.068 32.1784 116.068 32.7858C115.658 32.7858 115.295 32.7858 114.9 32.7858C114.9 31.2791 114.9 29.8039 114.9 28.3366C114.932 28.3129 114.955 28.2813 114.979 28.2813C115.807 28.2813 116.636 28.234 117.456 28.2892C118.269 28.3444 118.679 28.9992 118.482 29.7802C118.403 30.1036 118.237 30.2772 117.772 30.5217C118.269 31.1844 118.403 31.9891 118.718 32.7622C118.284 32.8647 117.89 32.7937 117.496 32.8095ZM116.076 30.1668C116.407 30.1352 116.683 30.1273 116.951 30.0721C117.204 30.0169 117.306 29.8512 117.314 29.6145C117.314 29.3779 117.212 29.228 116.951 29.157C116.667 29.0781 116.375 29.0544 116.068 29.1412C116.076 29.4646 116.076 29.7723 116.076 30.1668Z" fill="#3B3B3B"/>
<path d="M119.286 28.2733C119.689 28.2733 120.044 28.2733 120.422 28.2733C120.43 28.4153 120.446 28.5415 120.454 28.6599C120.454 29.362 120.446 30.0562 120.462 30.7583C120.47 30.995 120.493 31.2474 120.556 31.4762C120.651 31.8312 120.927 32.0205 121.282 32.0284C121.645 32.0363 121.921 31.8627 122.032 31.5077C122.095 31.2947 122.118 31.0581 122.126 30.8372C122.134 30.1351 122.134 29.4409 122.134 28.7388C122.134 28.5968 122.134 28.4548 122.134 28.2891C122.529 28.2102 122.891 28.2575 123.286 28.2496C123.302 28.4074 123.325 28.5337 123.325 28.652C123.325 29.4645 123.341 30.2771 123.318 31.0896C123.31 31.3657 123.262 31.6655 123.168 31.9258C122.978 32.4307 122.56 32.7068 122.047 32.8173C121.511 32.9356 120.975 32.9356 120.438 32.7778C119.768 32.5727 119.349 32.1073 119.31 31.421C119.247 30.3954 119.286 29.362 119.286 28.2733Z" fill="#3B3B3B"/>
<path d="M159.093 28.2813C159.125 28.3444 159.14 28.3681 159.14 28.3917C159.14 29.4015 159.172 30.4191 159.125 31.4289C159.093 32.1468 158.667 32.6044 157.973 32.8016C157.413 32.9594 156.845 32.9593 156.285 32.7937C155.583 32.5886 155.157 32.0916 155.133 31.3658C155.101 30.356 155.125 29.3463 155.125 28.3129C155.504 28.2024 155.867 28.2734 156.269 28.2576C156.277 28.3996 156.301 28.5179 156.301 28.6442C156.301 29.3463 156.293 30.0405 156.308 30.7426C156.308 30.9793 156.34 31.2317 156.395 31.4605C156.49 31.8312 156.774 32.0364 157.153 32.0285C157.515 32.0285 157.776 31.847 157.886 31.4841C157.949 31.2711 157.965 31.0345 157.973 30.8136C157.981 30.1115 157.973 29.4173 157.981 28.7152C157.981 28.5732 157.997 28.4391 158.005 28.2734C158.375 28.2813 158.722 28.2813 159.093 28.2813Z" fill="#3B3B3B"/>
<path d="M173.845 31.9811C174.531 31.9811 175.194 31.9811 175.88 31.9811C175.88 32.2651 175.88 32.5018 175.88 32.8015C174.816 32.8252 173.758 32.8094 172.709 32.8094C172.599 32.4465 172.583 28.7704 172.678 28.2812C173.703 28.2812 174.729 28.2812 175.794 28.2812C175.794 28.5416 175.794 28.7861 175.794 29.078C175.139 29.078 174.5 29.078 173.837 29.078C173.837 29.4172 173.837 29.7091 173.837 30.0483C174.453 30.0483 175.06 30.0483 175.691 30.0483C175.691 30.3481 175.691 30.5927 175.691 30.8924C175.076 30.8924 174.476 30.8924 173.837 30.8924C173.845 31.2553 173.845 31.5788 173.845 31.9811Z" fill="#3B3B3B"/>
<path d="M147.323 31.9811C148.009 31.9811 148.672 31.9811 149.358 31.9811C149.358 32.2651 149.358 32.5017 149.358 32.7384C149.035 32.8331 146.637 32.8489 146.171 32.7621C146.077 32.4386 146.061 28.7546 146.156 28.2812C147.181 28.2812 148.207 28.2812 149.272 28.2812C149.272 28.5416 149.272 28.7861 149.272 29.078C148.609 29.078 147.978 29.078 147.315 29.078C147.315 29.4172 147.315 29.7091 147.315 30.0483C147.93 30.0483 148.538 30.0483 149.169 30.0483C149.169 30.3481 149.169 30.5927 149.169 30.8924C148.554 30.8924 147.946 30.8924 147.315 30.8924C147.323 31.2632 147.323 31.5788 147.323 31.9811Z" fill="#3B3B3B"/>
<path d="M163.203 31.2157C163.203 31.5076 163.203 31.7679 163.203 32.0204C163.203 32.257 163.203 32.5016 163.203 32.7777C162.801 32.7777 162.438 32.7777 162.083 32.7777C161.98 32.4306 161.973 28.7307 162.075 28.2574C162.596 28.2574 163.132 28.2495 163.669 28.2574C163.905 28.2653 164.15 28.2811 164.387 28.3363C165.215 28.5335 165.562 28.999 165.523 29.8352C165.491 30.5373 165.002 31.0422 164.237 31.1526C163.929 31.1921 163.606 31.192 163.203 31.2157ZM163.227 30.3401C163.629 30.3322 164.016 30.4189 164.26 30.0403C164.402 29.8194 164.402 29.5669 164.245 29.3618C163.984 29.0226 163.613 29.07 163.235 29.1252C163.227 29.5275 163.227 29.9062 163.227 30.3401Z" fill="#3B3B3B"/>
<path d="M110.183 28.3365C110.159 28.6126 110.127 28.8887 110.104 29.1963C109.851 29.1411 109.646 29.078 109.441 29.0622C109.173 29.0464 108.905 29.0622 108.636 29.0938C108.439 29.1175 108.297 29.2358 108.281 29.4567C108.266 29.6618 108.392 29.7722 108.558 29.8432C108.731 29.9142 108.905 29.9615 109.086 30.0247C109.252 30.0799 109.417 30.1193 109.575 30.1824C110.183 30.427 110.443 30.7978 110.443 31.4131C110.443 32.06 110.151 32.5175 109.552 32.7305C108.747 33.0145 107.934 32.9356 107.09 32.7226C107.122 32.3992 107.145 32.1073 107.177 31.7839C107.493 31.8628 107.753 31.9653 108.029 31.989C108.305 32.0205 108.597 31.9969 108.873 31.9574C109.055 31.9338 109.173 31.8075 109.196 31.6103C109.22 31.421 109.141 31.2711 108.976 31.1843C108.818 31.0975 108.636 31.0423 108.463 30.9713C108.187 30.8609 107.895 30.7741 107.627 30.6479C106.838 30.2613 106.838 28.9755 107.516 28.5574C107.792 28.3917 108.108 28.2734 108.423 28.2102C108.802 28.1235 109.733 28.1314 110.183 28.3365Z" fill="#3B3B3B"/>
<path d="M96.1486 31.8232C96.1722 32.1467 96.1959 32.4149 96.2117 32.6831C95.8883 32.8567 95.5569 32.8646 95.2334 32.8882C94.6891 32.9277 94.1527 32.8961 93.632 32.691C92.8589 32.3912 92.1726 31.7128 92.2121 30.4348C92.2515 29.4014 92.7643 28.6441 93.7188 28.3285C94.5314 28.0603 95.3439 28.1155 96.188 28.3916C96.1643 28.6914 96.1407 28.9833 96.1091 29.291C95.8094 29.2121 95.5332 29.1253 95.265 29.0701C94.2553 28.8492 93.1666 29.5986 93.5216 31.0344C93.6636 31.6103 94.2079 31.9968 94.8785 32.0205C95.1704 32.0284 95.4701 31.9574 95.762 31.9179C95.8882 31.9022 95.9908 31.8627 96.1486 31.8232Z" fill="#3B3B3B"/>
<path d="M127.893 31.8233C127.917 32.1468 127.94 32.4229 127.956 32.7306C126.97 32.9672 126.031 33.0303 125.132 32.5807C124.39 32.2099 124.02 31.5867 123.972 30.7662C123.964 30.5927 123.964 30.427 123.98 30.2535C124.059 29.3857 124.477 28.7388 125.29 28.4075C126.157 28.0446 127.041 28.1235 127.94 28.3917C127.917 28.6994 127.893 28.9834 127.861 29.3068C127.704 29.2595 127.577 29.22 127.451 29.1806C127.049 29.0544 126.654 28.9755 126.236 29.1017C125.605 29.2831 125.227 29.8038 125.211 30.5138C125.195 31.2238 125.558 31.7444 126.189 31.9495C126.615 32.0837 127.033 32.0442 127.451 31.9417C127.585 31.9101 127.704 31.8707 127.893 31.8233Z" fill="#3B3B3B"/>
<path d="M181.418 29.1332C181.418 28.8098 181.418 28.5652 181.418 28.3207C181.75 28.226 184.369 28.2102 184.842 28.297C184.842 28.5415 184.842 28.7861 184.842 29.0938C184.503 29.0938 184.156 29.0938 183.754 29.0938C183.698 29.7485 183.73 30.356 183.73 30.9555C183.722 31.5472 183.73 32.1467 183.73 32.7778C183.32 32.7778 182.965 32.7778 182.539 32.7778C182.539 31.5709 182.539 30.3718 182.539 29.1332C182.136 29.1332 181.805 29.1332 181.418 29.1332Z" fill="#3B3B3B"/>
<path d="M114.34 28.2734C114.34 28.5574 114.34 28.802 114.34 29.1018C113.985 29.1018 113.63 29.1018 113.236 29.1018C113.188 30.3482 113.236 31.5552 113.204 32.7858C112.794 32.7858 112.439 32.7858 112.029 32.7858C112.029 31.571 112.029 30.3797 112.029 29.1412C111.642 29.1412 111.295 29.1412 110.916 29.1412C110.916 28.8257 110.916 28.5653 110.916 28.2734C112.06 28.2734 113.188 28.2734 114.34 28.2734Z" fill="#3B3B3B"/>
<path d="M131.68 28.297C131.68 28.4706 131.68 28.6205 131.68 28.7783C131.68 28.8729 131.664 28.9676 131.648 29.1096C131.293 29.1096 130.962 29.1096 130.567 29.1096C130.528 29.7565 130.551 30.3639 130.551 30.9635C130.544 31.5551 130.551 32.1547 130.551 32.7779C130.149 32.7779 129.786 32.7779 129.384 32.7779C129.384 31.5788 129.384 30.3876 129.384 29.1412C128.997 29.1254 128.65 29.1096 128.287 29.0859C128.185 28.8177 128.216 28.5653 128.256 28.3049C128.587 28.2182 131.151 28.2024 131.68 28.297Z" fill="#3B3B3B"/>
<path d="M160.016 28.2734C160.395 28.2734 160.742 28.2734 161.121 28.2734C161.121 29.7881 161.121 31.2712 161.121 32.7858C160.742 32.7858 160.387 32.7858 160.048 32.7858C159.937 32.4703 159.914 28.8099 160.016 28.2734Z" fill="#3B3B3B"/>
<path d="M132.042 28.2812C132.421 28.2812 132.768 28.2812 133.147 28.2812C133.147 29.7959 133.147 31.279 133.147 32.7936C132.768 32.7936 132.413 32.7936 132.074 32.7936C131.956 32.4623 131.932 28.7861 132.042 28.2812Z" fill="#3B3B3B"/>
<path d="M15.533 2.16942C12.0541 8.07023 2.83206 24.1081 2.54806 24.7945H0C0.0631103 24.4316 13.8133 0.575882 14.2866 0C14.7047 0.725769 15.1149 1.45154 15.533 2.16942Z" fill="#3B3B3B"/>
</svg>
