<svg width="176" height="86" viewBox="0 0 176 86" fill="none" xmlns="http://www.w3.org/2000/svg">
<path d="M114.72 54.2C114.72 64.48 114.72 74.65 114.72 84.89C106.97 84.89 99.29 84.89 91.56 84.89C91.56 56.69 91.56 28.53 91.56 0.310023C99.26 0.310023 106.94 0.310023 114.69 0.310023C114.69 10.53 114.69 20.7 114.69 30.94C115.01 30.97 115.25 31 115.5 31C117.42 31 119.33 30.98 121.25 31.02C121.77 31.03 122.07 30.84 122.35 30.42C128.79 20.67 135.25 10.93 141.67 1.17002C142.13 0.470024 142.62 0.220023 143.46 0.230023C152.67 0.300023 161.88 0.330023 171.09 0.370023C172.57 0.380023 174.05 0.370023 175.78 0.370023C165.44 14.64 155.24 28.71 145 42.83C155.22 56.85 165.43 70.85 175.73 84.96C175.3 84.98 175.02 85.01 174.75 85.01C164.34 85.01 153.93 85.01 143.52 85.02C142.91 85.02 142.54 84.85 142.2 84.33C135.73 74.57 129.23 64.82 122.76 55.06C122.34 54.42 121.9 54.14 121.12 54.17C119.29 54.23 117.46 54.19 115.63 54.19C115.35 54.2 115.07 54.2 114.72 54.2Z" fill="#3B3B3B"/>
<path d="M83.51 61.7999C83.51 69.5899 83.51 77.2199 83.51 84.9299C65.79 84.9299 48.11 84.9299 30.36 84.9299C30.36 67.0499 30.36 49.1499 30.36 31.1899C48.09 31.1899 65.83 31.1899 83.64 31.1899C83.64 38.8499 83.64 46.4999 83.64 54.2599C73.63 54.2599 63.61 54.2599 53.54 54.2599C53.54 56.8099 53.54 59.2599 53.54 61.7999C63.49 61.7999 73.46 61.7999 83.51 61.7999Z" fill="#3B3B3B"/>
<path d="M0.0399933 31.1301C7.76999 31.1301 15.42 31.1301 23.15 31.1301C23.15 49.0701 23.15 66.9801 23.15 84.9501C15.44 84.9501 7.76999 84.9501 0.0399933 84.9501C0.0399933 67.0101 0.0399933 49.1201 0.0399933 31.1301Z" fill="#3B3B3B"/>
<path d="M23.08 23.4401C15.4 23.4401 7.73 23.4401 0 23.4401C0 15.7501 0 8.11013 0 0.380127C7.67 0.380127 15.34 0.380127 23.08 0.380127C23.08 8.04013 23.08 15.7101 23.08 23.4401Z" fill="#3B3B3B"/>
<path d="M83.65 0H30.45V23.02H83.65V0Z" fill="#3B3B3B"/>
</svg>
