<svg width="170" height="43" viewBox="0 0 170 43" fill="none" xmlns="http://www.w3.org/2000/svg">
<path d="M170 5.72738C169.967 5.82757 169.933 5.92775 169.908 6.03629C169.457 7.77286 167.804 8.89161 166.026 8.66619C164.298 8.44077 162.995 6.95466 162.987 5.20975C162.979 3.43143 164.264 1.92864 165.993 1.69487C167.779 1.45275 169.432 2.5548 169.891 4.29137C169.925 4.40826 169.958 4.51679 170 4.62532C170 4.98433 170 5.36003 170 5.72738ZM166.485 2.1791C164.832 2.1791 163.496 3.51493 163.488 5.15966C163.48 6.81274 164.849 8.18195 166.493 8.1736C168.155 8.16525 169.491 6.81273 169.482 5.15131C169.482 3.49823 168.138 2.17076 166.485 2.1791Z" fill="#3B3B3B"/>
<path d="M66.6241 33.5791C66.741 33.5791 66.8495 33.5791 66.9581 33.5791C69.3959 33.5791 71.8421 33.5791 74.28 33.5708C74.4971 33.5708 74.6223 33.6292 74.7392 33.8296C75.2819 34.8064 76.1836 35.3074 77.2355 35.5745C78.2875 35.8417 79.3311 35.7916 80.3497 35.3909C81.4517 34.9567 82.0696 34.1552 82.103 32.953C82.128 32.093 82.1113 31.2331 82.1113 30.3398C82.0445 30.3648 82.0027 30.3815 81.961 30.4066C80.4331 31.6255 78.6632 32.0179 76.768 31.8342C71.4414 31.3333 67.5842 27.3175 67.2085 21.9742C67.0415 19.6699 67.292 17.4324 68.4108 15.3786C70.3143 11.872 73.2865 10.0687 77.294 10.1188C79.0473 10.1438 80.6168 10.7533 81.9276 11.9639C81.9694 11.9973 82.0111 12.0307 82.103 12.1058C82.103 11.321 82.103 10.5947 82.103 9.84326C84.3488 9.84326 86.5529 9.84326 88.7904 9.84326C88.7904 10.0019 88.7904 10.1438 88.7904 10.2858C88.7904 18.1671 88.7904 26.0401 88.7904 33.9215C88.7904 36.3593 87.8136 38.3297 85.9434 39.8659C84.4406 41.1015 82.6706 41.7694 80.7671 42.0533C77.319 42.5709 74.0546 42.0533 71.0657 40.1998C68.6863 38.7304 67.1751 36.6265 66.6658 33.8463C66.6324 33.7712 66.6324 33.696 66.6241 33.5791ZM82.2532 21.0308C82.2532 18.6597 80.3246 16.7227 77.9535 16.7144C75.5824 16.706 73.6288 18.668 73.6372 21.0475C73.6455 23.4102 75.5992 25.3555 77.9619 25.3471C80.333 25.3388 82.2532 23.4019 82.2532 21.0308Z" fill="#3B3B3B"/>
<path d="M160.649 32.1765C158.353 32.1765 156.082 32.1765 153.753 32.1765C153.753 31.5754 153.753 30.9826 153.753 30.323C153.645 30.3898 153.603 30.4149 153.561 30.4483C150.973 32.3769 148.201 32.3936 145.379 31.1245C143.041 30.0809 141.514 28.2024 140.654 25.8314C139.251 21.9491 139.485 18.1754 141.764 14.6605C143.501 11.9889 146.072 10.6781 149.245 10.5529C150.839 10.4861 152.317 10.9119 153.753 11.7301C153.753 10.0186 153.753 8.34879 153.753 6.67901C153.753 5.01758 153.753 3.3478 153.753 1.66968C156.074 1.66968 158.353 1.66968 160.658 1.66968C160.649 11.847 160.649 21.9992 160.649 32.1765ZM145.605 21.2228C145.588 23.5605 147.516 25.5141 149.837 25.5391C152.259 25.5558 154.212 23.6439 154.229 21.2478C154.237 18.9101 152.309 16.9565 149.963 16.9314C147.575 16.9064 145.621 18.835 145.605 21.2228Z" fill="#3B3B3B"/>
<path d="M65.8894 25.0801C65.5221 26.416 64.9711 27.6182 64.1779 28.6952C62.3495 31.2082 59.8532 32.544 56.7725 32.8028C54.8773 32.9615 53.0321 32.7277 51.2705 31.9763C48.9161 30.9744 47.1545 29.313 46.0775 27.0087C44.4829 23.6107 44.1239 20.0541 45.3428 16.4891C46.7872 12.2729 49.7928 9.66809 54.2427 9.11706C58.6259 8.58273 62.0657 10.4028 64.4534 14.093C65.9312 16.3639 66.4405 18.927 66.3737 21.607C66.3653 22.0077 66.3319 22.4085 66.3069 22.8426C61.4979 22.8426 56.714 22.8426 51.8967 22.8426C51.8883 22.9595 51.88 23.043 51.8884 23.1181C52.0721 25.2388 53.6333 26.6497 55.7956 26.5913C56.3634 26.5746 56.9394 26.466 57.4988 26.3241C58.125 26.1571 58.6342 25.7814 58.9932 25.2221C59.0433 25.1469 59.1603 25.0801 59.2437 25.0801C61.4395 25.0718 63.6352 25.0801 65.8894 25.0801ZM59.0935 18.1506C59.035 16.4307 57.265 14.8778 55.4199 14.8945C53.5665 14.9195 51.8215 16.4724 51.7965 18.1506C54.2177 18.1506 56.6472 18.1506 59.0935 18.1506Z" fill="#3B3B3B"/>
<path d="M119.932 9.86011C122.211 9.86011 124.474 9.86011 126.77 9.86011C126.77 10.5364 126.77 11.1959 126.77 11.9139C126.92 11.8304 127.02 11.772 127.12 11.7136C128.498 10.8703 129.959 10.2442 131.57 10.0104C134.676 9.5679 137.565 11.3462 138.383 14.2349C138.491 14.619 138.558 15.0281 138.558 15.4288C138.566 20.9057 138.566 26.3909 138.566 31.8678C138.566 31.968 138.566 32.0598 138.566 32.185C136.329 32.185 134.108 32.185 131.837 32.185C131.837 32.0514 131.837 31.9179 131.837 31.7843C131.837 27.6182 131.837 23.4604 131.837 19.2944C131.837 19.0355 131.837 18.7684 131.795 18.5096C131.578 17.2656 130.485 16.4557 129.216 16.5643C127.746 16.6895 126.786 17.6329 126.786 18.9687C126.778 23.2267 126.786 27.493 126.786 31.7509C126.786 31.8928 126.786 32.0264 126.786 32.185C124.49 32.185 122.236 32.185 119.948 32.185C119.932 24.7378 119.932 17.3157 119.932 9.86011Z" fill="#3B3B3B"/>
<path d="M111.583 17.3156C111.767 16.2971 111.174 15.2952 110.172 14.8778C109.521 14.6022 108.836 14.5939 108.151 14.5772C107.308 14.5605 106.457 14.5772 105.58 14.5772C105.58 12.9158 105.58 11.1959 105.58 9.45098C105.972 9.45098 106.356 9.44263 106.732 9.45098C108.285 9.49272 109.846 9.47602 111.399 9.60126C112.677 9.70144 113.929 10.027 115.048 10.6532C116.993 11.7469 118.187 13.375 118.337 15.6625C118.362 16.0549 118.371 16.4473 118.371 16.8397C118.371 21.8073 118.371 26.7749 118.371 31.7425C118.371 31.8677 118.371 32.0013 118.371 32.1516C116.217 32.1516 114.088 32.1516 111.917 32.1516C111.917 31.7175 111.917 31.2917 111.917 30.8074C111.775 30.8909 111.683 30.941 111.6 30.9995C108.477 32.9698 103.802 32.1349 101.606 29.1961C100.496 27.7183 100.162 26.0068 100.203 24.2035C100.237 22.8175 100.479 21.4734 101.122 20.2294C102.466 17.6245 105.488 16.0549 108.46 16.4056C109.496 16.5308 110.489 16.7896 111.424 17.2572C111.474 17.2906 111.533 17.2989 111.583 17.3156ZM111.967 23.9613C111.967 22.3918 110.681 21.1144 109.112 21.106C107.534 21.106 106.231 22.4084 106.248 23.978C106.256 25.5393 107.542 26.8334 109.103 26.8334C110.673 26.8417 111.975 25.5393 111.967 23.9613Z" fill="#3B3B3B"/>
<path d="M0.00835704 2.47119C2.51302 2.47119 4.98427 2.47119 7.49728 2.47119C7.49728 9.28388 7.49728 16.0799 7.49728 22.9093C10.2608 22.9093 12.9825 22.9093 15.721 22.9093C15.721 25.5225 15.721 28.1106 15.721 30.7238C10.4946 30.7238 5.2598 30.7238 0 30.7238C0.00834889 21.3146 0.00835704 11.9054 0.00835704 2.47119Z" fill="#3B3B3B"/>
<path d="M19.5781 30.724C19.5781 23.9113 19.5781 17.1153 19.5781 10.2942C16.823 10.2942 14.1013 10.2942 11.3462 10.2942C11.3462 7.68104 11.3462 5.09289 11.3462 2.48804C16.5726 2.48804 21.799 2.48804 27.0504 2.48804C27.0504 11.8889 27.0504 21.2981 27.0504 30.7323C24.5708 30.724 22.0912 30.724 19.5781 30.724Z" fill="#3B3B3B"/>
<path d="M43.4977 32.16C41.2936 32.16 39.0978 32.16 36.877 32.16C36.877 21.9994 36.877 11.8472 36.877 1.67822C39.0811 1.67822 41.2769 1.67822 43.4977 1.67822C43.4977 11.8388 43.4977 21.9827 43.4977 32.16Z" fill="#3B3B3B"/>
<path d="M97.5567 9.86842C97.5567 10.6031 97.5567 11.3128 97.5567 12.0976C99.4352 10.5864 101.439 9.52612 103.894 9.44263C103.902 9.57621 103.91 9.68474 103.91 9.80163C103.91 11.3712 103.902 12.9408 103.919 14.5104C103.919 14.7609 103.86 14.8611 103.585 14.8945C102.508 15.0197 101.472 15.3286 100.521 15.8629C98.5753 16.9399 97.5901 18.593 97.5818 20.8138C97.5818 24.4623 97.5818 28.1107 97.5818 31.7592C97.5818 31.8844 97.5818 32.018 97.5818 32.1683C95.194 32.1683 92.8396 32.1683 90.4601 32.1683C90.4601 24.7378 90.4601 17.3156 90.4601 9.86842C92.8229 9.86842 95.1689 9.86842 97.5567 9.86842Z" fill="#3B3B3B"/>
<path d="M10.3108 0C10.3108 3.42304 10.3108 6.82939 10.3108 10.2608C9.71808 10.2608 9.13365 10.2608 8.53253 10.2608C8.53253 6.84609 8.53253 3.43139 8.53253 0C9.11695 0 9.69303 0 10.3108 0Z" fill="#3B3B3B"/>
<path d="M16.7896 22.9426C17.3824 22.9426 17.9668 22.9426 18.5596 22.9426C18.5596 26.374 18.5596 29.7887 18.5596 33.2201C17.9668 33.2201 17.3907 33.2201 16.7896 33.2201C16.7896 29.7971 16.7896 26.374 16.7896 22.9426Z" fill="#3B3B3B"/>
<path d="M165.592 5.39351C165.592 5.93618 165.592 6.42877 165.592 6.9464C165.416 6.9464 165.275 6.9464 165.108 6.9464C165.108 5.73581 165.108 4.53357 165.108 3.32298C165.834 3.32298 166.56 3.29793 167.278 3.33133C167.621 3.34803 167.888 3.59015 167.963 3.94915C168.038 4.32485 168.03 4.6922 167.721 4.97606C167.671 5.02615 167.612 5.07625 167.662 5.10964C167.754 5.36011 167.871 5.60223 167.921 5.85269C167.988 6.20335 168.005 6.56235 168.046 6.9297C167.929 6.9297 167.746 6.9297 167.504 6.9297C167.487 6.62914 167.454 6.32858 167.445 6.02802C167.42 5.55213 167.253 5.37681 166.786 5.36846C166.402 5.39351 166.026 5.39351 165.592 5.39351ZM165.608 4.93432C166.076 4.93432 166.527 4.95936 166.961 4.92597C167.295 4.90927 167.462 4.68385 167.47 4.35824C167.479 4.05768 167.387 3.77382 167.061 3.74877C166.585 3.70703 166.093 3.74043 165.6 3.74043C165.608 4.14117 165.608 4.51687 165.608 4.93432Z" fill="#3B3B3B"/>
</svg>
