<svg width="167" height="50" viewBox="0 0 167 50" fill="none" xmlns="http://www.w3.org/2000/svg">
<path d="M0.586255 18.9517C1.36891 19.4142 2.03061 19.8126 2.69231 20.2111C4.61338 21.3495 6.66252 22.1535 8.918 22.2033C9.87853 22.2247 10.8675 22.0681 11.8067 21.8404C12.6676 21.6341 13.2867 21.0436 13.4361 20.0901C13.5926 19.1225 13.244 18.3114 12.4186 17.8702C11.1877 17.2156 9.88564 16.6962 8.60493 16.1342C6.9827 15.4155 5.27509 14.8392 3.74535 13.9569C-0.00429452 11.8082 -0.694466 7.77395 0.600477 4.7287C1.63928 2.28823 3.73111 1.07867 6.18581 0.481C9.91411 -0.42973 13.5641 0.0042907 17.1217 1.34904C19.2348 2.14593 18.7795 1.65498 18.8222 3.80374C18.8435 4.79985 18.8293 5.79595 18.8293 6.89879C17.7691 6.48611 16.8371 6.09479 15.8837 5.74615C14.0978 5.08445 12.2692 4.56505 10.3553 4.65754C9.48722 4.70023 8.57648 4.89233 7.7867 5.24097C6.29254 5.90979 6.15025 7.56761 7.50923 8.48545C8.41996 9.09735 9.47297 9.51002 10.4904 9.95827C12.3403 10.7765 14.2543 11.4524 16.0473 12.3845C17.9897 13.3948 19.3914 14.9673 19.8681 17.2014C20.7148 21.1859 18.7653 24.7007 14.8733 26.017C10.896 27.3617 6.94712 27.0914 3.06941 25.5332C2.37213 25.2486 1.68909 24.907 1.02739 24.5442C0.835279 24.4374 0.607599 24.16 0.607599 23.9607C0.572024 22.3456 0.586255 20.7234 0.586255 18.9517Z" fill="#3B3B3B"/>
<path d="M46.8271 36.341C45.2191 36.341 43.7819 36.341 42.1454 36.341C42.494 35.6651 42.7573 35.103 43.0775 34.5693C43.1486 34.4555 43.4403 34.4413 43.6325 34.4413C44.5716 34.427 45.5037 34.4057 46.4429 34.4484C46.9339 34.4697 47.1686 34.2847 47.2896 33.8223C47.439 33.2744 47.6525 32.7479 47.8802 32.0862C46.7773 32.0862 45.8097 32.0862 44.6286 32.0862C45.0555 31.5383 45.333 31.1256 45.6603 30.7557C48.7269 27.3262 52.3911 24.8786 57.0017 24.0746C59.7054 23.605 62.2882 23.8683 64.5365 25.6328C66.1801 26.9278 66.913 28.7208 67.0553 30.7485C67.1122 31.6095 66.977 32.4775 66.9485 33.3455C66.9343 33.808 66.7066 33.9574 66.2726 33.9574C64.8709 33.9432 63.4622 33.9717 62.0605 33.9432C61.5197 33.929 61.2423 34.1211 61.1355 34.6618C61.0359 35.1955 60.8723 35.722 60.6944 36.3908C62.523 36.3908 64.2235 36.3908 66.109 36.3908C65.7959 37.0454 65.5967 37.5577 65.305 38.013C65.2053 38.1625 64.8852 38.2336 64.6575 38.2336C63.4123 38.255 62.1601 38.2621 60.915 38.2407C60.4098 38.2336 60.1252 38.4044 60.0185 38.9095C59.9046 39.4432 59.7339 39.9697 59.5489 40.6314C60.915 40.6314 62.1886 40.6314 63.6329 40.6314C63.455 40.9516 63.3839 41.1223 63.2701 41.2646C60.1963 45.2135 56.3257 47.9457 51.3737 48.9702C49.5451 49.3473 47.6952 49.3402 45.9022 48.7355C43.049 47.7749 41.1991 45.3202 41.128 42.3034C41.1066 41.286 41.2631 40.2685 41.3343 39.2511C41.3627 38.8242 41.5975 38.7032 42.0031 38.7103C43.1629 38.7317 44.3226 38.7032 45.4753 38.7246C45.9093 38.7317 46.1227 38.5751 46.2366 38.1696C46.4002 37.6004 46.5994 37.0383 46.8271 36.341ZM44.4863 44.1889C44.8705 44.2245 45.1266 44.2743 45.3899 44.2743C46.7489 44.2814 48.1078 44.317 49.4668 44.2601C50.3918 44.2245 51.3452 44.1533 52.2346 43.9043C54.8316 43.1786 56.6815 41.6773 57.3005 38.8811C57.7488 36.8675 58.3535 34.8824 58.8587 32.8831C58.9725 32.4277 59.2074 32.2569 59.6485 32.2641C60.4311 32.2712 61.2138 32.2143 61.9893 32.2783C62.708 32.3352 63.0495 32.0933 63.142 31.3604C63.2487 30.5422 63.455 29.7311 63.6543 28.7634C61.1853 28.8417 58.8445 28.7136 56.5748 29.0409C53.9422 29.4252 52.0709 31.0403 51.3452 33.6871C50.8116 35.6153 50.4202 37.579 49.9577 39.5214C49.7728 40.3112 49.4241 40.5887 48.5917 40.5958C47.7023 40.6029 46.8058 40.5816 45.9164 40.61C45.7243 40.6172 45.4112 40.7737 45.3614 40.9231C45.0483 41.969 44.7922 43.0292 44.4863 44.1889Z" fill="#3B3B3B"/>
<path d="M122.809 25.142C122.574 25.2772 122.418 25.3412 122.282 25.4408C118.597 28.1659 112.755 26.9634 110.528 22.1465C108.707 18.1977 109.497 13.2385 112.499 10.5632C114.321 8.94097 116.526 8.30061 118.931 8.59944C120.212 8.76309 121.471 9.14731 122.823 9.45326C122.845 9.2398 122.901 8.94097 122.901 8.64925C122.909 6.13051 122.916 3.61178 122.894 1.10016C122.887 0.530953 123.037 0.310388 123.641 0.324618C124.979 0.367309 126.317 0.353075 127.647 0.331729C128.124 0.324614 128.323 0.44557 128.316 0.96497C128.302 9.29672 128.302 17.6285 128.316 25.9531C128.316 26.4156 128.167 26.5792 127.697 26.5721C126.359 26.5508 125.022 26.5365 123.691 26.5792C123.079 26.6006 122.823 26.4156 122.887 25.7895C122.916 25.6045 122.852 25.4123 122.809 25.142ZM122.901 17.5573C122.901 16.5541 122.901 15.558 122.901 14.5548C122.901 12.9894 122.837 12.8969 121.329 12.3989C121.116 12.3277 120.902 12.2779 120.689 12.2281C118.291 11.6447 116.185 12.7973 115.438 15.1453C114.933 16.7249 114.904 18.34 115.338 19.9409C116.263 23.3134 119.707 24.402 122.396 22.1679C122.66 21.9473 122.866 21.5133 122.88 21.1647C122.937 19.9622 122.901 18.7598 122.901 17.5573Z" fill="#3B3B3B"/>
<path d="M45.8452 11.4668C46.0373 11.2676 46.2295 11.0684 46.4144 10.8621C49.0755 7.80259 53.4299 8.02315 55.785 10.0438C57.1155 11.1822 57.7559 12.6906 57.827 14.3911C57.9124 16.3478 57.8484 18.3116 57.8768 20.2682C57.8839 20.7378 57.7061 20.8659 57.2436 20.9868C55.8775 21.3497 54.5327 21.8122 53.1809 22.2462C52.9745 22.3102 52.7824 22.4098 52.5049 22.5237C52.4907 22.232 52.4765 22.0185 52.4765 21.8051C52.4765 19.9551 52.4978 18.1052 52.4623 16.2624C52.448 15.6719 52.3555 15.06 52.1848 14.4979C51.6369 12.712 49.7941 11.9507 48.1149 12.7902C47.1046 13.2954 46.4002 14.1208 45.8025 15.0528C45.6745 15.2521 45.6745 15.558 45.6745 15.8213C45.6674 19.1156 45.6531 22.4169 45.6816 25.7112C45.6887 26.2947 45.5179 26.4868 44.9274 26.4725C43.6111 26.437 42.3019 26.4441 40.9856 26.4725C40.452 26.4868 40.2314 26.3231 40.2314 25.7539C40.2457 17.5147 40.2457 9.26829 40.2314 1.02904C40.2314 0.516751 40.3951 0.317532 40.9287 0.331763C42.2877 0.360223 43.6467 0.367338 45.0057 0.331763C45.5535 0.317532 45.6816 0.523873 45.6816 1.03616C45.6602 4.2664 45.6745 7.49664 45.6745 10.7269C45.6745 10.9546 45.6745 11.1894 45.6745 11.417C45.7314 11.4242 45.7883 11.4455 45.8452 11.4668Z" fill="#3B3B3B"/>
<path d="M148.936 21.3423C148.936 22.4096 148.971 23.3417 148.914 24.2666C148.9 24.4872 148.63 24.7505 148.416 24.8999C146.716 26.0454 144.809 26.6502 142.788 26.7996C140.511 26.9704 138.256 26.8281 136.1 25.9102C132.215 24.2666 130.451 20.4956 130.927 16.5966C131.226 14.1419 132.208 12.0643 134.172 10.5274C136.171 8.955 138.469 8.39291 140.995 8.58502C143.293 8.76289 145.271 9.60247 146.851 11.2816C148.252 12.7758 148.985 14.5901 149.199 16.625C149.234 17.0021 149.27 17.3792 149.32 17.7492C149.405 18.3469 149.199 18.5603 148.558 18.5532C145.193 18.5248 141.828 18.539 138.462 18.539C138.242 18.539 138.014 18.539 137.793 18.539C136.313 18.539 136.299 18.5675 136.705 19.9762C137.295 22.004 138.953 23.299 141.123 23.612C143.798 23.9963 146.125 23.1923 148.302 21.7337C148.452 21.6269 148.63 21.5273 148.936 21.3423ZM140.547 15.8139C141.657 15.8139 142.767 15.8068 143.877 15.821C144.325 15.8282 144.567 15.6716 144.467 15.1949C144.197 13.8857 143.649 12.7616 142.383 12.1141C139.914 10.8547 137.288 12.2208 136.669 15.0526C136.548 15.6147 136.705 15.8353 137.281 15.821C138.37 15.8068 139.458 15.821 140.547 15.8139Z" fill="#3B3B3B"/>
<path d="M99.0233 21.385C99.0233 22.3954 99.0588 23.3488 98.9948 24.2951C98.9806 24.5086 98.6746 24.7505 98.447 24.8999C96.7607 26.017 94.8823 26.636 92.883 26.7925C90.4638 26.9775 88.0661 26.8565 85.8319 25.7679C82.7796 24.288 81.1217 21.8618 80.9296 18.4608C80.7304 14.9317 81.8759 11.9789 84.9141 10.0223C89.0124 7.37547 95.0815 8.24351 97.7568 12.3916C98.8241 14.0494 99.2865 15.8709 99.315 17.8346C99.3221 18.3896 99.1513 18.5604 98.5964 18.5604C94.9179 18.539 91.2394 18.5461 87.568 18.5461C86.4225 18.5461 86.3869 18.5959 86.6502 19.713C87.1624 21.8689 88.9056 23.3061 91.1398 23.6192C93.815 23.9963 96.1417 23.1994 98.3189 21.7479C98.4683 21.6483 98.6177 21.5487 98.7671 21.4562C98.8027 21.4349 98.8525 21.4277 99.0233 21.385ZM90.6061 15.8211C91.7161 15.8211 92.8332 15.8139 93.9431 15.8282C94.4127 15.8353 94.5479 15.6788 94.4839 15.1878C94.2348 13.2668 92.7264 11.7726 90.9334 11.7299C88.5926 11.673 87.0913 12.847 86.7355 15.0313C86.6075 15.7926 86.6288 15.8211 87.4115 15.8282C88.4716 15.8211 89.5389 15.8211 90.6061 15.8211Z" fill="#3B3B3B"/>
<path d="M66.5146 11.481C66.6925 11.2035 66.8276 10.8833 67.0553 10.6414C69.6381 7.92347 73.8146 7.9377 76.2765 9.95127C77.7208 11.1253 78.3967 12.7119 78.4252 14.512C78.4892 18.2759 78.4394 22.0398 78.4608 25.8036C78.4608 26.3017 78.2971 26.4653 77.8062 26.4582C76.4472 26.4369 75.0882 26.4298 73.7292 26.4582C73.1743 26.4725 73.0604 26.2519 73.0604 25.7467C73.0747 22.4524 73.0747 19.1511 73.0604 15.8568C73.0604 15.3943 73.0106 14.9247 72.9252 14.4693C72.4485 12.0289 70.2073 11.545 68.6562 12.4985C67.6957 13.089 67.0126 14.142 66.2442 15.0243C66.1161 15.1737 66.1517 15.4939 66.1446 15.7358C66.1375 18.1621 66.1375 20.5883 66.1375 22.9505C65.2196 22.4596 64.316 21.9188 63.3626 21.4848C62.7649 21.2144 62.0961 21.0792 61.4486 20.9512C60.9648 20.8515 60.7371 20.6808 60.7442 20.1258C60.7727 16.6039 60.7656 13.089 60.7514 9.56705C60.7514 9.06188 60.8723 8.84843 61.4273 8.86266C62.7863 8.89824 64.1452 8.89112 65.5042 8.86266C66.0023 8.85555 66.1873 9.01919 66.1517 9.51725C66.1161 10.0865 66.1446 10.6557 66.1446 11.232C66.2655 11.3245 66.3865 11.4027 66.5146 11.481Z" fill="#3B3B3B"/>
<path d="M37.4139 13.4519C36.368 13.1531 35.4003 12.8044 34.4113 12.6123C33.1306 12.3633 31.8428 12.4131 30.5976 12.8614C28.335 13.6796 27.1184 15.7714 27.3745 18.404C27.6022 20.7662 29.2956 22.5379 31.5866 22.9434C33.3796 23.2565 35.0232 22.7798 36.6739 22.2248C36.9656 22.1252 37.2573 22.0327 37.6629 21.8904C37.6629 23.1355 37.67 24.3024 37.6487 25.4693C37.6487 25.5902 37.4423 25.761 37.3 25.8108C33.5077 27.1128 29.7225 27.4401 26.044 25.512C23.1339 23.9822 21.7323 21.4564 21.5829 18.1977C21.3125 12.5625 25.5175 8.94807 30.4198 8.5852C32.6397 8.42156 34.7599 8.79865 36.8447 9.46035C37.0795 9.5315 37.3854 9.84456 37.3996 10.058C37.4423 11.1893 37.4139 12.3206 37.4139 13.4519Z" fill="#3B3B3B"/>
<path d="M157.9 13.8857C158.021 13.6581 158.128 13.4233 158.27 13.2027C158.946 12.1568 159.516 11.0255 160.334 10.1076C161.999 8.23637 163.877 8.04426 166.019 9.33209C167.164 10.0151 167.157 10.0151 166.752 11.2959C166.389 12.4343 166.04 13.5798 165.656 14.8036C165.144 14.5474 164.702 14.3055 164.254 14.0921C162.29 13.16 160.711 13.53 159.473 15.3088C158.32 16.9666 157.459 18.7311 157.616 20.8799C157.737 22.495 157.623 24.1314 157.651 25.7537C157.659 26.3015 157.481 26.5079 156.926 26.4936C155.588 26.4652 154.25 26.4652 152.92 26.4936C152.386 26.5008 152.237 26.3015 152.244 25.7821C152.258 20.3676 152.258 14.9601 152.244 9.54554C152.244 9.07595 152.351 8.85538 152.87 8.8625C154.25 8.89096 155.631 8.89096 157.011 8.8625C157.523 8.85538 157.666 9.06172 157.651 9.53843C157.63 10.7409 157.644 11.9433 157.644 13.1458C157.644 13.3806 157.68 13.6083 157.701 13.843C157.765 13.8573 157.836 13.8715 157.9 13.8857Z" fill="#3B3B3B"/>
<path d="M107.07 17.7279C107.07 20.4245 107.056 23.1211 107.085 25.8106C107.092 26.3941 106.921 26.5862 106.33 26.572C105.014 26.5293 103.705 26.5435 102.389 26.572C101.883 26.5791 101.677 26.4581 101.684 25.9031C101.706 20.4459 101.698 14.9886 101.684 9.53136C101.684 9.04042 101.834 8.86253 102.332 8.87676C103.691 8.90522 105.05 8.91234 106.409 8.87676C106.957 8.86253 107.085 9.06887 107.085 9.58116C107.056 12.292 107.07 15.01 107.07 17.7279Z" fill="#3B3B3B"/>
<path d="M75.1024 31.6452C75.1024 33.1892 75.0882 34.6336 75.1309 36.0779C75.1309 36.206 75.4867 36.4194 75.6788 36.4265C77.3295 36.455 78.9801 36.4835 80.6237 36.4265C81.4277 36.3981 81.3779 36.8179 81.3993 37.3728C81.4206 37.9776 81.2997 38.2551 80.6024 38.2338C79.0228 38.184 77.4362 38.2338 75.8566 38.2053C75.2946 38.1982 75.0598 38.3334 75.0811 38.9524C75.1238 40.1335 75.1238 41.3146 75.0811 42.4957C75.0598 43.1076 75.2946 43.257 75.8566 43.2499C77.5714 43.2286 79.2861 43.2428 81.0008 43.2428C81.7835 43.2428 81.7621 43.2499 81.7977 44.2176C81.8191 44.7939 81.7052 45.05 81.0435 45.0429C78.6173 45.0002 76.191 45.0144 73.7577 45.0358C73.2383 45.0429 73.0604 44.8935 73.0675 44.3527C73.0889 39.7422 73.0818 35.1316 73.0675 30.521C73.0675 30.0301 73.2169 29.8522 73.715 29.8593C76.0985 29.8807 78.4821 29.8807 80.8656 29.8593C81.3922 29.8522 81.6127 30.0372 81.5487 30.5566C81.5345 30.7131 81.5345 30.8697 81.5487 31.0262C81.6056 31.5314 81.3637 31.6737 80.887 31.6666C79.2149 31.6452 77.5429 31.6594 75.878 31.6594C75.6503 31.6452 75.4297 31.6452 75.1024 31.6452Z" fill="#3B3B3B"/>
<path d="M96.1488 40.2472C95.9851 41.6916 97.152 43.1288 98.6106 43.3921C99.87 43.6126 101.037 43.3352 102.154 42.7802C102.367 42.6734 102.581 42.5596 102.801 42.4458C103.178 43.7763 103.015 44.1676 101.784 44.6728C99.6138 45.5693 96.9314 45.3843 95.4515 43.6055C93.8933 41.7271 93.7368 38.3973 95.2665 36.526C96.4619 35.0603 98.0627 34.6121 99.8842 34.9963C101.592 35.352 102.453 36.5616 102.858 38.1625C102.979 38.6321 102.986 39.1301 103.058 39.614C103.122 40.0836 102.915 40.2401 102.453 40.233C100.603 40.2187 98.76 40.2259 96.9101 40.2259C96.6611 40.2116 96.3978 40.233 96.1488 40.2472ZM98.6604 39.1017C99.3079 39.1017 99.9482 39.1088 100.596 39.1017C101.3 39.0946 101.4 38.9523 101.208 38.2479C100.88 37.0383 99.9696 36.3339 98.7814 36.3766C97.4366 36.4193 96.3409 37.3443 96.1275 38.5823C96.0563 38.9878 96.2342 39.1017 96.597 39.1017C97.2801 39.1017 97.9703 39.1017 98.6604 39.1017Z" fill="#3B3B3B"/>
<path d="M162.049 42.9509C162.105 43.0434 162.127 43.0647 162.127 43.0861C162.134 44.9004 162.468 44.6656 160.412 45.0854C157.929 45.5906 155.624 44.5376 154.663 42.4884C153.624 40.2685 154.286 37.081 156.093 35.7931C157.794 34.5836 159.629 34.6476 161.486 35.3734C161.664 35.4445 161.842 35.7078 161.871 35.907C161.928 36.341 161.892 36.7893 161.892 37.2517C161.145 37.0169 160.455 36.7181 159.743 36.5829C158.036 36.2485 156.492 37.3442 156.15 39.0661C155.531 42.1825 157.765 44.1818 160.903 43.328C161.287 43.2213 161.657 43.079 162.049 42.9509Z" fill="#3B3B3B"/>
<path d="M116.149 37.3868C114.363 36.4192 112.691 35.9496 111.162 37.5291C110.151 38.5679 109.966 40.4961 110.685 41.848C111.233 42.8868 112.165 43.4417 113.282 43.4631C114.299 43.4844 115.324 43.2283 116.405 43.086C116.405 43.4346 116.427 43.8758 116.391 44.3169C116.377 44.4592 116.242 44.6727 116.114 44.7153C114.264 45.3699 111.354 45.6118 109.625 43.5698C108.138 41.8124 108.173 39.8059 108.878 37.7782C109.546 35.85 111.09 34.9606 113.04 34.8823C113.944 34.8467 114.861 35.174 115.765 35.3946C115.922 35.4302 116.092 35.7361 116.121 35.9353C116.185 36.3765 116.149 36.8176 116.149 37.3868Z" fill="#3B3B3B"/>
<path d="M121.934 36.6328C123.029 35.4873 124.097 34.3702 125.242 33.1606C125.242 33.5591 125.242 33.865 125.242 34.171C125.242 35.0817 125.242 35.0817 126.181 35.0817C126.758 35.0817 127.341 35.1031 127.918 35.0746C128.465 35.0533 128.48 35.3877 128.444 35.7719C128.416 36.1347 128.615 36.6399 127.939 36.6328C127.249 36.6257 126.559 36.6399 125.868 36.6328C125.434 36.6257 125.228 36.7822 125.235 37.2589C125.257 38.8385 125.228 40.4251 125.249 42.0047C125.264 43.0364 125.954 43.6696 126.993 43.5487C127.64 43.4704 128.273 43.2427 128.985 43.0577C128.985 43.3992 129.02 43.7977 128.971 44.1819C128.949 44.3669 128.8 44.6088 128.643 44.6871C127.697 45.1353 126.694 45.3274 125.662 45.0713C124.268 44.7298 123.499 43.7194 123.485 42.2608C123.471 40.6813 123.449 39.0946 123.492 37.5151C123.506 36.8462 123.307 36.5545 122.624 36.6328C122.382 36.6613 122.14 36.6328 121.934 36.6328Z" fill="#3B3B3B"/>
<path d="M87.1056 37.3871C87.1056 35.1174 87.1411 32.8477 87.0842 30.578C87.07 29.7882 87.4969 29.8522 88.0092 29.8451C88.5143 29.838 88.8914 29.8238 88.8843 30.5495C88.8559 35.1316 88.863 39.7208 88.8772 44.3029C88.8772 44.8508 88.7207 45.0429 88.1586 45.0287C87.0984 45.0002 87.0913 45.0287 87.0913 43.997C87.1055 41.7913 87.1056 39.5928 87.1056 37.3871Z" fill="#3B3B3B"/>
<path d="M103.47 6.0167C101.862 6.05228 100.944 4.89252 101.393 3.32721C101.905 1.53421 103.15 0.466944 104.943 0.0969606C106.594 -0.244563 107.775 1.02192 107.44 2.68685C107.085 4.42292 105.228 5.98113 103.47 6.0167Z" fill="#3B3B3B"/>
<path d="M136.271 37.2875C136.399 37.1238 136.52 36.9531 136.648 36.7965C136.982 36.3839 137.281 35.9285 137.658 35.5585C138.875 34.3845 140.113 34.8541 141.216 35.7862C141.301 35.8574 141.308 36.1206 141.244 36.2345C141.031 36.6471 140.782 37.0385 140.511 37.4796C140.22 37.2946 139.963 37.1309 139.707 36.9815C138.633 36.3483 137.658 36.5191 136.868 37.4867C136.328 38.1484 136.086 38.924 136.079 39.7706C136.071 41.2862 136.05 42.8017 136.086 44.3101C136.1 44.8793 135.894 45.0785 135.353 45.0073C135.225 44.9931 135.082 44.9931 134.954 45.0073C134.463 45.0714 134.293 44.865 134.3 44.367C134.321 42.4957 134.307 40.6245 134.307 38.7532C134.307 37.7286 134.321 36.7041 134.3 35.6795C134.286 35.2099 134.463 35.0178 134.919 35.0676C135.075 35.0818 135.232 35.0818 135.388 35.0676C135.894 35.0107 136.135 35.1885 136.086 35.7435C136.043 36.2273 136.079 36.7183 136.079 37.2021C136.143 37.2377 136.207 37.2661 136.271 37.2875Z" fill="#3B3B3B"/>
<path d="M148.779 40.055C148.779 41.4353 148.736 42.8157 148.793 44.196C148.822 44.9004 148.573 45.1281 147.918 45.0285C147.833 45.0142 147.74 45.0142 147.655 45.0285C147.121 45.0996 146.965 44.8506 146.965 44.3383C146.979 41.8694 146.972 39.4004 146.972 36.9315C146.972 36.5117 146.979 36.0848 146.972 35.665C146.965 35.2808 147.107 35.11 147.512 35.0958C148.779 35.0318 148.779 35.0175 148.779 36.2627C148.779 37.5149 148.779 38.7814 148.779 40.055Z" fill="#3B3B3B"/>
<path d="M148.388 30.9622C148.494 31.1329 148.793 31.3891 148.829 31.6808C148.893 32.25 148.11 32.9686 147.52 32.9686C147.086 32.9686 146.801 32.7196 146.78 32.2856C146.751 31.7092 147.562 30.9622 148.388 30.9622Z" fill="#3B3B3B"/>
</svg>
