<svg width="181" height="28" viewBox="0 0 181 28" fill="none" xmlns="http://www.w3.org/2000/svg">
<path d="M0 27.74C0.00581064 27.3856 0.0232431 27.0311 0.0232431 26.6766C0.0232431 18.0885 0.02905 9.50621 0.00580745 0.918082C0.00580745 0.191752 0.226614 0.00580745 0.929702 0.00580745C21.9468 0.0232394 42.9581 0.0232426 63.9752 0C64.6783 0 64.7247 0.29053 64.7247 0.842541C64.7131 9.47715 64.7189 18.1118 64.7189 26.7406C64.7189 27.0718 64.7422 27.403 64.748 27.7342C43.1673 27.74 21.5865 27.74 0 27.74ZM52.5979 14.8927C52.656 14.9159 52.7083 14.9334 52.7664 14.9566C52.7664 17.3041 52.7839 19.6516 52.7548 21.9933C52.749 22.586 52.9524 22.7893 53.5334 22.7719C54.5503 22.7428 55.573 22.7719 56.5898 22.7719C57.6241 22.7661 57.6299 22.7661 57.6299 21.755C57.6299 17.1298 57.6299 12.5103 57.6299 7.88505C57.6299 7.10061 57.6183 6.32198 57.6241 5.53754C57.6241 5.11917 57.4324 4.93904 57.0198 4.94485C55.8112 4.95066 54.6026 4.92162 53.394 4.9681C53.1441 4.97972 52.8013 5.17728 52.6793 5.39227C52.0169 6.51373 51.4126 7.66424 50.7908 8.80894C50.1284 10.0292 49.4602 11.2494 48.7339 12.5859C48.5072 12.214 48.3387 11.9641 48.1935 11.7026C47.0604 9.62823 45.9389 7.53641 44.7768 5.47944C44.6374 5.22958 44.248 4.98553 43.9633 4.97391C42.7779 4.92161 41.5926 4.9681 40.4072 4.95067C39.9307 4.94486 39.7855 5.15985 39.7971 5.59565C39.8145 6.16509 39.8087 6.73454 39.8087 7.30398C39.8087 12.1384 39.8087 16.9787 39.8087 21.8131C39.8087 22.7777 39.8087 22.7777 40.8023 22.7777C41.7495 22.7777 42.6966 22.7835 43.6495 22.7777C44.6025 22.7719 44.6025 22.7661 44.6025 21.848C44.6025 19.8317 44.6025 17.8154 44.6025 15.7991C44.6025 15.4505 44.6025 15.1077 44.6025 14.759C45.2184 15.5318 45.7762 16.3047 46.1772 17.1472C46.7234 18.2803 47.4439 18.9717 48.7978 18.687C49.0476 18.6347 49.3207 18.6463 49.5764 18.687C50.0994 18.7626 50.3899 18.5301 50.6455 18.0827C51.2615 17.0019 51.9413 15.9502 52.5979 14.8927ZM23.1496 13.8642C23.1554 16.5894 23.1612 19.3204 23.1438 22.0456C23.138 22.5453 23.26 22.7835 23.812 22.7719C26.4442 22.7196 29.0823 22.801 31.697 22.6208C34.3699 22.4349 36.8279 20.5639 37.1765 17.7864C37.4263 15.7759 37.3799 13.7247 37.3682 11.691C37.3624 10.802 37.2578 9.86647 36.9557 9.04136C36.0434 6.56021 34.0736 5.28187 31.5402 5.08431C29.0183 4.88675 26.4733 4.99134 23.934 4.92742C23.2949 4.90999 23.1322 5.14241 23.138 5.75253C23.1612 8.45448 23.1496 11.1564 23.1496 13.8642ZM13.8409 4.95067C11.7084 4.95067 9.57593 4.96228 7.43762 4.94485C6.96696 4.93904 6.74615 5.0785 6.75777 5.59565C6.78683 6.51954 6.78683 7.44343 6.75777 8.36732C6.74034 8.87866 6.94372 9.01812 7.426 9.00649C8.41962 8.97744 9.41905 9.00069 10.4127 9.00069C11.4005 9.00069 11.4005 9.00069 11.4063 10.0175C11.4063 13.9746 11.4179 17.9375 11.3947 21.8945C11.3889 22.5802 11.6097 22.8126 12.2953 22.7835C13.2657 22.737 14.2361 22.7777 15.2123 22.7777C16.2466 22.7777 16.2524 22.7777 16.2524 21.7609C16.2524 17.8038 16.2698 13.8409 16.2349 9.8839C16.2291 9.15176 16.4441 8.94258 17.153 8.98326C18.1931 9.04717 19.239 8.98325 20.2791 9.00649C20.7498 9.01812 20.9125 8.83218 20.9067 8.38476C20.8951 7.50735 20.8776 6.62994 20.9125 5.75253C20.9357 5.14822 20.7382 4.92162 20.099 4.93324C18.013 4.97391 15.927 4.95067 13.8409 4.95067Z" fill="#3B3B3B"/>
<path d="M158.805 22.9752C157.166 22.9752 155.696 23.0042 154.232 22.9461C153.994 22.9345 153.686 22.6033 153.558 22.3476C152.669 20.5463 151.82 18.7218 150.955 16.9089C150.629 16.229 149.874 15.9094 149.217 16.2465C149.06 16.3278 148.967 16.6706 148.967 16.8914C148.95 18.6695 148.938 20.4476 148.967 22.2256C148.979 22.8009 148.816 23.0391 148.206 23.01C147.282 22.9636 146.358 22.9636 145.435 23.01C144.813 23.0449 144.598 22.8415 144.609 22.2082C144.644 20.5521 144.621 18.8903 144.621 17.2285C144.621 13.4109 144.639 9.59328 144.615 5.7815C144.609 5.15395 144.807 4.95639 145.423 4.96801C147.77 5.00287 150.118 4.95057 152.46 5.0203C155.103 5.09584 157.282 6.99592 157.811 9.59327C158.264 11.7897 157.416 13.8467 155.464 15.1018C154.999 15.3981 154.993 15.6363 155.22 16.0605C156.271 18.0478 157.306 20.0466 158.346 22.0397C158.491 22.2953 158.613 22.5684 158.805 22.9752ZM148.956 10.6508C148.956 11.1505 148.915 11.6502 148.973 12.1441C148.996 12.3301 149.235 12.6322 149.386 12.6381C150.257 12.6671 151.146 12.6962 152.012 12.5916C152.826 12.4928 153.378 11.9698 153.575 11.1389C153.755 10.3719 153.494 9.48869 152.797 9.16329C152.221 8.896 151.53 8.80884 150.885 8.7856C148.962 8.7333 148.956 8.76236 148.956 10.6508Z" fill="#3B3B3B"/>
<path d="M112.523 15.7643C111.715 15.7643 110.989 15.7643 110.263 15.7643C108.984 15.7643 107.7 15.7875 106.422 15.7527C105.858 15.741 105.667 15.9502 105.696 16.5022C105.73 17.1414 105.73 17.7864 105.69 18.4198C105.649 19.0299 105.911 19.2042 106.474 19.1984C108.56 19.1809 110.646 19.1926 112.732 19.1926C113.668 19.1926 113.668 19.1984 113.668 20.1281C113.668 20.8893 113.65 21.6447 113.674 22.4059C113.685 22.83 113.546 22.9985 113.104 22.9927C109.426 22.9811 105.754 22.9695 102.076 22.9927C101.407 22.9985 101.372 22.6499 101.372 22.1444C101.384 16.9729 101.378 11.8072 101.378 6.63577C101.378 4.97393 101.384 4.97393 103.023 4.97393C106.294 4.97393 109.565 4.99136 112.843 4.9623C113.482 4.95649 113.737 5.125 113.679 5.79904C113.621 6.53118 113.633 7.26913 113.674 8.00127C113.708 8.58234 113.522 8.78571 112.918 8.77409C110.855 8.73923 108.793 8.75666 106.73 8.75666C105.701 8.75666 105.701 8.75665 105.696 9.75027C105.696 10.25 105.725 10.7497 105.684 11.2436C105.632 11.8363 105.847 12.028 106.445 12.0106C108.2 11.9699 109.955 12.0222 111.71 11.9758C112.389 11.9583 112.564 12.2024 112.529 12.8357C112.488 13.777 112.523 14.7242 112.523 15.7643Z" fill="#3B3B3B"/>
<path d="M77.4965 8.76827C77.4965 9.76189 77.4965 10.6567 77.4965 11.5516C77.4965 12.0861 77.8974 11.9932 78.2054 11.9932C79.937 11.999 81.6685 12.0222 83.3943 11.9816C84.0335 11.9641 84.295 12.1501 84.2601 12.8067C84.2194 13.562 84.2194 14.3232 84.2485 15.0844C84.2717 15.6132 84.0742 15.7817 83.5512 15.7759C81.7731 15.7527 79.9951 15.7643 78.217 15.7701C78.0078 15.7701 77.8045 15.7991 77.4907 15.8224C77.4907 16.8276 77.4849 17.7922 77.4907 18.7568C77.4965 19.2855 77.9091 19.1868 78.217 19.1926C80.2798 19.2042 82.3426 19.1926 84.4054 19.1984C85.3816 19.1984 85.3874 19.2042 85.4048 20.1746C85.4164 20.8835 85.4048 21.5982 85.4164 22.3071C85.4222 22.7603 85.2653 23.0043 84.754 22.9985C81.1049 22.9869 77.45 22.9811 73.8009 22.9985C73.2373 22.9985 73.1327 22.7254 73.1385 22.249C73.1502 16.6998 73.156 11.1506 73.1501 5.60728C73.1501 5.15405 73.2954 4.97974 73.7661 4.97974C77.4384 4.99136 81.1165 4.99136 84.7889 4.97974C85.2595 4.97974 85.4164 5.17729 85.4106 5.6189C85.399 6.44982 85.3874 7.28074 85.4338 8.10586C85.4629 8.65206 85.2537 8.7857 84.7366 8.77989C82.6273 8.75665 80.518 8.76827 78.4088 8.76827C78.1415 8.76827 77.88 8.76827 77.4965 8.76827Z" fill="#3B3B3B"/>
<path d="M180.49 17.519C179.909 21.3889 176.597 23.533 172.832 23.0798C170.85 22.8416 169.188 21.9642 168.096 20.2907C167.573 19.483 167.108 18.4836 167.068 17.5481C166.951 15.0495 166.946 12.5335 167.143 10.0407C167.358 7.36203 169.787 5.39803 172.268 4.92737C175.493 4.32306 178.544 5.67114 179.857 8.34403C180.054 8.74497 180.2 9.17495 180.345 9.59913C180.426 9.83737 180.467 10.093 180.566 10.523C179.537 10.5405 178.584 10.5637 177.631 10.5753C177.416 10.5753 177.201 10.523 176.992 10.5405C176.463 10.5869 176.15 10.4242 175.911 9.88385C175.458 8.86117 174.505 8.46024 173.297 8.65199C172.274 8.80888 171.611 9.50616 171.431 10.5927C171.059 12.8821 171.089 15.1657 171.449 17.4493C171.611 18.4604 172.274 19.0995 173.204 19.239C174.563 19.4482 175.4 19.1112 175.882 18.0478C176.121 17.519 176.446 17.3738 176.981 17.3912C178.067 17.4261 179.16 17.4086 180.252 17.4202C180.322 17.4202 180.386 17.4726 180.49 17.519Z" fill="#3B3B3B"/>
<path d="M128.81 10.5462C127.462 10.5462 126.213 10.5753 124.964 10.523C124.72 10.5114 124.388 10.2325 124.261 9.99424C123.703 8.93089 122.843 8.47185 121.553 8.64617C120.53 8.77982 119.728 9.50615 119.682 10.6625C119.6 12.8763 119.6 15.1018 119.693 17.3215C119.74 18.4487 120.495 19.1111 121.466 19.2448C122.878 19.4365 123.738 19.053 124.237 17.9374C124.412 17.5539 124.615 17.3854 125.028 17.3912C126.068 17.4028 127.114 17.4028 128.154 17.3912C128.683 17.3854 128.805 17.5946 128.677 18.0943C128.003 20.7207 126.044 22.5743 123.528 22.9868C120.472 23.4866 117.95 22.6731 116.166 20.035C115.487 19.024 115.213 17.8502 115.202 16.6649C115.179 14.5614 115.173 12.4463 115.341 10.3487C115.574 7.4608 118.165 5.07844 121.065 4.85763C123.255 4.68912 125.266 5.06682 126.904 6.65893C127.979 7.69904 128.537 8.98899 128.81 10.5462Z" fill="#3B3B3B"/>
<path d="M134.22 15.8632C134.22 13.754 134.203 11.6447 134.226 9.53544C134.232 8.96018 134.057 8.72194 133.453 8.751C132.413 8.79167 131.367 8.74519 130.327 8.78005C129.821 8.79748 129.664 8.60573 129.682 8.11764C129.711 7.26348 129.705 6.40931 129.682 5.56096C129.67 5.12516 129.839 4.97409 130.263 4.9799C134.336 4.98571 138.415 4.97989 142.488 5.00314C142.657 5.00314 142.965 5.30529 142.977 5.47961C143.029 6.4035 142.988 7.32739 143.006 8.25128C143.011 8.66384 142.826 8.78005 142.448 8.78005C141.431 8.76843 140.408 8.8091 139.391 8.76843C138.752 8.74519 138.531 8.93694 138.531 9.61097C138.56 13.8063 138.531 18.0015 138.56 22.1968C138.566 22.8186 138.398 23.0394 137.77 23.0161C136.8 22.9754 135.829 22.9813 134.853 23.0161C134.342 23.0336 134.203 22.8244 134.208 22.3479C134.226 20.1747 134.22 18.019 134.22 15.8632Z" fill="#3B3B3B"/>
<path d="M87.7871 13.9456C87.7871 11.2204 87.8046 8.48941 87.7755 5.76422C87.7697 5.11924 87.9905 4.93329 88.6006 4.96235C89.5013 5.00302 90.4019 5.00303 91.3026 4.96816C91.8952 4.94492 92.0812 5.17153 92.0754 5.75259C92.0579 9.87815 92.0637 14.0037 92.0637 18.1293C92.0637 19.1868 92.0638 19.1868 93.1271 19.1926C95.0737 19.1926 97.0144 19.21 98.961 19.181C99.5246 19.1752 99.7919 19.3263 99.757 19.9422C99.7164 20.7673 99.7396 21.604 99.757 22.4291C99.7629 22.8243 99.606 22.9811 99.2166 22.9811C95.6141 22.9753 92.0056 22.9753 88.403 22.987C87.8045 22.987 87.7755 22.6325 87.7813 22.1909C87.7871 19.4425 87.7813 16.6882 87.7813 13.9398C87.7813 13.9456 87.7871 13.9456 87.7871 13.9456Z" fill="#3B3B3B"/>
<path d="M160.403 13.934C160.403 11.2321 160.42 8.53013 160.391 5.82818C160.385 5.18901 160.56 4.93334 161.234 4.96821C162.181 5.01469 163.128 4.99145 164.075 4.96821C164.569 4.95658 164.737 5.14833 164.737 5.63643C164.726 11.1333 164.72 16.636 164.743 22.1328C164.743 22.7778 164.563 23.0335 163.901 23.0044C162.977 22.9638 162.053 22.9696 161.129 23.0044C160.56 23.0277 160.391 22.8011 160.397 22.2549C160.414 19.4774 160.403 16.7057 160.403 13.934Z" fill="#3B3B3B"/>
<path d="M27.9608 13.8352C27.9608 12.4406 27.9724 11.0403 27.955 9.64573C27.9492 9.16926 28.077 8.94845 28.5941 8.98912C29.274 9.04142 29.9771 8.94845 30.6395 9.0821C31.8539 9.32614 32.4698 10.1338 32.5221 11.5574C32.5802 13.1379 32.5802 14.73 32.5221 16.3105C32.464 17.8329 31.5285 18.6813 30.0119 18.7161C29.5413 18.7278 29.0648 18.7161 28.5941 18.7161C28.1293 18.7161 27.9317 18.5244 27.9434 18.0189C27.9724 16.6243 27.955 15.2298 27.955 13.8294C27.955 13.8352 27.955 13.8352 27.9608 13.8352Z" fill="#3B3B3B"/>
</svg>
