<svg width="281" height="65" fill="none" xmlns="http://www.w3.org/2000/svg"><g opacity=".9" fill="#fff"><path d="M16.164 16.178C5.437 26.913 0 32.401 0 32.496 0 32.702 32.298 65 32.504 65c.095 0 3.433-3.287 9.868-9.722 5.349-5.349 9.722-9.75 9.722-9.795 0-.044-1.468-1.54-3.265-3.338l-3.265-3.265-6.457 6.456c-3.551 3.552-6.486 6.457-6.53 6.457-.037 0-4.417-4.343-9.722-9.648l-9.648-9.649L26.194 19.51 39.18 6.523l-3.266-3.265C33.472.814 32.606-.007 32.49 0c-.125 0-4.762 4.6-16.325 16.178zM86.14 9.017c0 .037-.162.074-.367.074-.198 0-.367.03-.367.073 0 .037-.132.073-.293.073-.162 0-.294.03-.294.074 0 .037-.132.073-.293.073-.162 0-.294.03-.294.074 0 .036-.066.073-.146.073-.081 0-.147.03-.147.073 0 .037-.096.074-.22.074-.118 0-.22.029-.22.073 0 .037-.066.073-.147.073-.08 0-.147.03-.147.074 0 .037-.066.073-.147.073-.08 0-.146.03-.146.074 0 .036-.066.073-.147.073-.08 0-.147.03-.147.073 0 .037-.066.074-.147.074-.08 0-.146.029-.146.073 0 .037-.066.073-.147.073-.08 0-.147.03-.147.074 0 .037-.059.073-.132.073-.073 0-.176.066-.235.147-.058.08-.154.147-.205.147-.059 0-.198.095-.308.22-.11.117-.242.22-.294.22-.044 0-.213.132-.367.293-.154.162-.315.294-.36.294-.11 0-1.034.924-1.034 1.027 0 .044-.161.242-.367.44-.198.198-.366.404-.366.455 0 .059-.067.147-.147.206-.08.058-.147.154-.147.22s-.066.161-.147.22c-.08.059-.146.154-.146.22s-.066.161-.147.22c-.08.059-.147.162-.147.235 0 .073-.03.132-.073.132-.037 0-.074.066-.074.147 0 .08-.029.146-.073.146-.037 0-.073.066-.073.147 0 .08-.03.147-.074.147-.036 0-.073.066-.073.147 0 .08-.03.146-.073.146-.037 0-.074.066-.074.147 0 .08-.03.147-.073.147-.037 0-.074.066-.074.147 0 .08-.029.146-.073.146-.037 0-.073.096-.073.22 0 .118-.03.22-.074.22-.036 0-.073.096-.073.22 0 .118-.03.22-.073.22-.037 0-.074.096-.074.221 0 .117-.03.22-.073.22-.037 0-.074.132-.074.294 0 .161-.029.293-.073.293-.037 0-.073.162-.073.367 0 .198-.03.367-.074.367s-.073.22-.073.513c0 .294-.03.514-.073.514-.044 0-.074.514-.074 1.394 0 .88.03 1.394.074 1.394s.073.22.073.514c0 .293.03.513.073.513.044 0 .074.132.074.294 0 .161.036.293.073.293.044 0 .073.132.073.294 0 .161.037.293.074.293.044 0 .073.096.073.22 0 .118.037.22.073.22.045 0 .074.096.074.22 0 .118.037.22.073.22.044 0 .074.067.074.147 0 .081.036.147.073.147.044 0 .073.096.073.22 0 .118.037.22.074.22.044 0 .073.067.073.147 0 .08.037.147.074.147.044 0 .073.066.073.147 0 .08.037.146.073.146.044 0 .074.066.074.147 0 .08.036.147.073.147.044 0 .073.059.073.132 0 .073.066.176.147.235.08.058.147.154.147.22s.066.161.147.22c.08.059.146.154.146.22s.066.162.147.22c.08.059.147.147.147.206 0 .051.169.256.367.454.205.199.367.397.367.44 0 .104.924 1.028 1.034 1.028.044 0 .206.132.36.294.154.16.33.293.381.293.052 0 .147.066.206.147.058.08.154.146.22.146s.161.067.22.147c.059.08.154.147.22.147s.161.066.22.147c.059.08.161.146.235.146.073 0 .132.03.132.074 0 .037.066.073.147.073.08 0 .146.03.146.074 0 .036.066.073.147.073.08 0 .147.03.147.073 0 .037.103.074.22.074.125 0 .22.029.22.073 0 .037.066.073.147.073.08 0 .147.03.147.074 0 .036.102.073.22.073.124 0 .22.03.22.073 0 .037.103.074.22.074.125 0 .22.03.22.073 0 .037.132.074.293.074.162 0 .294.029.294.073 0 .037.169.073.367.073.205 0 .367.03.367.074s.337.073.873.073c.63 0 .888.03.917.088.037.074.051.074.088 0 .03-.066.404-.088 1.504-.088.925 0 1.46-.03 1.46-.073 0-.044.22-.074.514-.074.293 0 .514-.029.514-.073s.198-.073.44-.073.44-.03.44-.074.169-.073.367-.073c.205 0 .367-.037.367-.074 0-.044.132-.073.293-.073.161 0 .294-.037.294-.073 0-.044.132-.074.293-.074.162 0 .294-.036.294-.073 0-.044.102-.073.22-.073.124 0 .22-.037.22-.074 0-.044.102-.073.22-.073.125 0 .22-.037.22-.073 0-.044.066-.074.147-.074.08 0 .146-.036.146-.073 0-.044.067-.074.147-.074.081 0 .147-.036.147-.073 0-.044.103-.073.22-.073.125 0 .22-.037.22-.074 0-.044.066-.073.147-.073.08 0 .147-.037.147-.073 0-.044.066-.074.147-.074.08 0 .146-.037.146-.073 0-.044.066-.074.147-.074.08 0 .147-.036.147-.073 0-.044.051-.073.11-.073.066 0 .198-.081.293-.184.162-.154.184-.242.184-.66 0-.272-.03-.477-.074-.477-.036 0-.073-.103-.073-.22 0-.125-.03-.22-.073-.22-.044 0-.074-.88-.074-2.495 0-1.614.03-2.494.074-2.494s.073-.118.073-.257c0-.316.271-.624.55-.624.103 0 .184-.037.184-.073 0-.044.102-.074.22-.074.124 0 .22-.036.22-.073 0-.044.132-.073.293-.073.162 0 .294-.037.294-.074 0-.044.117-.073.264-.073.404 0 .47-.118.47-.837v-.63h-.88c-.536 0-.881.029-.881.073 0 .051-1.123.073-3.229.073-2.105 0-3.228-.022-3.228-.073 0-.125-1.68-.096-1.805.03-.073.073-.103.278-.103.66v.557h.294c.161 0 .293.03.293.073 0 .044.22.074.514.074.293 0 .514.03.514.073 0 .037.102.074.22.074.124 0 .22.029.22.073 0 .037.08.073.183.073.213 0 .55.294.55.477 0 .059.037.11.074.11.044 0 .073.162.073.367 0 .198.037.367.073.367.045 0 .074.976.074 2.788 0 1.812-.03 2.788-.074 2.788-.036 0-.073.066-.073.147 0 .095-.051.147-.147.147-.08 0-.146.03-.146.073 0 .037-.066.073-.147.073-.08 0-.147.03-.147.074 0 .037-.095.073-.22.073-.117 0-.22.03-.22.074 0 .036-.132.073-.293.073-.162 0-.294.03-.294.073 0 .044-.198.074-.44.074s-.44.029-.44.073-.367.073-.954.073-.954-.029-.954-.073-.198-.073-.44-.073c-.243 0-.44-.03-.44-.074s-.133-.073-.294-.073c-.161 0-.294-.037-.294-.073 0-.044-.095-.074-.22-.074-.117 0-.22-.037-.22-.073 0-.044-.066-.073-.147-.073-.08 0-.146-.037-.146-.074 0-.044-.066-.073-.147-.073-.08 0-.147-.037-.147-.074 0-.044-.066-.073-.146-.073-.081 0-.147-.037-.147-.073 0-.044-.059-.074-.132-.074-.074 0-.176-.066-.235-.146-.059-.081-.154-.147-.22-.147s-.162-.066-.22-.147c-.059-.08-.147-.147-.198-.147-.118 0-1.637-1.504-1.637-1.621 0-.044-.095-.176-.22-.286-.117-.11-.22-.25-.22-.309 0-.05-.066-.146-.147-.205-.08-.059-.146-.161-.146-.235 0-.073-.03-.132-.074-.132-.036 0-.073-.066-.073-.147 0-.08-.03-.146-.073-.146-.037 0-.074-.066-.074-.147 0-.08-.03-.147-.073-.147-.037 0-.074-.066-.074-.147 0-.08-.029-.146-.073-.146-.037 0-.073-.066-.073-.147 0-.08-.03-.147-.074-.147-.036 0-.073-.066-.073-.147 0-.08-.03-.146-.073-.146-.037 0-.074-.103-.074-.22 0-.125-.03-.22-.073-.22-.037 0-.074-.103-.074-.22 0-.125-.029-.22-.073-.22-.037 0-.073-.104-.073-.22 0-.126-.03-.221-.074-.221-.036 0-.073-.132-.073-.294 0-.16-.03-.293-.073-.293-.037 0-.074-.132-.074-.293 0-.162-.03-.294-.073-.294-.044 0-.074-.22-.074-.514 0-.293-.029-.513-.073-.513s-.073-.639-.073-1.761c0-1.123.03-1.761.073-1.761.044 0 .073-.22.073-.514 0-.293.03-.513.074-.513s.073-.169.073-.367c0-.206.037-.367.074-.367.044 0 .073-.132.073-.293 0-.162.037-.294.073-.294.044 0 .074-.103.074-.22 0-.125.036-.22.073-.22.044 0 .073-.103.073-.22 0-.125.037-.22.074-.22.044 0 .073-.066.073-.147 0-.08.037-.147.074-.147.044 0 .073-.103.073-.22 0-.125.037-.22.073-.22.044 0 .074-.066.074-.147 0-.08.036-.146.073-.146.044 0 .073-.067.073-.147 0-.081.037-.147.074-.147.044 0 .073-.059.073-.132 0-.074.066-.176.147-.235.08-.059.147-.154.147-.205 0-.059.102-.198.22-.309.124-.11.22-.242.22-.286 0-.117 1.225-1.328 1.343-1.328.05 0 .139-.066.198-.146.058-.081.161-.147.234-.147.074 0 .132-.037.132-.073 0-.044.06-.074.133-.074.073 0 .176-.066.234-.147.06-.088.191-.146.309-.146.11 0 .205-.037.205-.074 0-.044.066-.073.147-.073.08 0 .147-.037.147-.073 0-.044.132-.074.293-.074.161 0 .293-.037.293-.073 0-.044.17-.074.367-.074.206 0 .367-.036.367-.073 0-.044.44-.073 1.174-.073s1.174.029 1.174.073.198.073.44.073.44.03.44.074c0 .037.133.073.294.073.161 0 .294.03.294.074 0 .036.102.073.22.073.124 0 .22.03.22.073 0 .037.102.074.22.074.125 0 .22.029.22.073 0 .037.066.073.147.073.08 0 .146.03.146.074 0 .036.066.073.147.073.08 0 .147.03.147.074 0 .036.059.073.132.073.073 0 .176.066.235.147.059.08.154.146.22.146s.161.066.22.147c.059.08.147.147.198.147.118 0 .756.623.756.74 0 .045.103.177.22.287.125.11.22.257.22.323s.037.117.073.117c.044 0 .074.066.074.147 0 .08.037.147.073.147.044 0 .074.066.074.146 0 .081.036.147.073.147.044 0 .073.066.073.147 0 .08.037.147.074.147.044 0 .073.066.073.146 0 .081.037.147.073.147.044 0 .074.096.074.22 0 .118.036.22.073.22.044 0 .073.088.073.191 0 .33.147.396.881.396.484 0 .697-.029.778-.102.124-.125.154-1.805.03-1.805-.045 0-.074-.316-.074-.807 0-.492-.03-.807-.074-.807S97 12.319 97 11.879s-.03-.734-.073-.734c-.044 0-.074-.198-.074-.44 0-.389-.014-.44-.147-.44-.08 0-.146-.037-.146-.074 0-.044-.132-.073-.294-.073-.161 0-.293-.037-.293-.073 0-.044-.162-.074-.367-.074-.198 0-.367-.036-.367-.073 0-.044-.132-.074-.293-.074-.162 0-.294-.036-.294-.073 0-.044-.161-.073-.367-.073-.198 0-.367-.037-.367-.074 0-.044-.132-.073-.293-.073-.161 0-.294-.037-.294-.073 0-.044-.198-.074-.44-.074s-.44-.03-.44-.073c0-.044-.198-.074-.44-.074s-.44-.029-.44-.073-.243-.073-.587-.073c-.345 0-.588-.03-.588-.074s-.755-.073-2.127-.073c-1.372 0-2.128.03-2.128.073zm79.827 0c0 .044-.859.074-2.422.074-1.562 0-2.421.03-2.421.073 0 .051-1.519.074-4.402.074-2.884 0-4.403-.023-4.403-.074 0-.125-1.239-.095-1.364.03-.074.073-.103.278-.103.66 0 .506.015.557.147.557.081 0 .147.03.147.074s.22.073.513.073c.294 0 .514.03.514.074 0 .036.102.073.22.073.125 0 .22.03.22.073 0 .037.103.074.22.074.125 0 .22.029.22.073 0 .037.052.073.118.073.146 0 .322.177.322.323 0 .066.037.118.074.118.044 0 .073.22.073.513 0 .294.03.514.074.514.051 0 .073 3.082.073 9.098 0 6.016-.022 9.098-.073 9.098-.044 0-.074.206-.074.477 0 .455-.015.499-.257.734-.154.161-.322.256-.44.256-.103 0-.183.03-.183.074 0 .036-.096.073-.22.073-.118 0-.221.03-.221.074 0 .036-.161.073-.366.073-.198 0-.367.03-.367.073 0 .037-.132.074-.294.074h-.293v1.32h.88c.536 0 .881-.029.881-.073 0-.051 1.1-.073 3.155-.073 2.054 0 3.155.022 3.155.073 0 .044.455.073 1.218.073 1.43 0 1.423 0 1.423-.66 0-.499-.095-.66-.396-.66-.103 0-.191-.037-.191-.074 0-.044-.161-.073-.367-.073-.198 0-.367-.037-.367-.073 0-.044-.095-.074-.22-.074-.117 0-.22-.037-.22-.073 0-.044-.095-.074-.22-.074-.117 0-.22-.036-.22-.073 0-.044-.095-.073-.22-.073-.118 0-.22-.037-.22-.074 0-.044-.052-.073-.11-.073-.213 0-.477-.345-.477-.624 0-.14-.03-.256-.074-.256-.036 0-.073-.17-.073-.367 0-.206-.029-.367-.073-.367-.052 0-.074-1.32-.074-3.816v-3.815h.294c.161 0 .293-.037.293-.073 0-.044.756-.074 2.128-.074s2.128.03 2.128.074.198.073.44.073.44.03.44.073c0 .037.052.074.11.074.147 0 .477.33.477.477 0 .058.037.11.074.11.044 0 .073.066.073.147 0 .08.037.146.073.146.044 0 .074.132.074.294 0 .161.036.293.073.293.044 0 .073.096.073.22 0 .118.037.22.074.22.044 0 .073.089.073.191 0 .323.147.397.837.397h.631v-3.67c0-3.616 0-3.668-.147-3.668-.081 0-.147-.036-.147-.073 0-.044-.213-.073-.484-.073-.558 0-.69.088-.69.47 0 .146-.029.263-.073.263-.037 0-.074.132-.074.294 0 .161-.029.293-.073.293-.037 0-.073.096-.073.22 0 .118-.03.22-.074.22-.036 0-.073.081-.073.184 0 .213-.294.55-.477.55-.059 0-.11.03-.11.074s-.991.073-2.832.073c-2.355 0-2.847-.015-2.935-.103-.088-.088-.103-.748-.103-4.182 0-2.67.022-4.08.074-4.08.044 0 .073-.117.073-.264 0-.278.132-.47.323-.47.066 0 .117-.036.117-.072 0-.044.22-.074.514-.074.293 0 .513-.03.513-.073 0-.044.683-.074 1.908-.074 1.225 0 1.908.03 1.908.074s.198.073.44.073.44.03.44.074c0 .036.103.073.22.073.125 0 .22.03.22.073 0 .037.066.074.147.074.081 0 .147.029.147.073 0 .037.066.073.147.073.08 0 .146.03.146.074 0 .036.059.073.132.073.074 0 .177.066.235.147.059.08.147.147.198.147.125 0 .756.63.756.755 0 .052.066.14.147.198.081.06.147.155.147.22 0 .067.066.162.146.22.081.06.147.162.147.236 0 .073.037.132.073.132.044 0 .074.095.074.22 0 .117.036.22.073.22.044 0 .074.066.074.146 0 .118.051.147.22.147.124 0 .22.03.22.074 0 .036.102.073.22.073.125 0 .22-.037.22-.073 0-.044.132-.074.293-.074.279 0 .294-.014.294-.22 0-.125-.029-.22-.073-.22-.037 0-.074-.169-.074-.367 0-.205-.029-.367-.073-.367-.037 0-.074-.132-.074-.293 0-.162-.029-.294-.073-.294-.037 0-.073-.168-.073-.367 0-.205-.03-.366-.074-.366-.036 0-.073-.132-.073-.294 0-.161-.029-.293-.073-.293-.037 0-.074-.17-.074-.367 0-.206-.029-.367-.073-.367-.037 0-.073-.169-.073-.367 0-.205-.03-.367-.074-.367-.037 0-.073-.183-.073-.41 0-.602-.03-.617-1.204-.617-.616 0-.997.03-.997.073zm47.252 0c0 .037-.051.074-.117.074-.139 0-.323.176-.323.308 0 .059-.066.147-.147.205-.08.06-.146.162-.146.235 0 .074-.03.132-.074.132-.036 0-.073.066-.073.147 0 .08-.03.147-.074.147-.036 0-.073.066-.073.146 0 .081-.029.147-.073.147-.037 0-.074.066-.074.147 0 .08-.029.147-.073.147-.037 0-.073.095-.073.22 0 .117-.03.22-.074.22-.036 0-.073.066-.073.147 0 .08-.029.146-.074.146-.036 0-.073.066-.073.147 0 .08-.029.147-.073.147-.037 0-.074.095-.074.22 0 .117-.029.22-.073.22-.037 0-.073.066-.073.147 0 .08-.03.147-.074.147-.036 0-.073.095-.073.22 0 .117-.029.22-.073.22-.037 0-.074.066-.074.147 0 .08-.029.146-.073.146-.037 0-.074.066-.074.147 0 .08-.029.147-.073.147-.037 0-.073.095-.073.22 0 .117-.03.22-.074.22-.036 0-.073.066-.073.147 0 .08-.029.146-.073.146-.037 0-.074.096-.074.22 0 .118-.029.22-.073.22-.037 0-.074.067-.074.147 0 .081-.029.147-.073.147-.037 0-.073.096-.073.22 0 .118-.03.22-.074.22-.036 0-.073.066-.073.147 0 .08-.029.147-.073.147-.037 0-.074.066-.074.147 0 .08-.029.146-.073.146-.037 0-.074.096-.074.22 0 .118-.029.22-.073.22-.037 0-.073.067-.073.147 0 .081-.03.147-.074.147-.036 0-.073.096-.073.22 0 .118-.029.22-.073.22-.037 0-.074.066-.074.147 0 .08-.029.147-.073.147-.037 0-.074.066-.074.147 0 .08-.029.146-.073.146-.037 0-.073.096-.073.22 0 .118-.03.22-.074.22-.036 0-.073.067-.073.147 0 .081-.029.147-.073.147-.037 0-.074.095-.074.22 0 .118-.029.22-.073.22-.037 0-.073.066-.073.147 0 .08-.03.147-.074.147-.037 0-.073.095-.073.22 0 .117-.03.22-.074.22-.036 0-.073.066-.073.147 0 .08-.029.146-.073.146-.037 0-.074.067-.074.147 0 .081-.029.147-.073.147-.037 0-.073.095-.073.22 0 .117-.03.22-.074.22-.037 0-.073.066-.073.147 0 .08-.03.147-.074.147-.036 0-.073.095-.073.22 0 .117-.029.22-.073.22-.037 0-.074.066-.074.147 0 .08-.029.146-.073.146-.037 0-.073.067-.073.147 0 .08-.03.147-.074.147-.036 0-.073.095-.073.22 0 .117-.03.22-.074.22-.036 0-.073.066-.073.147 0 .08-.029.147-.073.147-.037 0-.074.095-.074.22 0 .117-.029.22-.073.22-.037 0-.073.066-.073.147 0 .08-.03.146-.074.146-.036 0-.073.096-.073.22 0 .118-.029.22-.074.22-.036 0-.073.067-.073.147 0 .081-.029.147-.073.147-.037 0-.074.066-.074.147 0 .08-.029.146-.073.146-.037 0-.073.096-.073.22 0 .118-.03.22-.074.22-.036 0-.073.067-.073.148 0 .08-.029.146-.073.146-.037 0-.074.096-.074.22 0 .118-.029.22-.073.22-.037 0-.074.067-.074.147 0 .08-.029.147-.073.147-.037 0-.073.066-.073.147 0 .08-.03.146-.074.146-.036 0-.073.096-.073.22 0 .118-.029.22-.073.22-.037 0-.074.067-.074.147 0 .081-.029.147-.073.147-.037 0-.074.096-.074.22 0 .118-.029.22-.073.22-.037 0-.073.067-.073.147 0 .08-.03.147-.074.147-.036 0-.073.095-.073.22 0 .117-.029.22-.073.22-.037 0-.074.066-.074.147 0 .08-.029.147-.073.147-.037 0-.074.066-.074.146 0 .081-.029.147-.073.147-.037 0-.073.096-.073.22 0 .118-.03.22-.074.22-.036 0-.073.066-.073.147 0 .08-.029.147-.073.147-.037 0-.074.066-.074.147 0 .08-.029.146-.073.146-.037 0-.074.066-.074.147 0 .08-.029.147-.073.147-.037 0-.073.066-.073.146 0 .081-.03.147-.074.147-.036 0-.073.066-.073.147 0 .08-.029.147-.073.147-.037 0-.074.066-.074.146 0 .081-.029.147-.073.147-.037 0-.073.052-.073.11 0 .191-.631.77-.844.77-.103 0-.184.03-.184.074 0 .037-.066.074-.146.074-.081 0-.147.029-.147.073 0 .036-.096.073-.22.073-.118 0-.22.03-.22.074 0 .036-.132.073-.294.073-.161 0-.293.03-.293.073 0 .037-.132.074-.294.074h-.293v.557c0 .749.022.763.983.763.469 0 .778-.029.778-.073s.902-.073 2.568-.073c1.665 0 2.568.029 2.568.073s.366.073.953.073h.954v-1.32h-.293c-.162 0-.294-.037-.294-.074 0-.044-.161-.073-.367-.073-.198 0-.366-.037-.366-.073 0-.044-.096-.074-.221-.074-.117 0-.22-.037-.22-.073 0-.044-.095-.074-.22-.074-.117 0-.22-.036-.22-.073 0-.044-.051-.073-.117-.073-.147 0-.323-.176-.323-.323 0-.066-.029-.117-.074-.117-.036 0-.073-.17-.073-.367 0-.206.037-.367.073-.367.045 0 .074-.132.074-.294 0-.161.037-.293.073-.293.044 0 .074-.103.074-.22 0-.125.036-.22.073-.22.044 0 .073-.103.073-.22 0-.125.037-.22.074-.22.044 0 .073-.067.073-.147 0-.081.037-.147.073-.147.044 0 .074-.103.074-.22 0-.125.037-.22.073-.22.044 0 .074-.066.074-.147 0-.08.036-.147.073-.147.044 0 .073-.103.073-.22 0-.125.037-.22.074-.22.044 0 .073-.066.073-.147 0-.08.037-.147.073-.147.044 0 .074-.066.074-.146 0-.081.036-.147.073-.147.044 0 .074-.103.074-.22 0-.125.036-.22.073-.22.044 0 .073-.066.073-.147 0-.08.037-.147.074-.147.044 0 .073-.102.073-.22 0-.125.037-.22.073-.22.044 0 .074-.066.074-.147 0-.08.036-.146.073-.146.044 0 .074-.103.074-.22v-.22h.586c.345 0 .587-.03.587-.074 0-.052 1.116-.073 3.192-.073h3.199l.176.183c.103.095.184.264.184.367 0 .102.036.183.073.183.044 0 .073.066.073.147 0 .08.037.147.074.147.044 0 .073.095.073.22 0 .117.037.22.074.22.044 0 .073.095.073.22 0 .117.037.22.073.22.044 0 .074.066.074.147 0 .08.036.147.073.147.044 0 .073.095.073.22 0 .117.037.22.074.22.044 0 .073.066.073.147 0 .08.037.146.073.146.045 0 .074.096.074.22 0 .118.037.22.073.22.044 0 .074.096.074.22 0 .118.036.22.073.22.044 0 .073.096.073.221 0 .117.037.22.074.22.044 0 .073.096.073.22 0 .118.037.22.073.22.044 0 .074.096.074.22 0 .118.037.22.073.22.044 0 .074.133.074.294 0 .161.036.294.073.294.044 0 .073.16.073.366 0 .198-.029.367-.073.367-.037 0-.073.052-.073.118 0 .168-.184.323-.397.323-.102 0-.19.029-.19.073 0 .036-.096.073-.221.073-.117 0-.22.03-.22.074 0 .036-.132.073-.293.073-.162 0-.294.03-.294.073 0 .037-.132.074-.293.074h-.294v1.32h1.248c.785 0 1.247-.029 1.247-.073s.859-.073 2.421-.073c1.563 0 2.422.029 2.422.073s.462.073 1.247.073h1.247v-1.32h-.293c-.162 0-.294-.037-.294-.074 0-.044-.132-.073-.293-.073-.162 0-.294-.037-.294-.073 0-.044-.095-.074-.22-.074-.117 0-.22-.037-.22-.073 0-.044-.066-.074-.147-.074-.08 0-.146-.036-.146-.073 0-.044-.052-.073-.11-.073-.147 0-.771-.624-.771-.77 0-.06-.029-.11-.073-.11-.037 0-.074-.104-.074-.22 0-.126-.029-.221-.073-.221-.037 0-.073-.066-.073-.147 0-.08-.03-.146-.074-.146-.036 0-.073-.103-.073-.22 0-.125-.029-.22-.073-.22-.037 0-.074-.067-.074-.147 0-.081-.029-.147-.073-.147-.037 0-.074-.066-.074-.147 0-.08-.029-.147-.073-.147-.037 0-.073-.102-.073-.22 0-.124-.03-.22-.074-.22-.036 0-.073-.066-.073-.147 0-.08-.029-.146-.073-.146-.037 0-.074-.103-.074-.22 0-.125-.029-.22-.073-.22-.037 0-.074-.067-.074-.147 0-.081-.029-.147-.073-.147-.037 0-.073-.103-.073-.22 0-.125-.03-.22-.074-.22-.036 0-.073-.066-.073-.147 0-.08-.029-.147-.073-.147-.037 0-.074-.102-.074-.22 0-.125-.029-.22-.073-.22-.037 0-.074-.066-.074-.147 0-.08-.029-.146-.073-.146-.037 0-.073-.103-.073-.22 0-.125-.03-.22-.074-.22-.036 0-.073-.067-.073-.147 0-.081-.029-.147-.073-.147-.037 0-.074-.103-.074-.22 0-.125-.029-.22-.073-.22-.037 0-.074-.067-.074-.147 0-.08-.029-.147-.073-.147-.037 0-.073-.103-.073-.22 0-.125-.03-.22-.074-.22-.036 0-.073-.066-.073-.147 0-.08-.029-.147-.073-.147-.037 0-.074-.102-.074-.22 0-.125-.029-.22-.073-.22-.037 0-.074-.066-.074-.147 0-.08-.029-.146-.073-.146-.037 0-.073-.103-.073-.22 0-.125-.03-.22-.074-.22-.036 0-.073-.067-.073-.147 0-.081-.029-.147-.073-.147-.037 0-.074-.103-.074-.22 0-.125-.029-.22-.073-.22-.037 0-.073-.066-.073-.147 0-.08-.03-.147-.074-.147-.037 0-.073-.103-.073-.22 0-.125-.03-.22-.074-.22-.036 0-.073-.066-.073-.147 0-.08-.029-.147-.073-.147-.037 0-.074-.102-.074-.22 0-.124-.029-.22-.073-.22-.037 0-.073-.066-.073-.146 0-.081-.03-.147-.074-.147-.037 0-.073-.103-.073-.22 0-.125-.03-.22-.074-.22-.036 0-.073-.067-.073-.147 0-.08-.029-.147-.073-.147-.037 0-.074-.103-.074-.22 0-.125-.029-.22-.073-.22-.037 0-.073-.066-.073-.147 0-.08-.03-.147-.074-.147-.036 0-.073-.102-.073-.22 0-.125-.03-.22-.074-.22-.036 0-.073-.066-.073-.147 0-.08-.029-.146-.073-.146-.037 0-.074-.103-.074-.22 0-.125-.029-.22-.073-.22-.037 0-.073-.067-.073-.147 0-.081-.03-.147-.074-.147-.036 0-.073-.103-.073-.22 0-.125-.029-.22-.074-.22-.036 0-.073-.066-.073-.147 0-.08-.029-.147-.073-.147-.037 0-.074-.103-.074-.22 0-.125-.029-.22-.073-.22-.037 0-.073-.066-.073-.147 0-.08-.03-.147-.074-.147-.036 0-.073-.066-.073-.146 0-.081-.029-.147-.073-.147-.037 0-.074-.103-.074-.22 0-.125-.029-.22-.073-.22-.037 0-.074-.066-.074-.147 0-.08-.029-.147-.073-.147-.037 0-.073-.102-.073-.22 0-.125-.03-.22-.074-.22-.036 0-.073-.066-.073-.147 0-.08-.029-.146-.073-.146-.037 0-.074-.103-.074-.22 0-.125-.029-.22-.073-.22-.037 0-.074-.067-.074-.147 0-.081-.029-.147-.073-.147-.037 0-.073-.103-.073-.22 0-.125-.03-.22-.074-.22-.036 0-.073-.066-.073-.147 0-.08-.029-.147-.073-.147-.037 0-.074-.103-.074-.22 0-.125-.029-.22-.073-.22-.037 0-.074-.066-.074-.147 0-.08-.029-.147-.073-.147-.037 0-.073-.102-.073-.22 0-.124-.03-.22-.074-.22-.036 0-.073-.066-.073-.147 0-.08-.029-.146-.073-.146-.037 0-.074-.103-.074-.22 0-.125-.029-.22-.073-.22-.037 0-.074-.067-.074-.147 0-.081-.029-.147-.073-.147-.037 0-.073-.103-.073-.22 0-.125-.03-.22-.074-.22-.036 0-.073-.066-.073-.147 0-.08-.029-.147-.073-.147-.037 0-.074-.103-.074-.22 0-.125-.029-.22-.073-.22-.037 0-.073-.051-.073-.11 0-.066-.081-.198-.184-.294-.132-.139-.257-.183-.514-.183-.183 0-.33.03-.33.073zm-.543 6.927a.47.47 0 01.103.293c0 .103.037.19.073.19.044 0 .074.067.074.148 0 .08.037.146.073.146.044 0 .074.096.074.22 0 .118.036.22.073.22.044 0 .073.096.073.22 0 .118.037.22.074.22.044 0 .073.067.073.148 0 .08.037.146.073.146.044 0 .074.096.074.22 0 .118.036.22.073.22.044 0 .074.096.074.22 0 .118.036.22.073.22.044 0 .073.067.073.148 0 .08.037.146.074.146.044 0 .073.096.073.22 0 .118.037.22.073.22.044 0 .074.067.074.147 0 .081.036.147.073.147.044 0 .074.095.074.22 0 .117.036.22.073.22.044 0 .073.096.073.22 0 .118.037.22.074.22.044 0 .073.067.073.147 0 .08.037.147.073.147.044 0 .074.095.074.22 0 .117.036.22.073.22.044 0 .073.096.073.22 0 .118.037.22.074.22.044 0 .073.067.073.147 0 .08.037.147.074.147.044 0 .073.095.073.22 0 .117.037.22.073.22.044 0 .074.095.074.22v.22h-5.577v-.22c0-.125.037-.22.074-.22.044 0 .073-.066.073-.147 0-.08.037-.146.074-.146.044 0 .073-.103.073-.22 0-.125.037-.22.073-.22.044 0 .074-.067.074-.147 0-.081.036-.147.073-.147.044 0 .073-.103.073-.22 0-.125.037-.22.074-.22.044 0 .073-.066.073-.147 0-.08.037-.147.074-.147.044 0 .073-.102.073-.22 0-.125.037-.22.073-.22.044 0 .074-.066.074-.147 0-.08.036-.146.073-.146.044 0 .073-.103.073-.22 0-.125.037-.22.074-.22.044 0 .073-.067.073-.148 0-.08.037-.146.074-.146.044 0 .073-.066.073-.147 0-.08.037-.147.073-.147.044 0 .074-.102.074-.22 0-.125.036-.22.073-.22.044 0 .073-.066.073-.147 0-.08.037-.146.074-.146.044 0 .073-.103.073-.22 0-.125.037-.22.073-.22.045 0 .074-.067.074-.147 0-.081.037-.147.073-.147.044 0 .074-.103.074-.22 0-.125.036-.22.073-.22.044 0 .073-.066.073-.147 0-.08.037-.147.074-.147.044 0 .073-.066.073-.147 0-.08.037-.146.073-.146.044 0 .074-.103.074-.22 0-.125.037-.22.073-.22.044 0 .074-.067.074-.147 0-.176.044-.184.19-.044zM101.839 9.751v.66h.293c.162 0 .294.03.294.074 0 .037.132.073.293.073.162 0 .294.03.294.074 0 .036.103.073.22.073.125 0 .22.03.22.073 0 .037.103.074.22.074.125 0 .22.029.22.073 0 .037.052.073.118.073.146 0 .323.177.323.323 0 .066.036.118.073.118.044 0 .073.198.073.44s.03.44.074.44c.051 0 .073 2.032.073 5.943 0 3.91.022 5.943.073 5.943.044 0 .074.294.074.734s.029.734.073.734.073.198.073.44.03.44.074.44.073.132.073.294c0 .161.037.293.074.293.044 0 .073.132.073.294 0 .161.037.293.073.293.044 0 .074.096.074.22 0 .118.036.22.073.22.044 0 .073.096.073.22 0 .118.037.22.074.22.044 0 .073.067.073.147 0 .081.037.147.074.147.044 0 .073.066.073.147 0 .08.037.147.073.147.044 0 .074.066.074.146 0 .081.036.147.073.147.044 0 .073.066.073.147 0 .08.037.147.074.147.044 0 .073.058.073.132 0 .073.066.176.147.234.081.06.147.154.147.206 0 .051.132.227.293.381.162.155.294.316.294.367 0 .103.337.44.44.44.051 0 .213.133.367.294.154.161.33.294.381.294.052 0 .147.066.206.146.058.08.154.147.22.147s.161.066.22.147c.059.08.161.146.235.146.073 0 .132.03.132.074 0 .037.066.073.147.073.08 0 .146.03.146.074 0 .036.066.073.147.073.081 0 .147.03.147.073 0 .037.102.074.22.074.125 0 .22.029.22.073 0 .037.066.073.147.073.08 0 .146.03.146.074 0 .036.133.073.294.073.161 0 .293.03.293.073 0 .037.133.074.294.074.161 0 .293.03.293.073 0 .044.221.074.514.074.294 0 .514.029.514.073s.535.073 1.467.073 1.467-.029 1.467-.073.221-.073.514-.073c.294 0 .514-.03.514-.074s.168-.073.367-.073c.205 0 .366-.037.366-.074 0-.044.103-.073.221-.073.124 0 .22-.037.22-.073 0-.044.102-.074.22-.074.124 0 .22-.036.22-.073 0-.044.103-.073.22-.073.125 0 .22-.037.22-.074 0-.044.066-.073.147-.073.081 0 .147-.037.147-.073 0-.044.058-.074.132-.074.073 0 .176-.066.234-.147.059-.08.162-.146.235-.146.074 0 .132-.037.132-.074 0-.044.052-.073.118-.073s.212-.103.323-.22c.11-.125.242-.22.286-.22.044 0 .33-.25.631-.55.3-.301.55-.587.55-.632 0-.044.103-.176.22-.286.125-.11.22-.256.22-.323 0-.066.037-.117.074-.117.044 0 .073-.059.073-.132 0-.073.066-.176.147-.235.08-.058.146-.161.146-.235 0-.073.037-.132.074-.132.044 0 .073-.102.073-.22 0-.124.037-.22.074-.22.044 0 .073-.066.073-.147 0-.08.037-.146.073-.146.044 0 .074-.103.074-.22 0-.125.036-.22.073-.22.044 0 .073-.133.073-.294 0-.162.037-.294.074-.294.044 0 .073-.132.073-.293 0-.162.037-.294.074-.294.044 0 .073-.168.073-.366 0-.206.037-.367.073-.367.044 0 .074-.272.074-.66 0-.39.029-.661.073-.661.051 0 .073-2.054.073-6.016s.022-6.017.074-6.017c.044 0 .073-.198.073-.44s.029-.44.073-.44c.045 0 .074-.103.074-.22 0-.125.037-.22.073-.22.044 0 .074-.052.074-.118 0-.147.176-.323.322-.323.066 0 .118-.037.118-.073 0-.044.066-.074.147-.074.08 0 .146-.036.146-.073 0-.044.066-.073.147-.073.081 0 .147-.037.147-.074 0-.044.132-.073.293-.073.162 0 .294-.037.294-.073 0-.044.132-.074.293-.074.162 0 .294-.037.294-.073 0-.044.198-.074.44-.074h.44v-1.32h-.954c-.587 0-.953.03-.953.073 0 .044-.389.074-1.028.074-.638 0-1.027.029-1.027.073s-.198.073-.44.073-.44-.03-.44-.073c0-.044-.536-.073-1.468-.073-.932 0-1.467-.03-1.467-.074 0-.125-1.387-.095-1.512.03-.139.146-.139.968 0 1.115.059.058.25.102.441.102.183 0 .337.03.337.074 0 .037.132.073.294.073.161 0 .293.03.293.074 0 .036.103.073.22.073.125 0 .22.03.22.073 0 .037.103.074.22.074.125 0 .221.029.221.073 0 .037.066.073.146.073.081 0 .147.03.147.074 0 .037.051.073.11.073.213 0 .477.345.477.624 0 .14.037.257.073.257.044 0 .074.242.074.587 0 .344.029.587.073.587.051 0 .073 1.907.073 5.576 0 3.668-.022 5.576-.073 5.576-.044 0-.073.294-.073.734s-.03.734-.074.734c-.036 0-.073.16-.073.366 0 .198-.029.367-.073.367-.037 0-.074.132-.074.294 0 .161-.029.293-.073.293-.037 0-.074.096-.074.22 0 .118-.029.22-.073.22-.037 0-.073.067-.073.147 0 .08-.03.147-.074.147-.036 0-.073.095-.073.22 0 .117-.029.22-.073.22-.037 0-.074.059-.074.132 0 .074-.066.176-.146.235-.081.059-.147.147-.147.198 0 .14-1.365 1.49-1.504 1.49-.059 0-.11.029-.11.073 0 .037-.059.073-.132.073-.074 0-.177.066-.235.147-.059.088-.191.147-.308.147-.11 0-.206.03-.206.073 0 .037-.066.073-.147.073-.08 0-.146.03-.146.074 0 .037-.132.073-.294.073-.161 0-.293.03-.293.074s-.198.073-.441.073c-.242 0-.44.03-.44.073 0 .044-.293.074-.733.074-.441 0-.734-.03-.734-.074s-.162-.073-.367-.073c-.198 0-.367-.037-.367-.073 0-.044-.095-.074-.22-.074-.117 0-.22-.036-.22-.073 0-.044-.096-.073-.22-.073-.118 0-.22-.037-.22-.074 0-.044-.066-.073-.147-.073-.081 0-.147-.037-.147-.074 0-.044-.059-.073-.132-.073-.073 0-.176-.066-.235-.147-.058-.08-.146-.146-.198-.146-.117 0-1.196-1.064-1.196-1.182 0-.044-.095-.176-.22-.286-.117-.11-.22-.257-.22-.323s-.029-.117-.073-.117c-.037 0-.074-.066-.074-.147 0-.08-.029-.147-.073-.147-.037 0-.074-.066-.074-.146 0-.081-.029-.147-.073-.147-.037 0-.073-.066-.073-.147 0-.08-.03-.147-.074-.147-.036 0-.073-.102-.073-.22 0-.124-.029-.22-.073-.22-.037 0-.074-.102-.074-.22 0-.125-.029-.22-.073-.22-.037 0-.073-.103-.073-.22 0-.125-.03-.22-.074-.22-.037 0-.073-.169-.073-.367 0-.206-.03-.367-.074-.367s-.073-.22-.073-.514c0-.293-.029-.513-.073-.513-.052 0-.074-2.003-.074-5.87s.022-5.87.074-5.87c.044 0 .073-.242.073-.587s.029-.587.073-.587.074-.088.074-.19c0-.213.154-.397.323-.397.066 0 .117-.036.117-.073 0-.044.103-.073.22-.073.125 0 .22-.037.22-.074 0-.044.103-.073.22-.073.125 0 .22-.037.22-.073 0-.044.169-.074.367-.074.206 0 .367-.037.367-.073 0-.044.103-.074.22-.074h.22v-1.32h-1.027c-.638 0-1.027.03-1.027.073 0 .044-.976.074-2.788.074-1.812 0-2.788-.03-2.788-.074s-.44-.073-1.174-.073h-1.174v.66zm27.442 0v.66h.293c.161 0 .294.03.294.074 0 .037.132.073.293.073.161 0 .293.03.293.074 0 .036.103.073.221.073.124 0 .22.03.22.073 0 .037.102.074.22.074.125 0 .22.029.22.073 0 .037.051.073.117.073.169 0 .323.184.323.397 0 .102.037.19.074.19.044 0 .073.22.073.514 0 .293.029.514.073.514.052 0 .074 3.03.074 8.95 0 5.922-.022 8.952-.074 8.952-.044 0-.073.22-.073.514 0 .293-.029.514-.073.514-.037 0-.074.05-.074.11 0 .183-.337.477-.55.477-.103 0-.184.029-.184.073 0 .036-.095.073-.22.073-.117 0-.22.03-.22.074 0 .036-.161.073-.367.073-.198 0-.366.03-.366.073 0 .037-.133.074-.294.074-.279 0-.293.014-.293.22 0 .117-.03.22-.074.22-.037 0-.073.095-.073.22 0 .117.036.22.073.22.044 0 .074.095.074.22v.22h1.907c1.226 0 1.908-.029 1.908-.073 0-.051 1.372-.073 3.962-.073s3.962.022 3.962.073 1.079.073 3.082.073h3.081v-.293c0-.162.037-.294.074-.294.044 0 .073-.132.073-.293 0-.161.037-.294.073-.294.044 0 .074-.132.074-.293 0-.162.036-.294.073-.294.044 0 .073-.102.073-.22 0-.124.037-.22.074-.22.044 0 .073-.102.073-.22 0-.125.037-.22.074-.22.044 0 .073-.103.073-.22 0-.125.037-.22.073-.22.044 0 .074-.066.074-.147 0-.08.036-.147.073-.147.044 0 .073-.102.073-.22 0-.125.037-.22.074-.22.044 0 .073-.103.073-.22 0-.125.037-.22.074-.22.044 0 .073-.103.073-.22 0-.125.037-.22.073-.22.044 0 .074-.103.074-.22 0-.125.036-.22.073-.22.044 0 .073-.067.073-.147 0-.081.037-.147.074-.147.044 0 .073-.103.073-.22 0-.125.037-.22.074-.22.044 0 .073-.132.073-.294 0-.242-.022-.293-.147-.293-.081 0-.147-.037-.147-.074 0-.044-.271-.073-.66-.073-.609 0-.66.007-.66.147 0 .08-.03.146-.074.146-.036 0-.073.096-.073.22 0 .118-.029.22-.073.22-.037 0-.074.067-.074.147 0 .081-.029.147-.073.147-.037 0-.074.066-.074.147 0 .08-.029.147-.073.147-.037 0-.073.066-.073.146 0 .081-.03.147-.074.147-.036 0-.073.066-.073.147 0 .08-.029.147-.073.147-.037 0-.074.051-.074.117s-.095.213-.22.323c-.117.11-.22.242-.22.286 0 .125-.932 1.035-1.064 1.035-.059 0-.11.029-.11.073 0 .037-.066.073-.147.073-.08 0-.146.03-.146.074 0 .036-.066.073-.147.073-.081 0-.147.03-.147.073 0 .037-.132.074-.293.074-.162 0-.294.03-.294.073 0 .037-.132.073-.293.073-.162 0-.294.03-.294.074s-.22.073-.513.073c-.294 0-.514.03-.514.074s-.807.073-2.275.073c-1.467 0-2.274-.03-2.274-.073 0-.044-.132-.074-.294-.074-.161 0-.293-.037-.293-.073 0-.044-.066-.073-.147-.073-.117 0-.147-.052-.147-.22 0-.125-.029-.22-.073-.22-.037 0-.073-.17-.073-.368 0-.205-.03-.366-.074-.366-.051 0-.073-3.06-.073-9.025s.022-9.025.073-9.025c.044 0 .074-.198.074-.44s.029-.44.073-.44.073-.052.073-.118c0-.168.184-.323.397-.323.102 0 .19-.036.19-.073 0-.044.066-.073.147-.073.081 0 .147-.037.147-.074 0-.044.132-.073.293-.073.162 0 .294-.037.294-.073 0-.044.132-.074.293-.074.162 0 .294-.037.294-.073 0-.044.103-.074.22-.074h.22v-1.32h-1.174c-.734 0-1.174.03-1.174.073 0 .044-.976.074-2.788.074-1.812 0-2.788-.03-2.788-.074s-.389-.073-1.027-.073h-1.027v.66zm49.452-.103c0 .61.081.763.396.763.103 0 .191.03.191.074 0 .037.132.073.293.073.162 0 .294.03.294.074 0 .036.132.073.293.073.162 0 .294.03.294.073 0 .037.066.074.147.074.08 0 .146.029.146.073 0 .037.052.073.11.073.066 0 .198.081.294.184.139.132.183.257.183.513 0 .184.037.33.074.33.044 0 .073.44.073 1.175 0 .733.029 1.174.073 1.174.052 0 .074 2.399.074 7.043 0 4.645-.022 7.044-.074 7.044-.044 0-.073.514-.073 1.394 0 .88-.029 1.394-.073 1.394-.037 0-.074.117-.074.264 0 .279-.132.47-.323.47-.066 0-.117.03-.117.073 0 .037-.066.074-.147.074-.08 0-.146.029-.146.073 0 .036-.132.073-.294.073-.161 0-.293.03-.293.074 0 .036-.162.073-.367.073-.198 0-.367.03-.367.073 0 .037-.132.074-.294.074h-.293v1.32h1.908c1.225 0 1.907-.029 1.907-.073 0-.051 1.394-.073 4.036-.073 2.641 0 4.035.022 4.035.073s1.049.073 3.008.073c2.957 0 3.009 0 3.009-.146 0-.081.036-.147.073-.147.044 0 .073-.132.073-.294 0-.161.037-.293.074-.293.044 0 .073-.132.073-.294 0-.161.037-.293.073-.293.044 0 .074-.103.074-.22 0-.125.037-.22.073-.22.044 0 .074-.103.074-.22 0-.125.036-.22.073-.22.044 0 .073-.103.073-.22 0-.125.037-.22.074-.22.044 0 .073-.104.073-.22 0-.126.037-.221.073-.221.044 0 .074-.103.074-.22 0-.125.036-.22.073-.22.044 0 .074-.103.074-.22 0-.125.036-.22.073-.22.044 0 .073-.067.073-.147 0-.08.037-.147.074-.147.044 0 .073-.103.073-.22 0-.125.037-.22.073-.22.044 0 .074-.103.074-.22 0-.125.036-.22.073-.22.044 0 .074-.103.074-.22 0-.125.036-.22.073-.22.044 0 .073-.067.073-.147 0-.081.037-.147.074-.147.044 0 .073-.103.073-.22 0-.169-.029-.22-.147-.22-.08 0-.146-.037-.146-.074 0-.044-.257-.073-.631-.073-.646 0-.837.073-.837.323 0 .066-.029.117-.073.117-.037 0-.074.096-.074.22 0 .118-.029.22-.073.22-.037 0-.073.066-.073.147 0 .08-.03.147-.074.147-.036 0-.073.066-.073.147 0 .08-.029.146-.074.146-.036 0-.073.066-.073.147 0 .08-.029.147-.073.147-.037 0-.074.059-.074.132 0 .073-.066.176-.146.235-.081.058-.147.154-.147.205 0 .052-.132.228-.294.382-.161.154-.293.323-.293.367 0 .11-.184.293-.294.293-.051 0-.183.095-.293.22-.11.117-.257.22-.323.22s-.117.03-.117.074c0 .036-.096.073-.22.073-.118 0-.221.03-.221.073 0 .037-.095.074-.22.074-.117 0-.22.03-.22.073 0 .037-.132.073-.293.073-.162 0-.294.03-.294.074s-.22.073-.513.073c-.294 0-.514.03-.514.074s-.807.073-2.274.073c-1.468 0-2.275-.03-2.275-.073 0-.044-.132-.074-.293-.074-.162 0-.294-.037-.294-.073 0-.044-.051-.073-.117-.073-.191 0-.323-.191-.323-.47 0-.147-.03-.264-.074-.264s-.073-.242-.073-.587-.029-.587-.073-.587c-.052 0-.074-2.81-.074-8.291s.022-8.291.074-8.291c.044 0 .073-.272.073-.66 0-.39.029-.66.073-.66s.074-.082.074-.184c0-.213.293-.55.477-.55.058 0 .11-.037.11-.074 0-.044.103-.073.22-.073.125 0 .22-.037.22-.074 0-.044.103-.073.22-.073.125 0 .22-.037.22-.073 0-.044.132-.074.294-.074.161 0 .293-.037.293-.073 0-.044.088-.074.191-.074.293 0 .396-.161.396-.616 0-.227-.029-.41-.073-.41-.037 0-.074-.067-.074-.147 0-.14-.051-.147-1.1-.147-.682 0-1.101.03-1.101.073 0 .044-1.005.074-2.861.074-1.856 0-2.862-.03-2.862-.074s-.389-.073-1.027-.073h-1.027v.557zm49.255-.448c-.059.067-.095.316-.095.661 0 .5.014.55.146.55.081 0 .147.03.147.074s.242.073.587.073.587.03.587.074c0 .036.169.073.367.073.205 0 .367.03.367.073 0 .037.132.074.293.074.162 0 .294.029.294.073 0 .037.066.073.146.073.096 0 .147.052.147.147 0 .08.037.147.074.147.044 0 .073.066.073.147 0 .08.037.146.073.146.044 0 .074.198.074.44 0 .243.029.44.073.44.051 0 .073 3.01.073 8.879 0 5.87-.022 8.878-.073 8.878-.037 0-.073.161-.073.367 0 .198-.03.367-.074.367-.036 0-.073.095-.073.22 0 .117-.029.22-.073.22-.037 0-.074.051-.074.117 0 .147-.176.323-.323.323-.066 0-.117.03-.117.073 0 .037-.066.074-.147.074-.08 0-.147.03-.147.073 0 .037-.066.073-.146.073-.081 0-.147.03-.147.074 0 .036-.132.073-.294.073-.161 0-.293.03-.293.074 0 .036-.161.073-.367.073-.198 0-.367.03-.367.073 0 .037-.161.074-.367.074h-.366v1.32h1.027c.638 0 1.027-.029 1.027-.073s.858-.073 2.421-.073c1.563 0 2.422.029 2.422.073s.462.073 1.247.073h1.247v-1.32h-.293c-.162 0-.294-.037-.294-.074 0-.044-.161-.073-.367-.073-.198 0-.367-.037-.367-.073 0-.044-.132-.074-.293-.074-.161 0-.294-.037-.294-.073 0-.044-.095-.074-.22-.074-.117 0-.22-.036-.22-.073 0-.044-.066-.073-.146-.073-.081 0-.147-.037-.147-.074 0-.044-.052-.073-.11-.073-.213 0-.477-.345-.477-.624 0-.14-.03-.256-.074-.256s-.073-.272-.073-.66c0-.39-.029-.661-.073-.661-.052 0-.074-2.693-.074-7.924 0-4.359.015-7.924.037-7.924.081 0 .404.359.404.447 0 .044.102.176.22.286.124.11.22.242.22.294 0 .051.102.183.22.293.125.11.22.242.22.294 0 .051.103.183.22.293.125.11.22.242.22.294 0 .051.103.183.22.293.125.11.22.242.22.294 0 .051.103.183.221.293.124.11.22.242.22.294 0 .051.102.183.22.293.125.11.22.242.22.294 0 .051.103.183.22.293.125.11.22.242.22.294 0 .05.103.183.22.293.125.11.22.242.22.293 0 .052.103.184.22.294.125.11.221.242.221.293 0 .052.102.184.22.294.124.11.22.242.22.293 0 .052.103.184.22.294.125.11.22.242.22.293 0 .052.103.184.22.294.125.11.22.242.22.293 0 .044.132.213.294.367.161.154.293.323.293.367 0 .051.103.184.22.294.125.11.221.242.221.293 0 .051.102.184.22.294.124.11.22.242.22.293 0 .052.102.183.22.294.125.11.22.242.22.293 0 .051.103.183.22.294.125.11.22.242.22.293 0 .051.103.183.22.293.125.11.22.243.22.294 0 .051.103.183.221.294.124.11.22.242.22.293 0 .051.102.183.22.294.124.11.22.242.22.293 0 .051.103.183.22.294.125.11.22.242.22.293 0 .051.103.183.22.293.125.11.22.243.22.294 0 .051.103.183.22.293.125.11.221.243.221.294 0 .051.102.183.22.293.124.11.22.242.22.294 0 .051.103.183.22.293.125.11.22.242.22.294 0 .044.132.213.294.367.161.154.293.323.293.367 0 .05.103.183.22.293.125.11.22.242.22.294 0 .05.103.183.22.293.125.11.22.242.22.294 0 .05.103.183.221.293.124.11.22.242.22.294 0 .05.102.183.22.293.125.11.22.242.22.293 0 .052.103.184.22.294.125.11.22.242.22.293 0 .052.103.184.22.294.125.11.22.242.22.286 0 .125.345.448.477.448.059 0 .11.029.11.073 0 .037.066.073.147.073.081 0 .147.03.147.074s.198.073.44.073.44-.03.44-.073c0-.044.066-.074.147-.074.139 0 .147-.051.147-.88 0-.536-.03-.88-.074-.88-.051 0-.073-3.25-.073-9.612s.022-9.612.073-9.612c.044 0 .074-.198.074-.44s.029-.44.073-.44.074-.103.074-.22c0-.125.036-.22.073-.22.044 0 .073-.052.073-.118 0-.147.176-.323.323-.323.066 0 .118-.037.118-.073 0-.044.066-.074.146-.074.081 0 .147-.036.147-.073 0-.044.103-.073.22-.073.125 0 .22-.037.22-.074 0-.044.132-.073.294-.073.161 0 .293-.037.293-.073 0-.044.169-.074.367-.074.205 0 .367-.037.367-.073 0-.044.132-.074.293-.074h.294v-1.32h-.954c-.587 0-.954.03-.954.073 0 .044-.389.073-1.027.073-.638 0-1.027.03-1.027.074s-.198.073-.44.073c-.243 0-.441-.03-.441-.073 0-.044-.535-.074-1.467-.074s-1.468-.029-1.468-.073-.286-.073-.704-.073c-.858 0-.91.036-.91.66 0 .528.096.66.47.66.147 0 .264.03.264.074s.198.073.44.073.44.03.44.074c0 .036.133.073.294.073.161 0 .293.03.293.073 0 .037.066.074.147.074.081 0 .147.029.147.073 0 .037.051.073.11.073.147 0 .477.33.477.477 0 .059.037.11.073.11.044 0 .074.132.074.294 0 .161.036.293.073.293.044 0 .073.272.073.66 0 .39.03.661.074.661.051 0 .073 2.018.073 5.914 0 5.158-.015 5.92-.11 6.016-.095.103-.125.103-.22 0-.059-.058-.11-.154-.11-.205 0-.059-.066-.147-.147-.206-.081-.058-.147-.154-.147-.205 0-.059-.095-.198-.22-.308-.117-.11-.22-.242-.22-.294 0-.051-.095-.183-.22-.293-.117-.11-.22-.242-.22-.294 0-.051-.095-.183-.22-.293-.118-.11-.22-.25-.22-.308 0-.052-.066-.147-.147-.206-.081-.058-.147-.154-.147-.205 0-.059-.095-.198-.22-.308-.117-.11-.22-.242-.22-.294 0-.051-.095-.183-.22-.293-.117-.11-.22-.242-.22-.294 0-.051-.096-.183-.22-.293-.118-.11-.22-.242-.22-.294 0-.051-.096-.183-.221-.293-.117-.11-.22-.242-.22-.294 0-.051-.095-.183-.22-.293-.117-.11-.22-.242-.22-.294 0-.044-.132-.212-.293-.367-.162-.154-.294-.322-.294-.367 0-.05-.095-.183-.22-.293-.117-.11-.22-.242-.22-.293 0-.052-.095-.184-.22-.294-.118-.11-.22-.242-.22-.293 0-.052-.096-.184-.22-.294-.118-.11-.221-.242-.221-.293 0-.052-.095-.184-.22-.294-.117-.11-.22-.242-.22-.293 0-.052-.095-.184-.22-.294-.117-.11-.22-.242-.22-.293 0-.052-.095-.184-.22-.294-.118-.11-.22-.242-.22-.293 0-.052-.096-.184-.22-.294-.118-.11-.22-.242-.22-.293 0-.052-.096-.184-.221-.294-.117-.11-.22-.242-.22-.293 0-.052-.095-.184-.22-.294-.117-.11-.22-.242-.22-.293 0-.052-.095-.184-.22-.294-.117-.11-.22-.25-.22-.308 0-.051-.066-.147-.147-.205-.081-.059-.147-.154-.147-.206 0-.058-.095-.198-.22-.308-.117-.11-.22-.25-.22-.308 0-.051-.066-.147-.147-.205-.08-.06-.146-.155-.146-.22 0-.067-.066-.162-.147-.22-.081-.06-.147-.155-.147-.22 0-.067-.066-.162-.147-.221-.08-.059-.146-.154-.146-.22s-.066-.162-.147-.22c-.081-.059-.147-.154-.147-.22s-.066-.162-.147-.22c-.08-.06-.146-.162-.146-.235 0-.074-.03-.132-.074-.132-.036 0-.073-.052-.073-.11 0-.066-.081-.198-.183-.294-.169-.169-.228-.183-.954-.183-.463 0-.771.03-.771.073 0 .044-.682.073-1.907.073-1.226 0-1.908-.029-1.908-.073s-.455-.073-1.225-.073c-.969.007-1.255.03-1.321.11zm27.882 0c-.059.067-.096.316-.096.661 0 .5.015.55.147.55.081 0 .147.03.147.074s.22.073.514.073c.293 0 .513.03.513.074 0 .036.132.073.294.073.161 0 .293.03.293.073 0 .037.066.074.147.074.081 0 .147.029.147.073 0 .037.051.073.117.073.147 0 .323.177.323.323 0 .066.036.118.073.118.044 0 .074.161.074.367 0 .198.036.366.073.366.051 0 .073 3.177.073 9.392s-.022 9.392-.073 9.392c-.037 0-.073.146-.073.33 0 .286-.037.374-.257.587-.154.161-.323.256-.44.256-.103 0-.184.03-.184.074 0 .036-.095.073-.22.073-.117 0-.22.03-.22.074 0 .036-.162.073-.367.073-.198 0-.367.03-.367.073 0 .037-.132.074-.293.074h-.294v1.32h1.908c1.225 0 1.907-.029 1.907-.073s.661-.073 1.835-.073 1.834.029 1.834.073c0 .051 1.049.073 3.008.073s3.009-.022 3.009-.073c0-.044.22-.073.513-.073.294 0 .514-.03.514-.074s.132-.073.293-.073c.162 0 .294-.037.294-.074 0-.044.132-.073.293-.073.162 0 .294-.037.294-.073 0-.044.132-.074.293-.074.162 0 .294-.036.294-.073 0-.044.066-.073.146-.073.081 0 .147-.037.147-.074 0-.044.103-.073.22-.073.125 0 .22-.037.22-.073 0-.044.066-.074.147-.074.081 0 .147-.036.147-.073 0-.044.103-.074.22-.074.125 0 .22-.036.22-.073 0-.044.059-.073.132-.073.074 0 .176-.066.235-.147.059-.08.161-.147.235-.147.073 0 .132-.037.132-.073 0-.044.059-.074.132-.074.073 0 .176-.066.235-.146.058-.081.154-.147.22-.147s.161-.066.22-.147c.059-.08.154-.146.205-.146.059 0 .198-.103.309-.22.11-.125.242-.22.286-.22.11 0 1.621-1.512 1.621-1.622 0-.044.103-.176.22-.286.125-.11.22-.25.22-.309 0-.05.066-.146.147-.205.081-.059.147-.154.147-.22s.066-.162.147-.22c.08-.059.146-.162.146-.235 0-.073.037-.132.074-.132.044 0 .073-.066.073-.147 0-.08.037-.147.073-.147.045 0 .074-.066.074-.146 0-.081.037-.147.073-.147.044 0 .074-.066.074-.147 0-.08.036-.147.073-.147.044 0 .073-.066.073-.146 0-.081.037-.147.074-.147.044 0 .073-.103.073-.22 0-.125.037-.22.073-.22.044 0 .074-.066.074-.147 0-.08.037-.147.073-.147.044 0 .074-.132.074-.293 0-.162.036-.294.073-.294.044 0 .073-.103.073-.22 0-.125.037-.22.074-.22.044 0 .073-.169.073-.367 0-.205.037-.367.073-.367.044 0 .074-.168.074-.366 0-.206.036-.367.073-.367.044 0 .074-.756.074-2.128s-.03-2.128-.074-2.128c-.037 0-.073-.169-.073-.367 0-.205-.03-.367-.074-.367-.036 0-.073-.132-.073-.293 0-.162-.029-.294-.073-.294-.037 0-.074-.102-.074-.22 0-.125-.029-.22-.073-.22-.037 0-.073-.103-.073-.22 0-.125-.03-.22-.074-.22-.036 0-.073-.103-.073-.22 0-.125-.03-.22-.074-.22-.036 0-.073-.066-.073-.147 0-.08-.029-.147-.073-.147-.037 0-.074-.066-.074-.147 0-.08-.029-.146-.073-.146-.037 0-.073-.066-.073-.147 0-.08-.03-.147-.074-.147-.036 0-.073-.066-.073-.147 0-.08-.029-.146-.074-.146-.036 0-.073-.066-.073-.147 0-.08-.029-.147-.073-.147-.037 0-.074-.058-.074-.132 0-.073-.066-.176-.146-.235-.081-.058-.147-.154-.147-.205 0-.059-.096-.198-.22-.308-.118-.11-.22-.242-.22-.294 0-.044-.132-.213-.294-.367-.161-.154-.293-.315-.293-.36 0-.11-.778-.887-.888-.887-.044 0-.206-.132-.36-.293-.154-.162-.33-.294-.381-.294-.052 0-.147-.066-.206-.147-.058-.08-.154-.146-.22-.146s-.161-.066-.22-.147c-.059-.08-.154-.147-.22-.147s-.161-.066-.22-.147c-.059-.08-.161-.146-.235-.146-.073 0-.132-.037-.132-.074 0-.044-.066-.073-.147-.073-.08 0-.146-.037-.146-.073 0-.044-.066-.074-.147-.074-.081 0-.147-.037-.147-.073 0-.044-.095-.073-.22-.073-.117 0-.22-.037-.22-.074 0-.044-.066-.073-.147-.073-.081 0-.147-.037-.147-.074 0-.044-.095-.073-.22-.073-.117 0-.22-.037-.22-.073 0-.044-.066-.074-.147-.074-.08 0-.146-.036-.146-.073 0-.044-.132-.074-.294-.074-.161 0-.293-.036-.293-.073 0-.044-.132-.073-.294-.073-.161 0-.293-.037-.293-.074 0-.044-.162-.073-.367-.073-.198 0-.367-.037-.367-.073 0-.044-.22-.074-.514-.074-.293 0-.513-.03-.513-.073 0-.051-1.959-.073-5.723-.073s-5.723-.023-5.723-.074c0-.125-1.849-.088-1.959.037zm13.258 2.165c0 .037.169.074.367.074.205 0 .367.029.367.073 0 .037.102.073.22.073.125 0 .22.03.22.074 0 .036.066.073.147.073.08 0 .146.03.146.074 0 .036.067.073.147.073.081 0 .147.03.147.073 0 .037.066.074.147.074.08 0 .146.029.146.073 0 .037.059.073.133.073.073 0 .176.066.234.147.059.08.147.147.198.147.125 0 1.637 1.511 1.637 1.636 0 .051.066.14.146.198.081.059.147.154.147.22s.066.162.147.22c.081.06.147.162.147.235 0 .074.036.132.073.132.044 0 .073.066.073.147 0 .08.037.147.074.147.044 0 .073.066.073.146 0 .081.037.147.073.147.044 0 .074.066.074.147 0 .08.036.147.073.147.044 0 .074.095.074.22 0 .117.036.22.073.22.044 0 .073.095.073.22 0 .117.037.22.074.22.044 0 .073.096.073.22 0 .118.037.22.073.22.044 0 .074.133.074.294 0 .161.036.293.073.293.044 0 .074.132.074.294 0 .161.036.293.073.293.044 0 .073.242.073.587s.03.587.074.587.073.639.073 1.761c0 1.123-.029 1.761-.073 1.761s-.074.272-.074.66c0 .39-.029.66-.073.66s-.073.199-.073.441-.03.44-.074.44c-.037 0-.073.132-.073.294 0 .161-.03.293-.074.293-.036 0-.073.132-.073.294 0 .161-.029.293-.073.293-.037 0-.074.096-.074.22 0 .118-.029.22-.073.22-.037 0-.073.096-.073.22 0 .118-.03.22-.074.22-.037 0-.073.067-.073.147 0 .081-.03.147-.074.147-.036 0-.073.066-.073.147 0 .08-.029.147-.073.147-.037 0-.074.066-.074.146 0 .081-.029.147-.073.147-.037 0-.073.066-.073.147 0 .08-.03.147-.074.147-.036 0-.073.058-.073.132 0 .073-.066.176-.147.235-.081.058-.147.146-.147.198 0 .139-1.518 1.636-1.651 1.636-.058 0-.11.03-.11.073 0 .037-.066.073-.146.073-.081 0-.147.03-.147.074 0 .037-.066.073-.147.073-.081 0-.147.03-.147.074 0 .036-.066.073-.146.073-.081 0-.147.03-.147.073 0 .037-.066.074-.147.074-.08 0-.147.03-.147.073 0 .037-.132.073-.293.073-.161 0-.293.03-.293.074 0 .037-.133.073-.294.073-.161 0-.293.03-.293.074s-.756.073-2.128.073-2.128-.03-2.128-.073c0-.044-.198-.074-.44-.074s-.44-.03-.44-.073c0-.044-.096-.073-.221-.073-.117 0-.22-.037-.22-.074 0-.044-.051-.073-.117-.073-.147 0-.323-.176-.323-.323 0-.066-.029-.117-.073-.117-.037 0-.074-.17-.074-.367 0-.206-.029-.367-.073-.367-.051 0-.073-2.935-.073-8.658 0-5.723.022-8.658.073-8.658.044 0 .073-.132.073-.293 0-.162.037-.294.074-.294.044 0 .073-.066.073-.147 0-.08.037-.146.073-.146.044 0 .074-.052.074-.118 0-.168.183-.323.396-.323.103 0 .191-.036.191-.073 0-.044.169-.073.367-.073.205 0 .366-.037.366-.074 0-.044.756-.073 2.128-.073s2.128.03 2.128.073z"/><path d="M40.575 17.895c-2.723 2.737-4.997 4.982-5.048 4.982-.17.015-9.553 9.458-9.553 9.62 0 .153 1.174 1.393 1.32 1.393.044 0 1.233 1.152 2.642 2.568 1.408 1.41 2.597 2.568 2.641 2.568.044 0 2.979-2.905 6.53-6.456l6.457-6.457 6.457 6.457c4.27 4.27 6.508 6.456 6.603 6.456.206 0 6.53-6.324 6.53-6.53 0-.095-1.937-2.084-5.686-5.833-3.126-3.125-5.723-5.686-5.76-5.686-.044 0-1.893-1.82-4.109-4.035-2.215-2.224-4.042-4.036-4.05-4.029-.014 0-2.252 2.246-4.974 4.982zm60.532 27.661c0 .037-.132.074-.294.074-.161 0-.293.03-.293.073 0 .037-.066.074-.147.074-.081 0-.147.029-.147.073 0 .037-.095.073-.205.073-.118 0-.25.059-.308.147-.06.08-.154.147-.22.147-.067 0-.162.066-.22.147-.06.08-.147.146-.199.146-.124 0-.902.778-.902.903 0 .051-.066.14-.147.198-.08.059-.147.154-.147.22s-.066.161-.147.22c-.087.059-.146.19-.146.308 0 .11-.03.206-.074.206-.036 0-.073.066-.073.146 0 .081-.03.147-.073.147-.037 0-.074.132-.074.294 0 .161-.03.293-.073.293-.044 0-.074.514-.074 1.394 0 .88.03 1.394.074 1.394s.073.132.073.294c0 .161.037.293.074.293.044 0 .073.066.073.147 0 .08.037.147.073.147.044 0 .074.066.074.147 0 .08.036.146.073.146.044 0 .073.066.073.147 0 .08.037.147.074.147.044 0 .073.058.073.132 0 .073.066.176.147.235.08.058.147.146.147.198 0 .124.778.902.902.902.052 0 .14.066.198.147.059.08.162.147.235.147.073 0 .132.029.132.073 0 .037.066.073.147.073.08 0 .147.03.147.074 0 .036.102.073.22.073.125 0 .22.03.22.073 0 .037.103.074.22.074.125 0 .22.03.22.073 0 .044.492.074 1.321.074s1.32-.03 1.32-.074.103-.073.221-.073c.124 0 .22-.037.22-.074 0-.044.066-.073.146-.073.081 0 .147-.037.147-.073 0-.044.066-.074.147-.074.081 0 .147-.036.147-.073 0-.044.058-.073.132-.073.073 0 .176-.066.235-.147.058-.08.146-.147.198-.147.124 0 .902-.778.902-.902 0-.052.066-.14.147-.198.081-.06.147-.162.147-.235 0-.074.036-.132.073-.132.044 0 .073-.066.073-.147 0-.08.037-.147.074-.147.044 0 .073-.066.073-.146 0-.081.037-.147.073-.147.044 0 .074-.066.074-.147 0-.08.037-.147.073-.147.044 0 .074-.102.074-.22 0-.125.036-.22.073-.22.044 0 .073-.198.073-.44s.03-.44.074-.44.073-.316.073-.807c0-.492-.029-.808-.073-.808s-.074-.198-.074-.44-.029-.44-.073-.44c-.037 0-.073-.103-.073-.22 0-.125-.03-.22-.074-.22-.036 0-.073-.066-.073-.147 0-.08-.03-.147-.074-.147-.036 0-.073-.066-.073-.147 0-.08-.029-.146-.073-.146-.037 0-.074-.066-.074-.147 0-.08-.029-.147-.073-.147-.037 0-.073-.051-.073-.117 0-.059-.132-.242-.294-.396-.161-.154-.293-.338-.293-.397a.116.116 0 00-.118-.117c-.066 0-.213-.103-.323-.22-.11-.125-.249-.22-.308-.22-.051 0-.146-.066-.205-.147-.059-.08-.162-.147-.235-.147-.073 0-.132-.036-.132-.073 0-.044-.095-.073-.22-.073-.118 0-.22-.037-.22-.074 0-.044-.132-.073-.294-.073-.161 0-.293-.037-.293-.074 0-.044-.418-.073-1.101-.073-.682 0-1.1.03-1.1.073zm1.614.88c0 .038.102.074.22.074.125 0 .22.03.22.074 0 .036.066.073.147.073.08 0 .146.03.146.073 0 .037.059.074.133.074.073 0 .176.066.234.146.059.081.147.147.206.147.125 0 .601.477.601.602 0 .059.066.147.147.205.081.059.147.162.147.235 0 .073.037.132.073.132.044 0 .074.066.074.147 0 .08.036.147.073.147.044 0 .073.066.073.146 0 .081.037.147.074.147.044 0 .073.132.073.294 0 .161.037.293.074.293.044 0 .073.132.073.294 0 .161.037.293.073.293.044 0 .074.389.074 1.027 0 .639-.03 1.028-.074 1.028-.036 0-.073.132-.073.293 0 .161-.029.293-.073.293-.037 0-.074.096-.074.22 0 .118-.029.22-.073.22-.037 0-.074.067-.074.148 0 .08-.029.146-.073.146-.037 0-.073.059-.073.132 0 .074-.066.176-.147.235-.081.059-.147.147-.147.206 0 .124-.477.601-.601.601-.059 0-.147.066-.206.147-.059.08-.161.147-.235.147-.073 0-.132.029-.132.073 0 .037-.095.073-.22.073-.117 0-.22.03-.22.074s-.315.073-.807.073c-.492 0-.807-.03-.807-.073 0-.044-.096-.074-.22-.074-.118 0-.22-.036-.22-.073 0-.044-.066-.073-.147-.073-.081 0-.147-.037-.147-.074 0-.044-.059-.073-.132-.073-.073 0-.176-.066-.235-.147-.058-.08-.146-.147-.205-.147-.125 0-.602-.476-.602-.601 0-.059-.066-.147-.147-.206-.08-.058-.146-.161-.146-.235 0-.073-.03-.132-.074-.132-.036 0-.073-.066-.073-.146 0-.081-.03-.147-.073-.147-.037 0-.074-.066-.074-.147 0-.08-.03-.147-.073-.147-.037 0-.073-.102-.073-.22 0-.124-.03-.22-.074-.22-.037 0-.073-.132-.073-.293 0-.162-.03-.294-.074-.294s-.073-.418-.073-1.1c0-.683.03-1.1.073-1.1.044 0 .074-.133.074-.294 0-.162.036-.294.073-.294.044 0 .074-.103.074-.22 0-.125.036-.22.073-.22.044 0 .073-.066.073-.147 0-.08.037-.147.074-.147.044 0 .073-.058.073-.132 0-.073.066-.176.147-.234.08-.06.146-.147.146-.206 0-.125.33-.455.455-.455.059 0 .147-.066.206-.147.058-.08.161-.146.235-.146.073 0 .132-.037.132-.074 0-.044.066-.073.146-.073.081 0 .147-.037.147-.073 0-.044.103-.074.22-.074.125 0 .22-.036.22-.073 0-.044.294-.073.734-.073s.734.029.734.073zm25.24-.88c0 .052-1.225.074-3.522.074h-3.522v.734h.294c.161 0 .293.029.293.073 0 .037.103.073.221.073h.22v4.256c0 4.204 0 4.255-.147 4.255-.081 0-.147.03-.147.074 0 .036-.161.073-.367.073h-.367v.734h3.302c2.15 0 3.302.022 3.302.073 0 .044.198.074.44.074h.44v-.294c0-.161.037-.293.074-.293.044 0 .073-.133.073-.294 0-.161.037-.293.074-.293.044 0 .073-.103.073-.22 0-.125.037-.22.073-.22.044 0 .074-.133.074-.294 0-.161.036-.294.073-.294.044 0 .073-.102.073-.22 0-.22 0-.22-.411-.22-.418 0-.616.103-.616.323 0 .066-.029.117-.073.117-.037 0-.074.066-.074.147 0 .08-.029.147-.073.147-.037 0-.073.059-.073.132 0 .073-.066.176-.147.235-.081.058-.147.146-.147.205 0 .286-.139.308-2.157.308h-1.952V51.06h1.365c1.519 0 1.57.015 1.57.47 0 .147.037.264.074.264.044 0 .073.132.073.294v.293h.734v-3.523h-.734v.294c0 .161-.029.293-.073.293-.037 0-.074.162-.074.367v.367h-2.935V46.51h3.816v.22c0 .118.036.22.073.22.044 0 .073.066.073.147 0 .08.037.147.074.147.044 0 .073.095.073.22 0 .117.037.22.074.22.044 0 .073.066.073.147 0 .125.051.147.293.147.162 0 .294-.037.294-.074 0-.044.066-.073.147-.073.124 0 .146-.051.146-.294 0-.16-.029-.293-.073-.293s-.073-.242-.073-.587-.03-.587-.074-.587c-.036 0-.073-.132-.073-.293 0-.162-.029-.294-.073-.294a.074.074 0 00-.074.073zm14.821.221c0 .161-.029.293-.073.293s-.074.22-.074.514c0 .293-.029.513-.073.513s-.073.22-.073.514c0 .293-.03.514-.074.514-.037 0-.073.066-.073.146 0 .125.051.147.293.147.162 0 .294.03.294.073 0 .037.066.074.147.074.117 0 .146-.052.146-.22 0-.125.037-.22.074-.22.044 0 .073-.067.073-.147 0-.081.037-.147.073-.147.044 0 .074-.103.074-.22 0-.125.036-.22.073-.22.044 0 .073-.066.073-.147 0-.08.037-.147.074-.147.044 0 .073-.088.073-.19 0-.36.118-.397 1.277-.397h1.071v8.511h-.22c-.117 0-.22.03-.22.074s-.22.073-.514.073h-.513v.734h2.054c2.003 0 2.055 0 2.055-.147 0-.08.036-.147.073-.147.044 0 .073-.102.073-.22v-.22h-.513c-.294 0-.514-.03-.514-.073 0-.044-.095-.074-.22-.074h-.22V46.51h1.1c1.05 0 1.101.008 1.101.147 0 .08.037.147.073.147.044 0 .074.066.074.146 0 .081.036.147.073.147.044 0 .073.096.073.22 0 .118.037.22.074.22.044 0 .073.096.073.22 0 .118.037.22.074.22.044 0 .073.052.073.118 0 .206.198.323.543.323h.337v-.44c0-.242-.029-.44-.073-.44s-.073-.22-.073-.514c0-.294-.03-.514-.074-.514s-.073-.22-.073-.513c0-.463-.015-.514-.147-.514-.081 0-.147.03-.147.074 0 .05-1.32.073-3.815.073s-3.815-.022-3.815-.074c0-.044-.03-.073-.074-.073-.036 0-.073.132-.073.294zm47.691-.221c0 .052-1.225.074-3.522.074h-3.522v.734h.294c.161 0 .293.029.293.073 0 .037.103.073.22.073h.22v4.256c0 4.204 0 4.255-.146 4.255-.081 0-.147.03-.147.074 0 .036-.162.073-.367.073h-.367v.734h3.302c2.15 0 3.302.022 3.302.073 0 .044.198.074.44.074h.44v-.294c0-.161.037-.293.073-.293.045 0 .074-.133.074-.294 0-.161.037-.293.073-.293.044 0 .074-.103.074-.22 0-.125.036-.22.073-.22.044 0 .073-.133.073-.294 0-.161.037-.294.074-.294.044 0 .073-.102.073-.22 0-.22 0-.22-.411-.22-.418 0-.616.103-.616.323 0 .066-.029.117-.073.117-.037 0-.074.066-.074.147 0 .08-.029.147-.073.147-.037 0-.074.059-.074.132 0 .073-.066.176-.146.235-.081.058-.147.146-.147.205 0 .286-.14.308-2.157.308h-1.952V51.06h1.365c1.519 0 1.57.015 1.57.47 0 .147.037.264.073.264.044 0 .074.132.074.294v.293h.733v-3.523h-.733v.294c0 .161-.03.293-.074.293-.036 0-.073.162-.073.367v.367h-2.935V46.51h3.815v.22c0 .118.037.22.074.22.044 0 .073.066.073.147 0 .08.037.147.074.147.044 0 .073.095.073.22 0 .117.037.22.073.22.044 0 .074.066.074.147 0 .125.051.147.293.147.162 0 .294-.037.294-.074 0-.044.066-.073.146-.073.125 0 .147-.051.147-.294 0-.16-.029-.293-.073-.293s-.074-.242-.074-.587-.029-.587-.073-.587c-.037 0-.073-.132-.073-.293 0-.162-.03-.294-.074-.294a.074.074 0 00-.073.073zm22.745 0c0 .052-1.226.074-3.522.074h-3.522v.734h.293c.162 0 .294.029.294.073 0 .037.103.073.22.073.198 0 .22.022.22.22 0 .118.037.22.073.22.052 0 .074 1.343.074 3.89 0 2.545-.022 3.888-.074 3.888-.036 0-.073.066-.073.147 0 .095-.051.146-.147.146-.08 0-.146.03-.146.074 0 .036-.118.073-.265.073-.33 0-.469.14-.469.47v.264h3.302c2.149 0 3.301.022 3.301.073 0 .044.198.074.441.074h.44v-.22c0-.125.036-.22.073-.22.044 0 .073-.133.073-.294 0-.162.037-.294.074-.294.044 0 .073-.132.073-.293 0-.162.037-.294.074-.294.044 0 .073-.102.073-.22 0-.124.037-.22.073-.22.044 0 .074-.132.074-.293v-.294h-.441c-.374 0-.44.022-.44.132 0 .074-.066.176-.146.235-.081.059-.147.161-.147.235 0 .073-.03.132-.074.132-.036 0-.073.066-.073.147 0 .08-.029.146-.073.146-.037 0-.074.066-.074.147 0 .08-.029.147-.073.147-.037 0-.073.066-.073.147 0 .146-.052.146-2.055.146h-2.054V51.06h1.364c1.475 0 1.571.022 1.571.397 0 .102.036.19.073.19.044 0 .073.162.073.367v.367h.881v-3.523h-.881v.367c0 .198-.029.367-.073.367-.037 0-.073.132-.073.293v.294h-2.935V46.51h1.907c1.857 0 1.908.008 1.908.147 0 .08.037.147.073.147.044 0 .074.095.074.22 0 .117.036.22.073.22.044 0 .074.066.074.147 0 .08.036.147.073.147.044 0 .073.095.073.22 0 .212.015.22.338.22.191 0 .381-.044.44-.103.117-.125.147-.925.029-.925-.044 0-.073-.22-.073-.513 0-.294-.029-.514-.073-.514-.037 0-.074-.102-.074-.22 0-.125-.029-.22-.073-.22a.073.073 0 00-.073.073zm18.635 0c0 .037-.132.074-.294.074-.161 0-.293.03-.293.073 0 .037-.095.074-.22.074-.118 0-.22.029-.22.073 0 .037-.066.073-.147.073-.081 0-.147.03-.147.074 0 .036-.066.073-.146.073-.081 0-.147.03-.147.073 0 .037-.052.074-.118.074s-.212.095-.322.22c-.111.117-.243.22-.287.22-.117 0-.594.484-.594.602 0 .058-.066.146-.147.205-.08.059-.146.154-.146.22s-.066.162-.147.22c-.081.059-.147.162-.147.235 0 .073-.029.132-.073.132-.037 0-.074.066-.074.147 0 .08-.029.147-.073.147-.037 0-.073.095-.073.22 0 .117-.03.22-.074.22-.036 0-.073.161-.073.367 0 .198-.029.367-.073.367-.045 0-.074.418-.074 1.1 0 .683.029 1.1.074 1.1.044 0 .073.133.073.294 0 .162.037.294.073.294.044 0 .074.095.074.22 0 .117.036.22.073.22.044 0 .073.095.073.22 0 .117.037.22.074.22.044 0 .073.059.073.132 0 .074.066.176.147.235.081.059.147.154.147.206 0 .058.102.198.22.308.124.11.22.242.22.293 0 .11.183.294.293.294.052 0 .184.095.294.22.11.117.249.22.308.22.051 0 .147.066.205.147.059.08.162.146.235.146.074 0 .132.03.132.074 0 .036.103.073.22.073.125 0 .22.03.22.073 0 .037.133.074.294.074.161 0 .293.03.293.073 0 .044.463.074 1.248.074.785 0 1.247-.03 1.247-.074s.103-.073.22-.073c.125 0 .22-.037.22-.074 0-.044.103-.073.22-.073.125 0 .221-.037.221-.073 0-.044.058-.074.132-.074.073 0 .176-.066.234-.146.059-.081.147-.147.199-.147.124 0 1.195-1.071 1.195-1.196 0-.051.067-.14.147-.198.081-.059.147-.162.147-.235 0-.073.037-.132.073-.132.044 0 .074-.066.074-.147 0-.08.036-.146.073-.146.044 0 .073-.067.073-.147 0-.081.037-.147.074-.147.044 0 .073-.103.073-.22 0-.125.037-.22.074-.22.044 0 .073-.132.073-.294 0-.161.037-.293.073-.293.044 0 .074-.462.074-1.247 0-.786-.03-1.248-.074-1.248-.036 0-.073-.132-.073-.293 0-.162-.029-.294-.073-.294-.037 0-.074-.103-.074-.22 0-.125-.029-.22-.073-.22-.037 0-.074-.066-.074-.147 0-.08-.029-.147-.073-.147-.037 0-.073-.066-.073-.146 0-.081-.03-.147-.074-.147-.036 0-.073-.059-.073-.132 0-.073-.066-.176-.147-.235-.08-.059-.147-.147-.147-.198 0-.125-.777-.902-.902-.902-.051 0-.139-.066-.198-.147-.059-.08-.162-.147-.235-.147-.073 0-.132-.037-.132-.073 0-.044-.066-.074-.147-.074-.08 0-.146-.036-.146-.073 0-.044-.096-.073-.221-.073-.117 0-.22-.037-.22-.074 0-.044-.132-.073-.293-.073-.162 0-.294-.037-.294-.074 0-.044-.389-.073-1.027-.073-.638 0-1.027.03-1.027.073zm1.614.88c0 .038.103.074.22.074.125 0 .22.03.22.074 0 .036.059.073.132.073.074 0 .177.066.235.147.059.08.147.146.198.146.125 0 .903.778.903.903 0 .051.066.14.147.198.08.059.146.161.146.235 0 .073.037.132.074.132.044 0 .073.095.073.22 0 .117.037.22.073.22.044 0 .074.066.074.147 0 .08.036.147.073.147.044 0 .074.132.074.293 0 .162.036.294.073.294.044 0 .073.491.073 1.32 0 .83-.029 1.321-.073 1.321-.037 0-.073.095-.073.22 0 .117-.03.22-.074.22-.037 0-.073.096-.073.22 0 .118-.03.22-.074.22-.036 0-.073.067-.073.147 0 .08-.029.147-.073.147-.037 0-.074.051-.074.11 0 .147-.917 1.064-1.064 1.064-.058 0-.11.03-.11.073 0 .037-.066.074-.146.074-.081 0-.147.029-.147.073 0 .037-.096.073-.22.073-.118 0-.22.03-.22.074s-.316.073-.807.073c-.492 0-.808-.03-.808-.073 0-.044-.095-.074-.22-.074-.117 0-.22-.036-.22-.073 0-.044-.058-.073-.132-.073-.073 0-.176-.066-.235-.147-.058-.08-.146-.147-.198-.147-.124 0-1.049-.924-1.049-1.05 0-.05-.066-.139-.147-.197-.08-.059-.146-.162-.146-.235 0-.073-.03-.132-.074-.132-.037 0-.073-.103-.073-.22 0-.125-.03-.22-.074-.22-.036 0-.073-.103-.073-.22 0-.125-.029-.22-.073-.22-.037 0-.074-.17-.074-.367 0-.206-.029-.367-.073-.367s-.073-.316-.073-.807c0-.492.029-.807.073-.807s.073-.17.073-.367c0-.206.037-.367.074-.367.044 0 .073-.103.073-.22 0-.125.037-.22.073-.22.044 0 .074-.066.074-.147 0-.08.036-.147.073-.147.044 0 .074-.066.074-.147 0-.08.036-.146.073-.146.044 0 .073-.052.073-.11 0-.147.917-1.064 1.064-1.064.059 0 .11-.037.11-.074 0-.044.066-.073.147-.073.081 0 .147-.037.147-.073 0-.044.102-.074.22-.074.125 0 .22-.036.22-.073 0-.044.315-.073.807-.073.492 0 .807.029.807.073zm25.096-.88c0 .052-1.196.074-3.448.074-3.397 0-3.449 0-3.449.147 0 .08-.029.146-.073.146-.037 0-.073.096-.073.22 0 .206.014.22.293.22.161 0 .294.03.294.074 0 .037.088.073.19.073.411 0 .396-.14.396 4.358v4.153h-.22c-.117 0-.22.03-.22.074 0 .036-.117.073-.264.073-.293 0-.469.14-.469.367 0 .367-.022.367 3.404.367 2.084 0 3.199.022 3.199.073 0 .044.198.074.44.074h.44v-.22c0-.125.037-.22.074-.22.044 0 .073-.103.073-.22 0-.126.037-.22.074-.22.044 0 .073-.133.073-.294 0-.162.037-.294.073-.294.044 0 .074-.132.074-.293 0-.162.036-.294.073-.294.044 0 .073-.132.073-.293v-.294h-.44c-.389 0-.44.015-.44.147 0 .08-.029.147-.073.147-.037 0-.074.066-.074.146 0 .081-.029.147-.073.147-.037 0-.074.059-.074.132 0 .074-.066.176-.146.235-.081.059-.147.162-.147.235 0 .073-.029.132-.073.132-.037 0-.074.066-.074.147 0 .146-.051.146-2.054.146h-2.055V51.06h1.365c1.416 0 1.57.03 1.57.323 0 .066.037.117.074.117.044 0 .073.199.073.44v.441h.88v-3.523h-.337c-.426 0-.543.118-.543.543 0 .183-.029.338-.073.338-.037 0-.074.095-.074.22v.22h-2.935V46.51h1.908c1.856 0 1.908.008 1.908.147 0 .08.036.147.073.147.044 0 .073.066.073.146 0 .081.037.147.074.147.044 0 .073.096.073.22 0 .118.037.22.074.22.044 0 .073.052.073.118 0 .183.191.323.44.323.352 0 .44-.14.44-.69 0-.271-.029-.484-.073-.484s-.073-.22-.073-.514c0-.293-.03-.513-.074-.513-.036 0-.073-.066-.073-.147 0-.08-.029-.147-.073-.147a.074.074 0 00-.074.073zm17.755 0c0 .037-.096.074-.22.074-.118 0-.22.03-.22.073 0 .037-.096.074-.22.074-.118 0-.221.029-.221.073 0 .037-.051.073-.11.073-.146 0-1.064.917-1.064 1.064 0 .059-.029.11-.073.11-.037 0-.073.066-.073.147 0 .08-.03.147-.074.147s-.073.345-.073.88c0 .536.029.88.073.88s.074.067.074.147c0 .081.036.147.073.147.044 0 .073.051.073.11 0 .14.764.917.903.917.051 0 .139.066.198.147.059.08.154.147.22.147s.162.066.22.147c.059.08.162.146.235.146.073 0 .132.03.132.074 0 .036.066.073.147.073.081 0 .147.03.147.073 0 .037.102.074.22.074.124 0 .22.03.22.073 0 .037.059.073.132.073.073 0 .176.067.235.147.058.081.161.147.234.147.074 0 .133.03.133.073 0 .037.066.074.146.074.081 0 .147.03.147.073 0 .037.051.074.11.074.147 0 .771.623.771.77 0 .059.036.11.073.11.044 0 .073.095.073.22 0 .117.037.22.074.22.044 0 .073.096.073.22 0 .118-.029.22-.073.22-.037 0-.074.096-.074.22 0 .118-.029.22-.073.22-.037 0-.073.052-.073.118 0 .14-.177.323-.309.323-.058 0-.146.066-.205.147-.059.08-.162.146-.235.146-.073 0-.132.03-.132.074s-.345.073-.88.073c-.536 0-.881-.03-.881-.073 0-.044-.095-.074-.22-.074-.117 0-.22-.036-.22-.073 0-.044-.066-.073-.147-.073-.081 0-.147-.037-.147-.074 0-.044-.051-.073-.117-.073-.147 0-.323-.176-.323-.323 0-.066-.029-.117-.073-.117-.037 0-.074-.132-.074-.294 0-.161-.029-.293-.073-.293-.037 0-.073-.103-.073-.22v-.22h-.881v.22c0 .117.037.22.074.22.044 0 .073.33.073.85 0 .874.059 1.057.323 1.057.066 0 .117.03.117.074 0 .036.103.073.22.073.125 0 .22.03.22.073 0 .037.133.074.294.074.161 0 .293.03.293.073 0 .044.492.074 1.321.074s1.321-.03 1.321-.074.103-.073.22-.073c.125 0 .22-.037.22-.074 0-.044.066-.073.147-.073.08 0 .147-.037.147-.073 0-.044.051-.074.11-.074.146 0 1.063-.917 1.063-1.063 0-.06.037-.11.074-.11.044 0 .073-.067.073-.147 0-.081.037-.147.074-.147.044 0 .073-.345.073-.88 0-.536-.029-.881-.073-.881-.037 0-.074-.066-.074-.147 0-.08-.029-.146-.073-.146-.037 0-.074-.052-.074-.11 0-.14-.763-.918-.902-.918-.051 0-.139-.066-.198-.146-.059-.081-.162-.147-.235-.147-.073 0-.132-.037-.132-.073 0-.045-.066-.074-.147-.074-.08 0-.146-.037-.146-.073 0-.044-.066-.074-.147-.074-.081 0-.147-.036-.147-.073 0-.044-.066-.073-.147-.073-.08 0-.146-.037-.146-.074 0-.044-.066-.073-.147-.073-.081 0-.147-.037-.147-.074 0-.043-.066-.073-.147-.073-.08 0-.146-.037-.146-.073 0-.044-.066-.074-.147-.074-.081 0-.147-.036-.147-.073 0-.044-.059-.073-.132-.073-.073 0-.176-.066-.235-.147-.058-.08-.146-.147-.198-.147-.139 0-.756-.63-.756-.77 0-.059-.029-.11-.073-.11-.037 0-.073-.132-.073-.286 0-.162-.044-.309-.088-.33-.074-.037-.074-.052 0-.089.044-.022.088-.154.088-.293 0-.206.073-.323.403-.653.272-.279.462-.404.587-.404.103 0 .184-.036.184-.073 0-.044.315-.073.807-.073.491 0 .807.029.807.073 0 .037.081.073.183.073.242 0 .551.308.551.55 0 .103.036.184.073.184.044 0 .073.095.073.22 0 .117.037.22.074.22.044 0 .073.066.073.147 0 .125.051.147.367.147h.367v-.88c0-.536-.03-.881-.074-.881-.036 0-.073-.103-.073-.22 0-.17-.029-.22-.147-.22-.08 0-.147-.037-.147-.074 0-.044-.132-.073-.293-.073-.161 0-.293-.037-.293-.074 0-.044-.463-.073-1.248-.073-.785 0-1.247.03-1.247.073zm-200.597.441c0 .36.007.367.22.367.125 0 .22.029.22.073 0 .037.132.073.294.073h.293v.44c0 .243.03.44.074.44s.073 1.006.073 2.862-.03 2.862-.073 2.862c-.044 0-.074.367-.074.954 0 .902-.007.953-.146.953-.081 0-.147.03-.147.074 0 .037-.117.073-.264.073-.14 0-.308.044-.367.103-.117.125-.14.337-.03.337.045 0 .074.066.074.147 0 .14.051.147 1.834.147h1.835v-.734h-.367c-.198 0-.367-.036-.367-.073 0-.044-.162-.074-.367-.074h-.367v-1.687c0-1.636.007-1.688.147-1.688.08 0 .147.03.147.074s.271.073.66.073.66-.03.66-.073c0-.044.169-.074.367-.074.206 0 .367-.036.367-.073 0-.044.066-.073.147-.073.08 0 .147-.037.147-.074 0-.044.066-.073.146-.073.08 0 .147-.037.147-.074 0-.044.059-.073.132-.073.073 0 .176-.066.235-.147.059-.08.147-.146.205-.146.125 0 .455-.33.455-.455 0-.059.066-.147.147-.206.08-.059.147-.161.147-.235 0-.073.036-.132.073-.132.044 0 .073-.102.073-.22 0-.124.037-.22.074-.22.044 0 .073-.315.073-.807 0-.491-.03-.807-.073-.807-.037 0-.074-.132-.074-.294 0-.16-.029-.293-.073-.293-.037 0-.073-.051-.073-.11 0-.147-.918-1.064-1.064-1.064-.059 0-.11-.037-.11-.073 0-.044-.096-.074-.22-.074-.118 0-.22-.036-.22-.073 0-.044-.133-.073-.294-.073-.161 0-.293-.037-.293-.074 0-.044-.786-.073-2.202-.073h-2.2v.367zm3.522.44c0 .037.169.073.367.073.205 0 .367.03.367.074 0 .036.066.073.147.073.08 0 .146.03.146.073 0 .037.052.074.11.074.147 0 .624.477.624.623 0 .06.037.11.073.11.044 0 .074.066.074.147 0 .08.036.147.073.147.044 0 .073.345.073.88 0 .536-.029.88-.073.88-.037 0-.073.082-.073.184 0 .213-.433.697-.624.697-.059 0-.11.03-.11.074 0 .036-.066.073-.147.073-.08 0-.146.03-.146.074 0 .036-.133.073-.294.073-.161 0-.293.03-.293.073 0 .044-.22.074-.514.074-.294 0-.514-.03-.514-.074s-.095-.073-.22-.073h-.22v-4.402h.587c.345 0 .587.029.587.073zm6.844-.697c-.051.059-.095.22-.095.367 0 .25.007.257.293.257.162 0 .294.029.294.073 0 .037.088.073.19.073.411 0 .397-.14.397 4.358v4.153h-.22c-.118 0-.22.03-.22.074 0 .036-.118.073-.265.073-.264 0-.594.213-.41.279.043.015.087.125.087.242v.213h3.229v-.734h-.294c-.161 0-.293-.037-.293-.073 0-.044-.096-.074-.22-.074h-.22v-3.815h.477c.418 0 .506.022.66.183.103.096.183.228.183.294 0 .059.037.11.074.11.044 0 .073.059.073.132 0 .074.066.176.147.235.08.059.147.161.147.235 0 .073.036.132.073.132.044 0 .073.058.073.132 0 .073.066.176.147.235.08.058.147.161.147.234 0 .074.036.133.073.133.044 0 .073.058.073.131 0 .074.067.177.147.235.08.059.147.154.147.22s.066.162.147.22c.08.06.147.155.147.206 0 .059.102.198.22.308.124.11.22.242.22.286 0 .125.785.888.917.888.058 0 .11.03.11.073 0 .037.066.074.147.074.08 0 .146.03.146.073 0 .044.316.074.808.074h.807v-.734h-.294c-.161 0-.293-.037-.293-.073 0-.044-.052-.074-.118-.074s-.213-.103-.323-.22c-.11-.125-.256-.22-.323-.22a.116.116 0 01-.117-.117c0-.06-.161-.272-.367-.47-.198-.198-.367-.404-.367-.455 0-.059-.066-.147-.146-.205-.081-.06-.147-.154-.147-.22 0-.067-.066-.162-.147-.22-.08-.06-.147-.155-.147-.22 0-.067-.066-.162-.146-.22-.081-.06-.147-.155-.147-.221s-.066-.161-.147-.22c-.08-.059-.147-.154-.147-.22s-.066-.162-.146-.22c-.081-.059-.147-.154-.147-.22s-.066-.162-.147-.22c-.08-.06-.147-.162-.147-.235 0-.081.052-.132.147-.132.08 0 .147-.037.147-.074 0-.044.066-.073.147-.073.08 0 .147-.037.147-.073 0-.045.05-.074.11-.074.146 0 1.063-.917 1.063-1.064 0-.059.037-.11.074-.11.044 0 .073-.103.073-.22 0-.125.037-.22.073-.22.044 0 .074-.345.074-.88 0-.536-.03-.881-.074-.881-.036 0-.073-.066-.073-.147 0-.08-.03-.147-.073-.147-.037 0-.074-.05-.074-.11 0-.146-.623-.77-.77-.77-.059 0-.11-.037-.11-.073 0-.044-.095-.074-.22-.074-.118 0-.22-.036-.22-.073 0-.044-.096-.073-.22-.073-.118 0-.22-.037-.22-.074 0-.044-.8-.073-2.253-.073-1.856.007-2.275.022-2.348.11zm3.573.697c0 .037.169.073.367.073.206 0 .367.03.367.074 0 .036.059.073.132.073.073 0 .176.066.235.147.059.08.161.146.235.146.08 0 .132.052.132.147 0 .08.036.147.073.147.044 0 .074.066.074.147 0 .08.036.147.073.147.044 0 .073.132.073.293 0 .161.037.293.074.293.044 0 .073.096.073.22 0 .118-.03.22-.073.22-.037 0-.074.133-.074.294 0 .162-.03.294-.073.294-.037 0-.073.051-.073.11 0 .146-.624.77-.77.77-.06 0-.111.03-.111.074 0 .036-.132.073-.294.073-.16 0-.293.03-.293.073 0 .044-.294.074-.734.074h-.733v-3.962H89c.389 0 .66.029.66.073zm20.983-.44c0 .36.007.367.22.367.124 0 .22.029.22.073 0 .037.088.073.191.073.41 0 .396-.14.396 4.359 0 4.101 0 4.152-.147 4.152-.081 0-.147.03-.147.074 0 .037-.117.073-.264.073-.33 0-.469.14-.469.47v.264h3.815v-.734h-.44c-.242 0-.441-.03-.441-.073 0-.044-.132-.074-.293-.074h-.294v-1.687c0-1.636.008-1.688.147-1.688.081 0 .147.03.147.074s.271.073.66.073.661-.03.661-.073c0-.044.168-.074.367-.074.205 0 .366-.036.366-.073 0-.044.066-.073.147-.073.081 0 .147-.037.147-.074 0-.044.066-.073.147-.073.08 0 .146-.037.146-.074 0-.044.052-.073.11-.073.147 0 1.064-.917 1.064-1.064 0-.059.037-.11.074-.11.044 0 .073-.066.073-.147 0-.08.037-.146.073-.146.044 0 .074-.103.074-.22 0-.125.036-.22.073-.22.044 0 .074-.272.074-.66 0-.39-.03-.661-.074-.661-.037 0-.073-.132-.073-.294 0-.161-.03-.293-.074-.293-.036 0-.073-.066-.073-.147 0-.08-.029-.147-.073-.147-.037 0-.074-.051-.074-.11 0-.147-.623-.77-.77-.77-.059 0-.11-.037-.11-.074 0-.044-.066-.073-.147-.073-.081 0-.147-.037-.147-.073 0-.044-.066-.074-.146-.074-.081 0-.147-.036-.147-.073 0-.044-.132-.073-.294-.073-.161 0-.293-.037-.293-.074 0-.044-.785-.073-2.201-.073h-2.201v.367zm3.521.44c0 .037.169.073.367.073.206 0 .367.03.367.074 0 .036.059.073.132.073.074 0 .176.066.235.147.059.08.147.146.205.146.125 0 .309.184.309.309 0 .058.066.146.146.205.088.059.147.19.147.308 0 .11.037.206.073.206.044 0 .074.315.074.807 0 .491-.03.807-.074.807-.036 0-.073.066-.073.147 0 .08-.029.146-.073.146-.037 0-.074.052-.074.11 0 .147-.33.477-.477.477-.058 0-.11.03-.11.074 0 .036-.066.073-.146.073-.081 0-.147.03-.147.074 0 .036-.132.073-.294.073-.161 0-.293.03-.293.073 0 .044-.22.074-.514.074-.293 0-.513-.03-.513-.074s-.132-.073-.294-.073h-.293v-1.468c0-.931.029-1.467.073-1.467s.073-.294.073-.734v-.733h.587c.345 0 .587.029.587.073zm18.053-.44c0 .36.008.367.22.367.125 0 .221.029.221.073 0 .037.132.073.293.073h.293v8.511h-.22c-.117 0-.22.03-.22.074 0 .036-.132.073-.293.073h-.294v.734h3.375v-.734h-.293c-.162 0-.294-.037-.294-.073 0-.044-.095-.074-.22-.074-.212 0-.22-.007-.22-.367 0-.205-.029-.366-.073-.366s-.074-.565-.074-1.541v-1.54h.587c.514 0 .587.014.587.131 0 .073.066.176.147.235.081.059.147.161.147.235 0 .073.037.132.073.132.044 0 .074.059.074.132 0 .073.066.176.146.235.081.058.147.161.147.234 0 .074.037.133.073.133.044 0 .074.058.074.132 0 .073.066.176.147.234.08.059.146.154.146.22 0 .067.066.162.147.22.081.06.147.162.147.235 0 .074.037.132.073.132.044 0 .074.052.074.118s.102.213.22.323c.124.11.22.242.22.286 0 .044.279.36.623.704.448.455.675.624.808.624.102 0 .183.03.183.073 0 .044.315.074.807.074h.807v-.734h-.293c-.162 0-.294-.037-.294-.073 0-.044-.066-.074-.147-.074-.08 0-.146-.037-.146-.073 0-.044-.052-.074-.11-.074-.14 0-1.064-.91-1.064-1.049 0-.051-.066-.14-.147-.198-.081-.059-.147-.154-.147-.22s-.066-.162-.146-.22c-.081-.059-.147-.154-.147-.22s-.066-.162-.147-.22c-.081-.06-.147-.154-.147-.22s-.066-.162-.146-.22c-.081-.06-.147-.155-.147-.22 0-.067-.066-.162-.147-.22-.081-.06-.147-.155-.147-.221s-.066-.161-.146-.22c-.081-.059-.147-.154-.147-.22s-.066-.162-.147-.22c-.081-.059-.147-.132-.147-.162s.066-.058.147-.058c.081 0 .147-.037.147-.074 0-.044.066-.073.147-.073.08 0 .146-.037.146-.073 0-.045.059-.074.132-.074.074 0 .176-.066.235-.147.059-.08.147-.146.206-.146.124 0 .455-.33.455-.455 0-.059.066-.147.146-.206.081-.058.147-.161.147-.234 0-.074.037-.133.073-.133.044 0 .074-.132.074-.293 0-.162.036-.294.073-.294.044 0 .073-.242.073-.587 0-.344-.029-.587-.073-.587-.037 0-.073-.102-.073-.22 0-.124-.03-.22-.074-.22-.036 0-.073-.059-.073-.132 0-.073-.066-.176-.147-.235-.08-.058-.146-.161-.146-.234 0-.081-.052-.133-.133-.133-.073 0-.176-.066-.234-.146-.059-.08-.162-.147-.235-.147-.074 0-.132-.037-.132-.073 0-.044-.066-.074-.147-.074-.081 0-.147-.036-.147-.073 0-.044-.132-.073-.293-.073-.162 0-.294-.037-.294-.074 0-.044-.807-.073-2.274-.073h-2.275v.367zm3.522.44c0 .037.169.073.367.073.205 0 .367.03.367.074 0 .036.066.073.147.073.08 0 .146.03.146.073 0 .037.052.074.11.074.147 0 .477.33.477.477 0 .058.037.11.074.11.044 0 .073.066.073.147 0 .08.037.146.073.146.044 0 .074.272.074.66 0 .39-.03.66-.074.66-.036 0-.073.067-.073.148 0 .08-.029.146-.073.146-.037 0-.074.052-.074.11 0 .147-.33.477-.477.477-.058 0-.11.03-.11.074 0 .036-.066.073-.146.073-.081 0-.147.03-.147.074 0 .036-.096.073-.22.073-.118 0-.22.03-.22.073 0 .044-.316.074-.807.074h-.808v-1.871c0-1.402.022-1.9.096-1.981.103-.125 1.225-.154 1.225-.037zm17.314-.44c0 .36.007.367.22.367.125 0 .22.029.22.073 0 .037.081.073.183.073.198 0 .551.294.551.455 0 .059.066.147.146.206.081.058.147.161.147.234 0 .074.037.133.074.133.044 0 .073.058.073.132 0 .073.066.176.147.234.08.059.146.154.146.22s.066.162.147.22c.081.06.147.155.147.22 0 .067.066.162.147.22.08.06.146.155.146.22 0 .067.066.162.147.221.081.059.147.161.147.235 0 .073.037.132.073.132.044 0 .074.059.074.132 0 .073.066.176.146.235.081.058.147.154.147.22s.066.161.147.22c.081.059.147.154.147.22s.066.162.146.22c.081.059.147.162.147.235 0 .073.037.132.073.132.044 0 .074.066.074.147 0 .08.036.147.073.147.044 0 .074.587.074 1.614 0 1.027-.03 1.614-.074 1.614-.037 0-.073.066-.073.147 0 .095-.052.146-.147.146-.081 0-.147.03-.147.074s-.198.073-.44.073h-.44v.734h1.834c1.783 0 1.834-.008 1.834-.147 0-.08.037-.147.074-.147.044 0 .073-.102.073-.22v-.22h-.44c-.242 0-.44-.03-.44-.073 0-.044-.096-.074-.22-.074h-.221v-1.834c0-1.174.03-1.834.074-1.834s.073-.059.073-.132c0-.074.066-.176.147-.235.081-.059.147-.154.147-.22s.066-.162.146-.22c.081-.059.147-.154.147-.22s.066-.162.147-.22c.081-.06.147-.155.147-.22 0-.067.066-.162.146-.22.081-.06.147-.155.147-.22 0-.067.066-.162.147-.221.081-.059.147-.154.147-.22s.066-.162.146-.22c.081-.059.147-.162.147-.235 0-.073.037-.132.074-.132.044 0 .073-.059.073-.132 0-.074.066-.176.147-.235.08-.059.146-.154.146-.22s.066-.161.147-.22c.081-.059.147-.154.147-.22s.066-.162.147-.22c.08-.06.146-.147.146-.206 0-.161.353-.455.551-.455.102 0 .183-.036.183-.073 0-.044.103-.073.22-.073.213 0 .22-.008.22-.367v-.367h-3.228v.734h.293c.162 0 .294.029.294.073 0 .037.103.073.22.073.264 0 .301.198.073.367-.08.059-.146.162-.146.235 0 .073-.03.132-.074.132-.036 0-.073.059-.073.132 0 .073-.066.176-.147.235-.081.059-.147.161-.147.235 0 .073-.029.132-.073.132-.037 0-.073.058-.073.132 0 .073-.066.176-.147.235-.081.058-.147.161-.147.234 0 .074-.029.132-.073.132-.037 0-.074.06-.074.133 0 .073-.066.176-.146.234-.081.059-.147.162-.147.235 0 .073-.029.132-.073.132-.037 0-.074.059-.074.132 0 .074-.066.176-.147.235-.08.059-.146.161-.146.235 0 .073-.03.132-.074.132-.036 0-.073.066-.073.147 0 .08-.029.146-.073.146-.037 0-.074-.058-.074-.132 0-.073-.066-.176-.146-.235-.081-.058-.147-.16-.147-.234 0-.074-.03-.132-.074-.132-.036 0-.073-.06-.073-.132 0-.074-.066-.176-.147-.235-.08-.059-.146-.154-.146-.22s-.066-.162-.147-.22c-.081-.06-.147-.154-.147-.22 0-.067-.066-.162-.147-.22-.08-.06-.146-.155-.146-.22 0-.067-.066-.162-.147-.22-.081-.06-.147-.162-.147-.236 0-.073-.029-.132-.073-.132-.037 0-.074-.058-.074-.132 0-.073-.066-.176-.146-.235-.081-.058-.147-.154-.147-.22s-.066-.161-.147-.22c-.227-.169-.191-.367.073-.367.125 0 .221-.036.221-.073 0-.044.102-.073.22-.073.212 0 .22-.008.22-.367v-.367h-3.375v.367zm17.022-.147c0 .117-.029.22-.073.22-.037 0-.073.066-.073.147 0 .125.051.147.293.147.162 0 .294.029.294.073 0 .037.088.073.19.073.411 0 .397-.132.397 4.256 0 4.27 0 4.255-.323 4.255-.066 0-.118.03-.118.074 0 .037-.117.073-.264.073-.139 0-.308.044-.367.103-.117.125-.139.337-.029.337.044 0 .073.066.073.147 0 .147.052.147 2.789.147 1.812 0 2.788-.03 2.788-.074s.132-.073.293-.073c.162 0 .294-.037.294-.073 0-.044.102-.074.22-.074.125 0 .22-.036.22-.073 0-.044.066-.073.147-.073.08 0 .146-.037.146-.074 0-.044.066-.073.147-.073.081 0 .147-.037.147-.073 0-.044.059-.074.132-.074.073 0 .176-.066.235-.147.058-.08.146-.146.198-.146.125 0 1.049-.925 1.049-1.05 0-.05.066-.139.147-.198.081-.058.147-.161.147-.235 0-.073.036-.132.073-.132.044 0 .073-.066.073-.146 0-.081.037-.147.074-.147.044 0 .073-.103.073-.22 0-.125.037-.22.073-.22.044 0 .074-.103.074-.22 0-.125.036-.22.073-.22.044 0 .074-.265.074-.654 0-.454.029-.667.095-.697.073-.036.073-.05 0-.088-.066-.029-.095-.242-.095-.697 0-.389-.03-.653-.074-.653-.037 0-.073-.132-.073-.293 0-.162-.03-.294-.074-.294-.036 0-.073-.066-.073-.146 0-.081-.029-.147-.073-.147-.037 0-.074-.066-.074-.147 0-.08-.029-.147-.073-.147-.037 0-.073-.058-.073-.132 0-.073-.066-.176-.147-.234-.081-.06-.147-.147-.147-.199 0-.124-.631-.755-.756-.755-.051 0-.139-.066-.198-.147-.058-.08-.154-.147-.22-.147s-.161-.066-.22-.146c-.059-.088-.191-.147-.308-.147-.11 0-.206-.037-.206-.074 0-.044-.066-.073-.146-.073-.081 0-.147-.037-.147-.073 0-.044-.132-.074-.294-.074-.161 0-.293-.036-.293-.073 0-.044-.161-.073-.367-.073-.198 0-.367-.037-.367-.074 0-.044-.932-.073-2.641-.073h-2.642v.22zm4.99.734c0 .036.132.073.293.073.162 0 .294.03.294.073 0 .037.066.074.146.074.081 0 .147.03.147.073 0 .037.066.073.147.073.081 0 .147.03.147.074 0 .037.066.073.146.073.081 0 .147.03.147.074 0 .036.052.073.11.073.147 0 .917.77.917.917 0 .059.037.11.074.11.044 0 .073.066.073.147 0 .08.037.147.073.147.045 0 .074.066.074.146 0 .081.037.147.073.147.044 0 .074.066.074.147 0 .08.036.147.073.147.044 0 .073.132.073.293 0 .162.037.294.074.294.044 0 .073.22.073.513 0 .294.029.514.073.514s.074.161.074.367c0 .198-.03.367-.074.367s-.073.198-.073.44-.029.44-.073.44c-.037 0-.074.095-.074.22 0 .117-.029.22-.073.22-.037 0-.073.096-.073.206 0 .117-.059.25-.147.308-.081.058-.147.147-.147.198 0 .125-.631.756-.756.756-.051 0-.139.066-.198.146-.058.081-.161.147-.235.147-.073 0-.132.03-.132.073 0 .037-.095.074-.22.074-.117 0-.22.03-.22.073 0 .037-.132.074-.293.074-.162 0-.294.029-.294.073s-.44.073-1.174.073c-.733 0-1.174-.029-1.174-.073s-.132-.073-.293-.073c-.279 0-.294-.015-.294-.22 0-.125-.029-.22-.073-.22-.117 0-.103-7.683.022-7.815.066-.08.36-.102 1.394-.11.814 0 1.299.03 1.299.074zm18.635-.734c0 .117-.029.22-.073.22-.037 0-.073.066-.073.147 0 .117.051.147.22.147.125 0 .22.029.22.073 0 .037.088.073.191.073.212 0 .396.154.396.323 0 .066.037.117.073.117.044 0 .074.096.074.22 0 .118.036.22.073.22.044 0 .073.067.073.148 0 .08.037.146.074.146.044 0 .073.096.073.22 0 .118.037.22.074.22.044 0 .073.066.073.147 0 .08.037.147.073.147.044 0 .074.095.074.22 0 .117.036.22.073.22.044 0 .073.096.073.22 0 .118.037.22.074.22.044 0 .073.066.073.147 0 .08.037.147.073.147.045 0 .074.095.074.22 0 .117.037.22.073.22.044 0 .074.066.074.147 0 .08.036.147.073.147.044 0 .073.095.073.22 0 .117.037.22.074.22.044 0 .073.066.073.147 0 .08.037.146.073.146.044 0 .074.096.074.22 0 .118.037.22.073.22.044 0 .074.096.074.22 0 .118.036.22.073.22.044 0 .073.067.073.148 0 .08.037.146.074.146.044 0 .073.096.073.22 0 .118.037.22.073.22.044 0 .074.066.074.147 0 .08.036.147.073.147.044 0 .074.095.074.22 0 .117.036.22.073.22.044 0 .073.066.073.147 0 .08.037.147.074.147.044 0 .073.095.073.22 0 .117.037.22.073.22.044 0 .074.095.074.22 0 .117.036.22.073.22.044 0 .074.066.074.147 0 .08.036.147.073.147.044 0 .073.095.073.22 0 .117.037.22.074.22.044 0 .073.066.073.147 0 .08.037.146.073.146.044 0 .074.096.074.22v.22h.44c.389 0 .44-.014.44-.146 0-.08.037-.147.074-.147.044 0 .073-.103.073-.22 0-.125.037-.22.073-.22.044 0 .074-.066.074-.147 0-.08.036-.147.073-.147.044 0 .073-.102.073-.22 0-.125.037-.22.074-.22.044 0 .073-.066.073-.147 0-.08.037-.146.074-.146.044 0 .073-.103.073-.22 0-.125.037-.22.073-.22.044 0 .074-.067.074-.147 0-.081.036-.147.073-.147.044 0 .073-.103.073-.22 0-.125.037-.22.074-.22.044 0 .073-.066.073-.147 0-.08.037-.147.074-.147.044 0 .073-.102.073-.22 0-.125.037-.22.073-.22.044 0 .074-.103.074-.22 0-.125.036-.22.073-.22.044 0 .073-.066.073-.147 0-.08.037-.147.074-.147.044 0 .073-.102.073-.22 0-.125.037-.22.074-.22.044 0 .073-.066.073-.147 0-.08.037-.146.073-.146.044 0 .074-.103.074-.22 0-.125.036-.22.073-.22.044 0 .073-.067.073-.147 0-.081.037-.147.074-.147.044 0 .073-.103.073-.22 0-.125.037-.22.073-.22.045 0 .074-.066.074-.147 0-.08.037-.147.073-.147.044 0 .074-.103.074-.22 0-.125.036-.22.073-.22.044 0 .073-.066.073-.147 0-.08.037-.147.074-.147.044 0 .073-.102.073-.22 0-.124.037-.22.073-.22.044 0 .074-.066.074-.147 0-.08.037-.146.073-.146.044 0 .074-.103.074-.22 0-.125.036-.22.073-.22.044 0 .073-.067.073-.147 0-.081.037-.147.074-.147.044 0 .073-.103.073-.22 0-.125.037-.22.073-.22.044 0 .074-.066.074-.147 0-.117.051-.147.22-.147.125 0 .22-.036.22-.073 0-.044.103-.073.22-.073.213 0 .22-.008.22-.367v-.367h-3.228v.734h.293c.162 0 .294.029.294.073 0 .037.132.073.293.073.242 0 .294.022.294.147 0 .08-.029.147-.074.147-.036 0-.073.066-.073.146 0 .081-.029.147-.073.147-.037 0-.074.096-.074.22 0 .118-.029.22-.073.22-.037 0-.073.096-.073.22 0 .118-.03.22-.074.22-.036 0-.073.096-.073.22 0 .118-.029.22-.073.22-.037 0-.074.067-.074.148 0 .08-.029.146-.073.146-.037 0-.074.096-.074.22 0 .118-.029.22-.073.22-.037 0-.073.096-.073.22 0 .118-.03.22-.074.22-.036 0-.073.096-.073.221 0 .117-.029.22-.073.22-.037 0-.074.066-.074.147 0 .08-.029.147-.073.147-.037 0-.074.095-.074.22 0 .117-.029.22-.073.22-.037 0-.073.095-.073.22 0 .117-.03.22-.074.22-.036 0-.073.095-.073.22 0 .118-.029.22-.073.22-.037 0-.074.066-.074.147 0 .08-.029.147-.073.147-.037 0-.074.095-.074.22 0 .117-.029.22-.073.22-.037 0-.073.095-.073.22 0 .117-.03.22-.074.22-.036 0-.073.096-.073.22 0 .118-.029.22-.073.22-.037 0-.074.089-.074.191 0 .169-.147.396-.249.396-.022 0-.044-.102-.044-.22 0-.124-.03-.22-.074-.22-.036 0-.073-.066-.073-.146 0-.081-.029-.147-.073-.147-.037 0-.074-.103-.074-.22 0-.125-.029-.22-.073-.22-.037 0-.074-.066-.074-.147 0-.081-.029-.147-.073-.147-.037 0-.073-.103-.073-.22 0-.125-.03-.22-.074-.22-.036 0-.073-.103-.073-.22 0-.125-.029-.22-.073-.22-.037 0-.074-.066-.074-.147 0-.08-.029-.147-.073-.147-.037 0-.073-.103-.073-.22 0-.125-.03-.22-.074-.22-.037 0-.073-.103-.073-.22 0-.125-.03-.22-.074-.22-.036 0-.073-.066-.073-.147 0-.08-.029-.147-.073-.147-.037 0-.074-.103-.074-.22 0-.125-.029-.22-.073-.22-.037 0-.073-.066-.073-.147 0-.08-.03-.147-.074-.147-.037 0-.073-.102-.073-.22 0-.125-.03-.22-.074-.22-.036 0-.073-.103-.073-.22 0-.125-.029-.22-.073-.22-.037 0-.074-.066-.074-.147 0-.08-.029-.147-.073-.147-.037 0-.073-.102-.073-.22 0-.124-.03-.22-.074-.22-.036 0-.073-.102-.073-.22 0-.125-.03-.22-.074-.22-.036 0-.073-.066-.073-.147 0-.08-.029-.147-.073-.147-.037 0-.074-.102-.074-.22 0-.198.022-.22.22-.22.125 0 .221-.036.221-.073 0-.044.102-.073.22-.073.212 0 .22-.008.22-.367v-.367H193.7v.22zm23.773.147c0 .36.007.367.22.367.125 0 .22.029.22.073 0 .037.132.073.293.073h.294v4.256c0 4.204 0 4.255-.147 4.255-.081 0-.147.03-.147.074 0 .036-.161.073-.366.073h-.367v.734h3.155c2.054 0 3.155.022 3.155.073 0 .037.168.074.366.074.316 0 .367-.022.367-.147 0-.08.037-.147.074-.147.044 0 .073-.103.073-.22 0-.125.037-.22.073-.22.044 0 .074-.132.074-.294 0-.161.037-.293.073-.293.044 0 .074-.132.074-.294 0-.161.036-.293.073-.293.044 0 .073-.132.073-.294 0-.161.037-.293.074-.293a.073.073 0 00.073-.073c0-.044-.132-.074-.293-.074-.162 0-.294-.036-.294-.073 0-.044-.066-.074-.147-.074-.095 0-.146.052-.146.133 0 .073-.066.176-.147.234-.081.059-.147.162-.147.235 0 .073-.029.132-.073.132-.037 0-.074.066-.074.147 0 .08-.029.147-.073.147-.037 0-.073.066-.073.146 0 .081-.03.147-.074.147-.036 0-.073.066-.073.147 0 .117-.051.147-.22.147-.118 0-.22.029-.22.073s-.58.073-1.585.073c-1.27 0-1.6-.022-1.688-.102-.088-.088-.102-.756-.102-4.256V46.51h.513c.294 0 .514-.03.514-.073 0-.044.102-.073.22-.073.213 0 .22-.008.22-.367v-.367h-3.815v.367zm23.773 0c0 .36.007.367.22.367.125 0 .22.029.22.073 0 .037.132.073.294.073.242 0 .293.022.293.147 0 .08.037.147.074.147.051 0 .073 1.372.073 3.962s-.022 3.962-.073 3.962c-.037 0-.074.066-.074.147 0 .095-.051.146-.146.146-.081 0-.147.03-.147.074 0 .037-.132.073-.294.073h-.293v.734h3.668v-.734h-.366c-.199 0-.367-.036-.367-.073 0-.044-.162-.074-.367-.074h-.367v-1.687c0-1.636.007-1.688.147-1.688.08 0 .146.03.146.074s.272.073.661.073.66-.03.66-.073c0-.044.169-.074.367-.074.205 0 .367-.036.367-.073 0-.044.103-.073.22-.073.125 0 .22-.037.22-.074 0-.044.059-.073.132-.073.074 0 .176-.066.235-.147.059-.08.147-.147.205-.147.125 0 .602-.477.602-.601 0-.059.066-.147.147-.206.081-.059.147-.161.147-.235 0-.073.036-.132.073-.132.044 0 .073-.102.073-.22 0-.124.037-.22.074-.22.044 0 .073-.345.073-.88 0-.536-.029-.88-.073-.88-.037 0-.074-.104-.074-.22 0-.126-.029-.221-.073-.221-.037 0-.073-.051-.073-.11 0-.147-.918-1.064-1.064-1.064-.059 0-.11-.037-.11-.073 0-.044-.096-.074-.221-.074-.117 0-.22-.036-.22-.073 0-.044-.095-.073-.22-.073-.117 0-.22-.037-.22-.074 0-.044-.807-.073-2.274-.073h-2.275v.367zm3.522.44c0 .037.169.073.367.073.205 0 .367.03.367.074 0 .036.066.073.146.073.081 0 .147.03.147.073 0 .037.051.074.11.074.147 0 .624.477.624.623 0 .06.037.11.073.11.044 0 .074.066.074.147 0 .08.036.147.073.147.044 0 .073.161.073.367 0 .198.037.367.074.367.044 0 .073.095.073.22 0 .117-.029.22-.073.22-.037 0-.074.161-.074.367 0 .198-.029.367-.073.367-.037 0-.073.051-.073.11 0 .19-.631.77-.844.77-.103 0-.184.03-.184.074 0 .036-.132.073-.293.073-.162 0-.294.03-.294.073 0 .044-.22.074-.513.074-.294 0-.514-.03-.514-.074s-.095-.073-.22-.073h-.22v-4.402h.587c.345 0 .587.029.587.073zm18.05-.44v.367h.294c.161 0 .293.029.293.073 0 .037.103.073.22.073h.221v.44c0 .243.029.44.073.44.051 0 .073 1.153.073 3.303s-.022 3.301-.073 3.301c-.044 0-.073.22-.073.514 0 .462-.015.513-.147.513-.081 0-.147.03-.147.074 0 .036-.117.073-.264.073-.33 0-.47.14-.47.47v.264h3.375v-.734h-.293c-.161 0-.294-.037-.294-.073 0-.044-.095-.074-.22-.074h-.22v-3.815h.485c.484 0 .689.095.689.308 0 .059.066.147.147.206.081.058.147.161.147.234 0 .074.036.133.073.133.044 0 .073.058.073.132 0 .073.066.176.147.234.081.06.147.162.147.235 0 .073.037.132.073.132.044 0 .074.059.074.132 0 .074.066.176.146.235.081.059.147.154.147.22s.066.162.147.22c.081.059.147.154.147.22s.066.162.146.22c.081.06.147.155.147.22 0 .067.066.162.147.22.081.06.147.148.147.199 0 .14.924 1.05 1.063 1.05.059 0 .111.028.111.072 0 .037.066.074.146.074.081 0 .147.03.147.073 0 .044.316.074.807.074h.807v-.734h-.293c-.162 0-.294-.037-.294-.073 0-.044-.058-.074-.132-.074-.073 0-.176-.066-.235-.147-.058-.08-.146-.146-.205-.146-.117 0-.602-.477-.602-.595 0-.044-.095-.176-.22-.286-.117-.11-.22-.25-.22-.308 0-.051-.066-.147-.147-.205-.08-.06-.146-.154-.146-.22 0-.067-.066-.162-.147-.22-.081-.06-.147-.155-.147-.22 0-.067-.066-.162-.147-.22-.08-.06-.146-.155-.146-.221s-.066-.161-.147-.22c-.081-.059-.147-.154-.147-.22s-.066-.162-.147-.22c-.08-.059-.146-.154-.146-.22s-.066-.162-.147-.22c-.081-.06-.147-.147-.147-.206 0-.154.191-.308.382-.308.095 0 .22-.066.278-.147.059-.08.147-.147.199-.147.139 0 .755-.63.755-.77 0-.059.037-.11.074-.11.044 0 .073-.066.073-.147 0-.08.037-.147.073-.147.044 0 .074-.066.074-.146 0-.081.036-.147.073-.147.044 0 .074-.316.074-.807 0-.492-.03-.807-.074-.807-.037 0-.073-.103-.073-.22 0-.125-.03-.22-.074-.22-.036 0-.073-.052-.073-.11 0-.14-.47-.624-.602-.624-.058 0-.146-.066-.205-.147-.059-.088-.191-.147-.308-.147-.11 0-.206-.036-.206-.073 0-.044-.132-.073-.293-.073-.162 0-.294-.037-.294-.074 0-.044-.807-.073-2.274-.073h-2.275v.367zm3.669.44c0 .037.169.073.367.073.205 0 .367.03.367.074 0 .036.051.073.11.073.146 0 .77.624.77.77 0 .06.037.11.073.11.045 0 .074.316.074.808 0 .491-.029.807-.074.807-.036 0-.073.051-.073.11 0 .146-.624.77-.77.77-.059 0-.11.03-.11.074 0 .036-.132.073-.294.073-.161 0-.293.03-.293.073 0 .044-.294.074-.734.074h-.734v-3.962h.661c.388 0 .66.029.66.073z"/></g></svg>