<svg width="278" height="30" fill="none" xmlns="http://www.w3.org/2000/svg"><path opacity=".9" d="M277.788.296l.124-.266h-24.364c-7.182 0-13.3 1.298-18.358 3.894-4.906 2.465-8.738 6.31-10.886 10.922-1.416 2.982-1.82 5.691-1.21 8.126a7.57 7.57 0 001.926 3.342 8.947 8.947 0 003.46 2.17c2.646 1.01 7.06 1.516 13.238 1.516h22.012l2.194-4.757h-12.376c-5.978 0-9.956-.68-11.934-2.041-2.18-1.467-1.934-4.872-.232-8.453 2.952-6.23 9.132-10.112 17.68-10.112h9.588l-2.206 4.679h7.306L278 .296h-.212zm-85.352 17.708L207.26 5.259l3.082 12.745h-17.906zm-126.056.048L80.814 5.85l2.604 12.202H66.38zM205.988 0h-9.027l-34.739 28.738L175.795.03H160.91l-17.987 12.45-9.26 6.719h-.397l4.36-9.787L132.289.03h-14.953l-13.6 28.763L95.897.03H79.495L43.274 30h9.083l9.253-7.849h22.806L86.233 30h24.234l8.762-18.529c.444-.93.861-1.998 1.278-3.194a7.65 7.65 0 00.875 3.073l7.708 15.456h1.299l22.047-15.395a45.061 45.061 0 003.752-3.134c-.854 1.395-1.449 2.458-1.797 3.194L145.629 30h32.866l9.151-7.849h23.686l1.9 7.849h8.332l-8.112-30h-7.464zM47.34 22.972c2.781-2.277 4.989-5.046 6.479-8.126 2.214-4.685 2.025-8.326-.567-10.922C50.659 1.328 45.766.03 38.572.03H14.229l-2.2 4.691h16.763c8.55 0 11.03 3.768 8.078 9.998-1.701 3.623-3.212 6.925-6.772 8.404-3.253 1.353-6.623 1.751-12.602 1.751H9.739l5.788-12.135H8.201L0 30h22.068c6.187 0 11.075-.505 14.666-1.515 3.954-1.12 7.577-3.004 10.606-5.513z" fill="#fff"/></svg>