<svg width="287" height="50" fill="none" xmlns="http://www.w3.org/2000/svg"><path d="M282.763 26.075l-11.121-16.04v16.04h-5.05V0h3.932l11.121 16.04V0h5.049v26.075h-3.931zm-25.858 0l-6.842-19.45-6.744 19.45h-5.473L247.283 0h5.593l9.405 26.075h-5.376zm-27.4 0l-11.12-13.412L229.158 0h6.114l-10.534 12.717 10.881 13.358h-6.114zm-17.68 0V0h5.05v26.075h-5.05zm-11.631 0l-5.55-9.502v-4.29h1.553c1.923 0 3.476-1.673 3.476-3.736 0-2.064-1.564-3.736-3.476-3.736h-5.451v21.264h-5.05V0h10.501c2.379 0 4.41.847 6.028 2.509 1.65 1.618 2.498 3.649 2.498 6.038 0 3.15-1.912 6.136-4.779 7.504l5.843 10.024h-5.593zm-25.76 0l-6.842-19.45-6.744 19.45h-5.474L164.812 0h5.614l9.405 26.075h-5.397zm-62.728 0l-6.842-19.45-6.744 19.45h-5.474L102.085 0h5.604l9.405 26.075h-5.387zm11.251 0V0h5.05v21.199h10.219v4.876h-15.269zM0 26.075V0h10.317c3.562 0 6.56 1.27 8.905 3.78 2.368 2.486 3.563 5.603 3.563 9.263 0 3.627-1.206 6.744-3.573 9.264-2.357 2.508-5.344 3.779-8.906 3.779H0v-.01zM10.317 21.2c2.216 0 4.05-.771 5.43-2.292 1.423-1.52 2.14-3.496 2.14-5.864 0-2.4-.695-4.322-2.129-5.864-1.38-1.52-3.215-2.292-5.43-2.292H5.05V21.2h5.267zm35.208 4.875l-6.842-19.45-6.744 19.45h-5.473L35.914 0h5.593l9.405 26.075h-5.387zm25.751 0l-5.55-9.502v-4.29h1.542c1.922 0 3.475-1.673 3.475-3.736 0-2.064-1.563-3.736-3.475-3.736h-5.44v21.264h-5.05V0h10.501c2.378 0 4.41.847 6.027 2.509 1.651 1.618 2.498 3.649 2.498 6.038 0 3.16-1.911 6.136-4.778 7.515l5.843 10.024h-5.593v-.01zm31.667 10.6v9.242c0 .401.087.684.25.825.174.141.456.217.847.217v.304c-.163-.01-.413-.021-.749-.032-.337-.011-.674-.022-1.01-.022-.326 0-.663.01-.999.022-.337.01-.587.021-.75.032v-.304c.391 0 .674-.076.847-.217.174-.141.25-.424.25-.825v-7.505c0-.434-.076-.76-.228-.966-.152-.207-.445-.315-.869-.315v-.304c.304.032.608.043.902.043.282 0 .543-.022.803-.054.261-.022.5-.065.706-.141zm12.935 2.975v6.267c0 .401.087.684.25.825.173.141.456.217.847.217v.304c-.163-.01-.413-.021-.75-.032a30.875 30.875 0 00-1.01-.022c-.326 0-.662.01-.999.022-.337.01-.586.021-.749.032v-.304c.391 0 .673-.076.847-.217.174-.141.25-.424.25-.825v-4.529c0-.434-.076-.76-.228-.967-.152-.206-.446-.315-.869-.315v-.304c.304.033.608.044.901.044.283 0 .543-.022.804-.054.26-.022.489-.066.706-.142zm-.75-2.975a.89.89 0 01.652.271.884.884 0 01.271.652c0 .25-.086.467-.271.651a.887.887 0 01-.652.272.885.885 0 01-.651-.272.885.885 0 01-.272-.651c0-.25.087-.467.272-.652a.93.93 0 01.651-.271zm17.898 3.138v.293a.868.868 0 00-.51.25c-.153.141-.305.402-.435.771l-2.378 6.223h-.25l-2.661-6.418c-.152-.38-.304-.608-.456-.684a.789.789 0 00-.38-.12v-.304l.597.033c.207.01.435.021.674.021.304 0 .619 0 .945-.01.336-.011.64-.022.933-.044v.304c-.238 0-.456.022-.64.054-.185.033-.304.13-.359.283-.054.152-.011.423.142.792l1.813 4.475-.087.076 1.651-4.333c.185-.478.206-.826.065-1.01-.141-.196-.467-.304-.977-.348v-.293c.25.01.456.022.63.033.173.01.369.01.586.01.217 0 .424 0 .597-.01.174-.022.348-.033.5-.044zm11.555-.163v6.267c0 .401.087.684.25.825.173.141.456.217.847.217v.304c-.163-.01-.413-.021-.75-.032a30.875 30.875 0 00-1.01-.022c-.325 0-.662.01-.999.022-.336.01-.586.021-.749.032v-.304c.391 0 .673-.076.847-.217.174-.141.25-.424.25-.825v-4.529c0-.434-.076-.76-.228-.967-.152-.206-.446-.315-.869-.315v-.304c.304.033.608.044.901.044.283 0 .543-.022.804-.054.261-.022.5-.066.706-.142zm-.749-2.975c.249 0 .467.087.651.271a.885.885 0 01.272.652c0 .25-.087.467-.272.651a.885.885 0 01-.651.272.887.887 0 01-.652-.272.885.885 0 01-.272-.651c0-.25.087-.467.272-.652a.931.931 0 01.652-.271zm16.149 2.932c.37 0 .674.043.923.141.25.098.457.228.619.402.185.195.315.434.391.727.076.294.12.685.12 1.173v3.867c0 .401.087.684.25.825.173.141.456.217.847.217v.304c-.163-.01-.413-.021-.75-.032-.336-.011-.662-.022-.988-.022-.315 0-.63.01-.934.022-.304.01-.532.021-.684.032v-.304c.347 0 .597-.076.738-.217.142-.141.218-.424.218-.825v-4.182a3.9 3.9 0 00-.076-.825 1.016 1.016 0 00-.326-.608c-.174-.152-.424-.228-.771-.228-.608 0-1.097.25-1.466.76-.37.51-.554 1.13-.554 1.879v3.214c0 .402.076.685.217.826.141.14.391.217.738.217v.304c-.152-.01-.38-.022-.684-.033-.304-.01-.619-.021-.934-.021-.315 0-.651.01-.988.021-.337.011-.586.022-.749.033v-.304c.391 0 .673-.076.847-.217.174-.141.25-.424.25-.826v-4.54c0-.434-.076-.76-.228-.966-.153-.206-.446-.315-.869-.315v-.304c.304.033.608.044.901.044.282 0 .543-.022.804-.055.26-.032.488-.086.706-.152v1.705c.249-.651.597-1.107 1.053-1.368.413-.239.88-.37 1.379-.37zM174.968 50c-.511 0-1-.054-1.445-.163-.456-.108-.814-.271-1.097-.5a1.044 1.044 0 01-.412-.857c0-.337.13-.63.401-.87.272-.238.641-.423 1.097-.553l.087.228a.928.928 0 00-.51.402 1.24 1.24 0 00-.185.684c0 .445.207.782.619 1.02.413.24.945.36 1.597.36.434 0 .858-.055 1.27-.164.413-.108.76-.293 1.032-.553.271-.261.402-.609.402-1.032 0-.315-.109-.587-.337-.793-.228-.206-.673-.315-1.336-.315h-1.075a4.99 4.99 0 01-.901-.076 1.404 1.404 0 01-.706-.304c-.185-.152-.272-.39-.272-.706 0-.326.131-.64.402-.945.272-.304.771-.619 1.488-.934l.174.13a6.897 6.897 0 00-.858.533c-.239.174-.358.39-.358.63 0 .304.228.467.695.467h1.813c.597 0 1.13.13 1.586.401.456.261.684.706.684 1.314 0 .457-.141.88-.434 1.271-.294.391-.717.717-1.293.967-.565.228-1.281.358-2.128.358zm.065-5.81c-.717 0-1.314-.185-1.803-.554-.489-.37-.728-.945-.728-1.738 0-.803.239-1.379.728-1.748.489-.358 1.086-.543 1.803-.543.717 0 1.314.185 1.803.543.488.358.727.945.727 1.748 0 .793-.239 1.369-.727 1.738-.478.37-1.086.554-1.803.554zm0-.26c.369 0 .651-.142.858-.435.206-.293.315-.825.315-1.596 0-.772-.109-1.304-.315-1.597a.997.997 0 00-.858-.434c-.359 0-.641.14-.858.434-.217.293-.315.825-.315 1.596 0 .771.108 1.304.315 1.597.217.282.51.434.858.434zm2.085-3.117l-.261-.098c.131-.326.37-.62.695-.87.326-.249.674-.38 1.032-.38.25 0 .456.066.608.207.152.141.228.348.228.63 0 .304-.076.51-.239.63-.163.12-.325.185-.488.185a.637.637 0 01-.402-.152c-.131-.098-.196-.261-.217-.49-.022-.216.043-.51.206-.857l.185.043c-.402.152-.695.315-.869.489a2.97 2.97 0 00-.478.663zm9.774 4.604c.25 0 .467.087.651.271a.885.885 0 01.272.652c0 .25-.087.467-.272.652a.884.884 0 01-.651.271.887.887 0 01-.652-.271.888.888 0 01-.271-.652.89.89 0 01.271-.652.931.931 0 01.652-.271z" opacity=".9" fill="#fff"/></svg>