<svg width="262" height="35" fill="none" xmlns="http://www.w3.org/2000/svg"><path d="M36.619 0L21.494 27.944 5.744 0 0 34.425h1.962L5.92 10.519 19.856 35l13.331-24.431 3.982 23.856h5.194L36.618 0zm28.537.575h-5.012v33.85h5.012V.575zM83.456 0v34.425h2.406V9l24.782 26V.575h-2.407V26L83.457 0zm44.069.575v2.381h10.482v31.469h5.018V2.956h10.482V.575h-25.982zm66.325 0v15.731h-18.425V.575h-5.037v33.85h5.037V18.688h18.425v15.737h5.038V.575h-5.038zm28.337 0h-5.012v33.85h5.012V.575zM257.8 4.213a13.36 13.36 0 00-7.175-2.22c-3.25 0-6.1 1.445-6.1 4.376s2.593 4.562 6.756 7.331c5.869 3.938 10 6.875 10 12.238 0 6.83-6.55 8.9-11.744 8.9-6.3 0-10-3.044-10-3.044v-2.875a15.382 15.382 0 0010 4.012c4.231 0 7.106-2.043 7.106-5.581 0-3.169-2.218-5.262-6.931-8.575-5.794-4.112-9.375-6.656-9.375-11.069C240.337 2.3 245.556.1 250.643.1c2.446-.011 4.87.462 7.132 1.394l.025 2.719z" fill="#fff"/></svg>