<svg width="42" height="51" fill="none" xmlns="http://www.w3.org/2000/svg"><path d="M1.253 1.342a1 1 0 10.626 1.9l-.626-1.9zm32.945 10.015l-.745.667.745-.667zm-3.944 38.708a1 1 0 001.15.824l8.88-1.46a1 1 0 10-.325-1.974l-7.894 1.298-1.298-7.894a1 1 0 10-1.973.325l1.46 8.88zM1.566 2.292l.313.95.007-.003a4.802 4.802 0 01.18-.055c.131-.039.33-.095.59-.163.52-.134 1.287-.312 2.251-.48a34.73 34.73 0 017.776-.459c6.25.343 14.13 2.533 20.77 9.942l1.49-1.335C27.864 2.79 19.429.45 12.793.085a36.707 36.707 0 00-8.23.485 30.709 30.709 0 00-2.409.515 19.94 19.94 0 00-.895.255l-.005.001h-.001s-.001.001.312.95zm31.887 9.732c6.507 7.261 5.87 16.451 3.457 24.043-1.2 3.779-2.824 7.1-4.151 9.478a51.248 51.248 0 01-1.669 2.787 34.475 34.475 0 01-.653.975l-.007.01-.002.002.813.583.813.582h.001c0-.002.002-.004.003-.005l.01-.015.04-.055.143-.207c.123-.181.3-.446.52-.786.44-.68 1.048-1.667 1.734-2.897 1.37-2.456 3.058-5.902 4.312-9.846 2.495-7.854 3.336-17.937-3.874-25.984l-1.49 1.335z" fill="#4ABAAE"/></svg>