<svg width="16" height="14" fill="none" xmlns="http://www.w3.org/2000/svg"><g clip-path="url(#clip0_329_620)" fill="#fff"><path d="M14.837.156L.626 5.8s-.674.231-.621.661c.053.43.6.63.6.63l3.572 1.22.006.005v-.005L12.76 2.79s.494-.306.478 0c0 0 .09.054-.175.307-.265.252-6.742 6.145-6.742 6.145l-.01.113 5.828 4.527c.972.43 1.327-.468 1.327-.468L16 .494c0-.86-1.168-.338-1.163-.338z"/><path d="M8.542 11.086l-2.31 2.134s-.18.14-.377.054l.441-3.962"/></g><defs><clipPath id="clip0_329_620"><path fill="#fff" d="M0 0h16v14H0z"/></clipPath></defs></svg>