<svg width="760" height="348" fill="none" xmlns="http://www.w3.org/2000/svg"><g clip-path="url(#clip0_25_13)"><mask id="a" style="mask-type:luminance" maskUnits="userSpaceOnUse" x="0" y="0" width="760" height="348"><path d="M760 0H0v348h760V0z" fill="#fff"/></mask><g mask="url(#a)"><path d="M599.287 342.552c0 .931-.372 1.54-1.088 1.918-1.432.823-4.279 1.167-6.286 1.167-5.051 0-10.057-1.647-14.398-5.893-1.934-1.867-5.835-7.489-5.835-15.243 0-6.435 2.255-11.448 5.446-13.975 4.188-3.299 8.309-3.637 11.782-3.637 7.092 0 11.551 2.363 12.927 4.455.823 1.325 1.094 2.871 1.15 3.643.051.479.107.823.389.823.372 0 .502-.27.502-1.161 0-5.504.372-7.038.372-7.811 0-.214-.119-.428-.66-.502-1.375-.056-3.292-.27-4.459-.541-1.06-.231-4.961-.931-8.411-.931-4.245 0-9.691.373-14.635 3.457-4.905 3.079-9.184 9.294-9.184 18.108 0 6.88 3.18 12.757 6.534 15.672 6.123 5.335 13.93 5.893 18.102 5.893 3.202 0 8.146-.609 11.653-2.47.682-.389.721-.502.721-2.972v-6.163c0-2.307 0-3.954.108-5.73.112-1.917.558-2.854 2.04-3.141.66-.107 1.004-.158 1.376-.158.237 0 .451-.107.451-.322 0-.344-.288-.451-.896-.451-1.647 0-5.119.164-5.373.164-.287 0-3.76-.164-6.229-.164-.604 0-.874.113-.874.451 0 .215.231.322.445.322.502 0 1.432.056 1.866.158 2.204.609 2.469 1.224 2.469 5.679l-.005 9.355zm-61.274-13.54c-.158 0-.288-.107-.158-.372l4.831-14.871c.271-.823.559-.823.84 0l5.215 14.871c.051.214.051.372-.22.372h-10.508zm-7.701 12.164c-1.003 2.758-2.08 4.833-4.617 5.177-.428.057-1.223.107-1.595.107-.271 0-.502.113-.502.328 0 .344.344.445 1.06.445 2.576 0 5.603-.158 6.195-.158.609 0 2.971.158 4.302.158.502 0 .823-.107.823-.445 0-.215-.158-.328-.536-.328h-.558c-.93 0-2.091-.501-2.091-1.59 0-.987.287-2.312.789-3.688l3.292-9.75c.113-.266.271-.429.541-.429h11.839c.265 0 .372.113.479.327l5.125 13.54c.321.874 0 1.376-.327 1.489-.214.056-.395.158-.395.372 0 .344.609.344 1.652.395 3.794.107 7.808.107 8.631.107.603 0 1.105-.107 1.105-.445 0-.271-.214-.328-.536-.328-.575 0-1.398-.05-2.227-.321-1.144-.344-2.734-1.218-4.724-6.107-3.354-8.364-12.002-31.102-12.819-33.194-.643-1.703-.857-1.974-1.201-1.974-.344 0-.558.322-1.201 2.132l-12.504 34.18zM490.703 308l6.946.113c5.265.107 6.59 1.376 6.748 3.022l.056.609c.073.773.18.931.445.931.215 0 .378-.231.378-.716 0-.609.175-4.405.175-6.051 0-.344 0-.666-.288-.666-.214 0-.716.164-1.539.271-.873.18-2.148.288-3.901.288h-20.627c-.66 0-2.751-.108-4.336-.288-1.505-.107-2.035-.643-2.435-.643-.214 0-.428.699-.535 1.043-.113.429-1.224 5.177-1.224 5.713 0 .344.113.502.271.502.231 0 .372-.107.558-.558.158-.373.321-.767.93-1.703.896-1.32 2.204-1.704 5.621-1.754l8.129-.113v23.268c0 5.29 0 9.638-.271 11.95-.231 1.59-.501 2.791-1.59 3.023-.501.112-1.166.214-1.646.214-.344 0-.451.163-.451.327 0 .344.271.445.88.445 1.646 0 5.119-.158 5.384-.158.27 0 3.743.158 6.77.158.609 0 .874-.158.874-.445 0-.158-.107-.327-.428-.327-.502 0-1.72-.107-2.47-.214-1.663-.232-1.99-1.433-2.148-3.023-.287-2.312-.287-6.666-.287-11.95V308h.011zm-46.949 21.012c-.141 0-.253-.107-.141-.372l4.832-14.871c.27-.823.541-.823.823 0l5.231 14.871c.051.214.051.372-.22.372h-10.525zm-7.701 12.164c-.964 2.758-2.074 4.833-4.617 5.177-.428.057-1.2.107-1.572.107-.288 0-.502.113-.502.328 0 .344.327.445 1.043.445 2.576 0 5.62-.158 6.229-.158.586 0 2.965.158 4.279.158.485 0 .823-.107.823-.445 0-.215-.158-.328-.552-.328h-.542c-.93 0-2.091-.501-2.091-1.59 0-.987.265-2.312.767-3.688l3.298-9.75c.107-.266.287-.429.558-.429h11.838c.265 0 .372.113.48.327l5.124 13.54c.321.874 0 1.376-.344 1.489-.214.056-.378.158-.378.372 0 .344.592.344 1.652.395 3.794.107 7.808.107 8.648.107.586 0 1.071-.107 1.071-.445 0-.271-.214-.328-.541-.328-.536 0-1.376-.05-2.204-.321-1.162-.344-2.734-1.218-4.724-6.107-3.355-8.364-11.98-31.102-12.82-33.194-.665-1.703-.88-1.974-1.201-1.974-.344 0-.558.322-1.218 2.132l-12.504 34.18zm-27.826-19.596c0-8.578 0-10.123.107-11.877.113-1.934.558-2.865 2.154-3.135a12.328 12.328 0 011.826-.158c.214 0 .428-.124.428-.344 0-.327-.27-.429-.879-.429-1.646 0-5.677.158-5.948.158-.264 0-3.737-.158-6.212-.158-.609 0-.879.107-.879.429 0 .214.214.344.451.344.479 0 1.431.05 1.86.158 1.826.372 2.255 1.257 2.362 3.135.113 1.759.113 3.299.113 11.877v9.688c0 5.29 0 9.638-.271 11.95-.231 1.59-.502 2.791-1.59 3.023-.507.112-1.167.214-1.651.214-.344 0-.446.163-.446.327 0 .344.271.445.874.445.823 0 2.041-.056 3.157-.107 1.071 0 2.018-.056 2.232-.056 1.596 0 3.315.056 5.61.158 2.322.056 5.192.158 9.127.158 2.937 0 3.084-.215 3.473-1.484.428-1.595.823-4.889.823-5.504 0-.614-.057-.823-.327-.823-.322 0-.446.271-.502.716-.158 1.044-.716 2.425-1.432 3.299-1.325 1.591-3.726 1.647-6.663 1.647-4.279 0-5.711-.372-6.591-1.252-1.003-1.009-1.217-4.517-1.217-12.61v-9.789h.011zm-55.727 3.265c0-12.057 6.878-18.114 16.045-18.114 8.704 0 16.726 7.094 16.726 20.319 0 16.01-10.221 18.863-15.182 18.863-9.882-.005-17.589-8.267-17.589-21.068zm-5.259 1.534c0 9.908 6.302 21.621 21.377 21.621 13.254 0 21.941-10.173 21.941-22.495 0-12.824-9.245-20.635-21.614-20.635-15.187 0-21.704 12.587-21.704 21.509zM326.681 348c3.506 0 7.701-.395 9.882-1.274 1.004-.429 1.111-.536 1.438-1.591.552-1.866 1.217-6.649 1.217-7.043 0-.446-.112-.824-.394-.824-.321 0-.429.215-.536.824-.18.987-.896 3.423-2.04 4.624-2.205 2.25-5.446 2.752-9.562 2.752-11.782 0-19.872-9.632-19.872-20.15 0-5.605.93-10.494 4.961-14.346 1.917-1.878 5.333-4.032 12.656-4.032 4.832 0 9.06 1.489 10.993 3.135 1.432 1.224 2.312 3.474 2.312 5.628 0 .773.056 1.145.445 1.145.327 0 .429-.327.485-1.145.056-.823.056-3.857.158-5.679.113-1.973.287-2.633.287-3.084 0-.322-.107-.536-.716-.604-1.758-.112-3.529-.428-5.62-.823-2.689-.485-5.762-.643-7.966-.643-8.473 0-13.49 2.577-16.783 5.876-4.904 4.907-6.161 11.341-6.161 15.029 0 5.228 1.324 11.499 6.663 16.281 4.33 3.903 9.877 5.944 18.153 5.944zm-71.608-23.155c0-12.057 6.878-18.114 16.067-18.114 8.682 0 16.727 7.094 16.727 20.319 0 16.01-10.244 18.863-15.188 18.863-9.905-.005-17.606-8.267-17.606-21.068zm-5.231 1.534c0 9.908 6.269 21.621 21.343 21.621 13.254 0 21.941-10.173 21.941-22.495 0-12.824-9.239-20.635-21.597-20.635-15.181 0-21.687 12.587-21.687 21.509zm-12.944-4.799c0-8.578 0-10.123.107-11.877.113-1.934.558-2.865 2.041-3.135.643-.113.987-.158 1.359-.158.236 0 .451-.124.451-.344 0-.327-.271-.429-.88-.429-1.646 0-5.119.158-5.389.158-.271 0-3.738-.158-6.213-.158-.609 0-.896.107-.896.429 0 .214.231.344.445.344.502 0 1.438.05 1.883.158 1.804.372 2.255 1.257 2.362 3.135.113 1.759.113 3.299.113 11.877v1.161c0 .271-.18.327-.327.327h-23.333c-.158 0-.344-.056-.344-.327v-1.161c0-8.578 0-10.123.112-11.877.124-1.934.575-2.865 2.041-3.135.66-.113 1.004-.158 1.376-.158.231 0 .445-.124.445-.344 0-.327-.287-.429-.891-.429-1.646 0-5.101.158-5.372.158-.288 0-3.76-.158-6.23-.158-.608 0-.873.107-.873.429 0 .214.231.344.445.344.502 0 1.432.05 1.86.158 1.827.372 2.255 1.257 2.368 3.135.107 1.759.107 3.299.107 11.877v9.688c0 5.29 0 9.638-.27 11.95-.215 1.59-.48 2.791-1.59 3.023-.502.112-1.145.214-1.646.214-.327 0-.429.163-.429.327 0 .344.248.445.857.445 1.646 0 5.119-.158 5.407-.158.27 0 3.726.158 6.765.158.591 0 .862-.158.862-.445 0-.158-.113-.327-.434-.327-.502 0-1.719-.107-2.469-.214-1.652-.232-1.99-1.433-2.154-3.023-.287-2.312-.287-6.666-.287-11.95v-5.763c0-.288.18-.344.344-.344h23.333c.141 0 .327.112.327.344v5.763c0 5.29 0 9.638-.287 11.95-.215 1.59-.485 2.791-1.579 3.023-.502.112-1.161.214-1.646.214-.344 0-.462.163-.462.327 0 .344.287.445.89.445 1.652 0 5.119-.158 5.39-.158.27 0 3.743.158 6.77.158.587 0 .874-.158.874-.445 0-.158-.107-.327-.428-.327-.502 0-1.72-.107-2.486-.214-1.646-.232-1.99-1.433-2.131-3.023-.288-2.312-.288-6.666-.288-11.95v-9.688zM176.949 348c3.512 0 7.701-.395 9.888-1.274 1.004-.429 1.105-.536 1.432-1.591.558-1.866 1.218-6.649 1.218-7.043 0-.446-.107-.824-.389-.824-.327 0-.434.215-.541.824-.181.987-.897 3.423-2.041 4.624-2.204 2.25-5.44 2.752-9.561 2.752-11.782 0-19.872-9.632-19.872-20.15 0-5.605.93-10.494 4.961-14.346 1.916-1.878 5.333-4.032 12.662-4.032 4.831 0 9.053 1.489 10.993 3.135 1.432 1.224 2.305 3.474 2.305 5.628 0 .773.057 1.145.451 1.145.322 0 .429-.327.48-1.145.056-.823.056-3.857.163-5.679.107-1.973.288-2.633.288-3.084 0-.322-.113-.536-.722-.604-1.753-.112-3.524-.428-5.621-.823-2.689-.485-5.761-.643-7.965-.643-8.468 0-13.485 2.577-16.783 5.876-4.905 4.907-6.162 11.341-6.162 15.029 0 5.228 1.325 11.499 6.664 16.281 4.329 3.903 9.882 5.944 18.152 5.944z" fill="#fff"/></g><mask id="b" style="mask-type:luminance" maskUnits="userSpaceOnUse" x="0" y="0" width="760" height="348"><path d="M760 0H0v348h760V0z" fill="#fff"/></mask><g mask="url(#b)"><path d="M430.399 53.862c-4.031 1.883-9.477 2.83-16.332 2.83-5.834 0-15.858-1.466-30.081-4.404-14.917-3.045-24.924-4.906-29.975-5.622-5.513-1.027-11.387-1.596-17.656-1.703a190.223 190.223 0 019.544-3.852 170.869 170.869 0 019.939-3.423c3.134-.948 6.844-2.002 11.139-3.203 3.873.586 7.775 1.218 11.636 1.827 3.873.626 8.079 1.303 12.572 2.058 4.51.756 8.056 1.36 10.615 1.844 3.422.52 8.113 1.162 14.167 1.878 6.015.722 10.745 1.292 14.218 1.686 3.473.429 6.511.813 9.223 1.185-1.99 4.043-4.967 7.02-9.009 8.899zM394.06 22.157c-8.22 2.312-14.252 3.835-18.136 4.624-3.766-.558-7.577-1.077-11.427-1.612-3.85-.542-7.611-1.095-11.281-1.613a2413.51 2413.51 0 00-11.765-1.703c-2.52-.429-5.102-.75-7.825-1.004a3850.99 3850.99 0 01-10.655-.93c-4.386-.379-8.574-.74-12.481-1.027 3.563-4.297 7.447-7.36 11.669-9.17 4.189-1.844 9.528-2.74 15.977-2.74 7.594 0 13.682.507 18.333 1.528 12.177 2.436 20.413 4.156 24.642 5.103 10.564 2.076 20.086 3.136 28.576 3.136h2.576c-3.929 1.308-10.012 3.113-18.203 5.408zm31.857 13.168c-5.981-.987-10.525-1.742-13.642-2.29-3.456-.54-12.284-2.114-26.412-4.731a354.884 354.884 0 0024.405-6.987c8.202-2.701 14.539-5.081 19.015-7.18 3.58-1.72 6.195-3.293 7.825-4.691 1.668-1.416 2.886-3.062 3.726-4.963l-5.463-3.135c-1.432 5.718-6.449 8.594-15.04 8.594-3.687 0-6.946-.231-9.748-.716-6.59-.947-14.877-2.47-24.906-4.568C369.943 1.54 357.625 0 348.78 0c-5.001 0-9.601.327-13.823.97-4.189.66-8.062 1.77-11.574 3.333-3.524 1.556-6.726 3.474-9.595 5.763-2.864 2.29-5.621 5.12-8.237 8.454-2.576-.057-4.944-.09-7.131-.124a921.013 921.013 0 00-7.379-.034c-9.128 0-16.473.502-21.987 1.472-5.513.98-10.384 2.633-14.629 4.962-5.891 3.237-8.862 7.614-8.862 13.18 0 3.225.857 5.876 2.599 7.974 1.736 2.092 4.245 3.49 7.52 4.207 2.329-1.63 4.116-3.136 5.367-4.518 1.274-1.415 2.458-3.35 3.603-5.78-2.402.947-4.584 1.432-6.551 1.432-2.204 0-3.975-.535-5.232-1.573-1.291-1.043-1.933-2.402-1.933-4.066 0-1.742.749-3.406 2.255-4.985 1.465-1.574 3.472-2.831 5.981-3.722 3.873-1.291 10.886-1.957 21.039-1.957 6.878 0 14.167.18 21.862.524-.372 2.222-.558 3.689-.558 4.405 0 5.853 2.74 10.28 8.259 13.236 2.537-1.06 4.363-1.991 5.44-2.758 1.071-.767 2.295-2.059 3.687-3.852-3.833 0-6.838-.93-9.026-2.83-2.164-1.862-3.258-4.495-3.258-7.828 12.053.823 29.191 3.276 51.391 7.325-8.236 2.098-17.623 5.177-28.114 9.226-5.423 2.273-9.454 4.247-12.047 5.877-2.582 1.646-4.657 3.603-6.218 5.876.355 1.95.755 3.35 1.184 4.156.388.806 1.358 1.985 2.863 3.547.643-3.998 1.883-6.903 3.687-8.69 1.827-1.805 4.443-2.69 7.848-2.69 4.904.113 13.998 1.63 27.308 4.573 15.83 3.277 27.127 5.442 33.965 6.497 6.839 1.043 13.299 1.556 19.388 1.556 10.795 0 20.075-2.577 27.843-7.72 3.687-2.436 6.337-5.696 7.876-9.745 8.648 1.004 15.627 1.523 20.949 1.523 10.136 0 18.981-.857 26.501-2.611 7.521-1.726 13.282-4.173 17.336-7.365 4.025-3.226 6.049-6.92 6.049-11.16 0-2.634-.756-4.749-2.255-6.356-1.505-1.613-3.935-2.955-7.34-4.05-3.405 1.992-6.342 4.462-8.778 7.428 1.686-.209 2.83-.338 3.49-.338 2.328 0 4.245.603 5.784 1.787 1.505 1.202 2.289 2.741 2.289 4.658 0 3.688-2.74 6.61-8.203 8.741-5.48 2.093-13 3.175-22.617 3.175-8.18 0-17.73-.772-28.667-2.329l-3.445-.62c-.896-9.62-5.085-15.277-12.639-17.02-1.826 1.664-3.117 3.22-3.833 4.659-.716 1.432-1.201 3.31-1.432 5.639 1.967-1.128 3.687-1.703 5.119-1.703 4.335 0 7.323 2.74 8.935 8.239a519.739 519.739 0 00-14.917-2.645z" fill="#fff"/></g><mask id="c" style="mask-type:luminance" maskUnits="userSpaceOnUse" x="0" y="0" width="760" height="348"><path d="M760 0H0v348h760V0z" fill="#fff"/></mask><g mask="url(#c)"><path d="M685.574 240.271c24.371-35.393 47.845-70.25 71.32-106.201.716-.913.896-2.002.896-2.735 0-.936-.896-1.291-3.298-1.291h-45.088c-5.153 0-12.814.18-28.222-.372-4.222-.181-5.333-1.089-6.804-1.089-.891 0-1.269.733-1.466 2.938-.896 4.749-3.298 18.881-3.298 20.708 0 1.292.181 2.025.93 2.025.897 0 1.827-.378 2.188-2.758.558-3.671 3.495-9.35 9.172-12.294 5.136-2.757 14.68-2.56 22.916-2.56h34.096c-22.189 34.676-46.002 69.342-70.209 104.379-2.024 2.938-2.21 4.032-2.21 4.748 0 1.106 1.11 1.292 2.937 1.292 28.238 0 55.546.733 82.493.733 3.67 0 3.851-.175 4.764-4.01 1.093-3.857 3.315-13.027 3.315-17.984 0-2.938-.372-3.473-1.291-3.473-.931 0-1.472.913-1.827 2.385-.558 2.205-1.646 6.412-3.315 8.437-3.664 4.404-8.073 7.145-25.12 7.145h-42.879v-.023zm-104.136-37.97c0 15.046 0 27.334-.913 33.763-.755 4.585-1.11 7.703-4.228 8.239-1.471.198-3.473.739-4.938.739-.936 0-1.291.733-1.291 1.291 0 .891.913 1.275 2.582 1.275 2.542 0 6.229-.197 9.347-.378 3.467-.175 6.567-.175 6.945-.175 2.379 0 6.585 0 13.372.356 6.607.197 15.971.558 28.075.558 6.218 0 7.864 0 8.975-4.015.907-3.294 2.181-13.935 2.181-15.046 0-1.089-.175-2.386-1.088-2.386s-1.274.559-1.646 2.386c-.913 6.231-3.117 8.995-7.323 10.822-4.211 1.663-11.912 1.663-16.151 1.663-15.938 0-18.875-2.019-19.252-12.485-.175-3.119 0-21.278 0-26.601v-13.044c0-.536.18-1.088 1.093-1.088 2.751 0 19.985.174 24.422.733 6.229.733 7.701 2.56 8.236 4.765.739 2.024.739 3.671.739 5.143 0 .914.372 1.466 1.088 1.466 1.088 0 1.471-1.646 1.471-2.938 0-1.088.355-6.964.716-10.083.372-5.121 1.291-7.681 1.291-8.594 0-.931-.355-1.292-.913-1.292s-1.291.914-2.385 2.008c-1.646 1.663-4.008 1.844-7.875 2.205-3.648.372-24.941.372-26.964.372-.914 0-.914-.558-.914-1.647v-42.402c0-1.089.181-1.647.914-1.647 1.826 0 20.554.175 23.316.558 8.795 1.089 10.452 2.205 11.529 4.766.738 1.827.913 4.404.913 5.521 0 1.291.378 2.019 1.274 2.019.756 0 1.291-.914 1.472-1.647.372-1.844.755-8.814.93-10.281.355-4.387 1.291-6.231 1.291-7.325 0-.739-.192-1.472-.75-1.472-.716 0-1.471.541-2.187.733-1.291.18-4.206.739-7.324.914-3.67.18-37.427 0-38.515 0-.936 0-11.359-.373-18.694-.373-1.826 0-2.559.373-2.559 1.292 0 .558.733 1.291 1.274 1.291 1.466-.017 4.222.164 5.513.344 5.3.739 6.23 3.316 6.591 8.634.377 4.963.377 9.367.377 33.566v27.497h-.017zm-109.305-64.396c0-.913.558-1.472 1.274-1.827 1.647-.372 6.805-.908 11.569-.908 17.25 0 27.882 11.172 27.882 30.65 0 11.91-4.211 20.166-9.73 23.843-3.833 2.561-8.27 2.758-12.098 2.758-7.165 0-15.396-1.111-17.797-2.402-.739-.542-1.094-1.094-1.094-2.008l-.006-50.106zm-13.913 64.379c0 15.063 0 27.351-.93 33.78-.716 4.585-1.094 7.506-4.206 8.239-1.471.378-3.495.739-4.961.739-.913 0-1.291.733-1.291 1.291 0 .891.931 1.275 2.577 1.275 4.944 0 15.756-.541 15.931-.541.739 0 10.999.541 19.81.541 1.827 0 2.56-.558 2.56-1.275 0-.558-.181-1.291-1.274-1.291-1.472 0-4.961-.355-7.166-.739-4.944-.733-5.874-3.648-6.409-8.239-.739-6.434-.739-18.537-.739-33.582v-3.672c0-.913.355-1.291 1.094-1.291l20.537.372c1.094 0 1.471.175 2.204.914 3.524 4.212 10.666 14.335 17.448 22.772 9.15 11.729 15.007 19.252 21.986 22.924 4.031 2.205 8.062 3.101 17.229 3.101h10.102c2.92 0 3.833-.378 3.833-1.274 0-.559-.541-1.292-1.471-1.292-.913 0-2.559 0-5.677-.541-4.031-.558-9.347-2.025-17.961-10.822-9.364-9.728-20.554-23.855-33.735-40.355 15.024-12.841 19.788-24.035 19.788-35.59 0-10.839-7.148-18.362-11.157-21.3-8.456-5.837-19.81-6.768-30.104-6.768-4.944 0-18.513.356-20.159.356-.914 0-11.726-.356-19.055-.356-1.843 0-2.559.373-2.559 1.292 0 .558.716 1.291 1.274 1.291 1.471-.017 4.228.164 5.502.344 5.333.739 6.224 3.316 6.607 8.634.372 4.963.372 9.367.372 33.566v27.497zm-104.519-4.568c-.558 0-.733-.355-.558-1.088l15.007-42.741c.93-2.38 1.843-2.38 2.757 0l15.954 42.741c.191.733.191 1.088-.558 1.088h-32.602zm-23.294 32.658c-3.117 7.895-6.229 13.399-13.575 14.313-1.274.175-3.647.355-4.764.355-.716 0-1.471.553-1.471 1.291 0 .891 1.111 1.275 3.118 1.275 6.607 0 14.68-.541 16.326-.541 1.826 0 10.638.541 14.488.541 1.449 0 2.379-.378 2.379-1.275 0-.738-.355-1.291-1.646-1.291h-1.472c-2.751 0-5.513-1.094-5.513-4.213 0-2.757.93-6.609 2.396-10.455l9.172-24.954c.355-.931.913-1.292 1.646-1.292h37.213c.914 0 1.088.175 1.466.914l14.466 35.787c1.11 2.561-.536 3.858-1.466 4.213-.716.372-1.094.372-1.094 1.105 0 .897 2.56.897 5.677 1.072 11.191.378 23.125.378 25.499.378 1.826 0 3.653-.378 3.653-1.275 0-.913-1.094-1.291-2.007-1.291-1.646 0-4.025-.181-6.41-.914-3.49-1.094-7.876-3.118-13.75-17.053-9.922-23.68-35.758-88.037-38.695-94.646-1.647-3.491-2.205-5.679-3.851-5.679-1.11 0-1.826.914-3.833 6.051l-37.952 97.584zm-88.92-81.647c-2.385-6.231-4.408-10.997-4.408-13.027 0-1.088.18-2.002 1.826-2.735 1.472-.558 4.048-.739 5.874-.739 1.111 0 1.647-.716 1.647-1.449 0-.739-1.472-1.111-4.403-1.111-6.23 0-13.378.355-15.024.355-2.018 0-11.191-.355-18.891-.355-2.56 0-4.229.197-4.229 1.111 0 .558.378 1.449 1.291 1.449.931 0 3.67 0 6.23.542 5.333 1.291 7.52 2.938 11.19 11.747l39.587 95.564c3.117 7.523 4.228 9.525 6.054 9.525 1.646 0 2.577-2.385 6.963-11.73 3.67-7.703 10.812-24.576 20.717-47.331 8.259-19.078 16.152-37.772 17.978-42.177 4.206-10.641 6.765-12.841 8.992-14.312 2.92-1.828 6.585-1.828 7.695-1.828 1.274 0 1.827-.716 1.827-1.449 0-.739-.93-1.111-2.577-1.111-4.769 0-11.731.355-12.644.355-2.002 0-9.347-.355-15.757-.355-2.577 0-3.687.372-3.687 1.291 0 .717.93 1.275 1.843 1.275 1.844 0 3.67 0 5.497.541 1.652.559 2.204 2.019 2.204 3.311 0 1.274-.733 3.474-1.466 5.859-3.489 11.194-24.568 64.396-33.937 85.301l-30.392-78.517zm-79.24 26.06c0-24.216 0-28.62.197-33.566.355-5.521 1.274-7.895 6.049-8.814 1.827-.181 4.206-.355 5.299-.355.558 0 1.291-.559 1.291-1.095 0-.913-.913-1.291-2.576-1.291-4.944 0-17.048.355-17.764.355-.913 0-10.993-.355-18.333-.355-1.826 0-2.559.372-2.559 1.291 0 .542.733 1.275 1.274 1.275 1.466 0 4.222.18 5.513.355 5.316.739 6.23 3.316 6.59 8.634.373 4.946.373 9.35.373 33.566v27.514c0 15.046 0 27.334-.908 33.763-.739 4.585-1.111 7.506-4.228 8.239-1.472.378-3.473.739-4.944.739-.931 0-1.291.733-1.291 1.291 0 .891.93 1.275 2.582 1.275 2.559 0 6.049-.197 9.341-.378 3.118-.175 5.874-.175 6.59-.175 4.769 0 10.26.175 17.584.356 7.52.372 16.512.558 28.063.558 8.608 0 9.166-.558 10.26-4.19 1.291-4.585 2.396-13.958 2.396-15.604 0-1.653-.372-2.386-1.105-2.386-.913 0-1.471.914-1.646 2.025-.541 3.118-1.827 6.412-3.856 8.797-3.851 4.585-11.01 4.782-19.427 4.782-12.656 0-18.891-1.111-21.45-3.671-2.938-2.758-3.315-12.102-3.315-35.037v-27.898zm-119.16 22.929c-.54 0-.738-.355-.54-1.088l15.023-42.741c.913-2.38 1.843-2.38 2.757 0l15.914 42.741c.198.733.198 1.088-.535 1.088H43.087zm-23.283 32.658c-3.117 7.895-6.229 13.399-13.569 14.313-1.29.175-3.67.355-4.764.355-.738 0-1.471.553-1.471 1.291 0 .891 1.088 1.275 3.118 1.275 6.59 0 14.668-.541 16.314-.541 1.844 0 10.638.541 14.483.541 1.471 0 2.402-.378 2.402-1.275 0-.738-.372-1.291-1.663-1.291h-1.472c-2.74 0-5.502-1.094-5.502-4.213 0-2.757.913-6.609 2.385-10.455l9.166-24.954c.372-.931.913-1.292 1.669-1.292h37.19c.914 0 1.094.175 1.472.914l14.482 35.787c1.111 2.561-.558 3.858-1.465 4.213-.739.372-1.11.372-1.11 1.105 0 .897 2.575.897 5.693 1.072 11.173.378 23.102.378 25.498.378 1.827 0 3.648-.378 3.648-1.275 0-.913-1.105-1.291-2.002-1.291-1.646 0-4.047-.181-6.432-.914-3.49-1.094-7.875-3.118-13.75-17.053-9.9-23.68-35.719-88.037-38.656-94.646-1.646-3.491-2.221-5.679-3.867-5.679-1.094 0-1.827.914-3.834 6.051l-37.963 97.584z" fill="#fff"/></g></g><defs><clipPath id="clip0_25_13"><path fill="#fff" d="M0 0h760v348H0z"/></clipPath></defs></svg>