<svg width="136" height="32" fill="none" xmlns="http://www.w3.org/2000/svg"><path d="M93.332 27.086c-2.026.947-4.763 1.423-8.209 1.423-2.933 0-7.97-.737-15.12-2.215-7.497-1.531-12.527-2.467-15.066-2.827-2.771-.516-5.724-.803-8.874-.856a95.806 95.806 0 014.797-1.937 85.963 85.963 0 014.995-1.722c1.576-.476 3.44-1.007 5.6-1.61 1.946.294 3.907.612 5.848.918 1.947.315 4.06.655 6.319 1.035 2.267.38 4.049.684 5.335.928 1.72.26 4.078.584 7.121.944 3.024.363 5.401.65 7.147.848 1.745.215 3.272.408 4.635.596-1 2.033-2.496 3.53-4.528 4.475zM75.067 11.142c-4.131 1.163-7.163 1.929-9.116 2.326-1.892-.281-3.808-.542-5.743-.811-1.936-.273-3.826-.55-5.67-.812-1.834-.269-3.817-.558-5.914-.856a52.326 52.326 0 00-3.933-.505c-1.366-.116-3.148-.272-5.355-.468-2.205-.19-4.31-.371-6.274-.516 1.79-2.16 3.743-3.7 5.866-4.61 2.105-.928 4.788-1.38 8.03-1.38 3.817 0 6.877.256 9.215.77 6.12 1.224 10.26 2.09 12.385 2.566 5.31 1.043 10.096 1.577 14.364 1.577h1.295c-1.975.658-5.033 1.565-9.15 2.72zm16.013 6.622c-3.007-.496-5.29-.876-6.858-1.151-1.737-.273-6.174-1.064-13.275-2.38a178.265 178.265 0 0012.266-3.513c4.123-1.359 7.308-2.555 9.558-3.61 1.8-.865 3.114-1.657 3.933-2.36a6.856 6.856 0 001.873-2.495L95.831.678C95.111 3.553 92.59 5 88.271 5c-1.853 0-3.49-.117-4.899-.36-3.312-.477-7.478-1.243-12.519-2.298C62.945.774 56.753 0 52.308 0c-2.514 0-4.826.164-6.948.488-2.106.332-4.052.89-5.818 1.676a21.83 21.83 0 00-4.822 2.898c-1.44 1.151-2.825 2.575-4.14 4.251-1.295-.028-2.485-.045-3.585-.062-1.088-.009-2.32-.017-3.709-.017-4.587 0-8.28.252-11.05.74-2.772.493-5.22 1.324-7.354 2.495C1.921 14.097.428 16.298.428 19.097c0 1.622.43 2.955 1.306 4.01.873 1.052 2.134 1.755 3.78 2.115 1.17-.82 2.068-1.576 2.698-2.271.64-.712 1.235-1.685 1.81-2.907-1.207.476-2.303.72-3.292.72-1.108 0-1.998-.269-2.63-.79-.649-.526-.972-1.209-.972-2.046 0-.876.377-1.712 1.134-2.506.736-.792 1.745-1.424 3.006-1.872 1.947-.65 5.472-.984 10.575-.984 3.457 0 7.12.09 10.988.264-.186 1.117-.28 1.854-.28 2.214 0 2.944 1.377 5.17 4.151 6.656 1.275-.533 2.193-1 2.735-1.386.538-.386 1.153-1.036 1.853-1.937-1.927 0-3.437-.468-4.537-1.424-1.088-.936-1.638-2.26-1.638-3.936 6.058.414 14.673 1.647 25.831 3.684-4.14 1.055-8.857 2.603-14.13 4.64-2.727 1.142-4.753 2.134-6.056 2.954-1.298.828-2.34 1.812-3.126 2.955.179.981.38 1.685.595 2.09.196.406.683.998 1.44 1.784.323-2.01.946-3.471 1.853-4.37.918-.908 2.233-1.353 3.944-1.353 2.466.057 7.036.82 13.726 2.3 7.957 1.648 13.635 2.737 17.072 3.267 3.438.525 6.685.783 9.745.783 5.427 0 10.09-1.296 13.995-3.883 1.853-1.225 3.185-2.864 3.959-4.9 4.346.505 7.854.766 10.529.766 5.095 0 9.541-.432 13.321-1.313 3.78-.868 6.676-2.099 8.713-3.704 2.023-1.622 3.041-3.48 3.041-5.612 0-1.325-.38-2.388-1.134-3.196-.756-.811-1.978-1.486-3.689-2.037-1.712 1.002-3.188 2.244-4.412 3.735.847-.105 1.422-.17 1.754-.17 1.17 0 2.134.304 2.907.9.757.603 1.151 1.377 1.151 2.342 0 1.854-1.377 3.323-4.123 4.395-2.754 1.052-6.534 1.597-11.369 1.597-4.111 0-8.911-.389-14.408-1.171l-1.732-.312c-.45-4.838-2.555-7.683-6.352-8.56-.918.838-1.567 1.62-1.927 2.343-.36.72-.604 1.665-.72 2.836.989-.567 1.853-.856 2.573-.856 2.179 0 3.68 1.378 4.491 4.143-1.98-.383-4.474-.837-7.498-1.33z" fill="#fff"/></svg>