<svg width="394" height="911" viewBox="0 0 394 911" fill="none" xmlns="http://www.w3.org/2000/svg">
<path d="M118.229 525H532L490.872 808H69L118.229 525Z" fill="#FCC945"/>
<mask id="mask0_1635_9070" style="mask-type:alpha" maskUnits="userSpaceOnUse" x="153" y="185" width="231" height="336">
<path d="M153.635 187.193L383.891 185.344L304.235 520.106H230.18L153.635 187.193Z" fill="#D9D9D9"/>
</mask>
<g mask="url(#mask0_1635_9070)">
<path d="M270.008 111.359H150.524V635.388H270.008V111.359Z" fill="#E2E2E2"/>
<path d="M388.246 111.359H270.007V637.855H388.246V111.359Z" fill="#C2C2C2"/>
</g>
<path d="M323.01 526L326 430L266.804 511.231L210 433.077V526H323.01Z" fill="#FCC945"/>
<mask id="mask1_1635_9070" style="mask-type:luminance" maskUnits="userSpaceOnUse" x="0" y="0" width="338" height="290">
<path d="M0.000579834 0H337.25V289.555H0.000579834V0Z" fill="white"/>
</mask>
<g mask="url(#mask1_1635_9070)">
<path d="M393.716 14.834V248.519L391.916 248.632C382.232 171.793 358.035 112.66 321.011 71.1484L320.997 71.1328C285.612 29.6535 237.37 7.31642 179.433 7.31641C126.276 7.31641 82.8751 23.2874 50.7471 55.1553C18.5748 87.0648 0.901409 125.318 0.901367 173.161C0.901367 208.28 10.5581 236.916 26.5537 255.954C42.5098 274.945 66.476 284.491 95.3721 284.491C127.551 284.491 151.537 276.518 169.098 259.102L169.112 259.086L169.128 259.071L169.943 258.325C186.904 242.524 194.692 219.034 194.692 189.194C194.692 160.54 186.685 138.34 167.49 119.298C148.28 101.841 122.626 92.2761 90.4336 89.083L88.5244 88.8936L89.8867 87.543C101.303 76.2201 114.343 68.141 130.603 61.6904C146.886 55.2304 164.783 52.0068 184.282 52.0068C216.778 52.0068 244.851 60.4717 268.662 77.4277C292.465 94.3778 311.952 119.773 327.355 153.547C358.153 221.071 372.7 323.848 372.7 463.367V776.923H178.719V823.216H637.62V776.923H508.299V69.6436H637.62V23.3486C587.933 23.3486 548.216 23.3477 518.282 22.9492C488.191 22.5486 467.918 21.7474 457.336 20.1328C436.592 16.9672 420.451 10.6764 408.997 1.19336L393.716 14.834Z" fill="#151515" stroke="white" stroke-width="1.80643"/>
</g>
<mask id="mask2_1635_9070" style="mask-type:luminance" maskUnits="userSpaceOnUse" x="0" y="0" width="385" height="185">
<path d="M0.0045166 0H384.469V184.87H0.0045166V0Z" fill="white"/>
</mask>
<g mask="url(#mask2_1635_9070)">
<path d="M393.716 14.834V248.519L391.916 248.632C382.232 171.793 358.035 112.66 321.011 71.1484L320.997 71.1328C285.612 29.6535 237.37 7.31642 179.433 7.31641C126.276 7.31641 82.8751 23.2874 50.7471 55.1553C18.5748 87.0648 0.901409 125.318 0.901367 173.161C0.901367 208.28 10.5581 236.916 26.5537 255.954C42.5098 274.945 66.476 284.491 95.3721 284.491C127.551 284.491 151.537 276.518 169.098 259.102L169.112 259.086L169.128 259.071L169.943 258.325C186.904 242.524 194.692 219.034 194.692 189.194C194.692 160.54 186.685 138.34 167.49 119.298C148.28 101.841 122.626 92.2761 90.4336 89.083L88.5244 88.8936L89.8867 87.543C101.303 76.2201 114.343 68.141 130.603 61.6904C146.886 55.2304 164.783 52.0068 184.282 52.0068C216.778 52.0068 244.851 60.4717 268.662 77.4277C292.465 94.3778 311.952 119.773 327.355 153.547C358.153 221.071 372.7 323.848 372.7 463.367V776.923H178.719V823.216H637.62V776.923H508.299V69.6436H637.62V23.3486C587.933 23.3486 548.216 23.3477 518.282 22.9492C488.191 22.5486 467.918 21.7474 457.336 20.1328C436.592 16.9672 420.451 10.6764 408.997 1.19336L393.716 14.834Z" fill="#151515" stroke="white" stroke-width="1.80643"/>
</g>
<path d="M301.123 541.062L270.007 512.086L240.136 541.062L270.007 570.037L238.269 817.256L251.96 910.348L290.543 899.868L302.367 817.256L270.007 570.037L301.123 541.062Z" fill="#046E00"/>
</svg>
