<svg width="1233" height="730" viewBox="0 0 1233 730" fill="none" xmlns="http://www.w3.org/2000/svg">
<path d="M1063.22 558.021V566.675H992.543V558.021H1015.62V431.097H992.543V422.443C1012.45 422.443 1024.56 422.443 1028.6 421.866C1032.64 421.289 1035.52 420.135 1037.25 418.405L1040.14 421.001V558.021H1063.22ZM1024.85 346C1030.33 346 1034.66 348.019 1038.12 351.481C1041.29 354.942 1043.02 359.269 1043.02 364.173C1043.02 369.077 1041.29 373.404 1038.12 376.866C1034.66 380.327 1030.33 382.058 1024.85 382.058C1019.08 382.058 1014.75 380.327 1011.58 376.866C1008.12 373.404 1006.68 369.366 1006.68 364.173C1006.68 358.981 1008.12 354.654 1011.58 351.192C1014.75 347.731 1019.08 346 1024.85 346Z" fill="white"/>
<path d="M809.585 566.677H743.238V558.023H766.315V431.099H743.238V422.445C758.527 422.445 768.623 422.445 773.527 421.868C778.142 421.291 781.893 420.137 784.2 418.406L787.085 421.002L786.219 457.349C787.95 445.233 792.277 436.003 799.2 429.368C806.124 423.022 815.643 419.56 827.181 419.56C838.143 419.56 847.085 422.733 854.009 428.502C860.643 434.272 864.682 442.926 866.124 453.887C868.432 442.926 872.759 434.272 879.682 428.502C886.605 422.733 895.259 419.56 905.932 419.56C921.798 419.56 933.048 423.599 939.683 431.676C946.029 439.753 949.49 453.022 949.49 471.484V558.023H972.568V566.677H906.221V558.023H924.971V474.657C924.971 459.08 922.952 447.83 918.913 441.195C914.875 434.56 908.24 431.099 898.721 431.099C888.624 431.099 881.413 434.849 876.797 442.06C872.182 449.56 870.163 461.099 870.163 477.253V558.023H888.913V566.677H826.893V558.023H845.643V474.657C845.643 459.08 843.624 447.83 839.585 441.195C835.547 434.56 828.912 431.099 819.393 431.099C809.585 431.099 802.373 434.849 797.758 442.349C793.143 449.849 790.835 461.676 790.835 477.253V558.023H809.585V566.677Z" fill="white"/>
<path d="M721.514 558.025V566.679H650.84V558.025H673.917V431.1H650.84V422.446C670.744 422.446 682.859 422.446 686.898 421.869C690.936 421.292 693.821 420.139 695.552 418.408L698.436 421.004V558.025H721.514ZM683.148 346.003C688.629 346.003 692.956 348.023 696.417 351.484C699.59 354.946 701.321 359.273 701.321 364.177C701.321 369.08 699.59 373.407 696.417 376.869C692.956 380.331 688.629 382.061 683.148 382.061C677.379 382.061 673.052 380.331 669.878 376.869C666.417 373.407 664.975 369.369 664.975 364.177C664.975 358.984 666.417 354.657 669.878 351.196C673.052 347.734 677.379 346.003 683.148 346.003Z" fill="white"/>
<path d="M721.514 558.025V566.679H650.84V558.025H673.917V431.1H650.84V422.446C670.744 422.446 682.859 422.446 686.898 421.869C690.936 421.292 693.821 420.139 695.552 418.408L698.436 421.004V558.025H721.514ZM683.148 346.003C688.629 346.003 692.956 348.023 696.417 351.484C699.59 354.946 701.321 359.273 701.321 364.177C701.321 369.08 699.59 373.407 696.417 376.869C692.956 380.331 688.629 382.061 683.148 382.061C677.379 382.061 673.052 380.331 669.878 376.869C666.417 373.407 664.975 369.369 664.975 364.177C664.975 358.984 666.417 354.657 669.878 351.196C673.052 347.734 677.379 346.003 683.148 346.003Z" fill="white"/>
<path d="M695.552 261.926C692.09 258.465 687.763 256.445 682.282 256.445C676.513 256.445 672.186 258.176 669.013 261.638C665.552 265.099 664.109 269.426 664.109 274.619C664.109 279.811 665.552 283.849 669.013 287.311C672.186 290.773 676.513 292.503 682.282 292.503C687.763 292.503 692.09 290.773 695.552 287.311C698.725 283.849 700.456 279.523 700.456 274.619C700.456 269.715 698.725 265.388 695.552 261.926Z" fill="#FCC945"/>
<path d="M1149.34 401.364V450.564L1150.33 450.627C1152.37 434.446 1157.47 422.026 1165.25 413.321L1165.25 413.322L1165.25 413.313C1172.68 404.627 1182.79 399.948 1194.95 399.948C1206.12 399.948 1215.22 403.299 1221.94 409.959C1228.69 416.642 1232.39 424.641 1232.39 434.654C1232.39 442.016 1230.36 447.985 1227.04 451.936C1223.73 455.86 1218.76 457.851 1212.72 457.851C1205.97 457.851 1200.99 456.181 1197.35 452.579L1197.34 452.57L1197.33 452.562C1193.72 449.305 1192.03 444.388 1192.03 438.039C1192.03 432.06 1193.7 427.458 1197.69 423.506C1201.68 419.881 1207.04 417.88 1213.8 417.21L1214.85 417.105L1214.1 416.357C1211.65 413.933 1208.86 412.206 1205.39 410.831C1201.9 409.451 1198.08 408.765 1193.92 408.765C1187 408.765 1181 410.568 1175.91 414.189C1170.82 417.807 1166.67 423.218 1163.39 430.384C1156.85 444.703 1153.78 466.459 1153.78 495.927V562.438H1194.79V571.594H1098.39V562.438H1125.73V412.488H1098.39V403.332C1108.75 403.332 1117.04 403.331 1123.31 403.248C1129.67 403.164 1133.98 402.995 1136.24 402.65H1136.24C1140.54 401.996 1143.94 400.705 1146.4 398.749L1149.34 401.364Z" fill="white" stroke="white"/>
<path d="M344.468 729C281.742 729 235.379 715.364 204.016 688.091C171.29 660.818 150.835 615.818 141.29 553.091C138.563 540.818 137.199 524.455 134.472 502.636C131.745 482.182 130.381 467.182 130.381 459C127.654 435.818 122.2 418.091 115.382 405.818C108.564 394.909 99.0184 386.727 88.1095 382.636C86.7459 382.636 85.3823 382.636 84.0187 382.636C81.2915 382.636 79.9279 381.273 78.5643 381.273L39.0197 701.727H-266.428L-190.066 74.4546L-271.883 74.4546L-263.701 6.2727C-185.976 6.2727 -117.795 4.90911 -60.5237 2.18187C-3.25214 -0.545448 41.7469 -6 73.1099 -12.8182L126.291 -0.54542L88.1095 311.727H97.6548C116.745 311.727 131.745 304.909 144.017 289.909C156.29 274.909 169.926 240.818 184.926 187.636C195.835 145.364 205.38 114 214.925 92.1818C224.47 71.7273 235.379 54 247.652 39C264.015 19.9092 283.105 4.90911 307.65 -6C332.195 -15.5454 359.467 -21 392.194 -21C438.557 -21 472.647 -10.0909 495.828 11.7273C517.646 33.5455 527.191 64.9092 521.737 105.818C516.282 146.727 502.646 178.091 478.101 201.273C453.556 224.455 422.193 235.364 385.376 235.364C349.922 235.364 324.014 224.455 304.923 202.636C285.833 180.818 277.651 152.182 281.742 116.727C281.742 112.636 283.105 108.545 284.469 103.091C285.833 97.6364 288.56 92.1818 291.287 85.3637C285.833 96.2727 281.742 107.182 276.287 119.455C270.833 133.091 265.378 152.182 258.56 179.455C243.561 231.273 229.925 266.727 219.016 287.182C206.743 309 193.107 325.364 176.744 336.273C225.834 348.546 262.651 358.091 289.923 366.273C315.832 374.455 337.65 384 354.013 392.182C377.194 405.818 394.921 423.545 405.83 445.364C416.739 467.182 424.921 501.273 431.739 550.364C437.193 591.273 439.92 614.455 442.647 619.909C445.375 625.364 448.102 628.091 453.556 628.091C461.738 628.091 480.318 627.318 488.5 605.5C495.318 583.682 491.737 599.5 497.192 554.5H565.372C554.463 641.773 554.59 661.545 520.5 697C485.046 732.455 412.648 729 344.468 729Z" fill="#FF0000"/>
<g clip-path="url(#clip0_3002_142)">
<path d="M465.347 571.002C456.116 571.002 449.482 568.405 444.866 562.925C440.251 557.444 437.655 549.078 437.366 537.54C433.905 547.924 428.424 556.29 420.347 562.059C412.27 568.117 403.039 571.002 392.077 571.002C379.673 571.002 370.154 568.405 363.808 562.636C357.173 557.155 354 549.078 354 538.405C354 527.732 358.615 518.789 368.135 511.866C377.366 504.943 393.231 498.308 415.154 491.962C424.385 489.366 430.155 487.924 431.885 487.347C433.616 486.77 435.059 486.481 435.924 485.905V466C435.924 454.462 433.328 445.808 428.424 440.039C423.231 434.269 415.731 431.385 405.635 431.385C399.866 431.385 394.385 432.539 389.481 434.269C384.577 436.289 380.539 439.173 377.077 442.635C381.693 443.789 385.443 446.096 387.75 448.981C390.058 452.154 391.5 455.904 391.5 460.52C391.5 466 389.77 470.327 386.885 473.212C384 476.385 379.673 477.828 374.193 477.828C368.423 477.828 364.096 476.385 361.212 473.212C358.327 470.327 356.885 466 356.885 460.52C356.885 450.135 362.077 441.193 372.75 433.116C383.423 425.039 396.404 421 411.693 421C427.847 421 440.251 424.75 448.328 431.673C456.405 438.596 460.443 449.27 460.443 463.116V544.174C460.443 549.078 461.309 552.828 463.04 555.424C464.77 558.021 467.367 559.174 470.828 559.174C475.732 559.174 479.482 556.29 482.078 550.521C484.386 544.751 485.828 535.809 485.828 524.27H493.617C493.617 541.001 491.309 552.828 486.982 560.04C482.367 567.54 475.155 571.002 465.347 571.002ZM379.962 534.367C379.962 541.867 381.693 547.636 385.443 551.386C389.193 555.424 394.673 557.155 401.597 557.155C412.558 557.155 421.212 552.828 426.982 544.174C432.751 535.52 435.924 522.828 435.924 506.097V493.693C434.77 494.27 432.751 494.847 430.443 495.424C427.847 496.289 423.52 497.732 417.174 499.751C403.904 504.078 394.385 508.982 388.616 514.174C382.846 519.366 379.962 526.29 379.962 534.367Z" fill="#151515"/>
</g>
<path d="M620.674 563.584H505V557.815L592.116 428.005H549.424C538.462 428.005 530.673 430.89 525.769 436.371C520.577 442.14 518.269 451.083 518.269 463.775V471.275H509.615V419.352H619.52V425.121L532.404 554.93H580.866C591.539 554.93 599.328 552.334 604.52 546.564C609.424 541.084 612.02 531.853 612.02 519.16V511.66H620.674V563.584Z" fill="white"/>
<defs>
<clipPath id="clip0_3002_142">
<rect width="60" height="150" fill="white" transform="translate(354 421)"/>
</clipPath>
</defs>
</svg>
