<svg width="30" height="30" viewBox="0 0 30 30" fill="none" xmlns="http://www.w3.org/2000/svg">
<path d="M27.7476 20.5408C27.7139 20.5102 27.7139 20.5102 27.7139 20.4796C27.7139 20.4796 27.7139 20.449 27.6802 20.449C27.5453 20.2959 27.3092 20.2041 26.7696 19.9592C24.746 19.1327 19.4172 16.9592 18.7427 10.5612V10.5306C18.6752 10.1633 18.3717 9.88775 18.0007 9.79592C17.6297 9.70408 17.225 9.82653 16.9889 10.102C16.0783 11.1429 14.4257 12.3061 12.7057 12.1837C11.3566 12.0918 10.1762 11.2347 9.19814 9.64286C8.96206 9.2449 8.48989 9 7.95027 9C7.24201 9 6.56749 9.33673 6.1965 9.91837C5.89296 10.4694 5.45452 11.0816 5.01607 11.6939C4.64509 12.2449 4.24037 12.7959 3.93683 13.2857L3.22858 14.3878C2.99249 14.7857 2.92504 15.2449 3.09367 15.6735C3.22858 16.102 3.53212 16.4388 3.93683 16.6224C4.10546 16.7143 5.79178 17.6327 13.65 21.7347C17.2587 23.6327 20.0243 24 23.5993 24C25.724 24 27.1068 23.5102 27.7139 22.5C28.1861 21.7653 27.9837 20.9388 27.7476 20.5408Z" fill="white"/>
</svg>
