<svg width="239" height="30" viewBox="0 0 239 30" fill="none" xmlns="http://www.w3.org/2000/svg">
<path fill-rule="evenodd" clip-rule="evenodd" d="M52.8323 19.8022L49.7517 23.4238H44.1942L41.899 20.5482L39.5731 23.3625L34.0924 23.4238L31.0117 19.8022C31.5477 25.3403 36.2278 29.6701 41.922 29.6701C47.6162 29.6701 52.2963 25.3403 52.8323 19.8022ZM51.8287 14.0543C50.0694 10.3612 46.2947 7.80798 41.922 7.80798C37.5493 7.80798 33.7747 10.3612 32.0154 14.0543H51.8287Z" fill="#FF284A"/>
<path fill-rule="evenodd" clip-rule="evenodd" d="M52.7127 17.1774H31.0117C31.0883 16.6434 31.2036 16.1219 31.3546 15.6158H52.3698C52.5208 16.1219 52.6361 16.6434 52.7127 17.1774Z" fill="#3F77FF"/>
<path fill-rule="evenodd" clip-rule="evenodd" d="M45.2617 5.96741C45.2617 6.21887 45.2507 6.45358 45.2283 6.67217C44.1903 6.39443 43.0991 6.24631 41.9732 6.24631C40.9573 6.24631 39.9697 6.3669 39.0239 6.59451C39.0065 6.39824 38.9979 6.18935 38.9979 5.96741V0.298472C40.0057 0.103092 41.0539 0 42.1298 0C43.2058 0 44.2539 0.103086 45.2617 0.298457V5.96741ZM37.432 5.96741C37.432 6.3391 37.4707 6.70124 37.544 7.04959C34.2783 8.28079 31.6636 10.8339 30.3564 14.0542H27.8799V12.3186C27.8799 6.93819 31.8701 2.36341 37.432 0.685116L37.432 5.96741ZM27.8799 21.8621H29.8405C30.2905 23.6055 31.1084 25.2017 32.2067 26.5633V29.67L27.8799 25.5822V21.8621ZM54.106 21.8621C53.6999 23.4356 52.9941 24.8891 52.0529 26.1585V29.6291L56.3798 25.5822V21.8621H54.106ZM53.5901 14.0542H56.3798V12.3186C56.3798 6.93817 52.3895 2.36336 46.8276 0.685093L46.8276 5.96741C46.8276 6.37936 46.7801 6.77958 46.6906 7.1623C49.8217 8.43241 52.3215 10.9291 53.5901 14.0542ZM26.314 15.6158H29.4458V20.3005H26.314V15.6158ZM54.5007 15.6158H57.6325V20.3005H54.5007V15.6158Z" fill="#3F77FF"/>
<path d="M137.596 3.77167H121.818V26.1849H132.16V14.9566H125.045L128.89 11.2283H136.535V29.9565H132.16V26.7485L128.89 29.9565H121.244L117.443 26.1849V3.77167L121.244 0H133.751L137.596 3.77167Z" fill="#3F77FF"/>
<path d="M161.796 29.9565H157.465V18.7283H147.079V29.9565H142.704V3.77167L146.549 0H161.796V29.9565ZM160.205 3.77167H147.079V18.208L150.394 14.9566H157.465V6.45952L160.205 3.77167Z" fill="#3F77FF"/>
<path d="M192.818 29.9132H188.442V6.45952L191.183 3.81501H187.603L181.725 14.9566H178.543L172.886 3.81501H169.35L172.09 6.45952V29.9132H167.715V0H175.538L180.09 9.84101H180.62L185.26 0H192.818V29.9132Z" fill="#3F77FF"/>
<path d="M213.965 29.9565H198.718V7.45662L202.563 3.77167H198.188V0H213.965V3.77167H203.094V14.4364L206.32 11.2283H213.965V14.9566H203.094V26.1849H213.965V29.9565Z" fill="#3F77FF"/>
<path d="M238.545 3.77167H223.519V11.2283H233.639L237.396 14.9566V26.1849L233.639 29.9565H222.944L219.144 26.1849V23.1936L223.519 19.0751V26.1849H233.021V14.9566H222.944L219.144 11.2283V3.77167L222.944 0H234.7L238.545 3.77167Z" fill="#3F77FF"/>
<path d="M77.9402 18.7717H67.0682V30H62.6929V7.50008L66.5379 3.81512H62.1626V0.043457H77.9402V3.81512H67.0682V18.2515L70.2945 15.0001H77.9402V18.7717Z" fill="#3F77FF"/>
<path d="M100.37 3.81512H93.5201V30H89.1448V3.81512H82.3388V0.043457H100.37V3.81512Z" fill="#3F77FF"/>
<path d="M21.2577 29.9565H12.8165L5.39178 3.85837H1.63521L4.3753 6.41616V29.9565H0V0H8.48542L15.8218 26.1849H19.6225L16.8825 23.4537V0H21.2577V29.9565Z" fill="#3F77FF"/>
</svg>
