<svg width="30" height="30" viewBox="0 0 30 30" fill="none" xmlns="http://www.w3.org/2000/svg">
<path d="M14.673 12.5787C14.9481 11.9734 14.5798 11.1972 14.4013 10.5542C14.1981 9.82042 13.8999 9.06957 13.8898 8.41682C13.8672 6.88627 14.9733 5.4034 16.3206 5.06322C17.8016 4.68943 18.342 6.08074 19.5348 6.42167C20.0874 6.57921 20.7692 6.52628 21.1775 6.74278C23.4842 7.96676 22.023 11.082 20.3703 12.0067C19.8639 12.2895 19.3177 12.5852 18.7505 12.8446C18.2758 13.0611 17.55 13.1537 17.2911 13.7573C17.705 14.0814 18.4226 13.5912 19.0058 13.3637C19.6382 13.1168 20.2495 12.817 20.8072 12.6607C22.5474 12.1748 25.558 13.2932 24.9102 15.7346C24.7307 16.4117 24.1265 16.7619 23.9313 17.4222C23.792 17.8946 23.9337 18.3913 23.8462 18.8306C23.5793 20.1589 21.9075 21.0532 20.512 20.6117C19.3284 20.2372 18.5461 19.234 17.7394 17.9131C17.5236 17.5594 17.3635 17.0017 16.8949 16.8675C16.6759 17.5409 17.2523 18.6334 17.5524 19.2234C18.3667 20.8232 19.6563 22.1809 20.8276 22.7571C20.4711 23.0562 19.7694 23.1929 19.28 23.4295C17.7244 22.3251 16.7551 19.6542 15.9067 17.2534C15.4013 17.513 15.7495 18.391 15.8287 18.8644C16.1567 20.8099 16.0068 23.3218 13.8154 23.9111C12.3637 24.302 11.9413 23.3183 10.9568 22.6204C10.2545 22.1227 8.93065 22.2539 8.36732 21.1561C7.53733 19.5365 8.69403 17.5717 10.1138 16.8317C10.648 16.5532 11.3196 16.3615 11.9154 16.1292C12.4192 15.9328 13.0656 15.852 13.4189 15.3365C12.898 14.9155 12.2281 15.4213 11.7766 15.5648C9.97087 16.1395 8.47364 16.413 7.19753 15.5633C6.39637 15.0289 5.70927 13.7011 6.12535 12.6136C6.32516 12.092 6.81415 11.7052 7.09775 11.2724C7.88972 10.0635 7.30264 8.35535 9.3465 7.78338C10.4666 7.46954 11.9629 8.036 12.6696 8.89271C13.5233 9.92879 13.6856 11.6254 14.673 12.5787Z" fill="white"/>
</svg>
