<svg width="30" height="30" viewBox="0 0 30 30" fill="none" xmlns="http://www.w3.org/2000/svg">
<path fill-rule="evenodd" clip-rule="evenodd" d="M19.5546 7.93043L19.7399 7.80694C18.4844 6.96309 17.0231 6.38681 15.4589 6.20157C15.2119 6.18099 14.9855 6.36623 14.9855 6.61321V9.49464C14.9855 9.70045 15.1296 9.86511 15.3354 9.90627C15.747 9.96801 16.1381 10.0915 16.5291 10.2356C16.7368 10.0771 16.959 9.90697 17.1969 9.72487C17.8548 9.22121 18.6325 8.62578 19.5546 7.93043ZM8.19353 8.21858C9.55192 7.14833 11.2396 6.42798 13.0508 6.20158C13.2978 6.181 13.5242 6.36623 13.5242 6.59263V9.47406C13.5242 9.67987 13.3801 9.84453 13.1949 9.88569C12.2893 10.0503 11.4454 10.4002 10.7251 10.9148C10.5604 11.0383 10.334 11.0177 10.1899 10.8736L8.15237 8.83603C7.98772 8.67137 8.0083 8.36265 8.19353 8.21858ZM9.14027 11.9233L7.10269 9.88571C6.91745 9.70047 6.62931 9.72105 6.48524 9.92687C5.41499 11.2853 4.69463 12.973 4.46824 14.7841C4.44766 15.0311 4.63289 15.2575 4.87987 15.2575H7.7613C7.96711 15.2575 8.13177 15.1134 8.17293 14.9282C8.33758 14.0226 8.68747 13.1788 9.20201 12.4584C9.30492 12.2732 9.28434 12.0468 9.14027 11.9233ZM4.46824 17.1923C4.67406 18.9829 5.37383 20.65 6.48524 22.0702C6.62931 22.2554 6.93804 22.276 7.10269 22.1113L9.14027 20.0738C9.28434 19.9297 9.30492 19.7033 9.18143 19.5386C8.64631 18.7977 8.29642 17.9539 8.15235 17.0688C8.11119 16.863 7.94654 16.7395 7.74072 16.7395H4.85929C4.63289 16.719 4.44766 16.9454 4.46824 17.1923ZM21.3862 22.0907L19.3486 20.0531C19.2045 19.909 19.184 19.6826 19.2869 19.518C19.822 18.777 20.1719 17.9332 20.3159 17.0482C20.3571 16.8629 20.5218 16.7189 20.7276 16.7189H23.609C23.856 16.7189 24.0412 16.9453 24.0206 17.1923C23.7942 18.9829 23.115 20.65 22.0036 22.0495C21.8596 22.2553 21.5714 22.2759 21.3862 22.0907ZM20.7275 15.2572H23.6089C23.8559 15.2572 24.0412 15.0308 24.0206 14.7838C23.8353 13.1991 23.2591 11.7378 22.4152 10.4823C22.4041 10.5157 22.3809 10.5491 22.3554 10.5858C22.3338 10.6169 22.3106 10.6503 22.2917 10.6881L21.7252 11.4398C21.0411 12.3478 20.4752 13.099 19.9866 13.7342C20.1306 14.1047 20.2336 14.5163 20.3159 14.9279C20.357 15.1132 20.5217 15.2572 20.7275 15.2572ZM20.4192 9.10348C20.8926 8.77417 21.4689 9.35046 21.119 9.80325C20.8406 10.1705 20.5492 10.5559 20.2534 10.9471C18.9746 12.6384 17.6146 14.4371 16.8792 15.3397C16.9203 15.5455 16.9615 15.7513 16.9615 15.9777C16.9615 17.4802 15.7472 18.6945 14.2447 18.6945C12.7422 18.6945 11.5279 17.4802 11.5279 15.9777C11.5279 14.4753 12.7422 13.261 14.2447 13.261C14.4711 13.261 14.6769 13.3021 14.8827 13.3433C15.9941 12.4583 18.4639 10.5854 20.4192 9.10348Z" fill="white"/>
</svg>
