<svg width="40" height="40" viewBox="0 0 40 40" fill="none" xmlns="http://www.w3.org/2000/svg">
<circle cx="20" cy="20" r="19.5" stroke="white"/>
<path d="M29.3333 15.0048C28.6959 15.2872 28.0112 15.4781 27.2913 15.5643C28.0341 15.1199 28.5898 14.4204 28.8547 13.5963C28.1568 14.0108 27.3931 14.3026 26.5966 14.459C26.061 13.8871 25.3516 13.508 24.5785 13.3807C23.8054 13.2533 23.0118 13.3847 22.3211 13.7545C21.6303 14.1244 21.081 14.7119 20.7584 15.4259C20.4358 16.14 20.3579 16.9405 20.5369 17.7033C19.1229 17.6323 17.7396 17.2648 16.4768 16.6246C15.214 15.9844 14.0999 15.0858 13.2069 13.9872C12.9016 14.5139 12.726 15.1246 12.726 15.775C12.7256 16.3605 12.8698 16.9371 13.1457 17.4535C13.4217 17.9699 13.8208 18.4102 14.3077 18.7354C13.743 18.7174 13.1908 18.5649 12.697 18.2904V18.3362C12.6969 19.1574 12.981 19.9533 13.5009 20.5889C14.0209 21.2245 14.7448 21.6606 15.5497 21.8233C15.0259 21.9651 14.4767 21.9859 13.9436 21.8844C14.1707 22.591 14.6131 23.2088 15.2088 23.6515C15.8045 24.0942 16.5237 24.3395 17.2658 24.3531C16.0061 25.342 14.4504 25.8784 12.8489 25.8761C12.5652 25.8762 12.2817 25.8596 12 25.8265C13.6256 26.8717 15.5179 27.4264 17.4505 27.4242C23.9927 27.4242 27.5692 22.0057 27.5692 17.3064C27.5692 17.1537 27.5653 16.9995 27.5585 16.8468C28.2541 16.3437 28.8546 15.7207 29.3318 15.0071L29.3333 15.0048Z" fill="white"/>
</svg>
