<svg width="30" height="30" viewBox="0 0 30 30" fill="none" xmlns="http://www.w3.org/2000/svg">
<path d="M23.4642 11.6143C20.7246 9.48343 17.8327 8.36728 15.1692 8.36728C8.75131 8.36728 3.70326 14.5822 3.50033 14.8359C3.38905 14.9719 3.32825 15.1421 3.32825 15.3179C3.32825 15.4936 3.38905 15.6639 3.50033 15.7998C4.50526 16.9924 5.63647 18.0726 6.87415 19.0214C9.61379 21.1523 12.5056 22.2684 15.1692 22.2684C21.587 22.2684 26.6351 16.0535 26.838 15.7745C26.9429 15.6405 27 15.4753 27 15.3052C27 15.135 26.9429 14.9698 26.838 14.8359C25.8329 13.6434 24.7018 12.5633 23.4642 11.6143ZM15.1692 20.4927C14.1457 20.4927 13.1452 20.1892 12.2942 19.6206C11.4432 19.052 10.7799 18.2438 10.3882 17.2982C9.99654 16.3526 9.89406 15.3121 10.0937 14.3083C10.2934 13.3045 10.7863 12.3824 11.51 11.6587C12.2337 10.9349 13.1558 10.4421 14.1596 10.2424C15.1634 10.0427 16.2039 10.1452 17.1495 10.5369C18.0951 10.9286 18.9033 11.5918 19.4719 12.4428C20.0406 13.2939 20.3441 14.2944 20.3441 15.3179C20.3374 16.6883 19.79 18.0006 18.821 18.9697C17.852 19.9387 16.5396 20.4861 15.1692 20.4927Z" fill="white"/>
<path d="M15.1689 12.5025C14.612 12.5025 14.0676 12.6677 13.6046 12.9771C13.1415 13.2865 12.7806 13.7262 12.5675 14.2407C12.3544 14.7552 12.2986 15.3214 12.4073 15.8676C12.5159 16.4138 12.7841 16.9155 13.1779 17.3093C13.5717 17.7031 14.0734 17.9713 14.6196 18.0799C15.1658 18.1886 15.7319 18.1328 16.2464 17.9197C16.7609 17.7066 17.2007 17.3457 17.5101 16.8826C17.8195 16.4196 17.9846 15.8752 17.9846 15.3183C17.9846 14.5715 17.688 13.8553 17.1599 13.3272C16.6319 12.7992 15.9157 12.5025 15.1689 12.5025Z" fill="white"/>
</svg>
