<svg width="55" height="61" fill="none" xmlns="http://www.w3.org/2000/svg"><path d="M46.21 12.484h-5.575c-.278-3.136-1.783-6.058-4.215-8.188C33.987 2.166 30.804.984 27.5.984c-3.304 0-6.487 1.182-8.92 3.312-2.432 2.13-3.936 5.052-4.214 8.188H8.79c-2.068 0-4.05.783-5.512 2.176C1.814 16.052.994 17.942.994 19.91v32.68c0 1.97.821 3.86 2.284 5.252 1.462 1.393 3.444 2.175 5.512 2.175h37.42c2.068 0 4.05-.782 5.513-2.175 1.462-1.393 2.283-3.282 2.283-5.252V19.911c0-1.97-.821-3.859-2.283-5.251-1.462-1.393-3.445-2.176-5.513-2.176zM27.5 3.944c2.478.007 4.867.88 6.713 2.455 1.847 1.575 3.022 3.74 3.303 6.085H17.484c.281-2.345 1.456-4.51 3.303-6.085 1.846-1.574 4.235-2.448 6.713-2.455zm23.388 48.645a4.352 4.352 0 01-1.37 3.151 4.798 4.798 0 01-3.308 1.305H8.79c-1.24 0-2.43-.469-3.307-1.305a4.352 4.352 0 01-1.37-3.15V19.91c0-1.182.492-2.315 1.37-3.15a4.798 4.798 0 013.307-1.306h37.42c1.24 0 2.43.47 3.308 1.305a4.352 4.352 0 011.37 3.151v32.68z" fill="#fff"/><path fill-rule="evenodd" clip-rule="evenodd" d="M41.513 11.5h4.697c2.32 0 4.55.878 6.202 2.45C54.064 15.526 55 17.669 55 19.912V52.59c0 2.243-.936 4.387-2.588 5.96C50.76 60.124 48.529 61 46.21 61H8.79c-2.32 0-4.55-.877-6.202-2.45C.936 56.976 0 54.832 0 52.59V19.91c0-2.243.936-4.386 2.588-5.96C4.24 12.378 6.471 11.5 8.79 11.5h4.697c.486-3.05 2.049-5.853 4.435-7.942C20.539 1.267 23.958 0 27.5 0s6.96 1.267 9.578 3.559c2.386 2.089 3.95 4.893 4.435 7.941zm-.878.984h5.575c2.068 0 4.05.783 5.513 2.176 1.462 1.392 2.283 3.282 2.283 5.251V52.59c0 1.97-.821 3.86-2.283 5.252-1.462 1.393-3.445 2.175-5.513 2.175H8.79c-2.068 0-4.05-.782-5.512-2.175C1.814 56.448.994 54.559.994 52.589V19.911c0-1.97.821-3.859 2.284-5.251 1.462-1.393 3.444-2.176 5.512-2.176h5.576c.278-3.136 1.782-6.058 4.215-8.188C21.012 2.166 24.196.984 27.5.984c3.303 0 6.486 1.182 8.919 3.312 2.432 2.13 3.937 5.052 4.215 8.188zm-7.07-5.34c-1.663-1.417-3.82-2.21-6.065-2.217-2.244.008-4.402.8-6.064 2.217a8.58 8.58 0 00-2.757 4.356h17.642a8.58 8.58 0 00-2.756-4.356zm3.779 4.356a9.547 9.547 0 00-3.13-5.1c-1.847-1.575-4.236-2.45-6.714-2.456-2.478.007-4.867.88-6.713 2.455-1.585 1.352-2.676 3.139-3.13 5.101a9.22 9.22 0 00-.173.984h20.032a9.221 9.221 0 00-.172-.984zm11.484 43.531a3.373 3.373 0 001.066-2.442V19.911c0-.908-.379-1.788-1.066-2.442a3.799 3.799 0 00-2.618-1.03H8.79c-.99 0-1.93.375-2.618 1.03a3.373 3.373 0 00-1.066 2.442V52.59c0 .909.379 1.788 1.066 2.442a3.799 3.799 0 002.618 1.03h37.42c.99 0 1.93-.374 2.618-1.03zm.69.71a4.352 4.352 0 001.37-3.152V19.911a4.352 4.352 0 00-1.37-3.15 4.798 4.798 0 00-3.308-1.306H8.79a4.8 4.8 0 00-3.307 1.305 4.352 4.352 0 00-1.37 3.151V52.59c0 1.182.492 2.316 1.37 3.151a4.798 4.798 0 003.307 1.305h37.42a4.8 4.8 0 003.308-1.305z" fill="#fff"/></svg>