<svg width="113" height="74" fill="none" xmlns="http://www.w3.org/2000/svg"><path d="M113 71.96l-13.659-6.038-19.584-38.568v-.004l1.429-9.485-3.623 5.173-.054-.108-21.026 29.8-1.32-1.87.353.322-23.32-33.317 1.345 8.93-19.584 39.51L0 71.96 31.6 8.225 31.23 0l2.614 3.696.017-.032L56.483 35.73 79.106 3.668l.02.043L81.754 0l-.37 8.253L113 71.96zM74.063 36.443v.004l-4.165 5.876v12.5c0 6.341-6.018 11.5-13.415 11.5-7.396 0-13.415-5.159-13.415-11.5v-12.5l-4.917-6.942-4.038-5.7v25.143C34.113 65.397 44.149 74 56.483 74c12.335 0 22.37-8.603 22.37-19.176V29.68l-4.79 6.762z" fill="#E3A56D"/></svg>