<svg width="138" height="105" viewBox="0 0 138 105" fill="none" xmlns="http://www.w3.org/2000/svg">
<path d="M2.20033 77.6073V77.6579L2.17499 77.7085L2.12431 77.7212H1.22898L1.1783 77.7085L1.16563 77.6706V77.6452L1.1783 77.6073L1.61752 76.1222L1.64286 76.0842L1.6682 76.0716L1.69354 76.0842L1.71888 76.1349L2.20033 77.6073ZM1.96805 75.232L1.83713 75.0042L1.73577 75.1308L1.7231 75.1814L0.658832 78.6578C0.57859 78.8982 0.52791 79.0628 0.502571 79.1261L0.409658 79.3033L0.164708 79.4172L0 79.5226L0.0380095 79.5859L0.114029 79.6112L0.320969 79.5859L0.59126 79.5606L0.929122 79.5859L1.14873 79.6112L1.25009 79.5859L1.27543 79.5226L1.21208 79.4467L0.954462 79.3961L0.785531 79.3328L0.747521 79.1936L0.760191 79.067L0.802424 78.9151L1.0347 78.0629L1.07271 77.9996L1.13606 77.9617H2.23412L2.2848 77.987L2.32281 78.0503L2.60999 78.9404L2.648 79.105L2.66067 79.2569L2.62266 79.3708L2.41572 79.4214H2.3946L2.213 79.4594L2.16232 79.548L2.20033 79.6112L2.31858 79.6366L2.5762 79.6112L2.8845 79.5859L3.17169 79.5986L3.46732 79.6366H3.56867L3.68693 79.6112L3.72494 79.548L3.59401 79.4594L3.41241 79.3961L3.25615 79.2315C3.18436 79.0839 3.12101 78.932 3.07455 78.7759L2.00184 75.4261L1.96805 75.232ZM5.1144 75.6877V77.2487L5.12707 77.2993L5.13974 77.3246L5.16507 77.2993L5.17774 77.274L5.20308 77.236L6.4574 75.6877L6.52075 75.5738L6.54609 75.4852L6.35182 75.3333L6.17022 75.2194L6.19556 75.1561L6.25891 75.1308L6.46585 75.1561L6.81638 75.1814L7.19225 75.1561L7.42453 75.1308L7.48788 75.1561L7.51322 75.2194C7.51322 75.2447 7.42453 75.2827 7.24293 75.3459C7.04866 75.4219 6.86706 75.5738 6.67279 75.7889L5.81968 76.8057L5.79434 76.8436L5.769 76.9069V76.9196L5.78167 76.9449L7.06133 78.9784L7.26827 79.2442L7.44987 79.3708L7.59346 79.4087L7.70749 79.4973L7.66948 79.5733L7.53856 79.5986L7.29361 79.5859L6.91774 79.5733L6.59254 79.5859L6.39827 79.6112L6.28002 79.5733L6.22934 79.51L6.28002 79.4467L6.39827 79.4214L6.56721 79.3961L6.61788 79.3201L6.55454 79.1176L6.3856 78.8139L5.45226 77.3668V77.3541L5.41425 77.3035L5.38891 77.3162L5.36357 77.3415L5.1693 77.582L5.13129 77.6579L5.11862 77.7591V78.9404C5.11862 79.1176 5.13129 79.2315 5.15663 79.2822L5.36357 79.3834L5.41425 79.3961H5.49027L5.63386 79.434L5.6592 79.5226L5.62119 79.5986L5.4776 79.6112L5.24532 79.5859L4.85678 79.5733L4.46823 79.5859L4.22328 79.6112L4.12192 79.5733L4.08391 79.4973L4.10925 79.4214L4.24018 79.3834H4.3162L4.36687 79.3708L4.57382 79.2695L4.61182 78.9404V75.6919L4.58649 75.4514L4.45556 75.3628L4.27396 75.3375L4.10503 75.2236L4.13037 75.1603L4.21906 75.135L4.45134 75.1603L4.83988 75.1856L5.26643 75.1603L5.48604 75.135L5.56629 75.1603L5.59163 75.2236L5.4227 75.3375L5.2791 75.3502L5.12284 75.4261L5.1144 75.6877ZM11.6183 78.9236C11.6183 79.1008 11.6309 79.2147 11.6563 79.2526L11.8125 79.3539L11.9688 79.3792L12.1377 79.5058V80.2694L12.125 80.4086L12.0617 80.4592L11.935 80.2694L11.7787 79.953L11.4535 79.6998C11.31 79.6366 11.1579 79.607 11.0017 79.6112H9.42214L9.20253 79.5986L8.92802 79.5859H8.51414L8.29453 79.6112L8.17628 79.5733L8.13827 79.4847L8.29453 79.3834L8.42545 79.3708L8.61972 79.2695C8.64506 79.2315 8.65773 79.1176 8.65773 78.9404V75.6919L8.63239 75.4514L8.50569 75.3628L8.33676 75.3375L8.16783 75.2363L8.19317 75.173L8.26919 75.135L8.50147 75.1603L8.89001 75.1856L9.31656 75.1603L9.53617 75.135L9.61219 75.1603L9.63753 75.2236L9.4686 75.3249L9.32501 75.3375L9.16875 75.4134L9.13074 75.6666V78.9151C9.13074 79.0923 9.14341 79.2062 9.16875 79.2442L9.19409 79.2948L9.24477 79.3455L9.29545 79.3834L9.48972 79.4087H10.7567L10.913 79.3834L11.0692 79.2569C11.0946 79.2189 11.1072 79.105 11.1072 78.9278V75.6919L11.0819 75.4388L10.9636 75.3628L10.782 75.3375L10.6131 75.2363L10.6384 75.173L10.7187 75.135L10.951 75.1603L11.3395 75.1856L11.7661 75.1603L12.011 75.135L12.087 75.1603L12.1124 75.2236L11.9434 75.3375L11.7999 75.3502L11.6436 75.4261L11.6056 75.6792V78.9236H11.6183ZM13.8862 78.6957L15.85 75.6877L15.8246 75.4345L15.6937 75.3459L15.5248 75.3206L15.3559 75.2194L15.3812 75.1561L15.4699 75.1308L15.7022 75.1561L16.0907 75.1814L16.5173 75.1561L16.7369 75.1308L16.8129 75.1561L16.8382 75.2194L16.682 75.3206L16.5384 75.3333L16.3821 75.4092L16.3441 75.6624V78.9362C16.3441 79.1134 16.3568 79.2273 16.3821 79.2653L16.5384 79.3665L16.6946 79.3919L16.8636 79.5058L16.8256 79.5817L16.7073 79.607L16.4877 79.5817L16.0992 79.5691L15.7106 79.5817L15.4783 79.607L15.377 79.5691L15.3263 79.4805L15.4826 79.3792L15.6135 79.3539L15.8077 79.2526C15.8331 79.2273 15.8458 79.1134 15.8458 78.9362V75.9282L13.8819 78.9362C13.8819 79.1134 13.8946 79.2273 13.9199 79.2653L14.0762 79.3665L14.2325 79.3919L14.4014 79.5058L14.3634 79.5817L14.2451 79.607L14.0255 79.5817L13.637 79.5691L13.2484 79.5817L13.0288 79.607L12.9106 79.5691L12.8726 79.4805L13.0288 79.3792L13.1597 79.3539L13.354 79.2526C13.3794 79.2273 13.392 79.1134 13.392 78.9362V75.6877L13.3667 75.4472L13.2358 75.3586L13.0668 75.3333L12.8979 75.232L12.9232 75.1688L12.9993 75.1308L13.2315 75.1561L13.6328 75.1814L14.0466 75.1561L14.2662 75.1308L14.3465 75.1561L14.3718 75.2194L14.2029 75.3206L14.0593 75.3333L13.903 75.4092L13.865 75.6624V78.6957H13.8862ZM20.6265 75.7889C20.8841 76.1813 21.0151 76.7171 21.0151 77.3626C21.0151 78.0081 20.8841 78.5312 20.6265 78.9362C20.3689 79.3286 20.031 79.5311 19.6298 79.5311C19.2159 79.5311 18.8823 79.3412 18.6331 78.9489C18.3755 78.5565 18.2446 78.0207 18.2446 77.3752C18.2446 76.7297 18.3755 76.2066 18.6331 75.8016C18.8907 75.3966 19.2159 75.2067 19.6298 75.2067C20.031 75.1941 20.3689 75.3966 20.6265 75.7889ZM18.2446 75.6877C17.8687 76.1433 17.6744 76.7002 17.6744 77.3626C17.6744 78.0207 17.8687 78.5945 18.2573 79.0501C18.6331 79.5058 19.0977 79.7378 19.6298 79.7378C20.162 79.7378 20.6265 79.51 21.0024 79.0501C21.3783 78.5818 21.5725 78.0334 21.5725 77.3626C21.5725 76.7002 21.3783 76.1433 21.0024 75.6877C20.6265 75.2278 20.1746 75 19.6298 75C19.085 75.0042 18.6331 75.232 18.2446 75.6877ZM23.4097 75.6877V76.9449L23.435 77.0462L23.5152 77.0715H25.289L25.3693 77.0462L25.3819 76.9449V75.6877L25.3566 75.4345L25.2257 75.3586L25.061 75.3333L24.892 75.232L24.9174 75.1561L25.0103 75.1308L25.2426 75.1561L25.6311 75.1814L26.0577 75.1561L26.2773 75.1308L26.3533 75.1561L26.3786 75.2194L26.2224 75.3333L26.0661 75.3459L25.9225 75.4219L25.8845 75.675V78.9362C25.8845 79.1134 25.8972 79.2273 25.9225 79.2653L26.0788 79.3665L26.235 79.3919L26.404 79.5058L26.366 79.5817L26.2477 79.607L26.0281 79.5817L25.6396 79.5564L25.2637 79.5817L25.0314 79.607L24.9131 79.5691L24.8625 79.4805L25.0314 79.3792L25.1581 79.3539L25.3524 79.2526C25.3777 79.2147 25.3904 79.1008 25.3904 78.9236V77.4005L25.3777 77.2993L25.2848 77.274H23.511L23.435 77.2993L23.4097 77.4005V78.9362C23.4097 79.1134 23.4223 79.2273 23.4477 79.2653L23.6039 79.3665L23.7602 79.3919L23.9291 79.5058L23.8911 79.5817L23.7729 79.607L23.5532 79.5817L23.1647 79.5564L22.7762 79.5817L22.5566 79.607L22.4383 79.5691L22.4003 79.4805L22.5566 79.3792L22.6875 79.3539L22.8817 79.2526C22.9071 79.2147 22.9198 79.1008 22.9198 78.9236V75.6877L22.8944 75.4472L22.7677 75.3586L22.5988 75.3333L22.4299 75.2194L22.4552 75.1561L22.5354 75.1308L22.7677 75.1561L23.1563 75.1814L23.5701 75.1561L23.8024 75.1308L23.8784 75.1561L23.9038 75.232L23.7349 75.3333L23.5913 75.3459L23.4477 75.4219L23.4097 75.6877ZM28.013 75.1561H29.4109L29.6179 75.1308L29.8924 75.1688L29.9304 75.3713V75.983L29.9177 76.1222L29.8544 76.1728L29.7235 75.983L29.5672 75.6792L29.242 75.4261L28.7901 75.3375C28.5325 75.3375 28.3636 75.3755 28.2749 75.4388C28.182 75.502 28.144 75.6413 28.144 75.8185V76.9998L28.1693 77.0757L28.2876 77.0883H28.6507L29.0013 77.0504L29.2082 76.9491L29.2842 76.8226L29.3349 76.658L29.3476 76.6327L29.4278 76.5315L29.4912 76.5568L29.5039 76.658L29.4912 76.8732L29.4785 77.2909C29.4785 77.5313 29.4785 77.7338 29.4912 77.911V77.9617L29.4658 78.0503L29.4152 78.0882L29.3265 77.9363V77.8984L29.1956 77.5313L28.9886 77.3541L28.6381 77.2909H28.2369L28.1609 77.3162L28.1482 77.4174V78.9404L28.2918 79.3075C28.3931 79.3834 28.5494 79.4214 28.7817 79.4214C29.0013 79.4214 29.1829 79.3834 29.3391 79.3328L29.7023 79.0417L29.8586 78.7253L29.9895 78.5354L30.0275 78.5481L30.0529 78.5861V78.7253L29.9895 79.3961L29.9389 79.5986L29.7826 79.6492L29.5883 79.6366C28.8704 79.5733 28.1482 79.569 27.426 79.6239L27.3077 79.6366L27.1768 79.5733L27.1388 79.4847L27.2951 79.3834L27.426 79.3708L27.6203 79.2695L27.6583 78.9404V75.6919L27.6329 75.4388L27.502 75.3502L27.4133 75.3375H27.3246L27.1937 75.2995L27.1684 75.2236L27.2064 75.1603L27.2824 75.135H27.3458L27.6836 75.1603H28.013V75.1561ZM31.8942 75.3966L32.2321 75.3333C32.4644 75.3333 32.6586 75.4345 32.8149 75.637C32.9712 75.8396 33.0472 76.0927 33.0472 76.4007C33.0556 76.6496 32.9796 76.8985 32.8276 77.0968C32.6967 77.274 32.4897 77.3752 32.2701 77.3752L31.9196 77.2866L31.8013 76.9449V75.6877L31.8942 75.3966ZM31.8182 77.468L31.8562 77.4427L32.1138 77.544L32.5404 77.6452C32.8107 77.6452 33.0303 77.5313 33.2372 77.2909C33.4315 77.0504 33.5244 76.7719 33.5244 76.4302C33.5244 76.0378 33.4188 75.7172 33.2119 75.4894C33.005 75.2616 32.7051 75.1477 32.3335 75.1477C32.3208 75.1477 32.1772 75.1477 31.8942 75.1603C31.6197 75.1603 31.4423 75.173 31.3748 75.173H31.2734L31.1552 75.1603L31.0242 75.135L30.9355 75.173L30.8975 75.2363L31.0411 75.3375L31.1847 75.3628L31.2988 75.4514L31.3241 75.6919V78.9404C31.3241 79.1429 31.2987 79.2695 31.2481 79.3201L30.9524 79.3961L30.8891 79.4214L30.8638 79.4973L30.9018 79.5859L31.0073 79.6112L31.2016 79.5986L31.5775 79.5859L31.9534 79.5986L32.1603 79.6112L32.2617 79.5859L32.2997 79.51L32.2743 79.434L32.1434 79.3961L32.0927 79.3834L32.0547 79.3708L32.004 79.3581L31.8604 79.2569C31.8351 79.2315 31.8224 79.1303 31.8224 78.9404C31.8182 78.9404 31.8182 77.468 31.8182 77.468ZM35.2855 75.6877V76.9449L35.3109 77.0462L35.3911 77.0715H37.1776L37.2536 77.0462L37.2662 76.9449V75.6877L37.2409 75.4345L37.11 75.3586L36.9284 75.3333L36.7595 75.232L36.7848 75.1561L36.8735 75.1308L37.1058 75.1561L37.4943 75.1814L37.9209 75.1561L38.1405 75.1308L38.2207 75.1561L38.246 75.2194L38.0898 75.3333L37.9462 75.3459L37.7899 75.4219L37.7477 75.675V78.9362C37.7477 79.1134 37.7604 79.2273 37.7857 79.2653L37.942 79.3665L38.0982 79.3919L38.2672 79.5058L38.2292 79.5817L38.1109 79.607L37.8913 79.5817L37.5028 79.5564L37.1269 79.5817L36.8946 79.607L36.7763 79.5691L36.7257 79.4805L36.8946 79.3792L37.0129 79.3539L37.2071 79.2526C37.2325 79.2147 37.2451 79.1008 37.2451 78.9236V77.4005L37.2325 77.2993L37.1649 77.2782H35.3784L35.2982 77.3035L35.2729 77.4048V78.9404C35.2729 79.1176 35.2855 79.2315 35.3109 79.2695L35.4671 79.3708L35.6361 79.3961L35.805 79.51L35.767 79.5859L35.6487 79.6112L35.4291 79.5859L35.0406 79.5606L34.652 79.5859L34.4324 79.6112L34.3142 79.5733L34.2762 79.4847L34.4324 79.3834L34.5633 79.3581L34.7576 79.2569C34.783 79.2189 34.7956 79.105 34.7956 78.9278V75.6919L34.7703 75.4514L34.6394 75.3628L34.4578 75.3375L34.2888 75.2236L34.3142 75.1603L34.4029 75.135L34.6351 75.1603L35.0237 75.1856L35.4502 75.1603L35.6698 75.135L35.7501 75.1603L35.7754 75.2363L35.6065 75.3375L35.4629 75.3502L35.3193 75.4261L35.2855 75.6877ZM40.8518 77.6073V77.6579L40.8265 77.7085L40.7758 77.7338H39.8805L39.8298 77.7212V77.6452L39.8424 77.6073L40.2817 76.1222L40.307 76.0842L40.3324 76.0716L40.3577 76.0842L40.383 76.1349L40.8518 77.6073ZM40.6322 75.232L40.4886 75.0042L40.3873 75.1308L40.3746 75.1814L39.3103 78.6578C39.2343 78.8982 39.1794 79.0628 39.1541 79.1261L39.0485 79.3033L38.8035 79.4172L38.6346 79.5184L38.6599 79.5817L38.736 79.607L38.9429 79.5817L39.2132 79.5564L39.551 79.5817L39.7707 79.607L39.872 79.5817L39.8974 79.5184L39.872 79.4425L39.6144 79.3919L39.4455 79.3286L39.4075 79.1893L39.4201 79.0628L39.4581 78.9109L39.6904 78.0587L39.7284 77.9954L39.7918 77.9574H40.8898L40.9532 77.9827L40.9912 78.046L41.2784 78.9362L41.3164 79.1008L41.329 79.2526L41.291 79.3665L41.0841 79.4172H41.0588L40.8772 79.4551L40.8265 79.5437L40.8518 79.607L40.9701 79.6323L41.2277 79.607L41.536 79.5817L41.8232 79.5944L42.1188 79.6323H42.2328L42.3384 79.607L42.3764 79.5437L42.2455 79.4551L42.0766 79.4172L41.9203 79.2526C41.8485 79.105 41.7852 78.9531 41.7387 78.797L40.6787 75.4092L40.6322 75.232ZM44.7203 77.2107C44.5134 77.2107 44.3445 77.1854 44.2051 77.1348L43.9095 76.9829L43.7152 76.7297L43.6265 76.2868C43.6265 76.0969 43.6519 75.945 43.6899 75.8438L43.9095 75.502L44.1291 75.3502L44.4416 75.3122C44.6485 75.3122 44.7921 75.3375 44.8682 75.3755L44.9695 75.6792V77.101L44.9568 77.1896L44.8766 77.2149H44.7203V77.2107ZM42.5834 79.5353L42.596 79.5859L42.6594 79.6112L42.7354 79.5986L42.8368 79.5859L43.1324 79.5986L43.2887 79.6112L43.4449 79.5733L43.5632 79.3834L44.1967 77.8224L44.3529 77.582L44.5345 77.4554L44.7668 77.4174H44.8555L44.9315 77.4427L44.9568 77.544V78.9404L44.9315 79.2442L44.8133 79.3455L44.6317 79.3961L44.4881 79.51L44.5261 79.5859L44.6274 79.6112L44.8217 79.5859L45.1976 79.5733L45.5734 79.5859L45.7677 79.6112L45.8691 79.5733L45.9071 79.4973L45.8691 79.4214L45.7255 79.3961L45.5185 79.3201L45.4679 79.1683L45.4425 78.9404V75.6919L45.4679 75.4514L45.5861 75.3755L45.7297 75.3502L45.8733 75.2489L45.848 75.1603L45.7424 75.135L45.5228 75.1477L45.1469 75.1603L44.8766 75.1477L44.5514 75.135C44.3318 75.135 44.1502 75.1477 44.0066 75.173L43.6434 75.2995L43.2802 75.6666C43.1957 75.8396 43.1493 76.0294 43.1493 76.2235C43.1493 76.4007 43.1746 76.5526 43.2295 76.6833L43.3985 76.9491L43.6941 77.1769L44.108 77.3035C43.9517 77.3668 43.8081 77.5693 43.6561 77.9237L43.1788 79.0543L42.9972 79.3201L42.8156 79.3961L42.6974 79.434L42.5834 79.5353ZM50.8019 76.426L50.8906 76.1096L51.2284 76.0336C51.4354 76.0336 51.617 76.1475 51.7606 76.388C51.9041 76.6285 51.9802 76.9449 51.9802 77.3415C51.9802 77.582 51.9422 77.7971 51.8788 77.9912C51.8197 78.1515 51.7225 78.2949 51.5916 78.4089L51.2284 78.5607L50.8906 78.4342L50.8019 78.1557V76.426ZM50.9455 79.5859L51.1777 79.6112L51.296 79.5733L51.334 79.4847L51.1651 79.3834L51.0341 79.3581L50.8399 79.2569L50.8019 79.0164V78.7379L50.8906 78.6493L51.0848 78.6746L51.3298 78.7C51.5156 78.6957 51.7014 78.6409 51.8619 78.5481C52.052 78.4342 52.2124 78.2696 52.3265 78.0798C52.4574 77.8646 52.5207 77.6199 52.5207 77.3288C52.5207 77.1137 52.4701 76.8858 52.3645 76.6707C52.2716 76.4597 52.128 76.2741 51.9506 76.1264C51.7774 75.9872 51.5621 75.9113 51.3425 75.9113L51.0848 75.9366L50.9032 75.9619L50.8145 75.8733V75.5949L50.8399 75.4556L50.9666 75.367L51.1355 75.3417L51.3044 75.2405L51.2791 75.1772L51.1904 75.1392L50.9581 75.1645L50.5569 75.1898L50.1557 75.1645L49.9234 75.1392L49.8474 75.1645L49.8221 75.2278L49.991 75.3291L50.1726 75.3544L50.3035 75.443L50.3289 75.5822V75.8227L50.2402 75.9113C50.0924 75.8944 49.9488 75.8817 49.801 75.8733C49.5771 75.8733 49.3575 75.9492 49.1801 76.0885C48.9985 76.2319 48.8549 76.4218 48.7662 76.6327C48.6649 76.8479 48.61 77.0757 48.61 77.2909C48.5931 77.7845 48.8465 78.2528 49.2688 78.5101C49.4335 78.6071 49.6193 78.662 49.8136 78.662L50.0586 78.6367L50.2528 78.6114L50.3458 78.7V78.9911L50.3077 79.2315L50.1008 79.3328L49.9699 79.3581L49.8052 79.4594L49.8432 79.548L49.9614 79.5859L50.1937 79.5606L50.5823 79.548C50.5696 79.548 50.9455 79.5859 50.9455 79.5859ZM50.2191 78.43L49.8939 78.5439L49.5307 78.392C49.404 78.2739 49.3068 78.1304 49.2435 77.9743C49.1675 77.7676 49.1337 77.5482 49.1421 77.3246C49.1421 76.9322 49.2181 76.599 49.3617 76.3711C49.5053 76.1307 49.6869 76.0168 49.8939 76.0168L50.2317 76.0927L50.3204 76.4091V78.1346C50.3204 78.1388 50.2191 78.43 50.2191 78.43ZM54.2565 78.6957L56.2203 75.6877L56.195 75.4345L56.0683 75.3459L55.8994 75.3206L55.7304 75.2194L55.7558 75.1561L55.836 75.1308L56.0683 75.1561L56.4568 75.1814L56.8834 75.1561L57.1157 75.1308L57.1917 75.1561L57.217 75.2194L57.0608 75.3206L56.9172 75.3333L56.7736 75.4092L56.7356 75.6624V78.9362C56.7356 79.1134 56.7482 79.2273 56.7736 79.2653L56.9299 79.3665L57.0861 79.3919L57.255 79.5058L57.217 79.5817L57.0988 79.607L56.8792 79.5817L56.4653 79.5691L56.0894 79.5817L55.8571 79.607L55.7558 79.5691L55.7051 79.4805L55.874 79.3792L56.005 79.3539L56.1992 79.2526C56.2203 79.1472 56.233 79.0417 56.2246 78.9362V75.9282L54.2607 78.9362C54.2607 79.1134 54.2734 79.2273 54.2988 79.2653L54.455 79.3665L54.6113 79.3919L54.7802 79.5058L54.7422 79.5817L54.6239 79.607L54.4043 79.5817L54.0158 79.5691L53.6272 79.5817L53.4076 79.607L53.2894 79.5691L53.2514 79.4805L53.4076 79.3792L53.5386 79.3539L53.7202 79.2526C53.7582 79.2273 53.7708 79.1134 53.7708 78.9362V75.6877L53.7455 75.4472L53.6146 75.3586L53.4456 75.3333L53.2767 75.232L53.3021 75.1688L53.3654 75.1308L53.5977 75.1561L53.9862 75.1814L54.4001 75.1561L54.6451 75.1308L54.7211 75.1561L54.7464 75.2194L54.5775 75.3206L54.4339 75.3333L54.2903 75.4092L54.2523 75.6624L54.2565 78.6957ZM58.9908 75.6877V76.9449L59.0162 77.0462L59.0964 77.0715H60.8828L60.9589 77.0462L60.9715 76.9449V75.6877L60.9462 75.4345L60.8279 75.3586L60.659 75.3333L60.4901 75.232L60.5154 75.1561L60.5661 75.1308L60.7984 75.1561L61.1869 75.1814L61.6135 75.1561L61.8458 75.1308L61.926 75.1561L61.9513 75.2194L61.7951 75.3333L61.6388 75.3459L61.4952 75.4219L61.4572 75.675V78.9362C61.4572 79.1134 61.4699 79.2273 61.4952 79.2653L61.6515 79.3665L61.8077 79.3919L61.9767 79.5058L61.9387 79.5817L61.8204 79.607L61.6008 79.5817L61.2123 79.5564L60.8237 79.5817L60.6041 79.607L60.4859 79.5691L60.4352 79.4805L60.5914 79.3792L60.7224 79.3539L60.9166 79.2526C60.942 79.2147 60.9546 79.1008 60.9546 78.9236V77.4005L60.942 77.2993L60.8617 77.274H59.0753L58.995 77.2993L58.9697 77.4005V78.9362C58.9697 79.1134 58.9824 79.2273 58.995 79.2653L59.1513 79.3665L59.3076 79.3919L59.4765 79.5058L59.4385 79.5817L59.3202 79.607L59.1006 79.5817L58.7121 79.5564L58.3235 79.5817L58.1039 79.607L58.0152 79.5691L57.9772 79.4805L58.1335 79.3792L58.2644 79.3539L58.446 79.2526C58.4714 79.2147 58.4967 79.1008 58.4967 78.9236V75.6877L58.4714 75.4472L58.3404 75.3586L58.1588 75.3333L57.9899 75.2194L58.0152 75.1561L58.0913 75.1308L58.3235 75.1561L58.7121 75.1814L59.126 75.1561L59.3709 75.1308L59.4512 75.1561L59.4765 75.232L59.3076 75.3333L59.164 75.3459L59.0204 75.4219L58.9908 75.6877ZM64.5571 77.6073V77.6579L64.5318 77.7085L64.4811 77.7338H63.59L63.5393 77.7212L63.5266 77.6706V77.6452L63.5393 77.6073L63.9785 76.1222L64.0039 76.0842L64.0292 76.0716L64.0545 76.0842L64.0799 76.1349L64.5571 77.6073ZM64.3333 75.232L64.1897 75.0042L64.0883 75.1308L64.0756 75.1814L63.0156 78.6578C62.9354 78.8982 62.8974 79.0628 62.8593 79.1261L62.7707 79.3033L62.5257 79.4172L62.3568 79.5184L62.3948 79.5817L62.4708 79.607L62.6904 79.5817L62.9607 79.5564L63.2986 79.5817L63.5182 79.607L63.6195 79.5817L63.6449 79.5184L63.5689 79.4425L63.3112 79.3919L63.1423 79.3286L63.1043 79.1893L63.117 79.0628L63.155 78.9109L63.3873 78.0587L63.4253 77.9954L63.4886 77.9574H64.574L64.6373 77.9827L64.6754 78.046L64.9625 78.9362L65.0005 79.1008L65.0132 79.2526L64.9752 79.3665L64.7683 79.4172H64.7429L64.574 79.4551L64.5106 79.5437L64.536 79.607L64.6669 79.6323L64.9245 79.607L65.2371 79.5817L65.5242 79.5691L65.8072 79.607H65.9086L66.0268 79.5817L66.0521 79.5184L65.9212 79.4298L65.7523 79.3919L65.6087 79.2273C65.5369 79.0797 65.4778 78.9278 65.4271 78.7717L64.3671 75.4219C64.3755 75.4219 64.3333 75.232 64.3333 75.232ZM67.4669 75.6877V76.9449L67.4923 77.0462L67.5683 77.0715H69.3548L69.4308 77.0462L69.4434 76.9449V75.6877L69.4181 75.4345L69.2872 75.3586L69.1183 75.3333L68.9493 75.232L68.9747 75.1561L69.0507 75.1308L69.283 75.1561L69.6715 75.1814L70.098 75.1561L70.3303 75.1308L70.4064 75.1561L70.4317 75.2194L70.2754 75.3333L70.1318 75.3459L69.9882 75.4219L69.9502 75.675V78.9362C69.9502 79.1134 69.9629 79.2273 69.9882 79.2653L70.1445 79.3665L70.3008 79.3919L70.4697 79.5058L70.4317 79.5817L70.3008 79.607L70.0812 79.5817L69.6926 79.5564L69.3041 79.5817L69.0845 79.607L68.9662 79.5691L68.9155 79.4805L69.0718 79.3792L69.19 79.3539L69.3843 79.2526C69.4097 79.2147 69.4223 79.1008 69.4223 78.9236V77.4005L69.4097 77.2993L69.3294 77.274H67.543L67.4669 77.2993L67.4543 77.4005V78.9362C67.4543 79.1134 67.4669 79.2273 67.4923 79.2653L67.6485 79.3665L67.8048 79.3919L67.9737 79.5058L67.9357 79.5817L67.8175 79.607L67.5979 79.5817L67.2093 79.5564L66.8208 79.5817L66.6012 79.607L66.4998 79.5691L66.4618 79.4805L66.6307 79.3792L66.749 79.3539L66.9433 79.2526C66.9686 79.2147 66.9813 79.1008 66.9813 78.9236V75.6877L66.9433 75.4472L66.8123 75.3586L66.6434 75.3333L66.4745 75.2194L66.4998 75.1561L66.5885 75.1308L66.8208 75.1561L67.2093 75.1814L67.6232 75.1561L67.8555 75.1308L67.9357 75.1561L67.9611 75.232L67.7921 75.3333L67.6485 75.3459L67.505 75.4219L67.4669 75.6877ZM71.2721 77.3752C71.2721 76.7171 71.4664 76.1433 71.8549 75.6877C72.2435 75.2278 72.7123 75 73.2782 75C73.4851 75 73.6921 75.0253 73.8863 75.0759C74.0806 75.1392 74.2115 75.2025 74.2622 75.2658L74.3256 75.5189C74.3382 75.6455 74.3509 75.8227 74.3509 76.0252L74.3256 76.0758L74.2749 76.1011L74.1735 75.9492L74.0722 75.7214C73.9919 75.5611 73.8694 75.4261 73.7216 75.3291C73.5738 75.2405 73.4007 75.1983 73.2317 75.2025C72.8305 75.2025 72.4926 75.3924 72.235 75.7974C71.9774 76.1897 71.8465 76.7213 71.8465 77.371C71.8465 77.9912 71.9774 78.5017 72.2604 78.9193C72.5307 79.3244 72.8559 79.5311 73.2444 79.5311C73.4471 79.5353 73.6456 79.4678 73.8019 79.3412C73.9581 79.2147 74.0722 79.0122 74.1777 78.7295L74.2284 78.5523L74.3213 78.4004L74.372 78.4384L74.3847 78.527C74.3847 78.8181 74.3847 79.0206 74.372 79.1219L74.3213 79.337C74.2411 79.4509 74.0891 79.5395 73.8821 79.6155C73.6752 79.6914 73.4429 79.742 73.2106 79.742C72.6531 79.742 72.2012 79.5142 71.8254 79.0712C71.4537 78.6198 71.2721 78.0503 71.2721 77.3752ZM78.2954 75.7889C78.5531 76.1813 78.684 76.7171 78.684 77.3626C78.684 78.0081 78.5531 78.5312 78.2954 78.9362C78.0378 79.3286 77.7 79.5311 77.2987 79.5311C76.8849 79.5311 76.547 79.3412 76.2894 78.9489C76.0318 78.5565 75.9008 78.0207 75.9008 77.3752C75.9008 76.7297 76.0318 76.2066 76.2894 75.8016C76.547 75.3966 76.8722 75.2067 77.2861 75.2067C77.7042 75.1941 78.0378 75.3966 78.2954 75.7889ZM75.9177 75.6877C75.5292 76.1433 75.3476 76.7002 75.3476 77.3626C75.3476 78.0207 75.5419 78.5945 75.9177 79.0501C76.3063 79.5058 76.7582 79.7378 77.303 79.7378C77.8478 79.7378 78.2997 79.51 78.6755 79.0501C79.0641 78.5818 79.2457 78.0334 79.2457 77.3626C79.2457 76.7002 79.0641 76.1433 78.6755 75.6877C78.2997 75.2278 77.8478 75 77.303 75C76.7582 75.0042 76.3063 75.232 75.9177 75.6877ZM81.1715 75.3713C81.2348 75.3206 81.3531 75.2953 81.5474 75.2953C81.8726 75.2953 82.1175 75.3839 82.2864 75.5358C82.4554 75.7003 82.5441 75.9282 82.5441 76.2319C82.5441 76.523 82.4427 76.7382 82.2358 76.8943C82.0288 77.0462 81.7459 77.1221 81.3573 77.1221L81.125 77.0841L81.087 76.9196V75.6497L81.1715 75.3713ZM82.8524 76.7677C82.9875 76.6201 83.0678 76.426 83.072 76.2235L82.9537 75.7425L82.6285 75.4008C82.3709 75.2236 81.9444 75.135 81.3742 75.135C80.935 75.135 80.6098 75.1477 80.3902 75.1983C80.1579 75.2363 80.0523 75.2869 80.0523 75.3628L80.0777 75.4388L80.141 75.4767L80.2424 75.4514L80.3733 75.4388L80.5296 75.502L80.5802 75.7172V79.0797L80.5042 79.3201L80.2973 79.3961L80.1537 79.4214L80.1157 79.4973L80.1537 79.5733L80.255 79.6112L80.462 79.5859L80.7999 79.5606C80.9012 79.5606 81.0955 79.5733 81.37 79.6112C81.6403 79.6492 81.8768 79.6619 82.0415 79.6619C82.4174 79.6619 82.713 79.548 82.9579 79.3075C83.1902 79.067 83.3085 78.7632 83.3085 78.3835C83.3085 78.0924 83.2071 77.8393 83.0128 77.5946L82.675 77.3288L82.2231 77.1516C82.4765 77.0715 82.6834 76.9449 82.8524 76.7677ZM82.4765 77.582C82.6581 77.7718 82.7637 78.0376 82.7637 78.3835C82.7637 78.7126 82.675 78.9784 82.4934 79.1851C82.3118 79.375 82.0542 79.4762 81.729 79.4762C81.4967 79.4762 81.3278 79.4383 81.2222 79.3497C81.1208 79.2611 81.0659 79.1218 81.0659 78.9193V77.4216L81.0913 77.3204L81.1715 77.2951H81.6741C82.0373 77.2866 82.2949 77.3921 82.4765 77.582ZM85.9058 77.6073V77.6579L85.8805 77.7085L85.8298 77.7338H84.9344L84.8838 77.7212L84.8711 77.6706V77.6579L84.8838 77.6199L85.323 76.1349L85.3357 76.0969L85.361 76.0842L85.3863 76.0969L85.4117 76.1475L85.9058 77.6073ZM85.6735 75.232L85.5426 75.0042L85.4243 75.1308L85.4117 75.1814L84.339 78.6578C84.2629 78.8982 84.2207 79.0628 84.1827 79.1261L84.0898 79.3033L83.8448 79.4172L83.6759 79.5184L83.7139 79.5817L83.7899 79.607L84.0095 79.5817L84.2798 79.5691L84.6177 79.5944L84.8373 79.6197L84.9387 79.5944L84.964 79.5311L84.9133 79.4425L84.6557 79.3919L84.4868 79.3286L84.4488 79.1893L84.4614 79.0628L84.4868 78.9109L84.7191 78.0587L84.7571 77.9954L84.8204 77.9574H85.9058L85.9565 77.9827L85.9945 78.046L86.2817 78.9362L86.3197 79.1008L86.345 79.2526L86.307 79.3665L86.1001 79.4172H86.0747L85.8931 79.4551L85.8424 79.5437L85.8678 79.607L85.986 79.6323L86.2437 79.607L86.5562 79.5817L86.8645 79.5691L87.1517 79.607H87.253L87.3544 79.5817L87.3924 79.5184L87.2657 79.4298L87.0968 79.3919L86.9532 79.2273C86.8814 79.0797 86.818 78.9278 86.7716 78.7717L85.6989 75.4219L85.6735 75.232ZM89.7743 77.2107C89.5674 77.2107 89.3985 77.1854 89.2549 77.1348L88.955 76.9829L88.7734 76.7297L88.6847 76.2994C88.6847 76.1096 88.7101 75.9577 88.7481 75.8564L88.955 75.5105L89.1873 75.3586L89.4956 75.3206C89.7025 75.3206 89.8461 75.3459 89.9095 75.3839L90.0151 75.6877V77.1094L89.9897 77.2107L89.9095 77.236H89.7701V77.2107H89.7743ZM87.6416 79.5353L87.6542 79.5859L87.7176 79.6112L87.7936 79.5986L87.895 79.5859L88.1948 79.5986L88.3511 79.6112L88.5073 79.5733L88.6256 79.3834L89.2591 77.8224L89.4153 77.582L89.5969 77.4554L89.8292 77.4174H89.9095L89.9855 77.4427L90.0108 77.544V78.9404L89.9855 79.2442L89.8672 79.3455L89.6856 79.3961L89.5463 79.51L89.5843 79.5859L89.6856 79.6112L89.8926 79.5859L90.2685 79.5733L90.6443 79.5859L90.8386 79.6112L90.9273 79.5733L90.9653 79.4973L90.9273 79.4214L90.7837 79.3961L90.5767 79.3201L90.5261 79.1683L90.5134 78.9404V75.6919L90.5387 75.4514L90.657 75.3755L90.8006 75.3502L90.9442 75.2489L90.9188 75.173L90.8175 75.135L90.5979 75.1477L90.222 75.1603L89.9517 75.1477L89.6265 75.135C89.3942 75.135 89.2253 75.1477 89.0817 75.173L88.7185 75.2995L88.3553 75.6666C88.2624 75.8353 88.2159 76.0294 88.2244 76.2235C88.2244 76.4007 88.2497 76.5526 88.3004 76.6833L88.4693 76.9491L88.765 77.1769L89.1788 77.3035C89.0226 77.3668 88.879 77.5693 88.7269 77.9237L88.2497 79.0543L88.0554 79.3201L87.8739 79.3961L87.7556 79.434L87.6416 79.5353ZM94.6395 75.6877V77.2487L94.6522 77.2993L94.6649 77.3246L94.6902 77.2993L94.7029 77.274L94.7282 77.236L95.9699 75.6877L96.0332 75.5738L96.0586 75.4852L95.877 75.3333L95.6827 75.2194L95.708 75.1561L95.7841 75.1308L95.991 75.1561L96.3542 75.1814L96.7301 75.1561L96.937 75.1308L97.0004 75.1561L97.0257 75.2194C97.0257 75.2447 96.937 75.2827 96.7554 75.3459C96.5611 75.4219 96.3795 75.5738 96.1853 75.7889L95.3322 76.8057L95.3068 76.8436L95.2942 76.8943V76.9069L95.3068 76.9322L96.5865 78.9615L96.7934 79.2273L96.975 79.3539L97.1186 79.3919L97.2369 79.4805L97.1989 79.5564L97.0679 79.5817L96.823 79.5564L96.4471 79.5691L96.1219 79.5817L95.9276 79.607L95.7967 79.5691L95.7461 79.5058L95.7967 79.4425L95.915 79.4172L96.0839 79.3919L96.1346 79.3159L96.0712 79.1134L95.9023 78.8223L94.969 77.3752V77.3626L94.931 77.3119L94.9056 77.3246L94.8803 77.3499L94.686 77.5904L94.648 77.6663L94.6353 77.7549V78.9362C94.6353 79.1134 94.648 79.2273 94.686 79.2779L94.8803 79.3792L94.931 79.3919H94.9943L95.1337 79.4298L95.159 79.5184L95.121 79.5944L95.0027 79.6197L94.7705 79.5944L94.3819 79.5817L93.9934 79.5944L93.7484 79.6197L93.6302 79.5691L93.5922 79.4931L93.6175 79.4172L93.7484 79.3792H93.8245L93.8751 79.3665L94.0821 79.2653L94.1328 78.9362V75.6877L94.1074 75.4472L93.9765 75.3586L93.7949 75.3333L93.626 75.2194L93.6513 75.1561L93.7273 75.1308L93.9596 75.1561L94.3608 75.1814L94.7747 75.1561L95.007 75.1308L95.0872 75.1561L95.1126 75.2194L94.9436 75.3333L94.8 75.3459L94.6564 75.4219L94.6395 75.6877ZM100.683 75.7889C100.941 76.1813 101.072 76.7171 101.072 77.3626C101.072 78.0081 100.941 78.5312 100.683 78.9362C100.425 79.3286 100.088 79.5311 99.6864 79.5311C99.2725 79.5311 98.9346 79.3412 98.677 78.9489C98.4194 78.5565 98.2885 78.0207 98.2885 77.3752C98.2885 76.7297 98.4152 76.2066 98.677 75.8016C98.9346 75.3966 99.2598 75.2067 99.6737 75.2067C100.088 75.1941 100.425 75.3966 100.683 75.7889ZM98.3011 75.6877C97.9253 76.1433 97.731 76.7002 97.731 77.3626C97.731 78.0207 97.9253 78.5945 98.3138 79.0501C98.6897 79.5058 99.1416 79.7378 99.6864 79.7378C100.214 79.7378 100.683 79.51 101.059 79.0501C101.435 78.5818 101.629 78.0334 101.629 77.3626C101.629 76.7002 101.435 76.1433 101.059 75.6877C100.683 75.2278 100.219 75 99.6737 75C99.1416 75.0042 98.6897 75.232 98.3011 75.6877ZM103.542 75.3966L103.88 75.3333C104.112 75.3333 104.307 75.4345 104.476 75.637C104.632 75.8396 104.708 76.0927 104.708 76.4007C104.716 76.6496 104.64 76.8985 104.488 77.0968C104.357 77.274 104.15 77.3752 103.931 77.3752L103.568 77.2866L103.466 76.9449V75.6877L103.542 75.3966ZM103.466 77.468L103.504 77.4427L103.762 77.544L104.188 77.6452C104.459 77.6452 104.695 77.5313 104.889 77.2909C105.084 77.0504 105.185 76.7719 105.185 76.4302C105.185 76.0378 105.084 75.7172 104.877 75.4894C104.67 75.2616 104.37 75.1477 103.998 75.1477C103.986 75.1477 103.842 75.1477 103.559 75.1603C103.289 75.1603 103.107 75.173 103.04 75.173H102.938L102.82 75.1603L102.664 75.135L102.575 75.173L102.55 75.2363L102.693 75.3375L102.837 75.3628L102.955 75.4514L102.981 75.6919V78.9404C102.981 79.1429 102.955 79.2695 102.9 79.3201L102.617 79.3961L102.537 79.4214L102.512 79.4973L102.55 79.5859L102.651 79.6112L102.845 79.5986L103.221 79.5859L103.597 79.5986L103.791 79.6112L103.893 79.5859L103.931 79.51L103.905 79.434L103.787 79.3961L103.737 79.3834L103.698 79.3708L103.635 79.3581L103.492 79.2569C103.466 79.2062 103.466 79.105 103.466 78.9278C103.466 78.9236 103.466 77.468 103.466 77.468ZM108.576 75.3333H107.259L107.115 75.3459L106.959 75.4219L106.921 75.6877V78.9362C106.921 79.1134 106.934 79.2273 106.959 79.2653L107.115 79.3665L107.271 79.3919L107.44 79.5058L107.402 79.5817L107.284 79.607L107.064 79.5817L106.676 79.5691L106.3 79.5817L106.08 79.607L105.962 79.5691L105.924 79.4805L106.08 79.3792L106.207 79.3539L106.401 79.2526C106.427 79.2147 106.439 79.1008 106.439 78.9236V75.6877L106.414 75.4472L106.283 75.3586L106.114 75.3333L105.945 75.2194L105.971 75.1434L106.034 75.1308L106.228 75.1561L106.435 75.1814H109.375L109.607 75.1561L109.788 75.1308L109.869 75.1561L109.894 75.232L109.738 75.3459L109.594 75.3586L109.438 75.4345L109.387 75.6877V78.9362C109.387 79.1134 109.4 79.2273 109.425 79.2653L109.582 79.3665L109.738 79.3919L109.907 79.5058L109.869 79.5817L109.75 79.607L109.531 79.5817L109.142 79.5691L108.766 79.5817L108.534 79.607L108.416 79.5691L108.365 79.4805L108.521 79.3792L108.64 79.3539L108.834 79.2526C108.859 79.2147 108.872 79.1008 108.872 78.9236V75.6877L108.847 75.4345L108.728 75.3586L108.576 75.3333ZM113.674 75.7889C113.932 76.1813 114.062 76.7171 114.062 77.3626C114.062 78.0081 113.932 78.5312 113.687 78.9362C113.429 79.3286 113.091 79.5311 112.69 79.5311C112.276 79.5311 111.938 79.3412 111.68 78.9489C111.423 78.5565 111.292 78.0207 111.292 77.3752C111.292 76.7297 111.423 76.2066 111.68 75.8016C111.938 75.3966 112.263 75.2067 112.665 75.2067C113.078 75.1941 113.416 75.3966 113.674 75.7889ZM111.292 75.6877C110.916 76.1433 110.722 76.7002 110.722 77.3626C110.722 78.0207 110.916 78.5945 111.305 79.0501C111.68 79.5058 112.145 79.7378 112.677 79.7378C113.222 79.7378 113.674 79.51 114.05 79.0501C114.426 78.5818 114.62 78.0334 114.62 77.3626C114.62 76.7002 114.426 76.1433 114.05 75.6877C113.674 75.2278 113.209 75 112.677 75C112.137 75.0042 111.68 75.232 111.292 75.6877ZM116.533 75.3966L116.871 75.3333C117.103 75.3333 117.297 75.4345 117.466 75.637C117.623 75.8396 117.699 76.0927 117.699 76.4007C117.699 76.6791 117.635 76.9196 117.479 77.0968C117.348 77.274 117.141 77.3752 116.922 77.3752L116.571 77.2866L116.453 76.9449V75.6877L116.533 75.3966ZM116.457 77.468L116.495 77.4427L116.753 77.544L117.179 77.6452C117.449 77.6452 117.669 77.5313 117.876 77.2909C118.07 77.0504 118.163 76.7719 118.163 76.4302C118.163 76.0378 118.062 75.7172 117.855 75.4894C117.648 75.2616 117.348 75.1477 116.976 75.1477C116.976 75.1477 116.82 75.1477 116.55 75.1603C116.263 75.1603 116.098 75.173 116.03 75.173H115.929L115.811 75.1603L115.655 75.135L115.553 75.173L115.528 75.2363L115.672 75.3375L115.815 75.3628L115.916 75.4514L115.942 75.6919V78.9404C115.942 79.1429 115.916 79.2695 115.862 79.3201L115.566 79.3961L115.503 79.4214L115.477 79.4973L115.515 79.5859L115.617 79.6112L115.811 79.5986L116.187 79.5859L116.563 79.5986L116.77 79.6112L116.871 79.5859L116.909 79.51L116.884 79.434L116.765 79.3961L116.715 79.3834L116.677 79.3708L116.626 79.3581L116.482 79.2569C116.457 79.2062 116.444 79.105 116.444 78.9278V77.5693L116.457 77.468ZM120.752 77.6073L120.765 77.6199V77.6579L120.739 77.7085L120.689 77.7338H119.793L119.743 77.7085L119.717 77.6706L119.73 77.6452L119.743 77.6199L120.182 76.1349L120.195 76.0969L120.22 76.0842L120.245 76.0969L120.271 76.1475C120.275 76.1475 120.752 77.6073 120.752 77.6073ZM120.532 75.232L120.389 75.0042L120.288 75.1308L120.275 75.1814L119.215 78.6578C119.139 78.8982 119.084 79.0628 119.059 79.1261L118.97 79.3033L118.725 79.4172L118.556 79.5184L118.581 79.5817L118.674 79.607L118.881 79.5817L119.151 79.5564L119.489 79.5817L119.709 79.607L119.81 79.5817L119.848 79.5184L119.798 79.4172L119.54 79.3665L119.384 79.3033L119.333 79.164L119.346 79.0375L119.384 78.8856L119.616 78.0334L119.654 77.9701L119.717 77.9321H120.815L120.866 77.9574L120.904 78.0207L121.187 78.9109L121.238 79.0754L121.25 79.2273L121.212 79.3412L121.005 79.3919H120.98L120.799 79.4298L120.748 79.5184L120.773 79.5817L120.891 79.607L121.149 79.5817L121.457 79.5564L121.745 79.5691L122.04 79.607H122.142L122.243 79.5817L122.281 79.5184L122.15 79.4298L121.981 79.3919L121.825 79.2273C121.753 79.0797 121.69 78.9278 121.643 78.7717L120.571 75.4219L120.532 75.232ZM126.149 78.9236C126.149 79.1008 126.162 79.2147 126.187 79.2526L126.344 79.3539L126.5 79.3792L126.669 79.5058V80.2694L126.656 80.4086L126.593 80.4592L126.462 80.2694L126.318 79.9783L125.993 79.7251C125.85 79.6576 125.698 79.6281 125.541 79.6366H123.962L123.742 79.6239L123.472 79.6112H123.058L122.838 79.6366L122.72 79.5986L122.682 79.51L122.838 79.4087L122.969 79.3961L123.151 79.2948C123.176 79.2568 123.189 79.1429 123.189 78.9657V75.6919L123.164 75.4514L123.033 75.3628L122.864 75.3375L122.695 75.2363L122.72 75.173L122.8 75.135L123.033 75.1603L123.421 75.1856L123.835 75.1603L124.067 75.135L124.143 75.1603L124.169 75.2236L124 75.3249L123.86 75.3375L123.704 75.4134L123.679 75.6666V78.9151C123.679 79.0923 123.692 79.2062 123.704 79.2442L123.73 79.2948L123.768 79.3455L123.818 79.3834L124.025 79.4087H125.279L125.436 79.3834L125.592 79.2569C125.617 79.2189 125.63 79.105 125.63 78.9278V75.6919L125.605 75.4388L125.474 75.3628L125.305 75.3375L125.136 75.2363L125.161 75.173L125.25 75.135L125.482 75.1603L125.871 75.1856L126.297 75.1603L126.53 75.135L126.606 75.1603L126.631 75.2236L126.475 75.3249L126.335 75.3375L126.179 75.4134L126.141 75.6666L126.149 78.9236ZM128.413 78.6957L130.394 75.6877L130.369 75.4345L130.25 75.3459L130.069 75.3206L129.9 75.2194L129.925 75.1561L129.988 75.1308L130.221 75.1561L130.609 75.1814L131.036 75.1561L131.268 75.1308L131.344 75.1561L131.369 75.2194L131.201 75.3206L131.057 75.3333L130.922 75.4092L130.884 75.6624V78.9362C130.884 79.1134 130.896 79.2273 130.922 79.2653L131.078 79.3665L131.234 79.3919L131.403 79.5058L131.365 79.5817L131.247 79.607L131.027 79.5817L130.639 79.5691L130.263 79.5817L130.031 79.607L129.929 79.5691L129.879 79.4805L130.035 79.3792L130.166 79.3539L130.36 79.2526C130.385 79.202 130.398 79.1008 130.398 78.9236V75.9282L128.417 78.9362C128.417 79.1134 128.43 79.2273 128.455 79.2653L128.612 79.3665L128.768 79.3919L128.937 79.5058L128.899 79.5817L128.781 79.607L128.561 79.5817L128.172 79.5691L127.784 79.5817L127.564 79.607L127.463 79.5691L127.425 79.4805L127.594 79.3792L127.712 79.3539L127.894 79.2526C127.936 79.1472 127.953 79.0333 127.944 78.9236V75.6877L127.919 75.4472L127.788 75.3586L127.619 75.3333L127.45 75.232L127.476 75.1688L127.539 75.1308L127.759 75.1561L128.16 75.1814L128.586 75.1561L128.806 75.1308L128.882 75.1561L128.907 75.2194L128.738 75.3206L128.595 75.3333L128.455 75.4092L128.417 75.6624V78.6957H128.413ZM134.093 77.2107C133.899 77.2107 133.718 77.1854 133.574 77.1348L133.278 76.9829L133.097 76.7297L133.008 76.2868C133.008 76.0969 133.033 75.945 133.071 75.8438L133.278 75.502L133.498 75.3502L133.806 75.3122C134.013 75.3122 134.157 75.3375 134.233 75.3755L134.334 75.6792V77.101L134.322 77.2023L134.245 77.2276H134.089V77.2107H134.093ZM131.961 79.5353L131.973 79.5859L132.037 79.6112L132.117 79.5986L132.218 79.5859L132.514 79.5986L132.683 79.6112L132.839 79.5733L132.957 79.3834L133.591 77.8224L133.747 77.582L133.929 77.4554L134.161 77.4174H134.254L134.33 77.4427L134.343 77.544V78.9404L134.317 79.2442L134.199 79.3455L134.017 79.3961L133.861 79.51L133.899 79.5859L134.005 79.6112L134.212 79.5859L134.588 79.5733L134.963 79.5859L135.158 79.6112L135.259 79.5733L135.297 79.4973L135.246 79.4214L135.115 79.3961L134.896 79.3201L134.845 79.1683L134.833 78.9404V75.6919L134.858 75.4514L134.976 75.3755L135.12 75.3502L135.263 75.2489L135.238 75.173L135.137 75.135L134.917 75.1477L134.541 75.1603L134.271 75.1477L133.946 75.135C133.713 75.135 133.544 75.1477 133.401 75.173L133.038 75.2995L132.674 75.6666C132.582 75.8396 132.539 76.0294 132.544 76.2235C132.544 76.4007 132.569 76.5526 132.607 76.6833L132.776 76.9491L133.071 77.1769L133.485 77.3035C133.329 77.3668 133.177 77.5693 133.033 77.9237L132.556 79.0543L132.362 79.3201L132.18 79.3961L132.062 79.434L131.961 79.5353ZM17.2225 88.9518C17.2732 89.648 17.2732 89.9939 16.872 89.9939C16.5215 89.9939 16.5215 89.7408 16.0189 88.9518C14.8533 86.9985 13.4427 86.1969 11.1157 86.1969C6.49541 86.1969 3.36596 89.8631 3.36596 94.8667C3.36596 100.642 6.97686 103.954 11.065 103.954C11.9434 103.954 12.9275 103.79 13.8228 103.22C15.3643 102.229 15.9725 100.693 16.5257 99.7016C16.6017 99.5497 16.72 99.3851 16.9523 99.3851C17.5604 99.3851 17.3028 100.427 17.2479 101.212L17.1972 102.153C17.1719 102.57 17.1972 103.043 16.0611 103.587C15.3094 103.916 13.3287 104.718 10.706 104.718C5.37624 104.718 0.730628 100.87 0.730628 95.2127C0.730628 90.0572 4.92435 85.4375 11.2382 85.4375C12.8303 85.4375 15.0053 85.7919 16.5173 86.391C16.9185 86.5429 17.0241 86.5935 17.1254 87.7874C17.1212 87.7874 17.2225 88.9518 17.2225 88.9518ZM35.4671 88.8379V88.7367C35.4671 86.5302 34.3268 86.834 33.3724 86.758C33.0218 86.7327 32.8656 86.6821 32.8656 86.3404C32.8656 86.1632 32.9163 85.948 33.4231 85.948C34.5084 85.948 35.5727 86.0999 36.6581 86.0999C37.7435 86.0999 38.8077 85.948 39.8931 85.948C40.0747 85.948 40.4506 85.9733 40.4506 86.3404C40.4506 86.7074 40.1254 86.758 39.9185 86.758C38.7528 86.834 37.8491 86.4669 37.8491 89.1333V101.001C37.8491 103.68 38.7571 103.288 39.9438 103.376C40.2943 103.402 40.4506 103.452 40.4506 103.798C40.4506 103.975 40.3999 104.19 39.8931 104.19C38.8035 104.19 37.7435 104.039 36.6581 104.039C35.5727 104.039 34.5084 104.19 33.4231 104.19C33.2415 104.19 32.8656 104.165 32.8656 103.798C32.8656 103.431 33.1908 103.38 33.3935 103.38C34.5591 103.304 35.4629 103.659 35.4629 101.005V90.3145L25.4495 100.773V101.267C25.4495 103.693 26.5856 103.296 27.5443 103.376C27.8948 103.402 28.051 103.452 28.051 103.794C28.051 103.971 28.0004 104.186 27.4936 104.186C26.4082 104.186 25.3439 104.034 24.2585 104.034C23.1732 104.034 22.1089 104.186 21.0235 104.186C20.8419 104.186 20.466 104.161 20.466 103.794C20.466 103.427 20.7912 103.376 20.9939 103.376C22.1596 103.3 23.0633 103.655 23.0633 101.001V89.129C23.0633 86.4501 22.1596 86.8424 20.9686 86.7538C20.6181 86.7285 20.4618 86.6779 20.4618 86.3319C20.4618 86.1547 20.5125 85.9396 21.0193 85.9396C22.1047 85.9396 23.1689 86.0914 24.2543 86.0914C25.3397 86.0914 26.404 85.9396 27.4893 85.9396C27.6709 85.9396 28.0468 85.9649 28.0468 86.3319C28.0468 86.699 27.7385 86.7496 27.5189 86.7496C26.3533 86.8255 25.4495 86.4585 25.4495 89.1248V99.3176L35.4671 88.8379ZM58.5643 88.9518C58.6149 89.648 58.6149 89.9939 58.2137 89.9939C57.8632 89.9939 57.8632 89.7408 57.3606 88.9518C56.195 86.9985 54.7886 86.1969 52.4574 86.1969C47.8371 86.1969 44.7077 89.8631 44.7077 94.8667C44.7077 100.642 48.3186 103.954 52.4067 103.954C53.2725 103.954 54.2565 103.79 55.1645 103.22C56.706 102.229 57.3142 100.693 57.8674 99.7016C57.9477 99.5497 58.049 99.3851 58.294 99.3851C58.9021 99.3851 58.6445 100.427 58.5896 101.212L58.5389 102.153C58.5136 102.57 58.5389 103.043 57.3986 103.587C56.6638 103.916 54.6704 104.718 52.0435 104.718C46.7137 104.718 42.0681 100.87 42.0681 95.2127C42.0681 90.0572 46.2618 85.4375 52.5756 85.4375C54.1678 85.4375 56.3428 85.7919 57.8548 86.391C58.256 86.5429 58.3615 86.5935 58.4629 87.7874C58.4629 87.7874 58.5643 88.9518 58.5643 88.9518ZM75.5672 85.9564C76.2007 85.9564 76.3316 85.8552 76.4752 85.4375C76.6019 85.0705 76.6568 84.8173 76.9778 84.8173C77.4846 84.8173 77.4043 85.4375 77.4043 85.7328L77.303 88.1587C77.2523 89.4539 77.2523 90.0108 76.8257 90.0108C76.3992 90.0108 76.3738 89.5172 76.2429 89.0193C75.9557 88.1545 75.4278 86.8593 74.0679 86.8593H70.9089C70.6133 86.8593 70.2247 86.8087 70.2247 87.3782V101.014C70.2247 103.094 70.702 103.321 72.0239 103.359C72.5307 103.385 73.0079 103.309 73.0079 103.802C73.0079 103.98 72.9572 104.195 72.4504 104.195C71.3101 104.195 70.1994 104.043 69.0591 104.043C67.9188 104.043 66.7532 104.195 65.6171 104.195C65.1104 104.195 65.0597 103.98 65.0597 103.802C65.0597 103.456 65.2159 103.41 65.5665 103.38C66.901 103.279 67.8428 103.697 67.8428 101.005V87.3487C67.8428 86.8044 67.4923 86.8297 66.276 86.8297C64.3079 86.8297 63.0663 86.8044 61.529 89.1122C61.2038 89.6058 61.1278 90.0277 60.7393 90.0277C60.5577 90.0277 60.3634 89.8758 60.3634 89.6606C60.3634 89.5087 60.3887 89.3189 60.545 88.8L61.605 85.311C61.7613 84.792 62.0316 84.7667 62.1625 84.7667C62.2934 84.7667 62.5384 84.7667 62.5891 85.1084V85.4122C62.6397 85.9311 63.2732 85.9311 63.5224 85.9311H75.5672C75.5672 85.9311 75.5672 85.9564 75.5672 85.9564ZM81.6107 89.1333C81.6107 86.4543 80.7027 86.8466 79.516 86.758C79.1654 86.7327 79.0092 86.6821 79.0092 86.3361C79.0092 86.1589 79.0599 85.9564 79.5666 85.9564C80.5 85.9564 81.3911 86.0324 82.3245 86.0324H87.9668C88.8705 86.0324 90.8133 86.0071 91.4974 85.9818C92.7137 85.9058 92.8066 85.9058 92.8066 86.1843C92.8066 86.3868 92.7813 86.6061 92.7813 86.9985L92.756 88.2178C92.7306 89.4623 92.7813 89.513 92.756 89.7534C92.756 89.8547 92.7053 90.1458 92.4688 90.1458C92.1436 90.1458 92.0169 89.8294 91.9113 89.5509C91.0835 87.3951 90.4754 86.8466 86.4379 86.8466C84.0856 86.8466 84.0053 86.9985 84.0053 87.8887V92.9049C84.0053 93.3226 83.98 93.715 84.8711 93.715H87.4726C89.4365 93.715 89.749 92.6223 89.9179 92.0274C90.0235 91.6055 90.1502 91.403 90.4247 91.403C90.6443 91.403 90.8006 91.5549 90.8006 91.9008C90.8006 93.3606 90.3234 92.521 90.7246 97.0268C90.7752 97.4951 90.8259 97.9423 90.3994 97.9423C89.9475 97.9423 89.9221 97.474 89.7405 96.7737C89.39 95.3139 88.9761 94.6178 86.4548 94.6178H84.605C83.9715 94.6178 84.0222 95.0355 84.0222 95.3435V100.52C84.0222 101.803 84.0729 103.275 86.5435 103.275H88.4482C91.3707 103.275 92.1098 101.929 92.7433 100.254C92.8742 99.9378 92.9882 99.6214 93.2754 99.6214C93.3768 99.6214 93.5837 99.6467 93.5837 100.014C93.5837 100.853 93.3008 100.95 93.0769 103.402C92.9756 104.393 92.794 104.203 92.3674 104.203L89.0817 104.178C86.2099 104.152 84.4108 104.026 83.1438 104.026C81.9781 104.026 80.8421 104.178 79.6765 104.178C79.4949 104.178 79.043 104.178 79.043 103.785C79.043 103.418 79.3555 103.368 79.5751 103.368C80.7407 103.292 81.6445 103.659 81.6445 100.993V89.1375C81.6361 89.1333 81.6107 89.1333 81.6107 89.1333ZM107.423 99.3851C107.504 99.5877 107.554 99.6931 107.605 99.6931C107.656 99.6931 107.706 99.5919 107.799 99.3894L113.48 86.3024C113.56 86.1252 113.53 85.9607 114.219 85.9607C114.928 85.9607 115.486 86.0113 116.081 86.0113C116.689 86.0113 117.323 85.9607 117.969 85.9607C118.476 85.9607 118.526 86.1758 118.526 86.353C118.526 86.7454 118.345 86.7454 117.568 86.796C116.288 86.8466 115.976 87.0744 116.026 88.7536L116.478 101.499C116.529 103.009 116.93 103.326 117.99 103.351C118.793 103.402 118.923 103.427 118.923 103.794C118.923 103.971 118.873 104.186 118.366 104.186C117.281 104.186 116.166 104.034 115.08 104.034C113.995 104.034 112.931 104.186 111.845 104.186C111.368 104.186 111.262 103.946 111.262 103.794C111.262 103.427 111.558 103.402 111.79 103.376C112.931 103.3 114.185 103.655 114.105 101.001L113.754 88.8253C113.754 88.6101 113.703 88.4835 113.653 88.4835C113.602 88.4835 113.497 88.5595 113.408 88.7747L107.728 101.912C107.276 102.954 107.402 102.739 107.17 103.271C107.119 103.397 107.039 103.562 106.845 103.562C106.651 103.562 106.575 103.41 106.52 103.271C106.389 102.967 106.262 102.621 105.962 101.912L100.582 88.8506C100.501 88.6481 100.349 88.6987 100.349 88.9265L99.7413 100.516C99.585 103.612 100.556 103.309 101.992 103.359C102.263 103.359 102.393 103.41 102.444 103.461L102.546 103.777C102.546 103.954 102.495 104.169 101.988 104.169C101.055 104.169 100.1 104.017 99.1796 104.017C98.3011 104.017 97.4354 104.169 96.5527 104.169C96.3331 104.169 95.9699 104.144 95.9699 103.777C95.9699 103.435 96.2655 103.359 96.4978 103.359C97.5832 103.309 98.4109 103.638 98.5925 100.883L99.471 88.6354C99.5217 87.7748 99.6019 86.834 98.3856 86.758C98.0351 86.7327 97.7268 86.758 97.3762 86.758C96.899 86.758 96.8694 86.4416 96.8694 86.3404C96.8694 86.1885 96.9201 85.948 97.4269 85.948C98.1744 85.948 98.0351 85.9986 99.7413 85.9986C100.142 85.9986 100.556 85.9986 100.958 85.9733C101.203 85.9733 101.409 85.948 101.646 85.948C101.929 85.948 101.929 85.948 102.123 86.4163L107.423 99.3851ZM130.432 95.9468C130.664 96.5416 130.352 96.5669 130.107 96.5669H125.643L125.436 96.4404C125.436 96.3644 125.436 96.2632 125.512 96.0227L127.712 90.0825C127.763 89.9053 127.788 89.7787 127.919 89.7787C128.05 89.7787 128.05 89.9053 128.126 90.0825L130.432 95.9468ZM129.786 87.4162C129.608 86.9479 129.439 86.4796 129.279 86.0071C129.203 85.7539 129.148 85.4375 128.772 85.4375C128.447 85.4375 128.396 85.7033 128.32 85.9311C128.088 86.6526 127.839 87.3698 127.568 88.0785L122.446 101.533C121.736 103.372 121.204 103.296 120.482 103.321C119.603 103.347 119.574 103.524 119.574 103.79C119.574 103.866 119.599 104.131 120.026 104.182H120.351C121.166 104.131 121.994 104.03 122.822 104.03C123.73 104.03 124.659 104.182 125.554 104.182C126.061 104.182 126.111 103.967 126.111 103.79C126.111 103.473 125.981 103.397 125.427 103.347C124.16 103.296 123.459 103.056 123.459 102.305C123.459 102.064 123.535 101.735 123.615 101.503L124.806 98.014C124.937 97.647 124.857 97.4698 125.672 97.4698H130.419C130.677 97.4698 130.947 97.3938 131.209 98.0899L132.527 101.566C132.746 102.111 132.746 102.368 132.746 102.532C132.746 103.258 131.906 103.279 131.429 103.258H130.846C130.664 103.258 130.288 103.309 130.288 103.701C130.288 104.119 130.664 104.182 131.167 104.182C132.277 104.182 133.392 104.03 134.503 104.03C135.462 104.03 136.416 104.182 137.362 104.182C137.738 104.182 137.996 104.157 137.996 103.815C137.996 103.372 137.671 103.397 137.257 103.347C136.353 103.271 135.846 103.056 135.289 101.608L129.786 87.4162Z" fill="#3B3B3B"/>
<path d="M43 0V68.3586H94.8281V66.401C94.8366 44.2688 94.845 22.1323 94.8577 0H43V0ZM54.1115 36.7676C55.6276 38.2104 57.1691 39.628 58.7148 41.0371C59.209 41.4927 59.7707 41.8724 60.2859 42.307C62.2835 44.0072 62.5411 44.6316 62.7819 48.4834C65.6579 46.4963 68.4791 44.6949 71.1355 42.6782C73.4076 40.9527 72.3138 39.0331 70.8061 37.5776C68.5593 35.4091 66.2661 33.2828 64.1164 31.0215C61.6585 28.4395 63.0902 25.7816 65.5059 24.2712C72.8164 19.6938 80.1649 15.1669 87.5007 10.6274C89.0211 9.68656 90.5584 8.77528 92.2562 7.75431V65.8779H45.3228V64.8865C45.5382 64.3971 45.9943 64.0132 46.6278 63.6335C54.4831 58.9547 62.292 54.1916 70.1135 49.4538C74.2227 46.9646 78.3404 44.4839 82.4286 41.9568C83.155 41.5096 83.8096 40.9063 84.4135 40.2861C87.0826 37.5354 86.0268 34.8227 83.4337 32.3589C81.9176 30.916 80.3803 29.4984 78.8346 28.0851C78.3404 27.6337 77.7787 27.2498 77.2635 26.8152C75.2659 25.115 75.0083 24.4948 74.7675 20.643C71.8873 22.6259 69.0703 24.4273 66.4139 26.444C64.1375 28.1695 65.2314 30.0933 66.7433 31.5446C68.9901 33.7131 71.2833 35.8437 73.433 38.105C75.8909 40.6869 74.4592 43.3406 72.0435 44.851C64.7288 49.4327 57.3845 53.9595 50.0487 58.4991C48.5367 59.4357 47.0079 60.3343 45.3228 61.351V2.57774H92.197C92.6869 4.0206 92.1295 4.76734 90.9216 5.48877C83.0663 10.1675 75.2574 14.9306 67.4359 19.6727C63.3267 22.1618 59.209 24.6383 55.1208 27.1654C54.3944 27.6168 53.7356 28.2201 53.1359 28.8361C50.4668 31.5868 51.5226 34.2995 54.1115 36.7676Z" fill="#3B3B3B"/>
</svg>
