<svg width="100" height="90" viewBox="0 0 100 90" fill="none" xmlns="http://www.w3.org/2000/svg">
<path d="M99.0422 55.2084C99.055 54.5944 98.8056 54.3897 98.2043 54.3961C96.4518 54.4281 94.6993 54.4025 92.9468 54.4281C90.5675 54.4601 88.5592 55.3555 87.0305 57.1784C86.5892 57.7029 86.1415 57.8628 85.4955 57.8564C77.2638 57.8372 69.0257 57.8372 60.7877 57.85C57.5065 57.85 55.4278 59.9223 55.415 63.1907C55.4022 65.8834 55.3639 68.5761 55.4214 71.2688C55.4854 74.2622 56.8669 75.7332 59.5341 76.1362C59.7707 76.1746 60.0138 76.2001 60.2696 76.2193C60.5127 76.2385 60.7621 76.2321 61.0051 76.2257C61.1011 76.2257 61.197 76.2193 61.293 76.2193V76.2449C64.491 76.4752 66.1092 76.763 67.2796 77.1851C67.2796 77.1851 58.4659 79.4813 57.2891 81.6559C57.2891 81.6559 54.9929 84.2591 56.1698 86.5553C57.3466 88.8514 57.9606 89.0369 57.9606 89.0369C57.9606 89.0369 60.308 90.847 62.6041 89.5038C64.9003 88.1607 65.2521 85.8645 65.2521 85.8645C65.2521 85.8645 72.4732 84.0353 79.7327 85.9349C79.7327 85.9349 81.5107 90.7127 86.4357 89.8236C86.4357 89.8236 88.4824 89.5358 89.8511 87.5275C89.8511 87.5275 91.2391 85.5383 90.4524 82.7497C90.4524 82.7497 89.8703 81.2402 88.201 79.6476C88.201 79.6476 88.8086 76.4496 89.768 72.6312C89.768 72.6312 89.7744 72.612 89.7808 72.58C90.1006 71.3008 90.4588 69.9512 90.8489 68.6401C90.8681 68.6529 90.8809 68.6656 90.9001 68.6784C91.3414 67.2521 91.8019 65.9281 92.0642 65.6531C92.3136 65.0327 92.5631 64.4059 92.7997 63.7791C93.0108 63.229 93.3498 63.0308 93.9318 63.0499C94.4755 63.0627 95.0255 62.986 95.5628 62.8836C97.7438 62.4743 99.0742 60.8625 99.0678 58.6495C99.0614 57.511 99.023 56.3597 99.0422 55.2084ZM95.4796 59.9863C94.8528 60.1334 94.194 60.2805 93.5544 60.2485C91.9874 60.1781 91.0408 60.8625 90.4076 62.2888C89.0453 65.3653 88.201 68.5953 87.4462 71.8573C87.0561 73.533 86.7107 75.2152 86.3269 76.9549C86.1287 76.8781 85.9752 76.8525 85.86 76.7758C81.159 73.6737 75.9334 71.8892 70.4648 70.7955C67.9832 70.303 65.4504 70.0728 62.9367 69.7849C62.3163 69.7146 62.0861 69.5419 62.0989 68.8959C62.1372 67.0922 62.0797 65.2885 62.1244 63.4849C62.1436 62.7365 61.7279 62.7877 61.229 62.7813C60.7301 62.7749 60.3911 62.7941 60.3975 63.4657C60.4295 65.8706 60.4231 68.2755 60.3975 70.6804C60.3911 71.256 60.6278 71.3584 61.1395 71.3776C66.7679 71.5502 72.179 72.7015 77.3342 74.9913C80.8328 76.5455 83.986 78.6114 86.6148 81.4193C87.0561 81.8926 87.4654 82.4171 87.8044 82.9671C88.4568 84.0225 88.3609 85.2569 87.6189 86.1907C86.8386 87.1693 85.521 87.5723 84.2994 87.2077C83.1545 86.8623 82.2207 85.7942 82.2527 84.6173C82.2783 83.8178 81.9329 83.6323 81.2613 83.4724C75.1915 82.0525 69.1409 82.0717 63.0966 83.6451C62.8792 83.7027 62.6617 83.7858 62.3931 83.8754C63.3333 85.711 62.521 87.31 60.7685 87.278C59.1183 87.2524 58.1141 85.4488 59.0224 83.9649C59.3933 83.3573 60.0138 82.8008 60.647 82.4554C64.5102 80.3256 68.7059 79.4749 73.0808 79.3854C74.9037 79.347 76.7329 79.379 78.5686 79.379C78.479 79.3022 78.3383 79.1551 78.1656 79.0464C72.8378 75.6885 67.0686 73.7313 60.7301 73.6034C58.8241 73.565 58.1973 72.9382 58.1973 71.0322C58.1973 68.4674 58.1909 65.909 58.1973 63.3442C58.1973 61.4254 58.9968 60.6067 60.9028 60.6003C69.6078 60.5875 78.3127 60.5811 87.0177 60.6003C87.7085 60.6003 88.1498 60.4468 88.5272 59.8072C89.4802 58.2018 90.8873 57.2488 92.8189 57.2296C93.7591 57.2168 94.6993 57.2232 95.6395 57.1912C96.1256 57.1784 96.2983 57.3895 96.2727 57.85C96.2536 58.189 96.2727 58.528 96.2727 58.867C96.2983 59.449 96.0169 59.8583 95.4796 59.9863Z" fill="#3B3B3B"/>
<path d="M98.1659 36.2956C97.6095 35.1252 96.6693 34.1338 95.8698 32.9953C96.6949 32.1382 97.0786 30.955 97.1554 29.6758C97.4368 25.2689 97.7054 20.862 97.9741 16.4552C98.1659 13.3275 98.3578 10.1999 98.5369 7.06586C98.5817 6.28554 98.5625 5.49244 98.6201 4.71212C98.8567 1.50133 96.8548 0.0366414 94.1557 0.0110573C91.4629 -0.0209227 88.7702 0.0174533 86.0839 0.113393C83.1865 0.21573 81.8305 1.67402 81.9073 4.53943C81.9777 7.12342 82.1376 9.70741 82.2783 12.2914C82.5661 17.6896 82.8923 23.0879 83.1353 28.4925C83.2185 30.277 83.3336 31.9911 84.8431 33.2767C84.357 33.7308 83.9284 34.1274 83.4423 34.5879C83.3144 34.1658 83.1865 33.7756 83.0714 33.379C81.7474 28.7867 80.4298 24.188 79.1122 19.5956C77.5964 14.3253 76.0486 9.06141 74.5583 3.77831C73.8931 1.43737 72.2685 0.119789 69.8316 0.119789C66.301 0.119789 62.7704 0.126186 59.2398 0.126186C58.063 0.126186 57.0652 0.548322 56.1762 1.32864C55.0824 2.29443 54.8074 3.6312 54.43 4.93598C51.9356 13.5962 49.4348 22.2564 46.9339 30.9166C46.435 32.6435 45.9425 34.364 45.4628 36.0206C44.5482 35.5537 43.7679 35.074 42.93 34.7606C42.4311 34.5751 42.2265 34.3832 42.2265 33.8396C42.2201 31.0957 42.1625 28.3518 42.1561 25.6079C42.1369 18.6043 42.1433 11.5942 42.1305 4.5906C42.1241 1.92346 40.3652 0.138978 37.7237 0.132582C30.5601 0.126185 23.3966 0.126185 16.2331 0.132582C14.0201 0.132582 12.2548 1.62285 11.9158 3.7975C11.5256 6.29834 11.225 8.81836 10.8348 11.3192C9.97138 16.9221 9.06954 22.5186 7.54729 27.9936C7.03561 29.8165 6.37682 31.5754 5.21914 33.0976C4.68827 33.7948 4.13182 34.5047 3.10206 34.5239C1.26641 34.5687 0.268632 35.5089 0.0511681 37.3382C0 37.7603 0 38.1824 0 38.5982C0.00639601 42.18 0.019188 45.7617 0.03198 49.3435C0.0447721 52.1769 1.90601 54.1021 4.73305 54.1405C8.15491 54.1789 11.5832 54.1405 15.0114 54.1661C15.6638 54.1725 15.8941 53.9294 15.8813 53.2962C15.8557 51.9914 15.8941 50.6802 15.8749 49.3755C15.8749 48.8446 16.0732 48.6207 16.6168 48.6207C21.2987 48.6335 25.9742 48.6335 30.6561 48.6207C31.2637 48.6207 31.4044 48.883 31.4044 49.433C31.3916 50.7378 31.4364 52.049 31.4236 53.3538C31.4172 53.9614 31.6475 54.1725 32.2551 54.1725C34.903 54.1533 37.551 54.1725 40.1989 54.1661C40.7682 54.1661 41.3374 54.1597 41.9067 54.1533C44.7209 54.1213 46.4926 52.3304 46.5182 49.5162C46.5246 48.8126 46.7612 48.6271 47.4328 48.6399C49.6522 48.6783 51.878 48.6719 54.0974 48.6527C56.3041 48.6335 58.0054 47.3159 58.613 45.2117C59.048 43.7086 59.5085 42.2055 59.9242 40.6961C60.0585 40.2036 60.308 40.0309 60.8133 40.0309C63.3781 40.0501 65.9365 40.0501 68.5013 40.0309C69.0449 40.0245 69.2816 40.2292 69.4223 40.7536C69.806 42.1927 70.2346 43.6191 70.6695 45.0454C71.4434 47.559 72.9337 48.6591 75.588 48.6655C78.9076 48.6719 82.2271 48.6655 85.5466 48.6655C86.0711 48.6655 86.6723 48.8126 87.0945 48.6015C87.6445 48.3201 88.0667 48.4864 88.5655 48.576C91.9618 49.1836 94.872 48.2562 97.0466 45.5698C98.3195 43.9964 99.0166 42.3143 99.0998 40.5554C99.1637 39.161 98.8567 37.7411 98.1659 36.2956ZM43.7679 49.4138C43.7615 50.7314 43.1795 51.339 41.8555 51.3518C41.2734 51.3582 40.6914 51.3582 40.1094 51.3582C38.3952 51.3582 36.6747 51.3518 34.9606 51.371C34.3849 51.3774 34.1675 51.1983 34.1803 50.6099C34.2059 49.2539 34.1675 47.8916 34.1803 46.5356C34.1867 46.0048 34.0204 45.8065 33.4639 45.8065C26.9016 45.8193 20.3457 45.8257 13.7834 45.8065C13.2333 45.8065 13.0607 45.9856 13.067 46.5292C13.0926 47.9172 13.0607 49.2987 13.0798 50.6866C13.0862 51.1983 12.8944 51.371 12.3891 51.3646C9.85625 51.3454 7.31703 51.3774 4.78421 51.3518C3.5242 51.339 2.85262 50.6483 2.83983 49.3883C2.80785 45.7553 2.78226 42.1224 2.76947 38.4895C2.76308 37.2039 2.92298 37.4213 3.844 37.2678C4.66909 37.1271 5.51336 36.6538 6.17215 36.1165C7.8479 34.735 8.83289 32.8418 9.55564 30.827C10.9436 26.9191 11.7303 22.864 12.4147 18.7897C13.2078 14.0759 13.8857 9.33644 14.6021 4.60979C14.794 3.33698 15.2737 2.89566 16.5785 2.88926C23.5309 2.88287 30.4834 2.88287 37.4358 2.88926C38.8877 2.88926 39.3994 3.42653 39.3994 4.90401C39.4058 10.1551 39.3994 15.4127 39.3994 20.6638H39.4442C39.4442 25.8637 39.4442 31.0701 39.4442 36.27C39.4442 37.351 39.4442 37.351 40.5571 37.3638C40.8961 37.3702 41.2351 37.3702 41.5741 37.3765C42.9492 37.4213 43.6656 38.0609 43.7231 39.4425C43.7871 40.9519 43.7551 42.4742 43.7615 43.99C43.7615 45.1221 43.7679 46.2606 43.7679 47.3927C43.7679 48.0707 43.7679 48.7423 43.7679 49.4138ZM84.7151 5.10228C84.7087 4.92319 84.6896 4.73771 84.6896 4.55222C84.664 3.20267 84.8814 2.89566 86.231 2.87007C88.8917 2.81251 91.5589 2.79332 94.226 2.8317C95.6203 2.85089 95.9465 3.24744 95.8698 4.61618C95.3837 12.9118 94.8912 21.201 94.3859 29.4903C94.2964 30.9933 94.1237 31.1276 92.6398 31.1404C91.1239 31.1532 89.6081 31.1724 88.0922 31.1852C86.263 31.198 86.0327 30.9997 85.9368 29.1385C85.7257 25.0195 85.5338 20.894 85.3419 16.7686C85.1309 12.8734 84.9262 8.99106 84.7151 5.10228ZM82.8027 45.8321C80.3467 45.8321 77.8906 45.8321 75.4345 45.8321C74.1617 45.8321 73.6564 45.4419 73.2983 44.2011C72.7994 42.455 72.2877 40.7089 71.7952 38.9564C71.6993 38.6238 71.6097 38.2848 71.5138 37.9458C71.3667 37.4085 71.13 37.1975 70.5416 37.2039C66.6208 37.2294 62.7001 37.2294 58.7793 37.2039C58.2037 37.1975 57.9542 37.3765 57.8007 37.9266C57.5577 38.8156 57.3082 39.6983 57.0524 40.5809C56.6942 41.8282 56.3233 43.0818 55.9587 44.329C55.6325 45.4355 55.1016 45.8257 53.9695 45.8257C51.4559 45.8321 48.9423 45.8257 46.4286 45.8257H46.3647C46.1344 45.8257 45.9106 45.7937 45.5844 45.7745C45.7443 45.1797 45.8722 44.6552 46.0193 44.1307C49.4859 32.1062 52.959 20.0817 56.4256 8.06363C56.771 6.86118 57.1036 5.65234 57.4554 4.44989C57.7815 3.33698 58.2868 2.90845 59.4253 2.90205C62.9559 2.88287 66.4801 2.88926 70.0107 2.91485C71.0788 2.92124 71.5522 3.39455 71.9167 4.64816C72.9593 8.26191 73.9954 11.8757 75.038 15.4958C77.3086 23.3693 79.5791 31.2428 81.8433 39.1163C82.3614 40.9071 82.8731 42.698 83.3912 44.4889C83.5063 44.8855 83.6022 45.282 83.7302 45.7809C83.3528 45.8065 83.0842 45.8321 82.8027 45.8321ZM96.2663 40.0949C96.2216 43.3952 93.5608 45.9984 90.2797 45.9536C87.0113 45.9152 84.3889 43.2097 84.4401 39.935C84.4401 39.6983 84.4593 39.468 84.4913 39.2442C84.4977 39.1866 84.5041 39.1291 84.5169 39.0779C84.5233 39.0331 84.5297 38.9883 84.5424 38.9436C84.5552 38.854 84.5744 38.7709 84.6 38.6877C84.6064 38.643 84.6192 38.6046 84.632 38.5598C84.6448 38.515 84.6512 38.4767 84.664 38.4319C84.6768 38.3871 84.6896 38.3487 84.7023 38.304C84.7151 38.2592 84.7279 38.2208 84.7407 38.176C84.7535 38.1377 84.7663 38.0929 84.7855 38.0545C84.8942 37.7411 85.0349 37.4469 85.1948 37.1591C85.214 37.1207 85.2396 37.0759 85.2652 37.0376C85.3803 36.8393 85.5082 36.6538 85.6426 36.4683C85.6618 36.4427 85.6809 36.4235 85.7001 36.398C85.9943 36.0142 86.3397 35.6752 86.7171 35.3746C86.7427 35.3554 86.7683 35.3362 86.7938 35.317C87.2096 34.9972 87.6701 34.735 88.1626 34.5367C88.1946 34.5239 88.2329 34.5111 88.2649 34.4983C88.5527 34.3896 88.8534 34.3001 89.1604 34.2361C89.1923 34.2297 89.2179 34.2233 89.2499 34.2169C89.3267 34.2041 89.397 34.1913 89.4738 34.1785C89.5185 34.1721 89.5697 34.1657 89.6145 34.1594C89.6401 34.1594 89.6593 34.153 89.6848 34.153C89.7296 34.1466 89.7744 34.1466 89.8192 34.1402C90.011 34.121 90.2093 34.1146 90.4076 34.1146C90.5547 34.1146 90.7018 34.121 90.8489 34.1338C90.9449 34.1402 91.0408 34.153 91.1367 34.1658C91.1879 34.1721 91.2327 34.1785 91.2775 34.1849C91.4182 34.2041 91.5589 34.2361 91.6996 34.2681C91.7444 34.2745 91.7827 34.2873 91.8275 34.3001C92.2432 34.4088 92.6462 34.5559 93.0172 34.7478C93.1003 34.7862 93.1771 34.8309 93.2602 34.8757C93.305 34.9013 93.3434 34.9205 93.3881 34.9461C93.4265 34.9716 93.4649 34.9908 93.5033 35.0164C93.58 35.0676 93.6568 35.1188 93.7335 35.1699C93.7719 35.1955 93.8167 35.2275 93.855 35.2531C93.887 35.2787 93.9254 35.3042 93.9574 35.3298C93.9958 35.3554 94.0277 35.3874 94.0661 35.413C94.1045 35.4386 94.1365 35.4705 94.1748 35.5025C94.2068 35.5345 94.2452 35.5601 94.2772 35.5921C94.3539 35.656 94.4307 35.7264 94.501 35.7967C94.7185 36.0078 94.9168 36.2381 95.1023 36.4811C95.1854 36.5962 95.2686 36.7178 95.3517 36.8393C95.3773 36.8777 95.4029 36.916 95.4285 36.9544C95.5244 37.1143 95.6139 37.2742 95.6907 37.4405C95.7099 37.4725 95.7227 37.5109 95.7419 37.5428C95.8442 37.7603 95.9337 37.9842 96.0041 38.2144C96.0169 38.2592 96.0297 38.304 96.0425 38.3487C96.1192 38.5982 96.1704 38.854 96.2088 39.1099C96.2152 39.1546 96.2216 39.1994 96.228 39.2506C96.2344 39.3081 96.2408 39.3657 96.2471 39.4297C96.2535 39.468 96.2535 39.5128 96.2599 39.5512C96.2663 39.6024 96.2663 39.6471 96.2663 39.6983C96.2663 39.7303 96.2663 39.7559 96.2663 39.7878C96.2663 39.8582 96.2727 39.9286 96.2727 39.9989V40.0949H96.2663Z" fill="#3B3B3B"/>
<path d="M96.2856 57.8566C96.3047 57.3961 96.1321 57.185 95.6524 57.1978C94.7121 57.2298 93.7719 57.2234 92.8317 57.2362C90.9001 57.2618 89.493 58.2084 88.54 59.8138C88.1626 60.4534 87.7213 60.6133 87.0305 60.6069C78.3256 60.5877 69.6206 60.5941 60.9156 60.6069C59.0032 60.6069 58.2101 61.432 58.2101 63.3508C58.2037 65.9156 58.2101 68.474 58.2101 71.0388C58.2101 72.9384 58.8369 73.5716 60.7429 73.61C67.0814 73.7379 72.8506 75.7015 78.1785 79.053C78.3512 79.1617 78.4919 79.3088 78.5814 79.3856C76.7458 79.3856 74.9229 79.3536 73.0936 79.392C68.7188 79.4815 64.523 80.3322 60.6598 82.462C60.0266 82.8074 59.4062 83.3639 59.0352 83.9715C58.1334 85.4554 59.1375 87.2591 60.7813 87.2846C62.5274 87.3102 63.3397 85.7112 62.4059 83.882C62.6809 83.7924 62.892 83.7093 63.1095 83.6517C69.1473 82.0783 75.1979 82.0655 81.2741 83.479C81.9393 83.6325 82.2847 83.818 82.2655 84.6239C82.2335 85.8008 83.1674 86.8753 84.3122 87.2143C85.5339 87.5789 86.8578 87.1759 87.6318 86.1973C88.3737 85.2635 88.4696 84.0291 87.8172 82.9737C87.4783 82.4237 87.0689 81.8992 86.6276 81.4259C83.9988 78.618 80.8456 76.5521 77.347 74.9979C72.1918 72.7081 66.7808 71.5632 61.1523 71.3842C60.6406 71.365 60.4039 71.2626 60.4103 70.687C60.4359 68.2821 60.4423 65.8772 60.4103 63.4723C60.4039 62.8007 60.7429 62.7751 61.2418 62.7879C61.7407 62.7943 62.1565 62.7495 62.1373 63.4915C62.0925 65.2952 62.1501 67.0988 62.1117 68.9025C62.0989 69.5549 62.3291 69.7212 62.9496 69.7916C65.4632 70.0858 67.996 70.3096 70.4777 70.8021C75.9463 71.8894 81.1718 73.6739 85.8729 76.7824C85.988 76.8591 86.1415 76.8847 86.3398 76.9615C86.7235 75.2218 87.0689 73.5396 87.4591 71.8639C88.2138 68.6019 89.0517 65.3719 90.4204 62.2954C91.0536 60.8691 92.0002 60.1847 93.5673 60.2551C94.2069 60.2807 94.8657 60.14 95.4925 59.9929C96.0297 59.8649 96.3111 59.462 96.2984 58.8864C96.2856 58.5346 96.2664 58.1956 96.2856 57.8566ZM66.1923 64.2462C66.2115 65.4934 66.1923 66.7407 66.1923 67.9879C66.0388 68.0582 66.0132 68.0774 65.9877 68.0774C64.0753 68.2309 64.0753 68.2309 64.0817 66.3569C64.0817 65.3655 64.0944 64.3741 64.0753 63.3828C64.0689 62.9478 64.2224 62.7751 64.6637 62.7815C66.5185 62.8071 66.1668 62.6344 66.1923 64.2462ZM70.0363 68.5763C69.4607 68.506 69.0066 68.4996 68.5908 68.378C68.3926 68.3205 68.1303 68.0326 68.1303 67.8472C68.0919 66.3377 68.0919 64.8283 68.1303 63.3188C68.1367 63.1397 68.4117 62.8711 68.61 62.8199C68.9234 62.7368 69.288 62.7559 69.6142 62.8199C69.7805 62.8519 70.0172 63.0885 70.0172 63.2356C70.0491 64.9754 70.0363 66.7151 70.0363 68.5763ZM73.9827 69.2415C73.778 69.2415 73.6949 69.2543 73.6245 69.2415C71.5842 68.8194 71.9999 69.2479 71.9615 67.3035C71.936 66.0563 71.9807 64.8027 71.9487 63.549C71.936 62.9734 72.115 62.7176 72.7035 62.7943C72.9593 62.8263 73.2407 62.7432 73.4774 62.8135C73.6693 62.8775 73.9571 63.0885 73.9571 63.242C73.9955 65.2184 73.9827 67.1884 73.9827 69.2415ZM77.9866 70.2521C77.8203 70.3032 77.7947 70.316 77.7755 70.316C75.9271 69.9131 75.9271 69.9131 75.9271 68.0326C75.9271 66.5488 75.9463 65.0649 75.9143 63.581C75.9015 62.9734 76.0998 62.6984 76.7202 62.7879C76.7458 62.7879 76.7713 62.7879 76.7969 62.7879C77.9866 62.7751 77.9866 62.7751 77.9866 63.9392V70.2521ZM81.9265 64.4125C81.9265 66.5552 81.9265 68.6978 81.9265 70.8469V71.8319C81.2485 71.5632 80.6921 71.365 80.1612 71.1091C80.0397 71.0516 79.9246 70.8277 79.9246 70.6806C79.9118 68.0966 79.9118 65.5126 79.9118 62.9542C80.0589 62.8647 80.0781 62.8455 80.1037 62.8391C81.9329 62.6088 81.9329 62.6088 81.9265 64.4125ZM84.2675 73.1367C84.0756 72.7401 83.8581 72.5099 83.8581 72.2796C83.8389 69.3055 83.8325 66.3377 83.8645 63.3636C83.8645 63.1717 84.1331 62.8327 84.293 62.8199C85.1437 62.7687 86.0072 62.7943 86.8259 62.7943C85.9816 66.2354 85.1565 69.5549 84.2675 73.1367Z" fill="white"/>
<path d="M43.7615 44.003C43.7551 42.4872 43.7871 40.9713 43.7231 39.4555C43.6656 38.0739 42.9492 37.4279 41.5741 37.3895C41.2351 37.3831 40.8961 37.3768 40.5571 37.3768C39.4442 37.364 39.4442 37.364 39.4442 36.283C39.4442 31.0831 39.4442 25.8831 39.4442 20.6768H39.3994C39.3994 15.4256 39.3994 10.1681 39.3994 4.917C39.3994 3.43313 38.8877 2.90226 37.4358 2.90226C30.4834 2.89586 23.5309 2.89586 16.5785 2.90226C15.2737 2.90226 14.794 3.34358 14.6021 4.62278C13.8793 9.34944 13.2078 14.0825 12.4146 18.8027C11.7303 22.8706 10.9436 26.9321 9.55563 30.84C8.83928 32.8548 7.85429 34.7416 6.17214 36.1295C5.51336 36.6732 4.66908 37.1401 3.844 37.2808C2.92297 37.4343 2.76307 37.2169 2.76947 38.5024C2.78226 42.1354 2.80784 45.7683 2.83982 49.4013C2.85262 50.6613 3.5178 51.352 4.78421 51.3648C7.31703 51.3904 9.85625 51.3648 12.3891 51.3776C12.8944 51.3776 13.0862 51.2049 13.0798 50.6996C13.0606 49.3117 13.0926 47.9302 13.067 46.5422C13.0543 46.005 13.2269 45.8195 13.7834 45.8195C20.3457 45.8323 26.9016 45.8323 33.4639 45.8195C34.0204 45.8195 34.1867 46.0178 34.1803 46.5486C34.1611 47.9046 34.2059 49.2669 34.1803 50.6229C34.1675 51.2049 34.3849 51.3904 34.9606 51.384C36.6747 51.3648 38.3952 51.3712 40.1094 51.3712C40.6914 51.3712 41.2734 51.3712 41.8555 51.3648C43.1731 51.352 43.7615 50.7444 43.7679 49.4268C43.7679 48.7617 43.7679 48.0901 43.7679 47.4185C43.7679 46.2736 43.7679 45.1351 43.7615 44.003ZM28.8972 37.3512C25.1875 37.3128 21.4778 37.3448 17.7681 37.3512C17.6146 37.3512 17.4611 37.332 17.2564 37.3192C19.7701 32.5414 20.48 27.3478 21.3691 22.2182C22.0215 18.4638 22.4628 14.6709 23.0256 10.9037C23.0576 10.6734 23.3518 10.3152 23.5309 10.3088C25.5393 10.2705 27.554 10.296 29.5624 10.3024C29.6327 10.3024 29.7031 10.36 29.8566 10.424V11.1659C29.8566 19.5511 29.8502 27.9362 29.8694 36.3214C29.8758 37.0697 29.735 37.3576 28.8972 37.3512Z" fill="white"/>
<path d="M83.3912 44.4889C82.8731 42.698 82.3614 40.9071 81.8433 39.1162C79.5791 31.2427 77.3086 23.3693 75.038 15.4958C73.9954 11.882 72.9593 8.26188 71.9167 4.64814C71.5522 3.39452 71.0788 2.92761 70.0107 2.91482C66.4801 2.88923 62.9559 2.88284 59.4253 2.90203C58.2932 2.90842 57.7815 3.33695 57.4553 4.44986C57.1036 5.65231 56.771 6.86116 56.4256 8.06361C52.959 20.0881 49.4859 32.1126 46.0193 44.1307C45.8658 44.6488 45.7379 45.1733 45.5844 45.7745C45.9105 45.8001 46.1408 45.8256 46.3647 45.8256H46.4286C48.9423 45.8256 51.4559 45.832 53.9695 45.8256C55.1016 45.8256 55.6325 45.4355 55.9587 44.329C56.3296 43.0818 56.6942 41.8345 57.0524 40.5809C57.3082 39.6983 57.5577 38.8156 57.8007 37.9266C57.9542 37.3765 58.2037 37.1974 58.7793 37.2038C62.7001 37.2294 66.6208 37.2294 70.5416 37.2038C71.13 37.1974 71.3667 37.4085 71.5138 37.9458C71.6033 38.2784 71.6993 38.6173 71.7952 38.9563C72.2877 40.7088 72.7994 42.4549 73.2983 44.2011C73.6564 45.4419 74.1553 45.8256 75.4345 45.832C77.8906 45.832 80.3467 45.832 82.8027 45.832C83.0778 45.832 83.3528 45.8065 83.7302 45.7809C83.6022 45.2884 83.5063 44.8854 83.3912 44.4889ZM60.5062 28.6396C61.8814 23.8554 63.2245 19.2055 64.5613 14.5556C64.6317 14.5556 64.6956 14.5492 64.7596 14.5492C66.1028 19.2182 67.4523 23.8873 68.8211 28.6396H60.5062Z" fill="white"/>
<path d="M85.3356 16.7621C85.1309 12.8734 84.9198 8.99097 84.7152 5.1022C84.7024 4.91672 84.6896 4.73763 84.6896 4.55214C84.664 3.20258 84.8751 2.89558 86.231 2.86999C88.8918 2.81243 91.5589 2.79324 94.226 2.82522C95.6204 2.84441 95.9465 3.24096 95.8698 4.60971C95.3837 12.9053 94.8912 21.1946 94.3859 29.4838C94.2964 30.9869 94.1237 31.1212 92.6398 31.134C91.124 31.1468 89.6081 31.1659 88.0922 31.1787C86.263 31.1915 86.0327 30.9932 85.9368 29.132C85.7257 25.0066 85.5338 20.8876 85.3356 16.7621Z" fill="white"/>
<path d="M96.2664 40.0949C96.2216 43.3952 93.5608 45.9984 90.2797 45.96C87.0113 45.9217 84.3954 43.2162 84.4401 39.9414C84.4849 36.7114 87.1648 34.0955 90.4012 34.121C93.6824 34.1402 96.3175 36.8201 96.2664 40.0949Z" fill="white"/>
<path d="M86.8322 62.7942C85.9815 66.2353 85.1564 69.5548 84.2674 73.1366C84.0755 72.74 83.8645 72.5098 83.8581 72.2795C83.8325 69.3054 83.8325 66.3376 83.8644 63.3635C83.8644 63.1716 84.1331 62.8326 84.293 62.8198C85.15 62.7687 86.0071 62.7942 86.8322 62.7942Z" fill="#3B3B3B"/>
<path d="M79.9118 62.9541C80.0589 62.8646 80.0781 62.8454 80.1037 62.839C81.9329 62.6151 81.9329 62.6151 81.9329 64.4188C81.9329 66.5615 81.9329 68.7041 81.9265 70.8532C81.9265 71.1346 81.9265 71.4096 81.9265 71.8382C81.2486 71.5695 80.6921 71.3713 80.1612 71.1154C80.0397 71.0579 79.9246 70.834 79.9246 70.6869C79.9054 68.0965 79.9118 65.5125 79.9118 62.9541Z" fill="#3B3B3B"/>
<path d="M77.9865 70.2521C77.8202 70.2969 77.7946 70.3161 77.7754 70.3097C75.9269 69.9068 75.9269 69.9068 75.9269 68.0263C75.9269 66.5425 75.9461 65.0586 75.9141 63.5747C75.9014 62.9671 76.0996 62.6985 76.72 62.7816C76.7456 62.788 76.7712 62.7816 76.7968 62.7816C77.9865 62.7688 77.9865 62.7688 77.9865 63.9329C77.9865 66.05 77.9865 68.1543 77.9865 70.2521Z" fill="#3B3B3B"/>
<path d="M73.9827 69.2415C73.778 69.2415 73.6949 69.2543 73.6245 69.2415C71.5842 68.8193 71.9999 69.2479 71.9615 67.3035C71.936 66.0499 71.9807 64.8027 71.9488 63.549C71.936 62.9734 72.115 62.7176 72.7035 62.7943C72.9593 62.8263 73.2407 62.7431 73.4774 62.8199C73.6693 62.8775 73.9571 63.0949 73.9571 63.2484C73.9955 65.212 73.9827 67.1884 73.9827 69.2415Z" fill="#3B3B3B"/>
<path d="M66.1987 67.9814C66.0452 68.0517 66.0196 68.0709 65.994 68.0709C64.0816 68.2244 64.0816 68.2244 64.088 66.3568C64.088 65.3654 64.1008 64.374 64.0816 63.3826C64.0752 62.9477 64.2223 62.775 64.6701 62.7814C66.5249 62.8006 66.1731 62.6279 66.1987 64.2397C66.2115 65.4933 66.1987 66.7405 66.1987 67.9814Z" fill="#3B3B3B"/>
<path d="M70.0363 68.5765C69.4606 68.5061 69.0065 68.5061 68.5908 68.3782C68.3925 68.3206 68.1303 68.0328 68.1239 67.8473C68.0855 66.3379 68.0855 64.8284 68.1239 63.3189C68.1303 63.1399 68.4053 62.8712 68.6036 62.82C68.917 62.7369 69.2816 62.7561 69.6077 62.82C69.7676 62.852 70.0107 63.0887 70.0107 63.2358C70.0491 64.9755 70.0363 66.7152 70.0363 68.5765Z" fill="#3B3B3B"/>
<path d="M29.8566 11.1593V10.4173C29.7031 10.3534 29.6327 10.3022 29.5624 10.2958C27.554 10.283 25.5393 10.2638 23.531 10.3022C23.3519 10.3022 23.064 10.6668 23.0257 10.897C22.4628 14.6643 22.0215 18.4571 21.3691 22.2116C20.4801 27.3412 19.7701 32.5347 17.2565 37.3126C17.4611 37.3254 17.6146 37.3445 17.7682 37.3445C21.4778 37.3381 25.1875 37.3062 28.8972 37.3445C29.7351 37.3509 29.8758 37.0631 29.8758 36.3084C29.8502 27.9296 29.8566 19.5444 29.8566 11.1593ZM26.1469 34.5495C24.6183 34.5175 23.0832 34.5367 21.561 34.5367C22.0982 32.3365 22.7378 30.1874 23.128 27.9872C23.9723 23.2605 24.7078 18.5211 25.437 13.7752C25.5457 13.0653 25.8783 13.0397 26.4283 13.0397C27.0743 13.0461 27.0424 13.4618 27.0424 13.8904C27.0424 20.4719 27.036 27.0534 27.0552 33.6349C27.0552 34.332 26.8185 34.5687 26.1469 34.5495Z" fill="#3B3B3B"/>
<path d="M64.7596 14.5491C64.6956 14.5491 64.6253 14.5555 64.5613 14.5555C63.2245 19.2054 61.8814 23.8553 60.5062 28.6395H68.821C67.4523 23.8872 66.1027 19.2182 64.7596 14.5491ZM64.5549 24.5205C64.6189 24.5205 64.6828 24.5205 64.7468 24.5205C64.8555 24.9234 64.9706 25.3327 65.0986 25.8188C64.8107 25.838 64.5933 25.8508 64.2543 25.87C64.3694 25.3583 64.4654 24.9426 64.5549 24.5205Z" fill="#3B3B3B"/>
</svg>
