<svg width="172" height="55" viewBox="0 0 172 55" fill="none" xmlns="http://www.w3.org/2000/svg">
<g clip-path="url(#clip0_118_543)">
<path d="M8.37808 40.6103C8.49943 40.3096 8.24662 40.2144 8.07976 40.0792C7.16965 39.3526 6.68931 38.4408 6.97246 37.2733C7.09886 36.7372 7.34662 36.2262 7.56403 35.7101C7.66516 35.4646 7.83201 35.2491 7.96347 35.0187C8.45392 34.1569 8.47414 33.27 8.07976 32.3732C8.02414 32.2479 7.92302 32.1427 7.87752 32.0776C7.39718 32.3932 6.90167 32.6237 6.53257 32.9844C6.21403 33.3001 5.96122 33.736 5.82976 34.1619C5.62246 34.8333 5.54662 35.5397 5.41516 36.2312C5.39999 36.3163 5.38987 36.4015 5.37471 36.4867C5.32414 36.4967 5.27864 36.5067 5.22808 36.5168C5.02077 35.8704 4.77302 35.2291 4.62134 34.5727C4.35336 33.4053 4.53538 32.303 5.21796 31.2859C5.67302 30.6145 5.54662 30.1836 4.86403 29.7728C4.36853 29.4772 3.94886 29.1164 3.76178 28.5452C3.39268 27.4129 4.11572 26.4709 5.39493 26.4409C5.39493 26.1553 5.39493 25.8647 5.39493 25.569C6.09774 25.8146 6.36066 27.012 5.95617 27.9139C5.67302 27.6884 5.37976 27.453 5.07639 27.2074C5.07639 27.1323 5.07639 26.987 5.07639 26.8417C4.91459 26.8868 4.73257 26.8968 4.60111 26.982C4.06516 27.3327 3.95392 27.7887 4.30785 28.3147C4.51516 28.6204 4.78313 28.901 5.07134 29.1264C5.48594 29.4471 5.75898 29.3168 5.95617 28.8408C6.32527 27.959 6.71965 27.0872 7.11909 26.2154C7.17976 26.0801 7.31628 25.9749 7.4174 25.8546C7.16459 26.3958 6.91178 26.9419 6.65392 27.483C6.68931 27.5081 6.72471 27.5281 6.7601 27.5532C6.9219 27.3578 7.08875 27.1674 7.27583 26.9419C7.30617 27.0371 7.31628 27.0521 7.31122 27.0621C7.22527 27.2275 7.13426 27.3878 7.04325 27.5532C6.44156 28.6554 6.05729 29.8279 5.96628 31.0805C5.941 31.4663 5.81965 31.7719 5.51628 32.0174C5.22302 32.2529 5.05617 32.5535 5.02583 32.9995C5.62752 32.3331 6.11291 31.6867 6.21909 30.825C6.40617 29.3268 6.9219 27.959 7.87246 26.7665C7.98875 26.6262 8.1101 26.491 8.23145 26.3557C8.23145 26.4859 8.17583 26.5561 8.11516 26.6312C7.26066 27.7035 6.63875 28.8809 6.47695 30.2638C6.36572 31.2208 6.07246 32.1076 5.39493 32.8341C5.25841 32.9844 5.2028 33.2099 5.11178 33.4053C5.14212 33.4203 5.1674 33.4354 5.19774 33.4454C5.37471 33.1949 5.54662 32.9444 5.72358 32.6888C5.73875 32.6988 5.75898 32.7089 5.77414 32.7189C5.7337 32.8191 5.6983 32.9243 5.64268 33.0696C5.78426 32.9995 5.87527 32.9544 5.96122 32.9093L5.95111 32.9043C5.86516 33.1498 5.7792 33.3953 5.67808 33.6809C5.941 33.3251 6.11796 32.9494 6.41122 32.7289C6.96235 32.3181 7.2101 31.7769 7.34156 31.1506C7.41235 30.8099 7.44268 30.4642 7.50336 30.1235C7.68032 29.1364 8.06965 28.2346 8.67639 27.3628C8.39325 28.0141 8.09493 28.5903 7.89268 29.2016C7.69549 29.7978 7.59943 30.4241 7.45785 31.0354C7.50841 31.0504 7.55898 31.0655 7.60954 31.0805C7.9483 29.422 8.44886 27.8388 9.74325 26.6312C9.66235 26.7615 9.58145 26.8968 9.5056 27.0271C9.83426 26.8216 10.0972 26.5711 10.3955 26.3707C10.6989 26.1653 11.0326 26.01 11.3511 25.8296C11.3612 25.8496 11.3764 25.8747 11.3865 25.8947C11.159 26.05 10.9365 26.2004 10.6331 26.4058C11.5635 26.1653 12.3826 25.9548 13.2623 25.7244C13.1562 25.6442 13.0652 25.564 12.9691 25.4989C12.5343 25.2083 12.1196 24.8826 11.6646 24.6371C10.2792 23.9006 9.06572 24.111 7.97864 25.2434C7.77639 25.4538 7.58426 25.6642 7.39212 25.8797C8.02414 24.5269 9.59662 23.7653 11.0225 24.2463C11.8921 24.5419 12.6809 25.058 13.5152 25.4488C13.7376 25.549 14.0208 25.6091 14.2635 25.569C14.9663 25.4588 15.659 25.2985 16.3517 25.1432C16.4528 25.1231 16.6095 25.0379 16.6146 24.9778C16.6196 24.8325 16.5893 24.592 16.5034 24.5519C16.1343 24.3966 16.1343 24.101 16.1494 23.7402C15.4213 23.7853 15.0118 23.2943 14.5416 22.8734C13.5253 21.9515 12.2865 21.8714 11.0123 22.0568C10.3904 22.1469 9.78369 22.3373 9.1719 22.4826C9.03538 22.5177 8.89381 22.5478 8.7219 22.5879C8.63594 22.0568 8.94942 21.7211 9.16684 21.3503C9.27808 21.1649 9.33369 20.9495 9.43987 20.7591C9.54605 20.5687 9.66235 20.3733 9.81403 20.2129C9.96572 20.0476 10.1781 19.9374 10.3348 19.777C10.709 19.3862 10.7494 19.0054 10.4916 18.5344C10.1477 17.9031 10.2337 17.4622 10.8708 17.1365C11.4017 16.866 11.9983 16.7207 12.5595 16.5002C12.7618 16.4201 13.0196 16.3148 13.1056 16.1445C13.2219 15.919 13.2522 15.6084 13.2017 15.3629C13.1814 15.2677 12.8174 15.2176 12.6101 15.2075C12.332 15.1975 12.0539 15.2526 11.6494 15.2877C11.7404 14.9971 11.7607 14.7416 11.8921 14.5612C12.1348 14.2305 12.4281 13.9299 12.7264 13.6393C13.1056 13.2785 13.2371 12.7625 12.8983 12.3466C12.5494 11.9157 12.4584 11.4197 12.3472 10.9287C12.2663 10.5629 12.0944 10.2973 11.8163 10.0719C11.5079 9.81635 11.3157 9.53577 11.4775 9.09986C11.523 8.97961 11.4168 8.77419 11.3258 8.64392C10.8101 7.89737 10.2741 7.16084 9.7483 6.4193C9.67246 6.30907 9.56122 6.19383 9.55617 6.07859C9.55111 5.95333 9.64718 5.82306 9.7028 5.69279C9.80898 5.73789 9.95561 5.75292 10.0213 5.83308C10.6079 6.52953 11.1893 7.23099 11.7556 7.94246C11.9629 8.203 12.1955 8.35833 12.5343 8.34329C12.777 8.33327 12.8477 8.44851 12.9539 8.69402C13.1461 9.13995 13.2573 9.66604 13.8135 9.91656C14.0208 10.0067 14.1573 10.3174 14.2635 10.5579C14.4455 10.9687 14.5668 11.4046 14.7438 11.8155C14.85 12.066 15.0876 12.0209 15.2646 11.9107C15.5831 11.7153 15.8966 11.5049 16.1798 11.2593C16.7764 10.7483 17.3983 10.603 18.091 11.0639C18.1517 11.104 18.2427 11.1241 18.3185 11.1241C18.8444 11.1291 19.3702 11.1291 19.9972 11.1291C20.1034 10.6882 20.255 10.1721 20.3461 9.64099C20.4623 8.98964 20.5938 8.35833 21.0893 7.8623C21.1702 7.78213 21.2056 7.66689 21.3067 7.49153C20.1388 7.82221 19.1123 7.67691 18.1416 7.18589C18.1466 7.14581 18.1517 7.11074 18.1517 7.07065C18.4197 7.0456 18.6876 7.02055 19.0719 6.99049C18.5461 6.62974 18.0303 6.43433 17.7623 5.80302C18.0152 5.87818 18.1517 5.90824 18.2831 5.95333C18.9152 6.18381 19.5118 6.1287 20.1034 5.793C20.5938 5.51743 21.1196 5.30699 21.6202 5.06148C21.9185 4.91618 22.1713 4.99635 22.4595 5.12662C22.7629 5.26691 23.1118 5.32202 23.4354 5.41722C23.3747 5.83809 23.314 6.25897 23.2534 6.69487C23.6781 6.41429 23.764 5.70782 23.4404 5.42724C23.5668 5.47234 23.759 5.48236 23.8045 5.56753C24.0522 6.0335 23.8449 6.79007 23.4 7.09069C23.1977 7.22598 23.218 7.35625 23.3292 7.5266C23.7994 8.24309 23.8854 9.00968 23.7691 9.85142C23.6882 10.4527 23.7539 11.074 23.7539 11.7704C23.9309 11.6752 24.0522 11.6051 24.1736 11.5449C24.5528 11.3445 24.9168 11.1191 25.3112 10.9587C25.6955 10.7984 26.1 10.8285 26.4691 11.0539C26.555 11.109 26.6713 11.1491 26.7674 11.1441C27.4449 11.079 28.1174 11.0038 28.8505 10.9236C28.6736 10.6681 28.5118 10.4376 28.2843 10.112C28.8404 10.1871 29.2904 10.2472 29.7961 10.3124C29.7404 10.142 29.7 10.0168 29.6241 9.77126C29.8567 9.8865 30.0286 9.94161 30.1652 10.0418C30.4331 10.2422 30.6657 10.4827 30.9387 10.6781C31.0702 10.7733 31.2472 10.7934 31.4039 10.8535C31.2573 10.9136 31.1157 10.9687 30.9741 11.0289C31.0196 11.4648 31.05 11.4998 31.4949 11.4598C31.8084 11.4297 31.9904 11.5099 32.0056 11.8456C32.0107 11.9007 32.0562 11.9508 32.0916 12.0259C32.3393 11.6001 32.223 11.3044 31.7427 11.1441C32.582 11.1341 32.1674 11.8907 32.4505 12.2364C32.4809 12.1362 32.5011 12.066 32.5062 12.056C32.5972 12.2013 32.7034 12.3717 32.8095 12.542C32.8449 12.517 32.8803 12.4969 32.9157 12.4719C32.8196 12.1813 32.7286 11.8957 32.6174 11.57C32.7792 11.6702 32.8803 11.7353 33.0067 11.8105C33.1079 11.1992 32.6326 10.7683 31.9854 10.8184C31.7882 10.8335 31.591 10.8485 31.3938 10.8635C32.4859 10.4677 32.8399 10.6481 33.5022 11.9207C33.3758 11.9758 33.2494 12.036 33.1938 12.061C33.3202 12.4819 33.4112 12.8476 33.5477 13.1934C33.6388 13.4238 33.7702 13.6493 33.9168 13.8497C34.3264 14.4059 34.7562 14.952 35.1809 15.5032C35.2517 15.5984 35.3326 15.7136 35.4337 15.7537C36.0354 15.9842 36.0607 16.4451 35.9545 16.9662C35.818 17.0664 35.6865 17.1716 35.555 17.2668C35.3427 16.7758 35.3932 16.6505 35.9393 16.5002C35.8685 16.385 35.8331 16.2497 35.7421 16.1896C35.459 15.9942 35.1505 15.8338 34.8674 15.6434C34.7865 15.5883 34.7562 15.4631 34.6904 15.3829C34.559 15.2126 34.4174 15.0522 34.2758 14.8819C34.2758 14.8418 34.291 14.6865 34.2758 14.6814C33.9927 14.6213 33.9067 14.3608 33.7449 14.2004C33.7955 14.1654 33.841 14.1353 33.9017 14.0902C33.7348 13.965 33.6034 13.8648 33.5123 13.7996C33.3505 13.8748 33.1888 14.005 33.118 13.97C32.9865 13.9048 32.9056 13.7395 32.7994 13.6142C32.8197 13.5942 32.8399 13.5792 32.8601 13.5591C32.7286 13.5391 32.5972 13.519 32.4657 13.499C32.8652 13.479 33.0472 13.2184 33.1888 12.9278C32.7034 12.7124 32.218 12.4919 31.8185 12.3165C31.768 12.071 31.7882 11.8205 31.6871 11.7604C31.4949 11.6451 31.2421 11.6351 30.9792 11.57C30.9792 11.8105 30.9792 11.9458 30.9792 12.1462C30.8831 12.0159 30.8275 11.9408 30.7112 11.7904C30.7314 12.056 30.7416 12.2264 30.7517 12.3967C30.7365 12.3967 30.7264 12.3967 30.7112 12.4017C30.6303 12.1512 30.5545 11.9007 30.4736 11.6502C30.4281 11.6652 30.3826 11.6752 30.332 11.6902C30.3421 11.8506 30.3472 12.0109 30.3573 12.1762C30.3421 12.1813 30.327 12.1813 30.3118 12.1863C30.2359 11.9658 30.1601 11.7504 30.0843 11.5299C30.0438 11.5399 30.0084 11.5499 29.968 11.56C29.9882 11.8456 30.0084 12.1261 30.0236 12.4117C30.0034 12.4167 29.9781 12.4167 29.9579 12.4218C29.9073 12.1061 29.8517 11.7904 29.7961 11.4598C29.0477 11.555 28.4764 11.9658 27.9354 12.4268C27.8646 11.8907 27.809 11.8055 27.3034 11.8606C26.8888 11.9057 26.4893 12.066 26.0848 12.1762C26.2011 12.0961 26.3073 11.9558 26.4286 11.9408C26.9292 11.8756 27.4348 11.8456 27.9404 11.8055C28.0921 11.7955 28.2388 11.7854 28.3904 11.7804C28.3854 11.7353 28.3854 11.6902 28.3803 11.6451C27.8191 11.6451 27.2629 11.6451 26.7017 11.6451C26.7017 11.6101 26.6966 11.58 26.6966 11.5449C27.4095 11.4948 28.1174 11.4447 28.8303 11.3946C28.8253 11.3395 28.8152 11.2794 28.8101 11.2243C27.9455 10.9938 27.1011 11.094 26.3022 11.5249C25.4983 11.9608 24.9118 13.033 25.1039 13.7645C25.2253 13.5792 25.2758 13.3637 25.377 13.1733C25.4831 12.9779 25.6449 12.8126 25.7814 12.6322C25.7157 12.7424 25.655 12.8577 25.5893 12.9679C25.6095 12.9779 25.6247 12.9879 25.6449 12.998C25.7511 12.9328 25.8522 12.8677 25.9837 12.7875C25.7359 13.1332 25.5135 13.4439 25.291 13.7545C25.3163 13.7746 25.3466 13.7996 25.3719 13.8197C25.4275 13.7896 25.4831 13.7645 25.5387 13.7345C25.4781 13.8447 25.4174 13.96 25.3416 14.0902C25.2961 14.0251 25.2758 13.99 25.2455 13.965C25.2202 13.9449 25.1798 13.9399 25.1494 13.9299C25.0989 14.0351 25.0786 14.1654 25.0079 14.2155C24.4213 14.6063 24.2848 15.2677 24.032 15.8489C23.9865 15.9541 24.0826 16.1244 24.1129 16.2647C24.0118 16.3599 23.9157 16.4652 23.8045 16.5503C23.3646 16.886 23.1977 17.5925 23.5112 18.1236C23.5567 17.9132 23.6123 17.7679 23.6073 17.6276C23.5972 17.2267 23.9056 16.886 24.1635 16.886C24.7247 16.886 24.841 16.405 25.3163 16.1846C25.0938 16.1495 25.0079 16.1345 24.8966 16.1144C26.0393 15.5282 26.5196 14.471 27.0556 13.4589C26.8281 13.5291 26.641 13.6343 26.4994 13.7846C25.9028 14.4309 25.3264 15.0923 24.7298 15.7336C24.5427 15.934 24.3101 16.0894 24.0977 16.2647C24.1079 16.2547 24.123 16.2497 24.1331 16.2397C24.7045 15.7938 24.7449 14.9069 25.5135 14.6263C25.5489 14.6163 25.5438 14.5261 25.5741 14.481C25.7865 14.1754 26.0039 13.8748 26.2163 13.5742C26.1303 13.7195 26.0494 13.8698 25.9635 14.0151C25.9837 14.0251 25.9989 14.0351 26.0191 14.0451C26.4286 13.7245 26.8382 13.3988 27.2629 13.0681C26.823 13.038 26.5702 13.3888 26.2314 13.5641C26.4843 13.3637 26.7371 13.1683 26.9798 12.9629C27.0505 12.9028 27.0859 12.8126 27.1416 12.7374C27.0505 12.7224 26.9545 12.7023 26.8635 12.6873C27.2225 12.5921 27.5814 12.4969 27.9455 12.4017C27.6118 12.9729 27.1668 13.509 26.9646 14.1203C26.6713 15.0021 26.5298 15.934 26.3781 16.856C26.3275 17.1816 26.3781 17.5574 26.4994 17.8681C26.8028 18.6597 27.2983 19.3411 27.9202 19.9323C28.1932 20.1929 28.4916 20.4384 28.7747 20.6889C28.7393 20.719 28.7039 20.7541 28.6736 20.7841C27.7028 19.9825 26.9039 19.0455 26.3528 17.8981C26.3123 17.9182 26.277 17.9382 26.2365 17.9582C26.4185 18.3741 26.6056 18.79 26.7876 19.2058C26.7725 19.2108 26.7623 19.2159 26.7472 19.2209C26.6005 18.9754 26.4539 18.7248 26.3073 18.4793C26.277 18.4944 26.2466 18.5044 26.2163 18.5194C26.3629 18.8651 26.5045 19.2108 26.6511 19.5516C26.6359 19.5566 26.6208 19.5666 26.6005 19.5716C26.4893 19.4113 26.3781 19.2509 26.2719 19.0906C26.6258 20.3332 27.5005 21.21 28.3196 22.1269C27.4652 21.4104 26.7876 20.5486 26.1505 19.6367C26.3477 20.0526 26.5399 20.4634 26.7371 20.8793L26.7472 20.8743C26.5449 20.6087 26.3477 20.3382 26.1455 20.0726C26.1101 20.228 26.1152 20.3783 26.1758 20.5085C26.2972 20.7741 26.4438 21.0246 26.5803 21.2801L26.5904 21.2751C26.4135 21.0897 26.2365 20.8994 26.0646 20.714C26.0292 20.734 25.9989 20.749 25.9635 20.7691C26.0393 20.9745 26.1152 21.1799 26.191 21.3904C26.1253 21.3403 26.0646 21.2902 25.9989 21.2401C25.9685 21.2551 25.9382 21.2751 25.9079 21.2902C25.9635 21.4505 26.014 21.6058 26.0646 21.7662C25.9989 21.7561 25.9382 21.7461 25.8725 21.7361C25.8977 21.8714 25.8775 22.0417 25.9534 22.1319C26.6814 22.9987 27.4298 23.8505 28.173 24.7022C28.2489 24.7874 28.3652 24.8375 28.4612 24.9027C28.4865 24.8726 28.5168 24.8425 28.5421 24.8175C27.8393 23.9407 27.1365 23.0638 26.4337 22.182C26.5702 22.3073 26.7219 22.4225 26.8432 22.5628C27.4348 23.2542 28.0112 23.9557 28.6028 24.6471C28.6989 24.7574 28.8253 24.8475 28.9416 24.9427C28.9668 24.9127 28.9921 24.8826 29.0174 24.8526C28.9365 24.7523 28.8607 24.6471 28.7798 24.5469C27.9556 23.5298 27.1314 22.5177 26.3022 21.5006C26.4185 21.6058 26.5449 21.706 26.6511 21.8263C27.5005 22.8083 28.3348 23.8004 29.1893 24.7824C29.2854 24.8926 29.4472 24.9678 29.5888 25.0029C29.6393 25.0129 29.7303 24.8526 29.8112 24.7624C30.0337 25.2835 30.5039 25.1933 30.9944 25.2634C30.8528 25.043 30.7517 24.8826 30.6505 24.7223C30.6657 24.7123 30.6758 24.6972 30.691 24.6872C31.0045 24.9427 31.323 25.1933 31.6365 25.4488C31.6618 25.4137 31.6921 25.3837 31.7174 25.3486C31.6871 25.2734 31.6567 25.1983 31.6163 25.0931C31.8185 25.2734 31.9904 25.4288 32.1623 25.5791C32.1977 25.549 32.2281 25.5139 32.2635 25.4839C32.1522 25.3035 32.041 25.1231 31.9298 24.9478C31.95 24.9377 31.9652 24.9277 31.9854 24.9177C32.1775 25.1532 32.3747 25.3937 32.5567 25.6191C32.9157 25.1532 32.5112 24.8676 32.3191 24.5319C32.3646 24.5018 32.405 24.4718 32.4505 24.4467C32.5618 24.592 32.673 24.7373 32.7843 24.8826C32.7994 24.8676 32.8146 24.8526 32.8298 24.8425C32.673 24.607 32.5112 24.3716 32.3545 24.1311C32.3696 24.121 32.3798 24.111 32.3949 24.101C32.5163 24.2263 32.6376 24.3565 32.759 24.4818C32.7792 24.4718 32.7994 24.4567 32.8197 24.4467C32.6831 24.2162 32.5466 23.9858 32.4152 23.7553C32.4303 23.7453 32.4455 23.7352 32.4607 23.7252C32.6022 23.8805 32.7388 24.0359 32.8803 24.1962C32.9107 24.1711 32.9461 24.1511 32.9764 24.126C32.7337 23.7653 32.491 23.4096 32.2483 23.0488C32.2887 23.0087 32.3343 22.9686 32.3747 22.9336C32.5517 23.1741 32.7337 23.4146 32.9107 23.6551C32.9511 23.62 32.9865 23.5899 33.027 23.5549C32.7893 23.2091 32.5466 22.8584 32.309 22.5127C32.3241 22.5027 32.3444 22.4927 32.3595 22.4826C32.5213 22.5979 32.6781 22.7181 32.8399 22.8334C32.8753 22.7983 32.9107 22.7682 32.941 22.7332C32.6477 22.3774 32.3595 22.0167 32.0663 21.6609C32.0865 21.6359 32.1067 21.6108 32.127 21.5858C32.3444 21.711 32.5618 21.8363 32.7741 21.9666C32.7893 21.9465 32.8045 21.9315 32.8197 21.9115C32.6326 21.706 32.4455 21.5006 32.2584 21.2952C32.2736 21.2852 32.2837 21.2751 32.2989 21.2651C32.4202 21.3252 32.5365 21.3854 32.6579 21.4405C32.6831 21.4154 32.7034 21.3904 32.7286 21.3603C32.5567 21.1599 32.3899 20.9595 32.1876 20.719C32.3191 20.7741 32.3949 20.8092 32.4758 20.8442C32.5062 20.8142 32.5365 20.7891 32.5668 20.7591C32.3494 20.5035 32.132 20.243 31.8994 19.9774C32.0309 20.0175 32.1522 20.0576 32.2736 20.0977C32.2837 20.0726 32.2989 20.0476 32.309 20.0275C32.0966 19.8371 31.8893 19.6468 31.6365 19.4213C31.7882 19.4213 31.8691 19.4213 31.9449 19.4213C31.9803 19.3762 32.0157 19.3361 32.0562 19.291C31.8691 19.1507 31.677 19.0104 31.4798 18.8651C31.5253 18.825 31.5708 18.78 31.6314 18.7298C31.4949 18.6096 31.3786 18.5044 31.2472 18.3891C31.3483 18.3541 31.4241 18.329 31.4343 18.324C31.1612 17.6927 30.8983 17.0864 30.6303 16.4601C30.777 16.5102 30.8932 16.5553 31.0095 16.5954C30.8477 16.3148 30.5646 16.1495 30.4281 15.899C30.2865 15.6485 30.2562 15.3278 30.241 15.0322C30.2309 14.7466 30.3017 14.456 30.3371 14.1704C30.3522 14.1704 30.3725 14.1754 30.3876 14.1754C30.4079 14.5913 30.4281 15.0071 30.4483 15.423C30.4837 15.423 30.5191 15.418 30.5545 15.418C30.5848 15.3077 30.6202 15.1975 30.6556 15.0572C30.7062 15.2727 30.7517 15.448 30.7921 15.6284C30.8275 15.6234 30.8629 15.6134 30.8983 15.6084C30.8781 15.3128 30.8579 15.0121 30.8376 14.7165C30.8579 14.7115 30.873 14.7115 30.8932 14.7065C30.964 15.0572 31.0399 15.408 31.1107 15.7587C31.141 15.7487 31.1713 15.7437 31.2017 15.7336C31.1713 15.448 31.141 15.1574 31.1005 14.8067C31.3382 15.2226 31.1966 15.7136 31.6213 16.1044C31.6112 15.8539 31.6011 15.7136 31.591 15.4731C31.7073 15.7537 31.7781 15.9391 31.8539 16.1194C31.8843 16.1094 31.9196 16.0994 31.95 16.0894C31.9247 15.889 31.9045 15.6885 31.8893 15.5733C32.0764 15.8138 32.2938 16.0944 32.5112 16.38C32.673 16.3148 32.8196 16.2597 32.9663 16.1996C32.9511 16.2247 32.9359 16.2547 32.9258 16.2798C33.3404 16.4201 33.755 16.5654 34.0685 16.6706C34.3365 16.5503 34.5994 16.3449 34.7107 16.405C34.9079 16.5153 35.1 16.7708 35.1303 16.9912C35.1809 17.337 35.3326 17.6075 35.6461 17.5925C35.9949 17.5775 35.9393 17.2217 35.9393 16.9562C35.9393 17.1466 35.9899 17.352 35.9292 17.5173C35.8281 17.7929 35.55 17.828 35.3073 17.6476C35.1657 17.5424 35.014 17.4522 34.832 17.4071C34.8522 17.4372 34.8725 17.4672 34.8927 17.4973C34.9685 17.6326 35.0444 17.7729 35.1152 17.9081C34.9281 17.9132 34.7258 17.9633 34.559 17.9081C34.3618 17.838 34.1899 17.6927 34.0281 17.5524C33.4567 17.0514 32.3343 16.6906 31.4595 16.7658C31.5758 17.1416 31.6668 17.5073 31.8034 17.8631C32.2483 19.0355 32.7034 20.2029 33.1685 21.3653C33.2292 21.5206 33.3657 21.6459 33.4668 21.7812C34.0028 22.4927 34.5994 23.1741 35.0545 23.9357C35.3275 24.3866 35.3983 24.9628 35.5196 25.4889C35.6258 25.9348 35.7977 26.03 36.177 25.7594C36.6775 25.4087 37.2135 25.1131 37.5775 24.577C37.709 24.3816 38.073 24.2363 38.3258 24.2463C38.6747 24.2613 38.7607 24.6221 38.8466 24.9227C38.9073 25.1331 38.9579 25.3736 39.0893 25.534C39.7416 26.3256 40.4343 27.0872 41.0814 27.8889C41.2584 28.1093 41.4455 28.43 41.4253 28.6905C41.3646 29.4271 41.491 30.1135 41.6781 30.8149C41.7691 31.1556 41.6983 31.5515 41.6629 31.9122C41.6376 32.1427 41.4758 32.2379 41.2584 32.0926C40.9904 31.9172 40.7022 31.7619 40.4798 31.5364C40.0045 31.0655 40.0348 30.7147 40.5303 30.2538C40.9399 29.868 40.7932 29.1515 40.2977 28.8559C40.1309 28.7557 40.0045 28.4801 39.9893 28.2747C39.964 27.959 39.8629 27.7285 39.6354 27.5131C39.2663 27.1623 38.9225 26.7866 38.5685 26.4208C38.3359 26.1803 38.1337 26.1903 37.8859 26.4409C37.1781 27.1523 36.4449 27.8388 35.732 28.5402C35.6764 28.5953 35.6359 28.6955 35.641 28.7707C35.6461 28.8108 35.7674 28.8759 35.8331 28.8709C36.1264 28.8609 36.4247 28.8509 36.7129 28.7957C37.3146 28.6805 37.7039 28.8709 37.8758 29.4671C38.1337 30.374 38.6191 31.1506 39.2916 31.7869C39.7871 32.2529 39.9792 32.799 39.9792 33.4304C39.9792 34.0416 40.2067 34.5627 40.4545 35.1038C40.6416 35.5197 40.7882 35.9807 40.8185 36.4266C40.8539 36.9226 40.6062 37.0178 40.1916 36.7422C39.8882 36.5418 39.5696 36.3514 39.3168 36.1059C39.1803 35.9756 39.1298 35.7301 39.0994 35.5297C39.0843 35.3994 39.1753 35.2491 39.2309 35.1139C39.4938 34.4575 39.4584 33.8713 38.8618 33.3853C38.5938 33.1698 38.4168 32.9093 38.5685 32.5135C38.6191 32.3782 38.5331 32.1327 38.4219 32.0124C38.0225 31.5615 37.5927 31.1406 37.168 30.7097C36.9354 30.4692 36.6623 30.4241 36.3539 30.5494C35.4438 30.9101 34.5539 31.321 33.6236 31.6216C32.6831 31.9222 31.7073 32.1126 30.7466 32.3481C30.4786 32.4132 30.2056 32.4734 29.8567 32.5485C30.3067 33.1999 30.7112 33.7811 31.1309 34.3873C31.2118 34.3322 31.2826 34.2821 31.3736 34.222C31.414 34.3623 31.4494 34.4876 31.4899 34.6379C31.6466 34.5076 31.768 34.3823 31.9095 34.2972C32.2786 34.0717 32.5567 34.232 32.7084 34.6329C32.9208 35.184 33.2039 35.7151 33.4719 36.2412C33.5578 36.4115 33.6994 36.4767 33.9421 36.4216C34.0989 36.3865 34.3668 36.5118 34.468 36.652C34.655 36.9026 34.7511 37.2232 34.9079 37.4988C35.1404 37.9147 35.3882 38.3255 35.641 38.7314C35.8635 39.0871 36.1011 39.4278 36.3741 39.8487C36.1314 39.9038 35.8938 39.9639 35.5955 40.0341C35.6359 40.2144 35.6764 40.3948 35.727 40.6103C35.5955 40.6403 35.4388 40.6804 35.2719 40.7205C35.2618 40.7405 35.2264 40.7806 35.2314 40.8107C35.3528 41.9631 34.7157 42.8098 34.0483 43.6365C33.9067 43.8119 33.7399 44.0123 33.5376 44.0825C33.0775 44.2378 32.8702 44.5985 32.6831 44.9793C32.5416 45.2699 32.3798 45.4804 32.0208 45.3802C31.955 45.8912 32.2483 46.2019 32.7388 46.1267C32.9663 46.0916 33.1938 45.9814 33.4011 45.8612C33.7298 45.6658 34.0129 45.6106 34.3011 45.9313C34.3618 46.0014 34.5084 46.0265 34.6146 46.0215C34.9736 46.0115 35.5348 46.4774 35.5399 46.8232C35.5399 46.9284 35.4741 47.0336 35.4539 47.0987C35.2365 46.9284 35.0595 46.738 34.8421 46.6378C34.741 46.5877 34.559 46.6979 34.3972 46.743C34.7107 47.229 34.65 47.5547 34.2809 47.9154C34.2152 47.7751 34.1848 47.5647 34.0635 47.4545C33.8814 47.2891 33.4921 47.3994 33.1432 47.6549C33.1685 47.7801 33.2039 47.9054 33.2191 48.0357C33.2292 48.1108 33.209 48.191 33.1989 48.3213C33.1028 48.2461 33.032 48.201 32.9713 48.1459C32.5264 47.705 31.9803 47.5747 31.3736 47.6649C31.0146 47.72 30.6607 47.8002 30.3017 47.8553C29.9427 47.9104 29.5989 47.9555 29.3005 47.6198C29.2095 47.5196 28.9011 47.5847 28.6989 47.6098C28.3449 47.6499 27.991 47.71 27.6371 47.7851C27.4449 47.8252 27.2579 47.9054 27.0253 47.9856C26.9292 47.7902 26.914 47.5246 27.2528 47.3292C27.2882 47.3092 27.3438 47.2941 27.3539 47.2641C27.5309 46.7831 27.9354 46.728 28.441 46.7731C28.3904 46.5726 28.3955 46.3472 28.3095 46.3021C28.0314 46.1618 28.0062 45.9513 27.9657 45.6908C27.9506 45.5956 27.7331 45.4353 27.6371 45.4553C27.2629 45.5405 26.8736 45.6257 26.555 45.8161C26.2871 45.9764 26.1354 46.0165 25.8977 45.786C25.7814 45.6708 25.5539 45.6607 25.377 45.6106C25.2758 45.5806 25.1697 45.5706 25.0685 45.5455C24.6034 45.4403 24.1281 45.3551 23.668 45.2248C23.3545 45.1397 23.0562 45.0044 22.7579 44.8791C22.6264 44.824 22.4949 44.6537 22.3837 44.6687C22.1258 44.7138 21.8225 44.7789 21.6505 44.9493C21.4281 45.1647 21.605 45.4553 21.8123 45.6006C22.1157 45.8111 22.4646 45.9564 22.7932 46.1317C22.8286 46.1518 22.8893 46.1718 22.9045 46.1568C23.3444 45.7309 23.6629 46.1568 24.0168 46.3121C24.2444 46.4123 24.4314 46.5626 24.3859 46.8181C24.1584 46.763 23.9359 46.6578 23.7337 46.6779C23.5416 46.6979 23.3646 46.8582 23.1725 46.9584C23.3798 47.0687 23.6882 47.1438 23.8247 47.3392C23.9612 47.5346 23.9258 47.8503 23.9157 48.1459C23.7489 47.7451 23.6022 47.6749 23.1826 47.8803C22.9196 48.0106 22.4899 47.8202 22.1359 47.7601C21.7668 47.7 21.4028 47.6098 21.0337 47.5597C20.9022 47.5396 20.7607 47.6048 20.6545 47.6248C20.7303 47.9555 20.8011 48.2411 20.8719 48.5417C20.159 48.3263 19.5472 48.1459 18.9303 47.9555C18.7938 47.9154 18.632 47.8854 18.5359 47.7952C18.0657 47.3492 17.5348 47.3042 16.9331 47.4545C16.6247 47.5296 16.2961 47.5046 15.9775 47.5246C15.6944 47.5447 15.4112 47.5747 15.118 47.5998C15.118 47.5948 15.1129 47.4645 15.1635 47.3693C15.2444 47.224 15.3556 47.0135 15.482 46.9885C16.0483 46.8783 16.2657 46.0365 17.0241 46.3071C17.2668 46.3973 17.5803 46.3472 17.8534 46.2971C18.1314 46.247 18.1871 46.0315 18.0152 45.8161C17.9039 45.6758 17.7472 45.5605 17.5955 45.4603C17.1809 45.1848 17.0798 44.8541 17.3376 44.4382C17.4843 44.2027 17.6612 43.9672 17.8736 43.7919C18.1618 43.5514 18.1365 43.3109 18.0152 43.0102C17.914 42.7697 17.8331 42.5192 17.7674 42.2637C17.6865 41.9581 17.4792 41.8478 17.1961 41.8829C16.9887 41.908 16.7916 42.0032 16.5741 42.0733C16.8522 43.2858 16.9685 44.4683 15.6741 45.1497C14.7944 45.6157 13.8236 45.6607 13.0146 44.9843C12.0691 44.1977 11.6545 43.2658 12.1652 41.8278C11.3562 41.5973 10.5472 41.3568 9.73313 41.1514C9.66235 41.1313 9.48538 41.2867 9.44493 41.3919C9.19212 42.0833 9.37414 42.6996 9.82414 43.2557C10.0921 43.5864 10.4005 43.8971 10.6028 44.2628C10.7545 44.5334 10.7595 44.8791 10.8354 45.1898C10.5371 45.2148 10.2286 45.3 9.94549 45.2549C9.63201 45.1998 9.33875 45.0244 9.03538 44.9042C9.08594 44.9192 9.1365 44.9392 9.18707 44.9543C9.41965 45.0094 9.52077 45.0445 9.55111 44.6837C9.57134 44.4282 9.41965 44.358 9.36909 44.1977C9.33875 44.0975 9.23257 44.0223 9.16179 43.9322C9.07077 44.0223 8.90392 44.1125 8.90898 44.1977C8.91909 44.4382 8.99493 44.6787 9.04549 44.9192C8.69156 44.7238 8.77246 44.3881 8.82808 44.1025C8.97976 43.3309 8.79268 42.6144 8.29718 42.0633C7.71572 41.4169 7.74605 41.2065 8.39325 40.6002C8.29212 40.8007 8.16066 40.986 8.10504 41.1965C8.06965 41.3318 8.1101 41.5272 8.191 41.6424C8.25673 41.7426 9.08594 41.3718 9.12134 41.2416C9.12639 41.2165 9.12134 41.1865 9.13145 41.1614C9.22752 40.9159 9.36403 40.6804 9.40448 40.4299C9.44493 40.1844 9.79886 39.9689 9.49044 39.6733C9.42976 39.7184 9.37415 39.7585 9.28313 39.8286C9.54605 39.538 9.81909 39.3076 9.99605 39.022C10.173 38.7414 10.5219 38.4808 10.3197 37.9598C10.1326 38.2103 10.0011 38.3907 9.86965 38.566C9.85448 38.561 9.83931 38.551 9.82414 38.546C10.0668 37.9748 10.3045 37.4036 10.5522 36.8224C10.7747 37.0429 10.8354 36.8174 10.8961 36.6019C10.9719 36.7021 11.0275 36.7773 11.0983 36.8675C11.1944 36.6821 11.25 36.5719 11.3208 36.4316C11.3663 36.5769 11.3966 36.6821 11.4421 36.8324C11.5483 36.6921 11.614 36.6019 11.6848 36.5168C11.7404 36.5869 11.791 36.652 11.877 36.7623C11.9629 36.5218 12.0286 36.3264 12.1146 36.0959C12.1803 36.2512 12.2258 36.3564 12.3017 36.5318C12.418 36.2813 12.4938 36.1109 12.5949 35.8855C12.6202 36.0508 12.6354 36.156 12.6505 36.2612C12.6758 36.2662 12.7011 36.2713 12.7264 36.2713C12.7871 36.1109 12.8477 35.9506 12.9286 35.7402C12.9792 35.8905 13.0095 35.9806 13.055 36.1159C13.1562 35.9756 13.232 35.8754 13.3028 35.7752C13.3736 35.8604 13.4343 35.9356 13.5253 36.0458C13.591 35.8604 13.6365 35.7251 13.682 35.5898C13.7275 35.66 13.7831 35.7402 13.8286 35.8053C13.9652 35.5548 14.0916 35.3243 14.2584 35.0237C14.2786 35.2491 14.2888 35.3794 14.3039 35.5147C14.3292 35.5197 14.3545 35.5247 14.3798 35.5347C14.5213 35.2992 14.6579 35.0637 14.8146 34.7982C14.855 34.8984 14.8803 34.9736 14.9258 35.0838C15.1483 34.7882 15.3455 34.5276 15.5477 34.2671C15.5225 34.2471 15.4972 34.222 15.4719 34.202C14.6376 34.4074 13.8084 34.6078 12.9438 34.8182C13.1612 34.4675 13.3534 34.1519 13.5758 33.7911C13.5455 33.9965 13.5202 34.1519 13.5 34.3072C13.5303 34.3172 13.5607 34.3272 13.5961 34.3322C13.7579 33.9615 13.9146 33.5857 14.0764 33.2149C14.1118 33.2299 14.1472 33.245 14.1826 33.26C14.0258 33.6358 13.8691 34.0166 13.7123 34.3924C13.7427 34.4074 13.773 34.4224 13.8034 34.4425C13.9854 34.1619 14.1674 33.8863 14.3494 33.6057C14.3646 33.6107 14.3747 33.6157 14.3899 33.6208C14.2989 33.8412 14.2079 34.0667 14.1168 34.2871C14.1472 34.3022 14.1725 34.3172 14.2028 34.3322C14.3343 34.1468 14.4657 33.9665 14.5972 33.7811C14.5871 33.8963 14.577 34.0116 14.5668 34.1268C14.6073 34.1368 14.6427 34.1468 14.6831 34.1619C14.8348 33.7711 14.9865 33.3853 15.1786 32.8942C15.1685 33.1247 15.1584 33.245 15.1534 33.3652C15.1837 33.3752 15.214 33.3853 15.2444 33.3953C15.3202 33.2199 15.3961 33.0395 15.4871 32.8341C15.5225 32.9243 15.5376 32.9744 15.573 33.0596C15.6994 32.6588 15.8107 32.293 15.9219 31.9323C15.9421 31.9373 15.9573 31.9423 15.9775 31.9473C15.9775 32.2629 15.9775 32.5786 15.9775 32.8942C15.9977 32.8942 16.023 32.8892 16.0432 32.8892C16.1444 32.2629 16.2505 31.6366 16.3517 31.0153C16.3871 31.0204 16.4225 31.0254 16.4629 31.0304C16.4022 31.5414 16.3466 32.0525 16.2859 32.5686C16.3163 32.5736 16.3517 32.5786 16.382 32.5886C16.5236 31.9072 16.6702 31.2258 16.8118 30.5444C16.8472 30.5494 16.8775 30.5594 16.9129 30.5644C16.7966 31.1957 16.6803 31.827 16.559 32.4634C16.6146 32.4734 16.6702 32.4834 16.7258 32.4934C16.8472 31.8922 16.9635 31.2959 17.105 30.5945C17.105 31.0655 17.105 31.4212 17.105 31.7819C17.2264 31.6467 17.2871 31.4913 17.3073 31.331C17.4236 30.1536 17.5298 28.9711 17.6461 27.7937C17.7017 27.2325 17.5854 27.0922 17.014 27.1674C16.6753 27.2125 16.3416 27.3277 16.0079 27.4129C16.0028 27.3778 15.9927 27.3427 15.9876 27.3077C16.5286 27.1924 17.0696 27.0822 17.7118 26.9419C16.9028 26.6814 16.2708 26.9018 15.6438 27.1824C16.2101 26.7665 16.8725 26.7064 17.5449 26.6613C17.3528 26.6012 17.1657 26.5811 16.9837 26.6062C16.3871 26.6914 15.7449 26.6763 15.214 26.9068C14.0663 27.4129 13.5152 28.45 13.1713 29.5974C12.7921 30.87 12.8022 32.1778 12.8528 33.4855C12.8579 33.5907 12.8629 33.7009 12.8579 33.8061C12.8528 33.9063 12.8376 34.0066 12.8275 34.1068C12.6809 31.6066 12.4736 29.0914 14.4505 27.0571C14.2281 27.1623 14.0309 27.2726 13.8994 27.4429C13.409 28.0692 12.9843 28.7506 12.8477 29.5373C12.691 30.4291 12.6 31.331 12.5292 32.2279C12.4837 32.794 12.5191 33.3652 12.5191 33.9314C12.4432 33.9264 12.3674 33.9264 12.2916 33.9214C12.4129 32.5585 12.4635 31.1807 12.6708 29.8329C12.8932 28.3899 13.5758 27.1624 14.85 26.3306C14.8955 26.3006 14.9208 26.2354 14.9562 26.1903C14.7741 26.1903 14.6326 26.2454 14.5011 26.3156C13.3837 26.9219 12.7416 27.8939 12.3674 29.0613C11.9174 30.4692 11.8972 31.9222 11.9477 33.3803C11.9882 34.5577 11.5786 35.4846 10.4814 36.0608C10.0416 36.2913 9.75841 36.642 9.73313 37.1681C9.72302 37.4337 9.67246 37.6992 9.60167 37.9548C9.35898 38.9117 9.0101 39.8286 8.37808 40.6103ZM21.423 32.1076C21.327 32.1577 21.2359 32.2078 21.1399 32.2579C21.1904 32.3431 21.2157 32.4533 21.2916 32.5084C21.4382 32.6237 21.6 32.7239 21.7668 32.8041C21.8427 32.8391 21.9539 32.8141 22.05 32.8191C22.0146 32.7189 21.9994 32.6036 21.9388 32.5185C21.8528 32.4032 21.7365 32.3181 21.6354 32.2178C21.7618 32.2629 21.8932 32.308 22.0196 32.3531C22.0399 32.3231 22.0652 32.293 22.0854 32.2629C21.9843 32.1377 21.8932 32.0024 21.777 31.8972C21.7011 31.832 21.5747 31.817 21.4685 31.7819C21.4483 31.8922 21.4331 32.0024 21.423 32.1076ZM26.4135 24.4968C26.5348 24.572 26.6562 24.6471 26.7826 24.7223C26.8129 24.6872 26.8382 24.6572 26.8685 24.6221C26.4388 24.121 26.009 23.62 25.559 23.0939C25.3416 23.4697 25.5438 23.6701 25.7461 23.8705C25.377 23.8004 25.4983 24.0459 25.5944 24.1561C25.7562 24.3515 25.9534 24.5169 26.1607 24.6622C26.3174 24.7674 26.4539 24.7373 26.4135 24.4968ZM41.1472 30.6696C41.0865 30.6446 41.0208 30.6295 40.9601 30.5995C40.7882 30.5043 40.6264 30.3389 40.4646 30.6095C40.3281 30.835 40.2674 31.0504 40.5253 31.2358C40.682 31.351 40.8387 31.4663 41.0056 31.5865C41.1168 31.4513 41.2028 31.346 41.2837 31.2408C41.2534 31.2408 41.223 31.2358 41.1927 31.2358C41.1725 31.0454 41.1522 30.85 41.132 30.6596C41.2989 30.7348 41.5213 30.8149 41.4809 30.5293C41.4354 30.2337 41.2685 29.9582 41.1522 29.6726C40.8236 30.2488 40.8286 30.2989 41.1472 30.6696ZM32.8399 26.9669C33.0219 27.2475 33.2039 27.5281 33.4112 27.8538C33.4213 27.3377 32.6579 26.0551 32.2584 25.9498C32.3696 26.1452 32.4556 26.3006 32.5416 26.4559C32.4 26.3006 32.2685 26.1352 32.1168 25.9949C32.0157 25.8997 31.8843 25.8296 31.7629 25.7494C31.7376 25.7845 31.7174 25.8196 31.6921 25.8546C32.218 26.6613 32.7438 27.468 33.2697 28.2747C33.3101 28.2546 33.3505 28.2296 33.3961 28.2095C33.214 27.7937 33.027 27.3828 32.8399 26.9669ZM25.7764 22.5778C25.5135 22.7031 25.4932 22.8734 25.6803 23.0789C26.1354 23.5899 26.5854 24.106 27.0455 24.607C27.1314 24.7022 27.2831 24.7423 27.4045 24.8075C27.4298 24.7724 27.45 24.7373 27.4753 24.7073C27.2579 24.4417 27.0404 24.1762 26.8281 23.9106C26.4741 23.4647 26.1202 23.0137 25.7612 22.5678C26.3629 23.2392 26.9646 23.9156 27.5764 24.582C27.6775 24.6922 27.814 24.7774 27.9303 24.8726C27.9607 24.8425 27.991 24.8075 28.0163 24.7774C27.2882 23.9056 26.555 23.0388 25.827 22.167C25.7916 22.177 25.7562 22.192 25.7208 22.2021C25.7461 22.3223 25.7612 22.4476 25.7764 22.5778ZM24.2798 33.8262C24.5123 33.8262 24.5579 33.721 24.4517 33.5306C24.1685 33.0095 23.8196 32.8441 23.2028 32.9393C22.7932 32.9995 22.768 33.0696 23.0258 33.3903C22.8944 33.3502 22.7579 33.3151 22.5859 33.265C22.9298 33.9013 24.0371 34.3122 24.6185 34.0366C24.5022 33.9564 24.391 33.8913 24.2798 33.8262ZM24.6489 21.9215C24.5781 22.0718 24.5123 22.2171 24.4416 22.3674C24.4668 22.3824 24.4921 22.3925 24.5174 22.4075C24.7753 22.192 25.0331 21.9766 25.291 21.7611C25.2708 21.7311 25.2505 21.701 25.2253 21.6659C25.0281 21.7561 24.8309 21.8463 24.6337 21.9315C24.8005 21.7812 24.9472 21.6008 25.1393 21.4906C25.7005 21.1649 26.0494 20.4935 25.9635 19.9123C25.6854 20.2781 25.4528 20.7691 25.0635 21.0497C24.305 21.6108 23.8955 22.4175 23.3292 23.119C23.314 23.139 23.3343 23.1841 23.3444 23.2442C23.7944 22.7933 24.2191 22.3574 24.6489 21.9215ZM24.3859 21.1399C24.4011 20.8693 24.2494 20.9745 24.1432 21.0447C23.9461 21.1699 23.759 21.3102 23.5668 21.4405C23.759 21.0296 24.0421 20.7541 24.4921 20.6538C24.8157 20.5787 25.1444 20.4534 25.2354 19.9824C24.8258 20.2029 24.4668 20.3582 24.1534 20.5687C23.8146 20.7991 23.491 21.0597 23.2028 21.3453C22.8994 21.6509 22.8337 22.0117 23.1977 22.3975C23.3545 22.162 23.4809 21.9064 23.668 21.706C23.855 21.5106 24.1028 21.3653 24.3253 21.2C23.9107 21.701 23.3696 22.1119 23.1421 22.8785C23.2786 22.7582 23.3393 22.7181 23.3848 22.668C23.9359 22.0768 24.5174 21.5006 25.0281 20.8793C25.3871 20.4434 25.6702 19.9474 25.9635 19.4614C26.0343 19.3411 26.0039 19.1607 26.0191 19.0054C25.9786 19.0004 25.9382 18.9904 25.8977 18.9854C25.827 19.1507 25.7511 19.3111 25.6803 19.4764C25.3972 20.1528 25.0685 20.7791 24.3859 21.1399ZM11.9932 8.94955C12.0741 8.50363 12.5039 8.71907 12.8073 8.58379C12.4938 8.36334 12.2258 8.2982 11.9629 8.49862C11.7809 8.63891 11.6545 8.83932 11.8618 9.0698C11.7961 9.27022 11.6292 9.51072 11.6899 9.65602C11.791 9.91155 12.0185 10.137 12.2309 10.3324C12.4079 10.4978 12.5646 10.4777 12.5899 10.1721C12.6 10.0719 12.7062 9.97668 12.777 9.88149C12.8629 9.76625 12.9539 9.66103 13.0449 9.5508C12.9135 9.52074 12.782 9.48566 12.6404 9.45059C12.7416 9.38045 12.868 9.29026 12.9893 9.20508C12.3775 8.64893 12.3775 8.64893 11.9932 8.94955ZM19.0972 27.5582L19.1022 27.5632C19.1932 27.1223 19.2843 26.6864 19.3753 26.2454C19.3298 26.2354 19.2843 26.2204 19.2388 26.2104C19.1376 26.511 19.0314 26.8116 18.9303 27.1122C18.9202 27.1122 18.9101 27.1122 18.9 27.1072C18.9202 26.9068 18.9404 26.7064 18.9607 26.511C18.5157 27.8087 18.3994 29.1415 18.4955 30.4893C18.5005 30.5794 18.7331 30.7298 18.8545 30.7197C19.2843 30.6997 19.709 30.6396 20.1337 30.5694C20.6545 30.4842 21.1652 30.369 21.6303 30.2788C21.5343 30.0584 21.423 29.908 21.423 29.7627C21.423 28.9911 21.4483 28.2195 21.4786 27.4479C21.4888 27.1423 21.5393 26.8317 21.5747 26.526C21.5393 26.521 21.509 26.521 21.4736 26.516C21.1601 27.6584 21.2511 28.8358 21.2208 30.0032C21.0337 28.8358 21.059 27.6634 21.2056 26.491C20.8871 27.6333 20.9275 28.8008 20.8921 29.9732C20.8921 28.8058 20.8921 27.6433 20.8921 26.4759C20.8416 26.4759 20.791 26.4759 20.7354 26.4759C20.7354 27.5582 20.7354 28.6354 20.7354 29.7177C20.6899 29.7177 20.6393 29.7177 20.5938 29.7177C20.5938 28.6905 20.5938 27.6634 20.5938 26.6363C20.2904 27.7486 20.4725 28.8759 20.3511 29.9982C20.3511 28.8358 20.3511 27.6784 20.3511 26.516C19.9871 27.6784 20.0477 28.8609 20.0326 30.0433C20.0326 28.8559 20.0326 27.6684 20.0326 26.4759C19.9972 26.516 19.9466 26.5711 19.8961 26.6262C19.8758 26.5361 19.8556 26.4459 19.8303 26.3557C19.4562 27.6183 19.4005 28.8909 19.527 30.1786C19.168 28.9962 19.3652 27.8187 19.5168 26.6262C19.4208 26.7715 19.3652 26.9269 19.3045 27.0772C19.2337 27.2325 19.1629 27.3928 19.0972 27.5582ZM30.605 34.9936C30.5798 34.9385 30.5747 34.9134 30.5595 34.8934C30.1601 34.3723 29.7657 33.8512 29.3663 33.3302C29.068 32.9443 28.8809 32.9093 28.4359 33.1047C27.9101 33.3402 27.3843 33.5857 26.8483 33.7861C24.9927 34.4725 23.0309 34.6529 21.0944 34.9535C20.8264 34.9936 20.6747 35.1088 20.5079 35.2942C19.9416 35.9305 19.3904 36.5919 18.7534 37.1631C17.9949 37.8395 17.909 38.3105 18.6118 39.0771C18.7786 39.2575 19.0466 39.4779 19.264 39.4679C19.8708 39.4378 20.4725 39.3025 21.1146 39.2023C21.0944 39.062 21.0843 38.9167 21.0438 38.7815C20.8668 38.1502 20.3966 37.7944 19.8404 37.5138C19.6837 37.4387 19.5421 37.3385 19.3904 37.2533C19.4056 37.2132 19.4258 37.1731 19.441 37.133C19.6685 37.1731 19.8961 37.2232 20.1236 37.2583C21.2208 37.4287 22.323 37.609 23.4253 37.7393C23.6073 37.7593 23.8146 37.5689 24.0067 37.4788C23.9309 37.3234 23.855 37.1731 23.759 36.9827C24.0674 36.3013 24.0522 36.166 23.4708 35.0838C24.1938 35.184 24.7652 35.5548 25.3416 35.9155C25.7713 36.1861 26.1859 36.4917 26.6461 36.6971C26.8888 36.8024 27.2174 36.7673 27.4955 36.7272C28.0062 36.6571 28.5067 36.4566 29.0174 36.4516C29.9174 36.4366 30.3674 37.0028 30.2663 37.8796C30.155 38.8065 30.0236 39.7284 29.9376 40.6554C29.9022 41.0361 29.9123 41.432 29.9932 41.8027C30.1095 42.3338 30.5545 42.5994 31.0955 42.4892C32.0814 42.2938 32.7893 41.7326 33.1938 40.8758C32.4657 39.4579 31.7629 38.09 31.055 36.7172C31.0753 36.6921 31.0955 36.6671 31.1208 36.642C31.3028 36.7322 31.4798 36.8224 31.7275 36.9477C31.3736 36.2111 31.0753 35.5397 30.2814 35.209C30.4129 35.1139 30.4989 35.0587 30.605 34.9936ZM31.677 30.4041C32.1927 30.6346 32.5416 31.0755 33.1432 30.9652C32.309 30.3189 31.4747 29.6726 30.6404 29.0262C30.6657 28.9962 30.691 28.9611 30.7213 28.931C30.8326 29.0262 30.9337 29.1364 31.055 29.2166C31.8741 29.7678 32.6983 30.3189 33.5326 30.85C33.6691 30.9352 33.8562 30.9402 34.018 30.9803C34.0382 30.9252 34.0635 30.87 34.0837 30.8149C33.6084 30.5394 33.1382 30.2638 32.6629 29.9882C33.2444 30.0884 33.7095 30.5544 34.3163 30.5444C34.3365 30.4993 34.3517 30.4542 34.3719 30.4091C34.0382 30.2387 33.7045 30.0734 33.3708 29.903C33.3758 29.888 33.3809 29.878 33.3859 29.863C33.8966 30.0433 34.4073 30.2237 34.9837 30.4241C34.9382 30.2337 34.918 30.1736 34.9028 30.1135C35.1556 30.1636 35.3781 30.2037 35.6005 30.2437C35.6208 30.2087 35.641 30.1686 35.6562 30.1335C35.55 30.0684 35.4387 29.9982 35.3326 29.9331C35.3477 29.9181 35.3579 29.903 35.373 29.883C35.5803 29.9381 35.7927 29.9882 36.1112 30.0684C35.9494 29.873 35.8685 29.7728 35.8331 29.7277C36.005 29.7177 36.2174 29.7527 36.3792 29.6826C36.5764 29.5974 36.6775 29.6675 36.7989 29.7828C36.8191 29.8028 36.8646 29.8028 36.9253 29.8179C36.8949 29.6926 36.8747 29.6024 36.8241 29.407C37.0011 29.5673 37.1932 29.6675 37.1882 29.7527C37.1629 30.2037 37.532 30.1335 37.7747 30.3089C37.8101 29.3619 37.5775 28.9461 36.9455 28.8458C37.0062 29.0463 37.0618 29.2266 37.1123 29.407C36.8393 28.8208 36.3185 28.941 35.8432 28.9811C35.3326 29.0262 34.832 29.1364 34.3213 29.1665C33.6843 29.2066 33.0421 29.2266 32.405 29.1866C32.2382 29.1765 31.9247 28.8559 31.955 28.7757C32.0764 28.44 31.8691 28.2496 31.7477 28.0091C31.6365 27.7937 31.5354 27.5782 31.4292 27.3628C31.4444 27.3527 31.4646 27.3477 31.4798 27.3377C31.5758 27.473 31.677 27.6133 31.773 27.7486C31.7932 27.7385 31.8084 27.7285 31.8286 27.7235C31.7477 27.5181 31.6719 27.3177 31.591 27.1122C31.6011 27.1072 31.6163 27.1072 31.6264 27.1022C31.8286 27.3778 32.0309 27.6534 32.2331 27.9239C32.2685 27.8989 32.3039 27.8788 32.3444 27.8538C32.1472 27.463 31.955 27.0722 31.7427 26.6463C31.8691 26.7214 31.9449 26.7715 32.0764 26.8467C31.5758 25.7444 30.7112 25.2033 30.155 25.6141C29.7758 25.058 29.0983 25.6893 28.6483 25.2584C28.6736 25.3586 28.7039 25.4638 28.7292 25.559C28.5219 25.4087 28.3146 25.2634 28.0618 25.083C28.0618 25.2534 28.0618 25.3285 28.0618 25.3235C27.8747 25.2384 27.6826 25.1532 27.4955 25.063C27.4702 25.1031 27.4449 25.1381 27.4196 25.1782C27.5713 25.4087 27.723 25.6442 27.8747 25.8747C27.632 25.7143 27.455 25.5139 27.3185 25.2885C27.1213 24.9678 26.7876 25.1983 26.55 25.073C26.5348 25.1532 26.5247 25.2333 26.5095 25.3386C26.2668 24.7774 25.7966 25.2634 25.4882 25.0079C25.468 25.048 25.4427 25.088 25.4225 25.1231C25.7107 25.4638 25.9938 25.7995 26.282 26.1402C26.277 26.1502 26.2668 26.1553 26.2618 26.1653C26.0848 26.015 25.9129 25.8647 25.7359 25.7143C25.7157 25.7394 25.6904 25.7594 25.6702 25.7845C25.8876 26.0801 26.1101 26.3807 26.3275 26.6763C26.3073 26.6914 26.2871 26.7014 26.2719 26.7164C26.0646 26.4859 25.8573 26.2555 25.65 26.025C25.6247 26.04 25.5994 26.0601 25.5741 26.0751C25.6652 26.2505 25.7562 26.4258 25.8927 26.6864C25.6854 26.531 25.5539 26.4358 25.382 26.3106C25.6196 27.1022 27.7635 29.893 28.3854 30.2387C28.2994 30.0483 28.2185 29.878 28.1376 29.7076C28.1528 29.6976 28.173 29.6876 28.1882 29.6826C28.5017 30.0333 28.8101 30.379 29.1236 30.7298C29.1489 30.7147 29.1691 30.6947 29.1944 30.6797C29.1185 30.5243 29.0376 30.369 28.9618 30.2187C28.977 30.2137 28.9871 30.2037 29.0022 30.1987C29.159 30.3941 29.3157 30.5845 29.4725 30.7799C29.5079 30.7548 29.5432 30.7348 29.5786 30.7097C29.1741 30.1085 28.7747 29.5022 28.3702 28.901C28.7039 29.2216 28.9618 29.5874 29.2247 29.9531C29.4927 30.3139 29.7657 30.6696 30.0387 31.0254C30.0792 30.9953 30.1247 30.9652 30.1652 30.9302C29.9831 30.6446 29.7961 30.364 29.614 30.0784C30.0337 30.389 30.2966 30.8751 30.8073 31.0404C30.8326 31.0153 30.8579 30.9903 30.8882 30.9602C30.6961 30.7147 30.4989 30.4742 30.3067 30.2287C30.7719 30.5694 31.1814 30.9652 31.7225 31.1606C31.7528 31.1256 31.7781 31.0905 31.8084 31.0554C31.7073 30.9352 31.6011 30.8149 31.4848 30.6797C31.6213 30.7147 31.7376 30.7448 31.9247 30.7949C31.8185 30.6446 31.7579 30.5444 31.677 30.4041ZM12.9135 26.5361C11.7404 26.1202 10.5472 26.5461 9.74325 27.6433C9.12134 28.5001 8.76235 29.4721 8.48931 30.4792C8.45392 30.6045 8.50954 30.7949 8.59549 30.9051C9.94044 32.5886 10.0062 34.3723 9.07077 36.2562C8.87864 36.647 8.75223 37.0779 8.66628 37.5038C8.56516 37.9848 8.7674 38.3405 9.21235 38.536C9.30841 38.1702 9.44999 37.8145 9.48032 37.4537C9.541 36.7372 9.88987 36.2662 10.5067 35.8955C11.3309 35.3994 11.7152 34.6479 11.6545 33.6759C11.5989 32.774 11.5483 31.8671 11.5635 30.9602C11.5888 29.382 11.8618 27.8588 12.9135 26.5361ZM11.6494 20.5386C11.6545 20.5737 11.6595 20.6037 11.6697 20.6388C11.8365 20.6138 11.9983 20.5837 12.1803 20.5586C12.1702 20.6088 12.1601 20.6789 12.15 20.729C12.4129 20.7039 12.6556 20.6839 12.8983 20.6639C12.8882 20.734 12.8831 20.7841 12.873 20.8643C13.055 20.7941 13.1966 20.744 13.3635 20.6839C13.323 20.7741 13.2977 20.8242 13.2472 20.9294C13.414 20.8543 13.5202 20.8092 13.6416 20.7541C13.6466 20.8392 13.6517 20.9094 13.6567 21.0046C13.8135 20.9394 13.9449 20.8893 14.0966 20.8292C14.0713 20.9094 14.0511 20.9745 14.0208 21.0647C14.1927 21.0046 14.3343 20.9595 14.4809 20.9094C14.4758 21.0096 14.4708 21.0747 14.4657 21.1599C14.6427 21.0647 14.7792 20.9895 14.9814 20.8843C14.8803 21.0647 14.8196 21.1649 14.759 21.2701C14.7843 21.2902 14.8095 21.3102 14.8298 21.3252C15.0573 21.1399 15.2848 20.9495 15.573 20.714C15.4972 20.9444 15.4517 21.0897 15.4011 21.2401C15.4213 21.2501 15.4466 21.2601 15.4668 21.2701C15.7247 21.0647 15.9826 20.8593 16.3213 20.5937C16.2303 20.8843 16.1697 21.0797 16.109 21.2751C16.1343 21.2852 16.1595 21.2952 16.1848 21.3102C16.468 20.9996 16.7511 20.6839 17.1 20.3031C17.0646 20.5637 17.0494 20.709 17.0191 20.9344C17.5348 20.5436 17.9039 20.1628 18.005 19.4914C16.8472 19.9925 15.7753 20.4735 14.5668 20.3232C14.5618 20.2881 14.5517 20.253 14.5466 20.2229C14.7489 20.1829 14.9461 20.1428 15.1736 20.0927C15.1584 19.6718 15.482 20.0776 15.6388 19.9674C15.6388 19.8873 15.6388 19.7971 15.6388 19.6668C15.8208 19.747 15.9623 19.8121 16.1343 19.8923C16.1494 19.782 16.1646 19.6918 16.1747 19.6017C16.4275 19.6568 16.7359 19.8822 16.6702 19.3812C17.1101 19.3511 17.6663 18.8802 17.7371 18.4092C16.4528 19.3511 14.9916 19.6267 13.505 19.8321C13.7882 19.777 13.9197 19.5065 14.2079 19.4012C14.7994 19.1858 15.4719 19.0706 15.9623 18.6096C16.0938 18.4843 16.2253 18.3641 16.3618 18.2388C16.3972 18.339 16.4326 18.4443 16.4932 18.6347C16.5691 18.3942 16.6196 18.2388 16.6955 18.0084C16.9129 18.3891 17.0697 18.1737 17.2314 18.0434C17.2871 17.9983 17.3225 17.9282 17.3781 17.858C17.2517 17.8079 17.1657 17.7679 17.0798 17.7328C17.1152 17.6276 17.1404 17.5474 17.1809 17.4221C16.9432 17.4923 16.7562 17.5424 16.5185 17.6125C16.5944 17.4572 16.65 17.352 16.7562 17.1416C16.4579 17.2919 16.2505 17.3971 15.9876 17.5324C16.0432 17.3921 16.0786 17.3119 16.1191 17.2067C15.8865 17.2869 15.7045 17.347 15.5275 17.4071C15.5123 17.3821 15.4972 17.357 15.482 17.337C15.5983 17.1967 15.7146 17.0514 15.8309 16.9111C15.8157 16.896 15.8005 16.881 15.7904 16.866C15.573 16.9812 15.3556 17.0914 15.1129 17.2217C15.1483 17.0914 15.1685 17.0063 15.1989 16.881C14.9663 17.0063 14.7893 17.1065 14.5466 17.2368C14.6579 17.0564 14.7286 16.9411 14.7994 16.8309C14.7792 16.8159 14.764 16.7958 14.7438 16.7808C14.5213 16.9211 14.2989 17.0664 14.0562 17.2217C14.0713 17.0814 14.0764 17.0063 14.0865 16.9111C13.9146 17.0213 13.7831 17.1065 13.6416 17.1917C13.6213 17.0965 13.6112 17.0313 13.591 16.9261C13.409 17.0464 13.2623 17.1466 13.0399 17.2919C13.1208 17.0965 13.1713 16.9762 13.2067 16.896C13.0449 16.896 12.8831 16.881 12.7264 16.9011C12.4786 16.9261 12.2359 16.9562 11.9932 17.0113C11.8112 17.0514 11.6393 17.1666 11.4573 17.2017C11.0983 17.2668 10.7494 17.362 10.6028 17.7228C10.4511 18.1086 10.6736 18.4342 10.9011 18.7499C10.9314 18.6347 10.9567 18.5244 10.9921 18.3942C11.0477 18.4894 11.0983 18.5745 11.1741 18.7048C11.1994 18.5445 11.2146 18.4443 11.2399 18.2689C11.3107 18.4643 11.3562 18.5946 11.4118 18.7499C11.4623 18.5996 11.5028 18.4843 11.5534 18.339C11.6343 18.5244 11.7 18.6647 11.8011 18.8952C11.8365 18.6647 11.8517 18.5445 11.882 18.334C11.9579 18.5395 12.0034 18.6597 12.0691 18.8351C12.1196 18.6447 12.1601 18.5094 12.2056 18.344C12.2612 18.5244 12.3118 18.6747 12.3826 18.8902C12.4331 18.6597 12.4685 18.5044 12.5241 18.2589C12.5899 18.5244 12.6354 18.6848 12.6961 18.9353C12.7618 18.6597 12.8073 18.4843 12.868 18.2238C12.8983 18.4743 12.9185 18.6347 12.9489 18.9102C13.0753 18.6296 13.1511 18.4543 13.2725 18.1887C13.2977 18.4242 13.3129 18.5545 13.3382 18.7749C13.4241 18.5745 13.4747 18.4543 13.5354 18.299C13.5859 18.4543 13.6213 18.5645 13.6466 18.6347C13.7579 18.5595 13.8539 18.4443 13.955 18.4392C14.309 18.4192 14.668 18.4392 15.027 18.4443C15.0421 18.4443 15.0522 18.4793 15.1028 18.5445C14.8601 18.6848 14.6376 18.8752 14.3747 18.9453C13.5758 19.1607 12.7668 19.3561 11.9579 19.5165C11.1388 19.6768 10.2893 19.752 9.76347 20.5286C9.74325 20.5536 9.7483 20.5987 9.72808 20.6689C9.84943 20.6087 9.93538 20.5687 10.0314 20.5186C10.0517 20.5937 10.0719 20.6538 10.0719 20.6589C10.3399 20.5536 10.5725 20.4584 10.8303 20.3582C10.8354 20.4835 10.8404 20.5586 10.8455 20.6538C11.0123 20.5386 11.1438 20.4434 11.341 20.3081C11.2652 20.4935 11.2197 20.5987 11.1337 20.8092C11.3814 20.6889 11.518 20.6138 11.6494 20.5386ZM17.2567 35.4696C17.2112 35.4395 17.1607 35.4095 17.1152 35.3794C17.0545 35.3994 16.9888 35.4095 16.9331 35.4395C15.4416 36.2061 13.9298 36.9076 12.2612 37.2483C11.2399 37.4537 10.6281 38.1552 10.3753 39.1773C10.6837 39.3126 10.9719 39.538 11.2652 39.543C11.9123 39.5481 12.4837 39.9639 13.141 39.8286C13.1966 39.8186 13.2674 39.8787 13.3331 39.8838C13.4191 39.8938 13.5253 39.9188 13.5961 39.8838C14.3545 39.523 15.2545 39.6883 15.9927 39.2073C16.2101 39.062 16.5944 39.1673 16.9028 39.1623C16.9888 39.1623 17.0747 39.1723 17.191 39.1773C17.1354 38.6863 16.7663 38.5259 16.4376 38.3355C15.8663 37.9948 15.7854 37.594 16.1949 37.0829C16.3972 36.8324 16.6449 36.617 16.8219 36.3514C16.9938 36.0809 17.1152 35.7652 17.2567 35.4696ZM31.414 35.4696C31.5455 34.9385 31.0955 34.723 30.8629 34.4024C25.564 27.1122 20.2601 19.8271 14.9511 12.542C14.5719 12.0209 14.1826 11.5099 13.7831 11.0088C13.7174 10.9287 13.5607 10.9236 13.4444 10.8836C13.4292 11.0038 13.3837 11.1341 13.414 11.2393C13.4494 11.3596 13.5505 11.4648 13.6314 11.575C18.6876 18.4593 23.7489 25.3486 28.805 32.2329C29.4472 33.1047 30.1045 33.9665 30.7314 34.8483C30.9135 35.1038 31.0095 35.4245 31.414 35.4696ZM25.1696 41.4119C25.5438 41.3518 25.8876 41.2917 26.2567 41.2316C26.2618 41.3318 26.2719 41.467 26.282 41.6023C26.2972 41.6023 26.3123 41.6073 26.3275 41.6073C26.373 41.452 26.4185 41.2917 26.4691 41.1364C26.4893 41.1414 26.5095 41.1464 26.5298 41.1564C26.5095 41.3468 26.4893 41.5422 26.464 41.7326C26.5045 41.7376 26.5399 41.7426 26.5803 41.7476C26.6359 41.5171 26.6865 41.2867 26.7421 41.0512C26.7573 41.0512 26.7775 41.0562 26.7927 41.0562C26.8079 41.1965 26.8281 41.3418 26.8432 41.4821C26.8635 41.4871 26.8888 41.4921 26.909 41.4921C26.9899 41.2516 27.0708 41.0111 27.1517 40.7706C27.1719 40.7756 27.1871 40.7806 27.2073 40.7856C27.1921 40.976 27.177 41.1714 27.1567 41.3618C27.182 41.3668 27.2073 41.3769 27.2275 41.3819C27.2983 41.1965 27.3691 41.0111 27.4449 40.8257C27.4601 40.8908 27.4803 40.966 27.5005 41.0412C27.5562 41.0011 27.6067 40.971 27.7079 40.9059C27.8343 41.4019 27.9505 41.8729 28.0668 42.3388C28.0365 42.3489 28.0112 42.3539 27.9809 42.3639C27.9152 42.1635 27.8494 41.9681 27.7837 41.7677C27.7534 41.7777 27.7281 41.7827 27.6977 41.7927C27.723 42.0432 27.7432 42.2887 27.7786 42.6395C27.6674 42.399 27.5966 42.2537 27.5258 42.1034C27.5107 42.1084 27.4955 42.1134 27.4803 42.1184C27.5005 42.3639 27.5208 42.6144 27.541 42.8599C27.5157 42.8599 27.4955 42.8649 27.4702 42.8649C27.4095 42.7246 27.3489 42.5793 27.2882 42.4391C27.273 42.4441 27.2528 42.4541 27.2376 42.4591C27.2376 42.6996 27.2376 42.9451 27.2376 43.2758C27.1213 43.1305 27.0708 43.0603 27 42.9802C26.9747 43.1555 26.9595 43.3008 26.9292 43.4963C26.8079 43.4011 26.7522 43.3509 26.7421 43.3459C26.6208 43.5363 26.5045 43.7217 26.3326 43.9973C26.9393 43.6265 27.45 43.3159 27.9556 43.0052C27.9809 43.0253 28.0011 43.0453 28.0264 43.0654C27.8393 43.4512 27.6573 43.837 27.4702 44.2228C27.5107 44.2428 27.5511 44.2628 27.5916 44.2829C27.9253 43.6967 28.2691 43.1155 28.5826 42.5192C28.982 41.7727 28.9466 41.6274 28.3702 41.0111C28.0314 40.6503 27.7736 40.2645 27.9708 39.7234C28.0264 39.5731 27.9961 39.3777 27.9607 39.2124C27.8848 38.8115 27.7786 38.4157 27.6876 38.0149C27.5764 37.5088 27.3792 37.3735 26.8635 37.4587C26.191 37.574 25.5185 37.7243 24.8359 37.7944C24.1382 37.8696 23.4253 37.8746 22.5809 37.9197C22.9045 38.1451 23.1371 38.3055 23.4 38.4808C23.405 38.3907 23.4101 38.3205 23.4152 38.2704C23.7741 38.3806 24.1129 38.4859 24.4719 38.6011C24.4972 38.4909 24.5225 38.3856 24.5579 38.2604C24.7753 38.4408 24.9623 38.6011 25.1494 38.7564C25.1747 38.7364 25.2 38.7163 25.2253 38.6963C25.1292 38.541 25.0331 38.3856 24.8814 38.1301C25.2 38.3456 25.4275 38.4909 25.7107 38.6813C25.65 38.4758 25.6045 38.3405 25.564 38.2053C25.5843 38.1952 25.6045 38.1852 25.6247 38.1752C25.7562 38.3405 25.8876 38.5109 26.0241 38.6762C26.0444 38.6662 26.0646 38.6562 26.0848 38.6462C26.0545 38.4658 26.0241 38.2904 25.9938 38.1101C26.0191 38.1051 26.0393 38.095 26.0646 38.09C26.1657 38.2854 26.2668 38.4808 26.3983 38.7364C26.4185 38.5159 26.4286 38.3756 26.4438 38.2303C26.4691 38.2303 26.4994 38.2303 26.5247 38.2303C26.5803 38.7614 26.6359 39.2875 26.6916 39.8186C26.7168 39.8186 26.7421 39.8186 26.7623 39.8186C26.7927 39.3076 26.8281 38.8015 26.8584 38.2904C26.8786 38.2904 26.8989 38.2904 26.914 38.2904C26.914 38.8516 26.914 39.4128 26.914 39.9739C26.9545 39.979 26.9949 39.979 27.0404 39.984C27.1213 39.503 27.2022 39.017 27.2831 38.536C27.3236 38.541 27.364 38.551 27.3994 38.556C27.2882 39.2274 27.177 39.8988 27.0657 40.5652C27.0303 40.5652 27 40.5602 26.9646 40.5602C26.9292 40.465 26.8989 40.3698 26.8382 40.2044C26.7927 40.4149 26.7674 40.5401 26.7371 40.6854C26.6713 40.6303 26.6258 40.5952 26.6157 40.5852C26.4438 40.6954 26.2921 40.8007 26.1505 40.8959C26.0949 40.8057 26.0545 40.7405 25.9888 40.6353C25.9534 40.7906 25.9281 40.8959 25.8927 41.0261C25.8168 40.9259 25.7713 40.8608 25.7006 40.7706C25.6803 40.8959 25.6702 40.981 25.655 41.0712C25.5893 41.0111 25.5388 40.961 25.473 40.9059C25.4376 41.0311 25.4073 41.1163 25.3719 41.2366C25.2809 41.1063 25.2202 41.0161 25.1595 40.9259C25.1393 40.9309 25.1191 40.9409 25.1039 40.946C25.1292 41.0913 25.1444 41.2316 25.1696 41.4119ZM23.127 28.7005C23.1118 28.6855 23.0966 28.6755 23.0764 28.6605C23.2938 28.3949 23.5112 28.1344 23.7286 27.8688C23.7034 27.8388 23.6781 27.8137 23.6528 27.7836C23.5062 27.8638 23.3646 27.944 23.132 28.0742C23.5163 27.6283 24.0522 27.4329 24.1938 26.7866C23.9359 27.002 23.7489 27.1623 23.5618 27.3177C23.5517 27.3077 23.5416 27.3026 23.5314 27.2926C23.7843 27.002 24.0421 26.7064 24.2949 26.4158C24.2595 26.3857 24.2292 26.3557 24.1938 26.3256C23.7893 26.6463 23.3848 26.9669 22.9753 27.2826C22.7831 27.4329 22.5859 27.488 22.6062 27.8638C22.6314 28.4149 22.414 28.9711 22.3331 29.5323C22.2421 30.1586 22.0753 30.7398 21.6152 31.2108C21.5444 31.2859 21.5444 31.5715 21.6 31.6016C22.055 31.8421 22.1966 32.2579 22.3432 32.6938C22.3786 32.789 22.5556 32.9043 22.6618 32.8993C22.9247 32.8892 23.1977 32.8341 23.4505 32.759C23.5365 32.7339 23.6528 32.5185 23.6427 32.5084C23.3646 32.2479 23.0713 32.0024 22.773 31.7469C22.7831 31.7318 22.8236 31.6517 22.8944 31.5314C22.7427 31.5665 22.6567 31.5865 22.6011 31.5966C22.5354 31.4913 22.4798 31.4062 22.414 31.306C22.505 31.2057 22.6213 31.0755 22.7629 30.9202C22.6314 30.8851 22.5708 30.87 22.5152 30.855C22.6163 30.7197 22.7123 30.5945 22.8489 30.4141C22.682 30.4442 22.6062 30.4542 22.4899 30.4742C22.7225 30.1836 23.2432 30.2488 23.2331 29.7477C23.1168 29.7678 23.0309 29.7828 22.9247 29.8028C23.1725 29.5172 23.3899 29.2617 23.6123 29.0062C23.5871 28.9761 23.5618 28.9511 23.5416 28.921C23.3848 28.9911 23.2281 29.0663 23.0511 29.1465C23.2837 28.8859 23.4961 28.6504 23.7084 28.4099C23.6831 28.3849 23.6579 28.3598 23.6326 28.3398C23.4607 28.46 23.2938 28.5803 23.127 28.7005ZM17.7725 21.0948C17.6005 21.1599 17.4944 21.1799 17.4084 21.23C16.6904 21.681 15.9067 21.8163 15.0876 21.686C14.1725 21.5457 13.2775 21.3052 12.3623 21.1799C11.5938 21.0797 10.8101 21.0747 10.0314 21.0547C9.69268 21.0447 9.38426 21.2 9.26291 21.5357C9.22246 21.6509 9.35392 21.8263 9.41965 21.9916C9.5865 21.8714 9.7028 21.7912 9.8292 21.701C9.85448 21.7762 9.87976 21.8363 9.89999 21.8914C10.1579 21.8062 10.4107 21.7261 10.6888 21.6359C10.6888 21.6409 10.7191 21.701 10.7646 21.7962C10.891 21.686 10.9972 21.5908 11.1135 21.4906C11.1691 21.5507 11.2247 21.6158 11.2854 21.681C11.5483 21.6509 11.7303 21.4254 12.0438 21.5707C12.332 21.706 12.7062 21.6559 13.0399 21.711C13.1814 21.7361 13.3028 21.8664 13.4393 21.8814C13.6719 21.9064 13.864 22.187 14.127 21.9916C14.1371 21.9816 14.1725 22.0016 14.1927 22.0117C14.1826 22.0718 14.1775 22.1319 14.1725 22.157C14.4 22.182 14.5972 22.2021 14.8196 22.2221C14.7944 22.2973 14.764 22.3874 14.7084 22.5478C14.9005 22.4676 15.032 22.4175 15.1584 22.3624C15.1786 22.4325 15.1989 22.5027 15.2343 22.6329C15.4972 22.4325 15.7348 22.2522 16.0079 22.0417C15.9522 22.2171 15.9118 22.3474 15.8713 22.4776C15.8916 22.4927 15.9118 22.5077 15.927 22.5227C16.0432 22.4225 16.1595 22.3223 16.2607 22.2371C16.5388 22.5628 16.6298 22.1169 16.8168 22.1069C16.8573 22.162 16.8977 22.2121 16.9331 22.2572C17.0848 22.1169 17.1961 21.9365 17.3528 21.8914C17.7219 21.7611 17.7573 21.4956 17.7725 21.0948ZM18.3741 26.6012C18.5056 26.5461 18.6118 26.506 18.7028 26.4709C18.6775 26.3807 18.6573 26.3006 18.632 26.2204C18.6168 26.1553 18.5966 26.0951 18.5764 26.03C18.5157 26.0651 18.4348 26.0851 18.3994 26.1402C18.3337 26.2404 18.2781 26.3507 18.2528 26.4659C18.0556 27.4429 17.8281 28.4149 17.6966 29.402C17.6208 29.9732 17.6713 30.5694 17.7118 31.1506C17.732 31.4362 17.8382 31.7669 18.2528 31.7068C19.2489 31.5565 20.2449 31.4011 21.2359 31.2258C21.5798 31.1657 21.6303 30.9803 21.4736 30.6897C21.2612 30.6796 21.0539 30.9402 20.8668 30.5995C20.8112 30.7097 20.7657 30.8049 20.7152 30.9051C20.7101 30.865 20.7101 30.8199 20.705 30.7799C19.8354 31.0454 19.0011 30.8851 18.1365 30.7398C18.182 30.6746 18.2427 30.6295 18.2376 30.5895C18.2123 30.1536 18.1719 29.7327 18.2579 29.2817C18.3185 28.9661 18.2275 28.5903 18.2882 28.2396C18.3387 27.939 18.2831 27.6033 18.4045 27.3427C18.5461 27.0621 18.5916 26.8517 18.3741 26.6012ZM22.8438 9.9366C22.8185 10.0819 22.8084 10.2272 22.773 10.3575C22.7376 10.4877 22.6719 10.613 22.6163 10.7383C22.4798 10.6832 22.3483 10.623 22.2927 10.603C22.3382 10.3074 22.3685 10.0969 22.3989 9.91656C22.0803 9.84641 21.8275 9.78629 21.5747 9.73117C21.6354 9.55581 21.6809 9.43556 21.7416 9.2602C21.9792 9.30028 22.232 9.34537 22.5101 9.39047C22.5657 9.34537 22.6668 9.2602 22.8135 9.13995C22.8489 9.34036 22.8691 9.46562 22.8893 9.62095C23.1168 9.54078 23.3191 9.47063 23.5264 9.40049C23.5365 9.3604 23.5416 9.32032 23.5517 9.28525C23.3949 9.18504 23.2432 9.01469 23.0764 8.98964C22.6871 8.93953 22.2826 8.94454 21.8882 8.94955C21.5241 8.94955 21.3371 9.18504 21.327 9.50571C21.3219 9.83138 21.3775 10.1671 21.4483 10.4877C21.509 10.7783 21.5798 11.079 21.7163 11.3445C21.9084 11.7303 22.3938 11.9107 22.6517 11.7504C23.0916 11.4748 23.5011 10.5128 23.3899 10.0218C23.218 9.99673 23.0511 9.97167 22.8438 9.9366ZM20.8213 14.9169C20.7657 14.9971 20.7 15.1174 20.6899 15.1123C20.5483 15.0472 20.4118 14.9721 20.3612 14.937C20.1792 14.957 20.0427 14.967 19.9112 14.9821C19.8961 14.6814 19.8809 14.4409 19.8708 14.1954C19.8505 14.1954 19.8253 14.1904 19.805 14.1904C19.7696 14.4159 19.7393 14.6414 19.7039 14.8668C19.6635 14.8718 19.6281 14.8769 19.5876 14.8819C19.5371 14.6915 19.4814 14.5011 19.4157 14.2656C19.355 14.7716 19.3045 15.2276 19.2539 15.6785C19.2691 15.6835 19.2792 15.6885 19.2944 15.6935C19.3652 15.5482 19.4309 15.3979 19.5017 15.2476C19.6079 15.3428 19.6938 15.418 19.8101 15.5232C19.8101 15.8088 19.8101 16.1595 19.8101 16.5153C19.8202 16.5153 19.8354 16.5153 19.8455 16.5153C19.891 16.1946 19.9416 15.8739 19.9871 15.5533C20.0225 15.5583 20.0579 15.5633 20.0983 15.5733C20.1236 15.8539 20.1438 16.1395 20.1691 16.4201C20.1944 16.4201 20.2197 16.415 20.2449 16.415C20.2753 16.1796 20.3056 15.9391 20.3359 15.7036C20.3764 15.7086 20.4118 15.7136 20.4522 15.7186C20.4522 15.9541 20.4522 16.1946 20.4522 16.4301C20.4725 16.4301 20.4927 16.4301 20.5079 16.4301C20.5635 16.2146 20.614 15.9942 20.6697 15.7787C20.7 15.7787 20.7303 15.7837 20.7607 15.7837C20.791 16.0493 20.8213 16.3098 20.8517 16.5754C20.8618 16.5754 20.877 16.5704 20.8871 16.5704C20.9225 16.3299 20.9629 16.0944 20.9983 15.8539C21.0387 15.8589 21.0843 15.8589 21.1247 15.8639C21.1449 16.1044 21.1652 16.3449 21.1854 16.5854C21.1955 16.5854 21.2107 16.5804 21.2208 16.5804C21.2663 16.3449 21.3067 16.1094 21.3522 15.8739C21.3876 15.8739 21.423 15.8789 21.4584 15.8789C21.4736 16.0643 21.4938 16.2497 21.5191 16.5353C21.5949 16.2447 21.6455 16.0493 21.7213 15.7587C21.7921 15.924 21.8225 15.9992 21.8528 16.0743C21.8983 15.9842 21.9438 15.899 22.0045 15.7687C22.0399 15.904 22.0652 15.9892 22.0904 16.0994C22.141 15.9892 22.1814 15.909 22.2168 15.8338C22.2371 15.8439 22.2573 15.8489 22.2775 15.8589C22.2623 16.0894 22.2522 16.3198 22.232 16.6105C22.5809 15.8389 22.5354 14.9069 22.1461 14.3608C22.1713 14.5863 22.1916 14.7867 22.2118 14.9921C22.1916 15.0021 22.1663 15.0071 22.1461 15.0171C22.1005 14.947 22.055 14.8769 21.9893 14.7867C21.9741 14.9069 21.964 14.9821 21.9438 15.0923C21.873 14.9821 21.8225 14.9069 21.7668 14.8217C21.7416 14.942 21.7264 15.0372 21.7062 15.1324C21.6809 15.1274 21.6505 15.1274 21.6253 15.1224C21.5899 15.0121 21.5595 14.9019 21.5039 14.7316C21.4534 14.9219 21.423 15.0422 21.3725 15.2176C21.2814 15.1123 21.2258 15.0472 21.1702 14.9871C21.0084 15.2576 20.9022 15.1524 20.8213 14.9169ZM35.9191 39.8487C35.5449 39.2575 35.2314 38.7564 34.923 38.2704C34.9685 38.2153 35.009 38.1602 35.0494 38.1101C34.9129 38.0349 34.7612 37.8846 34.6449 37.9046C34.4932 37.9347 34.3668 38.1051 34.1646 38.2704C34.1039 38.075 34.0432 37.8646 33.9725 37.6341C34.3719 37.604 34.655 37.5689 34.3163 37.1781C34.2303 37.0829 34.1899 36.9527 34.114 36.8424C34.0635 36.7723 33.9775 36.6571 33.9371 36.6671C33.8461 36.6871 33.7348 36.7673 33.7045 36.8475C33.6741 36.9276 33.7146 37.0529 33.7652 37.133C33.8056 37.1982 33.9118 37.2282 33.9623 37.2583C33.8107 37.4186 33.5528 37.5689 33.5528 37.7092C33.5579 38.08 33.3505 38.1201 32.9511 38.1301C33.1837 38.2654 33.3101 38.3405 33.4365 38.4157C33.4618 38.581 33.5579 38.6913 33.659 38.8015C33.7702 38.9218 33.9017 39.032 33.9826 39.1673C34.0938 39.3677 34.1646 39.5881 34.2556 39.7986C34.2961 39.7785 34.3416 39.7635 34.382 39.7435C34.4275 39.2675 34.3416 38.8366 33.8814 38.546C34.0736 38.576 34.2607 38.6863 34.3972 38.6362C34.5185 38.5961 34.5792 38.3806 34.6702 38.2453C34.7157 38.4408 34.7208 38.6562 34.6196 38.8065C34.4022 39.1272 34.4579 39.7034 34.8371 40.024C34.7814 39.7685 34.741 39.5731 34.6753 39.2625C34.8118 39.523 34.8826 39.6984 34.9837 39.8487C35.0798 39.989 35.2163 40.1092 35.3326 40.2395C35.373 40.2144 35.4084 40.1944 35.4489 40.1693C35.3528 39.9238 35.2618 39.6733 35.1657 39.4278C35.3831 39.5581 35.6056 39.6783 35.9191 39.8487ZM15.3152 12.1312C15.6994 12.3015 16.0079 12.4368 16.3264 12.5771C16.2809 12.4719 16.2354 12.3717 16.1444 12.1612C16.468 12.3717 16.6904 12.517 16.9534 12.6923C16.9129 12.5019 16.8927 12.3917 16.8522 12.1963C17.105 12.3917 17.2871 12.532 17.5095 12.7023C17.4944 12.5671 17.4843 12.4819 17.464 12.3015C17.7219 12.5921 17.9191 12.8176 18.1466 13.0681C18.2326 12.9278 18.273 12.8577 18.3236 12.7775C18.455 12.8927 18.5612 12.9929 18.6927 13.1082C18.7331 13.033 18.7635 12.9729 18.7989 12.8977C19.0264 13.0631 19.2539 13.2284 19.5067 13.4138C19.5219 13.2986 19.527 13.2485 19.532 13.1733C19.6938 13.2785 19.8152 13.3637 19.8607 13.3938C20.0326 13.3787 20.1539 13.3286 20.2197 13.3637C20.5938 13.5691 21.0994 13.504 21.4129 13.2134C21.0135 13.1733 20.5635 13.1833 20.1539 13.0681C19.7039 12.9428 19.2994 12.6873 18.8595 12.517C18.2629 12.2865 17.6663 12.036 17.0444 11.8856C16.4781 11.7504 15.8966 11.8706 15.3152 12.1312ZM18.627 32.9243C18.6623 32.9243 18.6927 32.9293 18.7281 32.9293C18.8039 32.7039 18.8798 32.4734 18.991 32.1377C18.991 32.4634 18.991 32.6788 18.991 32.8942C19.0163 32.8993 19.0416 32.9043 19.0618 32.9143C19.1477 32.7439 19.2286 32.5736 19.3348 32.3682C19.3652 32.5084 19.3854 32.6137 19.4258 32.8091C19.5623 32.5886 19.6534 32.4383 19.7595 32.2679C19.7798 32.4333 19.8 32.5786 19.8202 32.7189C19.8505 32.7239 19.8809 32.7289 19.9112 32.7389C20.0123 32.4934 20.1084 32.2479 20.25 31.8922C20.2146 32.2529 20.1944 32.4834 20.1741 32.7139C20.2197 32.7239 20.2652 32.7339 20.3107 32.7439C20.3713 32.6237 20.4421 32.5034 20.4927 32.3782C20.5382 32.2579 20.5635 32.1327 20.6241 31.9172C20.6595 32.1627 20.6798 32.298 20.7 32.4383C20.7354 32.4433 20.7758 32.4483 20.8112 32.4533C20.877 32.1627 20.9427 31.8771 21.0185 31.5715C20.8871 31.5464 20.8365 31.5264 20.7859 31.5314C19.8455 31.6667 18.9 31.797 17.9595 31.9523C17.8483 31.9723 17.6966 32.0876 17.6663 32.1878C17.5803 32.4784 17.5399 32.784 17.4843 33.0846C17.5298 33.0997 17.5803 33.1197 17.6258 33.1347C17.7725 32.8842 17.9191 32.6337 18.0657 32.3832C18.1314 32.4634 18.2022 32.5485 18.2983 32.6638C18.3944 32.5485 18.4753 32.4533 18.5511 32.3581C18.5814 32.5535 18.6067 32.7389 18.627 32.9243ZM19.4461 40.7556C19.4663 40.7706 19.4916 40.7906 19.5118 40.8057C19.7696 40.5351 20.0225 40.2645 20.2803 39.989C20.1792 40.2846 20.0022 40.5201 19.8657 40.7756C19.7393 41.0111 19.6534 41.2616 19.5623 41.4921C20.0579 40.8758 20.5534 40.2696 21.0893 39.6032C20.9427 39.5681 20.7202 39.4579 20.5129 39.4829C19.7747 39.5731 19.0517 39.6382 18.3286 39.3827C18.1062 39.3025 17.8432 39.3577 17.7977 39.7284C17.9292 39.6783 18.0253 39.6382 18.1416 39.5931C18.1517 39.6984 18.1567 39.7735 18.1618 39.7785C18.5005 39.7785 18.8191 39.7785 19.1983 39.7785C19.0112 40.0792 18.8696 40.3096 18.7281 40.5401C18.7483 40.5551 18.7685 40.5652 18.7837 40.5802C18.8798 40.5 18.9708 40.4199 19.1022 40.3096C18.627 41.5572 18.5713 41.9731 18.8039 42.5493C18.9708 41.0612 19.2489 40.3898 19.8455 40.0341C19.714 40.2746 19.5775 40.5151 19.4461 40.7556ZM24.8107 31.1456C24.8309 31.1506 24.8511 31.1556 24.8713 31.1606C24.841 31.341 24.8056 31.5214 24.7753 31.7068C24.7449 31.8872 24.7197 32.0725 24.6944 32.2529C24.7399 32.2579 24.7854 32.2679 24.8258 32.273C24.9168 31.8972 25.0079 31.5164 25.0989 31.1406C25.1191 31.1406 25.1393 31.1456 25.1646 31.1456C25.1292 31.5314 25.0989 31.9172 25.0635 32.303C25.0938 32.313 25.1292 32.3231 25.1595 32.3331C25.291 31.8771 25.4275 31.4212 25.5843 30.8801C25.5944 31.0955 25.5994 31.2258 25.6095 31.351C25.6247 31.3561 25.6399 31.3561 25.6601 31.3611C25.7005 31.2208 25.7461 31.0755 25.7865 30.9352C25.8118 30.9402 25.8371 30.9402 25.8573 30.9452C25.8573 31.1957 25.8573 31.4462 25.8573 31.6968C25.8876 31.7018 25.918 31.7068 25.9483 31.7118C26.014 31.4412 26.0798 31.1657 26.1455 30.8951C26.191 31.0304 26.191 31.1606 26.191 31.2909C26.1961 31.4262 26.2011 31.5615 26.2112 31.6968C26.2567 31.7018 26.3073 31.7018 26.3528 31.7068C26.4236 31.2508 26.4944 30.7949 26.5753 30.2788C26.1101 30.4191 25.7713 30.5394 25.4225 30.6245C25.0584 30.7147 24.6792 30.7448 24.3202 30.85C24.1028 30.9151 23.9157 31.0705 23.7691 31.1506C23.8601 31.351 23.9157 31.4713 23.9764 31.6016C24.0219 31.5364 24.0725 31.4713 24.1432 31.3811C24.1584 31.5665 24.1685 31.7118 24.1837 31.9573C24.305 31.7068 24.3758 31.5515 24.4517 31.3961C24.4719 31.4011 24.4921 31.4112 24.5174 31.4162C24.482 31.6767 24.4466 31.9423 24.4112 32.2028C24.4314 32.2078 24.4567 32.2128 24.477 32.2178C24.5831 31.8621 24.6994 31.5014 24.8107 31.1456ZM25.2758 28.0292C25.3011 28.3849 25.3213 28.7406 25.3466 29.0914C25.3871 29.7277 25.3871 29.7227 24.7449 29.8579C24.5174 29.903 24.2949 29.9832 23.9764 30.0734C24.1887 30.2087 24.2848 30.2738 24.4314 30.369C24.4668 30.2888 24.5022 30.2037 24.568 30.0383C24.6388 30.4792 24.6388 30.4792 24.2949 30.6145C24.3556 30.6446 24.4062 30.6947 24.4416 30.6847C24.9522 30.5845 25.4781 30.5093 25.9736 30.364C26.3073 30.2638 26.1809 29.9281 26.2011 29.6726C26.2163 29.4571 26.1202 29.387 25.9281 29.3769C25.918 29.3769 25.9028 29.3419 25.8927 29.3268C25.9584 29.2567 26.0241 29.1866 26.105 29.1014C25.9888 29.0763 25.9079 29.0563 25.827 29.0362C25.8623 29.0112 25.8977 28.9861 25.9382 28.9611C25.8927 28.8609 25.8421 28.7657 25.8472 28.7707C25.7764 28.3648 25.5843 28.1745 25.2758 28.0292ZM18.2579 22.8334C18.0708 22.9636 18.0202 23.2743 17.6916 23.1841C17.6461 23.1691 17.4893 23.4096 17.4539 23.5499C17.4388 23.605 17.6157 23.7553 17.7219 23.7753C17.9949 23.8204 18.3135 23.9056 18.5511 23.8204C19.3803 23.5248 20.1893 23.1691 20.9983 22.8233C21.059 22.7983 21.0843 22.6931 21.1247 22.6229C21.1095 22.6029 21.0893 22.5828 21.0741 22.5628C20.8972 22.6329 20.7152 22.7081 20.5331 22.7783C20.518 22.6881 20.5028 22.6129 20.4826 22.5127C19.8202 23.0989 19.4612 23.2292 18.9253 23.1139C18.9708 22.9436 19.0163 22.7783 19.0668 22.6079C19.0314 22.5929 19.0011 22.5828 18.9657 22.5678C18.7837 22.8885 18.6017 23.2091 18.4197 23.5298C18.4095 23.3845 18.4601 23.2693 18.5157 23.154C18.5663 23.0438 18.6168 22.9386 18.6725 22.8334C18.6472 22.8183 18.6219 22.8083 18.6017 22.7933C18.5005 22.8734 18.3994 22.9486 18.2932 23.0338C18.2781 22.9636 18.268 22.9085 18.2579 22.8334ZM22.7174 25.2634C22.8539 25.1331 22.9196 25.073 23.0511 24.9478C22.8084 25.0029 22.6618 25.0329 22.5101 25.068C22.505 25.053 22.4949 25.0379 22.4899 25.0179C22.591 24.9628 22.6871 24.9127 22.7174 24.8976C22.6668 24.8425 22.6011 24.7674 22.5202 24.6772C22.4292 24.7173 22.2775 24.7774 22.0298 24.8826C22.1612 24.6972 22.2219 24.6121 22.3382 24.4467C22.1208 24.5419 21.9944 24.602 21.7921 24.6922C21.9185 24.5169 21.9944 24.4167 22.0652 24.3164C22.05 24.3014 22.0399 24.2914 22.0247 24.2764C21.9034 24.3415 21.7871 24.4066 21.6607 24.4768C21.6455 24.4066 21.6354 24.3565 21.6303 24.3064C20.9781 24.6121 20.9477 24.6521 20.8517 25.2534C20.9831 25.2133 21.1298 25.1532 21.2865 25.1331C21.3118 25.1281 21.3573 25.2935 21.3977 25.3786C21.4028 25.3436 21.4129 25.3135 21.418 25.2784C22.1916 25.5039 22.9652 25.7294 23.8247 25.9749C23.6174 25.7594 23.4809 25.6141 23.3292 25.4638C23.3444 25.4488 23.3848 25.3937 23.4505 25.3085C23.309 25.3386 23.2079 25.3536 23.0713 25.3837C23.1522 25.2985 23.2079 25.2384 23.309 25.1281C23.0966 25.1782 22.9601 25.2083 22.7174 25.2634ZM14.5618 13.8046C14.6275 14.1453 14.6781 14.4209 14.7337 14.7015C14.7489 14.7015 14.7691 14.7015 14.7843 14.7015C14.8045 14.5762 14.8298 14.456 14.855 14.2856C14.9157 14.3808 14.9562 14.4409 15.0118 14.5361C15.1129 13.8898 14.0562 12.2113 13.3534 11.8856C13.414 12.2915 13.4697 12.6773 13.5455 13.1683C13.6365 12.9078 13.6871 12.7625 13.7326 12.6172C13.7528 12.6222 13.773 12.6322 13.7932 12.6372C13.7932 12.9428 13.7932 13.2485 13.7932 13.6042C13.8893 13.504 13.9348 13.4539 13.9904 13.3938C14.0208 13.6994 14.0461 13.97 14.0713 14.2455C14.1017 14.2455 14.132 14.2405 14.1623 14.2405C14.1826 13.99 14.1977 13.7445 14.218 13.494C14.2382 13.494 14.2534 13.494 14.2736 13.499C14.314 13.6643 14.3494 13.8247 14.3949 14.0151C14.4455 13.9499 14.4809 13.9048 14.5618 13.8046ZM16.4932 11.4548C17.0393 11.4848 17.6258 11.3445 17.9747 11.9408C18.0152 11.8406 18.0354 11.7804 18.0657 11.7053C18.1517 11.8205 18.2225 11.9107 18.2882 11.9909C18.364 11.9257 18.4247 11.8706 18.4904 11.8105C18.627 11.9708 18.7331 12.1011 18.8444 12.2314C18.8595 12.2013 18.8747 12.1662 18.8899 12.1362C19.3753 12.2063 19.7747 12.4719 20.1691 12.6923C20.3562 12.7074 20.5432 12.7274 20.7354 12.7424C19.7646 12.1712 18.8039 11.6802 17.8331 11.1992C17.3629 10.9738 16.9432 11.0539 16.4932 11.4548ZM13.9146 15.7837C13.9146 15.5633 13.8994 15.453 13.9197 15.3528C14.0258 14.7666 13.6365 14.4309 13.2674 14.0952C13.2168 14.0501 13.0399 14.0752 12.9691 14.1303C12.8831 14.1954 12.8427 14.3257 12.782 14.4259C12.4129 14.3007 12.2511 14.4009 12.0843 14.8568C13.2876 14.9821 13.5202 15.0923 13.9146 15.7837ZM18.2022 6.07859C19.2185 7.19591 20.4522 6.77504 21.5949 5.41722C21.1298 5.56252 20.7505 5.68277 20.3713 5.79801C20.3814 5.83308 20.3916 5.86315 20.4017 5.89822C20.4623 5.89822 20.5281 5.89822 20.5938 5.89822C19.8404 6.61972 19.0264 6.34916 18.2022 6.07859ZM23.8298 18.339C23.8803 18.2238 23.9107 18.0885 23.9916 17.9983C24.2545 17.7027 24.482 17.3169 24.8157 17.1666C25.3618 16.9161 25.7157 16.5002 26.0899 16.0844C26.2314 15.929 26.2466 15.6635 26.3225 15.448C26.1758 15.443 26.1 15.4731 26.0545 15.5282C25.5539 16.1796 24.9219 16.6706 24.2696 17.1616C23.9461 17.4021 23.6882 17.833 23.8298 18.339ZM33.2039 36.5719C33.0421 36.1961 32.9005 35.8504 32.7388 35.5147C32.6831 35.3994 32.5921 35.2992 32.5163 35.194C32.4354 35.2992 32.2685 35.4195 32.2837 35.4997C32.3747 35.9205 32.5011 36.3364 32.6326 36.7422C32.6882 36.9176 32.7843 37.0779 32.8803 37.2383C32.9309 37.3284 33.0118 37.4036 33.0775 37.4838C33.1483 37.3886 33.2393 37.2984 33.2798 37.1932C33.3202 37.0679 33.3152 36.9276 33.3303 36.7573C33.2899 36.7322 33.2039 36.6871 33.1129 36.632C33.1736 36.5869 33.2292 36.5568 33.2039 36.5719ZM22.773 15.7887C23.1017 15.5683 23.3696 15.3929 23.6427 15.2126C23.6477 14.4911 23.6427 14.476 23.2635 14.2656C23.2584 14.3558 23.2483 14.4409 23.2432 14.5412C23.1522 14.4359 23.0814 14.3508 23.0208 14.2806C22.6365 14.7265 22.6213 15.2226 22.773 15.7887ZM20.9528 7.12577C20.9831 7.18088 21.0084 7.24101 21.0388 7.29612C21.4382 7.10573 21.8477 6.93036 22.232 6.71992C22.3382 6.6598 22.3786 6.48945 22.4494 6.37421C22.323 6.35417 22.2017 6.3241 22.0753 6.31408C21.9843 6.30406 21.8882 6.31408 21.7921 6.32911C21.1904 6.4193 20.6292 6.59968 20.2399 7.13078C20.7708 6.93036 21.3067 6.73496 21.8376 6.53454C21.8477 6.55959 21.8528 6.57963 21.8629 6.60469C21.5595 6.77504 21.2562 6.9504 20.9528 7.12577ZM25.6348 16.9111C24.8511 17.3119 24.5022 17.9733 24.3253 18.7449C24.3556 18.7699 24.3859 18.8 24.4163 18.825C24.482 18.7048 24.5528 18.5795 24.6185 18.4593C24.6337 18.4743 24.6539 18.4944 24.6691 18.5094C24.6286 18.6296 24.5932 18.7499 24.5275 18.9453C24.9826 18.6046 25.5084 17.6075 25.6348 16.9111ZM23.6022 12.3767C23.8702 12.3416 24.1786 12.3767 24.3961 12.2564C24.6539 12.1111 24.9775 11.9859 25.0837 11.6351C25.109 11.555 25.2556 11.4998 25.3567 11.4648C25.5994 11.3796 25.8522 11.3145 26.1303 11.2343C25.473 10.9186 24.1382 11.5449 23.6022 12.3767ZM23.041 21.0096C23.0764 21.0296 23.1118 21.0497 23.1421 21.0697C23.2079 21.0346 23.2736 20.9996 23.3343 20.9595C23.7034 20.724 24.0623 20.4835 24.4314 20.248C24.7247 20.0626 25.0432 19.9123 25.3163 19.7019C25.473 19.5816 25.5691 19.3762 25.6904 19.2058C25.6601 19.1808 25.6247 19.1557 25.5944 19.1257C25.5185 19.1658 25.4225 19.1908 25.3668 19.2559C24.9775 19.7269 24.4668 19.9875 23.8955 20.1779C23.6629 20.258 23.4404 20.4033 23.2534 20.5687C23.1421 20.6689 23.1118 20.8593 23.041 21.0096ZM15.1534 26.501C15.1837 26.526 15.214 26.5561 15.2444 26.5811C15.6489 26.4609 16.0483 26.3056 16.4629 26.2254C16.7865 26.1653 17.1303 26.2054 17.464 26.1803C17.5399 26.1753 17.6056 26.0901 17.6764 26.045C17.6157 25.9899 17.55 25.8897 17.4893 25.8847C16.8219 25.8647 16.1393 25.7795 15.5326 26.1603C15.391 26.2555 15.2798 26.3907 15.1534 26.501ZM25.3011 19.0455C25.6955 18.81 26.2567 16.9061 26.0697 16.4802C25.6753 17.2919 25.3314 18.0985 25.3011 19.0455ZM8.99493 42.429C8.95954 42.4591 8.92414 42.4841 8.8837 42.5142C8.94437 42.7998 8.99999 43.0804 9.06066 43.366C9.16179 43.857 9.49044 43.9873 9.99605 43.6816C9.59156 43.3159 9.44493 42.7547 8.99493 42.429ZM9.88987 5.97338C9.85448 5.99843 9.81403 6.02849 9.77864 6.05354C10.3247 6.8502 10.8708 7.64685 11.427 8.43348C11.4623 8.48359 11.5786 8.47857 11.6545 8.49862C11.6595 8.40843 11.705 8.28317 11.6595 8.22806C11.073 7.47148 10.4814 6.72494 9.88987 5.97338ZM14.0461 10.2923C13.773 9.99673 13.4545 9.85643 13.1865 10.0418C12.9388 10.2122 12.7466 10.5228 12.6303 10.8134C12.5494 11.0188 12.6708 11.2694 12.9489 11.3746C13.0298 10.4877 13.0298 10.4877 14.0461 10.2923ZM36.2882 27.3277C36.3337 27.3427 36.3741 27.3578 36.4196 27.3728C36.4753 27.2024 36.5309 27.0321 36.5814 26.8667C37.1326 26.7916 37.3601 26.4759 37.2489 25.9098C37.1579 26.02 37.077 26.1202 36.9455 26.2805C36.9758 26.0701 36.9961 25.9398 37.0163 25.7995C36.2831 26.1152 36.3893 26.7615 36.2882 27.3277ZM21.9438 8.74914C22.0803 8.74914 22.1713 8.74413 22.2623 8.74914C22.7174 8.78421 22.7781 8.71907 22.7831 8.25311C22.7831 7.99257 22.7326 7.8172 22.414 7.82722C22.1107 7.84225 21.9337 7.9625 21.9438 8.28317C21.9489 8.42346 21.9438 8.56876 21.9438 8.74914ZM33.9623 26.4108C33.8814 26.9369 34.1646 28.6655 34.3567 28.8008C34.5893 28.2246 34.3618 26.8317 33.9623 26.4108ZM40.2573 35.5698C40.0146 35.3493 39.8275 35.179 39.6354 35.0036C39.1348 35.5848 39.1449 35.8404 39.6961 36.2362C39.7618 36.0608 39.8275 35.9005 39.9084 35.685C39.9489 35.675 40.0601 35.6349 40.2573 35.5698ZM29.2095 10.6531C29.7101 10.7683 30.2006 10.8836 30.7112 10.9988C30.4685 10.5579 29.3764 10.2222 28.7899 10.4176C28.9264 10.613 29.0477 10.7884 29.1741 10.9637C29.1994 10.9537 29.2247 10.9387 29.2449 10.9287C29.2399 10.8485 29.2247 10.7633 29.2095 10.6531ZM25.1241 18.6747C24.6994 19.0756 24.2949 19.4564 23.8753 19.8522C24.5579 20.0175 25.2303 19.3662 25.1241 18.6747ZM14.2432 40.7405C14.2432 40.49 14.2432 40.3347 14.2432 40.1042C14.3545 40.2295 14.4152 40.3046 14.4758 40.3698C14.6073 40.1994 14.7388 40.0341 14.8955 39.8286C14.3646 39.6282 14.041 39.9188 13.7123 40.1443C13.6112 40.2144 13.591 40.4098 13.5354 40.5451C13.8034 40.2946 13.95 40.3146 14.2432 40.7405ZM33.8258 22.6931C33.7753 23.4897 33.7247 24.2814 33.6741 25.078C34.0129 24.7273 34.109 23.0789 33.8258 22.6931ZM20.8668 10.2523C20.7556 10.9337 21.4736 12.1312 21.9236 11.9909C21.5646 11.3996 21.2005 10.8034 20.8668 10.2523ZM17.3983 39.5481C16.8472 39.1773 15.9067 39.2675 15.5932 39.7234C15.7803 39.6683 15.9421 39.6182 16.109 39.5681C16.1039 39.6533 16.0989 39.7084 16.0888 39.8086C16.2152 39.6733 16.3011 39.5781 16.4225 39.4478C16.4225 39.5581 16.4225 39.6182 16.4225 39.6883C16.5084 39.6382 16.5843 39.5982 16.6803 39.543C16.6702 39.6332 16.6652 39.6934 16.6601 39.7535C17.0241 39.523 17.0697 39.538 17.1758 39.9188C17.2517 39.7936 17.3174 39.6833 17.3983 39.5481ZM18.6826 7.26606C19.1882 7.56668 20.0579 7.24101 20.3865 6.64978C19.8253 6.8502 19.2691 7.05061 18.6826 7.26606ZM12.7416 42.0132C12.7719 42.0282 12.7972 42.0482 12.8275 42.0633C12.8225 41.9581 12.8174 41.8528 12.8123 41.7376C12.9135 41.7727 12.9792 41.7927 13.05 41.8178C13.05 41.5322 13.05 41.2817 13.05 41.0161C12.5646 41.2265 12.3472 41.7576 12.514 42.2236C12.5848 42.1585 12.6657 42.0833 12.7416 42.0132ZM21.6 29.5724C21.691 28.5753 21.782 27.5732 21.873 26.5761C21.8376 26.5761 21.8022 26.5711 21.7668 26.5711C21.5191 27.5532 21.4888 28.5552 21.6 29.5724ZM40.7275 27.8738C40.7275 28.1594 40.682 28.3949 40.7376 28.5953C40.8084 28.8258 40.9702 29.0262 41.1269 29.2968C41.3444 28.5753 41.2382 28.1744 40.7275 27.8738ZM21.3371 19.4363C21.6101 19.5966 21.7921 19.6768 21.9438 19.8021C22.05 19.8873 22.1056 20.0326 22.1814 20.1478C22.2522 20.0175 22.3281 19.8873 22.3888 19.757C22.4241 19.6768 22.4444 19.5866 22.4899 19.4363C22.1157 19.4363 21.777 19.4363 21.3371 19.4363ZM21.4432 5.86315C22.0095 5.793 22.5657 5.72286 23.0916 5.65772C22.768 5.2619 21.868 5.34708 21.4432 5.86315ZM24.3657 17.8881C23.941 18.2138 23.8652 18.6597 23.7539 19.0856C23.7388 19.1457 23.8449 19.2409 23.8955 19.3211C23.9663 19.2559 24.0775 19.2058 24.0977 19.1307C24.1938 18.7449 24.2696 18.3491 24.3657 17.8881ZM34.1798 25.8095C33.9876 25.6191 33.8511 25.4839 33.7146 25.3486C33.6236 25.4738 33.4416 25.6191 33.4668 25.7143C33.5123 25.8897 33.6792 26.03 33.7955 26.1853C33.9017 26.0851 34.0079 25.9799 34.1798 25.8095ZM35.8685 27.6884C35.909 27.6935 35.9444 27.7035 35.9848 27.7085C36.0202 27.2976 36.0556 26.8918 36.0961 26.4859C35.9343 26.4559 35.7927 26.4258 35.5753 26.3807C35.6764 26.8367 35.7725 27.2626 35.8685 27.6884ZM22.9753 7.85228C22.9146 8.70404 22.9298 8.74413 23.3393 8.83431C23.5314 8.36835 23.405 7.99758 22.9753 7.85228ZM38.6747 25.053C38.6191 24.9177 38.5938 24.7022 38.4725 24.582C38.3814 24.4968 38.1185 24.4668 38.0174 24.5319C37.7899 24.6772 37.8101 24.9077 37.9314 25.053C38.2045 25.053 38.427 25.053 38.6747 25.053ZM29.5837 43.396C29.4219 43.7969 29.5028 44.1276 29.7859 44.3931C29.8719 44.4733 30.0236 44.4783 30.1399 44.5184C30.155 44.4783 30.1702 44.4432 30.1854 44.4031C29.9882 44.0674 29.7859 43.7317 29.5837 43.396ZM24.3455 23.5298C24.6236 23.0388 24.8511 22.6329 25.1241 22.1469C24.482 22.4776 24.2191 22.9185 24.3455 23.5298ZM12.8427 40.6303C12.8831 40.6554 12.9236 40.6754 12.964 40.7004C13.0854 40.5101 13.2017 40.3247 13.323 40.1343C13.1107 40.1092 12.8983 40.0541 12.691 40.0792C12.5646 40.0942 12.4534 40.2345 12.332 40.3146C12.3472 40.3347 12.3623 40.3597 12.3775 40.3798C12.4432 40.3647 12.514 40.3497 12.5848 40.3347C12.5798 40.4098 12.5747 40.465 12.5646 40.5702C12.7062 40.465 12.8123 40.3898 12.9489 40.2896C12.9034 40.4249 12.873 40.5251 12.8427 40.6303ZM25.7359 11.6401C25.2101 11.7904 24.9219 12.1863 24.6286 12.6071C25.2758 12.5771 25.3668 11.9558 25.7359 11.6401ZM22.682 6.97044C22.2067 7.01554 22.0702 7.24602 22.1107 7.55165C22.1157 7.61178 22.3483 7.64184 22.4747 7.68192C22.5404 7.44643 22.6112 7.21094 22.682 6.97044ZM21.9286 28.7506C22.0399 28.0191 22.1461 27.2876 22.2573 26.5561C22.2017 26.5511 22.1511 26.5461 22.0955 26.5361C21.9438 27.2676 21.8932 28.0041 21.9286 28.7506ZM24.8713 35.7351C24.841 35.7752 24.8107 35.8153 24.7803 35.8554C25.2303 36.2011 25.6803 36.5418 26.1303 36.8875C26.1708 36.8324 26.2112 36.7773 26.2517 36.7222C25.7966 36.3965 25.3314 36.0658 24.8713 35.7351ZM19.8758 45.796C20.1286 45.3501 19.623 45.1948 19.6028 44.8641C19.2034 45.2098 19.2489 45.3651 19.8758 45.796ZM30.7112 46.262C30.5494 46.0816 30.3927 45.9113 30.2359 45.7409C30.1904 45.7409 30.1449 45.7409 30.1045 45.7409C30.0741 45.8912 29.973 46.1017 30.0337 46.1818C30.1904 46.3872 30.418 46.5726 30.7112 46.262ZM5.81459 31.1907C5.76909 31.1707 5.72864 31.1506 5.68313 31.1256C5.45561 31.4813 5.23313 31.8371 5.0056 32.1978C5.041 32.2178 5.07639 32.2429 5.11178 32.2629C5.37471 31.9222 5.82471 31.6968 5.81459 31.1907ZM11.164 40.1693C11.2702 40.2545 11.3511 40.3247 11.4573 40.4098C11.5837 40.2896 11.7303 40.1493 11.8871 40.004C11.4168 39.6984 11.2601 39.7535 11.164 40.1693ZM22.8792 6.66982C22.8792 6.42431 22.9449 6.21387 22.864 6.09864C22.6921 5.84311 22.4191 5.83308 22.1814 5.93329C22.3786 6.14373 22.5708 6.34414 22.8792 6.66982ZM19.9365 24.8225C20.4421 24.8475 20.791 24.602 20.8517 24.1862C20.5432 24.4016 20.2399 24.6121 19.9365 24.8225ZM18.9657 47.1037C19.1174 47.3793 19.4916 47.5246 19.7646 47.4094C19.5118 46.9284 19.4309 46.8933 18.9657 47.1037ZM14.7135 42.9902C14.5668 42.875 14.4202 42.7347 14.405 42.7497C14.2837 42.8499 14.1775 42.9752 14.1017 43.1054C14.0916 43.1255 14.2837 43.3159 14.3241 43.2958C14.4505 43.2457 14.5517 43.1305 14.7135 42.9902ZM29.5685 38.541C29.7505 37.9998 29.5989 37.614 29.1489 37.3886C29.2854 37.7593 29.4118 38.1101 29.5685 38.541ZM19.8303 11.5049C19.4865 11.4197 19.1477 11.3395 18.8039 11.2543C18.7938 11.2894 18.7837 11.3245 18.7736 11.3596C19.0719 11.5049 19.3753 11.6502 19.6736 11.7955C19.714 11.7253 19.7595 11.6351 19.8303 11.5049ZM18.9303 36.0708C19.0011 35.4946 18.8039 35.3243 18.2629 35.4696C18.4955 35.675 18.6876 35.8504 18.9303 36.0708ZM31.8034 35.5648C31.8185 35.2191 32.3191 35.0888 32.1876 34.5978C31.7932 34.8633 31.6921 35.169 31.8034 35.5648ZM29.3713 38.9067C29.4168 38.8917 29.4623 38.8767 29.5079 38.8566C29.4876 38.4758 29.3612 38.1451 28.891 37.8696C29.0781 38.2804 29.2247 38.5961 29.3713 38.9067ZM31.6466 46.758C31.6567 46.7981 31.6719 46.8382 31.682 46.8833C31.9348 46.9284 32.1927 46.9785 32.4455 47.0236C32.4253 46.8682 32.3494 46.7079 32.2584 46.6979C32.0562 46.6728 31.8489 46.733 31.6466 46.758ZM18.6421 36.1109C18.4449 35.9606 18.2781 35.8354 18.1163 35.7101C18.0758 35.7702 17.9949 35.8654 18.005 35.8804C18.1365 36.0207 18.2831 36.146 18.4348 36.2662C18.45 36.2713 18.5359 36.1861 18.6421 36.1109ZM34.923 17.6927C34.7461 17.5324 34.5691 17.367 34.3921 17.2067C34.3618 17.2418 34.3314 17.2768 34.2961 17.3119C34.3466 17.6175 34.5236 17.7929 34.923 17.6927ZM26.3376 38.9769C26.2972 39.3777 26.2668 39.6934 26.2314 40.009C26.464 39.7084 26.6005 39.3977 26.3376 38.9769ZM16.6955 23.0288C16.7562 23.0638 16.8118 23.0989 16.8725 23.134C16.9888 22.9386 17.105 22.7382 17.2213 22.5428C17.1708 22.5127 17.1202 22.4826 17.0696 22.4526C16.9432 22.643 16.8168 22.8384 16.6955 23.0288ZM22.9197 7.71699C22.9601 7.73203 23.0056 7.74706 23.0461 7.7671C23.0916 7.67691 23.1876 7.57169 23.1623 7.50155C23.1118 7.35625 22.9955 7.236 22.9095 7.10573C22.8792 7.12577 22.8489 7.14581 22.8135 7.16585C22.8539 7.35124 22.8893 7.53662 22.9197 7.71699ZM26.4286 30.0383C26.6713 29.6325 26.6157 29.422 26.2466 29.2868C26.3073 29.5323 26.3629 29.7678 26.4286 30.0383ZM29.4421 37.0278C29.4017 37.0579 29.3612 37.0829 29.3208 37.113C29.4725 37.3735 29.6292 37.6291 29.7809 37.8896C29.8264 37.8596 29.8719 37.8295 29.9225 37.8044C29.7657 37.5439 29.6039 37.2834 29.4421 37.0278Z" fill="#3B3B3B"/>
<path d="M0 2C0.00505618 2.18538 0.0202247 2.37077 0.0202247 2.56116C0.0202247 16.1293 0.0202247 29.6975 0.0252809 43.2707C0.0252809 45.0193 0.455056 46.6577 1.49663 48.0907C3.04888 50.2251 5.26854 51.2021 7.82697 51.3775C9.97079 51.5228 12.1298 51.4376 14.2837 51.4827C15.0219 51.4977 15.7652 51.5428 16.4933 51.653C18.9101 52.0138 20.8719 53.1963 22.4646 55.005H22.5455C23.4202 54.018 24.4163 53.1812 25.6045 52.58C27.1719 51.7833 28.8506 51.4777 30.5949 51.4777C32.218 51.4727 33.841 51.4877 35.4691 51.4727H35.5298C35.5399 51.4727 35.55 51.4727 35.5601 51.4727C35.9444 51.4627 37.4309 51.4075 38.877 51.0969C38.9478 51.0819 39.0185 51.0668 39.0893 51.0518C39.6607 50.9165 40.2169 50.7462 40.6871 50.5157C40.9803 50.3704 41.2433 50.205 41.4506 50.0147C43.3618 48.8222 44.4388 47.0485 44.8433 44.8189C44.9039 44.4782 44.9545 44.1375 45.0101 43.7967V2H0ZM42.6843 47.9654C42.2545 48.4714 41.7388 48.9424 41.1775 49.3132C41.1775 49.3132 41.1775 49.3132 41.1725 49.3182C41.0562 49.3783 39.6809 50.0948 38.0326 50.4856C37.8607 50.5257 37.6888 50.5608 37.5169 50.5959C37.2893 50.6359 37.0618 50.671 36.8343 50.7011C36.3742 50.7061 35.9191 50.7111 35.464 50.7161C33.8612 50.7311 32.2534 50.7562 30.6506 50.7712C29.3916 50.7863 28.1579 50.9215 26.9494 51.2873C25.4022 51.7533 24.0522 52.5549 22.8843 53.6572C22.768 53.7674 22.6517 53.8727 22.5455 53.9679C21.8831 53.4568 21.2663 52.9207 20.5938 52.4697C19.1478 51.5027 17.5247 50.9466 15.7955 50.8664C13.6315 50.7662 11.4624 50.7913 9.29831 50.7762C7.68034 50.7662 6.10281 50.5457 4.63652 49.8243C2.36629 48.6969 1.15281 46.833 0.808989 44.383C0.743258 43.922 0.733146 43.451 0.733146 42.9851C0.72809 29.7376 0.733146 16.4901 0.733146 3.23757V2.73152H44.2871V3.17744C44.2871 16.44 44.2871 29.7025 44.2871 42.96C44.282 44.7988 43.9079 46.5324 42.6843 47.9654Z" fill="#3B3B3B"/>
</g>
<path d="M69.4175 6.15204C69.4175 7.68043 68.8755 8.88445 67.7916 9.7641C66.7187 10.6327 65.2132 11.0946 63.2753 11.1495V12.3371H62.1422V11.1495C60.2043 11.0836 58.6934 10.6163 57.6094 9.7476C56.5365 8.87895 56 7.68043 56 6.15204C56 4.62365 56.5365 3.42513 57.6094 2.55648C58.6934 1.68783 60.2043 1.22051 62.1422 1.15454V0H63.2753V1.15454C65.2023 1.22051 66.7077 1.69332 67.7916 2.57297C68.8755 3.44162 69.4175 4.63465 69.4175 6.15204ZM63.2753 10.1764C64.8629 10.1105 66.0891 9.73111 66.9541 9.03838C67.819 8.34566 68.2515 7.38355 68.2515 6.15204C68.2515 4.92053 67.8135 3.95842 66.9376 3.26569C66.0727 2.57297 64.8519 2.19912 63.2753 2.14414V10.1764ZM57.166 6.15204C57.166 7.38355 57.5985 8.34566 58.4634 9.03838C59.3393 9.72011 60.5656 10.0995 62.1422 10.1764V2.14414C60.5437 2.21012 59.3119 2.58946 58.447 3.28219C57.593 3.96391 57.166 4.92053 57.166 6.15204Z" fill="#3B3B3B"/>
<path d="M75.461 12.0237C74.6289 12.0237 73.8789 11.8368 73.211 11.4629C72.5432 11.0781 72.0176 10.5503 71.6344 9.87955C71.2512 9.20882 71.0596 8.45012 71.0596 7.60346C71.0596 6.7568 71.2512 5.9981 71.6344 5.32737C72.0176 4.65664 72.5432 4.13435 73.211 3.7605C73.8789 3.38665 74.6289 3.19972 75.461 3.19972C76.2931 3.19972 77.043 3.38665 77.7109 3.7605C78.3788 4.13435 78.8988 4.65664 79.2711 5.32737C79.6543 5.9981 79.8459 6.7568 79.8459 7.60346C79.8459 8.45012 79.6543 9.20882 79.2711 9.87955C78.8988 10.5503 78.3788 11.0781 77.7109 11.4629C77.043 11.8368 76.2931 12.0237 75.461 12.0237ZM75.461 10.9846C76.0741 10.9846 76.6215 10.8472 77.1033 10.5723C77.5959 10.2864 77.9791 9.88505 78.2529 9.36825C78.5266 8.85146 78.6634 8.2632 78.6634 7.60346C78.6634 6.94372 78.5266 6.35546 78.2529 5.83866C77.9791 5.32187 77.5959 4.92603 77.1033 4.65114C76.6215 4.36525 76.0741 4.22231 75.461 4.22231C74.8479 4.22231 74.295 4.36525 73.8023 4.65114C73.3205 4.92603 72.9373 5.32187 72.6527 5.83866C72.3789 6.35546 72.2421 6.94372 72.2421 7.60346C72.2421 8.2632 72.3789 8.85146 72.6527 9.36825C72.9373 9.88505 73.3205 10.2864 73.8023 10.5723C74.295 10.8472 74.8479 10.9846 75.461 10.9846Z" fill="#3B3B3B"/>
<path d="M82.3379 3.26569H83.5039V7.10866H88.9399V3.26569H90.1059V11.9412H88.9399V8.11475H83.5039V11.9412H82.3379V3.26569Z" fill="#3B3B3B"/>
<path d="M101.845 10.9186V14.0359H100.745V11.9412H93.0096V14.0359H91.9092V10.9186H92.4019C92.9822 10.8856 93.3764 10.4568 93.5844 9.63215C93.7924 8.80748 93.9347 7.65294 94.0114 6.16853L94.1263 3.26569H100.498V10.9186H101.845ZM95.0789 6.23451C95.0241 7.46601 94.9201 8.48311 94.7668 9.28579C94.6135 10.0775 94.3398 10.6218 93.9457 10.9186H99.3324V4.30478H95.1774L95.0789 6.23451Z" fill="#3B3B3B"/>
<path d="M59.9743 28.0113H58.0036V31.8708H56.8376V23.1952H58.0036V27.0052H59.9908L63.029 23.1952H64.2935L60.894 27.401L64.5399 31.8708H63.1604L59.9743 28.0113Z" fill="#3B3B3B"/>
<path d="M69.1923 23.1292C70.32 23.1292 71.185 23.4151 71.7871 23.9869C72.3893 24.5477 72.6904 25.3833 72.6904 26.4939V31.8708H71.5736V30.5183C71.3109 30.9691 70.9222 31.321 70.4076 31.5739C69.904 31.8268 69.3018 31.9532 68.6011 31.9532C67.6376 31.9532 66.8712 31.7223 66.3019 31.2605C65.7326 30.7987 65.4479 30.1884 65.4479 29.4297C65.4479 28.693 65.7107 28.0993 66.2362 27.6484C66.7727 27.1976 67.6212 26.9722 68.7817 26.9722H71.5244V26.4444C71.5244 25.6967 71.3163 25.1304 70.9003 24.7456C70.4842 24.3498 69.8766 24.1518 69.0774 24.1518C68.5299 24.1518 68.0044 24.2453 67.5008 24.4322C66.9971 24.6082 66.5647 24.8556 66.2034 25.1744L65.6778 24.3003C66.1158 23.9264 66.6413 23.6405 67.2544 23.4426C67.8675 23.2337 68.5135 23.1292 69.1923 23.1292ZM68.7817 31.0296C69.4387 31.0296 70.0025 30.8811 70.4733 30.5843C70.9441 30.2764 71.2944 29.8366 71.5244 29.2648V27.8464H68.8146C67.3365 27.8464 66.5975 28.3632 66.5975 29.3967C66.5975 29.9025 66.7891 30.3039 67.1723 30.6008C67.5555 30.8866 68.092 31.0296 68.7817 31.0296Z" fill="#3B3B3B"/>
<path d="M83.546 23.1952V31.8708H82.38V24.2343H76.9605V31.8708H75.7944V23.1952H83.546Z" fill="#3B3B3B"/>
<path d="M86.8606 23.1952H88.0267V30.0895L93.7911 23.1952H94.8257V31.8708H93.6597V24.9765L87.9117 31.8708H86.8606V23.1952Z" fill="#3B3B3B"/>
<path d="M104.244 24.2343H100.976V31.8708H99.8097V24.2343H96.5415V23.1952H104.244V24.2343Z" fill="#3B3B3B"/>
<path d="M108.902 23.1292C110.03 23.1292 110.895 23.4151 111.497 23.9869C112.099 24.5477 112.4 25.3833 112.4 26.4939V31.8708H111.284V30.5183C111.021 30.9691 110.632 31.321 110.118 31.5739C109.614 31.8268 109.012 31.9532 108.311 31.9532C107.348 31.9532 106.581 31.7223 106.012 31.2605C105.443 30.7987 105.158 30.1884 105.158 29.4297C105.158 28.693 105.421 28.0993 105.946 27.6484C106.483 27.1976 107.331 26.9722 108.492 26.9722H111.234V26.4444C111.234 25.6967 111.026 25.1304 110.61 24.7456C110.194 24.3498 109.587 24.1518 108.787 24.1518C108.24 24.1518 107.714 24.2453 107.211 24.4322C106.707 24.6082 106.275 24.8556 105.913 25.1744L105.388 24.3003C105.826 23.9264 106.351 23.6405 106.964 23.4426C107.578 23.2337 108.223 23.1292 108.902 23.1292ZM108.492 31.0296C109.149 31.0296 109.712 30.8811 110.183 30.5843C110.654 30.2764 111.004 29.8366 111.234 29.2648V27.8464H108.525C107.047 27.8464 106.307 28.3632 106.307 29.3967C106.307 29.9025 106.499 30.3039 106.882 30.6008C107.265 30.8866 107.802 31.0296 108.492 31.0296Z" fill="#3B3B3B"/>
<path d="M122.566 23.1952V31.8708H121.4V24.2343H117.262L117.147 26.3785C117.059 28.1817 116.851 29.5672 116.523 30.5348C116.194 31.5024 115.608 31.9862 114.765 31.9862C114.535 31.9862 114.256 31.9422 113.928 31.8543L114.01 30.8482C114.207 30.8921 114.344 30.9141 114.421 30.9141C114.869 30.9141 115.209 30.7052 115.439 30.2874C115.669 29.8696 115.822 29.3528 115.899 28.737C115.975 28.1213 116.041 27.3076 116.096 26.296L116.243 23.1952H122.566Z" fill="#3B3B3B"/>
<path d="M129.593 26.263C130.676 26.274 131.498 26.5159 132.056 26.9887C132.625 27.4615 132.91 28.1432 132.91 29.0339C132.91 29.9575 132.603 30.6667 131.99 31.1615C131.388 31.6563 130.512 31.8982 129.363 31.8872L125.881 31.8708V23.1952H127.047V26.23L129.593 26.263ZM129.297 30.9966C130.096 31.0076 130.698 30.8482 131.103 30.5183C131.52 30.1774 131.728 29.6826 131.728 29.0339C131.728 28.3961 131.525 27.9233 131.12 27.6155C130.715 27.3076 130.107 27.1481 129.297 27.1371L127.047 27.1042V30.9636L129.297 30.9966Z" fill="#3B3B3B"/>
<path d="M135.135 23.1952H136.301V27.0382H141.737V23.1952H142.903V31.8708H141.737V28.0443H136.301V31.8708H135.135V23.1952Z" fill="#3B3B3B"/>
<path d="M149.781 31.9532C148.949 31.9532 148.199 31.7663 147.531 31.3924C146.863 31.0076 146.338 30.4798 145.954 29.8091C145.571 29.1383 145.38 28.3796 145.38 27.533C145.38 26.6863 145.571 25.9276 145.954 25.2569C146.338 24.5862 146.863 24.0639 147.531 23.69C148.199 23.3162 148.949 23.1292 149.781 23.1292C150.613 23.1292 151.363 23.3162 152.031 23.69C152.699 24.0639 153.219 24.5862 153.591 25.2569C153.974 25.9276 154.166 26.6863 154.166 27.533C154.166 28.3796 153.974 29.1383 153.591 29.8091C153.219 30.4798 152.699 31.0076 152.031 31.3924C151.363 31.7663 150.613 31.9532 149.781 31.9532ZM149.781 30.9141C150.394 30.9141 150.941 30.7767 151.423 30.5018C151.916 30.2159 152.299 29.8146 152.573 29.2978C152.846 28.781 152.983 28.1927 152.983 27.533C152.983 26.8732 152.846 26.285 152.573 25.7682C152.299 25.2514 151.916 24.8556 151.423 24.5807C150.941 24.2948 150.394 24.1518 149.781 24.1518C149.168 24.1518 148.615 24.2948 148.122 24.5807C147.64 24.8556 147.257 25.2514 146.973 25.7682C146.699 26.285 146.562 26.8732 146.562 27.533C146.562 28.1927 146.699 28.781 146.973 29.2978C147.257 29.8146 147.64 30.2159 148.122 30.5018C148.615 30.7767 149.168 30.9141 149.781 30.9141Z" fill="#3B3B3B"/>
<path d="M162.767 24.2343H157.824V31.8708H156.658V23.1952H162.767V24.2343Z" fill="#3B3B3B"/>
<path d="M167.615 31.9532C166.783 31.9532 166.033 31.7663 165.365 31.3924C164.697 31.0076 164.172 30.4798 163.789 29.8091C163.405 29.1383 163.214 28.3796 163.214 27.533C163.214 26.6863 163.405 25.9276 163.789 25.2569C164.172 24.5862 164.697 24.0639 165.365 23.69C166.033 23.3162 166.783 23.1292 167.615 23.1292C168.447 23.1292 169.197 23.3162 169.865 23.69C170.533 24.0639 171.053 24.5862 171.425 25.2569C171.808 25.9276 172 26.6863 172 27.533C172 28.3796 171.808 29.1383 171.425 29.8091C171.053 30.4798 170.533 31.0076 169.865 31.3924C169.197 31.7663 168.447 31.9532 167.615 31.9532ZM167.615 30.9141C168.228 30.9141 168.776 30.7767 169.257 30.5018C169.75 30.2159 170.133 29.8146 170.407 29.2978C170.681 28.781 170.818 28.1927 170.818 27.533C170.818 26.8732 170.681 26.285 170.407 25.7682C170.133 25.2514 169.75 24.8556 169.257 24.5807C168.776 24.2948 168.228 24.1518 167.615 24.1518C167.002 24.1518 166.449 24.2948 165.956 24.5807C165.475 24.8556 165.091 25.2514 164.807 25.7682C164.533 26.285 164.396 26.8732 164.396 27.533C164.396 28.1927 164.533 28.781 164.807 29.2978C165.091 29.8146 165.475 30.2159 165.956 30.5018C166.449 30.7767 167.002 30.9141 167.615 30.9141Z" fill="#3B3B3B"/>
<path d="M61.2882 43.0588C62.0984 43.0588 62.8319 43.2457 63.4888 43.6196C64.1457 43.9824 64.6603 44.4992 65.0326 45.1699C65.4048 45.8407 65.591 46.6049 65.591 47.4625C65.591 48.3312 65.4048 49.1009 65.0326 49.7716C64.6603 50.4423 64.1457 50.9646 63.4888 51.3385C62.8429 51.7013 62.1093 51.8827 61.2882 51.8827C60.5875 51.8827 59.9524 51.7398 59.3831 51.4539C58.8247 51.157 58.3649 50.7282 58.0036 50.1674V55H56.8376V43.1247H57.9543V44.8401C58.3047 44.2683 58.7645 43.8285 59.3338 43.5206C59.9141 43.2127 60.5656 43.0588 61.2882 43.0588ZM61.2061 50.8437C61.8082 50.8437 62.3557 50.7062 62.8483 50.4313C63.341 50.1454 63.7242 49.7441 63.9979 49.2273C64.2826 48.7105 64.4249 48.1223 64.4249 47.4625C64.4249 46.8028 64.2826 46.22 63.9979 45.7142C63.7242 45.1974 63.341 44.7961 62.8483 44.5102C62.3557 44.2243 61.8082 44.0814 61.2061 44.0814C60.5929 44.0814 60.04 44.2243 59.5473 44.5102C59.0656 44.7961 58.6824 45.1974 58.3977 45.7142C58.124 46.22 57.9872 46.8028 57.9872 47.4625C57.9872 48.1223 58.124 48.7105 58.3977 49.2273C58.6824 49.7441 59.0656 50.1454 59.5473 50.4313C60.04 50.7062 60.5929 50.8437 61.2061 50.8437Z" fill="#3B3B3B"/>
<path d="M75.6507 47.8254H68.4247C68.4904 48.727 68.8352 49.4582 69.4593 50.019C70.0834 50.5688 70.8717 50.8437 71.8242 50.8437C72.3607 50.8437 72.8534 50.7502 73.3023 50.5633C73.7512 50.3654 74.1398 50.0795 74.4683 49.7056L75.1252 50.4643C74.742 50.9261 74.2603 51.278 73.68 51.5199C73.1107 51.7618 72.4811 51.8827 71.7914 51.8827C70.9045 51.8827 70.1162 51.6958 69.4265 51.322C68.7477 50.9371 68.2166 50.4093 67.8334 49.7386C67.4502 49.0679 67.2586 48.3092 67.2586 47.4625C67.2586 46.6159 67.4393 45.8572 67.8006 45.1864C68.1729 44.5157 68.6765 43.9934 69.3115 43.6196C69.9575 43.2457 70.6801 43.0588 71.4793 43.0588C72.2786 43.0588 72.9957 43.2457 73.6307 43.6196C74.2657 43.9934 74.7639 44.5157 75.1252 45.1864C75.4865 45.8462 75.6672 46.6049 75.6672 47.4625L75.6507 47.8254ZM71.4793 44.0649C70.6472 44.0649 69.9465 44.3343 69.3772 44.873C68.8188 45.4008 68.5013 46.0936 68.4247 46.9512H74.5504C74.4738 46.0936 74.1508 45.4008 73.5815 44.873C73.0231 44.3343 72.3224 44.0649 71.4793 44.0649Z" fill="#3B3B3B"/>
<path d="M87.9049 43.1247V51.8003H86.8374V44.939L83.3393 50.7447H82.8138L79.3157 44.9225V51.8003H78.2482V43.1247H79.4307L83.093 49.3757L86.821 43.1247H87.9049Z" fill="#3B3B3B"/>
<path d="M94.7867 51.8827C93.9546 51.8827 93.2046 51.6958 92.5368 51.322C91.8689 50.9371 91.3434 50.4093 90.9602 49.7386C90.577 49.0679 90.3854 48.3092 90.3854 47.4625C90.3854 46.6159 90.577 45.8572 90.9602 45.1864C91.3434 44.5157 91.8689 43.9934 92.5368 43.6196C93.2046 43.2457 93.9546 43.0588 94.7867 43.0588C95.6188 43.0588 96.3688 43.2457 97.0367 43.6196C97.7045 43.9934 98.2246 44.5157 98.5968 45.1864C98.98 45.8572 99.1716 46.6159 99.1716 47.4625C99.1716 48.3092 98.98 49.0679 98.5968 49.7386C98.2246 50.4093 97.7045 50.9371 97.0367 51.322C96.3688 51.6958 95.6188 51.8827 94.7867 51.8827ZM94.7867 50.8437C95.3998 50.8437 95.9473 50.7062 96.429 50.4313C96.9217 50.1454 97.3049 49.7441 97.5786 49.2273C97.8523 48.7105 97.9892 48.1223 97.9892 47.4625C97.9892 46.8028 97.8523 46.2145 97.5786 45.6977C97.3049 45.1809 96.9217 44.7851 96.429 44.5102C95.9473 44.2243 95.3998 44.0814 94.7867 44.0814C94.1736 44.0814 93.6207 44.2243 93.128 44.5102C92.6463 44.7851 92.2631 45.1809 91.9784 45.6977C91.7047 46.2145 91.5678 46.8028 91.5678 47.4625C91.5678 48.1223 91.7047 48.7105 91.9784 49.2273C92.2631 49.7441 92.6463 50.1454 93.128 50.4313C93.6207 50.7062 94.1736 50.8437 94.7867 50.8437Z" fill="#3B3B3B"/>
<path d="M101.664 43.1247H102.83V46.9677H108.266V43.1247H109.432V51.8003H108.266V47.9738H102.83V51.8003H101.664V43.1247Z" fill="#3B3B3B"/>
<path d="M118.822 44.1638H115.554V51.8003H114.388V44.1638H111.12V43.1247H118.822V44.1638Z" fill="#3B3B3B"/>
<path d="M123.481 43.0588C124.609 43.0588 125.473 43.3447 126.076 43.9164C126.678 44.4772 126.979 45.3129 126.979 46.4234V51.8003H125.862V50.4478C125.599 50.8986 125.211 51.2505 124.696 51.5034C124.192 51.7563 123.59 51.8827 122.89 51.8827C121.926 51.8827 121.16 51.6518 120.59 51.19C120.021 50.7282 119.736 50.118 119.736 49.3593C119.736 48.6225 119.999 48.0288 120.525 47.578C121.061 47.1272 121.91 46.9017 123.07 46.9017H125.813V46.374C125.813 45.6263 125.605 45.06 125.189 44.6751C124.773 44.2793 124.165 44.0814 123.366 44.0814C122.818 44.0814 122.293 44.1748 121.789 44.3618C121.286 44.5377 120.853 44.7851 120.492 45.104L119.966 44.2298C120.404 43.856 120.93 43.5701 121.543 43.3722C122.156 43.1632 122.802 43.0588 123.481 43.0588ZM123.07 50.9591C123.727 50.9591 124.291 50.8107 124.762 50.5138C125.233 50.2059 125.583 49.7661 125.813 49.1943V47.7759H123.103C121.625 47.7759 120.886 48.2927 120.886 49.3263C120.886 49.8321 121.078 50.2334 121.461 50.5303C121.844 50.8162 122.38 50.9591 123.07 50.9591Z" fill="#3B3B3B"/>
<defs>
<clipPath id="clip0_118_543">
<rect width="45" height="53" fill="white" transform="translate(0 2)"/>
</clipPath>
</defs>
</svg>
