<svg width="165" height="92" viewBox="0 0 165 92" fill="none" xmlns="http://www.w3.org/2000/svg">
<path d="M82.695 18.1591C83.2348 16.5588 83.7369 14.9458 84.3395 13.3709C85.8585 9.3321 87.5909 5.40757 90.767 2.3848C94.1314 -0.815786 97.7846 -0.803082 100.986 2.53721C102.291 3.90889 103.597 5.45838 104.325 7.17298C106.145 11.4531 108.003 15.7714 109.196 20.2547C111.983 30.7201 112.937 41.4522 113 52.286C113.012 53.556 112.673 54.0895 111.343 53.9879C109.886 53.8736 108.405 53.9244 106.936 53.9752C105.995 54.0133 105.593 53.7211 105.568 52.6797C105.392 46.7357 105.292 40.7918 104.89 34.8606C104.338 26.7321 103.371 18.6417 100.961 10.8308C100.458 9.21779 99.8183 7.6048 99.0023 6.13152C97.1192 2.76582 94.6838 2.72772 92.7756 6.11881C91.7588 7.90962 90.8423 9.87823 90.4281 11.8849C89.1727 18.0702 87.9173 24.2682 87.1892 30.5296C86.4988 36.5244 86.4988 42.608 86.1222 48.6535C86.097 49.1235 85.5572 49.949 85.2308 49.9617C83.172 50.0887 81.1132 50.0252 78.7908 50.0252C78.7908 49.0219 78.8033 48.1582 78.7908 47.3073C78.6276 36.0036 77.8995 24.7635 75.1628 13.752C74.6104 11.5293 73.7442 9.3702 72.878 7.23647C72.5014 6.29662 71.8611 5.39488 71.1707 4.64553C69.8776 3.23575 68.1954 3.17224 67.1158 4.74713C65.9609 6.43633 64.9691 8.32874 64.3163 10.2847C62.1948 16.508 61.203 22.9981 60.6883 29.5263C60.0732 37.1467 59.797 44.7925 59.4329 52.4384C59.3827 53.5687 59.0438 54.0133 57.9014 53.9625C56.3196 53.8862 54.7379 53.9244 53.1686 53.9498C52.3652 53.9625 51.976 53.683 52.0011 52.794C52.3778 38.8359 53.4574 24.9667 58.5793 11.796C59.7217 8.86217 61.316 6.0045 63.2242 3.51516C66.7769 -1.15871 71.3464 -1.1206 75.213 3.32466C78.5648 7.17298 80.2721 11.8849 81.8288 16.6604C81.992 17.1684 82.1677 17.6892 82.3309 18.1972C82.4439 18.1845 82.5694 18.1718 82.695 18.1591Z" fill="#3B3B3B"/>
<path d="M13.8065 83.6937C14.906 79.335 15.9427 75.2197 16.9951 71.073C19.1469 71.073 21.2517 71.073 23.4428 71.073C24.8408 77.7328 26.2308 84.3769 27.6523 91.1467C25.7125 91.1467 23.8826 91.1702 22.0527 91.1153C21.8407 91.1074 21.5187 90.6598 21.4637 90.377C20.8826 87.4791 20.3407 84.5654 19.7909 81.6596C19.7517 81.4711 19.6888 81.2905 19.5867 80.9292C18.7228 84.1413 17.8747 87.1728 17.105 90.22C16.9165 90.9582 16.6024 91.2017 15.8563 91.1702C14.427 91.1153 12.9976 91.131 11.5683 91.1624C10.9793 91.1781 10.7436 90.9739 10.5944 90.4085C9.76981 87.2513 8.90592 84.1021 8.03417 80.8585C7.53155 83.4659 7.03677 85.9948 6.56556 88.5236C6.07864 91.1545 6.0865 91.1545 3.40844 91.1545C2.32465 91.1545 1.23301 91.1545 0 91.1545C0.416238 89.1362 0.816768 87.2278 1.2173 85.3194C2.15972 80.8271 3.11786 76.3349 4.02887 71.8348C4.15453 71.1987 4.39013 70.9945 5.02627 71.0102C6.58912 71.0495 8.15983 71.0652 9.72269 71.0023C10.4609 70.9709 10.7044 71.2537 10.8693 71.9212C11.796 75.7852 12.7856 79.6334 13.8065 83.6937Z" fill="#3B3B3B"/>
<path d="M45.5113 71.2223C49.2182 71.2223 52.8779 70.9474 56.4748 71.293C60.8964 71.7092 63.7786 74.9292 64.1399 79.3743C64.2734 80.9764 64.2027 82.6649 63.8729 84.2356C63.0483 88.1388 60.4016 90.597 56.1764 90.9818C52.6737 91.2959 49.1161 91.0446 45.5113 91.0446C45.5113 84.4398 45.5113 77.8193 45.5113 71.2223ZM51.3543 86.3561C54.6842 86.7959 56.6241 86.254 57.5586 84.6833C58.6738 82.8063 58.5482 78.8874 57.268 77.2774C55.6738 75.259 53.4591 75.8245 51.3465 75.7931C51.3543 79.3743 51.3543 82.8298 51.3543 86.3561Z" fill="#3B3B3B"/>
<path d="M138.772 91.0604C138.733 90.5499 138.701 90.0787 138.646 89.3875C137.508 90.7148 136.243 91.4923 134.641 91.5944C131.688 91.7829 129.324 90.7305 127.918 88.0839C126.261 84.9739 126.112 81.6989 127.416 78.4161C129.277 73.7276 135.246 72.8951 138.411 76.3114C138.411 74.4972 138.411 72.8323 138.411 71.1045C140.304 71.1045 142.055 71.1045 143.885 71.1045C143.885 77.725 143.885 84.3456 143.885 91.0604C142.228 91.0604 140.555 91.0604 138.772 91.0604ZM138.733 82.9241C138.568 82.1073 138.466 81.2199 138.191 80.3952C137.759 79.0837 136.817 78.4476 135.529 78.4083C134.146 78.3612 133.149 78.9659 132.615 80.2225C131.83 82.0759 131.908 83.9529 132.741 85.7671C133.306 87.0079 134.351 87.5498 135.733 87.4477C137.06 87.3456 137.869 86.6074 138.246 85.4058C138.489 84.6283 138.568 83.8115 138.733 82.9241Z" fill="#3B3B3B"/>
<path d="M102.567 79.8139C102.622 77.7327 103.447 76.217 105.12 75.408C108.575 73.7274 112.172 73.7588 115.698 75.196C117.308 75.8478 118.117 77.285 118.18 79.0128C118.259 81.361 118.188 83.7092 118.251 86.0574C118.29 87.7067 118.447 89.3638 118.565 91.1465C117.057 91.1465 115.369 91.2094 113.696 91.0916C113.397 91.068 113.146 90.3219 112.848 89.8821C110.704 91.5706 108.167 92.034 105.45 91.3507C103.172 90.7774 101.955 89.1832 101.845 86.8585C101.743 84.5967 102.779 82.8846 105.033 82.2014C106.84 81.6516 108.756 81.4396 110.617 81.0861C111.018 81.0076 111.497 81.0547 111.803 80.8427C112.259 80.5285 112.879 80.073 112.918 79.6254C112.965 79.162 112.518 78.4552 112.086 78.1882C110.539 77.2222 108.685 77.8112 107.766 79.3976C107.656 79.5861 107.381 79.7982 107.177 79.806C105.677 79.8296 104.185 79.8139 102.567 79.8139ZM112.958 83.5836C112.337 83.7406 111.913 83.8585 111.489 83.9527C111.026 84.0548 110.546 84.1098 110.091 84.2433C109.447 84.4318 108.756 84.581 108.19 84.9265C106.981 85.6648 107.091 87.3847 108.34 87.9973C110.13 88.8769 112.321 87.8795 112.745 85.9396C112.903 85.2328 112.887 84.4789 112.958 83.5836Z" fill="#3B3B3B"/>
<path d="M84.1978 74.7562C85.9099 74.7562 87.5984 74.7562 89.4047 74.7562C89.4047 75.4237 89.4047 76.052 89.4047 76.6724C91.1168 74.5206 93.3079 74.0022 95.8368 74.3085C98.4441 74.6227 100.274 76.2562 100.572 78.8793C100.777 80.7013 100.737 82.5469 100.761 84.3846C100.792 86.5915 100.769 88.7983 100.769 91.0758C98.9153 91.0758 97.1562 91.0758 95.2477 91.0758C95.2477 90.7381 95.2477 90.3769 95.2477 90.0156C95.2477 87.5653 95.2556 85.1071 95.2399 82.6568C95.2399 82.0443 95.2006 81.4317 95.0985 80.827C94.8786 79.4919 94.321 78.9343 93.0959 78.7301C91.8393 78.518 90.6456 78.9735 90.1901 80.1044C89.8288 80.9919 89.6403 82.005 89.6089 82.9631C89.5304 85.6412 89.5853 88.3271 89.5853 91.0837C87.7712 91.0837 86.0513 91.0837 84.1978 91.0837C84.1978 85.6962 84.1978 80.2851 84.1978 74.7562Z" fill="#3B3B3B"/>
<path d="M74.0275 74.2223C79.1559 74.1045 82.8706 77.6622 82.9727 82.7827C83.0748 87.8796 79.525 91.5472 74.3495 91.6808C69.3075 91.8143 65.5064 88.2802 65.3886 83.356C65.2629 77.9606 68.6792 74.3401 74.0275 74.2223ZM70.8075 82.9555C70.9489 83.7408 71.0117 84.5969 71.2709 85.3979C71.7186 86.8116 72.7552 87.4948 74.1924 87.4791C75.5904 87.4634 76.5721 86.8037 77.0433 85.4372C77.6009 83.8115 77.6166 82.1623 77.0668 80.5287C76.572 79.0444 75.5904 78.3847 74.0746 78.4083C72.661 78.4318 71.64 79.1622 71.2159 80.5837C71.0039 81.3219 70.9489 82.1151 70.8075 82.9555Z" fill="#3B3B3B"/>
<path d="M164.123 79.594C162.655 79.594 161.163 79.6175 159.678 79.5704C159.482 79.5625 159.223 79.2484 159.113 79.0128C158.532 77.7484 155.791 77.2615 154.864 78.2746C154.369 78.8086 154.511 79.5782 155.335 79.9238C156.325 80.34 157.393 80.5914 158.445 80.8505C159.403 81.0861 160.385 81.2039 161.335 81.4552C163.283 81.9657 164.634 83.1595 164.932 85.1857C165.239 87.2433 164.508 89.0496 162.702 90.0941C159.05 92.2146 155.233 92.2225 151.487 90.3612C149.775 89.513 149.037 87.9658 148.911 85.814C150.592 85.814 152.272 85.814 153.969 85.814C154.84 87.7852 155.901 88.4135 157.77 87.9972C158.61 87.8088 159.364 87.4239 159.403 86.4422C159.435 85.5155 158.704 85.17 157.958 84.9815C156.246 84.5417 154.511 84.2118 152.806 83.7328C149.728 82.8689 148.377 80.6306 149.209 77.929C149.626 76.6018 150.552 75.7143 151.785 75.196C154.864 73.9001 158.021 73.853 161.139 74.9918C163.197 75.7379 164.32 77.5599 164.123 79.594Z" fill="#3B3B3B"/>
<path d="M44.2547 84.6675C44.0977 88.7592 40.3986 91.7592 35.8279 91.6414C30.7074 91.5079 27.2047 88.1073 27.1733 83.2381C27.1419 77.937 30.5346 74.395 35.7886 74.2301C40.3515 74.0887 43.9406 76.8218 44.1212 80.67C42.4013 80.67 40.6814 80.67 38.9693 80.67C38.2311 78.848 37.4221 78.2982 35.7022 78.4317C34.1629 78.5574 33.2519 79.4841 32.8828 81.3061C32.5922 82.7669 32.5922 84.2277 33.1891 85.6177C33.7388 86.9136 34.7441 87.5026 36.197 87.4398C37.5556 87.3769 38.4038 86.7801 38.8201 85.4214C39.0086 84.801 39.3148 84.6439 39.9039 84.6596C41.3411 84.6832 42.8018 84.6675 44.2547 84.6675Z" fill="#3B3B3B"/>
<path d="M125.437 91.0917C123.63 91.0917 121.879 91.0917 120.049 91.0917C120.049 84.4476 120.049 77.827 120.049 71.1201C121.801 71.1201 123.575 71.1201 125.437 71.1201C125.437 77.7328 125.437 84.3455 125.437 91.0917Z" fill="#3B3B3B"/>
<path d="M145.071 71.0808C146.814 71.0808 148.401 71.0808 150.183 71.0808C149.555 72.4473 148.966 73.7196 148.377 74.984C147.592 76.6725 147.505 76.7275 145.715 76.5076C145.479 76.4762 145.11 76.1542 145.102 75.9579C145.047 74.3636 145.071 72.7693 145.071 71.0808Z" fill="#3B3B3B"/>
</svg>
