<svg width="165" height="23" viewBox="0 0 165 23" fill="none" xmlns="http://www.w3.org/2000/svg">
<path d="M25.4649 22.3763C23.8548 22.3763 22.4162 22.3763 20.8655 22.3763C20.3244 17.3942 19.7833 12.4319 19.2356 7.46295C19.1828 7.45636 19.13 7.44976 19.0772 7.43656C18.965 7.64112 18.8397 7.84568 18.7407 8.05685C16.6884 12.3329 14.6098 16.5957 12.6104 20.8916C12.2276 21.7164 11.6601 21.5185 11.0531 21.5911C10.4328 21.6636 10.2612 21.2875 10.0632 20.8256C8.24855 16.6287 6.41407 12.4385 4.57959 8.24162C4.54 8.14263 4.48058 8.05685 4.26282 7.96446C3.68872 12.7486 3.10806 17.5328 2.52737 22.3433C1.67612 22.3433 0.890843 22.3433 0 22.3433C0.904041 15.0648 1.80147 7.85888 2.71211 0.567166C3.76133 0.567166 4.75774 0.520976 5.74756 0.600162C5.99172 0.619959 6.28867 1.00269 6.41405 1.27984C8.4069 5.64167 10.38 10.0167 12.353 14.3851C12.452 14.6029 12.5576 14.8141 12.7159 15.144C12.8809 14.8339 12.9997 14.6293 13.1053 14.4181C15.2103 10.0497 17.3285 5.68126 19.4072 1.29304C19.6711 0.738735 19.9681 0.501178 20.5949 0.54737C21.3934 0.60676 22.1985 0.560566 23.0959 0.560566C23.8944 7.85228 24.673 15.0714 25.4649 22.3763Z" fill="#3B3B3B"/>
<path d="M29.9191 22.4092C29.9191 15.0977 29.9191 7.90501 29.9191 0.646284C31.4105 0.646284 32.8886 0.646284 34.4657 0.646284C34.4657 3.17364 34.4657 5.6614 34.4657 8.15576C34.4657 10.6435 34.4657 13.1247 34.4657 15.8434C34.7825 15.4607 34.954 15.2627 35.1124 15.0581C38.5306 10.6105 41.9752 6.18271 45.3538 1.7021C45.9873 0.857446 46.6208 0.388928 47.6832 0.567096C47.9802 0.619887 48.2837 0.573696 48.6466 0.573696C48.6466 7.83902 48.6466 15.0515 48.6466 22.3367C47.1817 22.3367 45.7036 22.3367 44.133 22.3367C44.133 17.3743 44.133 12.3922 44.133 7.21873C43.8625 7.47608 43.7239 7.57506 43.6183 7.71364C40.0945 12.2932 36.5576 16.853 33.0734 21.459C32.5257 22.1783 31.978 22.5544 31.0805 22.4158C30.7374 22.3631 30.3744 22.4092 29.9191 22.4092Z" fill="#3B3B3B"/>
<path d="M106.756 11.5409C106.743 5.66135 110.187 1.21373 115.664 0.223909C121.544 -0.838504 128.374 1.76144 128.902 10.5709C129.232 16.1271 126.361 20.7397 121.531 22.363C115.407 24.4218 106.789 21.6635 106.756 11.5409ZM111.778 11.5673C111.778 11.9302 111.758 12.2932 111.784 12.6495C111.943 14.8007 112.306 16.8992 113.559 18.7204C115.625 21.7229 119.505 21.8549 121.749 18.991C122.191 18.4301 122.547 17.7834 122.837 17.1301C123.781 15.0053 124.025 12.7551 123.893 10.4587C123.781 8.47905 123.444 6.54559 122.455 4.7837C121.194 2.5533 119.023 1.50408 116.727 2.08478C114.853 2.5533 113.731 3.91266 112.952 5.58216C112.055 7.47603 111.745 9.48867 111.778 11.5673Z" fill="#3B3B3B"/>
<path d="M133.033 0.745178C135.982 0.745178 138.886 0.547212 141.743 0.791369C145.63 1.12791 148.15 3.78064 148.289 7.22524C148.441 11.013 146.131 13.9429 142.238 14.7083C140.76 14.9987 139.222 14.9789 137.619 15.1108C137.619 17.4072 137.619 19.8356 137.619 22.3366C136.061 22.3366 134.577 22.3366 133.033 22.3366C133.033 15.1306 133.033 7.90492 133.033 0.745178ZM137.586 2.61925C137.586 5.95826 137.579 9.25767 137.606 12.5571C137.606 12.7287 137.843 13.0322 137.988 13.0454C139.651 13.1708 141.215 12.92 142.409 11.6201C143.848 10.0561 144.112 6.8227 143.01 4.79026C142.066 3.04817 140.126 2.25631 137.586 2.61925Z" fill="#3B3B3B"/>
<path d="M58.7362 22.3631C57.1657 22.3631 55.7007 22.3631 54.1698 22.3631C54.1698 15.1439 54.1698 7.9182 54.1698 0.685877C54.2094 0.659482 54.249 0.606689 54.2952 0.606689C57.1789 0.652881 60.0758 0.51431 62.9397 0.791461C66.9782 1.18079 69.4197 3.9457 69.4263 7.70704C69.4329 11.1582 67.1167 13.9561 63.4676 14.6886C61.963 14.9922 60.3991 14.979 58.7362 15.1175C58.7362 17.4139 58.7362 19.8687 58.7362 22.3631ZM58.7164 2.62594C58.7164 5.93855 58.723 9.21157 58.7098 12.4846C58.7098 12.9135 58.8682 13.0521 59.2839 13.0917C62.1544 13.3556 64.2133 11.8115 64.7148 9.00041C65.467 4.78375 62.8935 1.99245 58.7164 2.62594Z" fill="#3B3B3B"/>
<path d="M88.6488 9.04002C86.9331 14.3719 79.516 20.3042 74.91 19.9875C77.4505 16.5627 80.9743 14.4643 84.4255 12.2669C84.3991 12.1943 84.3661 12.1283 84.3397 12.0557C84.0494 12.1217 83.7392 12.1481 83.4687 12.2603C78.5591 14.3059 74.4876 17.3875 71.5314 21.8748C71.3598 22.1321 70.9507 22.3235 70.6273 22.3763C70.1456 22.4621 69.6375 22.3961 68.9974 22.3961C71.7887 15.0714 74.5405 7.83903 77.2988 0.593506C78.7241 0.593506 80.1033 0.593506 81.5286 0.593506C82.525 3.33202 83.5347 6.05734 84.4849 8.80246C84.729 9.50194 85.0194 9.66031 85.7321 9.48214C86.6757 9.26438 87.6523 9.19179 88.6488 9.04002ZM74.5998 15.4145C75.5369 14.5434 76.2892 13.7252 77.1668 13.0587C78.0444 12.3922 79.0541 11.9039 79.9713 11.2836C80.1297 11.178 80.2353 10.7755 80.1693 10.5709C79.6414 8.93444 79.0738 7.31772 78.5129 5.69441C78.4602 5.53604 78.3612 5.39746 78.2094 5.11371C76.982 8.61109 75.814 11.9435 74.5998 15.4145Z" fill="#3B3B3B"/>
<path d="M105.905 0.64624C105.905 1.4579 105.905 2.20357 105.905 2.96243C103.833 2.96243 101.8 2.96243 99.6556 2.96243C99.6556 9.3963 99.6556 15.85 99.6556 22.3564C98.0917 22.3564 96.6334 22.3564 95.0694 22.3564C95.0694 15.8566 95.0694 9.4029 95.0694 2.96243C92.9446 2.96243 90.9254 2.96243 88.8467 2.96243C88.8467 2.24316 88.8467 1.47769 88.8467 0.64624C94.4887 0.64624 100.164 0.64624 105.905 0.64624Z" fill="#3B3B3B"/>
<path d="M164.166 0.626465C164.166 1.41833 164.166 2.18379 164.166 2.96245C161.777 2.96245 159.415 2.96245 156.98 2.96245C156.98 9.38972 156.98 15.8236 156.98 22.33C155.436 22.33 153.951 22.33 152.4 22.33C152.4 15.1307 152.4 7.90498 152.4 0.626465C156.313 0.626465 160.213 0.626465 164.166 0.626465Z" fill="#3B3B3B"/>
<path d="M86.7879 15.1177C87.6391 17.4735 88.5102 19.882 89.4274 22.4028C87.7513 22.4028 86.161 22.416 84.5707 22.383C84.4189 22.383 84.1879 22.1652 84.1286 22.0003C83.6732 20.7597 83.2575 19.5059 82.855 18.3445C84.1945 17.2491 85.4747 16.1999 86.7879 15.1177Z" fill="#3B3B3B"/>
</svg>
