<svg width="167" height="52" viewBox="0 0 167 52" fill="none" xmlns="http://www.w3.org/2000/svg">
<path d="M53.1022 9.68167C52.6899 6.50831 51.9738 3.42311 50.8672 0.426052C50.737 0.0881487 50.5706 0 50.2379 0C46.3898 0.00734573 42.6864 0.778647 39.0843 2.09353C33.1531 4.25318 28.1261 7.80116 23.844 12.451C20.741 15.8154 18.5494 19.7306 17.3053 24.1821C17.2329 24.4392 17.1678 24.7037 17.0738 25.0489C16.9581 24.8212 16.8857 24.6816 16.8134 24.5421C14.5205 19.6572 10.9401 16.0945 6.13001 13.7953C5.75388 13.6116 5.52242 13.6557 5.22586 13.9275C3.6635 15.3526 2.60745 17.1229 1.81181 19.0695C0.683432 21.8535 0.234975 24.7771 0.0469128 27.7742C-0.249647 32.571 0.857028 36.9784 3.4465 40.9892C6.42657 45.5949 10.5133 48.9299 15.2583 51.5009C15.8297 51.8094 16.3866 51.971 17.0376 51.8535C17.4788 51.7727 17.9273 51.78 18.3758 51.736C21.4716 51.4421 24.5529 51.0822 27.5763 50.3109C33.645 48.7756 39.0265 45.9328 43.4676 41.4005C49.8039 34.9363 52.7405 26.9588 53.3554 17.9897C53.5434 15.213 53.4566 12.4363 53.1022 9.68167ZM25.3558 49.1209C23.873 49.6498 22.3251 50.0758 20.7121 50.3843C20.0177 50.5239 19.3233 50.6047 18.6145 50.6635C18.6 50.6635 18.5855 50.6708 18.5711 50.6708C17.8767 50.7296 17.1823 50.7737 16.4951 50.8251C16.1841 50.8545 15.8225 50.7663 15.5404 50.6194C15.0413 50.3697 14.5566 50.1052 14.0865 49.8261C11.0775 48.0337 8.68332 45.639 6.89672 42.6419C3.79369 37.6689 2.2458 30.3305 7.25838 20.2742C7.25838 20.2742 12.6399 22.8158 16.1045 28.3398C16.1045 28.3398 15.157 35.3991 15.468 35.2228C15.468 35.2228 20.2781 10.3942 45.5363 9.08666C45.5363 9.08666 52.5742 40.497 25.3558 49.1209Z" fill="#3B3B3B"/>
<path d="M149.202 38.8222C149.361 38.6459 149.463 38.5283 149.564 38.4108C152.783 34.4662 155.994 30.5142 159.227 26.5768C159.408 26.3638 159.705 26.1728 159.972 26.1214C160.638 26.0039 161.318 25.9304 161.998 25.9304C163.256 25.9231 164.515 25.9304 165.766 26.0112C167.068 26.092 167.126 26.1949 166.895 27.4804C165.578 34.8408 164.247 42.1939 162.931 49.5543C162.873 49.8848 162.714 50.0685 162.432 50.1272C161.925 50.2374 161.412 50.377 160.898 50.3843C159.408 50.399 157.925 50.355 156.435 50.3256C156.377 50.3256 156.32 50.3182 156.262 50.3109C155.3 50.164 155.249 50.0758 155.423 49.1062C156.066 45.3819 156.703 41.6503 157.347 37.926C157.354 37.8746 157.347 37.8232 157.347 37.6762C157.18 37.8672 157.065 37.9921 156.956 38.1243C153.81 41.9441 150.663 45.7639 147.531 49.591C147.213 49.9803 146.851 50.208 146.374 50.2595C144.327 50.5019 142.28 50.5239 140.233 50.2448C140.074 50.2227 139.922 50.1713 139.777 50.1126C139.568 50.0317 139.474 49.9069 139.517 49.6424C140.392 44.8236 141.26 40.0048 142.128 35.186C142.634 32.3873 143.148 29.5886 143.633 26.7899C143.698 26.4226 143.85 26.2316 144.19 26.1655C144.66 26.0773 145.13 25.9451 145.6 25.9378C147.105 25.9304 148.602 25.9745 150.106 25.9965C150.15 25.9965 150.193 26.0039 150.237 26.0112C151.242 26.1581 151.336 26.2977 151.155 27.3114C150.497 31.0504 149.853 34.7894 149.202 38.5357C149.188 38.6018 149.202 38.6753 149.202 38.8222Z" fill="#3B3B3B"/>
<path d="M77.4636 25.1077C79.243 25.115 80.9862 25.328 82.6498 25.9892C86.0494 27.3408 88.0168 29.9191 88.5738 33.5185C89.6153 40.2619 85.7456 47.233 79.5829 49.8187C76.1978 51.2364 72.7114 51.3833 69.2395 50.2227C65.3481 48.9225 63.1347 46.1164 62.7514 41.9808C62.3391 37.5734 63.4602 33.5406 66.3173 30.1468C69.225 26.7017 73.0152 25.115 77.4636 25.1077ZM80.7475 35.8985C80.7041 35.4725 80.6896 35.0171 80.6173 34.569C80.2701 32.2771 78.8379 31.0504 76.5522 31.1018C74.9754 31.1385 73.753 31.9172 72.8489 33.1659C70.9972 35.7222 70.3389 38.6238 70.744 41.7457C71.0116 43.8466 72.4004 44.9558 74.4836 44.9558C76.0097 44.9558 77.2105 44.258 78.1725 43.1194C79.9374 41.0626 80.5739 38.5797 80.7475 35.8985Z" fill="#3B3B3B"/>
<path d="M101.044 39.0352C100.718 40.879 100.386 42.7228 100.06 44.5666C99.7635 46.2267 99.4669 47.8868 99.1921 49.547C99.1342 49.8775 98.9461 50.0538 98.6713 50.1126C98.136 50.2301 97.5935 50.3697 97.051 50.377C95.5031 50.3917 93.9552 50.3844 92.4146 50.3109C91.2211 50.2521 91.1054 50.0685 91.3151 48.8858C92.3712 42.9064 93.4345 36.9343 94.4905 30.9549C94.7364 29.5666 94.9896 28.1856 95.2066 26.7972C95.2717 26.4006 95.4453 26.1875 95.8142 26.1214C96.1541 26.0627 96.5013 25.9672 96.8413 25.9745C98.6279 25.9966 100.422 26.048 102.208 26.0921C102.338 26.0921 102.461 26.1435 102.584 26.1802C103.163 26.3565 103.25 26.5034 103.141 27.1058C102.693 29.6327 102.244 32.1596 101.796 34.6866C101.774 34.8261 101.76 34.973 101.745 35.12C101.796 35.1714 101.854 35.2154 101.904 35.2669C101.97 35.1346 102.006 34.9804 102.1 34.8775C104.494 32.2698 106.917 29.6841 109.282 27.0397C109.868 26.3859 110.534 26.048 111.351 26.0333C113.275 26.0039 115.192 26.0186 117.116 26.0259C117.355 26.0259 117.6 26.0994 117.832 26.1729C118.309 26.3198 118.338 26.4667 117.998 26.834C116.364 28.619 114.722 30.3966 113.087 32.1817C111.857 33.5259 110.628 34.8775 109.384 36.1998C109.152 36.4495 109.152 36.6332 109.282 36.927C111.141 41.0333 112.986 45.1395 114.837 49.2458C115.069 49.7673 115.04 49.9289 114.483 50.0685C113.81 50.2301 113.123 50.377 112.436 50.3844C110.584 50.4064 108.74 50.3476 106.888 50.3256C106.83 50.3256 106.772 50.3183 106.715 50.3109C105.955 50.2668 105.499 49.9436 105.196 49.1576C103.944 45.8961 102.606 42.6567 101.304 39.4172C101.254 39.285 101.196 39.1601 101.138 39.0279C101.109 39.0279 101.08 39.0279 101.044 39.0352Z" fill="#3B3B3B"/>
<path d="M127.293 35.0244C127.539 35.0244 127.705 35.0244 127.879 35.0244C130.295 35.0244 132.711 35.0244 135.126 35.0244C135.785 35.0244 136.016 35.1713 136.016 35.8104C136.016 37.2722 135.814 38.7046 135.141 40.0268C134.917 40.4676 134.577 40.6659 134.056 40.6586C131.64 40.6365 129.224 40.6586 126.808 40.6365C126.396 40.6292 126.266 40.7761 126.201 41.1581C126.049 42.1424 125.854 43.1194 125.68 44.1037C125.658 44.2139 125.665 44.3314 125.658 44.5004C125.854 44.5004 126.027 44.5004 126.193 44.5004C129.202 44.5004 132.211 44.5004 135.22 44.5004C135.893 44.5004 136.146 44.684 136.139 45.3672C136.125 46.8584 135.937 48.3202 135.3 49.6938C135.069 50.2007 134.721 50.4431 134.114 50.4431C129.224 50.4063 124.342 50.421 119.452 50.3917C118.736 50.3843 118.013 50.2668 117.304 50.1346C116.754 50.0244 116.682 49.8334 116.783 49.2824C117.731 43.9421 118.671 38.6018 119.611 33.2614C119.995 31.0944 120.378 28.9348 120.747 26.7605C120.812 26.3785 121.007 26.1581 121.347 26.1067C122.1 25.9965 122.866 25.8716 123.626 25.8716C128.646 25.8496 133.665 25.8569 138.678 25.8643C139.184 25.8643 139.372 26.0112 139.387 26.5327C139.423 27.9578 139.199 29.3388 138.62 30.6463C138.36 31.234 137.947 31.5058 137.26 31.4985C134.309 31.4617 131.358 31.4911 128.407 31.4764C128.031 31.4764 127.886 31.5866 127.828 31.9686C127.676 32.9676 127.481 33.9593 127.293 35.0244Z" fill="#3B3B3B"/>
<path d="M90.4182 28.2884C90.2013 28.2884 90.0566 28.2958 89.9119 28.2884C89.2609 28.2444 89.1018 28.0313 89.2392 27.3923C89.6877 25.2547 90.1579 23.1244 90.5846 20.9794C90.6642 20.5754 90.8812 20.3771 91.2211 20.311C92.5448 20.0612 93.8685 20.0539 95.1849 20.3183C95.8359 20.4505 95.901 20.693 95.561 21.2586C94.3169 23.3301 93.0584 25.3869 91.8504 27.4731C91.4888 28.0901 91.0548 28.4207 90.4182 28.2884Z" fill="#3B3B3B"/>
<path d="M157.672 20.0979C158.309 20.164 158.916 20.2081 159.517 20.2815C159.683 20.3036 159.849 20.377 160.001 20.4578C160.262 20.5901 160.334 20.7664 160.16 21.0602C158.808 23.3006 157.462 25.5411 156.117 27.7889C155.922 28.1194 155.64 28.2957 155.264 28.2884C154.859 28.2737 154.453 28.281 154.056 28.2223C153.723 28.1709 153.586 27.9431 153.665 27.5758C154.135 25.3868 154.598 23.1905 155.039 20.9941C155.126 20.5533 155.379 20.355 155.763 20.3036C156.406 20.2007 157.05 20.1567 157.672 20.0979Z" fill="#3B3B3B"/>
</svg>
