<svg width="162" height="59" viewBox="0 0 162 59" fill="none" xmlns="http://www.w3.org/2000/svg">
<path d="M162 38.944C160.051 41.0135 157.941 40.9333 155.944 40.9012C150.754 40.821 145.572 40.5402 140.39 40.4359C116.174 39.9547 92.0535 41.3263 68.0214 44.3825C45.4412 47.2461 23.1818 51.6017 1.49197 58.5964C1.17111 58.7006 0.834221 58.7568 0.497322 58.829C0.328873 58.6605 0.160428 58.5001 0 58.3317C1.21123 56.6873 2.22191 54.8343 3.67379 53.4386C7.03475 50.206 11.2781 48.5777 15.762 47.5991C36.7139 43.0188 57.9465 40.444 79.3075 38.8317C98.7032 37.3718 118.131 36.9707 137.575 37.5643C144.874 37.7889 152.174 38.2541 159.465 38.6231C160.171 38.6712 160.869 38.8076 162 38.944Z" fill="#3B3B3B"/>
<path d="M27.0963 17.4385C29.7433 18.5776 31.2032 20.1658 30.8422 22.8048C30.3609 26.262 28.8048 29.0374 25.4759 30.5134C24.6257 30.8904 23.647 31.1792 22.7246 31.1952C17.4866 31.2594 12.2487 31.2273 6.62567 31.2273C7.17113 28.508 7.71658 25.8369 8.25401 23.1578C9.15241 18.6498 9.9786 14.1337 10.9492 9.64172C11.7433 5.96793 13.2353 4.7166 16.9973 4.56419C19.9893 4.44387 22.9813 4.45189 25.9733 4.52408C29.7914 4.62034 31.7406 5.93584 32.3743 8.64707C33.0722 11.5909 31.6283 14.8476 28.861 16.5241C28.4358 16.7647 27.9786 16.9733 27.0963 17.4385ZM15.361 25.3637C17.262 25.3637 18.9385 25.5401 20.5588 25.3155C22.0829 25.0989 22.9813 23.9439 22.877 22.3556C22.7807 20.8717 21.6016 20.5909 20.3663 20.4706C16.3636 20.0776 16.3636 20.0695 15.6096 24.0321C15.5535 24.377 15.4813 24.7219 15.361 25.3637ZM17.615 14.8637C19.3556 14.7834 21.0481 15.0321 22.4759 14.5268C23.3743 14.2139 23.8877 12.7781 24.5695 11.8396C23.7594 11.2861 22.9973 10.3476 22.139 10.2433C18.6818 9.84226 18.0561 10.5241 17.615 14.8637Z" fill="#3B3B3B"/>
<path d="M66.9706 11.7434C67.0107 12.3611 67.0428 12.8985 67.0508 12.9948C69.1123 12.3932 71.1016 11.4627 73.1551 11.2862C76.3716 11.0135 78.4813 12.8664 78.8663 16.0509C79.4439 20.8798 78.4011 25.3477 75.1524 29.1178C72.1765 32.567 68.0454 32.9279 64.1631 29.8237C63.7861 35.6873 61.5401 39.4734 54.7781 38.1258C56.3182 30.6017 57.7139 23.0857 59.4305 15.6499C60.1845 12.3771 62.4224 11.4146 66.9706 11.7434ZM71.4465 18.6258C70.8209 17.8477 70.2433 16.4039 69.3529 16.1793C67.8289 15.7942 66.8583 17.0456 66.5294 18.5616C66.1283 20.4065 65.5909 22.2595 65.4706 24.1285C65.4064 25.083 65.8556 26.583 66.5535 26.968C67.7727 27.6418 69 26.7916 69.4572 25.4761C70.1631 23.4146 70.6845 21.3049 71.4465 18.6258Z" fill="#3B3B3B"/>
<path d="M134.687 31.2032C135.602 26.623 136.46 22.107 137.398 17.607C138.465 12.4973 140.631 11.0695 146.302 11.8316C145.957 13.5321 145.612 15.2166 145.267 16.9011C144.931 18.5054 144.586 20.1177 144.586 21.8663C146.214 19.6524 147.914 17.4866 149.439 15.2005C151.588 11.984 154.604 11.1898 158.487 11.7594C158.094 13.9332 157.725 16.0588 157.316 18.1765C156.826 20.6872 156.321 23.1898 155.775 25.6845C154.733 30.5134 152.222 32.1177 146.968 31.1711C147.562 28.1711 148.155 25.1711 148.757 22.1631C144.698 26.262 142.693 33.0401 134.687 31.2032Z" fill="#3B3B3B"/>
<path d="M54.2085 25.8049C52.6444 27.2407 51.2406 28.9092 49.484 30.0562C46.4037 32.0696 42.8743 32.3263 39.3449 31.5723C34.8449 30.6097 32.3663 26.7835 33.1283 22.2434C34.4037 14.6231 41.5588 9.72202 49.1069 11.2862C53.1176 12.1204 55.7166 15.8504 55.131 19.9252C54.8904 21.6017 53.8797 22.5963 52.2273 22.6846C49.1711 22.853 46.0989 22.8851 43.0428 22.9814C42.1283 23.0135 41.0374 22.7568 41.0294 24.2648C41.0214 25.5803 41.3583 26.6552 42.8743 26.7193C43.7968 26.7595 45.0642 26.9038 45.6096 26.3905C48.0802 24.0643 50.9599 25.2755 53.639 24.9226C53.8315 25.2274 54.024 25.5161 54.2085 25.8049ZM42.2486 19.1231C43.492 19.1231 44.7353 19.2354 45.9465 19.075C46.5882 18.9867 47.1578 18.4172 47.7594 18.0643C47.2701 17.2701 46.9572 16.083 46.2593 15.7701C44.3101 14.9038 42.4893 16.46 42.2486 19.1231Z" fill="#3B3B3B"/>
<path d="M91.2193 31.2033C91.7166 28.6284 92.1818 26.206 92.6391 23.7995C89.5829 22.7487 89.0294 23.0295 88.4278 25.7648C87.385 30.5375 84.754 32.1899 79.476 31.1391C80.5909 25.8771 81.5294 20.5589 82.885 15.361C83.7433 12.0723 86.9198 10.9252 91.115 11.9439C90.7139 14.0616 90.3048 16.1953 89.9038 18.3049C93.0401 19.2193 93.377 19.0509 94.1792 16.3156C95.3343 12.353 97.5802 11.1257 102.939 11.8316C101.727 17.3102 100.725 22.8209 99.2407 28.2033C98.4706 31.0188 95.5107 31.8931 91.2193 31.2033Z" fill="#3B3B3B"/>
<path d="M102.521 31.1229C103.628 25.8849 104.567 20.5828 105.906 15.3849C106.741 12.1523 109.267 11.1977 114.08 11.8154C113.912 12.8501 113.743 13.8849 113.583 14.9197C113.414 15.9705 113.254 17.0213 113.078 18.1844C115.163 18.3368 117.056 18.3528 118.901 18.6496C122.158 19.171 123.658 21.3929 123.112 24.6175C122.495 28.1951 120.505 30.7298 116.92 31.0346C112.235 31.4277 107.495 31.1229 102.521 31.1229ZM111.144 26.8154C114.698 27.3849 115.941 26.8234 116.23 24.6737C116.398 23.3822 115.877 22.7806 114.602 22.6443C112.139 22.3796 111.433 23.1737 111.144 26.8154Z" fill="#3B3B3B"/>
<path d="M123.377 31.1873C124.404 26.1097 125.294 21.1686 126.425 16.2755C127.34 12.329 130.011 10.9974 135 11.8878C134.23 15.8584 133.46 19.837 132.69 23.8076C132.594 24.3049 132.489 24.8103 132.385 25.3076C131.31 30.4974 128.976 32.0776 123.377 31.1873Z" fill="#3B3B3B"/>
<path d="M145.685 3.21658C148.444 2.99198 151.059 3.03209 153.553 2.50268C156.072 1.96524 158.479 0.86631 160.957 0C159.834 3.07219 153.377 7.7246 150.273 7.7246C147.634 7.7246 145.829 5.76738 145.685 3.21658Z" fill="#3B3B3B"/>
</svg>
