<svg width="165" height="50" viewBox="0 0 165 50" fill="none" xmlns="http://www.w3.org/2000/svg">
<path d="M21.8647 41.1053C21.4942 41.059 21.1195 41.0316 20.7533 40.96C17.5145 40.3219 14.4134 39.3322 11.6699 37.4286C8.63859 35.327 6.6424 32.4357 5.26009 29.0854C3.7656 25.4614 3.07339 21.6457 2.53994 17.7857C2.01708 14.0185 1.42224 10.2596 0.861279 6.49656C0.571271 4.55081 0.28973 2.60295 0.0103054 0.655087C-0.0150968 0.478201 0.00607168 0.297102 0.00607168 0.0296663C0.29608 0.0296663 0.552219 0.0296663 0.810475 0.0296663C7.21395 0.0296663 13.6195 -0.0482481 20.0209 0.0549358C25.0294 0.134956 29.9743 0.737213 34.6166 2.83459C40.3617 5.43103 44.1043 9.72685 45.7957 15.781C45.8613 16.019 45.8825 16.2717 45.9227 16.5159C45.8613 16.5538 45.802 16.5896 45.7406 16.6275C45.5734 16.4654 45.3681 16.3285 45.2432 16.139C42.5167 12.0137 38.5624 9.86584 33.7465 9.2362C31.4498 8.93507 29.1212 8.78767 26.8033 8.75608C21.7504 8.68659 16.6953 8.73292 11.6424 8.73502C11.3609 8.73502 11.0793 8.7624 10.711 8.77924C10.9206 10.2386 11.1111 11.6094 11.3164 12.9803C11.8371 16.4317 12.3431 19.8831 12.8977 23.3303C13.4777 26.9354 14.1255 30.5258 15.5924 33.9098C16.8329 36.7695 18.6174 39.1427 21.5281 40.5199C21.6826 40.5936 21.7948 40.7494 21.9282 40.8652C21.907 40.9453 21.8858 41.0253 21.8647 41.1053Z" fill="#3B3B3B"/>
<path d="M45.4847 34.2318C46.9792 34.2318 48.351 34.2171 49.7227 34.2508C49.9026 34.255 50.1926 34.4887 50.235 34.6635C50.8891 37.3547 53.9331 37.8096 55.6647 37.1842C56.9602 36.7167 57.7688 35.2763 57.6969 33.6569C57.6207 31.9786 56.6575 30.7236 55.0296 30.3487C53.2409 29.9381 51.6194 30.2434 50.3344 31.6817C50.1947 31.8396 49.9577 31.9997 49.7629 32.0039C48.4187 32.0313 47.0745 32.0186 45.6223 32.0186C46.1367 27.6765 46.6405 23.4122 47.1507 19.1101C52.0279 19.1101 56.8565 19.1101 61.7697 19.1101C61.63 20.4368 61.5157 21.7381 61.3251 23.029C61.3019 23.1869 60.87 23.3933 60.6245 23.3954C57.9255 23.4228 55.2286 23.4122 52.5296 23.4122C50.8721 23.4122 50.8742 23.4122 50.7197 25.0379C50.6456 25.8192 50.5631 26.6004 50.4996 27.2195C51.7993 26.9395 53.0991 26.5225 54.4242 26.3983C58.3891 26.0298 61.7146 28.702 62.2925 32.5998C62.9678 37.1357 59.9746 41.0588 55.4022 41.6569C53.08 41.9601 50.851 41.7327 48.84 40.4523C46.6046 39.0309 45.6964 36.8704 45.4847 34.2318Z" fill="#3B3B3B"/>
<path d="M24.4072 19.068C26.2849 19.068 28.0038 19.0449 29.7184 19.0933C29.9767 19.0996 30.3048 19.3902 30.4657 19.6366C31.8607 21.774 33.2218 23.9303 34.6613 26.1835C35.1397 25.3981 35.5715 24.6863 36.0033 23.9766C36.9072 22.4942 37.8027 21.0054 38.7235 19.5334C38.8463 19.3376 39.0918 19.0933 39.2866 19.0891C40.9695 19.0533 42.6524 19.068 44.4834 19.068C43.6621 20.3778 42.9148 21.5718 42.1634 22.7616C40.743 25.0085 39.3353 27.2638 37.8852 29.4917C37.5656 29.9824 37.5613 30.3235 37.8831 30.8184C39.9999 34.0571 42.0808 37.319 44.1723 40.5745C44.3099 40.7893 44.4284 41.0146 44.6274 41.3579C42.8005 41.3579 41.0965 41.3768 39.3924 41.3326C39.1913 41.3284 38.9479 41.0125 38.8103 40.7893C37.5423 38.7277 36.2933 36.6535 35.0359 34.5856C34.8899 34.3456 34.729 34.116 34.5173 33.7896C33.4208 35.6364 32.3835 37.3969 31.3314 39.1489C30.8869 39.8859 30.5673 40.8735 29.9047 41.2547C29.2675 41.6211 28.2599 41.3579 27.4132 41.3621C26.5008 41.3663 25.5884 41.3642 24.5215 41.3642C25.0486 40.4903 25.4932 39.7533 25.9377 39.0162C27.6672 36.1566 29.3861 33.2906 31.1367 30.4456C31.4288 29.9718 31.414 29.6454 31.1028 29.1843C29.041 26.1288 27.0131 23.0522 24.9767 19.9798C24.8073 19.7229 24.6485 19.4555 24.4072 19.068Z" fill="#3B3B3B"/>
<path d="M88.8569 25.935C87.9043 25.935 87.0385 25.9582 86.177 25.9161C86.0013 25.9076 85.7684 25.6949 85.6753 25.5181C83.6833 21.7297 79.293 20.1525 75.1461 21.2833C71.2807 22.3383 68.6854 25.9266 68.6833 30.2034C68.6812 34.8783 71.3971 38.4982 75.7092 39.3616C79.1575 40.0523 82.2375 39.3194 84.5618 36.4956C85.5694 35.2721 86.1008 33.8338 86.1939 32.1682C83.2303 32.1682 80.326 32.1682 77.354 32.1682C77.354 31.3616 77.354 30.6162 77.354 29.7991C81.213 29.7991 85.0826 29.7991 89.1533 29.7991C89.0453 31.0142 89.0305 32.244 88.8146 33.438C87.8641 38.713 84.1829 41.859 78.7807 42.1349C73.7722 42.3918 69.765 40.6419 67.3201 36.1818C63.7172 29.6054 66.5919 20.2873 75.29 18.5015C81.196 17.2886 86.9983 20.3926 88.8569 25.935Z" fill="#3B3B3B"/>
<path d="M149.31 38.3066C149.31 40.4524 149.31 42.3687 149.31 44.2849C149.31 46.1738 149.31 48.0606 149.31 49.9979C148.349 49.9979 147.468 49.9979 146.55 49.9979C146.55 41.2041 146.55 32.4567 146.55 23.665C147.458 23.665 148.319 23.665 149.278 23.665C149.278 24.7537 149.278 25.8403 149.278 27.1395C149.725 26.592 150.011 26.1961 150.339 25.8424C154.204 21.6771 161.111 22.5426 163.658 27.6133C165.629 31.5407 165.502 35.5038 162.796 39.071C159.509 43.4047 152.883 43.2004 149.689 38.8014C149.613 38.7025 149.534 38.6014 149.31 38.3066ZM149.304 32.642C149.27 36.9947 152.515 39.9659 156.742 39.4521C159.454 39.1236 161.429 37.0557 161.969 33.9813C162.551 30.671 160.925 27.4091 158.152 26.3246C153.76 24.6042 149.34 27.7607 149.304 32.642Z" fill="#3B3B3B"/>
<path d="M113.944 42.1517C108.556 42.1496 104.524 38.0791 104.538 32.6567C104.555 27.3206 108.664 23.1954 113.956 23.2017C119.272 23.208 123.44 27.3943 123.431 32.7157C123.421 38.1044 119.35 42.1538 113.944 42.1517ZM120.574 32.7493C120.578 28.8305 117.731 25.8697 113.954 25.8697C110.231 25.8676 107.345 28.8536 107.354 32.6967C107.364 36.5798 110.195 39.5132 113.942 39.5216C117.71 39.5279 120.569 36.6072 120.574 32.7493Z" fill="#3B3B3B"/>
<path d="M139.718 23.6733C140.641 23.6733 141.522 23.6733 142.443 23.6733C142.443 29.7128 142.443 35.7037 142.443 41.7537C141.547 41.7537 140.665 41.7537 139.685 41.7537C139.685 40.7219 139.685 39.69 139.685 38.6582C138.734 39.8374 137.773 40.8777 136.414 41.5115C133.759 42.7518 130.265 42.2717 128.442 40.3533C127.233 39.0814 126.751 37.4958 126.732 35.8027C126.685 31.8817 126.717 27.9586 126.719 24.0376C126.719 23.9366 126.748 23.8334 126.77 23.6797C127.644 23.6797 128.505 23.6797 129.49 23.6797C129.49 23.9345 129.49 24.2124 129.49 24.4883C129.49 27.7249 129.49 30.9636 129.49 34.2002C129.49 34.2802 129.49 34.3581 129.49 34.4361C129.492 37.3399 130.584 39.0035 132.765 39.4184C135.677 39.9743 138.228 38.675 139.143 36.028C139.488 35.0299 139.629 33.9243 139.655 32.8609C139.723 29.9676 139.678 27.07 139.68 24.1745C139.68 24.0229 139.704 23.8713 139.718 23.6733Z" fill="#3B3B3B"/>
<path d="M95.6097 23.684C95.6097 24.8401 95.6097 25.9309 95.6097 27.0238C96.5051 25.7645 97.4196 24.6105 98.823 23.9451C100.193 23.2965 101.622 23.0775 103.165 23.3176C103.165 24.2652 103.165 25.1686 103.165 26.0341C102.221 26.1036 101.31 26.0783 100.442 26.251C97.7561 26.79 95.8616 28.9232 95.7028 31.8397C95.5419 34.8026 95.6202 37.7781 95.5948 40.7472C95.5927 41.0842 95.5948 41.419 95.5948 41.7812C94.6338 41.7812 93.7701 41.7812 92.8472 41.7812C92.8472 35.7523 92.8472 29.7487 92.8472 23.6819C93.7214 23.684 94.6042 23.684 95.6097 23.684Z" fill="#3B3B3B"/>
</svg>
