<svg xmlns="http://www.w3.org/2000/svg" xmlns:xlink="http://www.w3.org/1999/xlink"><symbol id="discord"><path d="M23.826 2.647a21.94 21.94 0 00-5.502-1.72.083.083 0 00-.088.043c-.236.431-.497.994-.679 1.437a20.149 20.149 0 00-6.173.021c-.185-.45-.46-1.002-.7-1.431a.086.086 0 00-.088-.043 21.88 21.88 0 00-5.49 1.76.08.08 0 00-.036.03C1.59 8.095.648 13.303 1.137 18.442a.094.094 0 00.035.064 22.22 22.22 0 006.755 3.454.086.086 0 00.094-.032c.517-.726.977-1.49 1.371-2.295a.088.088 0 00-.047-.12 14.609 14.609 0 01-2.11-1.018.09.09 0 01-.009-.146c.141-.109.283-.222.417-.336A.082.082 0 017.731 18c4.426 2.043 9.21 2.026 13.569-.049a.082.082 0 01.088.011c.136.113.277.227.42.334a.09.09 0 01-.006.147c-.672.403-1.37.745-2.104 1.03a.089.089 0 00-.045.123c.408.8.874 1.561 1.386 2.283.021.03.06.044.095.033a22.145 22.145 0 006.74-3.502.088.088 0 00.035-.063c.542-5.945-.982-11.102-4.047-15.668a.07.07 0 00-.036-.032zm-13.79 12.632c-1.33.005-2.43-1.238-2.436-2.768-.005-1.53 1.066-2.78 2.417-2.786 1.362-.004 2.452 1.249 2.436 2.769.006 1.53-1.065 2.78-2.416 2.785zm8.972-.032c-1.33.005-2.43-1.238-2.436-2.768-.005-1.53 1.065-2.78 2.417-2.785 1.362-.005 2.452 1.248 2.436 2.768.005 1.53-1.054 2.78-2.417 2.785z" fill="#fff"/></symbol><symbol id="pictograms"><path d="M309.509 4.053l.008.007-.008-.007zm-13.338 14.059l-.008-.008.008.008zm-.361-.36l.012.013-.012-.013zM2.888 16.586l.003.002a9.654 9.654 0 01-.003-.002zm280.757-6.144h-10.634V9.46h10.634v.982zm-45.396.018a4.251 4.251 0 118.502-.001 4.251 4.251 0 01-8.502 0zm16 0a4.251 4.251 0 118.502-.001 4.251 4.251 0 01-8.502 0zm-224.137.098h10.634v.982H30.111v-.982zm44.397-.018a4.252 4.252 0 11-8.504 0 4.252 4.252 0 018.504 0zm-16 0a4.252 4.252 0 11-8.504 0 4.252 4.252 0 018.503 0zm108.243.46c0 5.938-4.814 10.752-10.752 10.752-5.938 0-10.752-4.814-10.752-10.752 0-5.938 4.814-10.752 10.752-10.752 5.938 0 10.752 4.814 10.752 10.752zm-4 0a6.752 6.752 0 11-13.503 0 6.752 6.752 0 0113.503 0zM156 18.248a7.248 7.248 0 100-14.496 7.248 7.248 0 000 14.497z" stroke="#fff" stroke-width=".497"/></symbol><symbol id="Vector"><path d="M308.982 3.585c.184.152.363.31.535.475l-.008-.007a9.538 9.538 0 00-.527-.468zm-12.326 14.954a9.244 9.244 0 01-.493-.435l.008.008c.157.147.318.29.485.427zm-.846-.787l.012.013-.012-.013zM16.944 3.245a9.657 9.657 0 01.003.003l-.003-.003zm266.701 7.197h-10.634V9.46h10.634v.982zm-45.396.018a4.251 4.251 0 118.502-.001 4.251 4.251 0 01-8.502 0zm16 0a4.251 4.251 0 118.502-.001 4.251 4.251 0 01-8.502 0zm-224.137.098h10.634v.982H30.111v-.982zm44.397-.018a4.252 4.252 0 11-8.504 0 4.252 4.252 0 018.504 0zm-16 0a4.252 4.252 0 11-8.504 0 4.252 4.252 0 018.503 0zm108.243.46c0 5.938-4.814 10.752-10.752 10.752-5.938 0-10.752-4.814-10.752-10.752 0-5.938 4.814-10.752 10.752-10.752 5.938 0 10.752 4.814 10.752 10.752zm-4 0a6.752 6.752 0 11-13.503 0 6.752 6.752 0 0113.503 0zM156 18.248a7.248 7.248 0 100-14.496 7.248 7.248 0 000 14.497z" stroke="#fff" stroke-width=".497"/></symbol><symbol id="wave"><path d="M128.022 12.151c-3.527.013-3.533-1.65-7.061-1.637-3.528.012-3.521 1.675-7.049 1.687-3.527.013-3.57-11.987-7.098-11.975-3.528.013-3.485 12.013-7.013 12.025-3.528.013-3.552-6.778-7.08-6.766-3.528.013-3.503 6.804-7.031 6.816-3.528.013-3.57-11.987-7.098-11.975-3.528.013-3.485 12.013-7.013 12.025-3.528.013-3.543-4.281-7.07-4.268-3.528.012-3.513 4.306-7.04 4.318-3.528.013-3.536-1.959-7.063-1.947-3.527.013-3.521 1.984-7.049 1.997-3.527.012-3.558-8.575-7.085-8.562-3.528.012-3.498 8.6-7.026 8.612-3.528.012-3.57-11.987-7.098-11.975-3.528.012-3.485 12.012-7.013 12.025-3.527.012-3.565-10.37-7.093-10.358-3.528.012-3.49 10.395-7.019 10.408" fill="#fff"/></symbol></svg>