<svg xmlns="http://www.w3.org/2000/svg" xmlns:xlink="http://www.w3.org/1999/xlink"><symbol id="Dribbble"><rect opacity=".1" x="1" width="40" height="40" rx="4" fill="#2F3337"/><path fill-rule="evenodd" clip-rule="evenodd" d="M31.334 19.985a10.674 10.674 0 01-.84 4.146 10.74 10.74 0 01-3.863 4.686c-.57.384-1.18.714-1.812.982a10.717 10.717 0 01-8.305 0 10.782 10.782 0 01-1.812-.982 10.753 10.753 0 01-2.88-2.877 10.642 10.642 0 01-1.606-3.81 10.782 10.782 0 010-4.29 10.594 10.594 0 011.607-3.81 10.746 10.746 0 012.879-2.876 10.565 10.565 0 013.817-1.604 10.75 10.75 0 016.3.62 10.707 10.707 0 014.691 3.86 10.561 10.561 0 011.606 3.812c.144.7.218 1.422.218 2.143zM16.78 11.758a9.11 9.11 0 00-5.028 6.352c.24.002 4.037.05 8.41-1.11a54.773 54.773 0 00-3.382-5.242zm4.137 6.642c-4.69 1.402-9.191 1.301-9.353 1.295-.002.098-.007.193-.007.29a9.05 9.05 0 002.334 6.078c-.003-.004 2.49-4.42 7.406-6.008.119-.04.24-.075.36-.11a30.761 30.761 0 00-.74-1.545zm5.765-5.242a9.072 9.072 0 00-6.015-2.268c-.74 0-1.459.09-2.147.255.137.183 1.848 2.45 3.405 5.306 3.438-1.287 4.735-3.26 4.758-3.293zm-4.405 8.295l-.06.02c-5.375 1.87-7.13 5.641-7.15 5.683a9.098 9.098 0 005.6 1.925 9.073 9.073 0 003.556-.72c-.135-.796-.664-3.581-1.946-6.908zm3.48 6.076a9.098 9.098 0 003.903-6.102c-.187-.06-2.736-.866-5.676-.395 1.195 3.279 1.68 5.949 1.773 6.497zm-3.13-9.723a28.674 28.674 0 01.802 1.79c3.13-.393 6.212.269 6.344.296a9.042 9.042 0 00-2.072-5.685c-.017.024-1.478 2.132-5.074 3.6z" fill="#2F3337"/></symbol><symbol id="Instagram"><rect opacity=".1" width="40" height="40" rx="4" fill="#2F3337"/><path fill-rule="evenodd" clip-rule="evenodd" d="M20.002 9.333c-2.897 0-3.26.013-4.399.065-1.135.052-1.91.231-2.589.495a5.223 5.223 0 00-1.89 1.23 5.236 5.236 0 00-1.23 1.89c-.265.678-.445 1.453-.496 2.588-.05 1.138-.064 1.502-.064 4.399 0 2.897.013 3.26.064 4.397.053 1.136.232 1.91.496 2.59a5.226 5.226 0 001.23 1.889 5.222 5.222 0 001.89 1.23c.678.265 1.453.444 2.588.496 1.138.052 1.502.065 4.398.065 2.897 0 3.26-.013 4.398-.065 1.135-.052 1.911-.231 2.59-.495a5.218 5.218 0 001.888-1.231 5.236 5.236 0 001.231-1.89c.262-.678.442-1.454.496-2.589.05-1.137.064-1.5.064-4.397 0-2.897-.013-3.26-.064-4.398-.054-1.136-.234-1.91-.496-2.59a5.236 5.236 0 00-1.23-1.889 5.212 5.212 0 00-1.89-1.23c-.68-.264-1.455-.443-2.59-.495-1.139-.052-1.5-.065-4.399-.065h.004zm-.957 1.922H20c2.849 0 3.186.01 4.31.062 1.04.047 1.605.221 1.981.367a3.3 3.3 0 011.226.798c.373.373.604.729.798 1.227.146.375.32.94.368 1.98.05 1.124.062 1.462.062 4.309 0 2.846-.011 3.184-.062 4.308-.048 1.04-.222 1.605-.368 1.98a3.299 3.299 0 01-.798 1.226 3.3 3.3 0 01-1.226.798c-.375.146-.94.32-1.98.367-1.125.051-1.462.062-4.31.062-2.849 0-3.186-.01-4.31-.062-1.04-.048-1.605-.222-1.981-.368a3.302 3.302 0 01-1.227-.797 3.306 3.306 0 01-.798-1.226c-.146-.376-.32-.94-.368-1.98-.05-1.125-.061-1.463-.061-4.311 0-2.849.01-3.185.061-4.309.048-1.04.222-1.604.368-1.98.193-.498.425-.854.798-1.227a3.31 3.31 0 011.227-.798c.376-.147.94-.32 1.98-.368.984-.045 1.366-.058 3.354-.06v.002zm6.65 1.772a1.28 1.28 0 100 2.56 1.28 1.28 0 000-2.56zm-5.693 1.495a5.478 5.478 0 100 10.956 5.478 5.478 0 000-10.956zm0 1.922a3.556 3.556 0 110 7.112 3.556 3.556 0 010-7.112z" fill="#2F3337"/></symbol><symbol id="Twitter"><rect opacity=".1" width="40" height="40" rx="4" fill="#2F3337"/><path fill-rule="evenodd" clip-rule="evenodd" d="M19.734 16.256l.042.692-.7-.084c-2.545-.325-4.77-1.427-6.658-3.277l-.924-.918-.237.678c-.504 1.511-.182 3.107.867 4.18.56.594.434.678-.532.325-.335-.113-.63-.197-.657-.155-.098.099.238 1.384.503 1.893.364.706 1.106 1.398 1.917 1.807l.686.325-.812.014c-.783 0-.811.014-.727.311.28.918 1.385 1.893 2.616 2.316l.867.297-.755.452a7.877 7.877 0 01-3.75 1.045c-.63.014-1.147.07-1.147.113 0 .141 1.707.932 2.7 1.243 2.98.918 6.52.522 9.178-1.045 1.888-1.116 3.777-3.333 4.658-5.48.476-1.144.951-3.234.951-4.237 0-.65.042-.735.826-1.511.461-.452.895-.947.979-1.088.14-.268.126-.268-.588-.028-1.189.424-1.357.367-.769-.269.434-.451.951-1.27.951-1.51 0-.043-.21.028-.447.155-.252.14-.812.353-1.231.48l-.756.24-.685-.466c-.378-.254-.91-.537-1.19-.621-.713-.198-1.804-.17-2.448.056-1.748.636-2.854 2.274-2.728 4.067z" fill="#2F3337"/></symbol><symbol id="Youtube"><rect opacity=".1" width="40" height="40" rx="4" fill="#2F3337"/><path fill-rule="evenodd" clip-rule="evenodd" d="M28.335 13.124a2.71 2.71 0 011.886 1.937c.446 1.708.446 5.272.446 5.272s0 3.564-.446 5.273a2.709 2.709 0 01-1.886 1.936C26.67 28 20 28 20 28s-6.671 0-8.335-.458a2.709 2.709 0 01-1.886-1.936c-.446-1.709-.446-5.273-.446-5.273s0-3.564.446-5.272a2.708 2.708 0 011.886-1.937c1.664-.457 8.335-.457 8.335-.457s6.671 0 8.335.457zM18 17.334V24l5.333-3.333L18 17.333z" fill="#2F3337"/></symbol></svg>