<svg width="54" height="54" viewBox="0 0 54 54" fill="none" xmlns="http://www.w3.org/2000/svg">
<path d="M53.5928 44.7785C53.0835 41.5599 50.6102 39.0451 47.3998 38.5344C46.66 38.4171 45.9009 38.4226 45.1073 38.3688V37.7394C45.1073 33.7548 45.1073 29.7701 45.1059 25.7868C45.1059 24.8124 44.9099 24.6164 43.9162 24.6164C39.3808 24.615 34.8441 24.615 30.3087 24.6164C29.2708 24.6164 29.0845 24.8083 29.0831 25.8683V38.3799H25.2875V37.7201C25.2875 33.7368 25.2875 29.7522 25.2861 25.7675C25.2861 24.8483 25.0653 24.6178 24.1668 24.6178C19.5624 24.615 14.9567 24.615 10.3523 24.6178C9.47861 24.6178 9.26468 24.8442 9.26468 25.7316C9.2633 29.7508 9.2633 33.77 9.2633 37.7878V38.4282C8.82301 38.4282 8.46416 38.4213 8.10392 38.4282C4.70861 38.4917 1.85158 40.7028 0.948923 43.9669C0.848167 44.3313 0.772256 44.6998 0.685303 45.067V46.8267C0.763975 47.158 0.824704 47.4948 0.922699 47.8191C1.8502 50.8832 3.86944 52.7464 7.02598 53.3565C7.12259 53.3744 7.21507 53.42 7.3103 53.4517H24.3904C24.7285 53.1881 25.028 52.9038 24.8458 52.4166C24.6678 51.939 24.2703 51.8742 23.83 51.8976C23.6754 51.9059 23.5195 51.899 23.3649 51.899C18.2926 51.8976 13.2204 51.9156 8.14947 51.8907C4.93082 51.8742 2.31533 49.2738 2.24356 46.0883C2.16903 42.7689 4.7721 40.032 8.09702 39.9919C10.874 39.9574 13.6524 39.9837 16.4293 39.9809C17.1236 39.9809 17.4949 39.7104 17.5045 39.2094C17.5142 38.6959 17.1595 38.4254 16.4597 38.424C14.7689 38.4213 13.0782 38.4226 11.3874 38.4226H10.8464V26.2147H20.8708V26.2271H23.681V38.4226H22.9632C21.9281 38.424 20.8929 38.4157 19.8578 38.4323C19.3844 38.4392 19.1014 38.7332 19.0862 39.1638C19.0711 39.5875 19.3443 39.905 19.7957 39.9685C19.9489 39.9892 20.1062 39.9809 20.2608 39.9809C22.8652 39.9823 25.4711 39.9809 28.0755 39.9823C34.1816 39.9837 40.289 39.9505 46.395 40.0016C50.1064 40.032 52.8503 43.6854 51.9683 47.2836C51.2906 50.044 48.9636 51.8907 46.0997 51.8949C39.9067 51.9059 33.7137 51.9004 27.5207 51.8949C27.0763 51.8949 26.676 51.9487 26.5062 52.4221C26.3351 52.9024 26.6208 53.2005 26.9783 53.4517H47.0603C47.3916 53.3731 47.7269 53.311 48.0513 53.213C51.1181 52.2882 52.9786 50.2662 53.5901 47.1111C53.608 47.0131 53.6522 46.922 53.6853 46.8267V45.067C53.6536 44.9704 53.608 44.8765 53.5928 44.7785ZM43.5173 38.3895H30.6745V26.2106H32.4646V26.1581H41.2979V26.1857C42.0294 26.1899 42.7651 26.1816 43.5173 26.1816V38.3895Z" fill="#82030A"/>
<path d="M35.3023 15.1344C34.5059 14.2041 33.693 13.2877 32.9187 12.3408C32.7682 12.1573 32.6661 11.8453 32.6965 11.6135C32.9435 9.71844 32.3776 8.1174 31.0595 6.75099C30.9146 6.60055 30.8194 6.34245 30.8097 6.12852C30.778 5.42323 30.8221 4.71519 30.789 4.00852C30.7228 2.5662 30.0506 1.4855 28.7587 0.820237C28.4578 0.665654 28.1252 0.57318 27.8064 0.451721H26.5642C26.4717 0.488987 26.382 0.535914 26.2868 0.563518C24.6623 1.02589 23.6119 2.37159 23.5761 4.06097C23.5623 4.76763 23.5871 5.47568 23.5623 6.18097C23.5567 6.36315 23.4725 6.58537 23.3469 6.71373C21.9888 8.09808 21.4119 9.72948 21.6796 11.6632C21.7086 11.866 21.6203 12.1407 21.4878 12.3008C20.6638 13.2959 19.8053 14.2635 18.9703 15.2517C18.1021 16.2786 18.0276 17.6091 18.8571 18.6222C20.0262 20.0493 21.2407 21.4392 22.4636 22.8208C22.9439 23.3632 23.5733 23.642 24.3214 23.4833C25.8437 23.1575 26.4745 21.4295 25.4918 20.2135C24.7023 19.2336 23.8507 18.3047 23.0461 17.3372C22.9439 17.2157 22.8652 16.9286 22.9343 16.8362C23.3014 16.3462 23.7196 15.8949 24.1254 15.4242C25.1026 16.0467 26.117 16.3421 27.2115 16.3407C28.3033 16.3393 29.3081 16.0177 30.2521 15.4284C30.72 15.9722 31.1631 16.4884 31.6116 17.0115C31.4432 17.2102 31.3218 17.3551 31.1989 17.4987C30.4357 18.3889 29.6503 19.2612 28.9147 20.1721C28.001 21.3039 28.3336 22.7462 29.6062 23.3245C30.4522 23.7096 31.3066 23.5191 31.9788 22.7504C33.1036 21.4654 34.2133 20.168 35.3216 18.8706C36.3457 17.6726 36.3361 16.3421 35.3023 15.1344ZM25.1716 3.76008C25.3124 2.69456 26.2233 1.97133 27.2667 2.00998C28.3171 2.04862 29.1659 2.88089 29.2335 3.97125C29.2639 4.46813 29.2377 4.96776 29.2377 5.54745C27.8671 5.10716 26.5214 5.06438 25.1578 5.55987C25.1578 4.91808 25.0957 4.33011 25.1716 3.76008ZM21.6893 15.8659C20.9578 16.7244 20.9537 17.2999 21.6796 18.1474C22.4967 19.1052 23.318 20.0603 24.1419 21.0113C24.3586 21.2625 24.5588 21.5206 24.2413 21.8118C23.9156 22.1086 23.681 21.8753 23.4656 21.6241C22.3753 20.3557 21.2808 19.0914 20.1959 17.8175C19.7708 17.3165 19.7142 16.8169 20.0883 16.3572C20.8253 15.4518 21.6024 14.5768 22.3918 13.6548C22.5864 13.9115 22.7507 14.1282 22.9522 14.396C22.534 14.8832 22.1103 15.3732 21.6893 15.8659ZM27.2074 14.7797C25.0004 14.7948 23.1799 12.9978 23.1648 10.7881C23.1496 8.57977 24.9507 6.76203 27.1618 6.75375C29.384 6.74547 31.1879 8.52594 31.2058 10.7426C31.2224 12.9481 29.424 14.7645 27.2074 14.7797ZM34.2285 17.7485C33.1036 19.0735 31.965 20.3861 30.8332 21.7056C30.6248 21.9498 30.3763 22.0451 30.1182 21.8201C29.8491 21.5841 29.9623 21.3288 30.161 21.0969C31.014 20.1059 31.8683 19.1149 32.7158 18.1198C33.4018 17.3123 33.4018 16.7202 32.7268 15.9197C32.3045 15.4201 31.8766 14.9273 31.4212 14.3973C31.6075 14.1461 31.7704 13.9281 31.9801 13.6451C32.7889 14.6016 33.5936 15.5112 34.3431 16.4635C34.666 16.8734 34.5611 17.3579 34.2285 17.7485Z" fill="#82030A"/>
<path d="M27.1577 50.32C21.0337 50.32 14.9097 50.3228 8.78575 50.3187C6.54705 50.3173 4.83145 49.0834 4.26557 47.0876C3.52025 44.4528 5.36835 41.7614 8.08874 41.524C8.36341 41.5005 8.63945 41.4895 8.91549 41.4895C17.1098 41.4881 25.3027 41.4881 33.497 41.4895C33.7206 41.4895 33.9497 41.4853 34.165 41.535C34.5501 41.622 34.7488 41.8939 34.7392 42.2858C34.7295 42.6778 34.5156 42.9373 34.1278 43.0077C33.9097 43.0477 33.6819 43.0394 33.4584 43.0394C25.2986 43.0408 17.1402 43.0394 8.98036 43.045C8.56906 43.045 8.14395 43.056 7.75059 43.1581C6.42973 43.4991 5.57124 44.7412 5.65958 46.1159C5.74377 47.4188 6.74856 48.5064 8.06942 48.7093C8.32338 48.748 8.58424 48.7632 8.84234 48.7632C21.0724 48.7659 33.3038 48.7659 45.5338 48.7645C47.4771 48.7645 48.7897 47.5168 48.7152 45.7488C48.6586 44.4031 47.6027 43.2313 46.2639 43.0905C45.6318 43.0243 44.99 43.0422 44.3523 43.0408C42.075 43.0353 39.7977 43.0394 37.5217 43.0381C37.316 43.0381 37.1035 43.0436 36.9047 43.0008C36.5169 42.9166 36.2602 42.624 36.3347 42.261C36.3899 41.9919 36.6618 41.7503 36.8827 41.5433C36.9724 41.4591 37.1794 41.4881 37.334 41.4881C40.1289 41.4853 42.9238 41.4701 45.7174 41.4908C47.9864 41.5088 49.7614 42.9235 50.1741 44.9897C50.7358 47.8053 48.6862 50.2745 45.7381 50.3131C44.2723 50.3325 42.8051 50.3173 41.3393 50.3173C36.6108 50.32 31.8849 50.32 27.1577 50.32Z" fill="#82030A"/>
<path d="M27.2088 45.1249C32.7434 45.1249 38.278 45.1249 43.8127 45.1249C43.9162 45.1249 44.0197 45.1249 44.1232 45.1249C44.8837 45.1291 45.2246 45.372 45.2177 45.9075C45.2108 46.4348 44.8658 46.6763 44.1011 46.6763C34.3251 46.6777 24.5491 46.6777 14.7745 46.6777C13.2231 46.6777 11.6704 46.6777 10.119 46.6777C9.67183 46.6777 9.28676 46.5686 9.1722 46.0662C9.06592 45.5997 9.34748 45.2091 9.83194 45.1443C10.0183 45.1194 10.2101 45.1263 10.3992 45.1263C16.0015 45.1249 21.6051 45.1249 27.2088 45.1249Z" fill="#82030A"/>
<path d="M27.1936 8.10359C25.7264 8.09945 24.5243 9.28229 24.5105 10.7425C24.4953 12.2221 25.714 13.4395 27.2019 13.4284C28.6704 13.4188 29.8643 12.2208 29.8602 10.7605C29.8574 9.30023 28.658 8.10635 27.1936 8.10359ZM27.206 11.866C26.5891 11.8771 26.0756 11.3816 26.0687 10.7729C26.0632 10.1642 26.5739 9.6577 27.1895 9.66046C27.7857 9.66184 28.2771 10.1353 28.3005 10.7301C28.324 11.3333 27.8202 11.8564 27.206 11.866Z" fill="#82030A"/>
</svg>
