<svg width="55" height="41" viewBox="0 0 55 41" fill="none" xmlns="http://www.w3.org/2000/svg">
<path d="M54.6846 39.7039C54.3696 40.2665 53.8985 40.4517 53.2503 40.4517C36.2027 40.4377 19.1566 40.4405 2.11051 40.4405C1.98817 40.4405 1.86442 40.4447 1.74208 40.4377C1.13319 40.3984 0.70008 39.9705 0.690237 39.4036C0.680393 38.8185 1.12898 38.3484 1.76318 38.3428C3.48579 38.3288 5.20699 38.3372 6.92961 38.3372C7.45412 38.3372 7.97723 38.3372 8.61425 38.3372C7.5849 37.0871 7.04351 35.733 7.01117 34.1559C6.84664 34.1461 6.69477 34.1293 6.5429 34.1293C5.69917 34.1265 4.85544 34.1307 4.01171 34.1279C2.04161 34.1181 0.697268 32.7851 0.686018 30.8306C0.681799 30.0939 0.686018 29.3573 0.686018 28.6207C0.686018 20.397 0.686018 12.1733 0.686018 3.94828C0.686018 1.73557 1.96708 0.453124 4.18046 0.451721C14.0225 0.451721 23.8632 0.451721 33.7053 0.453124C35.8835 0.453124 37.1758 1.74539 37.1773 3.92162C37.1787 6.06137 37.1773 8.19972 37.1773 10.3395C37.1773 10.5289 37.1773 10.7197 37.1773 10.9765C37.398 10.9765 37.5851 10.9765 37.7707 10.9765C40.4242 10.9765 43.0777 10.9891 45.7312 10.9723C47.2218 10.9625 48.2723 11.6023 48.936 12.9338C50.6867 16.4444 52.4544 19.948 54.2135 23.4558C54.3781 23.7827 54.5271 24.1167 54.6832 24.4478C54.6832 26.798 54.6832 29.1482 54.6832 31.4984C54.3781 32.576 53.7945 33.4207 52.7384 33.9006C52.6372 33.9469 52.5809 34.1826 52.5739 34.3341C52.5036 35.6839 52.0747 36.899 51.2534 37.9752C51.1775 38.0748 51.1185 38.1857 51.0214 38.3386C51.8159 38.3386 52.5359 38.3723 53.2531 38.3288C53.9042 38.2895 54.3724 38.5112 54.6832 39.0753C54.6846 39.2829 54.6846 39.4934 54.6846 39.7039ZM35.0679 32.0218C35.0679 31.7805 35.0679 31.6233 35.0679 31.4662C35.0679 22.2968 35.0679 13.1275 35.0679 3.95811C35.0679 2.89033 34.7262 2.55639 33.6392 2.55639C23.8351 2.55639 14.0296 2.55639 4.22546 2.55639C3.13564 2.55639 2.79674 2.88893 2.79674 3.9567C2.79674 10.3212 2.79674 16.6858 2.79674 23.0489C2.79674 23.2187 2.79674 23.3884 2.79674 23.6031C3.86828 23.6031 4.88357 23.5933 5.89885 23.6059C6.57102 23.6143 7.00132 24.0226 7.00976 24.6821C7.02663 26.067 7.02663 27.4519 7.00976 28.8367C7.00132 29.492 6.56821 29.8989 5.89604 29.9115C5.1409 29.9256 4.38436 29.9157 3.62922 29.9157C3.35642 29.9157 3.08502 29.9157 2.79815 29.9157C2.79815 30.2272 2.79674 30.4559 2.79815 30.6832C2.80237 31.6528 3.16517 32.0176 4.13265 32.0204C5.04669 32.0232 5.96072 32.005 6.87336 32.0288C7.23475 32.0386 7.40209 31.9292 7.56803 31.584C8.7169 29.1861 10.6392 27.8503 13.3082 27.8349C16.0011 27.8195 17.9459 29.1524 19.1102 31.5672C19.2874 31.9348 19.4674 32.0316 19.8471 32.0302C24.7323 32.0176 29.616 32.0218 34.5012 32.0218C34.6686 32.0218 34.8401 32.0218 35.0679 32.0218ZM37.1899 31.9573C37.249 31.9769 37.3108 32.0162 37.3727 32.0162C38.2516 32.0204 39.1305 32.0372 40.0094 32.005C40.1542 31.9994 40.3497 31.8043 40.4214 31.6514C41.5435 29.2815 43.4068 27.9303 46.0251 27.8391C48.7166 27.7465 50.6882 29.0233 51.9467 31.396C52.0086 31.5125 52.0761 31.6261 52.1422 31.7412C52.2026 31.7482 52.2617 31.7552 52.3222 31.7622C52.4065 31.4297 52.5584 31.0986 52.564 30.766C52.5908 29.2927 52.5753 27.8195 52.5753 26.3462C52.5753 26.1442 52.5753 25.9407 52.5753 25.7092C52.3109 25.7092 52.1197 25.7092 51.9284 25.7092C48.1499 25.7092 44.37 25.7106 40.5915 25.7078C39.6564 25.7078 39.2894 25.336 39.288 24.3945C39.2866 21.7636 39.2866 19.1328 39.288 16.502C39.288 15.5591 39.655 15.1872 40.5887 15.1858C42.7501 15.183 44.9128 15.1844 47.0742 15.1844C47.257 15.1844 47.4384 15.1844 47.6943 15.1844C47.4525 14.6933 47.2373 14.2934 47.0545 13.8795C46.7958 13.2916 46.3626 13.0657 45.72 13.0713C43.0482 13.091 40.3764 13.0784 37.7046 13.0812C37.5358 13.0812 37.3685 13.0966 37.1899 13.105C37.1899 19.4148 37.1899 25.6741 37.1899 31.9573ZM18.2088 38.3022C25.9219 38.3022 33.6716 38.3022 41.3804 38.3022C41.0275 37.6497 40.6098 37.0351 40.3553 36.3588C40.0937 35.6657 39.9925 34.9136 39.8139 34.1559C33.1499 34.1559 26.4268 34.1559 19.7754 34.1559C19.5982 34.9094 19.5012 35.6475 19.2438 36.3238C18.9794 37.0127 18.5604 37.6441 18.2088 38.3022ZM41.3959 23.561C44.9199 23.561 48.3806 23.561 51.8989 23.561C50.8681 21.5027 49.8725 19.4976 48.8488 17.5052C48.7841 17.3789 48.5099 17.2989 48.3327 17.2975C46.7522 17.2821 45.1702 17.2877 43.5896 17.2877C42.8738 17.2877 42.1595 17.2877 41.4184 17.2877C41.4086 17.4224 41.3973 17.5066 41.3973 17.5894C41.3959 19.5706 41.3959 21.549 41.3959 23.561ZM9.1247 34.104C9.11486 36.4248 11.009 38.3302 13.3321 38.3344C15.6355 38.3386 17.5367 36.4669 17.5578 34.1742C17.5789 31.8492 15.6959 29.9326 13.3757 29.9185C11.0456 29.9031 9.13455 31.7847 9.1247 34.104ZM42.0287 34.1082C42.0217 36.4304 43.9158 38.3316 46.2403 38.333C48.5423 38.3344 50.4421 36.4613 50.4618 34.1686C50.4814 31.845 48.5957 29.9298 46.274 29.9171C43.944 29.9059 42.0371 31.7875 42.0287 34.1082ZM2.82627 25.7344C2.82627 26.4304 2.82627 27.1011 2.82627 27.7774C3.52938 27.7774 4.20155 27.7774 4.86528 27.7774C4.86528 27.0702 4.86528 26.3995 4.86528 25.7344C4.16499 25.7344 3.50548 25.7344 2.82627 25.7344Z" fill="#82030A"/>
<path d="M23.1439 8.87042C21.0023 8.87042 18.8606 8.88445 16.7203 8.85639C16.3969 8.85218 16.0285 8.72169 15.7683 8.53087C15.4393 8.28953 15.3704 7.88403 15.5166 7.48134C15.6685 7.06321 15.9764 6.82188 16.4152 6.77838C16.6936 6.75032 16.9763 6.76716 17.2575 6.76716C21.2765 6.76716 25.2954 6.76716 29.3158 6.76716C29.4733 6.76716 29.6322 6.76154 29.7897 6.76996C30.3958 6.80644 30.8345 7.2358 30.8458 7.79844C30.8584 8.38074 30.4084 8.85499 29.7798 8.86481C28.6394 8.88305 27.4976 8.87042 26.3571 8.87183C25.2856 8.87042 24.2155 8.87042 23.1439 8.87042Z" fill="#82030A"/>
<path d="M25.2561 10.9751C26.6946 10.9751 28.1332 10.9723 29.5717 10.9765C30.3648 10.9779 30.8612 11.4016 30.8458 12.0513C30.8303 12.6841 30.3508 13.0784 29.5788 13.0798C26.7016 13.0826 23.8245 13.0826 20.9474 13.0798C20.1501 13.0798 19.6607 12.6588 19.6748 12.005C19.6889 11.3708 20.1656 10.9793 20.9404 10.9765C22.3789 10.9723 23.8175 10.9751 25.2561 10.9751Z" fill="#82030A"/>
<path d="M12.2753 8.8676C11.6932 8.86059 11.2151 8.36248 11.2361 7.78159C11.2558 7.22175 11.7354 6.76433 12.2978 6.77135C12.88 6.77837 13.3595 7.27928 13.337 7.85736C13.3173 8.4158 12.8364 8.87322 12.2753 8.8676Z" fill="#82030A"/>
<path d="M13.3595 36.2284C12.2008 36.2368 11.2432 35.2967 11.2347 34.1433C11.2263 32.9858 12.1657 32.0316 13.323 32.0218C14.4831 32.0134 15.4393 32.9521 15.4492 34.1068C15.459 35.263 14.5168 36.2199 13.3595 36.2284Z" fill="#82030A"/>
<path d="M46.2242 36.2283C45.0668 36.2171 44.1289 35.2616 44.1387 34.104C44.1486 32.9479 45.1048 32.012 46.2663 32.0232C47.4236 32.0344 48.3644 32.9913 48.3532 34.1475C48.3433 35.3009 47.3829 36.2396 46.2242 36.2283Z" fill="#82030A"/>
</svg>
