<svg width="44" height="49" viewBox="0 0 44 49" fill="none" xmlns="http://www.w3.org/2000/svg">
<path d="M41.1034 48.4519C31.0895 48.4519 21.0744 48.4519 11.0605 48.4519C9.13357 47.6632 8.71344 47.0293 8.71344 44.9105C8.71344 44.416 8.71344 43.9214 8.71344 43.3894C8.49282 43.3894 8.32382 43.3894 8.15366 43.3894C6.62101 43.3894 5.08718 43.3918 3.55452 43.3894C1.61934 43.3871 0.45166 42.2293 0.45166 40.3039C0.45166 28.0414 0.45166 15.7789 0.452834 3.51637C0.452834 1.62028 1.62638 0.453088 3.53105 0.453088C13.0567 0.451917 22.5836 0.451917 32.1105 0.453088C34.0152 0.453088 35.1828 1.62028 35.1887 3.51637C35.1911 4.16793 35.1887 4.81949 35.1887 5.51442C35.4023 5.51442 35.5713 5.51442 35.7391 5.51442C37.3187 5.51442 38.8995 5.50738 40.4791 5.51676C42.2406 5.52731 43.4458 6.70504 43.447 8.45231C43.4528 20.8086 43.4505 33.1636 43.4493 45.5199C43.4493 46.5394 43.062 47.3843 42.2018 47.955C41.8721 48.1742 41.4719 48.289 41.1034 48.4519ZM33.311 34.7644C33.311 34.5382 33.311 34.3695 33.311 34.2007C33.311 31.7632 33.3087 29.3257 33.3122 26.8894C33.3134 26.1054 33.7488 25.6671 34.4059 25.7656C34.9117 25.8418 35.1864 26.2402 35.1875 26.9234C35.1899 29.7195 35.1793 32.5168 35.1957 35.3129C35.1993 35.8543 35.0291 36.2632 34.6465 36.6418C32.567 38.6972 30.498 40.7621 28.4408 42.8398C28.0477 43.2371 27.624 43.3988 27.0666 43.3976C21.7621 43.3836 16.4589 43.3894 11.1544 43.3894C10.9737 43.3894 10.7941 43.3894 10.5911 43.3894C10.5911 44.0339 10.5911 44.6105 10.5911 45.1871C10.5911 46.305 10.8599 46.5769 11.97 46.5769C21.3737 46.5769 30.7762 46.5769 40.1798 46.5769C41.3005 46.5769 41.5716 46.3086 41.5716 45.2C41.5716 37.5441 41.5716 29.8882 41.5716 22.2336C41.5716 17.6867 41.5728 13.141 41.5705 8.5941C41.5705 7.73395 41.2337 7.3941 40.3817 7.39059C39.552 7.38707 38.7234 7.38942 37.8937 7.38942C37.0065 7.38942 36.1193 7.38942 35.1875 7.38942C35.1875 7.6027 35.1875 7.77028 35.1875 7.93785C35.1875 11.2812 35.1887 14.6246 35.1875 17.9679C35.1875 18.7355 34.846 19.1843 34.2628 19.1937C33.6643 19.2043 33.3122 18.7437 33.3099 17.948C33.3099 17.8543 33.3099 17.7605 33.3099 17.6668C33.3099 12.9957 33.3099 8.3234 33.3099 3.65231C33.3099 2.62574 33.0165 2.32574 32.0084 2.32574C22.5425 2.32574 13.0767 2.32574 3.61085 2.32574C2.63329 2.32574 2.32934 2.63512 2.32934 3.62418C2.32934 15.8257 2.32934 28.0285 2.32934 40.23C2.32934 41.2074 2.63798 41.5121 3.62846 41.5121C11.0911 41.5121 18.5548 41.5121 26.0174 41.5121C26.1841 41.5121 26.3495 41.5121 26.5502 41.5121C26.5502 40.0683 26.549 38.6808 26.5502 37.2933C26.5526 35.6621 27.4445 34.7656 29.0686 34.7632C30.4617 34.7632 31.8535 34.7644 33.311 34.7644ZM31.8746 36.6406C30.8571 36.6406 29.8725 36.6265 28.8891 36.6546C28.7365 36.6593 28.4631 36.8515 28.4596 36.9628C28.4267 37.9976 28.4396 39.0347 28.4396 40.0695C29.5909 38.9199 30.714 37.7996 31.8746 36.6406Z" fill="#82030A"/>
<path d="M17.7732 9.45172C14.2843 9.45172 10.7941 9.4529 7.30518 9.44938C7.08925 9.44938 6.86275 9.43883 6.65738 9.3779C6.22903 9.25133 6.02132 8.91501 6.02953 8.49079C6.03775 8.08766 6.24664 7.7654 6.65621 7.65055C6.87683 7.58844 7.11858 7.57907 7.35095 7.57907C14.33 7.57555 21.308 7.57673 28.2871 7.57673C29.166 7.57673 29.6378 7.91774 29.619 8.53766C29.6003 9.14235 29.1508 9.45172 28.2882 9.45172C24.7828 9.4529 21.2786 9.45172 17.7732 9.45172Z" fill="#82030A"/>
<path d="M17.8132 12.4517C21.315 12.4517 24.8169 12.4506 28.3176 12.4552C28.5488 12.4552 28.7917 12.467 29.01 12.5349C29.4149 12.6615 29.6132 12.9896 29.6109 13.3927C29.6085 13.7959 29.409 14.1228 29.003 14.2459C28.7847 14.3127 28.5418 14.3232 28.3106 14.3232C21.3232 14.3267 14.3348 14.3267 7.34745 14.3267C6.48607 14.3267 6.03777 14.0162 6.02251 13.4092C6.00608 12.7881 6.47316 12.4517 7.35567 12.4517C10.8411 12.4517 14.3265 12.4517 17.8132 12.4517Z" fill="#82030A"/>
<path d="M17.8202 19.2017C14.3148 19.2017 10.8106 19.2029 7.30518 19.1994C7.08925 19.1994 6.86275 19.1888 6.65738 19.1279C6.22903 19.0013 6.02132 18.665 6.02953 18.2419C6.03775 17.8388 6.24546 17.5166 6.65621 17.4017C6.87683 17.3396 7.11858 17.3302 7.35095 17.3302C14.33 17.3267 21.308 17.3279 28.2871 17.3279C29.166 17.3279 29.6378 17.6689 29.619 18.2888C29.6003 18.8935 29.1508 19.2029 28.2882 19.2029C24.7993 19.2029 21.3103 19.2017 17.8202 19.2017Z" fill="#82030A"/>
<path d="M12.2775 30.4564C12.274 32.2939 10.7355 33.8267 8.89768 33.8244C7.05756 33.8209 5.52256 32.2845 5.52491 30.4494C5.52843 28.6119 7.06695 27.079 8.90472 27.0814C10.746 27.0837 12.281 28.6201 12.2775 30.4564ZM8.88125 28.9552C8.06681 28.9658 7.39789 29.6466 7.40258 30.4611C7.40728 31.2744 8.08324 31.947 8.89886 31.9494C9.73208 31.9505 10.4186 31.2533 10.401 30.4212C10.3834 29.608 9.6957 28.9447 8.88125 28.9552Z" fill="#82030A"/>
<path d="M11.8632 24.0767C10.2824 24.0767 8.70285 24.0826 7.12208 24.0744C6.32641 24.0697 5.86403 23.513 6.07879 22.8462C6.2114 22.4349 6.56112 22.2064 7.11151 22.2029C8.14424 22.1958 9.17696 22.2005 10.2097 22.2005C12.2751 22.2005 14.3406 22.2005 16.406 22.2017C16.5774 22.2017 16.7522 22.197 16.92 22.2263C17.3883 22.3072 17.7157 22.6892 17.7192 23.1334C17.7227 23.574 17.3953 23.9642 16.9306 24.0486C16.7628 24.0791 16.5879 24.0744 16.4166 24.0744C14.8992 24.0779 13.3818 24.0767 11.8632 24.0767Z" fill="#82030A"/>
<path d="M18.0091 31.3892C16.9928 31.3892 15.9765 31.3951 14.9602 31.3869C14.3488 31.3822 13.9545 31.0611 13.8923 30.549C13.8277 30.0275 14.2303 29.5318 14.8123 29.5259C16.9376 29.506 19.0641 29.5072 21.1906 29.5248C21.7363 29.5295 22.1247 29.9548 22.1271 30.447C22.1294 30.9556 21.7257 31.3705 21.1507 31.381C20.1039 31.4009 19.0559 31.3869 18.0091 31.3869C18.0091 31.3881 18.0091 31.3892 18.0091 31.3892Z" fill="#82030A"/>
<path d="M34.2722 21.6275C34.7745 21.638 35.1958 22.074 35.1817 22.5673C35.1676 23.0642 34.724 23.4837 34.2288 23.4708C33.7312 23.458 33.304 23.0138 33.3181 22.524C33.3322 22.0248 33.7664 21.6169 34.2722 21.6275Z" fill="#82030A"/>
<path d="M22.1271 23.1181C22.1412 23.6021 21.7081 24.0545 21.2153 24.0697C20.7271 24.0838 20.2776 23.6548 20.2647 23.1615C20.2518 22.6716 20.6789 22.2228 21.1718 22.2099C21.6589 22.1959 22.1118 22.6283 22.1271 23.1181Z" fill="#82030A"/>
</svg>
