<svg width="50" height="57" viewBox="0 0 50 57" fill="none" xmlns="http://www.w3.org/2000/svg">
<path d="M10.1207 47.9776C8.932 48.2915 7.77227 48.5925 6.61575 48.9031C5.33537 49.2459 4.05661 49.5904 2.78106 49.9445C2.25508 50.0909 1.74197 50.1988 1.35753 49.6805C0.994009 49.1912 1.21437 48.7421 1.47817 48.2867C3.05129 45.5762 4.61476 42.8577 6.17984 40.1425C6.28922 39.9526 6.39377 39.761 6.51119 39.5502C6.43881 39.4858 6.39056 39.4214 6.32622 39.386C5.02172 38.6488 4.433 37.4787 4.45391 36.0366C4.47161 34.8552 4.59546 33.669 4.74988 32.4957C4.9236 31.1694 4.62441 30.0476 3.68183 29.069C2.88883 28.2449 2.11031 27.3935 1.42831 26.4777C0.135065 24.7394 0.127023 23.1637 1.41544 21.4334C2.12157 20.4854 2.93548 19.6131 3.75099 18.7536C4.63889 17.8152 4.91555 16.7369 4.75792 15.4814C4.61637 14.3451 4.47161 13.2024 4.45069 12.0612C4.41048 10.0075 5.34342 8.69731 7.29776 8.09052C8.48323 7.72355 9.71213 7.4966 10.9314 7.24874C12.0509 7.0218 12.86 6.42305 13.4213 5.4332C14.0358 4.3516 14.6277 3.24586 15.3403 2.23026C16.5226 0.545091 18.0233 0.0960346 19.9905 0.722138C20.4103 0.855728 20.8189 1.02795 21.2226 1.20338C21.9963 1.53977 22.7587 1.89709 23.5324 2.23187C24.4847 2.6439 25.4466 2.63908 26.402 2.23509C26.9746 1.99205 27.5408 1.73453 28.1103 1.48183C28.477 1.31927 28.8373 1.14061 29.2089 0.987708C31.8211 -0.0906696 33.4923 0.427596 35.0124 2.82417C35.5609 3.68848 36.045 4.59303 36.5469 5.48792C37.0825 6.44237 37.8787 7.00731 38.95 7.23264C40.1467 7.48373 41.3563 7.70745 42.5257 8.06316C44.6136 8.69731 45.5191 9.94629 45.4773 12.1288C45.4532 13.352 45.2988 14.5737 45.1701 15.7921C45.0559 16.8785 45.3374 17.8136 46.0805 18.62C46.8027 19.4038 47.5394 20.1764 48.2054 21.0069C49.8782 23.0912 49.8653 24.8553 48.1893 26.9444C47.7373 27.5078 47.2724 28.0775 46.732 28.5523C45.2553 29.8448 44.8918 31.4334 45.257 33.2972C45.4065 34.0617 45.4532 34.8536 45.4741 35.6358C45.5224 37.5608 45.0414 38.4525 43.4023 39.5582C43.5037 39.7369 43.6066 39.9236 43.7128 40.1071C45.3213 42.8674 46.9282 45.6293 48.5415 48.3864C48.7892 48.8114 48.9404 49.2331 48.6059 49.6741C48.2986 50.0797 47.8965 50.1344 47.4204 50.004C45.0768 49.3666 42.73 48.7421 40.3832 48.116C40.2127 48.071 40.0406 48.0356 39.8186 47.9825C39.3602 49.6853 38.9098 51.348 38.4626 53.0122C38.2439 53.8266 38.0219 54.641 37.8128 55.4571C37.6857 55.9576 37.4669 56.3793 36.9008 56.4453C36.3603 56.5081 36.0675 56.1524 35.823 55.7275C34.3223 53.1136 32.8103 50.5062 31.3192 47.8875C31.1342 47.564 30.9042 47.4223 30.552 47.3145C29.73 47.0618 28.929 46.7415 28.1296 46.4244C27.5698 46.2023 27.0261 45.9448 26.476 45.6969C25.4852 45.2511 24.4959 45.2527 23.5003 45.6889C22.3968 46.1717 21.3256 46.793 20.1723 47.0715C19.1058 47.329 18.5847 47.9422 18.1021 48.8146C16.8266 51.1178 15.4851 53.3824 14.1773 55.6663C13.9264 56.1041 13.6481 56.5129 13.0755 56.4453C12.4868 56.3761 12.2777 55.9367 12.1394 55.4088C11.5507 53.1554 10.9378 50.907 10.333 48.6585C10.2751 48.4476 10.2027 48.2416 10.1207 47.9776ZM43.5407 12.7163C43.5986 10.7993 43.2254 10.2746 41.6121 9.8288C40.9558 9.64692 40.2867 9.48597 39.6127 9.39906C37.1694 9.08359 35.3952 7.88772 34.3352 5.62312C33.962 4.82802 33.4795 4.07316 32.9663 3.35853C32.2811 2.40409 31.6651 2.21255 30.5568 2.60045C29.6882 2.90465 28.8325 3.2684 28.0153 3.68848C25.9436 4.75398 23.9056 4.74915 21.8435 3.67239C21.1165 3.29254 20.3588 2.95937 19.5884 2.67127C18.2372 2.16749 17.5584 2.37511 16.751 3.56938C16.2346 4.33229 15.7714 5.13866 15.3548 5.96112C14.3913 7.86197 12.8793 8.95805 10.777 9.29283C9.82794 9.44412 8.87892 9.64531 7.95724 9.91249C6.71869 10.273 6.31978 10.8251 6.3423 12.1143C6.35678 12.9561 6.42434 13.8043 6.56106 14.6348C6.93423 16.9139 6.45007 18.8936 4.73058 20.5224C4.13382 21.0874 3.58853 21.7135 3.07864 22.3589C2.10549 23.5902 2.10227 24.3789 3.08829 25.5973C3.74456 26.4085 4.47 27.1649 5.17613 27.9359C6.31335 29.1768 6.81359 30.619 6.6447 32.3057C6.51763 33.5644 6.41468 34.8262 6.35195 36.0897C6.30531 37.0023 6.77338 37.6348 7.64358 37.902C8.40924 38.137 9.18614 38.3849 9.97431 38.4799C12.6493 38.8018 14.5779 40.0862 15.6974 42.5825C16.0303 43.3261 16.5177 44.0102 16.989 44.6829C17.5359 45.4652 18.3112 45.7243 19.2136 45.3831C20.1497 45.0274 21.0891 44.6636 21.9818 44.2146C23.9587 43.2215 25.9034 43.2086 27.8802 44.1985C28.7038 44.6121 29.5483 44.9968 30.412 45.3139C31.6361 45.7629 32.3245 45.5473 33.0645 44.4721C33.5872 43.714 34.0633 42.9125 34.4719 42.0868C35.4933 40.0169 37.1565 38.9241 39.41 38.5893C40.3767 38.446 41.3322 38.1805 42.2716 37.9004C43.116 37.6493 43.5632 37.0168 43.5359 36.13C43.5069 35.2077 43.4828 34.2758 43.3332 33.368C42.9568 31.0664 43.42 29.069 45.1621 27.4225C45.7878 26.8318 46.3572 26.1702 46.8864 25.4894C47.7518 24.3772 47.7389 23.6159 46.9105 22.4861C46.6853 22.1786 46.4328 21.8905 46.1786 21.6056C45.643 21.0053 45.0961 20.4162 44.5589 19.8175C43.5037 18.6425 43.0871 17.2599 43.2431 15.6971C43.3509 14.6171 43.4586 13.5371 43.5407 12.7163ZM4.14186 47.5463C4.3767 47.4932 4.52951 47.4658 4.6791 47.4256C6.55784 46.925 8.43658 46.4212 10.3169 45.9239C11.155 45.7018 11.5571 45.9416 11.7887 46.7834C11.8788 47.1117 11.9592 47.4433 12.0477 47.7732C12.5013 49.4664 12.9565 51.1596 13.4519 52.9977C14.6245 50.9504 15.7247 49.0319 16.8426 47.0811C15.6379 46.3584 14.943 45.2624 14.3125 44.1083C13.9956 43.5273 13.6562 42.9575 13.3361 42.3781C12.8149 41.4398 12.0171 40.8877 10.978 40.6704C10.2912 40.5256 9.59631 40.4129 8.91913 40.2358C8.52022 40.1312 8.31594 40.2246 8.11005 40.5899C6.89724 42.7402 5.65386 44.8729 4.42335 47.0119C4.33327 47.1616 4.25928 47.3177 4.14186 47.5463ZM45.7604 47.5978C45.614 47.3258 45.5433 47.1841 45.4628 47.0473C44.2291 44.9067 42.989 42.7676 41.7665 40.6205C41.5863 40.3034 41.4335 40.1344 41.025 40.2568C40.5472 40.4016 40.0438 40.466 39.5467 40.5384C38.0492 40.7525 36.9233 41.4687 36.2638 42.8706C36.0338 43.3599 35.7346 43.817 35.4724 44.2918C34.866 45.3927 34.1808 46.426 33.0323 47.1069C34.1534 49.0447 35.2601 50.9568 36.4407 52.9977C37.0246 50.8072 37.5586 48.792 38.1007 46.7769C38.3275 45.9351 38.7328 45.7082 39.5789 45.9271C39.7156 45.9625 39.8508 45.9995 39.9859 46.0365C41.863 46.5435 43.7385 47.0505 45.7604 47.5978Z" fill="#82030A"/>
<path d="M24.938 39.0045C16.6509 38.9997 9.8968 32.251 9.89197 23.9716C9.88714 15.6697 16.6751 8.89366 24.9782 8.90976C33.254 8.92585 40.0081 15.7051 39.9952 23.9813C39.9807 32.2655 33.2218 39.0094 24.938 39.0045ZM24.9396 37.057C32.1891 37.0586 38.0811 31.1726 38.065 23.9459C38.0489 16.7352 32.1779 10.8557 24.9782 10.8412C17.7415 10.8267 11.8383 16.703 11.8238 23.9346C11.8077 31.1614 17.6981 37.0554 24.9396 37.057Z" fill="#82030A"/>
<path d="M22.8887 27.8989C23.2747 27.4724 23.5707 27.1166 23.8956 26.7915C26.7056 23.9733 29.5189 21.1598 32.3338 18.3464C32.4754 18.2047 32.6121 18.0486 32.7794 17.9424C33.2056 17.672 33.6351 17.7058 33.9874 18.0647C34.3396 18.4252 34.3557 18.8566 34.0871 19.2783C33.9809 19.4457 33.8265 19.5825 33.685 19.7257C30.4084 23.014 27.1303 26.3022 23.8505 29.5889C23.072 30.3679 22.6731 30.3647 21.8866 29.576C20.011 27.6993 18.1355 25.8226 16.26 23.9459C16.1603 23.8461 16.0573 23.7511 15.9624 23.6465C15.5522 23.1926 15.5345 22.6277 15.9142 22.2446C16.3066 21.8503 16.8567 21.8406 17.3103 22.2849C18.5602 23.5081 19.7923 24.749 21.026 25.9884C21.6163 26.5839 22.2002 27.1923 22.8887 27.8989Z" fill="#82030A"/>
</svg>
