<svg width="30" height="30" viewBox="0 0 30 30" fill="none" xmlns="http://www.w3.org/2000/svg">
<path d="M15 30C23.2843 30 30 23.2843 30 15C30 6.71573 23.2843 0 15 0C6.71573 0 0 6.71573 0 15C0 23.2843 6.71573 30 15 30Z" fill="#F42C2C"/>
<path d="M14.98 23C13.05 23 11.11 23 9.18005 23C8.17005 23 7.32005 22.21 7.23005 21.2C7.20005 20.88 7.27005 20.57 7.31005 20.25C7.38005 19.71 7.46005 19.17 7.54005 18.63C7.61005 18.13 7.67005 17.63 7.77005 17.14C7.90005 16.5 8.32005 16.11 8.94005 15.92C9.37005 15.79 9.81005 15.68 10.22 15.49C11.32 14.99 12.01 14.15 12.25 12.96C12.3 12.73 12.32 12.5 12.34 12.26C12.35 12.18 12.38 12.15 12.46 12.13C13.5 11.97 14.55 11.96 15.6 11.98C16.16 11.99 16.72 12.05 17.27 12.09C17.37 12.1 17.48 12.12 17.58 12.14C17.67 12.15 17.65 12.22 17.66 12.28C17.72 12.61 17.75 12.95 17.83 13.27C18.11 14.32 18.79 15.02 19.76 15.48C20.17 15.67 20.61 15.79 21.05 15.91C21.74 16.1 22.17 16.62 22.27 17.33C22.38 18.11 22.5 18.89 22.61 19.66C22.67 20.08 22.75 20.49 22.77 20.91C22.82 21.86 22.17 22.76 21.2 22.93C20.87 23.01 20.54 23 20.21 23C18.47 23 16.73 23 14.98 23ZM17.53 17.99C17.53 16.59 16.39 15.49 14.96 15.49C13.61 15.49 12.48 16.62 12.48 17.98C12.47 19.36 13.6 20.49 15.01 20.49C16.39 20.49 17.53 19.36 17.53 17.99Z" fill="white"/>
<path d="M15.04 9.95C14.28 9.99 13.52 10.02 12.76 10.08C12.17 10.13 11.59 10.23 11.05 10.46C10.89 10.53 10.74 10.63 10.6 10.73C10.43 10.86 10.35 11.05 10.35 11.28C10.35 11.64 10.35 12 10.32 12.35C10.27 12.96 9.94001 13.38 9.40001 13.65C8.95001 13.87 8.48001 13.97 7.99001 14.06C7.61001 14.13 7.23001 14.17 6.84001 14.15C5.99001 14.1 5.42001 13.63 5.20001 12.8C5.09001 12.39 5.05001 11.96 5.05001 11.53C5.05001 11.27 5.04001 11.01 5.09001 10.77C5.15001 10.41 5.39001 10.13 5.63001 9.87C6.10001 9.36 6.68001 8.99 7.29001 8.66C8.38001 8.08 9.54001 7.71 10.73 7.44C11.5 7.27 12.28 7.15 13.07 7.08C13.89 7.01 14.71 6.98 15.53 7C16.31 7.02 17.1 7.08 17.87 7.19C19.29 7.39 20.67 7.73 21.99 8.31C22.66 8.6 23.3 8.95 23.87 9.41C24.22 9.69 24.54 10 24.76 10.39C24.88 10.61 24.95 10.84 24.95 11.09C24.95 11.64 24.95 12.18 24.82 12.72C24.7 13.22 24.47 13.65 24 13.92C23.66 14.11 23.29 14.18 22.9 14.16C22.17 14.13 21.47 14.01 20.79 13.74C20.43 13.6 20.11 13.4 19.91 13.06C19.75 12.8 19.68 12.51 19.67 12.22C19.66 11.93 19.65 11.63 19.66 11.34C19.67 11.04 19.53 10.82 19.3 10.66C18.99 10.44 18.62 10.34 18.26 10.26C17.39 10.06 16.51 10.02 15.62 10C15.43 10 15.24 10 15.05 10C15.04 9.98 15.04 9.96 15.04 9.95Z" fill="white"/>
</svg>
