<svg width="585" height="100" viewBox="0 0 585 100" fill="none" xmlns="http://www.w3.org/2000/svg">
<path d="M500 100L600 100L600 0L500 8.74228e-06L500 100Z" fill="#82030A"/>
<path d="M300 100L300 0L250 50L300 100Z" fill="#F2111C"/>
<path d="M250 50L250 4.37114e-06L300 0L250 50Z" fill="#F21D1D"/>
<path d="M200 6.54063e-05L200 100L250 50.0001L200 6.54063e-05Z" fill="#FF3636"/>
<path d="M100 6.54063e-05L100 100L150 50.0001L100 6.54063e-05Z" fill="#F76363"/>
<path d="M250 100L250 50L300 100L250 100Z" fill="#F21D1D"/>
<path d="M150 50.0001L150 6.54063e-05L200 6.10352e-05L150 50.0001Z" fill="#F25555"/>
<path d="M150 100L150 50.0001L200 100L150 100Z" fill="#F25555"/>
<path d="M50 50.0001L50 6.54063e-05L100 6.10352e-05L50 50.0001Z" fill="#F77777"/>
<path d="M50 100L50 50.0001L100 100L50 100Z" fill="#F77777"/>
<path d="M200 6.54063e-05L250 6.10352e-05L250 50.0001L200 6.54063e-05Z" fill="#F42C2C"/>
<path d="M200 100L250 50.0001L250 100L200 100Z" fill="#F42C2C"/>
<path d="M400 100L400 0L350 50L400 100Z" fill="#C20102"/>
<path d="M350 50L350 4.37114e-06L400 0L350 50Z" fill="#CC0202"/>
<path d="M300 4.37114e-06L300 100L350 50L300 4.37114e-06Z" fill="#E20203"/>
<path d="M350 100L350 50L400 100L350 100Z" fill="#CC0202"/>
<path d="M300 4.37114e-06L350 0L350 50L300 4.37114e-06Z" fill="#D70202"/>
<path d="M300 100L350 50L350 100L300 100Z" fill="#D70202"/>
<path d="M500 100L500 0L450 50L500 100Z" fill="#82030A"/>
<path d="M450 50L450 4.37114e-06L500 0L450 50Z" fill="#9F0101"/>
<path d="M400 4.37114e-06L400 100L450 50L400 4.37114e-06Z" fill="#B50101"/>
<path d="M450 100L450 50L500 100L450 100Z" fill="#9F0101"/>
<path d="M400 4.37114e-06L450 0L450 50L400 4.37114e-06Z" fill="#A90101"/>
<path d="M400 100L450 50L450 100L400 100Z" fill="#A90101"/>
<path d="M-4.37114e-06 6.54063e-05L50 6.10352e-05L50 50.0001L-4.37114e-06 6.54063e-05Z" fill="#F9878D"/>
<path d="M0 100L50 50.0001L50 100L0 100Z" fill="#F9878D"/>
<path d="M100 6.54063e-05L150 6.10352e-05L150 50.0001L100 6.54063e-05Z" fill="#EF5959"/>
<path d="M100 100L150 50.0001L150 100L100 100Z" fill="#EF5959"/>
<path d="M200 100L200 6.10352e-05L150 50.0001L200 100Z" fill="#FF4848"/>
<path d="M100 100L100 6.10352e-05L50 50.0001L100 100Z" fill="#F26B6B"/>
</svg>
