<svg width="600" height="100" viewBox="0 0 600 100" fill="none" xmlns="http://www.w3.org/2000/svg">
<path d="M100 1.74846e-05L3.05176e-05 0L1.3033e-05 100L100 100L100 1.74846e-05Z" fill="#82030A"/>
<path d="M300 0L300 100L350 50L300 0Z" fill="#F2111C"/>
<path d="M350 50L350 100L300 100L350 50Z" fill="#F21D1D"/>
<path d="M400 100L400 0.000130813L350 50.0001L400 100Z" fill="#FF3636"/>
<path d="M500 100L500 0.000130813L450 50.0001L500 100Z" fill="#F76363"/>
<path d="M350 8.74228e-06L350 50L300 0L350 8.74228e-06Z" fill="#F21D1D"/>
<path d="M450 50.0001L450 100L400 100L450 50.0001Z" fill="#F25555"/>
<path d="M450 0.000130813L450 50.0001L400 0.00012207L450 0.000130813Z" fill="#F25555"/>
<path d="M550 50.0001L550 100L500 100L550 50.0001Z" fill="#F77777"/>
<path d="M550 0.000130813L550 50.0001L500 0.00012207L550 0.000130813Z" fill="#F77777"/>
<path d="M400 100L350 100L350 50.0001L400 100Z" fill="#F42C2C"/>
<path d="M400 0.000130813L350 50.0001L350 0.00012207L400 0.000130813Z" fill="#F42C2C"/>
<path d="M200 0L200 100L250 50L200 0Z" fill="#C20102"/>
<path d="M250 50L250 100L200 100L250 50Z" fill="#CC0202"/>
<path d="M300 100L300 8.74228e-06L250 50L300 100Z" fill="#E20203"/>
<path d="M250 8.74228e-06L250 50L200 0L250 8.74228e-06Z" fill="#CC0202"/>
<path d="M300 100L250 100L250 50L300 100Z" fill="#D70202"/>
<path d="M300 8.74228e-06L250 50L250 0L300 8.74228e-06Z" fill="#D70202"/>
<path d="M100 0L100 100L150 50L100 0Z" fill="#82030A"/>
<path d="M150 50L150 100L100 100L150 50Z" fill="#9F0101"/>
<path d="M200 100L200 8.74228e-06L150 50L200 100Z" fill="#B50101"/>
<path d="M150 8.74228e-06L150 50L100 0L150 8.74228e-06Z" fill="#9F0101"/>
<path d="M200 100L150 100L150 50L200 100Z" fill="#A90101"/>
<path d="M200 8.74228e-06L150 50L150 0L200 8.74228e-06Z" fill="#A90101"/>
<path d="M600 100L550 100L550 50.0001L600 100Z" fill="#F9878D"/>
<path d="M600 0.000130813L550 50.0001L550 0.00012207L600 0.000130813Z" fill="#F9878D"/>
<path d="M500 100L450 100L450 50.0001L500 100Z" fill="#EF5959"/>
<path d="M500 0.000130813L450 50.0001L450 0.00012207L500 0.000130813Z" fill="#EF5959"/>
<path d="M400 0.00012207L400 100L450 50.0001L400 0.00012207Z" fill="#FF4848"/>
<path d="M500 0.00012207L500 100L550 50.0001L500 0.00012207Z" fill="#F26B6B"/>
</svg>
