<svg width="246" height="48" fill="none" xmlns="http://www.w3.org/2000/svg"><path d="M25.26 30.86 37.75 0h12.77L31.23 47.7H19.3L0 0h12.78l12.48 30.86ZM121.29.190001 102.17 47.44h12.66l12.37-30.57 12.37 30.57h12.66L133.11.190001h-11.82ZM86.06 31.92c-.44 1.13-1.53 1.87-2.74 1.87h-13.5c-1.21 0-2.29-.74-2.74-1.87l-1.63-5.14H53.22c.06 4.43.91 9.77 2.52 13.9l.33.84c1.42 3.64 4.93 6.03 8.84 6.03H88.25c3.91 0 7.41-2.39 8.84-6.03l.33-.84c1.61-4.12 2.47-9.47 2.52-13.9H87.69l-1.63 5.14ZM97.07 6.12C95.65 2.48 92.14.0900002 88.23.0900002H64.9C60.99.0900002 57.49 2.49 56.06 6.12l-.33.83c-1.61 4.12-2.47 9.69-2.52 14.12h12.23l1.63-5.36c.44-1.13 1.53-1.87 2.74-1.87h13.5c1.21 0 2.29.74 2.74 1.87l1.63 5.36h12.23c-.06-4.43-.91-9.99-2.52-14.12l-.32-.83ZM245.02.1h-51.19v14.13h51.19V.1ZM212.91 47.53h13.04V17.39h-13l-.04 30.14ZM191.3 18.74h-22.75V.1h-11.58V30.33h28.4c1.18 0 2.14.96 2.14 2.14v1.36c0 1.18-.96 2.14-2.14 2.14h-28.4v11.58h34.32c4.27 0 7.72-3.46 7.72-7.72V26.47c.01-4.27-3.45-7.73-7.71-7.73Z" fill="#fff"/></svg>