<svg width="36" height="30" viewBox="0 0 36 30" fill="none" xmlns="http://www.w3.org/2000/svg">
<g clip-path="url(#clip0_1_903)">
<path d="M36 18.1382C35.7862 18.3724 35.5837 18.6123 35.3587 18.835C31.8481 22.4044 28.332 25.9681 24.8214 29.5374C24.2138 30.1542 23.955 30.1542 23.3362 29.526C17.8509 23.9578 12.3657 18.3895 6.88048 12.8213C6.31227 12.2445 6.31227 11.9646 6.87485 11.3935C10.481 7.73276 14.0816 4.07771 17.6878 0.416942C18.2335 -0.137027 18.5261 -0.137027 19.0718 0.416942C21.0746 2.45007 23.083 4.4889 25.0858 6.52203C25.3221 6.76189 25.5078 7.00746 25.3952 7.36726C25.249 7.84127 24.7145 8.02974 24.3207 7.73847C24.2194 7.66423 24.1294 7.56143 24.0394 7.47006C22.5542 5.96234 21.0746 4.46035 19.5893 2.95264C19.4993 2.86126 19.4318 2.74704 19.3531 2.64424C19.3249 2.65566 19.2968 2.6728 19.2687 2.68422C19.2574 2.76988 19.2349 2.85555 19.2349 2.94121C19.2349 6.9732 19.2293 11.0052 19.2349 15.0372C19.2349 16.2536 20.0057 17.0246 21.1927 17.0246C25.1533 17.0303 29.114 17.0246 33.0746 17.0246C33.1646 17.0246 33.2546 17.0132 33.3952 16.996C33.2771 16.8647 33.1983 16.7676 33.1083 16.6819C31.5612 15.1057 30.0085 13.5352 28.4614 11.9646C28.377 11.879 28.2926 11.799 28.2194 11.7076C27.9888 11.4107 28.0113 11.028 28.2588 10.7653C28.5007 10.514 28.9002 10.4855 29.1871 10.7025C29.2771 10.7767 29.3615 10.8624 29.4459 10.9481C31.4993 13.0326 33.5584 15.1171 35.6062 17.2073C35.7525 17.3558 35.865 17.5386 35.9944 17.7099C36 17.8527 36 17.9955 36 18.1382ZM9.01269 12.827C13.8003 17.6871 18.5936 22.5472 23.3587 27.3901C23.3587 24.4603 23.3587 21.4735 23.3587 18.4581C23.1899 18.4581 23.0493 18.4581 22.9086 18.4581C22.2166 18.4524 21.5246 18.4752 20.8327 18.4352C19.2462 18.3438 17.941 17.0246 17.8453 15.4141C17.8003 14.6774 17.8284 13.9406 17.8172 13.2039C17.8172 13.0783 17.8059 12.9526 17.7947 12.8213C14.8355 12.827 11.91 12.827 9.01269 12.827ZM8.96768 11.3593C11.9156 11.3593 14.8467 11.3593 17.7947 11.3593C17.7947 8.36097 17.7947 5.37411 17.7947 2.39867C14.8524 5.38553 11.9213 8.36097 8.96768 11.3593ZM24.8158 27.3844C27.7412 24.4147 30.6723 21.4392 33.5922 18.4752C30.7061 18.4752 27.775 18.4752 24.8158 18.4752C24.8158 21.4792 24.8158 24.4546 24.8158 27.3844Z" fill="white"/>
<path d="M7.56685 24.78C5.96347 24.78 4.3601 24.7857 2.75672 24.7686C2.53731 24.7686 2.26164 24.7 2.12662 24.5515C1.98598 24.3973 1.91847 24.1061 1.93534 23.8833C1.95785 23.5921 2.19976 23.415 2.48668 23.3636C2.5992 23.3408 2.71734 23.3522 2.83548 23.3522C5.98598 23.3522 9.13084 23.3522 12.2813 23.3522C12.3657 23.3522 12.4445 23.3465 12.5289 23.3522C12.9283 23.3808 13.2152 23.6835 13.2152 24.0661C13.2096 24.4487 12.9227 24.7514 12.5176 24.7686C12.1463 24.7857 11.7694 24.7743 11.3924 24.7743C10.121 24.78 8.84392 24.78 7.56685 24.78Z" fill="white"/>
<path d="M2.77357 16.2821C2.11534 16.2821 1.46274 16.2878 0.804513 16.2821C0.320687 16.2764 0.00563769 16.0023 1.18073e-05 15.5797C-0.00561407 15.1456 0.315061 14.8544 0.815764 14.8544C2.11534 14.8487 3.41492 14.8487 4.7145 14.8544C5.19832 14.8544 5.51337 15.1399 5.52463 15.5511C5.53025 15.9795 5.20958 16.2764 4.70887 16.2764C4.0619 16.2878 3.42055 16.2821 2.77357 16.2821Z" fill="white"/>
<path d="M7.4543 20.2113C6.83546 20.2113 6.21661 20.217 5.59776 20.2113C5.12519 20.2056 4.79889 19.9144 4.79889 19.4975C4.79889 19.0863 5.12519 18.7893 5.59776 18.7836C6.84671 18.7779 8.10128 18.7779 9.35022 18.7836C9.83968 18.7836 10.1378 19.0634 10.1378 19.4975C10.1378 19.9315 9.83968 20.2056 9.35022 20.2113C8.7145 20.2113 8.0844 20.2113 7.4543 20.2113Z" fill="white"/>
<path d="M6.53725 8.78937C6.12657 8.78937 5.7215 8.79508 5.31081 8.78937C4.84949 8.78365 4.55695 8.4981 4.55695 8.0812C4.55695 7.65858 4.84949 7.37303 5.30519 7.36732C6.16032 7.36161 7.00983 7.36161 7.86496 7.36732C8.31503 7.37303 8.6132 7.67572 8.60195 8.09262C8.5907 8.4981 8.30378 8.77794 7.86496 8.78937C7.42614 8.79508 6.9817 8.78937 6.53725 8.78937Z" fill="white"/>
<path d="M1.80591 8.78922C1.4571 8.78922 1.10267 8.79493 0.753868 8.78922C0.303797 8.77779 0 8.47511 0 8.06963C0 7.66414 0.309423 7.36717 0.765119 7.36146C1.47961 7.35575 2.18847 7.35575 2.90295 7.36146C3.35302 7.36717 3.65682 7.66986 3.65682 8.07534C3.6512 8.48082 3.3474 8.77208 2.89733 8.7835C2.52602 8.79493 2.16596 8.78922 1.80591 8.78922Z" fill="white"/>
<path d="M6.92544 16.2822C6.53725 16.2879 6.20532 15.951 6.20532 15.5626C6.21095 15.1857 6.526 14.8659 6.90293 14.8602C7.28549 14.8545 7.60054 15.1572 7.61179 15.5455C7.62867 15.951 7.31925 16.2765 6.92544 16.2822Z" fill="white"/>
<path d="M26.8467 10.0171C26.4473 10.0228 26.1379 9.70869 26.1435 9.30321C26.1491 8.92057 26.4586 8.60075 26.8299 8.59504C27.2068 8.58933 27.55 8.9377 27.5444 9.32034C27.5387 9.70298 27.2293 10.0114 26.8467 10.0171Z" fill="white"/>
</g>
<defs>
<clipPath id="clip0_1_903">
<rect width="36" height="30" fill="white"/>
</clipPath>
</defs>
</svg>
