<svg width="17" height="26" viewBox="0 0 17 26" fill="none" xmlns="http://www.w3.org/2000/svg">
<g clip-path="url(#clip0_1_896)">
<path d="M7.45592 25.9999C6.9619 25.9493 6.46373 25.907 5.96971 25.8437C4.45445 25.6453 2.95995 25.3455 1.61904 24.5644C1.1956 24.3195 0.792914 23.986 0.464953 23.6144C-0.153606 22.9051 -0.137001 22.0184 0.448347 21.2753C0.946516 20.642 1.62319 20.262 2.34139 19.9538C3.31697 19.5316 4.34652 19.2951 5.43418 19.1178C5.35531 19.008 5.29719 18.9236 5.23492 18.8434C4.12649 17.353 2.98901 15.8837 1.91794 14.3679C1.0337 13.1139 0.410985 11.7291 0.136992 10.1922C-0.689137 5.59427 2.33724 1.05968 6.83736 0.164589C11.4496 -0.751618 15.9331 2.28411 16.8298 6.94958C17.2532 9.1451 16.8755 11.2182 15.8127 13.173C15.0779 14.5241 14.1521 15.7443 13.2222 16.9603C12.6825 17.6654 12.1387 18.3747 11.5783 19.1052C11.9934 19.1896 12.3836 19.2614 12.7656 19.3458C13.7079 19.5611 14.6337 19.844 15.464 20.3634C15.8335 20.5956 16.1946 20.8742 16.4852 21.2036C17.1744 21.972 17.1536 22.9135 16.4852 23.7031C16.0452 24.2182 15.4847 24.5602 14.8828 24.8388C13.6581 25.4046 12.3587 25.679 11.0344 25.8479C10.5404 25.9113 10.0464 25.9535 9.54822 26.0041C8.85494 25.9999 8.15335 25.9999 7.45592 25.9999ZM8.48131 21.5793C8.56019 21.4822 8.60586 21.4231 8.65152 21.364C9.65201 20.0256 10.665 18.6914 11.6571 17.3445C12.6369 16.0103 13.6498 14.6972 14.5548 13.3124C15.7172 11.5391 16.2154 9.57576 15.8999 7.42669C15.273 3.16231 11.0303 0.219477 6.89548 1.19479C2.44102 2.24611 -0.0664269 6.88625 1.44468 11.2815C1.89304 12.5819 2.62368 13.7219 3.43321 14.8112C5.08962 17.0363 6.76263 19.2487 8.42735 21.4696C8.4481 21.4949 8.46056 21.5287 8.48131 21.5793ZM8.1409 24.9866C10.0505 24.9951 11.8979 24.8219 13.6913 24.2182C14.3971 23.9817 15.082 23.6946 15.63 23.1584C16.1199 22.6771 16.124 22.2 15.6217 21.7398C15.3643 21.5033 15.0737 21.2964 14.7665 21.1318C13.5958 20.5069 12.3172 20.2409 11.0178 20.0678C10.9306 20.0551 10.8019 20.1396 10.7438 20.2156C10.1585 21.0051 9.58144 21.8031 9.00439 22.6011C8.66813 23.0697 8.33601 23.0697 7.99975 22.6011C7.42686 21.8031 6.84566 21.0093 6.27277 20.2071C6.18144 20.0805 6.09011 20.034 5.9365 20.0678C5.16434 20.2367 4.38388 20.3676 3.62417 20.5745C2.83125 20.794 2.06739 21.1107 1.44053 21.6849C0.867639 22.2084 0.851033 22.732 1.45714 23.2217C1.85567 23.5426 2.31233 23.8128 2.78144 24.0071C4.50842 24.7291 6.33504 24.9275 8.1409 24.9866Z" fill="white"/>
<path d="M8.49793 12.1851C6.57583 12.1851 5.0066 10.5849 5.01075 8.63001C5.01075 6.66249 6.58828 5.07074 8.52284 5.07496C10.4408 5.07918 12.0059 6.6836 11.9976 8.64268C11.9934 10.5975 10.4242 12.1893 8.49793 12.1851ZM11.0012 8.6469C11.0054 7.24937 9.89695 6.10516 8.52699 6.0925C7.15703 6.07983 6.01954 7.21137 6.01124 8.60468C5.99878 10.0107 7.11966 11.1675 8.49793 11.1717C9.86374 11.176 10.9971 10.036 11.0012 8.6469Z" fill="white"/>
<path d="M14.9949 8.42719C14.9949 8.51163 14.9949 8.57919 14.9949 8.64674C14.9824 8.95496 14.7831 9.17873 14.5091 9.18718C14.231 9.19562 14.0027 8.96763 13.9985 8.64674C13.9944 7.94587 13.8781 7.2661 13.6249 6.61589C13.0188 5.08325 11.9602 4.01504 10.4449 3.40705C10.1336 3.28039 9.98411 3.08617 10.0215 2.83284C10.0713 2.47818 10.3951 2.30507 10.7604 2.4444C12.0017 2.91728 13.0146 3.69838 13.7868 4.79614C14.5507 5.88546 14.945 7.10566 14.9949 8.42719Z" fill="white"/>
<path d="M8.53942 3.04407C8.26128 3.03563 8.04125 2.79919 8.05786 2.51208C8.07031 2.23764 8.29449 2.02231 8.56433 2.03076C8.83002 2.03498 9.05004 2.2672 9.0542 2.53742C9.05004 2.81608 8.81341 3.05252 8.53942 3.04407Z" fill="white"/>
</g>
<defs>
<clipPath id="clip0_1_896">
<rect width="17" height="26" fill="white"/>
</clipPath>
</defs>
</svg>
