<svg width="72" height="99" viewBox="0 0 72 99" fill="none" xmlns="http://www.w3.org/2000/svg">
<path d="M68.228 0C69.1377 0.581901 70.2139 1.02107 70.9017 1.8006C71.4897 2.47033 71.645 3.52434 71.9445 4.42464C72.0444 4.72108 71.9667 5.06144 71.9667 5.39082C71.9667 34.7933 71.9667 64.1957 71.9778 93.5872C71.9778 94.8718 71.8447 96.0905 71.0015 97.1335C70.0475 98.3193 68.8049 98.9341 67.2851 98.9451C65.0441 98.9671 62.792 98.9561 60.551 98.9561C42.2015 98.9561 23.8521 98.9122 5.49153 99C2.37412 99.011 -0.011086 97.0347 8.02389e-06 93.5872C0.066572 64.3165 0.055478 35.0458 0.011102 5.77509C8.02419e-06 2.88755 0.976279 0.933237 3.78306 0C25.261 0 46.7501 0 68.228 0ZM68.8493 49.4726C68.8493 34.7823 68.8493 20.103 68.8493 5.41278C68.8493 3.49141 68.4388 3.08517 66.5196 3.08517C46.1843 3.08517 25.8379 3.08517 5.50263 3.08517C3.58337 3.08517 3.17289 3.49141 3.17289 5.41278C3.17289 34.7823 3.17289 64.1518 3.17289 93.5323C3.17289 95.4537 3.58337 95.8599 5.50263 95.8599C25.8379 95.8599 46.1843 95.8599 66.5196 95.8599C68.4388 95.8599 68.8493 95.4537 68.8493 93.5323C68.8493 78.8421 68.8493 64.1628 68.8493 49.4726Z" fill="#D2051E"/>
<path d="M9.4299 83.618C7.08907 83.08 6.30139 82.1029 6.30139 79.8082C6.30139 77.1622 6.30139 74.5272 6.30139 71.8812C6.30139 69.4548 6.97812 68.5764 9.37443 67.9616C9.37443 55.6538 9.37443 43.3351 9.37443 30.9944C8.95286 30.8626 8.498 30.7748 8.09862 30.5772C6.92266 29.9953 6.30139 29.0401 6.30139 27.7116C6.30139 24.8789 6.30139 22.0463 6.30139 19.2027C6.30139 16.8092 7.0225 15.8869 9.4299 15.305C9.4299 13.4715 9.4299 11.605 9.4299 9.73854C9.4299 8.13557 9.88475 7.67444 11.5156 7.67444C27.857 7.67444 44.1985 7.67444 60.5288 7.67444C62.1042 7.67444 62.5923 8.14655 62.5923 9.67267C62.5923 31.5434 62.5923 53.4141 62.5923 75.2847C62.5923 75.5373 62.6145 75.8117 62.559 76.0533C62.4148 76.756 61.971 77.2061 61.2388 77.283C60.4733 77.3708 59.8632 77.0634 59.6191 76.3278C59.4749 75.8886 59.4638 75.3836 59.4638 74.9005C59.4638 53.996 59.4638 33.0585 59.4638 12.121C59.4638 11.7148 59.4638 11.2976 59.4638 10.8365C43.7991 10.8365 28.2231 10.8365 12.6028 10.8365C12.6028 12.3626 12.6028 13.8228 12.6028 15.294C15.1211 16.0846 15.6758 16.8421 15.6758 19.4662C15.6758 21.9145 15.6758 24.3629 15.6758 26.8113C15.6758 29.4793 15.1322 30.2258 12.5806 31.0054C12.5806 43.2912 12.5806 55.5879 12.5806 67.9506C12.8801 68.0384 13.1797 68.1043 13.4792 68.2031C14.8327 68.6423 15.6647 69.7841 15.6647 71.2993C15.6869 74.099 15.6758 76.8987 15.6647 79.7094C15.6647 82.0809 14.8992 83.0581 12.5806 83.607C12.5806 85.0673 12.5806 86.5385 12.5806 88.0866C28.1676 88.0866 43.7325 88.0866 59.4416 88.0866C59.4416 87.2082 59.4305 86.3189 59.4416 85.4296C59.4527 84.2548 60.0961 83.5082 61.0502 83.5302C61.9821 83.5521 62.559 84.2548 62.559 85.4076C62.5701 86.7251 62.5701 88.0536 62.559 89.3711C62.5479 90.7326 62.0376 91.2486 60.6841 91.2486C57.5556 91.2596 54.4382 91.2486 51.3097 91.2486C38.0968 91.2486 24.8838 91.2486 11.6709 91.2486C9.7849 91.2486 9.40771 90.8643 9.40771 88.9759C9.4299 87.2192 9.4299 85.4515 9.4299 83.618ZM12.5251 18.5988C11.4601 18.5988 10.4727 18.5988 9.49646 18.5988C9.49646 21.695 9.49646 24.7252 9.49646 27.7336C10.5504 27.7336 11.5378 27.7336 12.5251 27.7336C12.5251 24.6594 12.5251 21.684 12.5251 18.5988ZM9.48537 71.1675C9.48537 74.2747 9.48537 77.3049 9.48537 80.3572C10.5282 80.3572 11.5045 80.3572 12.4807 80.3572C12.4807 77.261 12.4807 74.2307 12.4807 71.1675C11.4601 71.1675 10.5282 71.1675 9.48537 71.1675Z" fill="#D2051E"/>
<path d="M37.4755 74.2417C32.8493 74.2417 28.2342 74.2527 23.608 74.2417C20.5683 74.2308 19.1482 71.9471 20.5128 69.2462C25.1723 60.0126 29.8428 50.7791 34.4912 41.5345C35.1347 40.2499 36.0555 39.4045 37.5753 39.4045C39.0952 39.4045 40.016 40.2499 40.6595 41.5345C45.3189 50.7791 49.9895 60.0016 54.6379 69.2462C55.9914 71.9361 54.5713 74.2308 51.5316 74.2308C46.8388 74.2417 42.1572 74.2417 37.4755 74.2417ZM51.9421 71.0358C47.1716 61.4948 42.4345 52.0307 37.5864 42.347C32.7051 52.0087 27.9347 61.4399 23.0977 71.0358C32.7716 71.0358 42.257 71.0358 51.9421 71.0358Z" fill="#D2051E"/>
<path d="M23.5415 16.9849C23.5415 20.114 23.5415 23.1333 23.5415 26.2075C32.8937 26.2075 42.2015 26.2075 51.5871 26.2075C51.5871 23.1663 51.5871 20.1579 51.5871 16.9849C51.2653 16.9849 50.9214 16.9849 50.5775 16.9849C45.9513 16.9849 41.3362 16.9849 36.71 16.974C36.2884 16.974 35.8558 16.952 35.4675 16.8312C34.7353 16.5897 34.3803 16.0078 34.469 15.2502C34.5578 14.5036 35.0126 14.0205 35.7892 13.9107C36.0444 13.8778 36.3106 13.8778 36.5658 13.8778C41.9353 13.8778 47.3048 13.8778 52.6743 13.8778C54.294 13.8778 54.771 14.3499 54.771 15.9419C54.771 19.7407 54.771 23.5395 54.771 27.3384C54.771 28.8425 54.2385 29.3586 52.7076 29.3586C42.6231 29.3586 32.5276 29.3586 22.4431 29.3586C20.9011 29.3586 20.3797 28.8425 20.3797 27.3384C20.3797 23.5066 20.3797 19.6749 20.3797 15.8431C20.3797 14.3828 20.8789 13.8888 22.3766 13.8778C23.7411 13.8668 25.1057 13.8558 26.4814 13.8888C27.502 13.9107 28.1566 14.4926 28.1898 15.371C28.2231 16.2493 27.5242 16.941 26.4814 16.974C25.5384 17.0069 24.5954 16.9849 23.5415 16.9849Z" fill="#D2051E"/>
<path d="M31.3405 16.963C30.5085 16.985 29.7763 16.2823 29.7541 15.4479C29.7319 14.5915 30.4086 13.9108 31.274 13.8998C32.1393 13.8888 32.8493 14.5366 32.8604 15.393C32.8937 16.2054 32.1726 16.9411 31.3405 16.963Z" fill="#D2051E"/>
<path d="M62.5812 80.456C62.5701 81.3234 61.9045 81.9712 61.0169 81.9602C60.1516 81.9492 59.4638 81.2575 59.4749 80.4231C59.486 79.5996 60.2293 78.886 61.0502 78.886C61.8934 78.897 62.5812 79.5996 62.5812 80.456Z" fill="#D2051E"/>
<path d="M37.9193 62.9001C36.7544 62.9001 35.7892 62.9221 34.824 62.9001C33.0157 62.8562 32.3945 61.7363 33.3263 60.1882C34.2361 58.6621 35.1569 57.147 36.0887 55.6318C36.6878 54.6656 37.5642 54.3912 38.3852 54.8852C39.2062 55.3793 39.3393 56.2357 38.7624 57.2458C38.3297 58.0033 37.8749 58.739 37.4311 59.4965C37.4089 59.5404 37.4311 59.6173 37.4422 59.793C38.3963 59.793 39.3615 59.771 40.3267 59.793C42.0684 59.8369 42.734 60.9677 41.8576 62.439C40.9368 63.998 40.0049 65.5351 39.0508 67.0722C38.4518 68.0494 37.5643 68.3129 36.7544 67.8078C35.9445 67.3028 35.8003 66.4464 36.3883 65.4473C36.8542 64.6568 37.3424 63.8663 37.9193 62.9001Z" fill="#D2051E"/>
</svg>
