<svg width="100" height="100" viewBox="0 0 100 100" fill="none" xmlns="http://www.w3.org/2000/svg">
<g clip-path="url(#clip0_4_398)">
<path d="M0 35.3468C0.512861 33.9222 0.835676 32.3883 1.56982 31.0913C3.75664 27.237 7.16443 25.2342 11.5979 24.9999C11.7567 24.992 11.9129 24.979 12.2384 24.9582C8.37759 21.4632 6.63074 17.2234 7.27637 12.1607C7.73456 8.57974 9.38769 5.57177 12.2045 3.24874C17.9788 -1.51193 26.3381 -0.988463 31.4537 4.44932C36.4027 9.71001 36.9728 18.8537 30.29 24.854C31.4537 25.0546 32.646 25.1509 33.7733 25.4738C38.8629 26.9323 42.3513 31.5575 42.3644 36.8729C42.3878 46.0843 42.3722 55.2957 42.3696 64.5071C42.3696 65.7572 41.8151 66.4525 40.8362 66.4682C39.8209 66.4864 39.2482 65.7728 39.2482 64.4654C39.2455 55.4832 39.2482 46.4984 39.2456 37.5161C39.2456 31.5106 34.8641 27.5391 28.866 28.1459C28.5588 28.1771 28.2047 28.5 28.0069 28.7813C26.2574 31.2892 24.5444 33.8206 22.8132 36.3416C21.7328 37.9146 20.6498 37.9068 19.559 36.3208C17.9918 34.042 16.3569 31.8075 14.8964 29.4636C14.2169 28.3724 13.4541 28.0599 12.228 28.0912C9.5517 28.1641 7.26336 29.0079 5.43841 30.9872C3.81652 32.7451 3.11361 34.8467 3.11882 37.2271C3.13183 46.0478 3.12402 54.8686 3.12402 63.6894C3.12402 63.9159 3.11361 64.1451 3.12663 64.3717C3.17869 65.2441 3.0251 66.0437 2.10351 66.3744C1.14287 66.7182 0.494637 66.2077 0 65.4264C0 55.3999 0 45.3733 0 35.3468ZM12.1446 8.06409C9.04926 11.8455 9.84328 18.4657 13.8316 22.1377C18.0829 26.052 24.7084 25.914 28.8556 21.8408C33.3359 17.4396 32.5966 10.9054 30.1885 8.04586C23.8936 10.6293 19.5199 10.6345 12.1446 8.06409ZM27.8767 5.53792C24.7501 2.36067 17.6039 2.36327 14.4903 5.54573C17.7236 7.27499 24.836 7.27238 27.8767 5.53792ZM24.6173 28.1771C22.2743 28.1771 20.0953 28.1771 17.7601 28.1771C18.9368 29.8881 20.0354 31.4898 21.1939 33.1748C22.3654 31.4637 23.4458 29.8881 24.6173 28.1771Z" fill="#D2051E"/>
<path d="M9.7626 100C8.93734 99.5338 8.68481 98.815 8.68481 97.8853C8.70043 78.9728 8.69523 60.0578 8.69783 41.1454C8.69783 40.8537 8.70043 40.5542 8.76552 40.2729C8.94255 39.5099 9.46061 39.0958 10.226 39.0775C10.9914 39.0619 11.5433 39.463 11.7255 40.2182C11.8297 40.6531 11.8166 41.1219 11.8166 41.5751C11.8219 59.5109 11.8193 77.4493 11.8193 95.3852C11.8193 95.8383 11.8193 96.2915 11.8193 96.8097C14.4096 96.8097 16.9348 96.8097 19.6293 96.8097C19.6293 96.4243 19.6293 96.018 19.6293 95.6143C19.6293 84.4497 19.6293 73.2824 19.6293 62.1178C19.6293 61.7272 19.6163 61.3339 19.6632 60.9485C19.7699 60.0891 20.2645 59.5968 21.1419 59.5552C21.9853 59.5135 22.6023 60.0604 22.7169 60.9537C22.7663 61.3391 22.7533 61.7324 22.7533 62.123C22.7559 73.2877 22.7533 84.4549 22.7533 95.6195C22.7533 96.0024 22.7533 96.3852 22.7533 96.8201C25.3775 96.8201 27.9054 96.8201 30.5634 96.8201C30.5634 96.4008 30.5634 95.9867 30.5634 95.5753C30.5634 77.6056 30.5634 59.6359 30.566 41.6662C30.566 41.2105 30.553 40.7495 30.6311 40.3042C30.7691 39.5333 31.2975 39.1062 32.0577 39.0775C32.8674 39.0489 33.4245 39.4708 33.6093 40.2755C33.6874 40.6193 33.6848 40.9865 33.6848 41.3433C33.6874 60.1255 33.6848 78.9103 33.6978 97.6926C33.6978 98.6718 33.5312 99.4947 32.6044 99.9974C24.9922 100 17.3774 100 9.7626 100Z" fill="#D2051E"/>
<path d="M89.9511 75.9806C88.3005 81.5564 84.9656 84.5461 80.251 84.8013C77.5643 84.9472 75.177 84.1971 73.0761 82.5304C71.4542 81.2439 71.0403 80.5173 69.1945 75.991C68.8274 75.991 68.4395 75.991 68.0516 75.991C58.4843 75.991 48.917 75.991 39.3497 75.991C39.0893 75.991 38.829 75.9962 38.5687 75.991C37.4857 75.9675 36.801 75.3868 36.7802 74.4779C36.7593 73.5481 37.4805 72.8866 38.6025 72.8736C40.5212 72.8554 42.4425 72.8684 44.3611 72.8684C44.7126 72.8684 45.064 72.8684 45.4962 72.8684C45.5144 72.4465 45.5431 72.1001 45.5431 71.7538C45.5457 68.0426 45.5404 64.3315 45.5509 60.6204C45.5509 60.2349 45.5613 59.8287 45.6784 59.4667C45.9153 58.7297 46.4803 58.3546 47.2456 58.4223C48.0032 58.4901 48.5057 58.9276 48.628 59.7063C48.6775 60.024 48.6671 60.3547 48.6671 60.6803C48.6697 64.3576 48.6697 68.0374 48.6697 71.7147C48.6697 72.0637 48.6697 72.4127 48.6697 72.8163C55.5998 72.8163 62.4206 72.8163 69.3065 72.8163C69.8974 69.8604 71.3579 67.4437 73.917 65.7665C75.7966 64.5346 77.8715 63.9877 80.1156 64.0763C84.8537 64.2638 88.2901 67.316 89.9823 73.0247C91.336 72.8476 92.7965 72.858 94.1164 72.4309C95.9127 71.8501 96.8734 70.4542 96.8421 68.4776C96.8187 66.8837 96.8708 65.2873 96.8187 63.6935C96.725 60.7402 95.2723 58.9823 92.4164 58.451C88.2953 57.6853 84.169 56.9353 80.0245 56.2946C78.1735 56.0082 76.2808 55.904 74.4038 55.8962C65.5863 55.8571 56.7661 55.8779 47.9485 55.8779C47.6231 55.8779 47.2951 55.8962 46.9723 55.8623C46.147 55.7712 45.6628 55.2711 45.5847 54.4716C45.504 53.6617 45.9153 53.0809 46.6989 52.8544C47.0634 52.7476 47.4695 52.758 47.8574 52.758C55.3733 52.7528 62.8918 52.7554 70.4077 52.7554C70.7591 52.7554 71.1132 52.7554 71.587 52.7554C70.5743 51.6486 69.6006 50.6719 68.7285 49.6146C66.5365 46.953 64.3575 44.2784 62.2332 41.5595C60.2884 39.0724 57.7944 37.8405 54.6418 37.8822C52.2988 37.9109 49.9557 37.8926 47.6127 37.8744C47.1988 37.8718 46.7536 37.8379 46.3787 37.6843C45.7045 37.4082 45.4077 36.8249 45.4988 36.1061C45.5925 35.3847 46.0377 34.7961 46.7458 34.8065C50.4139 34.856 54.0977 34.8222 57.745 35.1451C60.3692 35.3769 62.4466 36.9759 64.1128 38.9864C66.5625 41.9423 68.942 44.9581 71.3787 47.9244C73.4979 50.5027 76.0413 52.4533 79.4257 53.0549C81.4745 53.4195 83.5286 53.7424 85.5774 54.0992C88.2016 54.5576 90.8336 54.9847 93.4448 55.5133C97.0218 56.2373 99.357 58.6359 99.7527 62.2845C100.016 64.6987 100.068 67.1702 99.8698 69.5896C99.5861 73.1054 96.3761 75.8425 92.7262 75.9832C91.7994 76.0118 90.8596 75.9806 89.9511 75.9806ZM72.3914 74.3997C72.3836 78.4963 75.4972 81.6788 79.5455 81.7022C83.5754 81.7283 86.8531 78.5041 86.8635 74.5117C86.8739 70.4933 83.6327 67.2015 79.66 67.1884C75.6144 67.1806 72.4019 70.3683 72.3914 74.3997Z" fill="#D2051E"/>
<path d="M54.332 58.1775C54.8839 58.1775 55.4384 58.1488 55.9877 58.1827C56.8104 58.2322 57.3206 58.6879 57.4222 59.5031C57.5289 60.3599 57.1488 61.0813 56.2975 61.1672C55.0167 61.2974 53.7072 61.2896 52.4237 61.1802C51.6193 61.1125 51.2001 60.4302 51.2496 59.6281C51.3017 58.7869 51.7937 58.2452 52.6762 58.1853C53.2255 58.1462 53.7801 58.1775 54.332 58.1775Z" fill="#D2051E"/>
</g>
<defs>
<clipPath id="clip0_4_398">
<rect width="100" height="100" fill="white"/>
</clipPath>
</defs>
</svg>
