<svg width="76" height="101" viewBox="0 0 76 101" fill="none" xmlns="http://www.w3.org/2000/svg">
<path d="M42.1584 101C40.2584 100.627 38.3273 100.362 36.4584 99.8489C25.1051 96.6912 16.851 86.5337 15.9945 74.8206C15.9166 73.7006 15.8855 72.5962 15.8699 71.4762C15.8699 70.9629 15.7453 70.6673 15.2469 70.4184C13.565 69.5629 12.7707 68.1163 12.7084 66.2652C12.6773 65.2541 12.7084 64.243 12.7084 63.0764C11.2289 63.0764 9.82726 63.1542 8.42562 63.0453C7.19529 62.9519 5.8871 62.8431 4.78136 62.3609C1.61988 61.0075 0.0625072 58.4565 0.0313596 55.0499C-0.0153617 49.3256 0.0157859 43.6168 0.0157859 37.8925C0.0157859 28.0927 0.0157859 18.2929 0.0157859 8.5087C0.0157859 3.25104 3.2707 0 8.50349 0C19.7166 0 30.9297 0 42.1428 0C47.2822 0 50.5838 3.25104 50.5838 8.35315C50.5994 23.7995 50.5994 39.2614 50.5838 54.7077C50.5838 59.7476 47.2666 63.0297 42.2207 63.0453C40.8035 63.0453 39.4019 63.0453 37.8912 63.0453C37.8912 64.0719 37.8756 64.9897 37.8912 65.9074C37.9068 67.9607 37.0969 69.5163 35.2281 70.4962C35.0101 70.6051 34.7609 70.9007 34.7297 71.1184C34.2314 77.7294 38.2027 82.1315 43.0617 83.4071C50.3035 85.3048 57.1248 79.9382 57.1248 72.3473C57.156 58.7365 57.1248 45.1257 57.1248 31.5149C57.1248 30.7215 57.0781 29.9282 57.1404 29.1505C57.2338 27.6416 57.265 26.2883 55.5363 25.4172C54.3994 24.8417 53.9633 23.5039 53.9633 22.1817C53.9478 18.4329 53.9322 14.6841 53.9633 10.9353C53.9789 9.20869 54.9133 8.30648 57.1248 7.77761C57.1248 6.81318 57.1092 5.8332 57.1248 4.85323C57.1404 3.82658 57.6855 3.18882 58.5265 3.15771C59.4142 3.11104 60.0527 3.77992 60.0838 4.82212C60.115 5.80209 60.0838 6.78207 60.0838 7.7465C62.6847 8.52426 63.2609 9.28646 63.2609 11.9153C63.2609 15.073 63.2297 18.2307 63.2765 21.3884C63.292 23.5506 62.5289 25.215 60.551 26.2572C60.333 26.3816 60.1928 26.7394 60.115 27.0039C60.0371 27.2372 60.0994 27.5327 60.0994 27.7816C60.0994 42.6057 60.115 57.4299 60.0994 72.254C60.0994 78.8649 56.0035 84.4181 49.8986 86.1759C40.8502 88.7892 32.0199 82.2404 31.7396 72.7206C31.724 72.394 31.7084 72.0518 31.7396 71.7406C31.8174 71.0407 31.5994 70.6518 30.9297 70.2785C29.3101 69.4074 28.5937 67.9296 28.5625 66.1252C28.5469 65.1452 28.5625 64.1653 28.5625 63.1075C26.351 63.1075 24.233 63.1075 22.006 63.1075C22.006 64.103 21.9904 65.0519 22.006 66.0008C22.0371 68.0385 21.1494 69.5163 19.3584 70.4962C19.1092 70.6362 18.8601 71.0251 18.8445 71.3051C18.3305 85.9892 29.2633 96.629 41.6445 97.8734C55.4428 99.2578 67.6527 89.7225 69.5838 75.9717C69.7551 74.805 69.8019 73.6073 69.8174 72.4251C69.8486 66.8719 69.8174 61.3187 69.833 55.7499C69.833 55.1743 69.7084 54.8477 69.1322 54.5366C67.5125 53.6966 66.656 52.2966 66.656 50.4611C66.6404 47.0701 66.656 43.6946 66.656 40.3036C66.656 37.6747 67.2166 36.9281 69.833 36.2125C69.833 35.2792 69.8174 34.2992 69.833 33.3193C69.8486 32.246 70.4248 31.5771 71.2969 31.5926C72.1691 31.5926 72.7609 32.2771 72.792 33.3348C72.8076 33.8326 72.792 34.3148 72.792 34.8126C72.792 35.2637 72.792 35.7303 72.792 36.2125C73.0101 36.2748 73.1969 36.337 73.3838 36.3836C75.0191 36.7725 75.9535 37.8614 75.9535 39.5258C75.9691 43.1346 75.9846 46.759 75.9535 50.3678C75.9379 52.2189 75.0969 53.6655 73.4305 54.5366C72.8855 54.8166 72.7765 55.1277 72.7765 55.6721C72.792 61.2564 72.8076 66.8563 72.7765 72.4406C72.6986 85.8959 63.7748 97.0956 50.6305 100.222C49.3223 100.533 47.983 100.704 46.6748 100.953C45.1953 101 43.6691 101 42.1584 101ZM2.9748 31.4526C2.9748 39.1836 2.9748 46.899 2.9748 54.6299C2.9748 58.1143 4.9371 60.1053 8.41005 60.1053C19.6855 60.1053 30.9764 60.1053 42.2519 60.1053C45.6158 60.1053 47.6248 58.1143 47.6248 54.7855C47.6404 39.308 47.6248 23.815 47.6248 8.33759C47.6248 4.931 45.6314 2.9866 42.1896 2.9866C30.9453 2.9866 19.701 2.9866 8.4412 2.9866C4.9371 2.9866 2.9748 4.931 2.9748 8.39982C2.9748 16.0685 2.9748 23.7528 2.9748 31.4526ZM69.6617 45.7012C69.6617 47.4123 69.615 49.0767 69.6773 50.7256C69.7084 51.55 70.456 52.1566 71.2814 52.1411C72.2002 52.1255 72.8855 51.6433 72.9322 50.7722C73.0412 49.0923 72.9633 47.4123 72.9633 45.6857C71.8264 45.7012 70.783 45.7012 69.6617 45.7012ZM60.3174 17.2663C59.1338 17.2663 58.0592 17.2663 56.9535 17.2663C56.9535 18.884 56.9379 20.424 56.9535 21.964C56.9691 23.0217 57.6076 23.675 58.5732 23.6906C59.5232 23.7061 60.2551 23.0684 60.3019 22.0417C60.3642 20.4707 60.3174 18.8996 60.3174 17.2663ZM31.5838 63.1231C31.5838 64.3208 31.5215 65.4408 31.5994 66.5452C31.6617 67.4474 32.4715 68.0696 33.2969 67.9918C34.1846 67.8985 34.8076 67.4319 34.8543 66.4985C34.9166 65.3941 34.8699 64.2897 34.8699 63.1231C33.7641 63.1231 32.7363 63.1231 31.5838 63.1231ZM15.6986 63.0919C15.6986 64.3053 15.6363 65.4097 15.7141 66.5141C15.792 67.4007 16.415 67.9452 17.3182 67.9607C18.1592 67.9918 18.8756 67.5407 18.9535 66.7008C19.0781 65.5186 18.9846 64.3053 18.9846 63.0919C17.8633 63.0919 16.851 63.0919 15.6986 63.0919ZM60.2707 10.9198C59.1338 10.9198 58.0904 10.9198 57.0158 10.9198C57.0158 12.0397 57.0158 13.0975 57.0158 14.1708C58.1215 14.1708 59.165 14.1708 60.2707 14.1708C60.2707 13.0819 60.2707 12.0397 60.2707 10.9198ZM69.7084 39.3858C69.7084 40.5058 69.7084 41.5635 69.7084 42.6213C70.8297 42.6213 71.8576 42.6213 72.9478 42.6213C72.9478 41.5169 72.9478 40.4902 72.9478 39.3858C71.8576 39.3858 70.7986 39.3858 69.7084 39.3858Z" fill="#D2051E"/>
<path d="M17.5983 28.4349C18.0967 26.3972 19.1245 24.7483 20.8221 23.5506C19.8565 21.3573 18.9065 19.2418 17.9565 17.1107C17.8475 16.8774 17.7229 16.6441 17.6295 16.3952C17.2868 15.4774 17.5983 14.6841 18.4237 14.3575C19.2024 14.0464 19.95 14.3575 20.3549 15.2441C21.2893 17.2663 22.2237 19.304 23.0803 21.3729C23.4073 22.1662 23.7655 22.3373 24.6065 22.2128C28.1106 21.7462 31.6303 24.0639 32.736 27.5949C32.9696 28.326 33.2967 28.4816 33.9819 28.466C35.7573 28.4194 37.5483 28.466 39.3237 28.4505C40.6475 28.4349 41.2705 27.8594 41.2705 26.5216C41.286 21.4195 41.286 16.333 41.2705 11.2309C41.2705 9.98645 40.7877 9.51979 39.5106 9.28646C38.5762 9.11536 38.0623 8.52426 38.1401 7.66872C38.218 6.8443 38.8721 6.31542 39.8065 6.33097C41.8311 6.36208 43.7623 7.99538 44.136 10.0176C44.2295 10.4998 44.2606 10.9975 44.2606 11.4953C44.2762 16.4263 44.2762 21.3573 44.2606 26.2883C44.245 29.5705 42.3918 31.406 39.1057 31.406C29.9016 31.406 20.6975 31.406 11.4934 31.406C8.26963 31.406 6.3852 29.5238 6.36963 26.335C6.36963 21.3729 6.36963 16.4108 6.36963 11.4486C6.36963 8.25982 8.2852 6.33097 11.4623 6.33097C18.5172 6.33097 25.5877 6.33097 32.6426 6.33097C32.9385 6.33097 33.25 6.29986 33.5303 6.37764C34.2934 6.5643 34.7295 7.06207 34.6983 7.87094C34.6672 8.67981 34.2 9.14647 33.4213 9.27091C33.0942 9.33313 32.7672 9.28646 32.4401 9.28646C25.5098 9.28646 18.5795 9.28646 11.6647 9.28646C9.8893 9.28646 9.34422 9.8309 9.34422 11.5731C9.34422 16.4419 9.34422 21.3106 9.34422 26.1639C9.34422 27.9216 9.87373 28.4349 11.6491 28.4505C13.6114 28.4505 15.5737 28.4349 17.5983 28.4349ZM29.8237 28.3883C29.1229 26.3194 27.2229 25.0128 25.136 25.0906C23.0959 25.1683 21.2737 26.5527 20.8221 28.3883C23.8123 28.3883 26.7868 28.3883 29.8237 28.3883Z" fill="#D2051E"/>
<path d="M34.6984 45.7323C34.7139 50.8967 30.5713 55.0655 25.3697 55.1277C20.1992 55.1899 15.8852 50.9433 15.8697 45.779C15.8541 40.6302 20.1525 36.337 25.3229 36.3681C30.509 36.3836 34.6828 40.568 34.6984 45.7323ZM30.7426 42.4346C28.8426 44.3324 26.9738 46.2145 25.0738 48.0812C24.2172 48.9367 23.3139 49.03 22.6598 48.3456C22.0057 47.6767 22.0992 46.8679 22.9402 46.0279C24.6377 44.3324 26.3352 42.6368 28.0328 40.9413C28.2197 40.7547 28.391 40.5213 28.5779 40.3191C25.8836 38.5925 22.2705 39.2458 20.2615 41.7657C18.1902 44.3479 18.4238 48.0812 20.791 50.3678C23.1582 52.6544 26.8336 52.8099 29.3566 50.7411C31.8795 48.6723 32.5025 45.0479 30.7426 42.4346Z" fill="#D2051E"/>
<path d="M14.0786 38.6703C14.0631 40.7858 12.3811 42.4657 10.2631 42.4657C8.11387 42.4813 6.35404 40.7236 6.36961 38.6081C6.38518 36.5237 8.14502 34.797 10.2163 34.7815C12.3499 34.7659 14.0786 36.5081 14.0786 38.6703ZM11.4934 38.7014C10.9172 38.2658 10.5745 37.7992 10.2786 37.8147C9.95158 37.8459 9.65568 38.3125 9.3442 38.5925C9.62453 38.8881 9.87371 39.3858 10.2008 39.448C10.4811 39.4947 10.8704 39.0747 11.4934 38.7014Z" fill="#D2051E"/>
<path d="M40.414 42.4658C38.2804 42.4813 36.5673 40.8325 36.5206 38.7014C36.4894 36.5548 38.2337 34.7815 40.3828 34.7815C42.4853 34.797 44.214 36.5237 44.2296 38.6236C44.2451 40.7391 42.5476 42.4502 40.414 42.4658ZM41.6287 38.7014C41.0525 38.2503 40.7099 37.7992 40.414 37.8148C40.1025 37.8303 39.5886 38.297 39.573 38.6081C39.5574 38.8881 40.0246 39.3858 40.3517 39.4481C40.6476 39.4947 41.0214 39.0747 41.6287 38.7014Z" fill="#D2051E"/>
</svg>
