<svg width="100" height="93" viewBox="0 0 100 93" fill="none" xmlns="http://www.w3.org/2000/svg">
<g clip-path="url(#clip0_4_380)">
<path d="M82.8498 33.0423C82.4976 27.5352 80.7952 22.5798 77.5176 18.2155C77.273 17.8904 76.5881 17.654 76.1968 17.7525C74.377 18.2057 72.9877 17.5653 71.6376 16.4028C59.5839 6.03881 40.3784 6.06837 28.2661 16.4718C26.9648 17.585 25.6049 18.1564 23.8536 17.7919C23.3839 17.6934 22.5915 18.048 22.2882 18.4519C19.3335 22.4222 17.7778 26.954 17.2006 31.8601C17.093 32.8059 17.4256 33.1999 18.2768 33.5743C20.8695 34.7269 22.1512 36.8155 22.1512 39.6725C22.161 46.6081 22.1708 53.5535 22.1414 60.4891C22.1316 63.9668 20.1162 66.5775 17.0832 67.1686C13.8937 67.7991 11.1249 66.144 9.73558 62.8831C9.53012 62.3905 8.95288 61.8782 8.44412 61.7206C3.17066 60.0754 0.0105013 55.8096 -0.0090663 50.204C-0.0286339 44.618 3.18045 40.2537 8.38542 38.6479C8.93331 38.4804 9.5399 37.8992 9.77471 37.3573C10.5672 35.4954 11.8 34.195 13.6589 33.3773C14.1774 33.1507 14.7644 32.4512 14.8231 31.9192C15.4689 26.2643 17.318 21.1119 20.7032 16.5309C20.9576 16.1762 21.0358 15.526 20.9184 15.0827C20.3216 12.9153 20.9967 11.2602 22.6502 9.82186C29.4108 3.93055 37.3552 0.866672 46.1704 0.167201C57.3043 -0.719451 67.499 1.93066 76.3827 9.00417C78.4764 10.6691 80.0222 12.4621 78.9558 15.4176C78.8286 15.7821 79.1906 16.4225 79.4841 16.8166C82.6247 21.1809 84.4934 26.0279 85.0413 31.3774C85.1489 32.4709 85.4327 33.1802 86.6361 33.5743C88.4167 34.1555 89.4734 35.6136 90.2267 37.3376C90.4615 37.8795 91.0584 38.4607 91.616 38.6282C96.8308 40.2537 100.02 44.5885 100.011 50.1843C100.001 55.7603 96.8112 60.0557 91.5573 61.7009C91.0486 61.8585 90.4713 62.3708 90.2757 62.8634C89.493 64.8042 88.2211 66.1637 86.2839 66.9617C85.8338 67.1489 85.2664 67.671 85.2174 68.0848C83.9749 79.1581 76.7838 84.675 67.0783 87.8276C65.7281 88.2611 64.3095 88.4778 62.9006 88.7142C60.9439 89.0393 59.1143 88.931 57.7152 91.1772C56.1596 93.6893 47.9021 93.4628 45.8182 91.2757C44.4582 89.8472 44.1158 88.133 44.7615 86.2907C45.4366 84.3598 46.9042 83.2564 48.9098 83.1185C50.7981 82.9904 52.7157 83.0101 54.604 83.1086C56.3846 83.1973 57.6859 84.1233 58.6545 85.6701C58.9578 86.1429 59.7209 86.6552 60.2297 86.6158C67.5675 86.1035 73.9857 83.5421 78.8873 77.8084C81.1572 75.1583 82.478 72.0649 82.8106 68.5478C82.8889 67.671 82.703 67.1587 81.7931 66.7745C79.0928 65.6317 77.8405 63.4643 77.8405 60.5482C77.8307 53.6126 77.8405 46.6672 77.8307 39.7316C77.8405 36.2835 79.6994 34.2048 82.8498 33.0423ZM9.46163 41.0813C5.60682 41.3867 2.53472 45.2091 2.30969 49.7606C2.08466 54.45 5.09807 58.6272 9.26596 59.2971C9.32466 59.0902 9.32466 58.8143 9.45185 58.6567C9.87255 58.1346 10.3324 57.642 10.7824 57.1395C11.1249 57.7405 11.5749 58.3119 11.7804 58.9621C11.9467 59.504 11.8 60.1443 11.8195 60.7453C11.8978 63.1786 13.5415 64.9322 15.7722 64.952C17.9931 64.9716 19.7444 63.2476 19.764 60.8044C19.8129 53.6915 19.8129 46.5884 19.7737 39.4755C19.764 37.1209 18.0811 35.4363 15.9091 35.387C13.698 35.3279 11.9565 37.0815 11.8391 39.4755C11.8097 40.0075 11.8293 40.5493 11.8293 41.0911C11.8293 44.6772 11.8684 48.2632 11.7706 51.8393C11.751 52.4304 11.0955 53.0018 10.7237 53.5831C10.303 52.992 9.77471 52.4501 9.49098 51.7999C9.29531 51.3468 9.45185 50.7359 9.45185 50.204C9.46163 47.1696 9.46163 44.1353 9.46163 41.0813ZM90.6866 59.3266C95.0208 58.5188 98.0244 54.2136 97.682 49.5242C97.3493 45.0121 94.1892 41.2094 90.5496 41.1404C90.5496 44.421 90.5789 47.6918 90.53 50.9625C90.5202 51.9477 90.9801 53.4649 89.4049 53.524C87.7612 53.5831 88.2113 52.0561 88.2015 51.0709C88.1624 47.2484 88.2113 43.426 88.1624 39.6035C88.133 37.1505 86.4502 35.4166 84.2293 35.387C81.9986 35.3575 80.2473 37.0815 80.2375 39.5247C80.1984 46.6376 80.1984 53.7407 80.2473 60.8536C80.2668 63.2772 82.0475 65.0012 84.288 64.952C86.4502 64.9027 88.0841 63.1983 88.1819 60.8733C88.2211 59.9768 88.1037 59.0606 88.27 58.1937C88.3483 57.7898 88.8961 57.2381 89.2777 57.2085C89.6495 57.179 90.1582 57.642 90.4322 58.0163C90.6376 58.302 90.5887 58.7946 90.6866 59.3266ZM49.2033 2.28532C48.0293 2.37398 46.7867 2.42324 45.5442 2.57101C37.5606 3.47737 30.3402 6.22599 24.2058 11.5755C23.1589 12.4917 22.4545 13.536 23.5111 14.797C24.5482 16.0383 25.6636 15.595 26.7594 14.6689C40.0653 3.50693 59.9166 3.50693 73.2127 14.659C73.4867 14.8856 73.7802 15.2896 74.0541 15.2797C74.8271 15.26 75.9131 15.3388 76.2751 14.8955C76.7153 14.3635 76.7251 13.27 76.549 12.5114C76.4218 11.9695 75.7174 11.5459 75.2086 11.1321C67.6849 4.85661 58.8991 2.34443 49.2033 2.28532ZM51.8841 85.4632V85.4533C50.9938 85.4533 50.1035 85.4139 49.2229 85.4632C47.7749 85.5518 46.8846 86.3695 46.8063 87.8177C46.728 89.2856 47.5792 90.2708 48.9881 90.389C50.8666 90.5467 52.7842 90.5368 54.6627 90.3792C56.0716 90.2609 56.8934 89.2659 56.8053 87.7882C56.7271 86.4188 55.915 85.6011 54.5453 85.473C53.6647 85.4041 52.7744 85.4632 51.8841 85.4632Z" fill="#D2051E"/>
<path d="M50.0538 68.8042C48.7623 68.6564 47.4024 68.7057 46.1892 68.3018C44.2911 67.6713 42.7844 68.1836 41.1897 69.1687C38.9688 70.5381 36.6598 71.7893 34.341 72.9912C33.666 73.336 32.8246 73.3656 32.0614 73.533C31.9929 72.7055 31.7288 71.8386 31.8853 71.0504C32.3941 68.4102 32.9713 65.7798 33.666 63.1888C34.0182 61.8588 33.8127 60.8835 33.0105 59.7407C28.1675 52.8346 28.0305 43.7218 32.531 36.599C37.012 29.5058 45.2304 25.7425 53.5857 27.3483C62.2737 29.0132 67.9092 34.343 70.1007 42.9632C73.4174 55.997 63.5261 68.5678 50.0538 68.8042ZM34.4389 70.3115C37.0022 68.883 39.1742 67.7796 41.2288 66.4891C42.6866 65.5827 44.0172 65.4054 45.7294 65.829C58.7614 69.1195 70.8443 57.2876 68.0364 44.0765C66.4416 36.5695 60.4735 30.7865 53.0574 29.5551C45.563 28.3039 38.1176 31.7816 34.2041 38.3625C30.3003 44.9237 30.77 53.1203 35.5053 59.2185C36.3174 60.2727 36.562 61.1987 36.2097 62.4893C35.5542 64.8931 35.0944 67.356 34.4389 70.3115Z" fill="#D2051E"/>
<path d="M61.9215 56.7556C61.8335 57.1102 61.7748 57.4846 61.6476 57.8294C60.454 61.2381 56.0513 62.0656 53.7325 59.3071C52.5487 57.8984 52.2747 56.2728 52.94 54.5685C53.5955 52.874 54.8674 51.879 56.6676 51.6327C59.2114 51.2879 61.5204 53.0809 61.8726 55.6226C61.8824 55.6817 61.902 55.731 61.9215 55.7901C61.9215 56.1053 61.9215 56.4305 61.9215 56.7556ZM59.9746 55.6226C59.9256 55.5339 59.8767 55.4059 59.7887 55.3172C59.2701 54.7754 58.732 54.2532 58.2037 53.7212C58.0569 53.5735 57.9004 53.5341 57.7047 53.5932C56.9905 53.7902 56.2861 53.9872 55.5719 54.1646C55.3566 54.2237 55.2294 54.3419 55.1707 54.5685C54.9848 55.2877 54.7989 56.0068 54.6033 56.7162C54.5446 56.923 54.5935 57.0807 54.7305 57.2186C55.2686 57.7604 55.7969 58.2924 56.335 58.8343C56.472 58.9722 56.6187 59.0116 56.8144 58.9623C57.5286 58.7653 58.2526 58.5683 58.9766 58.3811C59.1919 58.322 59.3093 58.1939 59.368 57.9673C59.5343 57.327 59.7104 56.6767 59.8767 56.0364C59.8963 55.9083 59.9354 55.7901 59.9746 55.6226Z" fill="#D2051E"/>
<path d="M41.2777 35.0031C41.6397 35.0917 42.0115 35.1607 42.3637 35.2888C44.2912 35.9784 45.5435 37.8699 45.4456 39.9289C45.3576 41.8007 44.115 43.4952 42.4127 44.0863C40.5146 44.7464 38.5774 44.2538 37.3055 42.7859C36.2685 41.5938 35.9065 40.0176 36.3174 38.4708C36.3956 38.5398 36.4544 38.5989 36.5228 38.6679C37.1686 39.3082 37.8045 39.9585 38.4405 40.6087C38.597 40.7761 38.7731 40.8353 38.9981 40.8156C39.7613 40.7663 40.5244 40.7269 41.2875 40.6875C41.6495 40.6678 41.7572 40.5594 41.7767 40.1949C41.8159 39.4166 41.855 38.6383 41.9039 37.8699C41.9137 37.663 41.8648 37.4955 41.7082 37.3478C41.0527 36.6975 40.4168 36.0473 39.771 35.3971C39.7123 35.338 39.6536 35.2789 39.5656 35.1804C39.8885 35.1213 40.182 35.0622 40.4657 35.0129C40.7396 35.0031 41.0038 35.0031 41.2777 35.0031Z" fill="#D2051E"/>
<path d="M61.7161 44.0961C60.2779 45.2389 58.8494 46.3916 57.4406 47.5147C55.2001 45.2586 52.9694 43.0026 50.7093 40.7269C51.8149 39.3279 52.9596 37.8699 54.0945 36.4315C56.6481 38.993 59.1723 41.5347 61.7161 44.0961Z" fill="#D2051E"/>
<path d="M54.4076 45.6626C53.6738 46.3916 52.9107 47.1601 52.1377 47.9187C51.1692 48.8743 50.1908 49.8299 49.232 50.7953C46.9621 53.0908 44.7021 55.4059 42.442 57.7112C42.1387 58.0265 41.8256 58.3319 41.5223 58.6471C41.0136 59.1594 40.1918 59.1594 39.6928 58.6471C39.1938 58.1349 39.2036 57.3369 39.7123 56.8246C43.9683 52.5391 48.2242 48.2536 52.49 43.9583C52.5389 43.909 52.578 43.8598 52.5976 43.8302C53.1944 44.441 53.7814 45.042 54.4076 45.6626Z" fill="#D2051E"/>
<path d="M45.5533 42.2046C46.8251 43.4853 48.0775 44.7463 49.3004 45.9778C48.5667 46.7265 47.8035 47.4851 47.0697 48.2338C45.8566 47.0122 44.5944 45.7413 43.3323 44.4705C44.2716 43.9582 45.0347 43.1898 45.5533 42.2046Z" fill="#D2051E"/>
<path d="M54.6913 51.3865C53.7227 51.948 52.9791 52.7361 52.5095 53.7312C51.6583 52.8741 50.8169 52.0268 49.9951 51.1993C50.7289 50.4702 51.5018 49.7018 52.2551 48.9432C53.0281 49.7215 53.8499 50.5392 54.6913 51.3865Z" fill="#D2051E"/>
<path d="M59.4756 40.7466C58.9081 40.116 58.37 39.4954 57.783 38.8452C57.9884 38.6678 58.1743 38.4708 58.3896 38.3329C58.4874 38.2738 58.6733 38.2836 58.7907 38.323C59.4071 38.5693 59.8474 39.0127 60.1115 39.6235C60.2094 39.85 60.1898 40.0372 59.9843 40.2047C59.818 40.3722 59.6615 40.5594 59.4756 40.7466Z" fill="#D2051E"/>
<path d="M56.7655 58.2235C56.7263 58.194 56.6676 58.1546 56.6285 58.1152C56.2273 57.7211 55.8262 57.3172 55.4446 56.9133C55.3859 56.8541 55.3566 56.7162 55.3762 56.6374C55.5033 56.0956 55.6501 55.5537 55.7969 55.0217C55.8262 54.9331 55.924 54.8247 56.0121 54.7951C56.5404 54.6375 57.0785 54.4996 57.6166 54.3617C57.7047 54.342 57.8319 54.3715 57.8906 54.4306C58.3015 54.8247 58.6929 55.2188 59.0842 55.6325C59.1429 55.6916 59.1723 55.8296 59.1527 55.9084C59.0255 56.4502 58.8788 56.9822 58.732 57.5241C58.7124 57.6127 58.6146 57.7112 58.5363 57.7408C57.9884 57.8984 57.4405 58.0462 56.8926 58.194C56.8535 58.194 56.8242 58.2038 56.7655 58.2235Z" fill="#D2051E"/>
</g>
<defs>
<clipPath id="clip0_4_380">
<rect width="100" height="93" fill="white"/>
</clipPath>
</defs>
</svg>
