<svg width="100" height="100" viewBox="0 0 100 100" fill="none" xmlns="http://www.w3.org/2000/svg">
<g clip-path="url(#clip0_4_407)">
<path d="M18.7581 0C20.1649 0.250728 21.5961 0.388224 22.9706 0.760272C32.5679 3.38887 37.9609 13.5393 34.8076 22.9942C34.5731 23.6817 34.6782 24.1022 35.2038 24.5956C36.4327 25.7522 37.5808 26.9897 38.8098 28.2433C40.055 27.1838 40.9525 25.8169 42.6504 25.5581C44.316 25.3074 45.6339 25.8978 46.9437 27.1757C48.488 25.5662 49.9272 23.9162 51.52 22.4361C55.2798 18.9421 61.36 20.77 62.6132 25.7279C62.7992 26.472 62.8153 27.2646 62.9204 28.122C65.2328 28.0168 67.2865 28.7367 68.8147 30.6131C70.3186 32.4652 70.642 34.5843 70.0437 36.9702C71.9841 37.2129 73.6416 37.9489 74.8787 39.4452C76.0996 40.9253 76.5524 42.648 76.3988 44.6134C76.9728 44.6862 77.5145 44.7185 78.0401 44.8399C82.6892 45.8994 84.4114 51.5206 81.1125 54.9741C78.7516 57.4491 76.2856 59.8188 73.86 62.2291C73.7225 62.3666 73.5446 62.4474 73.2131 62.6658C74.1995 63.5959 75.0242 64.429 75.9217 65.1731C76.132 65.351 76.6332 65.2863 76.9647 65.1893C82.9641 63.3533 88.5592 64.1864 93.4427 68.1252C99.0136 72.6141 100.93 78.5587 99.6038 85.571C99.5876 85.6681 99.5553 85.7571 99.5229 85.8541C99.1268 87.1644 98.6336 88.418 97.1216 88.7981C95.6501 89.1621 94.6394 88.3048 93.7015 87.3666C91.2112 84.8836 88.7371 82.3844 86.271 79.8771C85.1795 78.769 83.8777 78.1624 82.3334 78.2757C80.7244 78.397 79.3499 78.9712 78.7031 80.6212C77.9754 82.4814 78.2018 84.2203 79.5116 85.7328C80.2959 86.6467 81.1934 87.4555 82.0504 88.3048C83.8535 90.0922 85.6727 91.8635 87.4677 93.659C87.8558 94.0473 88.2115 94.484 88.4945 94.9531C89.3515 96.3847 89.0281 97.9861 87.5404 98.7059C86.368 99.2721 85.034 99.6361 83.7403 99.8059C76.7788 100.704 69.7688 97.0317 66.4376 90.8282C65.8878 89.8011 66.009 88.9923 66.7933 88.5312C67.618 88.046 68.3861 88.3614 69.0087 89.429C72.3156 95.0987 78.0401 97.8163 84.4356 96.7406C84.9046 96.6597 85.3493 96.4979 85.8748 96.3604C83.8616 94.3222 81.9453 92.373 80.021 90.4319C79.1478 89.5503 78.2422 88.7092 77.4094 87.7952C75.7034 85.9188 75.0808 83.6784 75.4932 81.1873C76.5362 74.903 83.8454 73.8596 87.597 77.1353C88.6724 78.0735 89.6588 79.1249 90.6695 80.1359C92.3674 81.8425 94.0572 83.5652 95.7552 85.2718C95.933 85.4497 96.1352 85.5953 96.4101 85.8298C97.0973 83.9696 97.2267 82.1336 97.0084 80.2896C95.8118 70.3737 86.1255 64.6393 76.8677 68.3759C75.8975 68.7642 75.1374 68.6995 74.4178 67.8988C73.771 67.1708 73.0191 66.5319 72.3561 65.812C71.3211 64.6797 70.2539 63.8952 68.5559 63.7011C65.3137 63.3209 63.26 60.3122 63.6239 57.0689C63.6643 56.7454 63.6966 56.43 63.7371 56.0579C59.8561 55.4513 57.7134 53.2109 57.3173 49.2721C53.2018 49.8221 49.7251 48.3096 46.499 45.9075C46.2241 47.0722 46.1837 48.3177 45.642 49.2802C44.7041 50.9544 45.2943 51.9007 46.5233 53.1058C53.6384 60.0858 60.6565 67.1547 67.7151 74.1912C68.8874 75.3559 68.9198 75.5015 68.3053 77.0058C67.5614 78.8418 67.2299 80.7506 67.2219 82.7241C67.2219 83.9777 66.7206 84.6247 65.7746 84.6247C64.8367 84.6247 64.1898 83.9453 64.3192 82.7241C64.5213 80.7587 64.8609 78.8095 65.2571 76.8764C65.3784 76.286 65.3622 75.9301 64.9175 75.5257C64.1494 74.8302 63.4056 74.0861 62.7102 73.3177C62.3383 72.9052 62.0391 72.9052 61.5378 73.1155C60.3089 73.617 59.0556 74.078 57.7862 74.45C55.9993 74.9758 54.2286 74.4419 52.4741 74.1589C51.1562 73.9486 50 74.175 49.0459 75.1133C45.6258 78.4617 42.2219 81.8263 38.8422 85.2152C38.6805 85.3769 38.64 85.8056 38.7209 86.0482C39.3839 88.0864 38.9149 89.8253 37.4191 91.3216C35.042 93.6914 32.6811 96.0693 30.2959 98.4229C28.1856 100.51 25.3477 100.542 23.2536 98.4633C16.4376 91.6936 9.63777 84.9078 2.85414 78.1058C0.760026 76.0029 0.776197 73.1721 2.87031 71.0612C5.2555 68.6509 7.66494 66.2731 10.0582 63.879C11.5055 62.4313 13.2034 62.043 15.1682 62.5769C15.4916 62.6658 16.0252 62.593 16.2435 62.3747C18.7338 59.8916 21.2888 57.4652 23.5931 54.8124C25.0243 53.1624 26.2451 51.2537 27.1831 49.2802C27.8299 47.9295 27.8622 46.2714 28.1048 44.7428C28.3473 43.2142 28.5333 41.6694 28.6788 40.1246C28.7112 39.7768 28.5899 39.2996 28.3635 39.0569C27.1103 37.7305 25.7762 36.485 24.523 35.1666C24.054 34.6652 23.6497 34.6005 23.0029 34.8107C14.5537 37.6335 5.32018 33.6946 1.6575 25.6147C0.865136 23.892 0.533635 21.967 0 20.131C0 18.8936 0 17.6561 0 16.4186C0.0727684 16.1436 0.129366 15.8606 0.21022 15.5937C0.52555 14.5746 0.719599 13.4989 1.20472 12.5607C1.97283 11.0806 3.52523 10.7085 4.94825 11.5739C5.54657 11.9379 6.08021 12.4393 6.5815 12.9408C9.04754 15.3915 11.4812 17.8826 13.9554 20.3332C15.3218 21.6839 16.9793 22.0236 18.8228 21.5464C20.4237 21.1339 21.2969 20.0421 21.6041 18.4811C21.9518 16.6936 21.4424 15.1407 20.1326 13.8547C17.6342 11.3879 15.1197 8.92915 12.6375 6.44614C12.1604 5.96894 11.7157 5.42705 11.3923 4.83662C10.7131 3.59916 11.0689 2.17567 12.2655 1.40731C12.8558 1.02718 13.543 0.736008 14.2222 0.582336C15.3865 0.315432 16.5831 0.186024 17.7717 0C18.1032 0 18.4266 0 18.7581 0ZM43.1355 53.9227C42.7717 54.319 42.4563 54.6911 42.1087 55.0307C41.4457 55.6697 40.6048 55.7263 40.0065 55.2006C39.3515 54.6183 39.392 53.858 39.958 53.0249C40.9605 51.561 42.1167 50.1456 42.804 48.5361C43.8228 46.1663 43.8874 43.7156 42.1006 41.54C41.3971 40.6826 41.3486 39.8819 41.9631 39.2834C42.6019 38.6606 43.467 38.7496 44.2755 39.5503C45.4156 40.6665 46.5395 41.7988 47.6633 42.9311C49.1429 44.4112 50.9056 45.4303 52.8946 46.045C54.544 46.5464 56.2177 46.7325 57.8509 45.9884C59.3629 45.3009 59.5973 44.2656 58.5301 43.0524C58.2471 42.737 57.9641 42.4216 57.6649 42.1223C53.315 37.771 48.9651 33.4196 44.607 29.0764C43.7419 28.219 43.0385 28.219 42.1733 29.0764C39.2626 31.9719 36.36 34.8674 33.4654 37.771C32.2849 38.9518 31.4683 40.3753 31.2419 42.0252C31.0479 43.4649 31.1045 44.945 30.9751 46.4009C30.6598 49.9434 29.0589 52.9683 26.7788 55.5726C24.2561 58.4601 21.5152 61.1614 18.8551 63.9275C18.5883 64.2025 18.2083 64.3643 17.6908 64.6959C18.273 65.165 18.5802 65.3672 18.8309 65.6099C20.6339 67.3973 22.4612 69.1605 24.1995 71.0126C24.5472 71.3847 24.7493 72.145 24.6281 72.6383C24.531 73.0346 23.8842 73.5118 23.4395 73.5523C22.9867 73.5927 22.3884 73.2449 22.0246 72.8971C19.7607 70.6972 17.5372 68.4487 15.3056 66.2245C14.0201 64.9466 13.163 64.9385 11.9017 66.1922C9.66203 68.4164 7.43046 70.6487 5.1989 72.8891C3.92141 74.167 3.90524 75.0405 5.16656 76.2941C11.8047 82.9182 18.4347 89.5422 25.0728 96.1663C26.2775 97.3633 27.2235 97.3714 28.412 96.1906C30.6517 93.9664 32.8832 91.7341 35.1148 89.5018C36.4166 88.1996 36.4246 87.318 35.131 86.0321C32.5517 83.452 29.9644 80.88 27.3933 78.2999C26.6009 77.4992 26.52 76.6176 27.1426 75.9867C27.7895 75.3397 28.6303 75.4125 29.455 76.2294C31.5815 78.3404 33.6999 80.4594 35.8182 82.5704C36.0689 82.813 36.3195 83.0557 36.6753 83.3873C36.9583 83.0476 37.1685 82.7564 37.4191 82.5057C40.4673 79.4727 43.4993 76.4316 46.5718 73.4229C48.3991 71.6273 50.5498 70.7538 53.1533 71.3442C53.8486 71.4979 54.5682 71.5707 55.2717 71.6839C56.9453 71.9427 58.4169 71.3523 59.8157 70.7457C54.2367 65.0922 48.7144 59.5358 43.1355 53.9227ZM14.1575 3.66386C16.7772 6.30864 19.2755 8.82401 21.7658 11.3475C22.2671 11.857 22.7684 12.3746 23.197 12.9489C25.8894 16.6047 24.8787 22.9295 19.7122 24.3449C16.7125 25.1699 14.0362 24.5228 11.8047 22.3229C9.33053 19.8722 6.88874 17.3892 4.43079 14.9224C4.18823 14.6797 3.92949 14.4613 3.58182 14.1378C3.40395 14.7687 3.23415 15.2297 3.16138 15.7069C2.33668 21.1906 3.88907 25.8816 8.17432 29.4161C12.5081 32.9909 17.4806 33.7431 22.7442 31.7778C24.1349 31.2601 25.0243 31.4138 25.9864 32.4895C27.3448 34.01 28.8406 35.4093 30.0614 36.6467C32.3577 34.463 34.5327 32.3763 36.7561 30.2572C35.1876 28.6881 33.6918 27.1514 32.1394 25.6713C31.3389 24.911 31.2015 24.1912 31.6219 23.1559C35.2118 14.3158 29.9968 4.86898 20.6096 3.21094C18.4832 2.83889 16.3486 2.91168 14.1575 3.66386ZM73.5123 44.3141C73.4395 42.1547 72.7118 40.9495 71.2484 40.2863C69.7041 39.5988 68.2244 39.8496 67.0116 41.0142C65.1601 42.7936 63.349 44.6215 61.5459 46.4494C59.9854 48.0427 59.9369 50.364 61.3923 51.8845C62.88 53.4374 65.2814 53.4779 66.8984 51.9169C68.75 50.1375 70.6015 48.342 72.3318 46.4494C72.9706 45.77 73.2778 44.7671 73.5123 44.3141ZM76.6252 47.4361C75.9217 47.7839 75.0808 47.9942 74.531 48.5118C72.1054 50.825 69.7445 53.2109 67.3997 55.605C66.195 56.8425 66.2193 58.7027 67.3593 59.9321C68.5155 61.1695 70.4156 61.396 71.6688 60.2152C74.2238 57.7968 76.6979 55.3057 79.1397 52.7661C80.0453 51.8198 80.1342 50.5904 79.544 49.3934C78.978 48.253 78.0239 47.6626 76.6252 47.4361ZM61.6753 42.1547C63.26 40.5775 64.8933 39.0327 66.4295 37.3989C67.7474 35.9916 67.7231 33.8402 66.4942 32.4005C65.2652 30.9528 63.0336 30.4837 61.5783 31.6645C59.7348 33.1608 58.1015 34.9321 56.3713 36.5901C58.2067 38.5231 59.9288 40.3268 61.6753 42.1547ZM54.4146 34.5115C55.7083 33.2012 56.9858 31.9072 58.2633 30.6131C58.4896 30.3785 58.7322 30.1601 58.9424 29.9094C60.2523 28.397 60.2037 26.1889 58.8454 24.7574C57.5194 23.3662 55.2151 23.067 53.8001 24.3449C52.1184 25.8654 50.6387 27.5963 49.1349 29.1734C50.8085 30.8638 52.555 32.6351 54.4146 34.5115Z" fill="#D2051E"/>
</g>
<defs>
<clipPath id="clip0_4_407">
<rect width="100" height="100" fill="white"/>
</clipPath>
</defs>
</svg>
