<svg width="30" height="30" viewBox="0 0 30 30" fill="none" xmlns="http://www.w3.org/2000/svg">
<path d="M14.8006 0C14.9341 0 15.0676 0 15.2011 0C15.2528 0.00834864 15.3062 0.0233762 15.3579 0.0267156C15.8835 0.0651194 16.4125 0.0801469 16.9364 0.141927C17.7741 0.240441 18.5984 0.422441 19.4043 0.6729C22.3227 1.58457 24.7555 3.22257 26.6745 5.60361C28.5967 7.98798 29.6863 10.713 29.9433 13.7686C29.9583 13.9372 29.98 14.1059 29.9983 14.2745C29.9983 14.7654 29.9983 15.258 29.9983 15.7489C29.9883 15.7889 29.9733 15.8274 29.97 15.8691C29.9099 16.4051 29.8715 16.9444 29.7898 17.4787C29.5695 18.9147 29.1256 20.2822 28.4832 21.5846C27.1483 24.2862 25.186 26.4101 22.5914 27.9429C20.4705 29.1969 18.1712 29.8714 15.7133 29.9833C14.552 30.0367 13.394 29.9649 12.246 29.7462C10.9361 29.4957 9.67796 29.09 8.47989 28.5089C6.54597 27.5689 4.87902 26.2798 3.50576 24.6251C1.33489 22.0053 0.170199 18.9948 0.0266978 15.5936C0.0250292 15.5285 0.0100117 15.4634 0 15.3982C0 15.1478 0 14.899 0 14.6485C0.0100117 14.57 0.0250292 14.4932 0.0266978 14.4148C0.0433839 13.7352 0.12014 13.0623 0.238612 12.3944C0.507258 10.8733 0.994493 9.42394 1.71867 8.05811C3.20541 5.2563 5.35792 3.11738 8.17454 1.66305C10.1568 0.639506 12.2727 0.0951745 14.5053 0.0300551C14.6037 0.0283854 14.7022 0.0100184 14.8006 0ZM22.2026 9.62097C22.1959 9.6193 22.1892 9.6193 22.1809 9.61763C22.1809 9.56754 22.1842 9.51745 22.1809 9.46736C22.1558 9.05326 21.9272 8.80948 21.5134 8.76273C21.2031 8.72767 20.9111 8.8028 20.6274 8.91802C19.0372 9.56754 17.442 10.2104 15.8568 10.8699C13.4907 11.8551 11.128 12.8452 8.76856 13.8471C7.83748 14.2428 6.92141 14.6686 6.002 15.091C5.81512 15.1762 5.63157 15.288 5.47973 15.4249C5.14934 15.7188 5.26781 16.1713 5.69331 16.3016C6.55264 16.5654 7.41031 16.8309 8.26798 17.0947C8.69181 17.2249 9.12064 17.3218 9.56783 17.2984C9.93492 17.28 10.2837 17.2065 10.5874 16.9778C10.7576 16.8509 10.9378 16.7374 11.113 16.6188C12.9401 15.3799 14.7656 14.1409 16.5944 12.9053C16.9464 12.6682 17.3019 12.4328 17.7123 12.3042C17.8141 12.2725 17.9509 12.2241 18.011 12.3276C18.0544 12.4027 18.0327 12.5397 17.9977 12.6315C17.9026 12.8836 17.7324 13.0923 17.5388 13.2777C16.2139 14.5433 14.8907 15.804 13.5658 17.0646C13.3422 17.2767 13.112 17.4837 12.9 17.7075C12.548 18.0798 12.558 18.5039 12.9134 18.8713C12.9501 18.9097 12.9902 18.9481 13.0335 18.9798C13.6443 19.4356 14.245 19.9048 14.8707 20.339C15.7417 20.9451 16.6311 21.5261 17.5154 22.1139C17.9543 22.4061 18.4165 22.6499 18.9388 22.7617C19.4777 22.8786 19.9016 22.7317 20.1435 22.3126C20.2503 22.1289 20.3354 21.9202 20.3721 21.7115C20.5039 20.9534 20.6124 20.192 20.7292 19.4323C20.8827 18.4254 21.0362 17.4186 21.1881 16.4118C21.3449 15.3682 21.4984 14.3229 21.6553 13.2793C21.7754 12.4862 21.9022 11.6948 22.0224 10.9017C22.0858 10.4775 22.1425 10.0484 22.2026 9.62097Z" fill="#007AFF"/>
<path d="M22.2026 9.62097C22.1425 10.0484 22.0858 10.4775 22.0207 10.9033C21.9006 11.6964 21.7737 12.4879 21.6536 13.281C21.4951 14.3246 21.3432 15.3698 21.1864 16.4134C21.0346 17.4203 20.881 18.4271 20.7275 19.434C20.6107 20.1937 20.5039 20.9567 20.3704 21.7131C20.3337 21.9219 20.2486 22.1306 20.1418 22.3142C19.8982 22.7333 19.4761 22.8803 18.9371 22.7634C18.4165 22.6499 17.9526 22.4077 17.5138 22.1155C16.6294 21.5261 15.74 20.9467 14.869 20.3406C14.2433 19.9065 13.6426 19.4356 13.0319 18.9815C12.9885 18.9497 12.9501 18.9113 12.9117 18.8729C12.5563 18.5056 12.5463 18.0798 12.8984 17.7091C13.1103 17.4854 13.3406 17.28 13.5642 17.0663C14.8874 15.8056 16.2123 14.5433 17.5371 13.2827C17.7324 13.0973 17.9009 12.8886 17.996 12.6365C18.031 12.543 18.0527 12.4077 18.0094 12.3326C17.9493 12.2274 17.8125 12.2758 17.7107 12.3092C17.3002 12.4378 16.9448 12.6732 16.5927 12.9103C14.7639 14.1459 12.9384 15.3865 11.1113 16.6238C10.9361 16.7424 10.7542 16.8542 10.5857 16.9828C10.282 17.2116 9.93159 17.285 9.56617 17.3034C9.11898 17.3251 8.69014 17.2299 8.26631 17.0997C7.40865 16.8342 6.54931 16.5704 5.69164 16.3066C5.26615 16.1763 5.14767 15.7238 5.47806 15.43C5.6299 15.2947 5.81512 15.1828 6.00034 15.096C6.91807 14.6736 7.83581 14.2478 8.7669 13.8521C11.1263 12.8502 13.4891 11.8601 15.8552 10.8749C17.442 10.2154 19.0356 9.57255 20.6257 8.92302C20.9094 8.80781 21.2014 8.73267 21.5118 8.76774C21.9256 8.81449 22.1542 9.05827 22.1792 9.47236C22.1826 9.52245 22.1792 9.57255 22.1792 9.62264C22.1892 9.6193 22.1959 9.62097 22.2026 9.62097Z" fill="white"/>
</svg>
