<svg width="30" height="30" viewBox="0 0 30 30" fill="none" xmlns="http://www.w3.org/2000/svg">
<path d="M1.66178e-06 14.998C0.00385671 6.7394 6.71935 0.0230371 14.9422 -9.62036e-05C23.1843 -0.0232295 30.0039 6.62373 30.0039 15.0057C30 23.4108 23.1573 30.0385 14.919 29.9999C6.70008 29.9652 -0.00385339 23.2488 1.66178e-06 14.998ZM10.5166 24.9569C10.5898 24.8913 10.6322 24.8566 10.6669 24.8181C11.6076 23.8349 12.5482 22.8479 13.485 21.8608C13.5891 21.7529 13.6931 21.6951 13.8435 21.6912C14.7726 21.6835 15.7016 21.6951 16.6268 21.6449C17.7217 21.5871 18.7972 21.3828 19.8458 21.0512C21.4842 20.5307 22.5598 19.455 23.0378 17.801C23.3616 16.6828 23.5197 15.5416 23.5505 14.3811C23.5852 13.1203 23.4503 11.875 23.2151 10.6374C23.0648 9.85468 22.8065 9.11441 22.3285 8.46668C21.65 7.55292 20.7286 6.99772 19.6569 6.68542C17.5173 6.06082 15.3315 5.85648 13.111 6.07624C11.9969 6.18806 10.9175 6.42324 9.89592 6.88976C8.32306 7.6069 7.22051 8.73271 6.83501 10.4677C6.64225 11.3391 6.52275 12.2143 6.47649 13.1049C6.39938 14.5931 6.46492 16.0737 6.85814 17.5195C7.16654 18.6492 7.72938 19.6323 8.71627 20.3032C9.18273 20.6194 9.70316 20.8546 10.2159 21.0936C10.4433 21.2015 10.5243 21.3403 10.5204 21.5833C10.5089 22.6397 10.5089 23.6961 10.505 24.7525C10.505 24.8065 10.5127 24.8605 10.5166 24.9569Z" fill="#874E9D"/>
<path d="M10.5165 24.9569C10.5088 24.8606 10.505 24.8066 10.505 24.7526C10.5088 23.6962 10.5088 22.6398 10.5204 21.5833C10.5242 21.3443 10.4433 21.2016 10.2158 21.0937C9.70698 20.8508 9.18269 20.6195 8.71623 20.3033C7.72934 19.6324 7.1665 18.6531 6.85809 17.5196C6.46488 16.0738 6.39934 14.5932 6.47644 13.105C6.5227 12.2144 6.64221 11.3353 6.83496 10.4678C7.22047 8.72895 8.32301 7.60313 9.89587 6.88986C10.9175 6.42334 11.9969 6.18815 13.111 6.07634C15.3315 5.85657 17.5173 6.06091 19.6569 6.68551C20.7286 6.99781 21.6499 7.55301 22.3284 8.46677C22.8103 9.11451 23.0686 9.85477 23.2151 10.6374C23.4502 11.8751 23.5852 13.1204 23.5505 14.3812C23.5196 15.5417 23.3616 16.6829 23.0377 17.8011C22.5559 19.4589 21.4842 20.5346 19.8458 21.0513C18.7972 21.3829 17.7216 21.5911 16.6268 21.645C15.7016 21.6913 14.7725 21.6797 13.8434 21.6913C13.6931 21.6913 13.589 21.753 13.4849 21.8609C12.5481 22.848 11.6075 23.835 10.6669 24.8181C10.6322 24.8567 10.5898 24.8914 10.5165 24.9569ZM11.1295 9.02968C11.064 9.03354 10.9946 9.03354 10.929 9.04896C9.7995 9.26873 9.06704 10.4755 9.47182 11.5551C9.74938 12.2915 10.0886 13.0086 10.4818 13.691C12.1048 16.5133 14.5027 18.4488 17.4788 19.7057C17.818 19.8483 18.1534 19.8522 18.4965 19.7211C19.1865 19.4589 19.68 18.9924 19.9845 18.3216C20.185 17.882 20.1156 17.5312 19.7455 17.215C19.5104 17.0107 19.2714 16.8063 19.0169 16.629C18.616 16.3475 18.2151 16.0661 17.791 15.8309C17.3515 15.5918 16.9583 15.6844 16.6114 16.0468C16.4957 16.1663 16.3955 16.3012 16.2875 16.4285C16.0678 16.6907 15.7864 16.7948 15.4664 16.6791C15.1619 16.5711 14.8612 16.4285 14.5798 16.2627C13.6353 15.7075 12.9375 14.9325 12.5173 13.9147C12.2937 13.3787 12.3824 13.0086 12.8257 12.6385C12.9337 12.5498 13.0454 12.465 13.1495 12.3724C13.4734 12.091 13.535 11.825 13.3539 11.4355C12.9761 10.6182 12.4518 9.90489 11.8003 9.28801C11.6191 9.1068 11.3916 9.02583 11.1295 9.02968ZM19.9961 13.8568C20.0077 13.8568 20.0192 13.853 20.0347 13.853C19.9807 13.4636 19.946 13.0703 19.8612 12.6847C19.5566 11.316 18.8203 10.2442 17.5944 9.53862C16.7733 9.06824 15.8673 8.92173 14.9383 8.87932C14.7571 8.86775 14.6569 8.97956 14.6491 9.15306C14.6414 9.30728 14.7031 9.36126 14.8997 9.39596C15.3045 9.46922 15.7131 9.52319 16.1102 9.62344C16.8851 9.82007 17.5867 10.1671 18.1611 10.7415C18.7933 11.3739 19.121 12.1642 19.3099 13.0125C19.3986 13.4057 19.4256 13.8144 19.4834 14.2154C19.5065 14.3735 19.6029 14.4506 19.7571 14.4506C19.919 14.4506 19.9807 14.3388 19.9961 14.2038C20.0077 14.0882 19.9961 13.9725 19.9961 13.8568ZM18.6815 13.3865C18.6623 13.213 18.6584 13.0356 18.6237 12.8621C18.296 11.2466 17.0508 10.2712 15.3623 10.1632C15.1696 10.1516 15.0616 10.248 15.0501 10.4292C15.0385 10.5873 15.1195 10.6837 15.3045 10.7184C15.4973 10.7531 15.6862 10.784 15.8789 10.8264C16.9737 11.0693 17.737 11.6746 17.9992 12.8043C18.0686 13.1011 18.1071 13.4057 18.1534 13.7065C18.1765 13.8453 18.2343 13.9301 18.3885 13.9339C18.5312 13.9378 18.6276 13.8915 18.6468 13.7373C18.6545 13.6255 18.6661 13.5098 18.6815 13.3865ZM15.8673 11.4895C15.7864 11.5049 15.7016 11.5127 15.6245 11.5358C15.4973 11.5743 15.4356 11.6592 15.4394 11.798C15.4433 11.9368 15.532 11.9907 15.6476 12.0177C15.7594 12.0447 15.8751 12.0679 15.9869 12.0987C16.3724 12.2067 16.6384 12.4457 16.7733 12.8235C16.8234 12.9623 16.8465 13.1127 16.8774 13.2592C16.9159 13.4559 16.9969 13.533 17.1549 13.5291C17.3053 13.5253 17.3747 13.4443 17.4017 13.2515C17.5135 12.4341 16.7155 11.5242 15.8673 11.4895Z" fill="white"/>
<path d="M11.1296 9.02969C11.3917 9.02583 11.6192 9.11065 11.8119 9.29186C12.4634 9.91261 12.9877 10.622 13.3655 11.4394C13.5429 11.8288 13.4812 12.0948 13.1612 12.3763C13.0571 12.4688 12.9453 12.5498 12.8374 12.6423C12.3941 13.0125 12.3054 13.3787 12.529 13.9185C12.9492 14.9364 13.6469 15.7152 14.5914 16.2665C14.8728 16.4323 15.1697 16.5711 15.4781 16.6829C15.7942 16.7986 16.0795 16.6945 16.2992 16.4323C16.4072 16.3051 16.5074 16.1702 16.623 16.0506C16.97 15.6882 17.3632 15.5957 17.8027 15.8347C18.2306 16.0699 18.6315 16.3514 19.0286 16.6328C19.283 16.8102 19.5182 17.0145 19.7572 17.2189C20.1234 17.535 20.1967 17.882 19.9962 18.3254C19.6917 18.9963 19.1982 19.4628 18.5082 19.725C18.1612 19.8561 17.8297 19.8561 17.4904 19.7095C14.5143 18.4526 12.1126 16.5172 10.4935 13.6949C10.1042 13.0125 9.76105 12.2953 9.48349 11.5589C9.07871 10.4794 9.81117 9.27258 10.9407 9.05282C10.9947 9.03354 11.0641 9.03354 11.1296 9.02969Z" fill="#874E9D"/>
<path d="M19.9962 13.8568C19.9962 13.9725 20.0039 14.092 19.9924 14.2077C19.9769 14.3465 19.9153 14.4544 19.7534 14.4544C19.5991 14.4544 19.5028 14.3773 19.4796 14.2192C19.4218 13.8183 19.3948 13.4096 19.3062 13.0163C19.1173 12.1642 18.7896 11.3739 18.1574 10.7454C17.583 10.1709 16.8813 9.82778 16.1065 9.62729C15.7094 9.52705 15.3008 9.46922 14.896 9.39982C14.6994 9.36512 14.6377 9.30728 14.6454 9.15692C14.6531 8.98342 14.7572 8.87161 14.9345 8.87932C15.8636 8.92173 16.7734 9.06824 17.5907 9.53862C18.8166 10.2442 19.5529 11.316 19.8574 12.6847C19.9422 13.0664 19.9731 13.4636 20.0309 13.853C20.0232 13.853 20.0078 13.853 19.9962 13.8568Z" fill="#874E9D"/>
<path d="M18.6816 13.3865C18.6662 13.5098 18.6546 13.6255 18.6392 13.7412C18.6199 13.8954 18.5235 13.9417 18.3809 13.9378C18.2306 13.9339 18.1689 13.8491 18.1457 13.7103C18.0995 13.4096 18.0609 13.105 17.9915 12.8081C17.7294 11.6784 16.9661 11.0731 15.8713 10.8302C15.6824 10.7878 15.4896 10.757 15.2969 10.7223C15.1118 10.6876 15.027 10.5912 15.0424 10.4331C15.0578 10.2519 15.1619 10.1555 15.3547 10.1671C17.0432 10.275 18.2884 11.2505 18.6161 12.866C18.6546 13.0356 18.6623 13.2168 18.6816 13.3865Z" fill="#874E9D"/>
<path d="M15.8674 11.4895C16.7155 11.5242 17.5135 12.4341 17.4017 13.2515C17.3747 13.4443 17.3015 13.5253 17.155 13.5291C16.9969 13.533 16.9198 13.4559 16.8774 13.2592C16.8466 13.1127 16.8235 12.9623 16.7733 12.8235C16.6384 12.4457 16.3724 12.2067 15.9869 12.0987C15.8751 12.0679 15.7595 12.0447 15.6477 12.0177C15.532 11.9907 15.4433 11.9368 15.4395 11.798C15.4356 11.6592 15.5012 11.5743 15.6245 11.5358C15.7055 11.5127 15.7864 11.5049 15.8674 11.4895Z" fill="#874E9D"/>
</svg>
