<svg width="30" height="30" viewBox="0 0 30 30" fill="none" xmlns="http://www.w3.org/2000/svg">
<path d="M0.663241 28.1644C0.965771 27.325 1.26539 26.5001 1.56211 25.6724C1.66392 25.3936 1.76282 25.1147 1.86464 24.8359C2.13226 24.0953 2.4057 23.3285 2.68205 22.5762C2.67914 22.5704 2.67623 22.5646 2.67042 22.5559C1.66392 20.9556 0.974498 19.2594 0.628333 17.5138C0.383981 16.2852 0.30544 15.0247 0.392708 13.7671C0.523611 11.8792 1.00941 10.0552 1.83846 8.34737C2.71405 6.54081 3.93872 4.94917 5.48046 3.61603C7.54873 1.82399 9.97188 0.67964 12.6772 0.20912C13.4713 0.0697067 14.2975 0 15.1265 0C15.4698 0 15.8218 0.0116178 16.1738 0.0348533C18.4078 0.185884 20.5168 0.813244 22.4396 1.89951C24.8163 3.24426 26.7129 5.12925 28.0743 7.50799C28.8917 8.93697 29.456 10.4734 29.7498 12.0767C29.9767 13.3169 30.0495 14.5687 29.9651 15.7973C29.7673 18.6465 28.8073 21.2576 27.1172 23.555C25.4533 25.8205 23.2745 27.5051 20.6448 28.5594C18.9111 29.2536 17.0901 29.6079 15.2342 29.6079C15.0451 29.6079 14.856 29.605 14.6669 29.5963C13.0932 29.5353 11.4933 29.1606 9.91079 28.481C9.61408 28.3532 9.32318 28.2138 9.04393 28.0744C8.82866 27.9698 8.60758 27.8623 8.39232 27.7636C8.37487 27.7549 8.34869 27.7491 8.33123 27.7491C6.38805 28.2864 4.41288 28.8411 2.50461 29.3755L1.03268 29.788C0.980316 29.8025 0.933773 29.8112 0.881412 29.8199C0.85814 29.8228 0.83196 29.8286 0.799961 29.8344L0 30L0.663241 28.1644ZM8.37778 24.5193C8.68322 24.5193 8.92175 24.6413 9.09629 24.7488C10.83 25.8205 12.7441 26.3985 14.792 26.4711C14.9316 26.4769 15.0713 26.4769 15.208 26.4769C16.7323 26.4769 18.2217 26.1807 19.6383 25.594C21.8986 24.6558 23.7079 23.1513 25.017 21.1182C26.4104 18.9515 27.0241 16.5292 26.838 13.9239C26.7536 12.7331 26.4889 11.5771 26.0526 10.4879C25.1741 8.29509 23.7487 6.51176 21.8142 5.18443C19.8274 3.82225 17.6021 3.13099 15.1993 3.13099C14.8066 3.13099 14.4051 3.14842 14.0037 3.18617C13.0205 3.27331 12.0372 3.50276 11.086 3.86872C8.24978 4.95498 6.1117 6.87482 4.72995 9.57595C4.04635 10.912 3.6391 12.402 3.52565 14.0023C3.4442 15.1234 3.53437 16.2649 3.78745 17.3976C4.14234 18.9776 4.84631 20.4763 5.87317 21.8501C6.05934 22.097 6.09716 22.37 5.98953 22.6605C5.80917 23.1426 5.63173 23.6364 5.4601 24.1156L5.33501 24.4612C5.21866 24.7865 5.1023 25.1089 4.98303 25.44C5.04994 25.4226 5.11684 25.4023 5.18084 25.3848C6.15825 25.1147 7.08038 24.8591 8.01416 24.5803C8.13633 24.5367 8.2556 24.5193 8.37778 24.5193Z" fill="#39B54A"/>
<path d="M0.709839 29.3872C1.14618 28.176 1.57089 27.0026 1.99269 25.8292C2.36503 24.7981 2.73447 23.7642 3.10972 22.736C3.1679 22.5762 3.14463 22.4543 3.05445 22.3148C2.10613 20.8016 1.42835 19.181 1.07928 17.4267C0.840742 16.2271 0.765109 15.0218 0.852377 13.8019C0.980371 11.9605 1.44871 10.212 2.25449 8.55068C3.11263 6.77897 4.29657 5.25414 5.78305 3.96457C7.79895 2.219 10.129 1.11821 12.7558 0.662216C13.8728 0.467618 15.0044 0.418242 16.1418 0.496662C18.3061 0.641885 20.3278 1.2402 22.2099 2.30323C24.5283 3.61313 26.3493 5.42841 27.6729 7.74035C28.4641 9.12286 29.0081 10.5983 29.2961 12.1638C29.5143 13.3546 29.5899 14.5571 29.5026 15.7711C29.3106 18.5478 28.3885 21.0543 26.742 23.2907C25.1159 25.501 23.0157 27.113 20.4703 28.1354C18.6144 28.8789 16.68 29.2158 14.6815 29.1403C13.0903 29.0735 11.5602 28.6872 10.0941 28.0569C9.58214 27.8362 9.09052 27.5748 8.58146 27.3453C8.47673 27.2989 8.33129 27.2727 8.22075 27.3018C5.78305 27.9785 3.34535 28.6611 0.907647 29.3436C0.861104 29.361 0.808743 29.3668 0.709839 29.3872ZM4.2413 26.1139C5.57069 25.7421 6.85936 25.3936 8.1393 25.016C8.42437 24.9317 8.62218 24.9956 8.85199 25.1409C10.6643 26.262 12.6453 26.8574 14.7746 26.93C16.5142 26.991 18.1984 26.6889 19.8129 26.018C22.1604 25.045 24.0309 23.4999 25.401 21.3651C26.8642 19.088 27.4867 16.5902 27.2918 13.8891C27.2046 12.6547 26.934 11.4609 26.4744 10.3137C25.561 8.0366 24.0949 6.19228 22.0703 4.80395C19.6238 3.12518 16.904 2.46007 13.9572 2.72437C12.9129 2.81731 11.8977 3.05838 10.9144 3.43596C7.95312 4.56869 5.75396 6.54662 4.31112 9.36102C3.57225 10.8045 3.17372 12.3439 3.05736 13.9617C2.97009 15.1554 3.069 16.3288 3.3308 17.4906C3.71478 19.1897 4.45657 20.7261 5.49506 22.1173C5.58815 22.2422 5.60269 22.3497 5.54742 22.492C5.32343 23.0903 5.10817 23.6945 4.89291 24.2957C4.68056 24.8911 4.4682 25.4865 4.2413 26.1139Z" fill="white"/>
<path d="M4.24131 26.1138C4.46821 25.4836 4.68056 24.8911 4.89292 24.2986C5.11109 23.6974 5.32344 23.0932 5.54743 22.4949C5.59979 22.3526 5.58816 22.2451 5.49507 22.1202C4.45367 20.7261 3.71188 19.1926 3.33081 17.4935C3.06901 16.3317 2.97301 15.1583 3.05737 13.9646C3.17373 12.3468 3.57225 10.8074 4.31113 9.36392C5.75397 6.54952 7.95313 4.57159 10.9144 3.43886C11.8977 3.06419 12.9129 2.82021 13.9572 2.72727C16.904 2.46297 19.6238 3.12518 22.0703 4.80685C24.0949 6.19518 25.561 8.0395 26.4744 10.3166C26.934 11.4638 27.2046 12.6576 27.2918 13.892C27.4838 16.5931 26.8642 19.0909 25.401 21.368C24.028 23.4969 22.1575 25.045 19.81 26.018C18.1955 26.686 16.5142 26.9881 14.7717 26.93C12.6453 26.8574 10.6643 26.262 8.84909 25.1409C8.61637 24.9985 8.41856 24.9317 8.1364 25.016C6.85937 25.3935 5.5707 25.7421 4.24131 26.1138ZM7.44116 10.9614C7.44698 12.1202 7.80769 13.1833 8.36039 14.1824C9.16326 15.6433 10.1523 16.9736 11.281 18.2021C12.782 19.8344 14.5186 21.1269 16.6189 21.8995C17.5032 22.2248 18.373 22.5646 19.3417 22.524C20.5751 22.4746 21.567 21.9431 22.335 21.0107C22.8062 20.4386 22.8499 19.7096 22.9168 18.998C22.9517 18.6204 22.7888 18.3996 22.463 18.2399C21.9568 17.9901 21.4652 17.7084 20.959 17.4528C20.4209 17.1827 19.8769 16.9184 19.3242 16.6773C19.0566 16.5611 18.8879 16.6483 18.7104 16.8835C18.3061 17.4296 17.8988 17.9756 17.4858 18.5158C17.2705 18.7976 17.0843 18.8527 16.7673 18.7017C16.3135 18.4868 15.8538 18.2719 15.4204 18.0163C13.6954 17.0055 12.4358 15.5533 11.4846 13.8164C11.2897 13.4621 11.3217 13.2994 11.5835 12.9887C11.8308 12.6953 12.0809 12.4049 12.2933 12.0883C12.5929 11.6439 12.7587 11.1966 12.4824 10.639C12.1886 10.0494 11.9995 9.40749 11.758 8.78884C11.5922 8.36189 11.4293 7.93784 11.2461 7.5196C11.1181 7.23206 10.8941 7.06651 10.5596 7.08103C10.3297 7.08975 10.0999 7.08103 9.87013 7.07522C9.4716 7.06651 9.13998 7.21464 8.86363 7.49346C7.92113 8.46064 7.44116 9.6108 7.44116 10.9614Z" fill="#39B54A"/>
<path d="M7.44104 10.9614C7.44104 9.61081 7.92102 8.45774 8.86643 7.49637C9.14278 7.21464 9.4744 7.06651 9.87292 7.07813C10.1027 7.08394 10.3325 7.09265 10.5623 7.08394C10.8969 7.06942 11.1238 7.23497 11.2489 7.52251C11.4321 7.94075 11.5979 8.3677 11.7608 8.79175C12.0023 9.4104 12.1914 10.0523 12.4852 10.6419C12.7644 11.1995 12.5986 11.6497 12.2961 12.0912C12.0808 12.4078 11.8306 12.6982 11.5863 12.9916C11.3245 13.3024 11.2925 13.465 11.4874 13.8193C12.4386 15.5562 13.6982 17.0084 15.4232 18.0192C15.8566 18.2748 16.3133 18.4897 16.77 18.7046C17.0871 18.8557 17.2733 18.8005 17.4886 18.5187C17.9016 17.9785 18.3089 17.4325 18.7132 16.8864C18.8878 16.6512 19.0565 16.564 19.327 16.6802C19.8797 16.9213 20.4237 17.1856 20.9618 17.4557C21.468 17.7084 21.9567 17.9901 22.4658 18.2428C22.7916 18.4026 22.9574 18.6233 22.9196 19.0009C22.8527 19.7096 22.809 20.4415 22.3378 21.0137C21.5698 21.9431 20.5779 22.4775 19.3445 22.5269C18.3758 22.5646 17.506 22.2277 16.6217 21.9024C14.5214 21.1269 12.7848 19.8374 11.2838 18.2051C10.1551 16.9765 9.16896 15.6462 8.36318 14.1853C7.81048 13.1833 7.44686 12.1202 7.44104 10.9614Z" fill="white"/>
</svg>
