<svg width="30" height="30" viewBox="0 0 30 30" fill="none" xmlns="http://www.w3.org/2000/svg">
<path d="M15 30C23.2843 30 30 23.2843 30 15C30 6.71573 23.2843 0 15 0C6.71573 0 0 6.71573 0 15C0 23.2843 6.71573 30 15 30Z" fill="#39B54A"/>
<path d="M5.86002 25.6C6.07002 24.74 6.27002 23.95 6.47002 23.16C6.67002 22.34 6.88002 21.53 7.08002 20.71C7.10002 20.64 7.08002 20.53 7.03002 20.47C5.94002 19 5.25002 17.36 5.06002 15.54C4.84002 13.39 5.23002 11.36 6.31002 9.46C7.16002 7.97 8.32002 6.77 9.78002 5.88C10.98 5.14 12.29 4.68 13.7 4.5C15.06 4.33 16.39 4.41 17.71 4.78C18.95 5.13 20.08 5.7 21.1 6.48C22.62 7.65 23.71 9.15 24.39 10.93C24.71 11.77 24.89 12.65 24.96 13.56C25.08 15.02 24.91 16.44 24.41 17.82C23.99 18.99 23.36 20.02 22.56 20.96C21.69 21.98 20.65 22.77 19.47 23.37C18.59 23.82 17.65 24.12 16.67 24.28C15.45 24.48 14.24 24.48 13.03 24.22C12.42 24.09 11.83 23.87 11.23 23.68C11.06 23.63 10.92 23.62 10.76 23.68C9.37002 24.23 7.97002 24.78 6.58002 25.32C6.36002 25.4 6.14002 25.49 5.86002 25.6ZM7.73002 23.26C8.78002 22.85 9.79002 22.46 10.8 22.06C10.94 22.01 11.05 22 11.18 22.07C11.44 22.21 11.7 22.34 11.98 22.44C13.33 22.92 14.72 23.11 16.15 22.91C17.06 22.78 17.92 22.53 18.74 22.13C19.72 21.65 20.57 21 21.31 20.19C22.11 19.32 22.7 18.33 23.08 17.21C23.48 16.05 23.62 14.86 23.5 13.63C23.42 12.77 23.21 11.95 22.88 11.16C22.48 10.21 21.92 9.35 21.21 8.59C20.6 7.94 19.91 7.4 19.15 6.97C18.1 6.39 16.97 6.03 15.77 5.93C14.41 5.81 13.09 5.99 11.83 6.5C10.43 7.06 9.25002 7.92 8.32002 9.11C6.75002 11.13 6.16002 13.4 6.59002 15.93C6.85002 17.43 7.46002 18.77 8.46002 19.92C8.60002 20.08 8.59002 20.23 8.54002 20.42C8.27002 21.35 8.01002 22.28 7.73002 23.26Z" fill="white"/>
<path d="M10.52 11.78C10.5 11.03 10.91 10.51 11.44 10.06C11.51 10 11.57 9.93 11.65 9.89C11.77 9.83 11.91 9.77 12.04 9.77C12.32 9.77 12.6 9.79 12.88 9.82C12.95 9.83 13.05 9.9 13.08 9.97C13.37 10.7 13.66 11.43 13.94 12.16C14.03 12.4 14.03 12.63 13.83 12.83C13.61 13.04 13.43 13.29 13.21 13.5C13.05 13.65 13.02 13.78 13.15 13.94C13.64 14.54 14.11 15.18 14.65 15.72C15.09 16.17 15.65 16.5 16.14 16.9C16.28 17.01 16.36 16.98 16.47 16.87C16.69 16.65 16.93 16.45 17.15 16.23C17.39 15.99 17.64 15.98 17.94 16.1C18.64 16.38 19.35 16.65 20.05 16.93C20.12 16.96 20.19 17.04 20.2 17.1C20.24 17.41 20.28 17.72 20.27 18.03C20.26 18.18 20.15 18.33 20.06 18.46C19.77 18.88 19.41 19.22 18.93 19.4C18.48 19.57 18.01 19.5 17.56 19.43C16.18 19.21 15 18.54 13.92 17.69C13.11 17.05 12.39 16.33 11.81 15.48C11.22 14.62 10.78 13.68 10.62 12.64C10.57 12.37 10.55 12.07 10.52 11.78Z" fill="white"/>
</svg>
