<svg width="266" height="40" fill="none" xmlns="http://www.w3.org/2000/svg"><g opacity=".9"><mask id="a" style="mask-type:luminance" maskUnits="userSpaceOnUse" x="0" y="0" width="266" height="40"><path d="M265.939 0H0v40h265.939V0z" fill="#fff"/></mask><g mask="url(#a)"><path d="M42.85 0l4.07 11.275a59.398 59.398 0 01-23.458 4.803A59.344 59.344 0 010 11.271L4.07 0a47.36 47.36 0 0019.401 4.121A47.327 47.327 0 0042.85 0zM23.462 28.043A47.36 47.36 0 014.07 23.922L0 35.193A59.346 59.346 0 0023.462 40a59.426 59.426 0 0023.458-4.801l-4.07-11.277a47.327 47.327 0 01-19.388 4.121zm202.206-8.789A20.435 20.435 0 01204.411 40h-13.313V0h14.17c13.487 0 20.4 9.418 20.4 19.254zm-9.23 0c0-5.715-3.39-10.774-10.985-10.774h-5.227v23.04h4.093c8.194 0 12.119-6.075 12.119-12.266zM145.681 40l-8.853-16.764a11.488 11.488 0 006.287-10.657C143.115 6.314 138.727 0 128.122 0h-15.978v40h9.124V25.105h6.551L135.472 40h10.209zm-24.413-22.688V8.476h4.933c4.686 0 7.301.89 7.301 4.332 0 3.849-3.014 4.489-7.301 4.489l-4.933.015zM93.891 0H82.645L68.39 40h9.371l2.684-7.924H96.09L98.774 40h9.371L93.891 0zM83.208 23.922l5.061-14.945 5.06 14.945H83.207zM172.558 0h-11.247l-14.253 40h9.371l2.684-7.924h15.643L177.435 40h9.37L172.558 0zm-10.684 23.922l5.06-14.945 5.061 14.945h-10.121zM251.686 0h-11.247l-14.253 40h9.371l2.684-7.924h15.643L256.568 40h9.371L251.686 0zm-10.684 23.922l5.061-14.945 5.06 14.945h-10.121z" fill="#fff"/></g></g></svg>