<svg width="204" height="40" fill="none" xmlns="http://www.w3.org/2000/svg"><path d="M29.475 35.995l-.604 3.98H0c1.195-2.753 1.12-4.305 1.12-6.295V6.324c0-1.928.075-3.617-1.12-6.295h28.167l.05 4.054c-.528-.212-.955-.4-1.345-.575-1.044-.388-2.364-.751-3.735-.739H7.696v15.643h18.12l-.893 3.08H7.696v15.655H24.03c2.754.05 5.495-1.502 5.495-1.502l-.075.338c0 .012.012.012.025.012zm43.457 3.98c.39-1.965.39-4.743.075-7.008l-2.565-18.822-14.008 25.817H53.77l-14.235-26.98-2.766 20.398c-.302 2.353-.39 5.331-.139 6.595h-5.004c.968-2.04 1.207-2.928 1.66-6.282L37.812.029h2.3L56.725 31.44 73.322.03h1.735l4.678 33.589c.465 3.341.817 4.305 1.748 6.357h-8.55zm42.162 0l-6.664-14.63H95.025l-6.576 14.63h-5.231c1.66-2.052 2.226-3.004 3.395-5.556L102.155.029h1.748l15.291 33.426c1.634 3.266 2.401 4.28 4.74 6.52h-8.84zm41.936 0l-6.664-14.63h-13.405l-6.576 14.63h-5.231c1.66-2.052 2.226-3.004 3.395-5.556L144.091.029h1.748l15.303 33.426c1.635 3.266 2.402 4.28 4.741 6.52h-8.853zm38 .025c-4.011-3.642-9.204-8.472-15.705-16.131-1.861-2.165-3.169-2.44-4.011-2.49V33.68c0 1.977 0 3.542 1.131 6.295h-8.827c1.195-2.753 1.119-4.305 1.119-6.295V6.298c0-1.927.076-3.616-1.119-6.294h8.651c5.91 0 19.881-.526 19.881 10.962 0 6.07-4.842 9.336-10.525 10.162l-1.685.163S202.374 39.224 203.166 40h-8.136zm-10.449-21.162l-.012.012c3.722-1.401 4.979-4.918 4.853-7.896-.138-2.866-1.433-9.098-14.096-8.598V19.39s7.092.388 9.079-.476c.113-.05.176-.075.176-.075zm-46.337 3.717h10.827l-5.458-11.926-5.369 11.926zm-41.923 0h10.826l-5.457-11.926-5.37 11.926z" fill="#fff" opacity=".9"/></svg>