<svg width="195" height="60" fill="none" xmlns="http://www.w3.org/2000/svg"><path d="M.056.912l.056.894 1.396.186c.764.094 1.509.261 1.64.336.167.111.223 2.719.223 11.955 0 10.484-.038 11.825-.298 12.086-.187.204-.634.298-1.378.298-1.546 0-1.676.074-1.676 1.042v.82h9.869v-.838c0-.931.093-.875-2.309-1.117-.596-.056-1.173-.15-1.248-.205-.093-.056-.167-2.57-.167-5.587v-5.475h4.935l3.799 6.611 3.78 6.61h5.177v-.837c0-.931-.019-.95-1.9-1.08-.596-.038-1.117-.112-1.154-.15-.019-.037-1.62-2.625-3.52-5.753l-3.445-5.68 1.248-.28c3.352-.8 5.326-2.774 5.847-5.903.615-3.705-1.508-7.039-5.27-8.286-1.136-.391-1.639-.41-8.436-.485L0 0l.056.912zm14.618 1.825c1.192.354 2.589 1.565 3.073 2.682.28.614.39 1.266.39 2.272.02 2.514-1.117 4.153-3.463 4.953-.8.261-1.639.317-4.693.335H6.257l-.056-5.158-.037-5.158.41-.075c.242-.037 1.936-.093 3.798-.111 2.496-.019 3.595.056 4.302.26zM65.643.223c-3.315.466-6.406 2.142-8.287 4.507-1.024 1.285-2.29 3.985-2.644 5.643-.913 4.152-.373 8.454 1.452 11.769 1.024 1.825 3.334 4.06 5.121 4.934 2.235 1.1 3.445 1.36 6.425 1.36s4.19-.26 6.424-1.36c2.03-.987 4.302-3.296 5.364-5.437 1.34-2.756 1.899-6.09 1.526-9.218-.353-3.017-1.117-5.028-2.737-7.3-1.49-2.123-4.227-3.93-6.946-4.58-1.527-.373-4.227-.522-5.698-.318zm5.102 2.533c1.583.41 2.85 1.155 4.153 2.477 1.415 1.415 2.253 2.923 2.775 4.972 1.322 5.14 0 10.912-3.092 13.631-3.054 2.7-8.138 3.259-11.88 1.304-1.602-.838-3.222-2.552-4.06-4.246-1.043-2.104-1.34-3.557-1.34-6.61 0-2.906.334-4.545 1.377-6.612 1.08-2.141 3.37-4.115 5.587-4.823 1.843-.577 4.432-.614 6.48-.093zm43.24-1.788c0 .931 0 .931.614.95 1.509.037 1.043-.894 6.667 13.39l5.158 13.128h2.514l5.14-13.166 5.14-13.166 1.08-.13 1.061-.13V.037h-8.566v1.807l1.732.167 1.713.168v.558c-.018.578-8.082 21.695-8.287 21.695-.074 0-2.216-5.475-4.767-12.16L118.547.13l-2.29-.055-2.272-.056v.95zM175.438.95v.912l1.266.13c.689.056 1.378.13 1.527.15.242.037.28 1.545.335 12.16l.038 12.141-.41.112c-.242.056-.819.112-1.303.112-1.304 0-1.453.111-1.453 1.042v.82h19.553v-5.96h-.819c-.931 0-1.043.168-1.043 1.807 0 .521-.075 1.173-.186 1.434l-.187.484h-11.173V15.121h9.311v-2.048h-9.311V2.458h5.196c3.706 0 5.251.056 5.344.205.075.13.187.894.242 1.732l.112 1.508.894.056.894.056-.056-2.942-.056-2.943-9.348-.056-9.367-.037V.95zM43.222 51.434V60h1.862v-7.635h3.352V60h1.862V42.868h-1.862v7.635h-3.352v-7.635h-1.862v8.566zm23.165-8.213c-.428.187-1.006.67-1.304 1.062l-.54.689-.056 6.257-.055 6.257.54.857c1.378 2.16 4.748 2.048 5.94-.187.428-.819.428-.912.428-6.703 0-5.308-.037-5.96-.353-6.63-.41-.894-.82-1.285-1.75-1.676a3.536 3.536 0 00-2.85.075zm2.626 1.975l.465.446v11.416l-.54.54c-.298.298-.726.54-.95.54-.54 0-1.415-.484-1.564-.838-.056-.168-.112-2.868-.112-5.978v-5.68l.466-.447c.298-.316.652-.465 1.117-.465.466 0 .82.149 1.118.466zm14.617-1.397v.931h3.54V60h1.862V44.73h3.538v-1.862h-8.94v.93zm22.199 7.579l.056 8.529h6.517l.056-.875.056-.876-2.384-.056-2.383-.056-.056-2.83-.056-2.83 2.104-.056 2.105-.056.056-.875.055-.876-2.104-.056-2.104-.056-.056-2.849-.056-2.83h4.86v-1.862h-6.703l.037 8.51zm19.888.056V60h6.89v-1.862h-5.028v-15.27h-1.862v8.566zm21.08-8.175c-.465.223-1.024.726-1.303 1.154-.466.69-.503.931-.559 3.036-.056 2.011-.018 2.346.317 3.035.503.987 1.508 1.639 2.868 1.844 1.676.26 1.806.465 1.806 2.83 0 1.825-.037 2.011-.41 2.365-.633.578-1.173.67-1.806.335-.764-.372-.95-.8-.95-2.03v-1.042h-1.862v1.21c0 1.49.298 2.235 1.173 3.017 1.434 1.266 3.389 1.21 4.767-.13.578-.559.782-.931.95-1.807.298-1.378.149-3.892-.261-4.674-.465-.875-1.657-1.676-2.756-1.825-.577-.074-1.136-.298-1.471-.577-.521-.447-.54-.503-.54-2.328 0-1.806.019-1.862.54-2.402.708-.689 1.527-.726 2.16-.075.391.373.466.634.466 1.583v1.118h2.104l-.13-1.341c-.131-1.527-.466-2.197-1.471-2.998-.95-.782-2.458-.894-3.632-.298z" opacity=".9" fill="#fff"/></svg>