<svg width="256" height="40" fill="none" xmlns="http://www.w3.org/2000/svg"><g opacity=".9" fill="#fff"><path d="M180.28 39.718h5.352l11.268-21.69 10.986 21.69h5.352L196.9 7.324l-16.62 32.394zm-17.467-16.056l-9.014-16.057h-5.634l12.394 21.409v10.704h4.789V29.014l12.394-21.409h-5.634l-9.295 16.056zm55.494-11.268h9.859v27.324h4.788V12.394h9.859V7.605h-24.506v4.789zm-82.814-4.789h-4.789v32.113h4.789V7.605zM112.39 31.83L91.827 7.605h-4.225v32.113h4.788V15.774l20.282 23.944h4.507V7.605h-4.789v24.226zm-53.799-9.013L48.451 7.605h-4.508v32.113h4.789V16.619l9.86 14.648 10.14-14.648v23.099h4.789V7.605h-4.507L58.59 22.817zM16.62 35.493c-6.48 0-11.55-5.352-11.55-11.55 0-6.478 5.352-11.548 11.55-11.548 6.478 0 11.549 5.352 11.549 11.549 0 6.197-5.352 11.549-11.55 11.549zm0-28.169C7.324 7.324 0 14.648 0 23.662 0 32.676 7.324 40 16.62 40c9.014 0 16.62-7.324 16.62-16.338-.282-9.014-7.606-16.338-16.62-16.338zm238.022-5.352a3.392 3.392 0 00-1.408-1.409c-.563-.281-1.127-.563-1.69-.563-.564 0-1.127.282-1.972.563a3.392 3.392 0 00-1.408 1.409c-.282.563-.282 1.127-.282 1.69 0 .845 0 1.408.282 1.972a3.392 3.392 0 001.408 1.408c.563.282 1.127.564 1.972.564.563 0 1.408-.282 1.972-.564a3.397 3.397 0 001.408-1.408c.282-.564.563-1.127.563-1.972-.281-.563-.281-1.127-.845-1.69zm-.563 3.38c0 .282-.563.845-1.127 1.127-.563.282-1.127.282-1.69.282s-1.127-.282-1.408-.282c-.564-.282-.845-.564-1.127-1.127-.282-.563-.282-1.127-.282-1.408 0-.564 0-1.127.282-1.69.282-.564.563-.846 1.127-1.127.563-.282 1.126-.282 1.408-.282.563 0 1.127 0 1.409.282.563.281.845.563 1.126 1.126.282.564.564 1.127.564 1.69.281.282.281.846-.282 1.41z"/><path d="M252.106 4.225l-.281-.282c.281 0 .563-.281.845-.281.282-.282.282-.564.282-.845 0-.282 0-.282-.282-.564 0-.281-.282-.281-.564-.281h-2.535v3.943h.564V3.943h.845c.281 0 .281.564.563.846l.282.563h.845l-.564-.845c.564 0 .282 0 0-.282zm-.845-.563h-.845V2.253h1.409s.281 0 .281.282v.282c0 .281 0 .281-.281.563 0 0 0 .282-.564.282z"/></g></svg>