<svg xmlns="http://www.w3.org/2000/svg" xmlns:xlink="http://www.w3.org/1999/xlink"><symbol id="mail" viewBox="0 0 512 512"><circle cx="256" cy="256" r="256" fill="#3498db"/><path d="M256 285.8l148-128.5H108l148 128.5zm-40-14l40 32.6 39.1-32.6 108 93.1H108l108-93.1zM98.7 354.7V167.6l108 93.1-108 94zm314.6 0V167.6l-108 93.1 108 94z" fill="#fff"/></symbol><symbol id="phone"><g transform="matrix(2.81 0 0 2.81 1.407 1.407)" stroke-width="0" stroke-miterlimit="10" fill="none"><circle cx="45" cy="45" r="45" fill="#2196f3"/><path d="M57.332 70.088c-1.955.001-4.074-.313-6.32-.946-6.303-1.777-12.904-5.885-18.586-11.568-5.682-5.682-9.79-12.283-11.568-18.586-1.84-6.528-.978-11.999 2.429-15.406.124-.124.25-.244.38-.36a.983.983 0 01.112-.131l1.819-1.819a4.61 4.61 0 013.282-1.36 4.61 4.61 0 013.282 1.36l6.976 6.977a4.647 4.647 0 010 6.563L36.149 37.8a1.934 1.934 0 000 2.732L49.468 53.85c.729.729 2.002.729 2.732 0l2.988-2.988a4.649 4.649 0 016.564-.001l6.977 6.977c.876.876 1.359 2.042 1.359 3.281s-.483 2.405-1.359 3.281l-1.819 1.819a1.18 1.18 0 01-.133.114c-.117.13-.236.256-.36.379-2.235 2.236-5.359 3.376-9.085 3.376z" fill="#fff"/></g></symbol><symbol id="skype" preserveAspectRatio="xMidYMid"><path d="M246.939 149.01c-.081.45-.138.905-.223 1.355l-.438-2.579c.24.402.438.82.661 1.225a121.489 121.489 0 002.015-21.913c0-16.318-3.195-32.15-9.507-47.053-6.09-14.396-14.802-27.325-25.91-38.425-11.092-11.1-24.03-19.813-38.418-25.902-14.899-6.304-30.73-9.499-47.048-9.499-7.69 0-15.394.722-22.89 2.161-.016.004-.036.004-.057.008.422.223.848.422 1.261.653l-2.542-.398c.426-.08.856-.17 1.281-.255C94.84 2.92 83.272 0 71.564 0 52.45 0 34.477 7.443 20.96 20.964 7.447 34.481 0 52.453 0 71.568a71.498 71.498 0 009.004 34.696c.077-.438.13-.88.215-1.318l.438 2.534c-.227-.397-.426-.811-.653-1.216a121.745 121.745 0 00-1.82 20.834c0 16.322 3.195 32.15 9.507 47.057 6.081 14.4 14.798 27.32 25.894 38.42 11.108 11.101 24.029 19.826 38.433 25.899 14.9 6.316 30.735 9.515 47.053 9.515 7.103 0 14.222-.649 21.17-1.881-.405-.227-.818-.434-1.232-.673l2.583.454c-.446.085-.896.138-1.35.219a71.506 71.506 0 0035.206 9.276c19.111 0 37.075-7.432 50.592-20.956 13.52-13.509 20.96-31.485 20.96-50.6a71.57 71.57 0 00-9.061-34.817zm-118.386 52.121c-42.945 0-62.158-21.114-62.158-36.937 0-8.117 5.992-13.805 14.25-13.805 18.378 0 13.618 26.389 47.908 26.389 17.555 0 27.248-9.532 27.248-19.286 0-5.866-2.894-12.37-14.453-15.22l-38.198-9.535c-30.763-7.715-36.346-24.345-36.346-39.978 0-32.457 30.56-44.644 59.26-44.644 26.437 0 57.602 14.611 57.602 34.083 0 8.344-7.225 13.196-15.48 13.196-15.685 0-12.798-21.71-44.392-21.71-15.678 0-24.362 7.1-24.362 17.259 0 10.14 12.382 13.379 23.133 15.827l28.274 6.276c30.97 6.9 38.823 24.982 38.823 42.013 0 26.377-20.247 46.072-61.109 46.072zm19.456 44.304c.414.24.827.446 1.233.673.454-.081.904-.134 1.35-.22l-2.583-.453zm98.707-95.07c.085-.45.142-.904.223-1.354-.223-.406-.422-.823-.66-1.225l.437 2.579zM9.219 104.946c-.085.438-.138.88-.215 1.318.227.405.426.819.653 1.216l-.438-2.534zm97.166-95.905c-.413-.231-.839-.43-1.26-.653-.426.085-.856.174-1.282.255l2.542.398z" fill="#00AFF0"/></symbol><symbol id="tg" viewBox="0 0 500 500"><path d="M250 500c138.071 0 250-111.929 250-250S388.071 0 250 0 0 111.929 0 250s111.929 250 250 250z" fill="#34aadf"/><path d="M104.047 247.832s125-51.3 168.352-69.364c16.619-7.225 72.977-30.347 72.977-30.347s26.012-10.115 23.844 14.451c-.723 10.116-6.503 45.52-12.283 83.815-8.671 54.191-18.064 113.439-18.064 113.439s-1.445 16.619-13.728 19.509-32.515-10.115-36.127-13.006c-2.891-2.167-54.191-34.682-72.977-50.578-5.058-4.335-10.838-13.005.722-23.121 26.012-23.844 57.081-53.468 75.867-72.254 8.671-8.671 17.341-28.902-18.786-4.336-51.3 35.405-101.878 68.642-101.878 68.642s-11.561 7.225-33.237.722c-21.677-6.502-46.966-15.173-46.966-15.173s-17.34-10.838 12.284-22.399z" fill="#fff"/></symbol></svg>